<?xml version="1.0" encoding="utf-8" standalone="no"?>
<!DOCTYPE svg PUBLIC "-//W3C//DTD SVG 1.1//EN"
  "http://www.w3.org/Graphics/SVG/1.1/DTD/svg11.dtd">
<svg xmlns:xlink="http://www.w3.org/1999/xlink" width="945.967187pt" height="468.629188pt" viewBox="0 0 945.967187 468.629188" xmlns="http://www.w3.org/2000/svg" version="1.1">
 <metadata>
  <rdf:RDF xmlns:dc="http://purl.org/dc/elements/1.1/" xmlns:cc="http://creativecommons.org/ns#" xmlns:rdf="http://www.w3.org/1999/02/22-rdf-syntax-ns#">
   <cc:Work>
    <dc:type rdf:resource="http://purl.org/dc/dcmitype/StillImage"/>
    <dc:date>2023-09-15T20:41:29.392823</dc:date>
    <dc:format>image/svg+xml</dc:format>
    <dc:creator>
     <cc:Agent>
      <dc:title>Matplotlib v3.7.1, https://matplotlib.org/</dc:title>
     </cc:Agent>
    </dc:creator>
   </cc:Work>
  </rdf:RDF>
 </metadata>
 <defs>
  <style type="text/css">*{stroke-linejoin: round; stroke-linecap: butt}</style>
 </defs>
 <g id="figure_1">
  <g id="patch_1">
   <path d="M 0 468.629188 
L 945.967187 468.629188 
L 945.967187 0 
L 0 0 
z
" style="fill: #ffffff"/>
  </g>
  <g id="axes_1">
   <g id="patch_2">
    <path d="M 45.967188 421.486125 
L 938.767187 421.486125 
L 938.767187 22.318125 
L 45.967188 22.318125 
z
" style="fill: #ffffff"/>
   </g>
   <g id="PathCollection_1">
    <defs>
     <path id="mf2bf405c95" d="M 0 1.5 
C 0.397805 1.5 0.77937 1.341951 1.06066 1.06066 
C 1.341951 0.77937 1.5 0.397805 1.5 0 
C 1.5 -0.397805 1.341951 -0.77937 1.06066 -1.06066 
C 0.77937 -1.341951 0.397805 -1.5 0 -1.5 
C -0.397805 -1.5 -0.77937 -1.341951 -1.06066 -1.06066 
C -1.341951 -0.77937 -1.5 -0.397805 -1.5 0 
C -1.5 0.397805 -1.341951 0.77937 -1.06066 1.06066 
C -0.77937 1.341951 -0.397805 1.5 0 1.5 
z
" style="stroke: #007c85"/>
    </defs>
    <g clip-path="url(#pc5f6423235)">
     <use xlink:href="#mf2bf405c95" x="95.648726" y="312.622125" style="fill: #007c85; stroke: #007c85"/>
     <use xlink:href="#mf2bf405c95" x="105.041986" y="232.369817" style="fill: #007c85; stroke: #007c85"/>
     <use xlink:href="#mf2bf405c95" x="128.231597" y="295.175971" style="fill: #007c85; stroke: #007c85"/>
     <use xlink:href="#mf2bf405c95" x="143.789183" y="61.39751" style="fill: #007c85; stroke: #007c85"/>
     <use xlink:href="#mf2bf405c95" x="153.475983" y="160.840587" style="fill: #007c85; stroke: #007c85"/>
     <use xlink:href="#mf2bf405c95" x="158.759691" y="145.139048" style="fill: #007c85; stroke: #007c85"/>
     <use xlink:href="#mf2bf405c95" x="167.272333" y="234.114433" style="fill: #007c85; stroke: #007c85"/>
     <use xlink:href="#mf2bf405c95" x="176.665593" y="171.308279" style="fill: #007c85; stroke: #007c85"/>
     <use xlink:href="#mf2bf405c95" x="187.52655" y="173.052894" style="fill: #007c85; stroke: #007c85"/>
     <use xlink:href="#mf2bf405c95" x="196.332731" y="193.988279" style="fill: #007c85; stroke: #007c85"/>
     <use xlink:href="#mf2bf405c95" x="208.661384" y="181.775971" style="fill: #007c85; stroke: #007c85"/>
     <use xlink:href="#mf2bf405c95" x="223.925432" y="148.628279" style="fill: #007c85; stroke: #007c85"/>
     <use xlink:href="#mf2bf405c95" x="232.731613" y="183.520587" style="fill: #007c85; stroke: #007c85"/>
     <use xlink:href="#mf2bf405c95" x="243.59257" y="160.840587" style="fill: #007c85; stroke: #007c85"/>
     <use xlink:href="#mf2bf405c95" x="251.811672" y="49.185202" style="fill: #007c85; stroke: #007c85"/>
     <use xlink:href="#mf2bf405c95" x="268.836956" y="251.560587" style="fill: #007c85; stroke: #007c85"/>
     <use xlink:href="#mf2bf405c95" x="297.897354" y="211.434433" style="fill: #007c85; stroke: #007c85"/>
     <use xlink:href="#mf2bf405c95" x="309.932468" y="185.265202" style="fill: #007c85; stroke: #007c85"/>
     <use xlink:href="#mf2bf405c95" x="314.922637" y="153.862125" style="fill: #007c85; stroke: #007c85"/>
     <use xlink:href="#mf2bf405c95" x="322.554661" y="239.348279" style="fill: #007c85; stroke: #007c85"/>
     <use xlink:href="#mf2bf405c95" x="331.947921" y="190.499048" style="fill: #007c85; stroke: #007c85"/>
     <use xlink:href="#mf2bf405c95" x="348.973204" y="162.585202" style="fill: #007c85; stroke: #007c85"/>
     <use xlink:href="#mf2bf405c95" x="353.963374" y="197.47751" style="fill: #007c85; stroke: #007c85"/>
     <use xlink:href="#mf2bf405c95" x="363.650173" y="155.60674" style="fill: #007c85; stroke: #007c85"/>
     <use xlink:href="#mf2bf405c95" x="375.391748" y="176.542125" style="fill: #007c85; stroke: #007c85"/>
     <use xlink:href="#mf2bf405c95" x="379.20776" y="166.074433" style="fill: #007c85; stroke: #007c85"/>
     <use xlink:href="#mf2bf405c95" x="401.223212" y="187.009817" style="fill: #007c85; stroke: #007c85"/>
     <use xlink:href="#mf2bf405c95" x="415.900181" y="235.859048" style="fill: #007c85; stroke: #007c85"/>
     <use xlink:href="#mf2bf405c95" x="424.999902" y="269.00674" style="fill: #007c85; stroke: #007c85"/>
     <use xlink:href="#mf2bf405c95" x="427.054677" y="171.308279" style="fill: #007c85; stroke: #007c85"/>
     <use xlink:href="#mf2bf405c95" x="471.672662" y="56.163663" style="fill: #007c85; stroke: #007c85"/>
     <use xlink:href="#mf2bf405c95" x="484.881934" y="96.289817" style="fill: #007c85; stroke: #007c85"/>
    </g>
   </g>
   <g id="PathCollection_2">
    <g clip-path="url(#pc5f6423235)">
     <use xlink:href="#mf2bf405c95" x="527.445142" y="309.132894" style="fill: #007c85; stroke: #007c85"/>
     <use xlink:href="#mf2bf405c95" x="553.276607" y="138.160587" style="fill: #007c85; stroke: #007c85"/>
     <use xlink:href="#mf2bf405c95" x="599.949367" y="160.840587" style="fill: #007c85; stroke: #007c85"/>
     <use xlink:href="#mf2bf405c95" x="615.506954" y="148.628279" style="fill: #007c85; stroke: #007c85"/>
     <use xlink:href="#mf2bf405c95" x="624.019596" y="174.79751" style="fill: #007c85; stroke: #007c85"/>
     <use xlink:href="#mf2bf405c95" x="634.293474" y="110.24674" style="fill: #007c85; stroke: #007c85"/>
     <use xlink:href="#mf2bf405c95" x="643.393194" y="183.520587" style="fill: #007c85; stroke: #007c85"/>
     <use xlink:href="#mf2bf405c95" x="650.731679" y="132.92674" style="fill: #007c85; stroke: #007c85"/>
     <use xlink:href="#mf2bf405c95" x="659.53786" y="214.923663" style="fill: #007c85; stroke: #007c85"/>
     <use xlink:href="#mf2bf405c95" x="669.518199" y="188.754433" style="fill: #007c85; stroke: #007c85"/>
     <use xlink:href="#mf2bf405c95" x="677.737301" y="187.009817" style="fill: #007c85; stroke: #007c85"/>
     <use xlink:href="#mf2bf405c95" x="685.369325" y="183.520587" style="fill: #007c85; stroke: #007c85"/>
     <use xlink:href="#mf2bf405c95" x="696.523821" y="199.222125" style="fill: #007c85; stroke: #007c85"/>
     <use xlink:href="#mf2bf405c95" x="704.742923" y="204.455971" style="fill: #007c85; stroke: #007c85"/>
     <use xlink:href="#mf2bf405c95" x="714.723262" y="167.819048" style="fill: #007c85; stroke: #007c85"/>
     <use xlink:href="#mf2bf405c95" x="723.235904" y="150.372894" style="fill: #007c85; stroke: #007c85"/>
     <use xlink:href="#mf2bf405c95" x="730.867927" y="148.628279" style="fill: #007c85; stroke: #007c85"/>
     <use xlink:href="#mf2bf405c95" x="739.674108" y="131.182125" style="fill: #007c85; stroke: #007c85"/>
     <use xlink:href="#mf2bf405c95" x="749.947986" y="202.711356" style="fill: #007c85; stroke: #007c85"/>
     <use xlink:href="#mf2bf405c95" x="757.58001" y="171.308279" style="fill: #007c85; stroke: #007c85"/>
     <use xlink:href="#mf2bf405c95" x="766.97327" y="164.329817" style="fill: #007c85; stroke: #007c85"/>
     <use xlink:href="#mf2bf405c95" x="778.127766" y="56.163663" style="fill: #007c85; stroke: #007c85"/>
     <use xlink:href="#mf2bf405c95" x="785.46625" y="63.142125" style="fill: #007c85; stroke: #007c85"/>
     <use xlink:href="#mf2bf405c95" x="795.446589" y="92.800587" style="fill: #007c85; stroke: #007c85"/>
     <use xlink:href="#mf2bf405c95" x="802.785073" y="206.200587" style="fill: #007c85; stroke: #007c85"/>
     <use xlink:href="#mf2bf405c95" x="811.591255" y="134.671356" style="fill: #007c85; stroke: #007c85"/>
     <use xlink:href="#mf2bf405c95" x="821.865133" y="213.179048" style="fill: #007c85; stroke: #007c85"/>
     <use xlink:href="#mf2bf405c95" x="830.084235" y="105.012894" style="fill: #007c85; stroke: #007c85"/>
     <use xlink:href="#mf2bf405c95" x="838.303337" y="239.348279" style="fill: #007c85; stroke: #007c85"/>
     <use xlink:href="#mf2bf405c95" x="846.52244" y="105.012894" style="fill: #007c85; stroke: #007c85"/>
     <use xlink:href="#mf2bf405c95" x="855.328621" y="162.585202" style="fill: #007c85; stroke: #007c85"/>
     <use xlink:href="#mf2bf405c95" x="864.428342" y="40.462125" style="fill: #007c85; stroke: #007c85"/>
     <use xlink:href="#mf2bf405c95" x="874.995759" y="82.332894" style="fill: #007c85; stroke: #007c85"/>
     <use xlink:href="#mf2bf405c95" x="878.811771" y="138.160587" style="fill: #007c85; stroke: #007c85"/>
     <use xlink:href="#mf2bf405c95" x="883.214861" y="244.582125" style="fill: #007c85; stroke: #007c85"/>
     <use xlink:href="#mf2bf405c95" x="891.727503" y="159.095971" style="fill: #007c85; stroke: #007c85"/>
    </g>
   </g>
   <g id="PathCollection_3">
    <defs>
     <path id="m03971b3073" d="M 0 1.5 
C 0.397805 1.5 0.77937 1.341951 1.06066 1.06066 
C 1.341951 0.77937 1.5 0.397805 1.5 0 
C 1.5 -0.397805 1.341951 -0.77937 1.06066 -1.06066 
C 0.77937 -1.341951 0.397805 -1.5 0 -1.5 
C -0.397805 -1.5 -0.77937 -1.341951 -1.06066 -1.06066 
C -1.341951 -0.77937 -1.5 -0.397805 -1.5 0 
C -1.5 0.397805 -1.341951 0.77937 -1.06066 1.06066 
C -0.77937 1.341951 -0.397805 1.5 0 1.5 
z
" style="stroke: #ffda00"/>
    </defs>
    <g clip-path="url(#pc5f6423235)">
     <use xlink:href="#m03971b3073" x="88.897321" y="403.342125" style="fill: #ffda00; stroke: #ffda00"/>
     <use xlink:href="#m03971b3073" x="104.748447" y="295.175971" style="fill: #ffda00; stroke: #ffda00"/>
     <use xlink:href="#m03971b3073" x="117.0771" y="335.302125" style="fill: #ffda00; stroke: #ffda00"/>
     <use xlink:href="#m03971b3073" x="133.808845" y="328.323663" style="fill: #ffda00; stroke: #ffda00"/>
     <use xlink:href="#m03971b3073" x="142.321486" y="324.834433" style="fill: #ffda00; stroke: #ffda00"/>
     <use xlink:href="#m03971b3073" x="157.585534" y="330.068279" style="fill: #ffda00; stroke: #ffda00"/>
     <use xlink:href="#m03971b3073" x="164.630479" y="309.132894" style="fill: #ffda00; stroke: #ffda00"/>
     <use xlink:href="#m03971b3073" x="181.949302" y="307.388279" style="fill: #ffda00; stroke: #ffda00"/>
     <use xlink:href="#m03971b3073" x="187.52655" y="288.19751" style="fill: #ffda00; stroke: #ffda00"/>
     <use xlink:href="#m03971b3073" x="203.084136" y="300.409817" style="fill: #ffda00; stroke: #ffda00"/>
     <use xlink:href="#m03971b3073" x="219.815881" y="317.855971" style="fill: #ffda00; stroke: #ffda00"/>
     <use xlink:href="#m03971b3073" x="233.318692" y="242.83751" style="fill: #ffda00; stroke: #ffda00"/>
     <use xlink:href="#m03971b3073" x="250.343975" y="274.240587" style="fill: #ffda00; stroke: #ffda00"/>
     <use xlink:href="#m03971b3073" x="257.095381" y="279.474433" style="fill: #ffda00; stroke: #ffda00"/>
     <use xlink:href="#m03971b3073" x="267.075719" y="282.963663" style="fill: #ffda00; stroke: #ffda00"/>
     <use xlink:href="#m03971b3073" x="289.384712" y="286.452894" style="fill: #ffda00; stroke: #ffda00"/>
     <use xlink:href="#m03971b3073" x="302.300444" y="237.603663" style="fill: #ffda00; stroke: #ffda00"/>
     <use xlink:href="#m03971b3073" x="316.390334" y="281.219048" style="fill: #ffda00; stroke: #ffda00"/>
     <use xlink:href="#m03971b3073" x="328.425448" y="239.348279" style="fill: #ffda00; stroke: #ffda00"/>
     <use xlink:href="#m03971b3073" x="345.744271" y="178.28674" style="fill: #ffda00; stroke: #ffda00"/>
     <use xlink:href="#m03971b3073" x="359.540622" y="260.283663" style="fill: #ffda00; stroke: #ffda00"/>
     <use xlink:href="#m03971b3073" x="374.21759" y="269.00674" style="fill: #ffda00; stroke: #ffda00"/>
     <use xlink:href="#m03971b3073" x="381.556075" y="295.175971" style="fill: #ffda00; stroke: #ffda00"/>
     <use xlink:href="#m03971b3073" x="394.765346" y="232.369817" style="fill: #ffda00; stroke: #ffda00"/>
     <use xlink:href="#m03971b3073" x="405.039224" y="241.092894" style="fill: #ffda00; stroke: #ffda00"/>
     <use xlink:href="#m03971b3073" x="412.671248" y="232.369817" style="fill: #ffda00; stroke: #ffda00"/>
     <use xlink:href="#m03971b3073" x="418.835575" y="235.859048" style="fill: #ffda00; stroke: #ffda00"/>
     <use xlink:href="#m03971b3073" x="435.27378" y="309.132894" style="fill: #ffda00; stroke: #ffda00"/>
     <use xlink:href="#m03971b3073" x="439.97041" y="255.049817" style="fill: #ffda00; stroke: #ffda00"/>
     <use xlink:href="#m03971b3073" x="452.592603" y="270.751356" style="fill: #ffda00; stroke: #ffda00"/>
     <use xlink:href="#m03971b3073" x="456.115075" y="249.815971" style="fill: #ffda00; stroke: #ffda00"/>
     <use xlink:href="#m03971b3073" x="464.627717" y="249.815971" style="fill: #ffda00; stroke: #ffda00"/>
     <use xlink:href="#m03971b3073" x="474.608055" y="256.794433" style="fill: #ffda00; stroke: #ffda00"/>
     <use xlink:href="#m03971b3073" x="479.011146" y="307.388279" style="fill: #ffda00; stroke: #ffda00"/>
     <use xlink:href="#m03971b3073" x="488.697945" y="286.452894" style="fill: #ffda00; stroke: #ffda00"/>
     <use xlink:href="#m03971b3073" x="499.852441" y="324.834433" style="fill: #ffda00; stroke: #ffda00"/>
     <use xlink:href="#m03971b3073" x="501.613678" y="281.219048" style="fill: #ffda00; stroke: #ffda00"/>
     <use xlink:href="#m03971b3073" x="508.071544" y="356.23751" style="fill: #ffda00; stroke: #ffda00"/>
    </g>
   </g>
   <g id="PathCollection_4">
    <g clip-path="url(#pc5f6423235)">
     <use xlink:href="#m03971b3073" x="528.032221" y="218.412894" style="fill: #ffda00; stroke: #ffda00"/>
     <use xlink:href="#m03971b3073" x="536.838402" y="321.345202" style="fill: #ffda00; stroke: #ffda00"/>
     <use xlink:href="#m03971b3073" x="546.818741" y="192.243663" style="fill: #ffda00; stroke: #ffda00"/>
     <use xlink:href="#m03971b3073" x="567.366497" y="260.283663" style="fill: #ffda00; stroke: #ffda00"/>
     <use xlink:href="#m03971b3073" x="579.98869" y="260.283663" style="fill: #ffda00; stroke: #ffda00"/>
     <use xlink:href="#m03971b3073" x="592.023804" y="281.219048" style="fill: #ffda00; stroke: #ffda00"/>
     <use xlink:href="#m03971b3073" x="597.894592" y="218.412894" style="fill: #ffda00; stroke: #ffda00"/>
     <use xlink:href="#m03971b3073" x="608.16847" y="241.092894" style="fill: #ffda00; stroke: #ffda00"/>
     <use xlink:href="#m03971b3073" x="618.735887" y="244.582125" style="fill: #ffda00; stroke: #ffda00"/>
     <use xlink:href="#m03971b3073" x="631.064541" y="255.049817" style="fill: #ffda00; stroke: #ffda00"/>
     <use xlink:href="#m03971b3073" x="643.393194" y="192.243663" style="fill: #ffda00; stroke: #ffda00"/>
     <use xlink:href="#m03971b3073" x="649.557521" y="235.859048" style="fill: #ffda00; stroke: #ffda00"/>
     <use xlink:href="#m03971b3073" x="676.269604" y="197.47751" style="fill: #ffda00; stroke: #ffda00"/>
     <use xlink:href="#m03971b3073" x="690.653033" y="220.15751" style="fill: #ffda00; stroke: #ffda00"/>
     <use xlink:href="#m03971b3073" x="698.578596" y="234.114433" style="fill: #ffda00; stroke: #ffda00"/>
     <use xlink:href="#m03971b3073" x="717.365116" y="206.200587" style="fill: #ffda00; stroke: #ffda00"/>
     <use xlink:href="#m03971b3073" x="727.345455" y="178.28674" style="fill: #ffda00; stroke: #ffda00"/>
     <use xlink:href="#m03971b3073" x="737.912872" y="202.711356" style="fill: #ffda00; stroke: #ffda00"/>
     <use xlink:href="#m03971b3073" x="754.351077" y="176.542125" style="fill: #ffda00; stroke: #ffda00"/>
     <use xlink:href="#m03971b3073" x="761.983101" y="239.348279" style="fill: #ffda00; stroke: #ffda00"/>
     <use xlink:href="#m03971b3073" x="789.282262" y="132.92674" style="fill: #ffda00; stroke: #ffda00"/>
     <use xlink:href="#m03971b3073" x="801.610916" y="263.772894" style="fill: #ffda00; stroke: #ffda00"/>
     <use xlink:href="#m03971b3073" x="809.830018" y="221.902125" style="fill: #ffda00; stroke: #ffda00"/>
     <use xlink:href="#m03971b3073" x="814.233109" y="174.79751" style="fill: #ffda00; stroke: #ffda00"/>
     <use xlink:href="#m03971b3073" x="828.322999" y="157.351356" style="fill: #ffda00; stroke: #ffda00"/>
     <use xlink:href="#m03971b3073" x="840.651652" y="220.15751" style="fill: #ffda00; stroke: #ffda00"/>
     <use xlink:href="#m03971b3073" x="850.92553" y="223.64674" style="fill: #ffda00; stroke: #ffda00"/>
     <use xlink:href="#m03971b3073" x="861.199408" y="251.560587" style="fill: #ffda00; stroke: #ffda00"/>
     <use xlink:href="#m03971b3073" x="869.418511" y="307.388279" style="fill: #ffda00; stroke: #ffda00"/>
     <use xlink:href="#m03971b3073" x="877.931153" y="216.668279" style="fill: #ffda00; stroke: #ffda00"/>
     <use xlink:href="#m03971b3073" x="883.80194" y="312.622125" style="fill: #ffda00; stroke: #ffda00"/>
    </g>
   </g>
   <g id="matplotlib.axis_1">
    <g id="xtick_1">
     <g id="line2d_1">
      <defs>
       <path id="mb3d407254e" d="M 0 0 
L 0 3.5 
" style="stroke: #000000; stroke-width: 0.8"/>
      </defs>
      <g>
       <use xlink:href="#mb3d407254e" x="67.762486" y="421.486125" style="stroke: #000000; stroke-width: 0.8"/>
      </g>
     </g>
     <g id="text_1">
      <!-- 2016 -->
      <g transform="translate(55.037486 436.084563) scale(0.1 -0.1)">
       <defs>
        <path id="DejaVuSans-32" d="M 1228 531 
L 3431 531 
L 3431 0 
L 469 0 
L 469 531 
Q 828 903 1448 1529 
Q 2069 2156 2228 2338 
Q 2531 2678 2651 2914 
Q 2772 3150 2772 3378 
Q 2772 3750 2511 3984 
Q 2250 4219 1831 4219 
Q 1534 4219 1204 4116 
Q 875 4013 500 3803 
L 500 4441 
Q 881 4594 1212 4672 
Q 1544 4750 1819 4750 
Q 2544 4750 2975 4387 
Q 3406 4025 3406 3419 
Q 3406 3131 3298 2873 
Q 3191 2616 2906 2266 
Q 2828 2175 2409 1742 
Q 1991 1309 1228 531 
z
" transform="scale(0.015625)"/>
        <path id="DejaVuSans-30" d="M 2034 4250 
Q 1547 4250 1301 3770 
Q 1056 3291 1056 2328 
Q 1056 1369 1301 889 
Q 1547 409 2034 409 
Q 2525 409 2770 889 
Q 3016 1369 3016 2328 
Q 3016 3291 2770 3770 
Q 2525 4250 2034 4250 
z
M 2034 4750 
Q 2819 4750 3233 4129 
Q 3647 3509 3647 2328 
Q 3647 1150 3233 529 
Q 2819 -91 2034 -91 
Q 1250 -91 836 529 
Q 422 1150 422 2328 
Q 422 3509 836 4129 
Q 1250 4750 2034 4750 
z
" transform="scale(0.015625)"/>
        <path id="DejaVuSans-31" d="M 794 531 
L 1825 531 
L 1825 4091 
L 703 3866 
L 703 4441 
L 1819 4666 
L 2450 4666 
L 2450 531 
L 3481 531 
L 3481 0 
L 794 0 
L 794 531 
z
" transform="scale(0.015625)"/>
        <path id="DejaVuSans-36" d="M 2113 2584 
Q 1688 2584 1439 2293 
Q 1191 2003 1191 1497 
Q 1191 994 1439 701 
Q 1688 409 2113 409 
Q 2538 409 2786 701 
Q 3034 994 3034 1497 
Q 3034 2003 2786 2293 
Q 2538 2584 2113 2584 
z
M 3366 4563 
L 3366 3988 
Q 3128 4100 2886 4159 
Q 2644 4219 2406 4219 
Q 1781 4219 1451 3797 
Q 1122 3375 1075 2522 
Q 1259 2794 1537 2939 
Q 1816 3084 2150 3084 
Q 2853 3084 3261 2657 
Q 3669 2231 3669 1497 
Q 3669 778 3244 343 
Q 2819 -91 2113 -91 
Q 1303 -91 875 529 
Q 447 1150 447 2328 
Q 447 3434 972 4092 
Q 1497 4750 2381 4750 
Q 2619 4750 2861 4703 
Q 3103 4656 3366 4563 
z
" transform="scale(0.015625)"/>
       </defs>
       <use xlink:href="#DejaVuSans-32"/>
       <use xlink:href="#DejaVuSans-30" x="63.623047"/>
       <use xlink:href="#DejaVuSans-31" x="127.246094"/>
       <use xlink:href="#DejaVuSans-36" x="190.869141"/>
      </g>
     </g>
    </g>
    <g id="xtick_2">
     <g id="line2d_2">
      <g>
       <use xlink:href="#mb3d407254e" x="175.197896" y="421.486125" style="stroke: #000000; stroke-width: 0.8"/>
      </g>
     </g>
     <g id="text_2">
      <!-- 2017 -->
      <g transform="translate(162.472896 436.084563) scale(0.1 -0.1)">
       <defs>
        <path id="DejaVuSans-37" d="M 525 4666 
L 3525 4666 
L 3525 4397 
L 1831 0 
L 1172 0 
L 2766 4134 
L 525 4134 
L 525 4666 
z
" transform="scale(0.015625)"/>
       </defs>
       <use xlink:href="#DejaVuSans-32"/>
       <use xlink:href="#DejaVuSans-30" x="63.623047"/>
       <use xlink:href="#DejaVuSans-31" x="127.246094"/>
       <use xlink:href="#DejaVuSans-37" x="190.869141"/>
      </g>
     </g>
    </g>
    <g id="xtick_3">
     <g id="line2d_3">
      <g>
       <use xlink:href="#mb3d407254e" x="282.339767" y="421.486125" style="stroke: #000000; stroke-width: 0.8"/>
      </g>
     </g>
     <g id="text_3">
      <!-- 2018 -->
      <g transform="translate(269.614767 436.084563) scale(0.1 -0.1)">
       <defs>
        <path id="DejaVuSans-38" d="M 2034 2216 
Q 1584 2216 1326 1975 
Q 1069 1734 1069 1313 
Q 1069 891 1326 650 
Q 1584 409 2034 409 
Q 2484 409 2743 651 
Q 3003 894 3003 1313 
Q 3003 1734 2745 1975 
Q 2488 2216 2034 2216 
z
M 1403 2484 
Q 997 2584 770 2862 
Q 544 3141 544 3541 
Q 544 4100 942 4425 
Q 1341 4750 2034 4750 
Q 2731 4750 3128 4425 
Q 3525 4100 3525 3541 
Q 3525 3141 3298 2862 
Q 3072 2584 2669 2484 
Q 3125 2378 3379 2068 
Q 3634 1759 3634 1313 
Q 3634 634 3220 271 
Q 2806 -91 2034 -91 
Q 1263 -91 848 271 
Q 434 634 434 1313 
Q 434 1759 690 2068 
Q 947 2378 1403 2484 
z
M 1172 3481 
Q 1172 3119 1398 2916 
Q 1625 2713 2034 2713 
Q 2441 2713 2670 2916 
Q 2900 3119 2900 3481 
Q 2900 3844 2670 4047 
Q 2441 4250 2034 4250 
Q 1625 4250 1398 4047 
Q 1172 3844 1172 3481 
z
" transform="scale(0.015625)"/>
       </defs>
       <use xlink:href="#DejaVuSans-32"/>
       <use xlink:href="#DejaVuSans-30" x="63.623047"/>
       <use xlink:href="#DejaVuSans-31" x="127.246094"/>
       <use xlink:href="#DejaVuSans-38" x="190.869141"/>
      </g>
     </g>
    </g>
    <g id="xtick_4">
     <g id="line2d_4">
      <g>
       <use xlink:href="#mb3d407254e" x="389.481638" y="421.486125" style="stroke: #000000; stroke-width: 0.8"/>
      </g>
     </g>
     <g id="text_4">
      <!-- 2019 -->
      <g transform="translate(376.756638 436.084563) scale(0.1 -0.1)">
       <defs>
        <path id="DejaVuSans-39" d="M 703 97 
L 703 672 
Q 941 559 1184 500 
Q 1428 441 1663 441 
Q 2288 441 2617 861 
Q 2947 1281 2994 2138 
Q 2813 1869 2534 1725 
Q 2256 1581 1919 1581 
Q 1219 1581 811 2004 
Q 403 2428 403 3163 
Q 403 3881 828 4315 
Q 1253 4750 1959 4750 
Q 2769 4750 3195 4129 
Q 3622 3509 3622 2328 
Q 3622 1225 3098 567 
Q 2575 -91 1691 -91 
Q 1453 -91 1209 -44 
Q 966 3 703 97 
z
M 1959 2075 
Q 2384 2075 2632 2365 
Q 2881 2656 2881 3163 
Q 2881 3666 2632 3958 
Q 2384 4250 1959 4250 
Q 1534 4250 1286 3958 
Q 1038 3666 1038 3163 
Q 1038 2656 1286 2365 
Q 1534 2075 1959 2075 
z
" transform="scale(0.015625)"/>
       </defs>
       <use xlink:href="#DejaVuSans-32"/>
       <use xlink:href="#DejaVuSans-30" x="63.623047"/>
       <use xlink:href="#DejaVuSans-31" x="127.246094"/>
       <use xlink:href="#DejaVuSans-39" x="190.869141"/>
      </g>
     </g>
    </g>
    <g id="xtick_5">
     <g id="line2d_5">
      <g>
       <use xlink:href="#mb3d407254e" x="496.623508" y="421.486125" style="stroke: #000000; stroke-width: 0.8"/>
      </g>
     </g>
     <g id="text_5">
      <!-- 2020 -->
      <g transform="translate(483.898508 436.084563) scale(0.1 -0.1)">
       <use xlink:href="#DejaVuSans-32"/>
       <use xlink:href="#DejaVuSans-30" x="63.623047"/>
       <use xlink:href="#DejaVuSans-32" x="127.246094"/>
       <use xlink:href="#DejaVuSans-30" x="190.869141"/>
      </g>
     </g>
    </g>
    <g id="xtick_6">
     <g id="line2d_6">
      <g>
       <use xlink:href="#mb3d407254e" x="604.058919" y="421.486125" style="stroke: #000000; stroke-width: 0.8"/>
      </g>
     </g>
     <g id="text_6">
      <!-- 2021 -->
      <g transform="translate(591.333919 436.084563) scale(0.1 -0.1)">
       <use xlink:href="#DejaVuSans-32"/>
       <use xlink:href="#DejaVuSans-30" x="63.623047"/>
       <use xlink:href="#DejaVuSans-32" x="127.246094"/>
       <use xlink:href="#DejaVuSans-31" x="190.869141"/>
      </g>
     </g>
    </g>
    <g id="xtick_7">
     <g id="line2d_7">
      <g>
       <use xlink:href="#mb3d407254e" x="711.200789" y="421.486125" style="stroke: #000000; stroke-width: 0.8"/>
      </g>
     </g>
     <g id="text_7">
      <!-- 2022 -->
      <g transform="translate(698.475789 436.084563) scale(0.1 -0.1)">
       <use xlink:href="#DejaVuSans-32"/>
       <use xlink:href="#DejaVuSans-30" x="63.623047"/>
       <use xlink:href="#DejaVuSans-32" x="127.246094"/>
       <use xlink:href="#DejaVuSans-32" x="190.869141"/>
      </g>
     </g>
    </g>
    <g id="xtick_8">
     <g id="line2d_8">
      <g>
       <use xlink:href="#mb3d407254e" x="818.34266" y="421.486125" style="stroke: #000000; stroke-width: 0.8"/>
      </g>
     </g>
     <g id="text_8">
      <!-- 2023 -->
      <g transform="translate(805.61766 436.084563) scale(0.1 -0.1)">
       <defs>
        <path id="DejaVuSans-33" d="M 2597 2516 
Q 3050 2419 3304 2112 
Q 3559 1806 3559 1356 
Q 3559 666 3084 287 
Q 2609 -91 1734 -91 
Q 1441 -91 1130 -33 
Q 819 25 488 141 
L 488 750 
Q 750 597 1062 519 
Q 1375 441 1716 441 
Q 2309 441 2620 675 
Q 2931 909 2931 1356 
Q 2931 1769 2642 2001 
Q 2353 2234 1838 2234 
L 1294 2234 
L 1294 2753 
L 1863 2753 
Q 2328 2753 2575 2939 
Q 2822 3125 2822 3475 
Q 2822 3834 2567 4026 
Q 2313 4219 1838 4219 
Q 1578 4219 1281 4162 
Q 984 4106 628 3988 
L 628 4550 
Q 988 4650 1302 4700 
Q 1616 4750 1894 4750 
Q 2613 4750 3031 4423 
Q 3450 4097 3450 3541 
Q 3450 3153 3228 2886 
Q 3006 2619 2597 2516 
z
" transform="scale(0.015625)"/>
       </defs>
       <use xlink:href="#DejaVuSans-32"/>
       <use xlink:href="#DejaVuSans-30" x="63.623047"/>
       <use xlink:href="#DejaVuSans-32" x="127.246094"/>
       <use xlink:href="#DejaVuSans-33" x="190.869141"/>
      </g>
     </g>
    </g>
    <g id="xtick_9">
     <g id="line2d_9">
      <g>
       <use xlink:href="#mb3d407254e" x="925.484531" y="421.486125" style="stroke: #000000; stroke-width: 0.8"/>
      </g>
     </g>
     <g id="text_9">
      <!-- 2024 -->
      <g transform="translate(912.759531 436.084563) scale(0.1 -0.1)">
       <defs>
        <path id="DejaVuSans-34" d="M 2419 4116 
L 825 1625 
L 2419 1625 
L 2419 4116 
z
M 2253 4666 
L 3047 4666 
L 3047 1625 
L 3713 1625 
L 3713 1100 
L 3047 1100 
L 3047 0 
L 2419 0 
L 2419 1100 
L 313 1100 
L 313 1709 
L 2253 4666 
z
" transform="scale(0.015625)"/>
       </defs>
       <use xlink:href="#DejaVuSans-32"/>
       <use xlink:href="#DejaVuSans-30" x="63.623047"/>
       <use xlink:href="#DejaVuSans-32" x="127.246094"/>
       <use xlink:href="#DejaVuSans-34" x="190.869141"/>
      </g>
     </g>
    </g>
   </g>
   <g id="matplotlib.axis_2">
    <g id="ytick_1">
     <g id="line2d_10">
      <path d="M 45.967188 403.342125 
L 938.767187 403.342125 
" clip-path="url(#pc5f6423235)" style="fill: none; stroke: #b0b0b0; stroke-opacity: 0.3; stroke-width: 0.8; stroke-linecap: square"/>
     </g>
     <g id="line2d_11">
      <defs>
       <path id="m705ec2231c" d="M 0 0 
L -3.5 0 
" style="stroke: #000000; stroke-width: 0.8"/>
      </defs>
      <g>
       <use xlink:href="#m705ec2231c" x="45.967188" y="403.342125" style="stroke: #000000; stroke-width: 0.8"/>
      </g>
     </g>
     <g id="text_10">
      <!-- 5.0% -->
      <g transform="translate(13.5625 407.141344) scale(0.1 -0.1)">
       <defs>
        <path id="DejaVuSans-35" d="M 691 4666 
L 3169 4666 
L 3169 4134 
L 1269 4134 
L 1269 2991 
Q 1406 3038 1543 3061 
Q 1681 3084 1819 3084 
Q 2600 3084 3056 2656 
Q 3513 2228 3513 1497 
Q 3513 744 3044 326 
Q 2575 -91 1722 -91 
Q 1428 -91 1123 -41 
Q 819 9 494 109 
L 494 744 
Q 775 591 1075 516 
Q 1375 441 1709 441 
Q 2250 441 2565 725 
Q 2881 1009 2881 1497 
Q 2881 1984 2565 2268 
Q 2250 2553 1709 2553 
Q 1456 2553 1204 2497 
Q 953 2441 691 2322 
L 691 4666 
z
" transform="scale(0.015625)"/>
        <path id="DejaVuSans-2e" d="M 684 794 
L 1344 794 
L 1344 0 
L 684 0 
L 684 794 
z
" transform="scale(0.015625)"/>
        <path id="DejaVuSans-25" d="M 4653 2053 
Q 4381 2053 4226 1822 
Q 4072 1591 4072 1178 
Q 4072 772 4226 539 
Q 4381 306 4653 306 
Q 4919 306 5073 539 
Q 5228 772 5228 1178 
Q 5228 1588 5073 1820 
Q 4919 2053 4653 2053 
z
M 4653 2450 
Q 5147 2450 5437 2106 
Q 5728 1763 5728 1178 
Q 5728 594 5436 251 
Q 5144 -91 4653 -91 
Q 4153 -91 3862 251 
Q 3572 594 3572 1178 
Q 3572 1766 3864 2108 
Q 4156 2450 4653 2450 
z
M 1428 4353 
Q 1159 4353 1004 4120 
Q 850 3888 850 3481 
Q 850 3069 1003 2837 
Q 1156 2606 1428 2606 
Q 1700 2606 1854 2837 
Q 2009 3069 2009 3481 
Q 2009 3884 1853 4118 
Q 1697 4353 1428 4353 
z
M 4250 4750 
L 4750 4750 
L 1831 -91 
L 1331 -91 
L 4250 4750 
z
M 1428 4750 
Q 1922 4750 2215 4408 
Q 2509 4066 2509 3481 
Q 2509 2891 2217 2550 
Q 1925 2209 1428 2209 
Q 931 2209 642 2551 
Q 353 2894 353 3481 
Q 353 4063 643 4406 
Q 934 4750 1428 4750 
z
" transform="scale(0.015625)"/>
       </defs>
       <use xlink:href="#DejaVuSans-35"/>
       <use xlink:href="#DejaVuSans-2e" x="63.623047"/>
       <use xlink:href="#DejaVuSans-30" x="95.410156"/>
       <use xlink:href="#DejaVuSans-25" x="159.033203"/>
      </g>
     </g>
    </g>
    <g id="ytick_2">
     <g id="line2d_12">
      <path d="M 45.967188 316.111356 
L 938.767187 316.111356 
" clip-path="url(#pc5f6423235)" style="fill: none; stroke: #b0b0b0; stroke-opacity: 0.3; stroke-width: 0.8; stroke-linecap: square"/>
     </g>
     <g id="line2d_13">
      <g>
       <use xlink:href="#m705ec2231c" x="45.967188" y="316.111356" style="stroke: #000000; stroke-width: 0.8"/>
      </g>
     </g>
     <g id="text_11">
      <!-- 10.0% -->
      <g transform="translate(7.2 319.910575) scale(0.1 -0.1)">
       <use xlink:href="#DejaVuSans-31"/>
       <use xlink:href="#DejaVuSans-30" x="63.623047"/>
       <use xlink:href="#DejaVuSans-2e" x="127.246094"/>
       <use xlink:href="#DejaVuSans-30" x="159.033203"/>
       <use xlink:href="#DejaVuSans-25" x="222.65625"/>
      </g>
     </g>
    </g>
    <g id="ytick_3">
     <g id="line2d_14">
      <path d="M 45.967188 228.880587 
L 938.767187 228.880587 
" clip-path="url(#pc5f6423235)" style="fill: none; stroke: #b0b0b0; stroke-opacity: 0.3; stroke-width: 0.8; stroke-linecap: square"/>
     </g>
     <g id="line2d_15">
      <g>
       <use xlink:href="#m705ec2231c" x="45.967188" y="228.880587" style="stroke: #000000; stroke-width: 0.8"/>
      </g>
     </g>
     <g id="text_12">
      <!-- 15.0% -->
      <g transform="translate(7.2 232.679805) scale(0.1 -0.1)">
       <use xlink:href="#DejaVuSans-31"/>
       <use xlink:href="#DejaVuSans-35" x="63.623047"/>
       <use xlink:href="#DejaVuSans-2e" x="127.246094"/>
       <use xlink:href="#DejaVuSans-30" x="159.033203"/>
       <use xlink:href="#DejaVuSans-25" x="222.65625"/>
      </g>
     </g>
    </g>
    <g id="ytick_4">
     <g id="line2d_16">
      <path d="M 45.967188 141.649817 
L 938.767187 141.649817 
" clip-path="url(#pc5f6423235)" style="fill: none; stroke: #b0b0b0; stroke-opacity: 0.3; stroke-width: 0.8; stroke-linecap: square"/>
     </g>
     <g id="line2d_17">
      <g>
       <use xlink:href="#m705ec2231c" x="45.967188" y="141.649817" style="stroke: #000000; stroke-width: 0.8"/>
      </g>
     </g>
     <g id="text_13">
      <!-- 20.0% -->
      <g transform="translate(7.2 145.449036) scale(0.1 -0.1)">
       <use xlink:href="#DejaVuSans-32"/>
       <use xlink:href="#DejaVuSans-30" x="63.623047"/>
       <use xlink:href="#DejaVuSans-2e" x="127.246094"/>
       <use xlink:href="#DejaVuSans-30" x="159.033203"/>
       <use xlink:href="#DejaVuSans-25" x="222.65625"/>
      </g>
     </g>
    </g>
    <g id="ytick_5">
     <g id="line2d_18">
      <path d="M 45.967188 54.419048 
L 938.767187 54.419048 
" clip-path="url(#pc5f6423235)" style="fill: none; stroke: #b0b0b0; stroke-opacity: 0.3; stroke-width: 0.8; stroke-linecap: square"/>
     </g>
     <g id="line2d_19">
      <g>
       <use xlink:href="#m705ec2231c" x="45.967188" y="54.419048" style="stroke: #000000; stroke-width: 0.8"/>
      </g>
     </g>
     <g id="text_14">
      <!-- 25.0% -->
      <g transform="translate(7.2 58.218267) scale(0.1 -0.1)">
       <use xlink:href="#DejaVuSans-32"/>
       <use xlink:href="#DejaVuSans-35" x="63.623047"/>
       <use xlink:href="#DejaVuSans-2e" x="127.246094"/>
       <use xlink:href="#DejaVuSans-30" x="159.033203"/>
       <use xlink:href="#DejaVuSans-25" x="222.65625"/>
      </g>
     </g>
    </g>
   </g>
   <g id="line2d_20">
    <path d="M 86.549006 421.486125 
L 86.549006 22.318125 
" clip-path="url(#pc5f6423235)" style="fill: none; stroke: #000000; stroke-linecap: square"/>
   </g>
   <g id="line2d_21">
    <path d="M 513.942331 421.486125 
L 513.942331 22.318125 
" clip-path="url(#pc5f6423235)" style="fill: none; stroke: #000000; stroke-linecap: square"/>
   </g>
   <g id="line2d_22">
    <path d="M 898.185369 421.486125 
L 898.185369 22.318125 
" clip-path="url(#pc5f6423235)" style="fill: none; stroke: #000000; stroke-linecap: square"/>
   </g>
   <g id="line2d_23">
    <path d="M 95.648726 215.262908 
L 102.987211 210.986429 
L 110.325695 206.964001 
L 117.664179 203.187307 
L 125.296203 199.509389 
L 132.928226 196.075601 
L 134.983002 195.191516 
L 135.276541 195.738944 
L 143.202104 192.397529 
L 151.127668 189.300494 
L 159.053231 186.441078 
L 166.978794 183.817075 
L 174.904357 181.431083 
L 182.53638 179.361506 
L 190.168404 177.518391 
L 197.506888 175.966831 
L 204.845373 174.643222 
L 209.835542 173.880829 
L 210.422621 173.900338 
L 216.880487 173.185034 
L 223.044814 172.716933 
L 228.915601 172.492436 
L 234.19931 172.508435 
L 236.547625 172.593871 
L 236.841164 172.073372 
L 241.831333 172.294007 
L 246.527963 172.720769 
L 250.637515 173.301806 
L 254.453526 174.043939 
L 254.747066 172.541872 
L 258.856617 173.377015 
L 263.259708 174.499402 
L 270.011113 176.471145 
L 270.304653 179.690653 
L 273.827125 180.050449 
L 278.230216 180.261241 
L 279.991452 180.292551 
L 280.284991 179.783712 
L 284.688082 179.882138 
L 289.97179 179.771032 
L 297.016735 179.604132 
L 302.593983 179.759095 
L 307.877692 180.110249 
L 311.693704 180.543104 
L 315.216176 181.160534 
L 326.077133 183.390148 
L 330.186684 183.844658 
L 334.296236 184.060662 
L 337.818708 183.940582 
L 341.63472 183.578804 
L 345.744271 182.954774 
L 350.147362 182.054907 
L 354.843992 180.866563 
L 357.485846 180.107279 
L 358.072925 179.795646 
L 363.650173 177.898322 
L 363.943712 177.79204 
L 364.237252 178.624943 
L 369.8145 176.679392 
L 375.685287 174.393542 
L 381.849614 171.747828 
L 388.013941 168.863424 
L 393.00411 166.360201 
L 393.297649 164.328846 
L 400.049055 160.499932 
L 401.810291 159.458215 
L 402.103831 159.876961 
L 408.855236 155.768998 
L 415.606642 151.403199 
L 422.358047 146.780005 
L 429.402992 141.680744 
L 436.447937 136.298132 
L 443.492882 130.627707 
L 450.537827 124.664348 
L 457.582772 118.402496 
L 464.627717 111.836252 
L 471.672662 104.959469 
L 478.717607 97.76657 
L 484.881934 91.211432 
L 484.881934 91.211432 
" clip-path="url(#pc5f6423235)" style="fill: none; stroke: #007c85; stroke-width: 2; stroke-linecap: square"/>
   </g>
   <g id="line2d_24">
    <path d="M 527.445142 307.00806 
L 532.141772 293.517159 
L 536.838402 280.697843 
L 541.535032 268.501556 
L 543.296269 264.086197 
L 543.589808 247.625657 
L 543.883347 224.326392 
L 544.176887 168.141861 
L 544.470426 146.295284 
L 544.763965 220.486221 
L 545.938123 214.623391 
L 546.231662 135.218814 
L 546.525202 133.581434 
L 552.395989 135.800289 
L 554.450765 136.604002 
L 554.744304 138.098019 
L 555.918462 138.327429 
L 556.212001 137.472599 
L 560.908631 139.358373 
L 570.88897 143.623143 
L 587.033635 150.830473 
L 587.327174 150.573312 
L 598.48167 156.015674 
L 598.77521 155.417621 
L 611.690942 161.604545 
L 617.26819 164.319063 
L 617.56173 165.549125 
L 618.735887 166.105616 
L 619.029427 165.899196 
L 633.999934 173.011864 
L 634.293474 172.643814 
L 640.75134 175.989043 
L 644.273813 178.039707 
L 646.915667 179.802367 
L 648.089824 180.53258 
L 649.851061 181.350813 
L 651.612297 181.882393 
L 653.079994 182.277294 
L 654.84123 183.409131 
L 655.134769 184.198955 
L 655.721848 184.605284 
L 656.015387 185.19987 
L 656.602466 185.597583 
L 656.896006 185.375135 
L 658.657242 186.357336 
L 658.950781 185.819772 
L 661.005557 186.670138 
L 663.647411 187.486029 
L 665.702187 187.996631 
L 667.756962 187.298971 
L 668.344041 187.078202 
L 668.63758 187.572584 
L 669.518199 187.281788 
L 674.508368 187.859444 
L 674.801907 187.886587 
L 675.095447 187.34786 
L 676.269604 187.444762 
L 676.563143 188.034918 
L 682.140392 188.352167 
L 683.02101 188.37992 
L 683.314549 187.784365 
L 686.837021 187.733082 
L 689.478876 187.472513 
L 691.533651 187.049614 
L 692.707809 186.706161 
L 693.881966 185.614545 
L 694.469045 185.57574 
L 695.936742 184.34251 
L 696.230281 184.325667 
L 696.523821 184.062629 
L 700.046293 182.753121 
L 701.220451 182.151654 
L 701.51399 181.668558 
L 702.981687 180.557765 
L 704.742923 178.923823 
L 705.036463 177.684628 
L 705.623541 177.104907 
L 706.797699 176.568029 
L 707.091238 177.727025 
L 708.265396 177.667464 
L 709.146014 177.70294 
L 710.613711 176.202674 
L 710.90725 174.258033 
L 711.494329 173.509498 
L 711.787868 173.980716 
L 712.081407 173.632139 
L 712.374947 175.468014 
L 713.255565 174.598271 
L 713.549104 174.478136 
L 714.429722 174.582267 
L 714.723262 172.044171 
L 715.016801 172.325138 
L 715.310341 173.168615 
L 716.190959 173.366352 
L 716.484498 173.134484 
L 716.778037 173.347477 
L 717.658656 173.149372 
L 717.952195 172.849724 
L 718.245734 172.733701 
L 720.887589 170.493199 
L 721.181128 170.550913 
L 723.529443 168.688203 
L 723.822982 168.738561 
L 725.584219 167.699916 
L 727.932534 166.078932 
L 730.280849 164.039917 
L 732.922703 161.803792 
L 733.216242 160.90766 
L 735.564557 158.945258 
L 735.858097 159.965709 
L 743.196581 153.112213 
L 743.49012 152.347044 
L 745.251356 150.575842 
L 747.306132 148.065805 
L 749.947986 144.769167 
L 752.296301 142.425156 
L 753.17692 141.543567 
L 758.167089 133.892461 
L 760.515404 131.928166 
L 762.27664 130.64446 
L 762.570179 128.246981 
L 764.037876 126.103778 
L 764.331416 128.107145 
L 765.505573 126.919084 
L 766.679731 126.019954 
L 768.147428 125.339665 
L 770.202203 124.662132 
L 770.495742 124.579875 
L 770.789282 122.093397 
L 773.431136 121.443354 
L 773.724676 121.431549 
L 774.018215 113.699831 
L 774.898833 114.200324 
L 775.192372 114.204153 
L 775.485912 116.867973 
L 775.779451 116.855761 
L 776.072991 121.348389 
L 777.834227 121.396364 
L 779.595463 121.417081 
L 780.769621 121.408145 
L 782.237317 121.372566 
L 783.411475 121.086921 
L 784.292093 120.675525 
L 785.172711 120.0731 
L 786.053329 119.459162 
L 787.814565 118.67901 
L 788.988723 117.258865 
L 790.16288 115.506842 
L 791.924117 112.58894 
L 793.098274 112.223747 
L 793.978892 112.153788 
L 794.85951 110.27476 
L 795.15305 106.92859 
L 795.446589 106.202654 
L 795.740128 108.126822 
L 796.327207 106.471095 
L 796.620747 89.272439 
L 796.914286 100.713939 
L 797.207825 88.303457 
L 797.501365 87.124062 
L 797.794904 89.119346 
L 798.381983 87.279373 
L 798.969062 86.06587 
L 799.262601 85.976473 
L 799.55614 83.905852 
L 800.436758 83.734715 
L 801.317377 83.799797 
L 801.904455 83.998238 
L 802.197995 86.665693 
L 802.491534 86.941307 
L 802.785073 82.76864 
L 803.078613 82.942836 
L 803.372152 82.910185 
L 803.665692 87.08588 
L 804.54631 85.986861 
L 805.133388 85.513942 
L 805.426928 83.248622 
L 806.601085 82.991809 
L 807.481703 82.967811 
L 808.068782 83.537888 
L 808.362321 85.904904 
L 808.655861 86.380249 
L 808.9494 95.750239 
L 809.830018 98.125187 
L 810.123558 86.943884 
L 810.417097 95.711095 
L 811.297715 98.644442 
L 811.884794 100.091916 
L 812.471873 101.11614 
L 813.058951 101.845007 
L 813.352491 101.541342 
L 813.64603 101.865015 
L 813.93957 102.535515 
L 814.820188 102.9049 
L 815.113727 102.696467 
L 816.287885 102.854232 
L 816.581424 103.806064 
L 819.223278 103.72717 
L 819.516818 103.711252 
L 819.810357 102.938641 
L 823.919908 102.673685 
L 826.855302 102.715198 
L 829.790696 102.994166 
L 830.084235 103.035403 
L 830.377774 104.106988 
L 833.313168 104.700692 
L 836.248562 105.50907 
L 839.477495 106.635979 
L 842.706428 107.998745 
L 846.2289 109.737718 
L 849.751373 111.723043 
L 853.567385 114.135029 
L 857.383397 116.80246 
L 861.492948 119.937661 
L 865.896038 123.570876 
L 870.592668 127.735286 
L 871.179747 128.276048 
L 871.473286 127.923097 
L 876.463456 132.736148 
L 881.453625 137.844883 
L 886.443794 143.270176 
L 891.433964 149.039529 
L 891.727503 149.390284 
L 891.727503 149.390284 
" clip-path="url(#pc5f6423235)" style="fill: none; stroke: #007c85; stroke-width: 2; stroke-linecap: square"/>
   </g>
   <g id="line2d_25">
    <path d="M 88.897321 331.498215 
L 97.703502 330.00296 
L 106.509683 328.285601 
L 115.902943 326.227259 
L 126.47036 323.67935 
L 137.918396 320.689668 
L 150.540589 317.158735 
L 163.162782 313.39679 
L 174.610817 309.761831 
L 184.884695 306.273342 
L 194.571495 302.751345 
L 203.671215 299.209478 
L 212.183857 295.682655 
L 212.477396 295.333999 
L 222.751274 291.083715 
L 236.254085 285.459849 
L 239.483019 284.175023 
L 244.473188 282.098764 
L 249.169818 280.487622 
L 250.343975 280.01053 
L 255.334145 277.632442 
L 262.37909 275.199355 
L 265.020944 274.149351 
L 276.468979 270.785002 
L 281.752688 269.409277 
L 282.046227 269.779916 
L 285.862239 269.270863 
L 287.329936 269.110345 
L 287.623476 268.518213 
L 289.678251 268.162563 
L 297.603814 266.424611 
L 299.36505 266.173191 
L 302.887523 265.457585 
L 307.290613 264.964734 
L 310.813086 264.359017 
L 315.509716 263.642759 
L 322.554661 262.705625 
L 324.902976 262.042984 
L 326.664212 261.553023 
L 330.773763 260.859163 
L 333.709157 260.175224 
L 334.883314 259.658486 
L 336.351011 258.93026 
L 336.644551 260.578106 
L 339.286405 259.186009 
L 343.102417 257.929686 
L 346.33135 256.732303 
L 346.624889 254.966024 
L 348.092586 254.316755 
L 349.266744 253.765716 
L 349.560283 255.80388 
L 353.669834 254.43772 
L 353.963374 254.349663 
L 354.256913 253.564823 
L 356.605228 252.797312 
L 359.540622 251.423065 
L 361.595397 250.674566 
L 365.998488 249.678587 
L 370.988657 248.619951 
L 373.043433 247.970913 
L 373.336972 247.322625 
L 374.804669 246.943411 
L 375.098208 247.636897 
L 385.665626 246.323104 
L 387.133323 245.93059 
L 387.426862 245.708316 
L 388.601019 245.625404 
L 394.471807 245.25388 
L 398.874898 244.758515 
L 403.571527 243.85782 
L 404.158606 243.768522 
L 404.452146 244.070274 
L 407.974618 243.726592 
L 411.79063 243.594034 
L 416.19372 243.66702 
L 420.303272 243.960306 
L 421.477429 244.088382 
L 421.770969 243.557176 
L 425.58698 244.062911 
L 429.109453 244.744115 
L 432.631925 245.64703 
L 434.393162 246.184931 
L 434.686701 245.91478 
L 438.209173 247.129719 
L 440.263949 247.950704 
L 440.557488 247.336566 
L 440.851028 247.449412 
L 441.144567 247.946733 
L 444.66704 249.549853 
L 447.895973 251.253716 
L 451.124906 253.193176 
L 454.353839 255.379211 
L 457.289233 257.588828 
L 457.582772 258.397317 
L 461.105244 261.341145 
L 464.627717 264.57557 
L 468.150189 268.106362 
L 471.672662 271.939299 
L 475.488674 276.438658 
L 479.304685 281.305142 
L 483.120697 286.544745 
L 485.175473 289.522121 
L 485.469012 290.407464 
L 489.285024 296.490612 
L 491.3398 299.923876 
L 491.633339 301.069005 
L 495.74289 308.412392 
L 500.145981 316.75288 
L 504.549071 325.583592 
L 508.071544 333.003334 
L 508.071544 333.003334 
" clip-path="url(#pc5f6423235)" style="fill: none; stroke: #ffda00; stroke-width: 2; stroke-linecap: square"/>
   </g>
   <g id="line2d_26">
    <path d="M 528.032221 220.741922 
L 533.609469 223.846222 
L 536.544863 225.3758 
L 536.838402 224.779957 
L 542.41565 227.523794 
L 547.992898 230.014431 
L 553.570147 232.256344 
L 559.147395 234.255918 
L 564.724643 236.019589 
L 570.301891 237.553594 
L 575.879139 238.86306 
L 581.456387 239.95194 
L 587.033635 240.823176 
L 592.610883 241.478024 
L 598.188131 241.916193 
L 603.765379 242.13505 
L 609.342627 242.131245 
L 614.919875 241.899537 
L 620.203584 241.462279 
L 625.487293 240.801697 
L 630.771001 239.915211 
L 635.467631 238.925921 
L 639.870722 237.785076 
L 644.860891 236.251591 
L 645.44797 236.044029 
L 645.741509 235.086711 
L 648.970442 233.569272 
L 651.905836 231.958688 
L 654.547691 230.269844 
L 656.896006 228.531185 
L 660.124939 225.90575 
L 660.418478 226.468941 
L 660.712017 225.438833 
L 661.005557 225.209667 
L 661.299096 225.301042 
L 663.060332 223.930885 
L 664.528029 222.989158 
L 664.821569 222.378622 
L 667.756962 220.799768 
L 668.93112 220.243159 
L 669.224659 221.103622 
L 675.095447 219.071845 
L 678.911458 217.684913 
L 679.204998 217.838722 
L 681.553313 216.700952 
L 681.846852 215.477651 
L 683.314549 214.81524 
L 683.608088 214.25093 
L 687.4241 212.845167 
L 696.230281 209.753551 
L 703.862305 207.153951 
L 704.449384 206.838726 
L 721.768207 201.09827 
L 725.290679 200.005352 
L 725.584219 200.250716 
L 730.574388 198.741442 
L 731.455006 198.491315 
L 731.748545 199.017353 
L 745.838435 195.487575 
L 749.654447 194.785316 
L 749.947986 193.422615 
L 750.241526 194.69002 
L 755.525235 193.950645 
L 755.818774 193.18676 
L 761.396022 192.655525 
L 768.147428 192.260506 
L 775.779451 192.039074 
L 777.247148 192.023965 
L 777.540687 191.627656 
L 782.824396 191.743789 
L 783.117935 192.017983 
L 784.879172 192.039756 
L 785.172711 191.592819 
L 789.869341 191.789229 
L 790.16288 192.216039 
L 794.85951 192.573204 
L 798.969062 193.101141 
L 802.785073 193.811683 
L 805.426928 194.442991 
L 805.720467 193.824005 
L 809.536479 194.663103 
L 810.417097 194.892745 
L 810.710636 194.667585 
L 812.178333 194.998018 
L 812.471873 195.488027 
L 815.700806 196.605504 
L 818.929739 197.966874 
L 821.865133 199.433089 
L 824.800526 201.129716 
L 827.73592 203.065515 
L 828.322999 203.482189 
L 828.616538 202.13822 
L 828.910078 202.345915 
L 829.203617 206.226255 
L 832.726089 209.010355 
L 836.248562 212.087258 
L 839.771034 215.465136 
L 843.293507 219.151526 
L 846.815979 223.152275 
L 850.338452 227.472041 
L 854.154464 232.52146 
L 857.970475 237.967576 
L 861.492948 243.358188 
L 861.786487 256.431459 
L 864.721881 263.48607 
L 865.01542 251.183177 
L 868.537893 258.258211 
L 868.831432 258.86935 
L 869.124971 264.425924 
L 871.179747 269.48185 
L 871.473286 279.492489 
L 876.463456 293.1884 
L 881.453625 307.525867 
L 883.80194 314.510932 
L 883.80194 314.510932 
" clip-path="url(#pc5f6423235)" style="fill: none; stroke: #ffda00; stroke-width: 2; stroke-linecap: square"/>
   </g>
   <g id="patch_3">
    <path d="M 45.967188 421.486125 
L 45.967188 22.318125 
" style="fill: none; stroke: #000000; stroke-width: 0.8; stroke-linejoin: miter; stroke-linecap: square"/>
   </g>
   <g id="patch_4">
    <path d="M 938.767187 421.486125 
L 938.767187 22.318125 
" style="fill: none; stroke: #000000; stroke-width: 0.8; stroke-linejoin: miter; stroke-linecap: square"/>
   </g>
   <g id="patch_5">
    <path d="M 45.967188 421.486125 
L 938.767187 421.486125 
" style="fill: none; stroke: #000000; stroke-width: 0.8; stroke-linejoin: miter; stroke-linecap: square"/>
   </g>
   <g id="patch_6">
    <path d="M 45.967188 22.318125 
L 938.767187 22.318125 
" style="fill: none; stroke: #000000; stroke-width: 0.8; stroke-linejoin: miter; stroke-linecap: square"/>
   </g>
   <g id="text_15">
    <!-- Dont Know + Wont Say -->
    <g transform="translate(422.5075 16.318125) scale(0.12 -0.12)">
     <defs>
      <path id="DejaVuSans-44" d="M 1259 4147 
L 1259 519 
L 2022 519 
Q 2988 519 3436 956 
Q 3884 1394 3884 2338 
Q 3884 3275 3436 3711 
Q 2988 4147 2022 4147 
L 1259 4147 
z
M 628 4666 
L 1925 4666 
Q 3281 4666 3915 4102 
Q 4550 3538 4550 2338 
Q 4550 1131 3912 565 
Q 3275 0 1925 0 
L 628 0 
L 628 4666 
z
" transform="scale(0.015625)"/>
      <path id="DejaVuSans-6f" d="M 1959 3097 
Q 1497 3097 1228 2736 
Q 959 2375 959 1747 
Q 959 1119 1226 758 
Q 1494 397 1959 397 
Q 2419 397 2687 759 
Q 2956 1122 2956 1747 
Q 2956 2369 2687 2733 
Q 2419 3097 1959 3097 
z
M 1959 3584 
Q 2709 3584 3137 3096 
Q 3566 2609 3566 1747 
Q 3566 888 3137 398 
Q 2709 -91 1959 -91 
Q 1206 -91 779 398 
Q 353 888 353 1747 
Q 353 2609 779 3096 
Q 1206 3584 1959 3584 
z
" transform="scale(0.015625)"/>
      <path id="DejaVuSans-6e" d="M 3513 2113 
L 3513 0 
L 2938 0 
L 2938 2094 
Q 2938 2591 2744 2837 
Q 2550 3084 2163 3084 
Q 1697 3084 1428 2787 
Q 1159 2491 1159 1978 
L 1159 0 
L 581 0 
L 581 3500 
L 1159 3500 
L 1159 2956 
Q 1366 3272 1645 3428 
Q 1925 3584 2291 3584 
Q 2894 3584 3203 3211 
Q 3513 2838 3513 2113 
z
" transform="scale(0.015625)"/>
      <path id="DejaVuSans-74" d="M 1172 4494 
L 1172 3500 
L 2356 3500 
L 2356 3053 
L 1172 3053 
L 1172 1153 
Q 1172 725 1289 603 
Q 1406 481 1766 481 
L 2356 481 
L 2356 0 
L 1766 0 
Q 1100 0 847 248 
Q 594 497 594 1153 
L 594 3053 
L 172 3053 
L 172 3500 
L 594 3500 
L 594 4494 
L 1172 4494 
z
" transform="scale(0.015625)"/>
      <path id="DejaVuSans-20" transform="scale(0.015625)"/>
      <path id="DejaVuSans-4b" d="M 628 4666 
L 1259 4666 
L 1259 2694 
L 3353 4666 
L 4166 4666 
L 1850 2491 
L 4331 0 
L 3500 0 
L 1259 2247 
L 1259 0 
L 628 0 
L 628 4666 
z
" transform="scale(0.015625)"/>
      <path id="DejaVuSans-77" d="M 269 3500 
L 844 3500 
L 1563 769 
L 2278 3500 
L 2956 3500 
L 3675 769 
L 4391 3500 
L 4966 3500 
L 4050 0 
L 3372 0 
L 2619 2869 
L 1863 0 
L 1184 0 
L 269 3500 
z
" transform="scale(0.015625)"/>
      <path id="DejaVuSans-2b" d="M 2944 4013 
L 2944 2272 
L 4684 2272 
L 4684 1741 
L 2944 1741 
L 2944 0 
L 2419 0 
L 2419 1741 
L 678 1741 
L 678 2272 
L 2419 2272 
L 2419 4013 
L 2944 4013 
z
" transform="scale(0.015625)"/>
      <path id="DejaVuSans-57" d="M 213 4666 
L 850 4666 
L 1831 722 
L 2809 4666 
L 3519 4666 
L 4500 722 
L 5478 4666 
L 6119 4666 
L 4947 0 
L 4153 0 
L 3169 4050 
L 2175 0 
L 1381 0 
L 213 4666 
z
" transform="scale(0.015625)"/>
      <path id="DejaVuSans-53" d="M 3425 4513 
L 3425 3897 
Q 3066 4069 2747 4153 
Q 2428 4238 2131 4238 
Q 1616 4238 1336 4038 
Q 1056 3838 1056 3469 
Q 1056 3159 1242 3001 
Q 1428 2844 1947 2747 
L 2328 2669 
Q 3034 2534 3370 2195 
Q 3706 1856 3706 1288 
Q 3706 609 3251 259 
Q 2797 -91 1919 -91 
Q 1588 -91 1214 -16 
Q 841 59 441 206 
L 441 856 
Q 825 641 1194 531 
Q 1563 422 1919 422 
Q 2459 422 2753 634 
Q 3047 847 3047 1241 
Q 3047 1584 2836 1778 
Q 2625 1972 2144 2069 
L 1759 2144 
Q 1053 2284 737 2584 
Q 422 2884 422 3419 
Q 422 4038 858 4394 
Q 1294 4750 2059 4750 
Q 2388 4750 2728 4690 
Q 3069 4631 3425 4513 
z
" transform="scale(0.015625)"/>
      <path id="DejaVuSans-61" d="M 2194 1759 
Q 1497 1759 1228 1600 
Q 959 1441 959 1056 
Q 959 750 1161 570 
Q 1363 391 1709 391 
Q 2188 391 2477 730 
Q 2766 1069 2766 1631 
L 2766 1759 
L 2194 1759 
z
M 3341 1997 
L 3341 0 
L 2766 0 
L 2766 531 
Q 2569 213 2275 61 
Q 1981 -91 1556 -91 
Q 1019 -91 701 211 
Q 384 513 384 1019 
Q 384 1609 779 1909 
Q 1175 2209 1959 2209 
L 2766 2209 
L 2766 2266 
Q 2766 2663 2505 2880 
Q 2244 3097 1772 3097 
Q 1472 3097 1187 3025 
Q 903 2953 641 2809 
L 641 3341 
Q 956 3463 1253 3523 
Q 1550 3584 1831 3584 
Q 2591 3584 2966 3190 
Q 3341 2797 3341 1997 
z
" transform="scale(0.015625)"/>
      <path id="DejaVuSans-79" d="M 2059 -325 
Q 1816 -950 1584 -1140 
Q 1353 -1331 966 -1331 
L 506 -1331 
L 506 -850 
L 844 -850 
Q 1081 -850 1212 -737 
Q 1344 -625 1503 -206 
L 1606 56 
L 191 3500 
L 800 3500 
L 1894 763 
L 2988 3500 
L 3597 3500 
L 2059 -325 
z
" transform="scale(0.015625)"/>
     </defs>
     <use xlink:href="#DejaVuSans-44"/>
     <use xlink:href="#DejaVuSans-6f" x="77.001953"/>
     <use xlink:href="#DejaVuSans-6e" x="138.183594"/>
     <use xlink:href="#DejaVuSans-74" x="201.5625"/>
     <use xlink:href="#DejaVuSans-20" x="240.771484"/>
     <use xlink:href="#DejaVuSans-4b" x="272.558594"/>
     <use xlink:href="#DejaVuSans-6e" x="338.134766"/>
     <use xlink:href="#DejaVuSans-6f" x="401.513672"/>
     <use xlink:href="#DejaVuSans-77" x="462.695312"/>
     <use xlink:href="#DejaVuSans-20" x="544.482422"/>
     <use xlink:href="#DejaVuSans-2b" x="576.269531"/>
     <use xlink:href="#DejaVuSans-20" x="660.058594"/>
     <use xlink:href="#DejaVuSans-57" x="691.845703"/>
     <use xlink:href="#DejaVuSans-6f" x="784.847656"/>
     <use xlink:href="#DejaVuSans-6e" x="846.029297"/>
     <use xlink:href="#DejaVuSans-74" x="909.408203"/>
     <use xlink:href="#DejaVuSans-20" x="948.617188"/>
     <use xlink:href="#DejaVuSans-53" x="980.404297"/>
     <use xlink:href="#DejaVuSans-61" x="1043.880859"/>
     <use xlink:href="#DejaVuSans-79" x="1105.160156"/>
    </g>
   </g>
  </g>
  <g id="legend_1">
   <g id="line2d_27">
    <path d="M 412.470313 451.8495 
L 422.470313 451.8495 
L 432.470313 451.8495 
" style="fill: none; stroke: #007c85; stroke-width: 2; stroke-linecap: square"/>
   </g>
   <g id="text_16">
    <!-- AKO -->
    <g transform="translate(440.470313 455.3495) scale(0.1 -0.1)">
     <defs>
      <path id="DejaVuSans-41" d="M 2188 4044 
L 1331 1722 
L 3047 1722 
L 2188 4044 
z
M 1831 4666 
L 2547 4666 
L 4325 0 
L 3669 0 
L 3244 1197 
L 1141 1197 
L 716 0 
L 50 0 
L 1831 4666 
z
" transform="scale(0.015625)"/>
      <path id="DejaVuSans-4f" d="M 2522 4238 
Q 1834 4238 1429 3725 
Q 1025 3213 1025 2328 
Q 1025 1447 1429 934 
Q 1834 422 2522 422 
Q 3209 422 3611 934 
Q 4013 1447 4013 2328 
Q 4013 3213 3611 3725 
Q 3209 4238 2522 4238 
z
M 2522 4750 
Q 3503 4750 4090 4092 
Q 4678 3434 4678 2328 
Q 4678 1225 4090 567 
Q 3503 -91 2522 -91 
Q 1538 -91 948 565 
Q 359 1222 359 2328 
Q 359 3434 948 4092 
Q 1538 4750 2522 4750 
z
" transform="scale(0.015625)"/>
     </defs>
     <use xlink:href="#DejaVuSans-41"/>
     <use xlink:href="#DejaVuSans-4b" x="68.408203"/>
     <use xlink:href="#DejaVuSans-4f" x="128.484375"/>
    </g>
   </g>
   <g id="line2d_28">
    <path d="M 481.190625 451.8495 
L 491.190625 451.8495 
L 501.190625 451.8495 
" style="fill: none; stroke: #ffda00; stroke-width: 2; stroke-linecap: square"/>
   </g>
   <g id="text_17">
    <!-- FOCUS -->
    <g transform="translate(509.190625 455.3495) scale(0.1 -0.1)">
     <defs>
      <path id="DejaVuSans-46" d="M 628 4666 
L 3309 4666 
L 3309 4134 
L 1259 4134 
L 1259 2759 
L 3109 2759 
L 3109 2228 
L 1259 2228 
L 1259 0 
L 628 0 
L 628 4666 
z
" transform="scale(0.015625)"/>
      <path id="DejaVuSans-43" d="M 4122 4306 
L 4122 3641 
Q 3803 3938 3442 4084 
Q 3081 4231 2675 4231 
Q 1875 4231 1450 3742 
Q 1025 3253 1025 2328 
Q 1025 1406 1450 917 
Q 1875 428 2675 428 
Q 3081 428 3442 575 
Q 3803 722 4122 1019 
L 4122 359 
Q 3791 134 3420 21 
Q 3050 -91 2638 -91 
Q 1578 -91 968 557 
Q 359 1206 359 2328 
Q 359 3453 968 4101 
Q 1578 4750 2638 4750 
Q 3056 4750 3426 4639 
Q 3797 4528 4122 4306 
z
" transform="scale(0.015625)"/>
      <path id="DejaVuSans-55" d="M 556 4666 
L 1191 4666 
L 1191 1831 
Q 1191 1081 1462 751 
Q 1734 422 2344 422 
Q 2950 422 3222 751 
Q 3494 1081 3494 1831 
L 3494 4666 
L 4128 4666 
L 4128 1753 
Q 4128 841 3676 375 
Q 3225 -91 2344 -91 
Q 1459 -91 1007 375 
Q 556 841 556 1753 
L 556 4666 
z
" transform="scale(0.015625)"/>
     </defs>
     <use xlink:href="#DejaVuSans-46"/>
     <use xlink:href="#DejaVuSans-4f" x="57.519531"/>
     <use xlink:href="#DejaVuSans-43" x="136.230469"/>
     <use xlink:href="#DejaVuSans-55" x="206.054688"/>
     <use xlink:href="#DejaVuSans-53" x="279.248047"/>
    </g>
   </g>
  </g>
 </g>
 <defs>
  <clipPath id="pc5f6423235">
   <rect x="45.967188" y="22.318125" width="892.8" height="399.168"/>
  </clipPath>
 </defs>
</svg>
