<?xml version="1.0" encoding="utf-8" standalone="no"?>
<!DOCTYPE svg PUBLIC "-//W3C//DTD SVG 1.1//EN"
  "http://www.w3.org/Graphics/SVG/1.1/DTD/svg11.dtd">
<svg xmlns:xlink="http://www.w3.org/1999/xlink" width="945.967187pt" height="468.629188pt" viewBox="0 0 945.967187 468.629188" xmlns="http://www.w3.org/2000/svg" version="1.1">
 <metadata>
  <rdf:RDF xmlns:dc="http://purl.org/dc/elements/1.1/" xmlns:cc="http://creativecommons.org/ns#" xmlns:rdf="http://www.w3.org/1999/02/22-rdf-syntax-ns#">
   <cc:Work>
    <dc:type rdf:resource="http://purl.org/dc/dcmitype/StillImage"/>
    <dc:date>2023-09-18T21:07:15.522220</dc:date>
    <dc:format>image/svg+xml</dc:format>
    <dc:creator>
     <cc:Agent>
      <dc:title>Matplotlib v3.7.1, https://matplotlib.org/</dc:title>
     </cc:Agent>
    </dc:creator>
   </cc:Work>
  </rdf:RDF>
 </metadata>
 <defs>
  <style type="text/css">*{stroke-linejoin: round; stroke-linecap: butt}</style>
 </defs>
 <g id="figure_1">
  <g id="patch_1">
   <path d="M 0 468.629188 
L 945.967187 468.629188 
L 945.967187 0 
L 0 0 
z
" style="fill: #ffffff"/>
  </g>
  <g id="axes_1">
   <g id="patch_2">
    <path d="M 45.967188 421.486125 
L 938.767187 421.486125 
L 938.767187 22.318125 
L 45.967188 22.318125 
z
" style="fill: #ffffff"/>
   </g>
   <g id="PathCollection_1">
    <defs>
     <path id="ma0e22faf04" d="M 0 1.5 
C 0.397805 1.5 0.77937 1.341951 1.06066 1.06066 
C 1.341951 0.77937 1.5 0.397805 1.5 0 
C 1.5 -0.397805 1.341951 -0.77937 1.06066 -1.06066 
C 0.77937 -1.341951 0.397805 -1.5 0 -1.5 
C -0.397805 -1.5 -0.77937 -1.341951 -1.06066 -1.06066 
C -1.341951 -0.77937 -1.5 -0.397805 -1.5 0 
C -1.5 0.397805 -1.341951 0.77937 -1.06066 1.06066 
C -0.77937 1.341951 -0.397805 1.5 0 1.5 
z
" style="stroke: #007c85"/>
    </defs>
    <g clip-path="url(#p131187af28)">
     <use xlink:href="#ma0e22faf04" x="95.648726" y="337.662487" style="fill: #007c85; stroke: #007c85"/>
     <use xlink:href="#ma0e22faf04" x="105.041986" y="354.082396" style="fill: #007c85; stroke: #007c85"/>
     <use xlink:href="#ma0e22faf04" x="128.231597" y="298.254704" style="fill: #007c85; stroke: #007c85"/>
     <use xlink:href="#ma0e22faf04" x="143.789183" y="276.908822" style="fill: #007c85; stroke: #007c85"/>
     <use xlink:href="#ma0e22faf04" x="153.475983" y="267.056876" style="fill: #007c85; stroke: #007c85"/>
     <use xlink:href="#ma0e22faf04" x="158.759691" y="255.562939" style="fill: #007c85; stroke: #007c85"/>
     <use xlink:href="#ma0e22faf04" x="167.272333" y="304.822668" style="fill: #007c85; stroke: #007c85"/>
     <use xlink:href="#ma0e22faf04" x="176.665593" y="257.20493" style="fill: #007c85; stroke: #007c85"/>
     <use xlink:href="#ma0e22faf04" x="187.52655" y="281.834795" style="fill: #007c85; stroke: #007c85"/>
     <use xlink:href="#ma0e22faf04" x="196.332731" y="313.032623" style="fill: #007c85; stroke: #007c85"/>
     <use xlink:href="#ma0e22faf04" x="208.661384" y="293.328731" style="fill: #007c85; stroke: #007c85"/>
     <use xlink:href="#ma0e22faf04" x="223.925432" y="265.414885" style="fill: #007c85; stroke: #007c85"/>
     <use xlink:href="#ma0e22faf04" x="232.731613" y="298.254704" style="fill: #007c85; stroke: #007c85"/>
     <use xlink:href="#ma0e22faf04" x="243.59257" y="253.920949" style="fill: #007c85; stroke: #007c85"/>
     <use xlink:href="#ma0e22faf04" x="251.811672" y="313.032623" style="fill: #007c85; stroke: #007c85"/>
     <use xlink:href="#ma0e22faf04" x="268.836956" y="294.970722" style="fill: #007c85; stroke: #007c85"/>
     <use xlink:href="#ma0e22faf04" x="297.897354" y="304.822668" style="fill: #007c85; stroke: #007c85"/>
     <use xlink:href="#ma0e22faf04" x="309.932468" y="278.550813" style="fill: #007c85; stroke: #007c85"/>
     <use xlink:href="#ma0e22faf04" x="314.922637" y="273.62484" style="fill: #007c85; stroke: #007c85"/>
     <use xlink:href="#ma0e22faf04" x="322.554661" y="311.390632" style="fill: #007c85; stroke: #007c85"/>
     <use xlink:href="#ma0e22faf04" x="331.947921" y="306.464659" style="fill: #007c85; stroke: #007c85"/>
     <use xlink:href="#ma0e22faf04" x="348.973204" y="303.180677" style="fill: #007c85; stroke: #007c85"/>
     <use xlink:href="#ma0e22faf04" x="353.963374" y="334.378505" style="fill: #007c85; stroke: #007c85"/>
     <use xlink:href="#ma0e22faf04" x="363.650173" y="306.464659" style="fill: #007c85; stroke: #007c85"/>
     <use xlink:href="#ma0e22faf04" x="375.391748" y="357.366378" style="fill: #007c85; stroke: #007c85"/>
     <use xlink:href="#ma0e22faf04" x="379.20776" y="294.970722" style="fill: #007c85; stroke: #007c85"/>
     <use xlink:href="#ma0e22faf04" x="401.223212" y="339.304478" style="fill: #007c85; stroke: #007c85"/>
     <use xlink:href="#ma0e22faf04" x="415.900181" y="360.65036" style="fill: #007c85; stroke: #007c85"/>
     <use xlink:href="#ma0e22faf04" x="424.999902" y="403.342125" style="fill: #007c85; stroke: #007c85"/>
     <use xlink:href="#ma0e22faf04" x="427.054677" y="340.946469" style="fill: #007c85; stroke: #007c85"/>
     <use xlink:href="#ma0e22faf04" x="471.672662" y="357.366378" style="fill: #007c85; stroke: #007c85"/>
     <use xlink:href="#ma0e22faf04" x="484.881934" y="390.206197" style="fill: #007c85; stroke: #007c85"/>
    </g>
   </g>
   <g id="PathCollection_2">
    <g clip-path="url(#p131187af28)">
     <use xlink:href="#ma0e22faf04" x="527.445142" y="332.736514" style="fill: #007c85; stroke: #007c85"/>
     <use xlink:href="#ma0e22faf04" x="553.276607" y="248.994976" style="fill: #007c85; stroke: #007c85"/>
     <use xlink:href="#ma0e22faf04" x="599.949367" y="198.093256" style="fill: #007c85; stroke: #007c85"/>
     <use xlink:href="#ma0e22faf04" x="615.506954" y="166.895428" style="fill: #007c85; stroke: #007c85"/>
     <use xlink:href="#ma0e22faf04" x="624.019596" y="143.907555" style="fill: #007c85; stroke: #007c85"/>
     <use xlink:href="#ma0e22faf04" x="634.293474" y="152.11751" style="fill: #007c85; stroke: #007c85"/>
     <use xlink:href="#ma0e22faf04" x="643.393194" y="158.685473" style="fill: #007c85; stroke: #007c85"/>
     <use xlink:href="#ma0e22faf04" x="650.731679" y="234.217057" style="fill: #007c85; stroke: #007c85"/>
     <use xlink:href="#ma0e22faf04" x="659.53786" y="224.365111" style="fill: #007c85; stroke: #007c85"/>
     <use xlink:href="#ma0e22faf04" x="669.518199" y="221.08113" style="fill: #007c85; stroke: #007c85"/>
     <use xlink:href="#ma0e22faf04" x="677.737301" y="171.821401" style="fill: #007c85; stroke: #007c85"/>
     <use xlink:href="#ma0e22faf04" x="685.369325" y="217.797148" style="fill: #007c85; stroke: #007c85"/>
     <use xlink:href="#ma0e22faf04" x="696.523821" y="255.562939" style="fill: #007c85; stroke: #007c85"/>
     <use xlink:href="#ma0e22faf04" x="704.742923" y="227.649093" style="fill: #007c85; stroke: #007c85"/>
     <use xlink:href="#ma0e22faf04" x="714.723262" y="209.587193" style="fill: #007c85; stroke: #007c85"/>
     <use xlink:href="#ma0e22faf04" x="723.235904" y="217.797148" style="fill: #007c85; stroke: #007c85"/>
     <use xlink:href="#ma0e22faf04" x="730.867927" y="253.920949" style="fill: #007c85; stroke: #007c85"/>
     <use xlink:href="#ma0e22faf04" x="739.674108" y="271.982849" style="fill: #007c85; stroke: #007c85"/>
     <use xlink:href="#ma0e22faf04" x="749.947986" y="253.920949" style="fill: #007c85; stroke: #007c85"/>
     <use xlink:href="#ma0e22faf04" x="757.58001" y="244.069003" style="fill: #007c85; stroke: #007c85"/>
     <use xlink:href="#ma0e22faf04" x="766.97327" y="221.08113" style="fill: #007c85; stroke: #007c85"/>
     <use xlink:href="#ma0e22faf04" x="778.127766" y="247.352985" style="fill: #007c85; stroke: #007c85"/>
     <use xlink:href="#ma0e22faf04" x="785.46625" y="234.217057" style="fill: #007c85; stroke: #007c85"/>
     <use xlink:href="#ma0e22faf04" x="795.446589" y="217.797148" style="fill: #007c85; stroke: #007c85"/>
     <use xlink:href="#ma0e22faf04" x="802.785073" y="209.587193" style="fill: #007c85; stroke: #007c85"/>
     <use xlink:href="#ma0e22faf04" x="811.591255" y="222.72312" style="fill: #007c85; stroke: #007c85"/>
     <use xlink:href="#ma0e22faf04" x="821.865133" y="209.587193" style="fill: #007c85; stroke: #007c85"/>
     <use xlink:href="#ma0e22faf04" x="830.084235" y="226.007102" style="fill: #007c85; stroke: #007c85"/>
     <use xlink:href="#ma0e22faf04" x="838.303337" y="189.883301" style="fill: #007c85; stroke: #007c85"/>
     <use xlink:href="#ma0e22faf04" x="846.52244" y="278.550813" style="fill: #007c85; stroke: #007c85"/>
     <use xlink:href="#ma0e22faf04" x="855.328621" y="301.538686" style="fill: #007c85; stroke: #007c85"/>
     <use xlink:href="#ma0e22faf04" x="864.428342" y="281.834795" style="fill: #007c85; stroke: #007c85"/>
     <use xlink:href="#ma0e22faf04" x="874.995759" y="260.488912" style="fill: #007c85; stroke: #007c85"/>
     <use xlink:href="#ma0e22faf04" x="878.811771" y="275.266831" style="fill: #007c85; stroke: #007c85"/>
     <use xlink:href="#ma0e22faf04" x="883.214861" y="322.884568" style="fill: #007c85; stroke: #007c85"/>
     <use xlink:href="#ma0e22faf04" x="891.727503" y="329.452532" style="fill: #007c85; stroke: #007c85"/>
    </g>
   </g>
   <g id="PathCollection_3">
    <defs>
     <path id="m680e30ea0b" d="M 0 1.5 
C 0.397805 1.5 0.77937 1.341951 1.06066 1.06066 
C 1.341951 0.77937 1.5 0.397805 1.5 0 
C 1.5 -0.397805 1.341951 -0.77937 1.06066 -1.06066 
C 0.77937 -1.341951 0.397805 -1.5 0 -1.5 
C -0.397805 -1.5 -0.77937 -1.341951 -1.06066 -1.06066 
C -1.341951 -0.77937 -1.5 -0.397805 -1.5 0 
C -1.5 0.397805 -1.341951 0.77937 -1.06066 1.06066 
C -0.77937 1.341951 -0.397805 1.5 0 1.5 
z
" style="stroke: #ffda00"/>
    </defs>
    <g clip-path="url(#p131187af28)">
     <use xlink:href="#m680e30ea0b" x="88.897321" y="165.253437" style="fill: #ffda00; stroke: #ffda00"/>
     <use xlink:href="#m680e30ea0b" x="104.748447" y="161.969455" style="fill: #ffda00; stroke: #ffda00"/>
     <use xlink:href="#m680e30ea0b" x="117.0771" y="135.6976" style="fill: #ffda00; stroke: #ffda00"/>
     <use xlink:href="#m680e30ea0b" x="133.808845" y="257.20493" style="fill: #ffda00; stroke: #ffda00"/>
     <use xlink:href="#m680e30ea0b" x="142.321486" y="176.747374" style="fill: #ffda00; stroke: #ffda00"/>
     <use xlink:href="#m680e30ea0b" x="157.585534" y="165.253437" style="fill: #ffda00; stroke: #ffda00"/>
     <use xlink:href="#m680e30ea0b" x="164.630479" y="211.229184" style="fill: #ffda00; stroke: #ffda00"/>
     <use xlink:href="#m680e30ea0b" x="181.949302" y="150.475519" style="fill: #ffda00; stroke: #ffda00"/>
     <use xlink:href="#m680e30ea0b" x="187.52655" y="155.401492" style="fill: #ffda00; stroke: #ffda00"/>
     <use xlink:href="#m680e30ea0b" x="203.084136" y="166.895428" style="fill: #ffda00; stroke: #ffda00"/>
     <use xlink:href="#m680e30ea0b" x="219.815881" y="148.833528" style="fill: #ffda00; stroke: #ffda00"/>
     <use xlink:href="#m680e30ea0b" x="233.318692" y="171.821401" style="fill: #ffda00; stroke: #ffda00"/>
     <use xlink:href="#m680e30ea0b" x="250.343975" y="176.747374" style="fill: #ffda00; stroke: #ffda00"/>
     <use xlink:href="#m680e30ea0b" x="257.095381" y="157.043482" style="fill: #ffda00; stroke: #ffda00"/>
     <use xlink:href="#m680e30ea0b" x="267.075719" y="158.685473" style="fill: #ffda00; stroke: #ffda00"/>
     <use xlink:href="#m680e30ea0b" x="289.384712" y="150.475519" style="fill: #ffda00; stroke: #ffda00"/>
     <use xlink:href="#m680e30ea0b" x="302.300444" y="129.129636" style="fill: #ffda00; stroke: #ffda00"/>
     <use xlink:href="#m680e30ea0b" x="316.390334" y="216.155157" style="fill: #ffda00; stroke: #ffda00"/>
     <use xlink:href="#m680e30ea0b" x="328.425448" y="211.229184" style="fill: #ffda00; stroke: #ffda00"/>
     <use xlink:href="#m680e30ea0b" x="345.744271" y="263.772894" style="fill: #ffda00; stroke: #ffda00"/>
     <use xlink:href="#m680e30ea0b" x="359.540622" y="245.710994" style="fill: #ffda00; stroke: #ffda00"/>
     <use xlink:href="#m680e30ea0b" x="374.21759" y="291.68674" style="fill: #ffda00; stroke: #ffda00"/>
     <use xlink:href="#m680e30ea0b" x="381.556075" y="280.192804" style="fill: #ffda00; stroke: #ffda00"/>
     <use xlink:href="#m680e30ea0b" x="394.765346" y="290.044749" style="fill: #ffda00; stroke: #ffda00"/>
     <use xlink:href="#m680e30ea0b" x="405.039224" y="368.860315" style="fill: #ffda00; stroke: #ffda00"/>
     <use xlink:href="#m680e30ea0b" x="412.671248" y="203.019229" style="fill: #ffda00; stroke: #ffda00"/>
     <use xlink:href="#m680e30ea0b" x="418.835575" y="245.710994" style="fill: #ffda00; stroke: #ffda00"/>
     <use xlink:href="#m680e30ea0b" x="435.27378" y="270.340858" style="fill: #ffda00; stroke: #ffda00"/>
     <use xlink:href="#m680e30ea0b" x="439.97041" y="303.180677" style="fill: #ffda00; stroke: #ffda00"/>
     <use xlink:href="#m680e30ea0b" x="452.592603" y="313.032623" style="fill: #ffda00; stroke: #ffda00"/>
     <use xlink:href="#m680e30ea0b" x="456.115075" y="285.118777" style="fill: #ffda00; stroke: #ffda00"/>
     <use xlink:href="#m680e30ea0b" x="464.627717" y="301.538686" style="fill: #ffda00; stroke: #ffda00"/>
     <use xlink:href="#m680e30ea0b" x="474.608055" y="273.62484" style="fill: #ffda00; stroke: #ffda00"/>
     <use xlink:href="#m680e30ea0b" x="479.011146" y="250.636967" style="fill: #ffda00; stroke: #ffda00"/>
     <use xlink:href="#m680e30ea0b" x="488.697945" y="301.538686" style="fill: #ffda00; stroke: #ffda00"/>
     <use xlink:href="#m680e30ea0b" x="499.852441" y="278.550813" style="fill: #ffda00; stroke: #ffda00"/>
     <use xlink:href="#m680e30ea0b" x="501.613678" y="304.822668" style="fill: #ffda00; stroke: #ffda00"/>
     <use xlink:href="#m680e30ea0b" x="508.071544" y="336.020496" style="fill: #ffda00; stroke: #ffda00"/>
    </g>
   </g>
   <g id="PathCollection_4">
    <g clip-path="url(#p131187af28)">
     <use xlink:href="#m680e30ea0b" x="528.032221" y="283.476786" style="fill: #ffda00; stroke: #ffda00"/>
     <use xlink:href="#m680e30ea0b" x="536.838402" y="204.66122" style="fill: #ffda00; stroke: #ffda00"/>
     <use xlink:href="#m680e30ea0b" x="546.818741" y="227.649093" style="fill: #ffda00; stroke: #ffda00"/>
     <use xlink:href="#m680e30ea0b" x="567.366497" y="186.59932" style="fill: #ffda00; stroke: #ffda00"/>
     <use xlink:href="#m680e30ea0b" x="579.98869" y="224.365111" style="fill: #ffda00; stroke: #ffda00"/>
     <use xlink:href="#m680e30ea0b" x="592.023804" y="188.241311" style="fill: #ffda00; stroke: #ffda00"/>
     <use xlink:href="#m680e30ea0b" x="597.894592" y="211.229184" style="fill: #ffda00; stroke: #ffda00"/>
     <use xlink:href="#m680e30ea0b" x="608.16847" y="201.377238" style="fill: #ffda00; stroke: #ffda00"/>
     <use xlink:href="#m680e30ea0b" x="618.735887" y="245.710994" style="fill: #ffda00; stroke: #ffda00"/>
     <use xlink:href="#m680e30ea0b" x="631.064541" y="226.007102" style="fill: #ffda00; stroke: #ffda00"/>
     <use xlink:href="#m680e30ea0b" x="643.393194" y="166.895428" style="fill: #ffda00; stroke: #ffda00"/>
     <use xlink:href="#m680e30ea0b" x="649.557521" y="196.451265" style="fill: #ffda00; stroke: #ffda00"/>
     <use xlink:href="#m680e30ea0b" x="676.269604" y="147.191537" style="fill: #ffda00; stroke: #ffda00"/>
     <use xlink:href="#m680e30ea0b" x="690.653033" y="198.093256" style="fill: #ffda00; stroke: #ffda00"/>
     <use xlink:href="#m680e30ea0b" x="698.578596" y="183.315338" style="fill: #ffda00; stroke: #ffda00"/>
     <use xlink:href="#m680e30ea0b" x="717.365116" y="232.575066" style="fill: #ffda00; stroke: #ffda00"/>
     <use xlink:href="#m680e30ea0b" x="727.345455" y="209.587193" style="fill: #ffda00; stroke: #ffda00"/>
     <use xlink:href="#m680e30ea0b" x="737.912872" y="250.636967" style="fill: #ffda00; stroke: #ffda00"/>
     <use xlink:href="#m680e30ea0b" x="754.351077" y="227.649093" style="fill: #ffda00; stroke: #ffda00"/>
     <use xlink:href="#m680e30ea0b" x="761.983101" y="237.501039" style="fill: #ffda00; stroke: #ffda00"/>
     <use xlink:href="#m680e30ea0b" x="789.282262" y="240.785021" style="fill: #ffda00; stroke: #ffda00"/>
     <use xlink:href="#m680e30ea0b" x="801.610916" y="244.069003" style="fill: #ffda00; stroke: #ffda00"/>
     <use xlink:href="#m680e30ea0b" x="809.830018" y="189.883301" style="fill: #ffda00; stroke: #ffda00"/>
     <use xlink:href="#m680e30ea0b" x="814.233109" y="304.822668" style="fill: #ffda00; stroke: #ffda00"/>
     <use xlink:href="#m680e30ea0b" x="828.322999" y="273.62484" style="fill: #ffda00; stroke: #ffda00"/>
     <use xlink:href="#m680e30ea0b" x="840.651652" y="194.809274" style="fill: #ffda00; stroke: #ffda00"/>
     <use xlink:href="#m680e30ea0b" x="850.92553" y="214.513166" style="fill: #ffda00; stroke: #ffda00"/>
     <use xlink:href="#m680e30ea0b" x="861.199408" y="224.365111" style="fill: #ffda00; stroke: #ffda00"/>
     <use xlink:href="#m680e30ea0b" x="869.418511" y="198.093256" style="fill: #ffda00; stroke: #ffda00"/>
     <use xlink:href="#m680e30ea0b" x="877.931153" y="268.698867" style="fill: #ffda00; stroke: #ffda00"/>
     <use xlink:href="#m680e30ea0b" x="883.80194" y="89.721854" style="fill: #ffda00; stroke: #ffda00"/>
     <use xlink:href="#m680e30ea0b" x="892.021043" y="40.462125" style="fill: #ffda00; stroke: #ffda00"/>
    </g>
   </g>
   <g id="matplotlib.axis_1">
    <g id="xtick_1">
     <g id="line2d_1">
      <defs>
       <path id="m4e99fb6c0b" d="M 0 0 
L 0 3.5 
" style="stroke: #000000; stroke-width: 0.8"/>
      </defs>
      <g>
       <use xlink:href="#m4e99fb6c0b" x="67.762486" y="421.486125" style="stroke: #000000; stroke-width: 0.8"/>
      </g>
     </g>
     <g id="text_1">
      <!-- 2016 -->
      <g transform="translate(55.037486 436.084563) scale(0.1 -0.1)">
       <defs>
        <path id="DejaVuSans-32" d="M 1228 531 
L 3431 531 
L 3431 0 
L 469 0 
L 469 531 
Q 828 903 1448 1529 
Q 2069 2156 2228 2338 
Q 2531 2678 2651 2914 
Q 2772 3150 2772 3378 
Q 2772 3750 2511 3984 
Q 2250 4219 1831 4219 
Q 1534 4219 1204 4116 
Q 875 4013 500 3803 
L 500 4441 
Q 881 4594 1212 4672 
Q 1544 4750 1819 4750 
Q 2544 4750 2975 4387 
Q 3406 4025 3406 3419 
Q 3406 3131 3298 2873 
Q 3191 2616 2906 2266 
Q 2828 2175 2409 1742 
Q 1991 1309 1228 531 
z
" transform="scale(0.015625)"/>
        <path id="DejaVuSans-30" d="M 2034 4250 
Q 1547 4250 1301 3770 
Q 1056 3291 1056 2328 
Q 1056 1369 1301 889 
Q 1547 409 2034 409 
Q 2525 409 2770 889 
Q 3016 1369 3016 2328 
Q 3016 3291 2770 3770 
Q 2525 4250 2034 4250 
z
M 2034 4750 
Q 2819 4750 3233 4129 
Q 3647 3509 3647 2328 
Q 3647 1150 3233 529 
Q 2819 -91 2034 -91 
Q 1250 -91 836 529 
Q 422 1150 422 2328 
Q 422 3509 836 4129 
Q 1250 4750 2034 4750 
z
" transform="scale(0.015625)"/>
        <path id="DejaVuSans-31" d="M 794 531 
L 1825 531 
L 1825 4091 
L 703 3866 
L 703 4441 
L 1819 4666 
L 2450 4666 
L 2450 531 
L 3481 531 
L 3481 0 
L 794 0 
L 794 531 
z
" transform="scale(0.015625)"/>
        <path id="DejaVuSans-36" d="M 2113 2584 
Q 1688 2584 1439 2293 
Q 1191 2003 1191 1497 
Q 1191 994 1439 701 
Q 1688 409 2113 409 
Q 2538 409 2786 701 
Q 3034 994 3034 1497 
Q 3034 2003 2786 2293 
Q 2538 2584 2113 2584 
z
M 3366 4563 
L 3366 3988 
Q 3128 4100 2886 4159 
Q 2644 4219 2406 4219 
Q 1781 4219 1451 3797 
Q 1122 3375 1075 2522 
Q 1259 2794 1537 2939 
Q 1816 3084 2150 3084 
Q 2853 3084 3261 2657 
Q 3669 2231 3669 1497 
Q 3669 778 3244 343 
Q 2819 -91 2113 -91 
Q 1303 -91 875 529 
Q 447 1150 447 2328 
Q 447 3434 972 4092 
Q 1497 4750 2381 4750 
Q 2619 4750 2861 4703 
Q 3103 4656 3366 4563 
z
" transform="scale(0.015625)"/>
       </defs>
       <use xlink:href="#DejaVuSans-32"/>
       <use xlink:href="#DejaVuSans-30" x="63.623047"/>
       <use xlink:href="#DejaVuSans-31" x="127.246094"/>
       <use xlink:href="#DejaVuSans-36" x="190.869141"/>
      </g>
     </g>
    </g>
    <g id="xtick_2">
     <g id="line2d_2">
      <g>
       <use xlink:href="#m4e99fb6c0b" x="175.197896" y="421.486125" style="stroke: #000000; stroke-width: 0.8"/>
      </g>
     </g>
     <g id="text_2">
      <!-- 2017 -->
      <g transform="translate(162.472896 436.084563) scale(0.1 -0.1)">
       <defs>
        <path id="DejaVuSans-37" d="M 525 4666 
L 3525 4666 
L 3525 4397 
L 1831 0 
L 1172 0 
L 2766 4134 
L 525 4134 
L 525 4666 
z
" transform="scale(0.015625)"/>
       </defs>
       <use xlink:href="#DejaVuSans-32"/>
       <use xlink:href="#DejaVuSans-30" x="63.623047"/>
       <use xlink:href="#DejaVuSans-31" x="127.246094"/>
       <use xlink:href="#DejaVuSans-37" x="190.869141"/>
      </g>
     </g>
    </g>
    <g id="xtick_3">
     <g id="line2d_3">
      <g>
       <use xlink:href="#m4e99fb6c0b" x="282.339767" y="421.486125" style="stroke: #000000; stroke-width: 0.8"/>
      </g>
     </g>
     <g id="text_3">
      <!-- 2018 -->
      <g transform="translate(269.614767 436.084563) scale(0.1 -0.1)">
       <defs>
        <path id="DejaVuSans-38" d="M 2034 2216 
Q 1584 2216 1326 1975 
Q 1069 1734 1069 1313 
Q 1069 891 1326 650 
Q 1584 409 2034 409 
Q 2484 409 2743 651 
Q 3003 894 3003 1313 
Q 3003 1734 2745 1975 
Q 2488 2216 2034 2216 
z
M 1403 2484 
Q 997 2584 770 2862 
Q 544 3141 544 3541 
Q 544 4100 942 4425 
Q 1341 4750 2034 4750 
Q 2731 4750 3128 4425 
Q 3525 4100 3525 3541 
Q 3525 3141 3298 2862 
Q 3072 2584 2669 2484 
Q 3125 2378 3379 2068 
Q 3634 1759 3634 1313 
Q 3634 634 3220 271 
Q 2806 -91 2034 -91 
Q 1263 -91 848 271 
Q 434 634 434 1313 
Q 434 1759 690 2068 
Q 947 2378 1403 2484 
z
M 1172 3481 
Q 1172 3119 1398 2916 
Q 1625 2713 2034 2713 
Q 2441 2713 2670 2916 
Q 2900 3119 2900 3481 
Q 2900 3844 2670 4047 
Q 2441 4250 2034 4250 
Q 1625 4250 1398 4047 
Q 1172 3844 1172 3481 
z
" transform="scale(0.015625)"/>
       </defs>
       <use xlink:href="#DejaVuSans-32"/>
       <use xlink:href="#DejaVuSans-30" x="63.623047"/>
       <use xlink:href="#DejaVuSans-31" x="127.246094"/>
       <use xlink:href="#DejaVuSans-38" x="190.869141"/>
      </g>
     </g>
    </g>
    <g id="xtick_4">
     <g id="line2d_4">
      <g>
       <use xlink:href="#m4e99fb6c0b" x="389.481638" y="421.486125" style="stroke: #000000; stroke-width: 0.8"/>
      </g>
     </g>
     <g id="text_4">
      <!-- 2019 -->
      <g transform="translate(376.756638 436.084563) scale(0.1 -0.1)">
       <defs>
        <path id="DejaVuSans-39" d="M 703 97 
L 703 672 
Q 941 559 1184 500 
Q 1428 441 1663 441 
Q 2288 441 2617 861 
Q 2947 1281 2994 2138 
Q 2813 1869 2534 1725 
Q 2256 1581 1919 1581 
Q 1219 1581 811 2004 
Q 403 2428 403 3163 
Q 403 3881 828 4315 
Q 1253 4750 1959 4750 
Q 2769 4750 3195 4129 
Q 3622 3509 3622 2328 
Q 3622 1225 3098 567 
Q 2575 -91 1691 -91 
Q 1453 -91 1209 -44 
Q 966 3 703 97 
z
M 1959 2075 
Q 2384 2075 2632 2365 
Q 2881 2656 2881 3163 
Q 2881 3666 2632 3958 
Q 2384 4250 1959 4250 
Q 1534 4250 1286 3958 
Q 1038 3666 1038 3163 
Q 1038 2656 1286 2365 
Q 1534 2075 1959 2075 
z
" transform="scale(0.015625)"/>
       </defs>
       <use xlink:href="#DejaVuSans-32"/>
       <use xlink:href="#DejaVuSans-30" x="63.623047"/>
       <use xlink:href="#DejaVuSans-31" x="127.246094"/>
       <use xlink:href="#DejaVuSans-39" x="190.869141"/>
      </g>
     </g>
    </g>
    <g id="xtick_5">
     <g id="line2d_5">
      <g>
       <use xlink:href="#m4e99fb6c0b" x="496.623508" y="421.486125" style="stroke: #000000; stroke-width: 0.8"/>
      </g>
     </g>
     <g id="text_5">
      <!-- 2020 -->
      <g transform="translate(483.898508 436.084563) scale(0.1 -0.1)">
       <use xlink:href="#DejaVuSans-32"/>
       <use xlink:href="#DejaVuSans-30" x="63.623047"/>
       <use xlink:href="#DejaVuSans-32" x="127.246094"/>
       <use xlink:href="#DejaVuSans-30" x="190.869141"/>
      </g>
     </g>
    </g>
    <g id="xtick_6">
     <g id="line2d_6">
      <g>
       <use xlink:href="#m4e99fb6c0b" x="604.058919" y="421.486125" style="stroke: #000000; stroke-width: 0.8"/>
      </g>
     </g>
     <g id="text_6">
      <!-- 2021 -->
      <g transform="translate(591.333919 436.084563) scale(0.1 -0.1)">
       <use xlink:href="#DejaVuSans-32"/>
       <use xlink:href="#DejaVuSans-30" x="63.623047"/>
       <use xlink:href="#DejaVuSans-32" x="127.246094"/>
       <use xlink:href="#DejaVuSans-31" x="190.869141"/>
      </g>
     </g>
    </g>
    <g id="xtick_7">
     <g id="line2d_7">
      <g>
       <use xlink:href="#m4e99fb6c0b" x="711.200789" y="421.486125" style="stroke: #000000; stroke-width: 0.8"/>
      </g>
     </g>
     <g id="text_7">
      <!-- 2022 -->
      <g transform="translate(698.475789 436.084563) scale(0.1 -0.1)">
       <use xlink:href="#DejaVuSans-32"/>
       <use xlink:href="#DejaVuSans-30" x="63.623047"/>
       <use xlink:href="#DejaVuSans-32" x="127.246094"/>
       <use xlink:href="#DejaVuSans-32" x="190.869141"/>
      </g>
     </g>
    </g>
    <g id="xtick_8">
     <g id="line2d_8">
      <g>
       <use xlink:href="#m4e99fb6c0b" x="818.34266" y="421.486125" style="stroke: #000000; stroke-width: 0.8"/>
      </g>
     </g>
     <g id="text_8">
      <!-- 2023 -->
      <g transform="translate(805.61766 436.084563) scale(0.1 -0.1)">
       <defs>
        <path id="DejaVuSans-33" d="M 2597 2516 
Q 3050 2419 3304 2112 
Q 3559 1806 3559 1356 
Q 3559 666 3084 287 
Q 2609 -91 1734 -91 
Q 1441 -91 1130 -33 
Q 819 25 488 141 
L 488 750 
Q 750 597 1062 519 
Q 1375 441 1716 441 
Q 2309 441 2620 675 
Q 2931 909 2931 1356 
Q 2931 1769 2642 2001 
Q 2353 2234 1838 2234 
L 1294 2234 
L 1294 2753 
L 1863 2753 
Q 2328 2753 2575 2939 
Q 2822 3125 2822 3475 
Q 2822 3834 2567 4026 
Q 2313 4219 1838 4219 
Q 1578 4219 1281 4162 
Q 984 4106 628 3988 
L 628 4550 
Q 988 4650 1302 4700 
Q 1616 4750 1894 4750 
Q 2613 4750 3031 4423 
Q 3450 4097 3450 3541 
Q 3450 3153 3228 2886 
Q 3006 2619 2597 2516 
z
" transform="scale(0.015625)"/>
       </defs>
       <use xlink:href="#DejaVuSans-32"/>
       <use xlink:href="#DejaVuSans-30" x="63.623047"/>
       <use xlink:href="#DejaVuSans-32" x="127.246094"/>
       <use xlink:href="#DejaVuSans-33" x="190.869141"/>
      </g>
     </g>
    </g>
    <g id="xtick_9">
     <g id="line2d_9">
      <g>
       <use xlink:href="#m4e99fb6c0b" x="925.484531" y="421.486125" style="stroke: #000000; stroke-width: 0.8"/>
      </g>
     </g>
     <g id="text_9">
      <!-- 2024 -->
      <g transform="translate(912.759531 436.084563) scale(0.1 -0.1)">
       <defs>
        <path id="DejaVuSans-34" d="M 2419 4116 
L 825 1625 
L 2419 1625 
L 2419 4116 
z
M 2253 4666 
L 3047 4666 
L 3047 1625 
L 3713 1625 
L 3713 1100 
L 3047 1100 
L 3047 0 
L 2419 0 
L 2419 1100 
L 313 1100 
L 313 1709 
L 2253 4666 
z
" transform="scale(0.015625)"/>
       </defs>
       <use xlink:href="#DejaVuSans-32"/>
       <use xlink:href="#DejaVuSans-30" x="63.623047"/>
       <use xlink:href="#DejaVuSans-32" x="127.246094"/>
       <use xlink:href="#DejaVuSans-34" x="190.869141"/>
      </g>
     </g>
    </g>
   </g>
   <g id="matplotlib.axis_2">
    <g id="ytick_1">
     <g id="line2d_10">
      <path d="M 45.967188 404.984116 
L 938.767187 404.984116 
" clip-path="url(#p131187af28)" style="fill: none; stroke: #b0b0b0; stroke-opacity: 0.3; stroke-width: 0.8; stroke-linecap: square"/>
     </g>
     <g id="line2d_11">
      <defs>
       <path id="mb435ea2dbb" d="M 0 0 
L -3.5 0 
" style="stroke: #000000; stroke-width: 0.8"/>
      </defs>
      <g>
       <use xlink:href="#mb435ea2dbb" x="45.967188" y="404.984116" style="stroke: #000000; stroke-width: 0.8"/>
      </g>
     </g>
     <g id="text_10">
      <!-- 5.0% -->
      <g transform="translate(13.5625 408.783335) scale(0.1 -0.1)">
       <defs>
        <path id="DejaVuSans-35" d="M 691 4666 
L 3169 4666 
L 3169 4134 
L 1269 4134 
L 1269 2991 
Q 1406 3038 1543 3061 
Q 1681 3084 1819 3084 
Q 2600 3084 3056 2656 
Q 3513 2228 3513 1497 
Q 3513 744 3044 326 
Q 2575 -91 1722 -91 
Q 1428 -91 1123 -41 
Q 819 9 494 109 
L 494 744 
Q 775 591 1075 516 
Q 1375 441 1709 441 
Q 2250 441 2565 725 
Q 2881 1009 2881 1497 
Q 2881 1984 2565 2268 
Q 2250 2553 1709 2553 
Q 1456 2553 1204 2497 
Q 953 2441 691 2322 
L 691 4666 
z
" transform="scale(0.015625)"/>
        <path id="DejaVuSans-2e" d="M 684 794 
L 1344 794 
L 1344 0 
L 684 0 
L 684 794 
z
" transform="scale(0.015625)"/>
        <path id="DejaVuSans-25" d="M 4653 2053 
Q 4381 2053 4226 1822 
Q 4072 1591 4072 1178 
Q 4072 772 4226 539 
Q 4381 306 4653 306 
Q 4919 306 5073 539 
Q 5228 772 5228 1178 
Q 5228 1588 5073 1820 
Q 4919 2053 4653 2053 
z
M 4653 2450 
Q 5147 2450 5437 2106 
Q 5728 1763 5728 1178 
Q 5728 594 5436 251 
Q 5144 -91 4653 -91 
Q 4153 -91 3862 251 
Q 3572 594 3572 1178 
Q 3572 1766 3864 2108 
Q 4156 2450 4653 2450 
z
M 1428 4353 
Q 1159 4353 1004 4120 
Q 850 3888 850 3481 
Q 850 3069 1003 2837 
Q 1156 2606 1428 2606 
Q 1700 2606 1854 2837 
Q 2009 3069 2009 3481 
Q 2009 3884 1853 4118 
Q 1697 4353 1428 4353 
z
M 4250 4750 
L 4750 4750 
L 1831 -91 
L 1331 -91 
L 4250 4750 
z
M 1428 4750 
Q 1922 4750 2215 4408 
Q 2509 4066 2509 3481 
Q 2509 2891 2217 2550 
Q 1925 2209 1428 2209 
Q 931 2209 642 2551 
Q 353 2894 353 3481 
Q 353 4063 643 4406 
Q 934 4750 1428 4750 
z
" transform="scale(0.015625)"/>
       </defs>
       <use xlink:href="#DejaVuSans-35"/>
       <use xlink:href="#DejaVuSans-2e" x="63.623047"/>
       <use xlink:href="#DejaVuSans-30" x="95.410156"/>
       <use xlink:href="#DejaVuSans-25" x="159.033203"/>
      </g>
     </g>
    </g>
    <g id="ytick_2">
     <g id="line2d_12">
      <path d="M 45.967188 322.884568 
L 938.767187 322.884568 
" clip-path="url(#p131187af28)" style="fill: none; stroke: #b0b0b0; stroke-opacity: 0.3; stroke-width: 0.8; stroke-linecap: square"/>
     </g>
     <g id="line2d_13">
      <g>
       <use xlink:href="#mb435ea2dbb" x="45.967188" y="322.884568" style="stroke: #000000; stroke-width: 0.8"/>
      </g>
     </g>
     <g id="text_11">
      <!-- 10.0% -->
      <g transform="translate(7.2 326.683787) scale(0.1 -0.1)">
       <use xlink:href="#DejaVuSans-31"/>
       <use xlink:href="#DejaVuSans-30" x="63.623047"/>
       <use xlink:href="#DejaVuSans-2e" x="127.246094"/>
       <use xlink:href="#DejaVuSans-30" x="159.033203"/>
       <use xlink:href="#DejaVuSans-25" x="222.65625"/>
      </g>
     </g>
    </g>
    <g id="ytick_3">
     <g id="line2d_14">
      <path d="M 45.967188 240.785021 
L 938.767187 240.785021 
" clip-path="url(#p131187af28)" style="fill: none; stroke: #b0b0b0; stroke-opacity: 0.3; stroke-width: 0.8; stroke-linecap: square"/>
     </g>
     <g id="line2d_15">
      <g>
       <use xlink:href="#mb435ea2dbb" x="45.967188" y="240.785021" style="stroke: #000000; stroke-width: 0.8"/>
      </g>
     </g>
     <g id="text_12">
      <!-- 15.0% -->
      <g transform="translate(7.2 244.58424) scale(0.1 -0.1)">
       <use xlink:href="#DejaVuSans-31"/>
       <use xlink:href="#DejaVuSans-35" x="63.623047"/>
       <use xlink:href="#DejaVuSans-2e" x="127.246094"/>
       <use xlink:href="#DejaVuSans-30" x="159.033203"/>
       <use xlink:href="#DejaVuSans-25" x="222.65625"/>
      </g>
     </g>
    </g>
    <g id="ytick_4">
     <g id="line2d_16">
      <path d="M 45.967188 158.685473 
L 938.767187 158.685473 
" clip-path="url(#p131187af28)" style="fill: none; stroke: #b0b0b0; stroke-opacity: 0.3; stroke-width: 0.8; stroke-linecap: square"/>
     </g>
     <g id="line2d_17">
      <g>
       <use xlink:href="#mb435ea2dbb" x="45.967188" y="158.685473" style="stroke: #000000; stroke-width: 0.8"/>
      </g>
     </g>
     <g id="text_13">
      <!-- 20.0% -->
      <g transform="translate(7.2 162.484692) scale(0.1 -0.1)">
       <use xlink:href="#DejaVuSans-32"/>
       <use xlink:href="#DejaVuSans-30" x="63.623047"/>
       <use xlink:href="#DejaVuSans-2e" x="127.246094"/>
       <use xlink:href="#DejaVuSans-30" x="159.033203"/>
       <use xlink:href="#DejaVuSans-25" x="222.65625"/>
      </g>
     </g>
    </g>
    <g id="ytick_5">
     <g id="line2d_18">
      <path d="M 45.967188 76.585926 
L 938.767187 76.585926 
" clip-path="url(#p131187af28)" style="fill: none; stroke: #b0b0b0; stroke-opacity: 0.3; stroke-width: 0.8; stroke-linecap: square"/>
     </g>
     <g id="line2d_19">
      <g>
       <use xlink:href="#mb435ea2dbb" x="45.967188" y="76.585926" style="stroke: #000000; stroke-width: 0.8"/>
      </g>
     </g>
     <g id="text_14">
      <!-- 25.0% -->
      <g transform="translate(7.2 80.385145) scale(0.1 -0.1)">
       <use xlink:href="#DejaVuSans-32"/>
       <use xlink:href="#DejaVuSans-35" x="63.623047"/>
       <use xlink:href="#DejaVuSans-2e" x="127.246094"/>
       <use xlink:href="#DejaVuSans-30" x="159.033203"/>
       <use xlink:href="#DejaVuSans-25" x="222.65625"/>
      </g>
     </g>
    </g>
   </g>
   <g id="line2d_20">
    <path d="M 86.549006 421.486125 
L 86.549006 22.318125 
" clip-path="url(#p131187af28)" style="fill: none; stroke: #000000; stroke-linecap: square"/>
   </g>
   <g id="line2d_21">
    <path d="M 513.942331 421.486125 
L 513.942331 22.318125 
" clip-path="url(#p131187af28)" style="fill: none; stroke: #000000; stroke-linecap: square"/>
   </g>
   <g id="line2d_22">
    <path d="M 898.185369 421.486125 
L 898.185369 22.318125 
" clip-path="url(#p131187af28)" style="fill: none; stroke: #000000; stroke-linecap: square"/>
   </g>
   <g id="line2d_23">
    <path d="M 95.648726 319.979108 
L 95.942266 319.77919 
L 96.235805 320.352001 
L 102.693671 316.077954 
L 109.151537 312.07387 
L 115.609404 308.331389 
L 122.06727 304.841698 
L 128.525136 301.596517 
L 135.276541 298.45709 
L 142.027947 295.569215 
L 148.779353 292.926562 
L 155.530758 290.524661 
L 162.282164 288.36112 
L 169.033569 286.43633 
L 175.491435 284.820716 
L 181.949302 283.428596 
L 188.407168 282.265194 
L 194.571495 281.374758 
L 200.735821 280.707439 
L 208.367845 280.133116 
L 214.238633 279.914652 
L 220.10942 279.919514 
L 220.990038 279.940023 
L 221.283577 280.216211 
L 226.860826 280.574291 
L 232.438074 281.149053 
L 236.841164 281.756639 
L 237.134704 282.203693 
L 242.711952 283.169238 
L 243.005491 283.493775 
L 250.931054 285.024407 
L 251.224593 283.881451 
L 251.811672 284.015101 
L 252.105212 285.049531 
L 263.846786 287.576718 
L 264.140326 287.451959 
L 279.697912 290.921813 
L 297.310275 294.82483 
L 306.409995 297.289553 
L 313.74848 299.387135 
L 314.335558 299.67793 
L 326.957751 303.581979 
L 338.112248 307.262643 
L 348.679665 310.982923 
L 358.953543 314.835563 
L 369.227421 318.9309 
L 379.20776 323.147439 
L 389.188098 327.602581 
L 399.168437 332.299333 
L 409.148776 337.239541 
L 419.129114 342.423134 
L 429.402992 348.011029 
L 439.67687 353.849941 
L 450.244288 360.112969 
L 460.811705 366.632188 
L 471.672662 373.594419 
L 482.533619 380.817966 
L 484.881934 382.414108 
L 484.881934 382.414108 
" clip-path="url(#p131187af28)" style="fill: none; stroke: #007c85; stroke-width: 2; stroke-linecap: square"/>
   </g>
   <g id="line2d_24">
    <path d="M 527.445142 329.379806 
L 532.141772 314.501348 
L 536.838402 300.379218 
L 541.241493 287.829634 
L 545.644584 275.949506 
L 551.80891 260.103201 
L 555.918462 250.367258 
L 559.734473 241.863203 
L 563.550485 233.877815 
L 564.431103 232.108646 
L 564.724643 230.511913 
L 568.247115 223.61696 
L 570.008351 220.347179 
L 570.301891 220.382251 
L 570.59543 219.858062 
L 570.88897 220.698527 
L 574.704981 214.221239 
L 574.998521 213.742879 
L 575.29206 214.42307 
L 578.520993 209.429672 
L 578.814533 205.8802 
L 582.043466 201.350001 
L 583.511163 199.415945 
L 583.804702 198.512845 
L 584.391781 197.787606 
L 584.68532 198.361141 
L 588.207792 194.030083 
L 589.38195 192.670898 
L 589.675489 193.364406 
L 592.904422 189.79014 
L 596.133356 186.534963 
L 599.362289 183.595964 
L 601.123525 182.125167 
L 601.417064 183.345412 
L 604.352458 181.163168 
L 607.287852 179.242315 
L 610.223245 177.583717 
L 613.158639 176.190255 
L 615.800493 175.169261 
L 618.442348 174.380759 
L 621.084202 173.839043 
L 623.432517 173.582097 
L 625.780832 173.557918 
L 627.835608 173.744805 
L 630.183923 174.19836 
L 633.412856 175.111534 
L 634.587013 175.461677 
L 634.880553 174.038201 
L 635.174092 174.123489 
L 635.467631 175.720014 
L 637.522407 176.426743 
L 638.109486 176.673807 
L 638.403025 175.298195 
L 639.870722 176.102596 
L 641.044879 176.957287 
L 641.925498 177.796368 
L 643.099655 179.041152 
L 643.686734 180.431623 
L 643.980273 181.022075 
L 644.273813 181.942582 
L 645.154431 183.172497 
L 645.44797 183.26251 
L 647.209206 185.092384 
L 658.070163 194.176019 
L 658.950781 194.96828 
L 659.24432 195.068986 
L 660.712017 196.444704 
L 661.299096 197.145026 
L 669.224659 204.680861 
L 669.811738 205.432518 
L 677.150222 212.850296 
L 677.443762 212.854232 
L 681.553313 216.766531 
L 684.782246 219.539187 
L 688.011179 222.037947 
L 691.240112 224.258678 
L 695.056124 226.796455 
L 697.991518 228.744312 
L 700.339833 229.822937 
L 702.101069 230.400417 
L 703.862305 230.737345 
L 705.623541 230.975899 
L 709.146014 233.205877 
L 712.668486 233.695157 
L 713.549104 233.949236 
L 717.658656 236.435775 
L 718.539274 236.708584 
L 720.594049 237.371602 
L 722.648825 238.28709 
L 727.345455 240.607165 
L 729.40023 241.531321 
L 733.216242 243.34751 
L 735.564557 243.841732 
L 737.325793 244.231363 
L 739.967648 245.084371 
L 740.848266 245.217195 
L 743.196581 245.166255 
L 744.957817 245.11679 
L 747.599671 245.41875 
L 749.067368 245.453914 
L 751.709223 244.779101 
L 753.470459 244.35633 
L 756.992931 244.027077 
L 758.167089 243.846743 
L 762.570179 242.145909 
L 766.97327 241.171122 
L 770.495742 239.753929 
L 776.36653 237.357163 
L 779.889002 235.616029 
L 780.182542 235.456622 
L 780.476081 235.509196 
L 781.943778 234.530979 
L 783.411475 233.281245 
L 784.879172 231.927374 
L 785.46625 231.028954 
L 785.75979 230.680423 
L 786.053329 230.745764 
L 786.933947 230.11941 
L 787.227487 230.148681 
L 787.814565 229.669379 
L 788.108105 229.333581 
L 788.401644 229.207128 
L 789.282262 228.298394 
L 789.869341 227.853815 
L 791.630577 226.367434 
L 791.924117 221.977939 
L 793.098274 220.503918 
L 793.978892 219.732709 
L 795.740128 218.769009 
L 797.794904 217.888975 
L 799.262601 217.442537 
L 800.143219 217.296472 
L 801.610916 217.30428 
L 803.959231 217.406462 
L 806.601085 217.284401 
L 807.775243 217.38385 
L 816.874963 220.257317 
L 820.103896 221.558663 
L 823.332829 223.102439 
L 826.561763 224.907358 
L 829.790696 226.987829 
L 833.019629 229.355012 
L 836.248562 232.017828 
L 839.477495 234.983258 
L 842.706428 238.258387 
L 845.935361 241.850779 
L 849.164294 245.765512 
L 852.686767 250.404848 
L 856.209239 255.427685 
L 859.731712 260.830967 
L 863.547723 267.107945 
L 867.363735 273.818729 
L 871.473286 281.522183 
L 875.582838 289.710914 
L 879.692389 298.378195 
L 884.095479 308.193301 
L 888.49857 318.55567 
L 891.727503 326.501837 
L 891.727503 326.501837 
" clip-path="url(#p131187af28)" style="fill: none; stroke: #007c85; stroke-width: 2; stroke-linecap: square"/>
   </g>
   <g id="line2d_25">
    <path d="M 88.897321 158.359847 
L 99.171199 159.892927 
L 108.857998 161.118263 
L 118.544797 162.118664 
L 128.231597 162.888926 
L 137.918396 163.435025 
L 147.898734 163.777209 
L 156.117837 163.901639 
L 156.411376 164.555548 
L 166.391715 164.652611 
L 176.078514 164.527433 
L 182.242841 164.323853 
L 182.53638 162.756813 
L 197.506888 162.083289 
L 208.074306 161.450107 
L 208.367845 161.763126 
L 215.999869 160.986502 
L 217.174026 160.842707 
L 217.467566 161.086066 
L 220.990038 160.494134 
L 221.283577 160.230608 
L 223.925432 159.634675 
L 225.099589 159.273864 
L 225.393129 159.468837 
L 226.567286 159.063647 
L 226.860826 158.125094 
L 227.154365 159.051999 
L 227.741444 158.82207 
L 228.034983 158.852244 
L 228.328522 158.730342 
L 228.915601 158.336846 
L 229.20914 157.69223 
L 230.089759 157.362454 
L 230.383298 156.840556 
L 231.557455 156.504569 
L 231.850995 157.057057 
L 232.144534 157.141608 
L 232.438074 156.637254 
L 232.731613 156.568134 
L 233.025152 156.186724 
L 233.318692 156.445524 
L 235.373467 156.153081 
L 235.667007 155.841581 
L 238.015322 155.582718 
L 240.657176 155.527266 
L 243.29903 155.714289 
L 246.234424 156.096293 
L 246.527963 156.587353 
L 252.69229 157.749666 
L 257.975999 159.322573 
L 260.911393 160.255562 
L 261.498471 160.621898 
L 269.424034 163.878232 
L 269.717574 163.86101 
L 271.185271 164.439583 
L 271.47881 164.188301 
L 273.827125 165.240011 
L 277.349597 167.199125 
L 280.87207 168.95327 
L 284.981621 171.815196 
L 286.449318 172.910336 
L 286.742857 173.55771 
L 289.384712 175.327276 
L 296.723196 179.738058 
L 298.777972 181.550731 
L 302.593983 184.037471 
L 303.768141 185.249478 
L 304.06168 185.14577 
L 304.35522 185.419106 
L 304.648759 186.153988 
L 306.997074 188.583015 
L 307.290613 187.999139 
L 308.171232 189.377979 
L 308.464771 189.674847 
L 308.75831 190.394777 
L 311.987243 192.982048 
L 314.629098 195.381426 
L 317.270952 198.112561 
L 320.206346 201.976239 
L 320.499885 201.243302 
L 321.967582 203.088428 
L 325.783594 209.242322 
L 326.370673 210.269521 
L 328.425448 213.401388 
L 328.718988 212.259828 
L 331.067303 215.910686 
L 332.828539 219.189398 
L 333.122078 218.353158 
L 334.002696 219.932143 
L 334.296236 225.697537 
L 334.589775 220.364291 
L 334.883314 221.03939 
L 335.176854 226.93155 
L 335.470393 228.401589 
L 335.763933 231.167039 
L 336.93809 233.342101 
L 337.818708 234.747587 
L 338.112248 235.598406 
L 339.579944 237.64085 
L 341.928259 240.549467 
L 342.221799 240.502387 
L 342.515338 240.856024 
L 342.808877 241.68269 
L 343.102417 241.554653 
L 348.679665 247.972109 
L 349.853822 249.240957 
L 352.789216 252.974763 
L 353.376295 254.039989 
L 353.963374 254.927283 
L 354.256913 255.041072 
L 354.843992 255.916307 
L 355.137531 256.806505 
L 355.43107 257.284636 
L 355.72461 258.140883 
L 356.018149 258.593603 
L 356.311689 258.069773 
L 361.008319 262.022814 
L 362.182476 263.625705 
L 362.476015 264.693821 
L 363.943712 266.374808 
L 364.237252 266.198897 
L 366.585567 268.785675 
L 369.227421 271.332109 
L 370.108039 272.013487 
L 370.988657 272.653891 
L 371.575736 273.291372 
L 380.381917 279.939181 
L 382.143153 281.02165 
L 382.730232 281.237769 
L 388.013941 284.009439 
L 390.362256 284.791266 
L 390.655795 284.871632 
L 390.949334 284.59896 
L 391.829953 284.80468 
L 392.123492 285.368629 
L 392.417031 284.926529 
L 398.287819 285.953396 
L 398.581358 286.009195 
L 398.874898 286.486006 
L 399.168437 286.157078 
L 401.223212 286.587038 
L 403.571527 286.852891 
L 407.974618 287.066989 
L 411.79063 287.251346 
L 412.084169 287.682751 
L 418.542035 288.016094 
L 418.835575 287.533164 
L 436.741477 288.171339 
L 445.254118 288.742181 
L 446.134736 288.813944 
L 446.428276 289.168115 
L 454.940918 289.888902 
L 466.095414 291.088842 
L 475.195134 292.511334 
L 490.165642 295.111311 
L 490.459182 295.426504 
L 498.384745 297.247384 
L 505.723229 299.158806 
L 508.071544 299.822411 
L 508.071544 299.822411 
" clip-path="url(#p131187af28)" style="fill: none; stroke: #ffda00; stroke-width: 2; stroke-linecap: square"/>
   </g>
   <g id="line2d_26">
    <path d="M 528.032221 211.029407 
L 530.380536 211.085282 
L 530.674076 219.636943 
L 547.11228 215.994517 
L 569.421273 210.983607 
L 595.546277 205.054962 
L 605.526615 203.018628 
L 605.820155 202.388367 
L 612.8651 201.001551 
L 624.019596 199.089076 
L 629.890383 197.952445 
L 633.706395 196.999093 
L 636.641789 196.046573 
L 638.990104 195.068435 
L 640.164261 194.487826 
L 640.457801 194.057689 
L 640.75134 193.890676 
L 641.044879 193.56667 
L 641.338419 193.823604 
L 642.219037 193.188844 
L 642.512576 192.626477 
L 645.154431 190.809435 
L 647.796285 189.091686 
L 648.089824 188.596378 
L 648.383364 188.707925 
L 650.1446 187.646733 
L 651.612297 187.018096 
L 653.079994 186.600331 
L 654.84123 186.351075 
L 655.134769 186.332473 
L 655.428309 186.855859 
L 657.483084 186.841867 
L 660.124939 187.065797 
L 663.353872 187.433029 
L 663.94095 186.838507 
L 664.528029 186.740349 
L 664.821569 186.845174 
L 665.702187 186.721267 
L 665.995726 186.542658 
L 666.289265 186.511086 
L 666.582805 186.6208 
L 668.050502 186.496339 
L 672.747132 187.941217 
L 674.508368 188.467161 
L 675.388986 188.481244 
L 675.682525 188.630827 
L 681.259773 188.78744 
L 684.782246 189.013463 
L 687.71764 190.561608 
L 688.598258 191.081877 
L 692.707809 191.57748 
L 694.762585 192.031039 
L 695.349663 192.424751 
L 697.404439 194.089693 
L 699.165675 194.894567 
L 700.633372 195.797163 
L 701.807529 196.707869 
L 702.394608 197.411321 
L 704.155844 199.247673 
L 704.449384 199.926505 
L 704.742923 200.307885 
L 705.036463 200.36169 
L 706.797699 202.405461 
L 708.558935 204.123889 
L 711.787868 207.07561 
L 712.081407 207.842693 
L 713.842644 209.53204 
L 714.136183 209.398431 
L 715.016801 210.049044 
L 715.310341 210.645758 
L 716.190959 211.301769 
L 716.484498 211.120262 
L 717.071577 211.542474 
L 717.365116 211.980803 
L 719.126352 213.202602 
L 719.419892 212.922422 
L 720.30051 213.760588 
L 720.594049 214.321796 
L 722.942364 216.345444 
L 723.235904 216.403495 
L 724.7036 217.579891 
L 728.519612 219.779993 
L 729.987309 220.717257 
L 732.629163 223.065059 
L 732.922703 223.739579 
L 734.09686 225.124859 
L 734.3904 227.760765 
L 734.683939 228.638281 
L 734.977478 226.979955 
L 738.499951 229.187357 
L 739.674108 229.988241 
L 739.967648 231.348126 
L 740.261187 228.733329 
L 740.848266 229.415578 
L 741.141805 235.320058 
L 741.435345 235.146203 
L 742.315963 235.822489 
L 743.196581 236.303949 
L 743.49012 236.194033 
L 744.957817 236.939161 
L 746.425514 237.475822 
L 748.773829 237.79465 
L 750.828605 238.048731 
L 753.470459 238.698846 
L 756.112313 239.129013 
L 756.405853 239.164674 
L 756.699392 238.988122 
L 761.689561 238.948129 
L 764.331416 239.028548 
L 771.963439 238.637804 
L 775.192372 238.124946 
L 779.008384 237.296813 
L 781.650239 236.740204 
L 784.585632 236.155751 
L 787.814565 234.880599 
L 791.337038 233.506319 
L 803.078613 230.687509 
L 818.929739 226.964173 
L 819.223278 225.792657 
L 831.258392 222.526701 
L 831.551932 221.379457 
L 835.074404 220.427516 
L 836.835641 220.010364 
L 837.12918 227.211326 
L 839.183956 225.393021 
L 841.238731 223.259584 
L 843.293507 220.810973 
L 845.641822 217.632362 
L 847.990137 214.057159 
L 850.338452 210.09542 
L 852.980306 205.188518 
L 855.62216 199.817853 
L 855.9157 199.19332 
L 856.209239 193.701625 
L 857.970475 189.447762 
L 858.264015 189.353668 
L 860.61233 183.150529 
L 862.373566 178.072953 
L 862.667105 178.184467 
L 865.602499 168.827058 
L 868.831432 157.746375 
L 872.060365 145.835598 
L 872.353905 144.747398 
L 872.940983 142.092594 
L 876.463456 128.16363 
L 877.931153 122.094493 
L 878.224692 135.617215 
L 881.747164 122.50693 
L 885.269637 108.463972 
L 885.563176 107.250271 
L 885.856716 86.626329 
L 889.672728 67.916211 
L 891.727503 57.40011 
L 892.021043 57.28209 
L 892.021043 57.28209 
" clip-path="url(#p131187af28)" style="fill: none; stroke: #ffda00; stroke-width: 2; stroke-linecap: square"/>
   </g>
   <g id="patch_3">
    <path d="M 45.967188 421.486125 
L 45.967188 22.318125 
" style="fill: none; stroke: #000000; stroke-width: 0.8; stroke-linejoin: miter; stroke-linecap: square"/>
   </g>
   <g id="patch_4">
    <path d="M 938.767187 421.486125 
L 938.767187 22.318125 
" style="fill: none; stroke: #000000; stroke-width: 0.8; stroke-linejoin: miter; stroke-linecap: square"/>
   </g>
   <g id="patch_5">
    <path d="M 45.967188 421.486125 
L 938.767187 421.486125 
" style="fill: none; stroke: #000000; stroke-width: 0.8; stroke-linejoin: miter; stroke-linecap: square"/>
   </g>
   <g id="patch_6">
    <path d="M 45.967188 22.318125 
L 938.767187 22.318125 
" style="fill: none; stroke: #000000; stroke-width: 0.8; stroke-linejoin: miter; stroke-linecap: square"/>
   </g>
   <g id="text_15">
    <!-- Wont Participate -->
    <g transform="translate(443.048125 16.318125) scale(0.12 -0.12)">
     <defs>
      <path id="DejaVuSans-57" d="M 213 4666 
L 850 4666 
L 1831 722 
L 2809 4666 
L 3519 4666 
L 4500 722 
L 5478 4666 
L 6119 4666 
L 4947 0 
L 4153 0 
L 3169 4050 
L 2175 0 
L 1381 0 
L 213 4666 
z
" transform="scale(0.015625)"/>
      <path id="DejaVuSans-6f" d="M 1959 3097 
Q 1497 3097 1228 2736 
Q 959 2375 959 1747 
Q 959 1119 1226 758 
Q 1494 397 1959 397 
Q 2419 397 2687 759 
Q 2956 1122 2956 1747 
Q 2956 2369 2687 2733 
Q 2419 3097 1959 3097 
z
M 1959 3584 
Q 2709 3584 3137 3096 
Q 3566 2609 3566 1747 
Q 3566 888 3137 398 
Q 2709 -91 1959 -91 
Q 1206 -91 779 398 
Q 353 888 353 1747 
Q 353 2609 779 3096 
Q 1206 3584 1959 3584 
z
" transform="scale(0.015625)"/>
      <path id="DejaVuSans-6e" d="M 3513 2113 
L 3513 0 
L 2938 0 
L 2938 2094 
Q 2938 2591 2744 2837 
Q 2550 3084 2163 3084 
Q 1697 3084 1428 2787 
Q 1159 2491 1159 1978 
L 1159 0 
L 581 0 
L 581 3500 
L 1159 3500 
L 1159 2956 
Q 1366 3272 1645 3428 
Q 1925 3584 2291 3584 
Q 2894 3584 3203 3211 
Q 3513 2838 3513 2113 
z
" transform="scale(0.015625)"/>
      <path id="DejaVuSans-74" d="M 1172 4494 
L 1172 3500 
L 2356 3500 
L 2356 3053 
L 1172 3053 
L 1172 1153 
Q 1172 725 1289 603 
Q 1406 481 1766 481 
L 2356 481 
L 2356 0 
L 1766 0 
Q 1100 0 847 248 
Q 594 497 594 1153 
L 594 3053 
L 172 3053 
L 172 3500 
L 594 3500 
L 594 4494 
L 1172 4494 
z
" transform="scale(0.015625)"/>
      <path id="DejaVuSans-20" transform="scale(0.015625)"/>
      <path id="DejaVuSans-50" d="M 1259 4147 
L 1259 2394 
L 2053 2394 
Q 2494 2394 2734 2622 
Q 2975 2850 2975 3272 
Q 2975 3691 2734 3919 
Q 2494 4147 2053 4147 
L 1259 4147 
z
M 628 4666 
L 2053 4666 
Q 2838 4666 3239 4311 
Q 3641 3956 3641 3272 
Q 3641 2581 3239 2228 
Q 2838 1875 2053 1875 
L 1259 1875 
L 1259 0 
L 628 0 
L 628 4666 
z
" transform="scale(0.015625)"/>
      <path id="DejaVuSans-61" d="M 2194 1759 
Q 1497 1759 1228 1600 
Q 959 1441 959 1056 
Q 959 750 1161 570 
Q 1363 391 1709 391 
Q 2188 391 2477 730 
Q 2766 1069 2766 1631 
L 2766 1759 
L 2194 1759 
z
M 3341 1997 
L 3341 0 
L 2766 0 
L 2766 531 
Q 2569 213 2275 61 
Q 1981 -91 1556 -91 
Q 1019 -91 701 211 
Q 384 513 384 1019 
Q 384 1609 779 1909 
Q 1175 2209 1959 2209 
L 2766 2209 
L 2766 2266 
Q 2766 2663 2505 2880 
Q 2244 3097 1772 3097 
Q 1472 3097 1187 3025 
Q 903 2953 641 2809 
L 641 3341 
Q 956 3463 1253 3523 
Q 1550 3584 1831 3584 
Q 2591 3584 2966 3190 
Q 3341 2797 3341 1997 
z
" transform="scale(0.015625)"/>
      <path id="DejaVuSans-72" d="M 2631 2963 
Q 2534 3019 2420 3045 
Q 2306 3072 2169 3072 
Q 1681 3072 1420 2755 
Q 1159 2438 1159 1844 
L 1159 0 
L 581 0 
L 581 3500 
L 1159 3500 
L 1159 2956 
Q 1341 3275 1631 3429 
Q 1922 3584 2338 3584 
Q 2397 3584 2469 3576 
Q 2541 3569 2628 3553 
L 2631 2963 
z
" transform="scale(0.015625)"/>
      <path id="DejaVuSans-69" d="M 603 3500 
L 1178 3500 
L 1178 0 
L 603 0 
L 603 3500 
z
M 603 4863 
L 1178 4863 
L 1178 4134 
L 603 4134 
L 603 4863 
z
" transform="scale(0.015625)"/>
      <path id="DejaVuSans-63" d="M 3122 3366 
L 3122 2828 
Q 2878 2963 2633 3030 
Q 2388 3097 2138 3097 
Q 1578 3097 1268 2742 
Q 959 2388 959 1747 
Q 959 1106 1268 751 
Q 1578 397 2138 397 
Q 2388 397 2633 464 
Q 2878 531 3122 666 
L 3122 134 
Q 2881 22 2623 -34 
Q 2366 -91 2075 -91 
Q 1284 -91 818 406 
Q 353 903 353 1747 
Q 353 2603 823 3093 
Q 1294 3584 2113 3584 
Q 2378 3584 2631 3529 
Q 2884 3475 3122 3366 
z
" transform="scale(0.015625)"/>
      <path id="DejaVuSans-70" d="M 1159 525 
L 1159 -1331 
L 581 -1331 
L 581 3500 
L 1159 3500 
L 1159 2969 
Q 1341 3281 1617 3432 
Q 1894 3584 2278 3584 
Q 2916 3584 3314 3078 
Q 3713 2572 3713 1747 
Q 3713 922 3314 415 
Q 2916 -91 2278 -91 
Q 1894 -91 1617 61 
Q 1341 213 1159 525 
z
M 3116 1747 
Q 3116 2381 2855 2742 
Q 2594 3103 2138 3103 
Q 1681 3103 1420 2742 
Q 1159 2381 1159 1747 
Q 1159 1113 1420 752 
Q 1681 391 2138 391 
Q 2594 391 2855 752 
Q 3116 1113 3116 1747 
z
" transform="scale(0.015625)"/>
      <path id="DejaVuSans-65" d="M 3597 1894 
L 3597 1613 
L 953 1613 
Q 991 1019 1311 708 
Q 1631 397 2203 397 
Q 2534 397 2845 478 
Q 3156 559 3463 722 
L 3463 178 
Q 3153 47 2828 -22 
Q 2503 -91 2169 -91 
Q 1331 -91 842 396 
Q 353 884 353 1716 
Q 353 2575 817 3079 
Q 1281 3584 2069 3584 
Q 2775 3584 3186 3129 
Q 3597 2675 3597 1894 
z
M 3022 2063 
Q 3016 2534 2758 2815 
Q 2500 3097 2075 3097 
Q 1594 3097 1305 2825 
Q 1016 2553 972 2059 
L 3022 2063 
z
" transform="scale(0.015625)"/>
     </defs>
     <use xlink:href="#DejaVuSans-57"/>
     <use xlink:href="#DejaVuSans-6f" x="93.001953"/>
     <use xlink:href="#DejaVuSans-6e" x="154.183594"/>
     <use xlink:href="#DejaVuSans-74" x="217.5625"/>
     <use xlink:href="#DejaVuSans-20" x="256.771484"/>
     <use xlink:href="#DejaVuSans-50" x="288.558594"/>
     <use xlink:href="#DejaVuSans-61" x="344.361328"/>
     <use xlink:href="#DejaVuSans-72" x="405.640625"/>
     <use xlink:href="#DejaVuSans-74" x="446.753906"/>
     <use xlink:href="#DejaVuSans-69" x="485.962891"/>
     <use xlink:href="#DejaVuSans-63" x="513.746094"/>
     <use xlink:href="#DejaVuSans-69" x="568.726562"/>
     <use xlink:href="#DejaVuSans-70" x="596.509766"/>
     <use xlink:href="#DejaVuSans-61" x="659.986328"/>
     <use xlink:href="#DejaVuSans-74" x="721.265625"/>
     <use xlink:href="#DejaVuSans-65" x="760.474609"/>
    </g>
   </g>
  </g>
  <g id="legend_1">
   <g id="line2d_27">
    <path d="M 412.470313 451.8495 
L 422.470313 451.8495 
L 432.470313 451.8495 
" style="fill: none; stroke: #007c85; stroke-width: 2; stroke-linecap: square"/>
   </g>
   <g id="text_16">
    <!-- AKO -->
    <g transform="translate(440.470313 455.3495) scale(0.1 -0.1)">
     <defs>
      <path id="DejaVuSans-41" d="M 2188 4044 
L 1331 1722 
L 3047 1722 
L 2188 4044 
z
M 1831 4666 
L 2547 4666 
L 4325 0 
L 3669 0 
L 3244 1197 
L 1141 1197 
L 716 0 
L 50 0 
L 1831 4666 
z
" transform="scale(0.015625)"/>
      <path id="DejaVuSans-4b" d="M 628 4666 
L 1259 4666 
L 1259 2694 
L 3353 4666 
L 4166 4666 
L 1850 2491 
L 4331 0 
L 3500 0 
L 1259 2247 
L 1259 0 
L 628 0 
L 628 4666 
z
" transform="scale(0.015625)"/>
      <path id="DejaVuSans-4f" d="M 2522 4238 
Q 1834 4238 1429 3725 
Q 1025 3213 1025 2328 
Q 1025 1447 1429 934 
Q 1834 422 2522 422 
Q 3209 422 3611 934 
Q 4013 1447 4013 2328 
Q 4013 3213 3611 3725 
Q 3209 4238 2522 4238 
z
M 2522 4750 
Q 3503 4750 4090 4092 
Q 4678 3434 4678 2328 
Q 4678 1225 4090 567 
Q 3503 -91 2522 -91 
Q 1538 -91 948 565 
Q 359 1222 359 2328 
Q 359 3434 948 4092 
Q 1538 4750 2522 4750 
z
" transform="scale(0.015625)"/>
     </defs>
     <use xlink:href="#DejaVuSans-41"/>
     <use xlink:href="#DejaVuSans-4b" x="68.408203"/>
     <use xlink:href="#DejaVuSans-4f" x="128.484375"/>
    </g>
   </g>
   <g id="line2d_28">
    <path d="M 481.190625 451.8495 
L 491.190625 451.8495 
L 501.190625 451.8495 
" style="fill: none; stroke: #ffda00; stroke-width: 2; stroke-linecap: square"/>
   </g>
   <g id="text_17">
    <!-- FOCUS -->
    <g transform="translate(509.190625 455.3495) scale(0.1 -0.1)">
     <defs>
      <path id="DejaVuSans-46" d="M 628 4666 
L 3309 4666 
L 3309 4134 
L 1259 4134 
L 1259 2759 
L 3109 2759 
L 3109 2228 
L 1259 2228 
L 1259 0 
L 628 0 
L 628 4666 
z
" transform="scale(0.015625)"/>
      <path id="DejaVuSans-43" d="M 4122 4306 
L 4122 3641 
Q 3803 3938 3442 4084 
Q 3081 4231 2675 4231 
Q 1875 4231 1450 3742 
Q 1025 3253 1025 2328 
Q 1025 1406 1450 917 
Q 1875 428 2675 428 
Q 3081 428 3442 575 
Q 3803 722 4122 1019 
L 4122 359 
Q 3791 134 3420 21 
Q 3050 -91 2638 -91 
Q 1578 -91 968 557 
Q 359 1206 359 2328 
Q 359 3453 968 4101 
Q 1578 4750 2638 4750 
Q 3056 4750 3426 4639 
Q 3797 4528 4122 4306 
z
" transform="scale(0.015625)"/>
      <path id="DejaVuSans-55" d="M 556 4666 
L 1191 4666 
L 1191 1831 
Q 1191 1081 1462 751 
Q 1734 422 2344 422 
Q 2950 422 3222 751 
Q 3494 1081 3494 1831 
L 3494 4666 
L 4128 4666 
L 4128 1753 
Q 4128 841 3676 375 
Q 3225 -91 2344 -91 
Q 1459 -91 1007 375 
Q 556 841 556 1753 
L 556 4666 
z
" transform="scale(0.015625)"/>
      <path id="DejaVuSans-53" d="M 3425 4513 
L 3425 3897 
Q 3066 4069 2747 4153 
Q 2428 4238 2131 4238 
Q 1616 4238 1336 4038 
Q 1056 3838 1056 3469 
Q 1056 3159 1242 3001 
Q 1428 2844 1947 2747 
L 2328 2669 
Q 3034 2534 3370 2195 
Q 3706 1856 3706 1288 
Q 3706 609 3251 259 
Q 2797 -91 1919 -91 
Q 1588 -91 1214 -16 
Q 841 59 441 206 
L 441 856 
Q 825 641 1194 531 
Q 1563 422 1919 422 
Q 2459 422 2753 634 
Q 3047 847 3047 1241 
Q 3047 1584 2836 1778 
Q 2625 1972 2144 2069 
L 1759 2144 
Q 1053 2284 737 2584 
Q 422 2884 422 3419 
Q 422 4038 858 4394 
Q 1294 4750 2059 4750 
Q 2388 4750 2728 4690 
Q 3069 4631 3425 4513 
z
" transform="scale(0.015625)"/>
     </defs>
     <use xlink:href="#DejaVuSans-46"/>
     <use xlink:href="#DejaVuSans-4f" x="57.519531"/>
     <use xlink:href="#DejaVuSans-43" x="136.230469"/>
     <use xlink:href="#DejaVuSans-55" x="206.054688"/>
     <use xlink:href="#DejaVuSans-53" x="279.248047"/>
    </g>
   </g>
  </g>
 </g>
 <defs>
  <clipPath id="p131187af28">
   <rect x="45.967188" y="22.318125" width="892.8" height="399.168"/>
  </clipPath>
 </defs>
</svg>
