<?xml version="1.0" encoding="utf-8" standalone="no"?>
<!DOCTYPE svg PUBLIC "-//W3C//DTD SVG 1.1//EN"
  "http://www.w3.org/Graphics/SVG/1.1/DTD/svg11.dtd">
<svg xmlns:xlink="http://www.w3.org/1999/xlink" width="945.967187pt" height="468.629188pt" viewBox="0 0 945.967187 468.629188" xmlns="http://www.w3.org/2000/svg" version="1.1">
 <metadata>
  <rdf:RDF xmlns:dc="http://purl.org/dc/elements/1.1/" xmlns:cc="http://creativecommons.org/ns#" xmlns:rdf="http://www.w3.org/1999/02/22-rdf-syntax-ns#">
   <cc:Work>
    <dc:type rdf:resource="http://purl.org/dc/dcmitype/StillImage"/>
    <dc:date>2023-09-15T20:41:22.966832</dc:date>
    <dc:format>image/svg+xml</dc:format>
    <dc:creator>
     <cc:Agent>
      <dc:title>Matplotlib v3.7.1, https://matplotlib.org/</dc:title>
     </cc:Agent>
    </dc:creator>
   </cc:Work>
  </rdf:RDF>
 </metadata>
 <defs>
  <style type="text/css">*{stroke-linejoin: round; stroke-linecap: butt}</style>
 </defs>
 <g id="figure_1">
  <g id="patch_1">
   <path d="M 0 468.629188 
L 945.967187 468.629188 
L 945.967187 0 
L 0 0 
z
" style="fill: #ffffff"/>
  </g>
  <g id="axes_1">
   <g id="patch_2">
    <path d="M 45.967188 421.486125 
L 938.767187 421.486125 
L 938.767187 22.318125 
L 45.967188 22.318125 
z
" style="fill: #ffffff"/>
   </g>
   <g id="PathCollection_1">
    <defs>
     <path id="m903f4a16e4" d="M 0 1.5 
C 0.397805 1.5 0.77937 1.341951 1.06066 1.06066 
C 1.341951 0.77937 1.5 0.397805 1.5 0 
C 1.5 -0.397805 1.341951 -0.77937 1.06066 -1.06066 
C 0.77937 -1.341951 0.397805 -1.5 0 -1.5 
C -0.397805 -1.5 -0.77937 -1.341951 -1.06066 -1.06066 
C -1.341951 -0.77937 -1.5 -0.397805 -1.5 0 
C -1.5 0.397805 -1.341951 0.77937 -1.06066 1.06066 
C -0.77937 1.341951 -0.397805 1.5 0 1.5 
z
" style="stroke: #007c85"/>
    </defs>
    <g clip-path="url(#pf237b8558b)">
     <use xlink:href="#m903f4a16e4" x="95.648726" y="327.346313" style="fill: #007c85; stroke: #007c85"/>
     <use xlink:href="#m903f4a16e4" x="105.041986" y="346.345266" style="fill: #007c85; stroke: #007c85"/>
     <use xlink:href="#m903f4a16e4" x="128.231597" y="281.748827" style="fill: #007c85; stroke: #007c85"/>
     <use xlink:href="#m903f4a16e4" x="143.789183" y="257.050188" style="fill: #007c85; stroke: #007c85"/>
     <use xlink:href="#m903f4a16e4" x="153.475983" y="245.650816" style="fill: #007c85; stroke: #007c85"/>
     <use xlink:href="#m903f4a16e4" x="158.759691" y="232.351549" style="fill: #007c85; stroke: #007c85"/>
     <use xlink:href="#m903f4a16e4" x="167.272333" y="289.348408" style="fill: #007c85; stroke: #007c85"/>
     <use xlink:href="#m903f4a16e4" x="176.665593" y="234.251444" style="fill: #007c85; stroke: #007c85"/>
     <use xlink:href="#m903f4a16e4" x="187.52655" y="262.749874" style="fill: #007c85; stroke: #007c85"/>
     <use xlink:href="#m903f4a16e4" x="196.332731" y="298.847884" style="fill: #007c85; stroke: #007c85"/>
     <use xlink:href="#m903f4a16e4" x="208.661384" y="276.049141" style="fill: #007c85; stroke: #007c85"/>
     <use xlink:href="#m903f4a16e4" x="223.925432" y="243.750921" style="fill: #007c85; stroke: #007c85"/>
     <use xlink:href="#m903f4a16e4" x="232.731613" y="281.748827" style="fill: #007c85; stroke: #007c85"/>
     <use xlink:href="#m903f4a16e4" x="243.59257" y="230.451654" style="fill: #007c85; stroke: #007c85"/>
     <use xlink:href="#m903f4a16e4" x="251.811672" y="298.847884" style="fill: #007c85; stroke: #007c85"/>
     <use xlink:href="#m903f4a16e4" x="268.836956" y="277.949036" style="fill: #007c85; stroke: #007c85"/>
     <use xlink:href="#m903f4a16e4" x="297.897354" y="289.348408" style="fill: #007c85; stroke: #007c85"/>
     <use xlink:href="#m903f4a16e4" x="309.932468" y="258.950083" style="fill: #007c85; stroke: #007c85"/>
     <use xlink:href="#m903f4a16e4" x="314.922637" y="253.250397" style="fill: #007c85; stroke: #007c85"/>
     <use xlink:href="#m903f4a16e4" x="322.554661" y="296.947989" style="fill: #007c85; stroke: #007c85"/>
     <use xlink:href="#m903f4a16e4" x="331.947921" y="291.248303" style="fill: #007c85; stroke: #007c85"/>
     <use xlink:href="#m903f4a16e4" x="348.973204" y="287.448512" style="fill: #007c85; stroke: #007c85"/>
     <use xlink:href="#m903f4a16e4" x="353.963374" y="323.546523" style="fill: #007c85; stroke: #007c85"/>
     <use xlink:href="#m903f4a16e4" x="363.650173" y="291.248303" style="fill: #007c85; stroke: #007c85"/>
     <use xlink:href="#m903f4a16e4" x="375.391748" y="350.145057" style="fill: #007c85; stroke: #007c85"/>
     <use xlink:href="#m903f4a16e4" x="379.20776" y="277.949036" style="fill: #007c85; stroke: #007c85"/>
     <use xlink:href="#m903f4a16e4" x="401.223212" y="329.246209" style="fill: #007c85; stroke: #007c85"/>
     <use xlink:href="#m903f4a16e4" x="415.900181" y="353.944848" style="fill: #007c85; stroke: #007c85"/>
     <use xlink:href="#m903f4a16e4" x="424.999902" y="403.342125" style="fill: #007c85; stroke: #007c85"/>
     <use xlink:href="#m903f4a16e4" x="427.054677" y="331.146104" style="fill: #007c85; stroke: #007c85"/>
     <use xlink:href="#m903f4a16e4" x="471.672662" y="350.145057" style="fill: #007c85; stroke: #007c85"/>
     <use xlink:href="#m903f4a16e4" x="484.881934" y="388.142963" style="fill: #007c85; stroke: #007c85"/>
    </g>
   </g>
   <g id="PathCollection_2">
    <g clip-path="url(#pf237b8558b)">
     <use xlink:href="#m903f4a16e4" x="527.445142" y="321.646628" style="fill: #007c85; stroke: #007c85"/>
     <use xlink:href="#m903f4a16e4" x="553.276607" y="224.751968" style="fill: #007c85; stroke: #007c85"/>
     <use xlink:href="#m903f4a16e4" x="599.949367" y="165.855214" style="fill: #007c85; stroke: #007c85"/>
     <use xlink:href="#m903f4a16e4" x="615.506954" y="129.757204" style="fill: #007c85; stroke: #007c85"/>
     <use xlink:href="#m903f4a16e4" x="624.019596" y="103.15867" style="fill: #007c85; stroke: #007c85"/>
     <use xlink:href="#m903f4a16e4" x="634.293474" y="112.658146" style="fill: #007c85; stroke: #007c85"/>
     <use xlink:href="#m903f4a16e4" x="643.393194" y="120.257727" style="fill: #007c85; stroke: #007c85"/>
     <use xlink:href="#m903f4a16e4" x="650.731679" y="207.65291" style="fill: #007c85; stroke: #007c85"/>
     <use xlink:href="#m903f4a16e4" x="659.53786" y="196.253539" style="fill: #007c85; stroke: #007c85"/>
     <use xlink:href="#m903f4a16e4" x="669.518199" y="192.453748" style="fill: #007c85; stroke: #007c85"/>
     <use xlink:href="#m903f4a16e4" x="677.737301" y="135.456889" style="fill: #007c85; stroke: #007c85"/>
     <use xlink:href="#m903f4a16e4" x="685.369325" y="188.653957" style="fill: #007c85; stroke: #007c85"/>
     <use xlink:href="#m903f4a16e4" x="696.523821" y="232.351549" style="fill: #007c85; stroke: #007c85"/>
     <use xlink:href="#m903f4a16e4" x="704.742923" y="200.053329" style="fill: #007c85; stroke: #007c85"/>
     <use xlink:href="#m903f4a16e4" x="714.723262" y="179.154481" style="fill: #007c85; stroke: #007c85"/>
     <use xlink:href="#m903f4a16e4" x="723.235904" y="188.653957" style="fill: #007c85; stroke: #007c85"/>
     <use xlink:href="#m903f4a16e4" x="730.867927" y="230.451654" style="fill: #007c85; stroke: #007c85"/>
     <use xlink:href="#m903f4a16e4" x="739.674108" y="251.350502" style="fill: #007c85; stroke: #007c85"/>
     <use xlink:href="#m903f4a16e4" x="749.947986" y="230.451654" style="fill: #007c85; stroke: #007c85"/>
     <use xlink:href="#m903f4a16e4" x="757.58001" y="219.052282" style="fill: #007c85; stroke: #007c85"/>
     <use xlink:href="#m903f4a16e4" x="766.97327" y="192.453748" style="fill: #007c85; stroke: #007c85"/>
     <use xlink:href="#m903f4a16e4" x="778.127766" y="222.852073" style="fill: #007c85; stroke: #007c85"/>
     <use xlink:href="#m903f4a16e4" x="785.46625" y="207.65291" style="fill: #007c85; stroke: #007c85"/>
     <use xlink:href="#m903f4a16e4" x="795.446589" y="188.653957" style="fill: #007c85; stroke: #007c85"/>
     <use xlink:href="#m903f4a16e4" x="802.785073" y="179.154481" style="fill: #007c85; stroke: #007c85"/>
     <use xlink:href="#m903f4a16e4" x="811.591255" y="194.353643" style="fill: #007c85; stroke: #007c85"/>
     <use xlink:href="#m903f4a16e4" x="821.865133" y="179.154481" style="fill: #007c85; stroke: #007c85"/>
     <use xlink:href="#m903f4a16e4" x="830.084235" y="198.153434" style="fill: #007c85; stroke: #007c85"/>
     <use xlink:href="#m903f4a16e4" x="838.303337" y="156.355738" style="fill: #007c85; stroke: #007c85"/>
     <use xlink:href="#m903f4a16e4" x="846.52244" y="258.950083" style="fill: #007c85; stroke: #007c85"/>
     <use xlink:href="#m903f4a16e4" x="855.328621" y="285.548617" style="fill: #007c85; stroke: #007c85"/>
     <use xlink:href="#m903f4a16e4" x="864.428342" y="262.749874" style="fill: #007c85; stroke: #007c85"/>
     <use xlink:href="#m903f4a16e4" x="874.995759" y="238.051235" style="fill: #007c85; stroke: #007c85"/>
     <use xlink:href="#m903f4a16e4" x="878.811771" y="255.150293" style="fill: #007c85; stroke: #007c85"/>
     <use xlink:href="#m903f4a16e4" x="883.214861" y="310.247256" style="fill: #007c85; stroke: #007c85"/>
     <use xlink:href="#m903f4a16e4" x="891.727503" y="317.846837" style="fill: #007c85; stroke: #007c85"/>
    </g>
   </g>
   <g id="PathCollection_3">
    <defs>
     <path id="m6436a99c98" d="M 0 1.5 
C 0.397805 1.5 0.77937 1.341951 1.06066 1.06066 
C 1.341951 0.77937 1.5 0.397805 1.5 0 
C 1.5 -0.397805 1.341951 -0.77937 1.06066 -1.06066 
C 0.77937 -1.341951 0.397805 -1.5 0 -1.5 
C -0.397805 -1.5 -0.77937 -1.341951 -1.06066 -1.06066 
C -1.341951 -0.77937 -1.5 -0.397805 -1.5 0 
C -1.5 0.397805 -1.341951 0.77937 -1.06066 1.06066 
C -0.77937 1.341951 -0.397805 1.5 0 1.5 
z
" style="stroke: #ffda00"/>
    </defs>
    <g clip-path="url(#pf237b8558b)">
     <use xlink:href="#m6436a99c98" x="88.897321" y="127.857308" style="fill: #ffda00; stroke: #ffda00"/>
     <use xlink:href="#m6436a99c98" x="104.748447" y="124.057518" style="fill: #ffda00; stroke: #ffda00"/>
     <use xlink:href="#m6436a99c98" x="117.0771" y="93.659193" style="fill: #ffda00; stroke: #ffda00"/>
     <use xlink:href="#m6436a99c98" x="133.808845" y="234.251444" style="fill: #ffda00; stroke: #ffda00"/>
     <use xlink:href="#m6436a99c98" x="142.321486" y="141.156575" style="fill: #ffda00; stroke: #ffda00"/>
     <use xlink:href="#m6436a99c98" x="157.585534" y="127.857308" style="fill: #ffda00; stroke: #ffda00"/>
     <use xlink:href="#m6436a99c98" x="164.630479" y="181.054376" style="fill: #ffda00; stroke: #ffda00"/>
     <use xlink:href="#m6436a99c98" x="181.949302" y="110.758251" style="fill: #ffda00; stroke: #ffda00"/>
     <use xlink:href="#m6436a99c98" x="187.52655" y="116.457937" style="fill: #ffda00; stroke: #ffda00"/>
     <use xlink:href="#m6436a99c98" x="203.084136" y="129.757204" style="fill: #ffda00; stroke: #ffda00"/>
     <use xlink:href="#m6436a99c98" x="219.815881" y="108.858355" style="fill: #ffda00; stroke: #ffda00"/>
     <use xlink:href="#m6436a99c98" x="233.318692" y="135.456889" style="fill: #ffda00; stroke: #ffda00"/>
     <use xlink:href="#m6436a99c98" x="250.343975" y="141.156575" style="fill: #ffda00; stroke: #ffda00"/>
     <use xlink:href="#m6436a99c98" x="257.095381" y="118.357832" style="fill: #ffda00; stroke: #ffda00"/>
     <use xlink:href="#m6436a99c98" x="267.075719" y="120.257727" style="fill: #ffda00; stroke: #ffda00"/>
     <use xlink:href="#m6436a99c98" x="289.384712" y="110.758251" style="fill: #ffda00; stroke: #ffda00"/>
     <use xlink:href="#m6436a99c98" x="302.300444" y="86.059612" style="fill: #ffda00; stroke: #ffda00"/>
     <use xlink:href="#m6436a99c98" x="316.390334" y="186.754062" style="fill: #ffda00; stroke: #ffda00"/>
     <use xlink:href="#m6436a99c98" x="328.425448" y="181.054376" style="fill: #ffda00; stroke: #ffda00"/>
     <use xlink:href="#m6436a99c98" x="345.744271" y="241.851026" style="fill: #ffda00; stroke: #ffda00"/>
     <use xlink:href="#m6436a99c98" x="359.540622" y="220.952177" style="fill: #ffda00; stroke: #ffda00"/>
     <use xlink:href="#m6436a99c98" x="374.21759" y="274.149245" style="fill: #ffda00; stroke: #ffda00"/>
     <use xlink:href="#m6436a99c98" x="381.556075" y="260.849978" style="fill: #ffda00; stroke: #ffda00"/>
     <use xlink:href="#m6436a99c98" x="394.765346" y="272.24935" style="fill: #ffda00; stroke: #ffda00"/>
     <use xlink:href="#m6436a99c98" x="405.039224" y="363.444324" style="fill: #ffda00; stroke: #ffda00"/>
     <use xlink:href="#m6436a99c98" x="412.671248" y="171.5549" style="fill: #ffda00; stroke: #ffda00"/>
     <use xlink:href="#m6436a99c98" x="418.835575" y="220.952177" style="fill: #ffda00; stroke: #ffda00"/>
     <use xlink:href="#m6436a99c98" x="435.27378" y="249.450607" style="fill: #ffda00; stroke: #ffda00"/>
     <use xlink:href="#m6436a99c98" x="439.97041" y="287.448512" style="fill: #ffda00; stroke: #ffda00"/>
     <use xlink:href="#m6436a99c98" x="452.592603" y="298.847884" style="fill: #ffda00; stroke: #ffda00"/>
     <use xlink:href="#m6436a99c98" x="456.115075" y="266.549664" style="fill: #ffda00; stroke: #ffda00"/>
     <use xlink:href="#m6436a99c98" x="464.627717" y="285.548617" style="fill: #ffda00; stroke: #ffda00"/>
     <use xlink:href="#m6436a99c98" x="474.608055" y="253.250397" style="fill: #ffda00; stroke: #ffda00"/>
     <use xlink:href="#m6436a99c98" x="479.011146" y="226.651863" style="fill: #ffda00; stroke: #ffda00"/>
     <use xlink:href="#m6436a99c98" x="488.697945" y="285.548617" style="fill: #ffda00; stroke: #ffda00"/>
     <use xlink:href="#m6436a99c98" x="499.852441" y="258.950083" style="fill: #ffda00; stroke: #ffda00"/>
     <use xlink:href="#m6436a99c98" x="501.613678" y="289.348408" style="fill: #ffda00; stroke: #ffda00"/>
     <use xlink:href="#m6436a99c98" x="508.071544" y="325.446418" style="fill: #ffda00; stroke: #ffda00"/>
    </g>
   </g>
   <g id="PathCollection_4">
    <g clip-path="url(#pf237b8558b)">
     <use xlink:href="#m6436a99c98" x="528.032221" y="264.649769" style="fill: #ffda00; stroke: #ffda00"/>
     <use xlink:href="#m6436a99c98" x="536.838402" y="173.454795" style="fill: #ffda00; stroke: #ffda00"/>
     <use xlink:href="#m6436a99c98" x="546.818741" y="200.053329" style="fill: #ffda00; stroke: #ffda00"/>
     <use xlink:href="#m6436a99c98" x="567.366497" y="152.555947" style="fill: #ffda00; stroke: #ffda00"/>
     <use xlink:href="#m6436a99c98" x="579.98869" y="196.253539" style="fill: #ffda00; stroke: #ffda00"/>
     <use xlink:href="#m6436a99c98" x="592.023804" y="154.455842" style="fill: #ffda00; stroke: #ffda00"/>
     <use xlink:href="#m6436a99c98" x="597.894592" y="181.054376" style="fill: #ffda00; stroke: #ffda00"/>
     <use xlink:href="#m6436a99c98" x="608.16847" y="169.655005" style="fill: #ffda00; stroke: #ffda00"/>
     <use xlink:href="#m6436a99c98" x="618.735887" y="220.952177" style="fill: #ffda00; stroke: #ffda00"/>
     <use xlink:href="#m6436a99c98" x="631.064541" y="198.153434" style="fill: #ffda00; stroke: #ffda00"/>
     <use xlink:href="#m6436a99c98" x="643.393194" y="129.757204" style="fill: #ffda00; stroke: #ffda00"/>
     <use xlink:href="#m6436a99c98" x="649.557521" y="163.955319" style="fill: #ffda00; stroke: #ffda00"/>
     <use xlink:href="#m6436a99c98" x="676.269604" y="106.95846" style="fill: #ffda00; stroke: #ffda00"/>
     <use xlink:href="#m6436a99c98" x="690.653033" y="165.855214" style="fill: #ffda00; stroke: #ffda00"/>
     <use xlink:href="#m6436a99c98" x="698.578596" y="148.756156" style="fill: #ffda00; stroke: #ffda00"/>
     <use xlink:href="#m6436a99c98" x="717.365116" y="205.753015" style="fill: #ffda00; stroke: #ffda00"/>
     <use xlink:href="#m6436a99c98" x="727.345455" y="179.154481" style="fill: #ffda00; stroke: #ffda00"/>
     <use xlink:href="#m6436a99c98" x="737.912872" y="226.651863" style="fill: #ffda00; stroke: #ffda00"/>
     <use xlink:href="#m6436a99c98" x="754.351077" y="200.053329" style="fill: #ffda00; stroke: #ffda00"/>
     <use xlink:href="#m6436a99c98" x="761.983101" y="211.452701" style="fill: #ffda00; stroke: #ffda00"/>
     <use xlink:href="#m6436a99c98" x="789.282262" y="215.252491" style="fill: #ffda00; stroke: #ffda00"/>
     <use xlink:href="#m6436a99c98" x="801.610916" y="219.052282" style="fill: #ffda00; stroke: #ffda00"/>
     <use xlink:href="#m6436a99c98" x="809.830018" y="156.355738" style="fill: #ffda00; stroke: #ffda00"/>
     <use xlink:href="#m6436a99c98" x="814.233109" y="289.348408" style="fill: #ffda00; stroke: #ffda00"/>
     <use xlink:href="#m6436a99c98" x="828.322999" y="253.250397" style="fill: #ffda00; stroke: #ffda00"/>
     <use xlink:href="#m6436a99c98" x="840.651652" y="162.055423" style="fill: #ffda00; stroke: #ffda00"/>
     <use xlink:href="#m6436a99c98" x="850.92553" y="184.854167" style="fill: #ffda00; stroke: #ffda00"/>
     <use xlink:href="#m6436a99c98" x="861.199408" y="196.253539" style="fill: #ffda00; stroke: #ffda00"/>
     <use xlink:href="#m6436a99c98" x="869.418511" y="165.855214" style="fill: #ffda00; stroke: #ffda00"/>
     <use xlink:href="#m6436a99c98" x="877.931153" y="247.550711" style="fill: #ffda00; stroke: #ffda00"/>
     <use xlink:href="#m6436a99c98" x="883.80194" y="40.462125" style="fill: #ffda00; stroke: #ffda00"/>
    </g>
   </g>
   <g id="matplotlib.axis_1">
    <g id="xtick_1">
     <g id="line2d_1">
      <defs>
       <path id="m07a0753fd3" d="M 0 0 
L 0 3.5 
" style="stroke: #000000; stroke-width: 0.8"/>
      </defs>
      <g>
       <use xlink:href="#m07a0753fd3" x="67.762486" y="421.486125" style="stroke: #000000; stroke-width: 0.8"/>
      </g>
     </g>
     <g id="text_1">
      <!-- 2016 -->
      <g transform="translate(55.037486 436.084563) scale(0.1 -0.1)">
       <defs>
        <path id="DejaVuSans-32" d="M 1228 531 
L 3431 531 
L 3431 0 
L 469 0 
L 469 531 
Q 828 903 1448 1529 
Q 2069 2156 2228 2338 
Q 2531 2678 2651 2914 
Q 2772 3150 2772 3378 
Q 2772 3750 2511 3984 
Q 2250 4219 1831 4219 
Q 1534 4219 1204 4116 
Q 875 4013 500 3803 
L 500 4441 
Q 881 4594 1212 4672 
Q 1544 4750 1819 4750 
Q 2544 4750 2975 4387 
Q 3406 4025 3406 3419 
Q 3406 3131 3298 2873 
Q 3191 2616 2906 2266 
Q 2828 2175 2409 1742 
Q 1991 1309 1228 531 
z
" transform="scale(0.015625)"/>
        <path id="DejaVuSans-30" d="M 2034 4250 
Q 1547 4250 1301 3770 
Q 1056 3291 1056 2328 
Q 1056 1369 1301 889 
Q 1547 409 2034 409 
Q 2525 409 2770 889 
Q 3016 1369 3016 2328 
Q 3016 3291 2770 3770 
Q 2525 4250 2034 4250 
z
M 2034 4750 
Q 2819 4750 3233 4129 
Q 3647 3509 3647 2328 
Q 3647 1150 3233 529 
Q 2819 -91 2034 -91 
Q 1250 -91 836 529 
Q 422 1150 422 2328 
Q 422 3509 836 4129 
Q 1250 4750 2034 4750 
z
" transform="scale(0.015625)"/>
        <path id="DejaVuSans-31" d="M 794 531 
L 1825 531 
L 1825 4091 
L 703 3866 
L 703 4441 
L 1819 4666 
L 2450 4666 
L 2450 531 
L 3481 531 
L 3481 0 
L 794 0 
L 794 531 
z
" transform="scale(0.015625)"/>
        <path id="DejaVuSans-36" d="M 2113 2584 
Q 1688 2584 1439 2293 
Q 1191 2003 1191 1497 
Q 1191 994 1439 701 
Q 1688 409 2113 409 
Q 2538 409 2786 701 
Q 3034 994 3034 1497 
Q 3034 2003 2786 2293 
Q 2538 2584 2113 2584 
z
M 3366 4563 
L 3366 3988 
Q 3128 4100 2886 4159 
Q 2644 4219 2406 4219 
Q 1781 4219 1451 3797 
Q 1122 3375 1075 2522 
Q 1259 2794 1537 2939 
Q 1816 3084 2150 3084 
Q 2853 3084 3261 2657 
Q 3669 2231 3669 1497 
Q 3669 778 3244 343 
Q 2819 -91 2113 -91 
Q 1303 -91 875 529 
Q 447 1150 447 2328 
Q 447 3434 972 4092 
Q 1497 4750 2381 4750 
Q 2619 4750 2861 4703 
Q 3103 4656 3366 4563 
z
" transform="scale(0.015625)"/>
       </defs>
       <use xlink:href="#DejaVuSans-32"/>
       <use xlink:href="#DejaVuSans-30" x="63.623047"/>
       <use xlink:href="#DejaVuSans-31" x="127.246094"/>
       <use xlink:href="#DejaVuSans-36" x="190.869141"/>
      </g>
     </g>
    </g>
    <g id="xtick_2">
     <g id="line2d_2">
      <g>
       <use xlink:href="#m07a0753fd3" x="175.197896" y="421.486125" style="stroke: #000000; stroke-width: 0.8"/>
      </g>
     </g>
     <g id="text_2">
      <!-- 2017 -->
      <g transform="translate(162.472896 436.084563) scale(0.1 -0.1)">
       <defs>
        <path id="DejaVuSans-37" d="M 525 4666 
L 3525 4666 
L 3525 4397 
L 1831 0 
L 1172 0 
L 2766 4134 
L 525 4134 
L 525 4666 
z
" transform="scale(0.015625)"/>
       </defs>
       <use xlink:href="#DejaVuSans-32"/>
       <use xlink:href="#DejaVuSans-30" x="63.623047"/>
       <use xlink:href="#DejaVuSans-31" x="127.246094"/>
       <use xlink:href="#DejaVuSans-37" x="190.869141"/>
      </g>
     </g>
    </g>
    <g id="xtick_3">
     <g id="line2d_3">
      <g>
       <use xlink:href="#m07a0753fd3" x="282.339767" y="421.486125" style="stroke: #000000; stroke-width: 0.8"/>
      </g>
     </g>
     <g id="text_3">
      <!-- 2018 -->
      <g transform="translate(269.614767 436.084563) scale(0.1 -0.1)">
       <defs>
        <path id="DejaVuSans-38" d="M 2034 2216 
Q 1584 2216 1326 1975 
Q 1069 1734 1069 1313 
Q 1069 891 1326 650 
Q 1584 409 2034 409 
Q 2484 409 2743 651 
Q 3003 894 3003 1313 
Q 3003 1734 2745 1975 
Q 2488 2216 2034 2216 
z
M 1403 2484 
Q 997 2584 770 2862 
Q 544 3141 544 3541 
Q 544 4100 942 4425 
Q 1341 4750 2034 4750 
Q 2731 4750 3128 4425 
Q 3525 4100 3525 3541 
Q 3525 3141 3298 2862 
Q 3072 2584 2669 2484 
Q 3125 2378 3379 2068 
Q 3634 1759 3634 1313 
Q 3634 634 3220 271 
Q 2806 -91 2034 -91 
Q 1263 -91 848 271 
Q 434 634 434 1313 
Q 434 1759 690 2068 
Q 947 2378 1403 2484 
z
M 1172 3481 
Q 1172 3119 1398 2916 
Q 1625 2713 2034 2713 
Q 2441 2713 2670 2916 
Q 2900 3119 2900 3481 
Q 2900 3844 2670 4047 
Q 2441 4250 2034 4250 
Q 1625 4250 1398 4047 
Q 1172 3844 1172 3481 
z
" transform="scale(0.015625)"/>
       </defs>
       <use xlink:href="#DejaVuSans-32"/>
       <use xlink:href="#DejaVuSans-30" x="63.623047"/>
       <use xlink:href="#DejaVuSans-31" x="127.246094"/>
       <use xlink:href="#DejaVuSans-38" x="190.869141"/>
      </g>
     </g>
    </g>
    <g id="xtick_4">
     <g id="line2d_4">
      <g>
       <use xlink:href="#m07a0753fd3" x="389.481638" y="421.486125" style="stroke: #000000; stroke-width: 0.8"/>
      </g>
     </g>
     <g id="text_4">
      <!-- 2019 -->
      <g transform="translate(376.756638 436.084563) scale(0.1 -0.1)">
       <defs>
        <path id="DejaVuSans-39" d="M 703 97 
L 703 672 
Q 941 559 1184 500 
Q 1428 441 1663 441 
Q 2288 441 2617 861 
Q 2947 1281 2994 2138 
Q 2813 1869 2534 1725 
Q 2256 1581 1919 1581 
Q 1219 1581 811 2004 
Q 403 2428 403 3163 
Q 403 3881 828 4315 
Q 1253 4750 1959 4750 
Q 2769 4750 3195 4129 
Q 3622 3509 3622 2328 
Q 3622 1225 3098 567 
Q 2575 -91 1691 -91 
Q 1453 -91 1209 -44 
Q 966 3 703 97 
z
M 1959 2075 
Q 2384 2075 2632 2365 
Q 2881 2656 2881 3163 
Q 2881 3666 2632 3958 
Q 2384 4250 1959 4250 
Q 1534 4250 1286 3958 
Q 1038 3666 1038 3163 
Q 1038 2656 1286 2365 
Q 1534 2075 1959 2075 
z
" transform="scale(0.015625)"/>
       </defs>
       <use xlink:href="#DejaVuSans-32"/>
       <use xlink:href="#DejaVuSans-30" x="63.623047"/>
       <use xlink:href="#DejaVuSans-31" x="127.246094"/>
       <use xlink:href="#DejaVuSans-39" x="190.869141"/>
      </g>
     </g>
    </g>
    <g id="xtick_5">
     <g id="line2d_5">
      <g>
       <use xlink:href="#m07a0753fd3" x="496.623508" y="421.486125" style="stroke: #000000; stroke-width: 0.8"/>
      </g>
     </g>
     <g id="text_5">
      <!-- 2020 -->
      <g transform="translate(483.898508 436.084563) scale(0.1 -0.1)">
       <use xlink:href="#DejaVuSans-32"/>
       <use xlink:href="#DejaVuSans-30" x="63.623047"/>
       <use xlink:href="#DejaVuSans-32" x="127.246094"/>
       <use xlink:href="#DejaVuSans-30" x="190.869141"/>
      </g>
     </g>
    </g>
    <g id="xtick_6">
     <g id="line2d_6">
      <g>
       <use xlink:href="#m07a0753fd3" x="604.058919" y="421.486125" style="stroke: #000000; stroke-width: 0.8"/>
      </g>
     </g>
     <g id="text_6">
      <!-- 2021 -->
      <g transform="translate(591.333919 436.084563) scale(0.1 -0.1)">
       <use xlink:href="#DejaVuSans-32"/>
       <use xlink:href="#DejaVuSans-30" x="63.623047"/>
       <use xlink:href="#DejaVuSans-32" x="127.246094"/>
       <use xlink:href="#DejaVuSans-31" x="190.869141"/>
      </g>
     </g>
    </g>
    <g id="xtick_7">
     <g id="line2d_7">
      <g>
       <use xlink:href="#m07a0753fd3" x="711.200789" y="421.486125" style="stroke: #000000; stroke-width: 0.8"/>
      </g>
     </g>
     <g id="text_7">
      <!-- 2022 -->
      <g transform="translate(698.475789 436.084563) scale(0.1 -0.1)">
       <use xlink:href="#DejaVuSans-32"/>
       <use xlink:href="#DejaVuSans-30" x="63.623047"/>
       <use xlink:href="#DejaVuSans-32" x="127.246094"/>
       <use xlink:href="#DejaVuSans-32" x="190.869141"/>
      </g>
     </g>
    </g>
    <g id="xtick_8">
     <g id="line2d_8">
      <g>
       <use xlink:href="#m07a0753fd3" x="818.34266" y="421.486125" style="stroke: #000000; stroke-width: 0.8"/>
      </g>
     </g>
     <g id="text_8">
      <!-- 2023 -->
      <g transform="translate(805.61766 436.084563) scale(0.1 -0.1)">
       <defs>
        <path id="DejaVuSans-33" d="M 2597 2516 
Q 3050 2419 3304 2112 
Q 3559 1806 3559 1356 
Q 3559 666 3084 287 
Q 2609 -91 1734 -91 
Q 1441 -91 1130 -33 
Q 819 25 488 141 
L 488 750 
Q 750 597 1062 519 
Q 1375 441 1716 441 
Q 2309 441 2620 675 
Q 2931 909 2931 1356 
Q 2931 1769 2642 2001 
Q 2353 2234 1838 2234 
L 1294 2234 
L 1294 2753 
L 1863 2753 
Q 2328 2753 2575 2939 
Q 2822 3125 2822 3475 
Q 2822 3834 2567 4026 
Q 2313 4219 1838 4219 
Q 1578 4219 1281 4162 
Q 984 4106 628 3988 
L 628 4550 
Q 988 4650 1302 4700 
Q 1616 4750 1894 4750 
Q 2613 4750 3031 4423 
Q 3450 4097 3450 3541 
Q 3450 3153 3228 2886 
Q 3006 2619 2597 2516 
z
" transform="scale(0.015625)"/>
       </defs>
       <use xlink:href="#DejaVuSans-32"/>
       <use xlink:href="#DejaVuSans-30" x="63.623047"/>
       <use xlink:href="#DejaVuSans-32" x="127.246094"/>
       <use xlink:href="#DejaVuSans-33" x="190.869141"/>
      </g>
     </g>
    </g>
    <g id="xtick_9">
     <g id="line2d_9">
      <g>
       <use xlink:href="#m07a0753fd3" x="925.484531" y="421.486125" style="stroke: #000000; stroke-width: 0.8"/>
      </g>
     </g>
     <g id="text_9">
      <!-- 2024 -->
      <g transform="translate(912.759531 436.084563) scale(0.1 -0.1)">
       <defs>
        <path id="DejaVuSans-34" d="M 2419 4116 
L 825 1625 
L 2419 1625 
L 2419 4116 
z
M 2253 4666 
L 3047 4666 
L 3047 1625 
L 3713 1625 
L 3713 1100 
L 3047 1100 
L 3047 0 
L 2419 0 
L 2419 1100 
L 313 1100 
L 313 1709 
L 2253 4666 
z
" transform="scale(0.015625)"/>
       </defs>
       <use xlink:href="#DejaVuSans-32"/>
       <use xlink:href="#DejaVuSans-30" x="63.623047"/>
       <use xlink:href="#DejaVuSans-32" x="127.246094"/>
       <use xlink:href="#DejaVuSans-34" x="190.869141"/>
      </g>
     </g>
    </g>
   </g>
   <g id="matplotlib.axis_2">
    <g id="ytick_1">
     <g id="line2d_10">
      <path d="M 45.967188 405.24202 
L 938.767187 405.24202 
" clip-path="url(#pf237b8558b)" style="fill: none; stroke: #b0b0b0; stroke-opacity: 0.3; stroke-width: 0.8; stroke-linecap: square"/>
     </g>
     <g id="line2d_11">
      <defs>
       <path id="mfff7c85930" d="M 0 0 
L -3.5 0 
" style="stroke: #000000; stroke-width: 0.8"/>
      </defs>
      <g>
       <use xlink:href="#mfff7c85930" x="45.967188" y="405.24202" style="stroke: #000000; stroke-width: 0.8"/>
      </g>
     </g>
     <g id="text_10">
      <!-- 5.0% -->
      <g transform="translate(13.5625 409.041239) scale(0.1 -0.1)">
       <defs>
        <path id="DejaVuSans-35" d="M 691 4666 
L 3169 4666 
L 3169 4134 
L 1269 4134 
L 1269 2991 
Q 1406 3038 1543 3061 
Q 1681 3084 1819 3084 
Q 2600 3084 3056 2656 
Q 3513 2228 3513 1497 
Q 3513 744 3044 326 
Q 2575 -91 1722 -91 
Q 1428 -91 1123 -41 
Q 819 9 494 109 
L 494 744 
Q 775 591 1075 516 
Q 1375 441 1709 441 
Q 2250 441 2565 725 
Q 2881 1009 2881 1497 
Q 2881 1984 2565 2268 
Q 2250 2553 1709 2553 
Q 1456 2553 1204 2497 
Q 953 2441 691 2322 
L 691 4666 
z
" transform="scale(0.015625)"/>
        <path id="DejaVuSans-2e" d="M 684 794 
L 1344 794 
L 1344 0 
L 684 0 
L 684 794 
z
" transform="scale(0.015625)"/>
        <path id="DejaVuSans-25" d="M 4653 2053 
Q 4381 2053 4226 1822 
Q 4072 1591 4072 1178 
Q 4072 772 4226 539 
Q 4381 306 4653 306 
Q 4919 306 5073 539 
Q 5228 772 5228 1178 
Q 5228 1588 5073 1820 
Q 4919 2053 4653 2053 
z
M 4653 2450 
Q 5147 2450 5437 2106 
Q 5728 1763 5728 1178 
Q 5728 594 5436 251 
Q 5144 -91 4653 -91 
Q 4153 -91 3862 251 
Q 3572 594 3572 1178 
Q 3572 1766 3864 2108 
Q 4156 2450 4653 2450 
z
M 1428 4353 
Q 1159 4353 1004 4120 
Q 850 3888 850 3481 
Q 850 3069 1003 2837 
Q 1156 2606 1428 2606 
Q 1700 2606 1854 2837 
Q 2009 3069 2009 3481 
Q 2009 3884 1853 4118 
Q 1697 4353 1428 4353 
z
M 4250 4750 
L 4750 4750 
L 1831 -91 
L 1331 -91 
L 4250 4750 
z
M 1428 4750 
Q 1922 4750 2215 4408 
Q 2509 4066 2509 3481 
Q 2509 2891 2217 2550 
Q 1925 2209 1428 2209 
Q 931 2209 642 2551 
Q 353 2894 353 3481 
Q 353 4063 643 4406 
Q 934 4750 1428 4750 
z
" transform="scale(0.015625)"/>
       </defs>
       <use xlink:href="#DejaVuSans-35"/>
       <use xlink:href="#DejaVuSans-2e" x="63.623047"/>
       <use xlink:href="#DejaVuSans-30" x="95.410156"/>
       <use xlink:href="#DejaVuSans-25" x="159.033203"/>
      </g>
     </g>
    </g>
    <g id="ytick_2">
     <g id="line2d_12">
      <path d="M 45.967188 357.744638 
L 938.767187 357.744638 
" clip-path="url(#pf237b8558b)" style="fill: none; stroke: #b0b0b0; stroke-opacity: 0.3; stroke-width: 0.8; stroke-linecap: square"/>
     </g>
     <g id="line2d_13">
      <g>
       <use xlink:href="#mfff7c85930" x="45.967188" y="357.744638" style="stroke: #000000; stroke-width: 0.8"/>
      </g>
     </g>
     <g id="text_11">
      <!-- 7.5% -->
      <g transform="translate(13.5625 361.543857) scale(0.1 -0.1)">
       <use xlink:href="#DejaVuSans-37"/>
       <use xlink:href="#DejaVuSans-2e" x="63.623047"/>
       <use xlink:href="#DejaVuSans-35" x="95.410156"/>
       <use xlink:href="#DejaVuSans-25" x="159.033203"/>
      </g>
     </g>
    </g>
    <g id="ytick_3">
     <g id="line2d_14">
      <path d="M 45.967188 310.247256 
L 938.767187 310.247256 
" clip-path="url(#pf237b8558b)" style="fill: none; stroke: #b0b0b0; stroke-opacity: 0.3; stroke-width: 0.8; stroke-linecap: square"/>
     </g>
     <g id="line2d_15">
      <g>
       <use xlink:href="#mfff7c85930" x="45.967188" y="310.247256" style="stroke: #000000; stroke-width: 0.8"/>
      </g>
     </g>
     <g id="text_12">
      <!-- 10.0% -->
      <g transform="translate(7.2 314.046475) scale(0.1 -0.1)">
       <use xlink:href="#DejaVuSans-31"/>
       <use xlink:href="#DejaVuSans-30" x="63.623047"/>
       <use xlink:href="#DejaVuSans-2e" x="127.246094"/>
       <use xlink:href="#DejaVuSans-30" x="159.033203"/>
       <use xlink:href="#DejaVuSans-25" x="222.65625"/>
      </g>
     </g>
    </g>
    <g id="ytick_4">
     <g id="line2d_16">
      <path d="M 45.967188 262.749874 
L 938.767187 262.749874 
" clip-path="url(#pf237b8558b)" style="fill: none; stroke: #b0b0b0; stroke-opacity: 0.3; stroke-width: 0.8; stroke-linecap: square"/>
     </g>
     <g id="line2d_17">
      <g>
       <use xlink:href="#mfff7c85930" x="45.967188" y="262.749874" style="stroke: #000000; stroke-width: 0.8"/>
      </g>
     </g>
     <g id="text_13">
      <!-- 12.5% -->
      <g transform="translate(7.2 266.549092) scale(0.1 -0.1)">
       <use xlink:href="#DejaVuSans-31"/>
       <use xlink:href="#DejaVuSans-32" x="63.623047"/>
       <use xlink:href="#DejaVuSans-2e" x="127.246094"/>
       <use xlink:href="#DejaVuSans-35" x="159.033203"/>
       <use xlink:href="#DejaVuSans-25" x="222.65625"/>
      </g>
     </g>
    </g>
    <g id="ytick_5">
     <g id="line2d_18">
      <path d="M 45.967188 215.252491 
L 938.767187 215.252491 
" clip-path="url(#pf237b8558b)" style="fill: none; stroke: #b0b0b0; stroke-opacity: 0.3; stroke-width: 0.8; stroke-linecap: square"/>
     </g>
     <g id="line2d_19">
      <g>
       <use xlink:href="#mfff7c85930" x="45.967188" y="215.252491" style="stroke: #000000; stroke-width: 0.8"/>
      </g>
     </g>
     <g id="text_14">
      <!-- 15.0% -->
      <g transform="translate(7.2 219.05171) scale(0.1 -0.1)">
       <use xlink:href="#DejaVuSans-31"/>
       <use xlink:href="#DejaVuSans-35" x="63.623047"/>
       <use xlink:href="#DejaVuSans-2e" x="127.246094"/>
       <use xlink:href="#DejaVuSans-30" x="159.033203"/>
       <use xlink:href="#DejaVuSans-25" x="222.65625"/>
      </g>
     </g>
    </g>
    <g id="ytick_6">
     <g id="line2d_20">
      <path d="M 45.967188 167.755109 
L 938.767187 167.755109 
" clip-path="url(#pf237b8558b)" style="fill: none; stroke: #b0b0b0; stroke-opacity: 0.3; stroke-width: 0.8; stroke-linecap: square"/>
     </g>
     <g id="line2d_21">
      <g>
       <use xlink:href="#mfff7c85930" x="45.967188" y="167.755109" style="stroke: #000000; stroke-width: 0.8"/>
      </g>
     </g>
     <g id="text_15">
      <!-- 17.5% -->
      <g transform="translate(7.2 171.554328) scale(0.1 -0.1)">
       <use xlink:href="#DejaVuSans-31"/>
       <use xlink:href="#DejaVuSans-37" x="63.623047"/>
       <use xlink:href="#DejaVuSans-2e" x="127.246094"/>
       <use xlink:href="#DejaVuSans-35" x="159.033203"/>
       <use xlink:href="#DejaVuSans-25" x="222.65625"/>
      </g>
     </g>
    </g>
    <g id="ytick_7">
     <g id="line2d_22">
      <path d="M 45.967188 120.257727 
L 938.767187 120.257727 
" clip-path="url(#pf237b8558b)" style="fill: none; stroke: #b0b0b0; stroke-opacity: 0.3; stroke-width: 0.8; stroke-linecap: square"/>
     </g>
     <g id="line2d_23">
      <g>
       <use xlink:href="#mfff7c85930" x="45.967188" y="120.257727" style="stroke: #000000; stroke-width: 0.8"/>
      </g>
     </g>
     <g id="text_16">
      <!-- 20.0% -->
      <g transform="translate(7.2 124.056946) scale(0.1 -0.1)">
       <use xlink:href="#DejaVuSans-32"/>
       <use xlink:href="#DejaVuSans-30" x="63.623047"/>
       <use xlink:href="#DejaVuSans-2e" x="127.246094"/>
       <use xlink:href="#DejaVuSans-30" x="159.033203"/>
       <use xlink:href="#DejaVuSans-25" x="222.65625"/>
      </g>
     </g>
    </g>
    <g id="ytick_8">
     <g id="line2d_24">
      <path d="M 45.967188 72.760345 
L 938.767187 72.760345 
" clip-path="url(#pf237b8558b)" style="fill: none; stroke: #b0b0b0; stroke-opacity: 0.3; stroke-width: 0.8; stroke-linecap: square"/>
     </g>
     <g id="line2d_25">
      <g>
       <use xlink:href="#mfff7c85930" x="45.967188" y="72.760345" style="stroke: #000000; stroke-width: 0.8"/>
      </g>
     </g>
     <g id="text_17">
      <!-- 22.5% -->
      <g transform="translate(7.2 76.559564) scale(0.1 -0.1)">
       <use xlink:href="#DejaVuSans-32"/>
       <use xlink:href="#DejaVuSans-32" x="63.623047"/>
       <use xlink:href="#DejaVuSans-2e" x="127.246094"/>
       <use xlink:href="#DejaVuSans-35" x="159.033203"/>
       <use xlink:href="#DejaVuSans-25" x="222.65625"/>
      </g>
     </g>
    </g>
    <g id="ytick_9">
     <g id="line2d_26">
      <path d="M 45.967188 25.262963 
L 938.767187 25.262963 
" clip-path="url(#pf237b8558b)" style="fill: none; stroke: #b0b0b0; stroke-opacity: 0.3; stroke-width: 0.8; stroke-linecap: square"/>
     </g>
     <g id="line2d_27">
      <g>
       <use xlink:href="#mfff7c85930" x="45.967188" y="25.262963" style="stroke: #000000; stroke-width: 0.8"/>
      </g>
     </g>
     <g id="text_18">
      <!-- 25.0% -->
      <g transform="translate(7.2 29.062181) scale(0.1 -0.1)">
       <use xlink:href="#DejaVuSans-32"/>
       <use xlink:href="#DejaVuSans-35" x="63.623047"/>
       <use xlink:href="#DejaVuSans-2e" x="127.246094"/>
       <use xlink:href="#DejaVuSans-30" x="159.033203"/>
       <use xlink:href="#DejaVuSans-25" x="222.65625"/>
      </g>
     </g>
    </g>
   </g>
   <g id="line2d_28">
    <path d="M 86.549006 421.486125 
L 86.549006 22.318125 
" clip-path="url(#pf237b8558b)" style="fill: none; stroke: #000000; stroke-linecap: square"/>
   </g>
   <g id="line2d_29">
    <path d="M 513.942331 421.486125 
L 513.942331 22.318125 
" clip-path="url(#pf237b8558b)" style="fill: none; stroke: #000000; stroke-linecap: square"/>
   </g>
   <g id="line2d_30">
    <path d="M 898.185369 421.486125 
L 898.185369 22.318125 
" clip-path="url(#pf237b8558b)" style="fill: none; stroke: #000000; stroke-linecap: square"/>
   </g>
   <g id="line2d_31">
    <path d="M 95.648726 306.88544 
L 95.942266 306.654122 
L 96.235805 307.316903 
L 102.400132 302.589487 
L 108.564459 298.147059 
L 114.728785 293.981288 
L 120.893112 290.083259 
L 127.057439 286.444545 
L 133.221766 283.057368 
L 139.386093 279.914901 
L 145.550419 277.011182 
L 152.008286 274.220121 
L 158.172612 271.79227 
L 164.336939 269.594115 
L 170.501266 267.626805 
L 176.665593 265.892548 
L 182.82992 264.394697 
L 188.700707 263.193104 
L 194.571495 262.21758 
L 200.148743 261.507579 
L 207.193688 260.861651 
L 212.770936 260.56748 
L 218.348184 260.504369 
L 220.990038 260.557494 
L 221.283577 260.877063 
L 226.567286 261.26332 
L 231.850995 261.874506 
L 236.841164 262.659442 
L 237.134704 263.176715 
L 242.711952 264.293916 
L 243.005491 264.669427 
L 250.931054 266.440472 
L 251.224593 265.117994 
L 251.811672 265.272637 
L 252.105212 266.469542 
L 263.846786 269.39367 
L 264.140326 269.249315 
L 278.817294 273.044153 
L 297.310275 277.780229 
L 305.822917 280.442024 
L 313.74848 283.059126 
L 314.335558 283.395596 
L 326.077133 287.588062 
L 336.644551 291.595184 
L 346.624889 295.617493 
L 356.311689 299.761215 
L 365.998488 304.152625 
L 375.391748 308.653545 
L 384.785008 313.397832 
L 394.178268 318.388423 
L 403.571527 323.627844 
L 412.964787 329.117012 
L 422.651587 335.038422 
L 432.338386 341.221157 
L 442.318725 347.859894 
L 452.299063 354.766736 
L 462.572941 362.151856 
L 472.846819 369.811053 
L 483.414237 377.971051 
L 484.881934 379.126984 
L 484.881934 379.126984 
" clip-path="url(#pf237b8558b)" style="fill: none; stroke: #007c85; stroke-width: 2; stroke-linecap: square"/>
   </g>
   <g id="line2d_32">
    <path d="M 527.445142 317.762688 
L 532.141772 300.5473 
L 536.838402 284.207034 
L 541.241493 269.686311 
L 545.644584 255.940194 
L 551.80891 237.60494 
L 555.918462 226.339792 
L 559.734473 216.500022 
L 563.550485 207.260384 
L 564.431103 205.213336 
L 564.724643 203.365807 
L 568.247115 195.387876 
L 570.008351 191.604518 
L 570.301891 191.645098 
L 570.59543 191.038576 
L 570.88897 192.011051 
L 574.411442 185.073159 
L 574.998521 183.962892 
L 575.29206 184.74992 
L 578.520993 178.972219 
L 578.814533 174.865238 
L 582.043466 169.623489 
L 583.511163 167.385655 
L 583.804702 166.340707 
L 584.391781 165.501555 
L 584.68532 166.165175 
L 587.914253 161.55453 
L 589.38195 159.581177 
L 589.675489 160.383612 
L 592.904422 156.247943 
L 596.133356 152.481483 
L 599.068749 149.374977 
L 601.123525 147.379048 
L 601.417064 148.790955 
L 604.352458 146.26595 
L 607.287852 144.043392 
L 609.929706 142.302466 
L 612.57156 140.809604 
L 615.213415 139.570316 
L 617.56173 138.691601 
L 619.910045 138.033379 
L 622.25836 137.610742 
L 624.313135 137.450646 
L 626.367911 137.50436 
L 628.422686 137.786742 
L 630.477462 138.291379 
L 633.706395 139.365895 
L 634.587013 139.668936 
L 634.880553 138.021878 
L 635.174092 138.120561 
L 635.467631 139.96785 
L 637.522407 140.785584 
L 638.109486 141.071453 
L 638.403025 139.479777 
L 639.870722 140.410523 
L 641.044879 141.399459 
L 641.925498 142.370333 
L 643.099655 143.810633 
L 643.686734 145.419502 
L 643.980273 146.102695 
L 644.273813 147.167785 
L 645.154431 148.59088 
L 645.44797 148.695031 
L 647.209206 150.81232 
L 657.776624 161.021483 
L 658.950781 162.239404 
L 659.24432 162.355927 
L 660.712017 163.947726 
L 661.299096 164.758047 
L 669.224659 173.477522 
L 669.811738 174.347239 
L 677.150222 182.930114 
L 677.443762 182.934668 
L 681.259773 187.153472 
L 684.488706 190.391458 
L 687.71764 193.310623 
L 690.653033 195.690707 
L 699.165675 201.987709 
L 700.926911 202.820732 
L 702.688148 203.397673 
L 704.449384 203.700894 
L 705.623541 203.90267 
L 709.146014 206.482906 
L 712.374947 206.982513 
L 713.549104 207.343024 
L 717.658656 210.220118 
L 718.539274 210.535777 
L 720.594049 211.302933 
L 722.355285 212.192662 
L 728.226073 215.459371 
L 731.161467 217.168996 
L 732.922703 218.127583 
L 735.271018 218.731843 
L 737.325793 219.240144 
L 739.674108 220.131315 
L 740.554727 220.370709 
L 742.903042 220.343344 
L 744.957817 220.264643 
L 747.306132 220.589082 
L 749.067368 220.654718 
L 751.415683 219.971961 
L 753.470459 219.38474 
L 756.699392 219.043201 
L 758.167089 218.795112 
L 762.27664 216.923094 
L 763.450798 216.627939 
L 766.679731 215.848167 
L 769.908664 214.326934 
L 776.660069 211.129239 
L 779.889002 209.271616 
L 780.182542 209.087171 
L 780.476081 209.148003 
L 781.943778 208.01614 
L 783.411475 206.570112 
L 784.879172 205.003592 
L 785.46625 203.964058 
L 785.75979 203.560784 
L 786.053329 203.636388 
L 786.933947 202.911654 
L 787.227487 202.945522 
L 787.814565 202.390938 
L 788.108105 202.002396 
L 788.401644 201.856081 
L 789.282262 200.804614 
L 789.869341 200.290206 
L 791.630577 198.570362 
L 791.924117 193.491418 
L 793.098274 191.785875 
L 793.978892 190.893534 
L 795.740128 189.778468 
L 797.794904 188.760208 
L 799.262601 188.243649 
L 799.84968 188.104065 
L 801.317377 188.064631 
L 804.25277 188.173151 
L 806.601085 188.060675 
L 807.481703 188.073245 
L 816.287885 191.254407 
L 819.516818 192.712416 
L 822.452211 194.276227 
L 825.387605 196.085422 
L 828.322999 198.153579 
L 831.258392 200.491396 
L 834.193786 203.107531 
L 837.12918 206.009014 
L 840.064574 209.201527 
L 843.293507 213.057234 
L 846.52244 217.281368 
L 849.751373 221.879038 
L 852.980306 226.850681 
L 856.502778 232.69931 
L 860.025251 238.987701 
L 863.841263 246.289483 
L 867.657275 254.092577 
L 871.473286 262.388161 
L 875.582838 271.863079 
L 879.692389 281.891714 
L 884.095479 293.248459 
L 888.49857 305.238426 
L 891.727503 314.432682 
L 891.727503 314.432682 
" clip-path="url(#pf237b8558b)" style="fill: none; stroke: #007c85; stroke-width: 2; stroke-linecap: square"/>
   </g>
   <g id="line2d_33">
    <path d="M 88.897321 119.880956 
L 98.290581 121.513454 
L 107.390301 122.874264 
L 116.490022 124.006878 
L 125.296203 124.879235 
L 134.395923 125.552694 
L 143.495644 126.005165 
L 153.182443 126.26013 
L 156.117837 126.293186 
L 156.411376 127.049803 
L 165.804636 127.162642 
L 174.904357 127.049024 
L 182.242841 126.781716 
L 182.53638 124.968544 
L 196.62627 124.242745 
L 208.074306 123.456596 
L 208.367845 123.818781 
L 215.706329 122.960328 
L 217.174026 122.753793 
L 217.467566 123.035376 
L 220.990038 122.35047 
L 221.283577 122.045553 
L 223.631892 121.449288 
L 225.099589 120.938535 
L 225.393129 121.164132 
L 226.567286 120.695299 
L 226.860826 119.60933 
L 227.154365 120.681822 
L 227.741444 120.415779 
L 228.034983 120.450692 
L 228.328522 120.309643 
L 228.622062 119.996565 
L 228.915601 119.854341 
L 229.20914 119.108477 
L 230.089759 118.726903 
L 230.383298 118.123032 
L 231.557455 117.734272 
L 231.850995 118.373538 
L 232.144534 118.47137 
L 232.438074 117.887798 
L 232.731613 117.807822 
L 233.025152 117.366503 
L 233.318692 117.665953 
L 235.373467 117.327577 
L 235.667007 116.967151 
L 238.015322 116.667628 
L 240.363637 116.596636 
L 242.711952 116.751911 
L 245.940885 117.210184 
L 246.234424 117.26187 
L 246.527963 117.830059 
L 250.637515 118.760659 
L 250.931054 118.837117 
L 251.224593 118.745325 
L 253.866448 119.565707 
L 260.911393 122.074427 
L 261.498471 122.498302 
L 269.130495 126.134004 
L 269.424034 126.266102 
L 269.717574 126.246175 
L 271.185271 126.915624 
L 271.47881 126.624873 
L 273.533586 127.644334 
L 277.349597 130.108601 
L 280.87207 132.138266 
L 284.981621 135.449709 
L 286.449318 136.716862 
L 286.742857 137.465917 
L 289.091172 139.311146 
L 296.723196 144.617001 
L 298.777972 146.714386 
L 302.593983 149.591714 
L 303.768141 150.994088 
L 304.06168 150.874092 
L 304.35522 151.190359 
L 304.648759 152.040668 
L 306.997074 154.851217 
L 307.290613 154.175634 
L 308.171232 155.771046 
L 308.464771 156.114542 
L 308.75831 156.94755 
L 311.987243 159.941198 
L 314.629098 162.717442 
L 316.977413 165.50821 
L 317.564491 166.333571 
L 320.206346 170.348089 
L 320.499885 169.500031 
L 321.967582 171.634968 
L 325.490055 178.101881 
L 326.664212 180.455267 
L 328.425448 183.567765 
L 328.718988 182.246901 
L 331.067303 186.471193 
L 332.828539 190.264886 
L 333.122078 189.2973 
L 334.002696 191.124292 
L 334.296236 197.795246 
L 334.589775 191.624317 
L 334.883314 192.405453 
L 335.176854 199.223083 
L 335.470393 200.924018 
L 335.763933 204.123831 
L 336.93809 206.640526 
L 337.818708 208.266769 
L 338.112248 209.251225 
L 339.286405 211.324386 
L 339.873484 212.050731 
L 341.928259 214.979939 
L 342.221799 214.925464 
L 342.515338 215.334646 
L 342.808877 216.291155 
L 343.102417 216.143008 
L 348.679665 223.568442 
L 349.853822 225.036586 
L 352.789216 229.356852 
L 353.376295 230.589392 
L 353.963374 231.616051 
L 354.256913 231.747713 
L 354.843992 232.76042 
L 355.137531 233.790439 
L 355.43107 234.343669 
L 355.72461 235.334406 
L 356.018149 235.858233 
L 356.311689 235.252127 
L 361.008319 239.826064 
L 362.182476 241.680717 
L 362.476015 242.916601 
L 363.943712 244.861617 
L 364.237252 244.658076 
L 366.585567 247.651154 
L 368.933882 250.288707 
L 370.108039 251.385953 
L 370.988657 252.126943 
L 371.282197 252.603715 
L 380.381917 260.55652 
L 382.143153 261.80901 
L 382.436693 261.870464 
L 387.426862 264.98003 
L 388.894559 265.639277 
L 390.655795 266.263702 
L 390.949334 265.948201 
L 391.829953 266.186233 
L 392.123492 266.83876 
L 392.417031 266.327221 
L 396.526583 267.139669 
L 398.581358 267.579938 
L 398.874898 268.131641 
L 399.168437 267.75105 
L 401.223212 268.248543 
L 403.571527 268.556153 
L 407.681079 268.789711 
L 411.79063 269.017192 
L 412.084169 269.516357 
L 418.542035 269.902058 
L 418.835575 269.343275 
L 436.154398 270.045394 
L 444.079961 270.635859 
L 446.134736 270.825225 
L 446.428276 271.235024 
L 454.353839 272.003249 
L 465.214796 273.312272 
L 473.433898 274.76432 
L 481.94654 276.495055 
L 482.533619 276.623226 
L 482.827158 276.512381 
L 490.165642 278.111707 
L 490.459182 278.476406 
L 497.797666 280.417706 
L 504.842611 282.514888 
L 508.071544 283.56277 
L 508.071544 283.56277 
" clip-path="url(#pf237b8558b)" style="fill: none; stroke: #ffda00; stroke-width: 2; stroke-linecap: square"/>
   </g>
   <g id="line2d_34">
    <path d="M 528.032221 212.845607 
L 534.783627 207.168195 
L 541.535032 201.779232 
L 548.286438 196.675729 
L 554.744304 192.063756 
L 561.20217 187.719432 
L 567.660036 183.64831 
L 573.824363 180.024354 
L 579.695151 176.820599 
L 585.565938 173.868591 
L 591.143186 171.30608 
L 596.720434 168.987914 
L 602.004143 167.025956 
L 607.287852 165.300272 
L 612.278021 163.894447 
L 617.26819 162.712231 
L 622.25836 161.758394 
L 627.248529 161.034723 
L 632.238698 160.539224 
L 637.228868 160.264279 
L 642.512576 160.194678 
L 647.502746 160.343293 
L 655.134769 160.69981 
L 659.53786 161.064383 
L 669.811738 161.735498 
L 671.866513 161.816605 
L 672.160053 161.628892 
L 678.32438 161.862378 
L 683.02101 164.004933 
L 684.488706 164.600572 
L 685.956403 164.798513 
L 686.249943 165.064726 
L 688.891797 165.545555 
L 694.175506 168.023316 
L 698.578596 169.132445 
L 699.165675 169.369282 
L 700.046293 169.832041 
L 700.339833 169.722992 
L 704.742923 171.837576 
L 705.036463 171.937617 
L 705.330002 171.848613 
L 707.971856 172.834779 
L 708.265396 173.138521 
L 711.494329 174.56877 
L 714.429722 176.130652 
L 715.016801 176.485173 
L 715.310341 177.014552 
L 720.887589 180.640347 
L 722.942364 182.277144 
L 724.7036 183.929251 
L 724.99714 183.845231 
L 726.758376 185.420251 
L 727.932534 186.744161 
L 728.226073 187.348423 
L 728.519612 186.881435 
L 728.813152 187.906138 
L 729.106691 187.818684 
L 729.40023 188.713698 
L 730.280849 189.782963 
L 730.574388 190.543919 
L 731.455006 191.853195 
L 731.748545 194.09337 
L 732.042085 194.761441 
L 732.335624 194.979973 
L 732.629163 194.634915 
L 732.922703 195.288299 
L 734.09686 195.991737 
L 737.032254 197.915359 
L 737.619333 198.190187 
L 741.141805 200.301284 
L 741.728884 200.532132 
L 744.370738 201.803728 
L 747.893211 203.237453 
L 754.644616 205.653775 
L 759.341246 206.977932 
L 761.396022 207.486287 
L 761.689561 207.306002 
L 766.679731 208.337994 
L 771.6699 209.143514 
L 776.36653 209.684853 
L 781.06316 210.005972 
L 785.75979 210.098688 
L 790.16288 209.972369 
L 794.565971 209.63478 
L 798.969062 209.081573 
L 803.372152 208.309143 
L 807.775243 207.314293 
L 812.178333 206.094253 
L 816.581424 204.647964 
L 816.874963 205.10468 
L 821.278054 203.432114 
L 825.681144 201.528608 
L 830.084235 199.393698 
L 834.780865 196.860519 
L 838.009798 194.965017 
L 838.303337 193.954507 
L 842.999967 190.983362 
L 847.990137 187.553039 
L 852.980306 183.843925 
L 857.970475 179.859184 
L 863.254184 175.343178 
L 868.537893 170.524763 
L 873.821601 165.405818 
L 879.10531 159.988272 
L 883.80194 154.923542 
L 883.80194 154.923542 
" clip-path="url(#pf237b8558b)" style="fill: none; stroke: #ffda00; stroke-width: 2; stroke-linecap: square"/>
   </g>
   <g id="patch_3">
    <path d="M 45.967188 421.486125 
L 45.967188 22.318125 
" style="fill: none; stroke: #000000; stroke-width: 0.8; stroke-linejoin: miter; stroke-linecap: square"/>
   </g>
   <g id="patch_4">
    <path d="M 938.767187 421.486125 
L 938.767187 22.318125 
" style="fill: none; stroke: #000000; stroke-width: 0.8; stroke-linejoin: miter; stroke-linecap: square"/>
   </g>
   <g id="patch_5">
    <path d="M 45.967188 421.486125 
L 938.767187 421.486125 
" style="fill: none; stroke: #000000; stroke-width: 0.8; stroke-linejoin: miter; stroke-linecap: square"/>
   </g>
   <g id="patch_6">
    <path d="M 45.967188 22.318125 
L 938.767187 22.318125 
" style="fill: none; stroke: #000000; stroke-width: 0.8; stroke-linejoin: miter; stroke-linecap: square"/>
   </g>
   <g id="text_19">
    <!-- Wont Participate -->
    <g transform="translate(443.048125 16.318125) scale(0.12 -0.12)">
     <defs>
      <path id="DejaVuSans-57" d="M 213 4666 
L 850 4666 
L 1831 722 
L 2809 4666 
L 3519 4666 
L 4500 722 
L 5478 4666 
L 6119 4666 
L 4947 0 
L 4153 0 
L 3169 4050 
L 2175 0 
L 1381 0 
L 213 4666 
z
" transform="scale(0.015625)"/>
      <path id="DejaVuSans-6f" d="M 1959 3097 
Q 1497 3097 1228 2736 
Q 959 2375 959 1747 
Q 959 1119 1226 758 
Q 1494 397 1959 397 
Q 2419 397 2687 759 
Q 2956 1122 2956 1747 
Q 2956 2369 2687 2733 
Q 2419 3097 1959 3097 
z
M 1959 3584 
Q 2709 3584 3137 3096 
Q 3566 2609 3566 1747 
Q 3566 888 3137 398 
Q 2709 -91 1959 -91 
Q 1206 -91 779 398 
Q 353 888 353 1747 
Q 353 2609 779 3096 
Q 1206 3584 1959 3584 
z
" transform="scale(0.015625)"/>
      <path id="DejaVuSans-6e" d="M 3513 2113 
L 3513 0 
L 2938 0 
L 2938 2094 
Q 2938 2591 2744 2837 
Q 2550 3084 2163 3084 
Q 1697 3084 1428 2787 
Q 1159 2491 1159 1978 
L 1159 0 
L 581 0 
L 581 3500 
L 1159 3500 
L 1159 2956 
Q 1366 3272 1645 3428 
Q 1925 3584 2291 3584 
Q 2894 3584 3203 3211 
Q 3513 2838 3513 2113 
z
" transform="scale(0.015625)"/>
      <path id="DejaVuSans-74" d="M 1172 4494 
L 1172 3500 
L 2356 3500 
L 2356 3053 
L 1172 3053 
L 1172 1153 
Q 1172 725 1289 603 
Q 1406 481 1766 481 
L 2356 481 
L 2356 0 
L 1766 0 
Q 1100 0 847 248 
Q 594 497 594 1153 
L 594 3053 
L 172 3053 
L 172 3500 
L 594 3500 
L 594 4494 
L 1172 4494 
z
" transform="scale(0.015625)"/>
      <path id="DejaVuSans-20" transform="scale(0.015625)"/>
      <path id="DejaVuSans-50" d="M 1259 4147 
L 1259 2394 
L 2053 2394 
Q 2494 2394 2734 2622 
Q 2975 2850 2975 3272 
Q 2975 3691 2734 3919 
Q 2494 4147 2053 4147 
L 1259 4147 
z
M 628 4666 
L 2053 4666 
Q 2838 4666 3239 4311 
Q 3641 3956 3641 3272 
Q 3641 2581 3239 2228 
Q 2838 1875 2053 1875 
L 1259 1875 
L 1259 0 
L 628 0 
L 628 4666 
z
" transform="scale(0.015625)"/>
      <path id="DejaVuSans-61" d="M 2194 1759 
Q 1497 1759 1228 1600 
Q 959 1441 959 1056 
Q 959 750 1161 570 
Q 1363 391 1709 391 
Q 2188 391 2477 730 
Q 2766 1069 2766 1631 
L 2766 1759 
L 2194 1759 
z
M 3341 1997 
L 3341 0 
L 2766 0 
L 2766 531 
Q 2569 213 2275 61 
Q 1981 -91 1556 -91 
Q 1019 -91 701 211 
Q 384 513 384 1019 
Q 384 1609 779 1909 
Q 1175 2209 1959 2209 
L 2766 2209 
L 2766 2266 
Q 2766 2663 2505 2880 
Q 2244 3097 1772 3097 
Q 1472 3097 1187 3025 
Q 903 2953 641 2809 
L 641 3341 
Q 956 3463 1253 3523 
Q 1550 3584 1831 3584 
Q 2591 3584 2966 3190 
Q 3341 2797 3341 1997 
z
" transform="scale(0.015625)"/>
      <path id="DejaVuSans-72" d="M 2631 2963 
Q 2534 3019 2420 3045 
Q 2306 3072 2169 3072 
Q 1681 3072 1420 2755 
Q 1159 2438 1159 1844 
L 1159 0 
L 581 0 
L 581 3500 
L 1159 3500 
L 1159 2956 
Q 1341 3275 1631 3429 
Q 1922 3584 2338 3584 
Q 2397 3584 2469 3576 
Q 2541 3569 2628 3553 
L 2631 2963 
z
" transform="scale(0.015625)"/>
      <path id="DejaVuSans-69" d="M 603 3500 
L 1178 3500 
L 1178 0 
L 603 0 
L 603 3500 
z
M 603 4863 
L 1178 4863 
L 1178 4134 
L 603 4134 
L 603 4863 
z
" transform="scale(0.015625)"/>
      <path id="DejaVuSans-63" d="M 3122 3366 
L 3122 2828 
Q 2878 2963 2633 3030 
Q 2388 3097 2138 3097 
Q 1578 3097 1268 2742 
Q 959 2388 959 1747 
Q 959 1106 1268 751 
Q 1578 397 2138 397 
Q 2388 397 2633 464 
Q 2878 531 3122 666 
L 3122 134 
Q 2881 22 2623 -34 
Q 2366 -91 2075 -91 
Q 1284 -91 818 406 
Q 353 903 353 1747 
Q 353 2603 823 3093 
Q 1294 3584 2113 3584 
Q 2378 3584 2631 3529 
Q 2884 3475 3122 3366 
z
" transform="scale(0.015625)"/>
      <path id="DejaVuSans-70" d="M 1159 525 
L 1159 -1331 
L 581 -1331 
L 581 3500 
L 1159 3500 
L 1159 2969 
Q 1341 3281 1617 3432 
Q 1894 3584 2278 3584 
Q 2916 3584 3314 3078 
Q 3713 2572 3713 1747 
Q 3713 922 3314 415 
Q 2916 -91 2278 -91 
Q 1894 -91 1617 61 
Q 1341 213 1159 525 
z
M 3116 1747 
Q 3116 2381 2855 2742 
Q 2594 3103 2138 3103 
Q 1681 3103 1420 2742 
Q 1159 2381 1159 1747 
Q 1159 1113 1420 752 
Q 1681 391 2138 391 
Q 2594 391 2855 752 
Q 3116 1113 3116 1747 
z
" transform="scale(0.015625)"/>
      <path id="DejaVuSans-65" d="M 3597 1894 
L 3597 1613 
L 953 1613 
Q 991 1019 1311 708 
Q 1631 397 2203 397 
Q 2534 397 2845 478 
Q 3156 559 3463 722 
L 3463 178 
Q 3153 47 2828 -22 
Q 2503 -91 2169 -91 
Q 1331 -91 842 396 
Q 353 884 353 1716 
Q 353 2575 817 3079 
Q 1281 3584 2069 3584 
Q 2775 3584 3186 3129 
Q 3597 2675 3597 1894 
z
M 3022 2063 
Q 3016 2534 2758 2815 
Q 2500 3097 2075 3097 
Q 1594 3097 1305 2825 
Q 1016 2553 972 2059 
L 3022 2063 
z
" transform="scale(0.015625)"/>
     </defs>
     <use xlink:href="#DejaVuSans-57"/>
     <use xlink:href="#DejaVuSans-6f" x="93.001953"/>
     <use xlink:href="#DejaVuSans-6e" x="154.183594"/>
     <use xlink:href="#DejaVuSans-74" x="217.5625"/>
     <use xlink:href="#DejaVuSans-20" x="256.771484"/>
     <use xlink:href="#DejaVuSans-50" x="288.558594"/>
     <use xlink:href="#DejaVuSans-61" x="344.361328"/>
     <use xlink:href="#DejaVuSans-72" x="405.640625"/>
     <use xlink:href="#DejaVuSans-74" x="446.753906"/>
     <use xlink:href="#DejaVuSans-69" x="485.962891"/>
     <use xlink:href="#DejaVuSans-63" x="513.746094"/>
     <use xlink:href="#DejaVuSans-69" x="568.726562"/>
     <use xlink:href="#DejaVuSans-70" x="596.509766"/>
     <use xlink:href="#DejaVuSans-61" x="659.986328"/>
     <use xlink:href="#DejaVuSans-74" x="721.265625"/>
     <use xlink:href="#DejaVuSans-65" x="760.474609"/>
    </g>
   </g>
  </g>
  <g id="legend_1">
   <g id="line2d_35">
    <path d="M 412.470313 451.8495 
L 422.470313 451.8495 
L 432.470313 451.8495 
" style="fill: none; stroke: #007c85; stroke-width: 2; stroke-linecap: square"/>
   </g>
   <g id="text_20">
    <!-- AKO -->
    <g transform="translate(440.470313 455.3495) scale(0.1 -0.1)">
     <defs>
      <path id="DejaVuSans-41" d="M 2188 4044 
L 1331 1722 
L 3047 1722 
L 2188 4044 
z
M 1831 4666 
L 2547 4666 
L 4325 0 
L 3669 0 
L 3244 1197 
L 1141 1197 
L 716 0 
L 50 0 
L 1831 4666 
z
" transform="scale(0.015625)"/>
      <path id="DejaVuSans-4b" d="M 628 4666 
L 1259 4666 
L 1259 2694 
L 3353 4666 
L 4166 4666 
L 1850 2491 
L 4331 0 
L 3500 0 
L 1259 2247 
L 1259 0 
L 628 0 
L 628 4666 
z
" transform="scale(0.015625)"/>
      <path id="DejaVuSans-4f" d="M 2522 4238 
Q 1834 4238 1429 3725 
Q 1025 3213 1025 2328 
Q 1025 1447 1429 934 
Q 1834 422 2522 422 
Q 3209 422 3611 934 
Q 4013 1447 4013 2328 
Q 4013 3213 3611 3725 
Q 3209 4238 2522 4238 
z
M 2522 4750 
Q 3503 4750 4090 4092 
Q 4678 3434 4678 2328 
Q 4678 1225 4090 567 
Q 3503 -91 2522 -91 
Q 1538 -91 948 565 
Q 359 1222 359 2328 
Q 359 3434 948 4092 
Q 1538 4750 2522 4750 
z
" transform="scale(0.015625)"/>
     </defs>
     <use xlink:href="#DejaVuSans-41"/>
     <use xlink:href="#DejaVuSans-4b" x="68.408203"/>
     <use xlink:href="#DejaVuSans-4f" x="128.484375"/>
    </g>
   </g>
   <g id="line2d_36">
    <path d="M 481.190625 451.8495 
L 491.190625 451.8495 
L 501.190625 451.8495 
" style="fill: none; stroke: #ffda00; stroke-width: 2; stroke-linecap: square"/>
   </g>
   <g id="text_21">
    <!-- FOCUS -->
    <g transform="translate(509.190625 455.3495) scale(0.1 -0.1)">
     <defs>
      <path id="DejaVuSans-46" d="M 628 4666 
L 3309 4666 
L 3309 4134 
L 1259 4134 
L 1259 2759 
L 3109 2759 
L 3109 2228 
L 1259 2228 
L 1259 0 
L 628 0 
L 628 4666 
z
" transform="scale(0.015625)"/>
      <path id="DejaVuSans-43" d="M 4122 4306 
L 4122 3641 
Q 3803 3938 3442 4084 
Q 3081 4231 2675 4231 
Q 1875 4231 1450 3742 
Q 1025 3253 1025 2328 
Q 1025 1406 1450 917 
Q 1875 428 2675 428 
Q 3081 428 3442 575 
Q 3803 722 4122 1019 
L 4122 359 
Q 3791 134 3420 21 
Q 3050 -91 2638 -91 
Q 1578 -91 968 557 
Q 359 1206 359 2328 
Q 359 3453 968 4101 
Q 1578 4750 2638 4750 
Q 3056 4750 3426 4639 
Q 3797 4528 4122 4306 
z
" transform="scale(0.015625)"/>
      <path id="DejaVuSans-55" d="M 556 4666 
L 1191 4666 
L 1191 1831 
Q 1191 1081 1462 751 
Q 1734 422 2344 422 
Q 2950 422 3222 751 
Q 3494 1081 3494 1831 
L 3494 4666 
L 4128 4666 
L 4128 1753 
Q 4128 841 3676 375 
Q 3225 -91 2344 -91 
Q 1459 -91 1007 375 
Q 556 841 556 1753 
L 556 4666 
z
" transform="scale(0.015625)"/>
      <path id="DejaVuSans-53" d="M 3425 4513 
L 3425 3897 
Q 3066 4069 2747 4153 
Q 2428 4238 2131 4238 
Q 1616 4238 1336 4038 
Q 1056 3838 1056 3469 
Q 1056 3159 1242 3001 
Q 1428 2844 1947 2747 
L 2328 2669 
Q 3034 2534 3370 2195 
Q 3706 1856 3706 1288 
Q 3706 609 3251 259 
Q 2797 -91 1919 -91 
Q 1588 -91 1214 -16 
Q 841 59 441 206 
L 441 856 
Q 825 641 1194 531 
Q 1563 422 1919 422 
Q 2459 422 2753 634 
Q 3047 847 3047 1241 
Q 3047 1584 2836 1778 
Q 2625 1972 2144 2069 
L 1759 2144 
Q 1053 2284 737 2584 
Q 422 2884 422 3419 
Q 422 4038 858 4394 
Q 1294 4750 2059 4750 
Q 2388 4750 2728 4690 
Q 3069 4631 3425 4513 
z
" transform="scale(0.015625)"/>
     </defs>
     <use xlink:href="#DejaVuSans-46"/>
     <use xlink:href="#DejaVuSans-4f" x="57.519531"/>
     <use xlink:href="#DejaVuSans-43" x="136.230469"/>
     <use xlink:href="#DejaVuSans-55" x="206.054688"/>
     <use xlink:href="#DejaVuSans-53" x="279.248047"/>
    </g>
   </g>
  </g>
 </g>
 <defs>
  <clipPath id="pf237b8558b">
   <rect x="45.967188" y="22.318125" width="892.8" height="399.168"/>
  </clipPath>
 </defs>
</svg>
