<?xml version="1.0" encoding="utf-8" standalone="no"?>
<!DOCTYPE svg PUBLIC "-//W3C//DTD SVG 1.1//EN"
  "http://www.w3.org/Graphics/SVG/1.1/DTD/svg11.dtd">
<!-- Created with matplotlib (https://matplotlib.org/) -->
<svg height="468.629188pt" version="1.1" viewBox="0 0 945.967187 468.629188" width="945.967187pt" xmlns="http://www.w3.org/2000/svg" xmlns:xlink="http://www.w3.org/1999/xlink">
 <metadata>
  <rdf:RDF xmlns:cc="http://creativecommons.org/ns#" xmlns:dc="http://purl.org/dc/elements/1.1/" xmlns:rdf="http://www.w3.org/1999/02/22-rdf-syntax-ns#">
   <cc:Work>
    <dc:type rdf:resource="http://purl.org/dc/dcmitype/StillImage"/>
    <dc:date>2023-07-01T19:16:43.324453</dc:date>
    <dc:format>image/svg+xml</dc:format>
    <dc:creator>
     <cc:Agent>
      <dc:title>Matplotlib v3.3.0, https://matplotlib.org/</dc:title>
     </cc:Agent>
    </dc:creator>
   </cc:Work>
  </rdf:RDF>
 </metadata>
 <defs>
  <style type="text/css">*{stroke-linecap:butt;stroke-linejoin:round;}</style>
 </defs>
 <g id="figure_1">
  <g id="patch_1">
   <path d="M 0 468.629188 
L 945.967187 468.629188 
L 945.967187 0 
L 0 0 
z
" style="fill:none;"/>
  </g>
  <g id="axes_1">
   <g id="patch_2">
    <path d="M 45.967188 413.710125 
L 938.767187 413.710125 
L 938.767187 22.318125 
L 45.967188 22.318125 
z
" style="fill:#ffffff;"/>
   </g>
   <g id="PathCollection_1">
    <defs>
     <path d="M 0 1.5 
C 0.397805 1.5 0.77937 1.341951 1.06066 1.06066 
C 1.341951 0.77937 1.5 0.397805 1.5 0 
C 1.5 -0.397805 1.341951 -0.77937 1.06066 -1.06066 
C 0.77937 -1.341951 0.397805 -1.5 0 -1.5 
C -0.397805 -1.5 -0.77937 -1.341951 -1.06066 -1.06066 
C -1.341951 -0.77937 -1.5 -0.397805 -1.5 0 
C -1.5 0.397805 -1.341951 0.77937 -1.06066 1.06066 
C -0.77937 1.341951 -0.397805 1.5 0 1.5 
z
" id="me50f79efd5" style="stroke:#007c85;"/>
    </defs>
    <g clip-path="url(#pf433914e6d)">
     <use style="fill:#007c85;stroke:#007c85;" x="95.648726" xlink:href="#me50f79efd5" y="310.69541"/>
     <use style="fill:#007c85;stroke:#007c85;" x="105.041986" xlink:href="#me50f79efd5" y="332.001452"/>
     <use style="fill:#007c85;stroke:#007c85;" x="128.231597" xlink:href="#me50f79efd5" y="259.560908"/>
     <use style="fill:#007c85;stroke:#007c85;" x="143.789183" xlink:href="#me50f79efd5" y="231.863053"/>
     <use style="fill:#007c85;stroke:#007c85;" x="153.475983" xlink:href="#me50f79efd5" y="219.079427"/>
     <use style="fill:#007c85;stroke:#007c85;" x="158.759691" xlink:href="#me50f79efd5" y="204.165197"/>
     <use style="fill:#007c85;stroke:#007c85;" x="167.272333" xlink:href="#me50f79efd5" y="268.083325"/>
     <use style="fill:#007c85;stroke:#007c85;" x="176.665593" xlink:href="#me50f79efd5" y="206.295802"/>
     <use style="fill:#007c85;stroke:#007c85;" x="187.52655" xlink:href="#me50f79efd5" y="238.254865"/>
     <use style="fill:#007c85;stroke:#007c85;" x="196.332731" xlink:href="#me50f79efd5" y="278.736346"/>
     <use style="fill:#007c85;stroke:#007c85;" x="208.661384" xlink:href="#me50f79efd5" y="253.169095"/>
     <use style="fill:#007c85;stroke:#007c85;" x="223.925432" xlink:href="#me50f79efd5" y="216.948823"/>
     <use style="fill:#007c85;stroke:#007c85;" x="232.731613" xlink:href="#me50f79efd5" y="259.560908"/>
     <use style="fill:#007c85;stroke:#007c85;" x="243.59257" xlink:href="#me50f79efd5" y="202.034593"/>
     <use style="fill:#007c85;stroke:#007c85;" x="251.811672" xlink:href="#me50f79efd5" y="278.736346"/>
     <use style="fill:#007c85;stroke:#007c85;" x="268.836956" xlink:href="#me50f79efd5" y="255.299699"/>
     <use style="fill:#007c85;stroke:#007c85;" x="297.897354" xlink:href="#me50f79efd5" y="268.083325"/>
     <use style="fill:#007c85;stroke:#007c85;" x="309.932468" xlink:href="#me50f79efd5" y="233.993657"/>
     <use style="fill:#007c85;stroke:#007c85;" x="314.922637" xlink:href="#me50f79efd5" y="227.601844"/>
     <use style="fill:#007c85;stroke:#007c85;" x="322.554661" xlink:href="#me50f79efd5" y="276.605742"/>
     <use style="fill:#007c85;stroke:#007c85;" x="331.947921" xlink:href="#me50f79efd5" y="270.213929"/>
     <use style="fill:#007c85;stroke:#007c85;" x="348.973204" xlink:href="#me50f79efd5" y="265.952721"/>
     <use style="fill:#007c85;stroke:#007c85;" x="353.963374" xlink:href="#me50f79efd5" y="306.434201"/>
     <use style="fill:#007c85;stroke:#007c85;" x="363.650173" xlink:href="#me50f79efd5" y="270.213929"/>
     <use style="fill:#007c85;stroke:#007c85;" x="375.391748" xlink:href="#me50f79efd5" y="336.262661"/>
     <use style="fill:#007c85;stroke:#007c85;" x="379.20776" xlink:href="#me50f79efd5" y="255.299699"/>
     <use style="fill:#007c85;stroke:#007c85;" x="401.223212" xlink:href="#me50f79efd5" y="312.826014"/>
     <use style="fill:#007c85;stroke:#007c85;" x="415.900181" xlink:href="#me50f79efd5" y="340.523869"/>
     <use style="fill:#007c85;stroke:#007c85;" x="424.999902" xlink:href="#me50f79efd5" y="395.91958"/>
     <use style="fill:#007c85;stroke:#007c85;" x="427.054677" xlink:href="#me50f79efd5" y="314.956618"/>
     <use style="fill:#007c85;stroke:#007c85;" x="471.672662" xlink:href="#me50f79efd5" y="336.262661"/>
     <use style="fill:#007c85;stroke:#007c85;" x="484.881934" xlink:href="#me50f79efd5" y="378.874746"/>
    </g>
   </g>
   <g id="PathCollection_2">
    <g clip-path="url(#pf433914e6d)">
     <use style="fill:#007c85;stroke:#007c85;" x="527.445142" xlink:href="#me50f79efd5" y="304.303597"/>
     <use style="fill:#007c85;stroke:#007c85;" x="553.276607" xlink:href="#me50f79efd5" y="195.64278"/>
     <use style="fill:#007c85;stroke:#007c85;" x="599.949367" xlink:href="#me50f79efd5" y="129.594049"/>
     <use style="fill:#007c85;stroke:#007c85;" x="615.506954" xlink:href="#me50f79efd5" y="89.112568"/>
     <use style="fill:#007c85;stroke:#007c85;" x="624.019596" xlink:href="#me50f79efd5" y="59.284109"/>
     <use style="fill:#007c85;stroke:#007c85;" x="634.293474" xlink:href="#me50f79efd5" y="69.93713"/>
     <use style="fill:#007c85;stroke:#007c85;" x="643.393194" xlink:href="#me50f79efd5" y="78.459547"/>
     <use style="fill:#007c85;stroke:#007c85;" x="650.731679" xlink:href="#me50f79efd5" y="176.467342"/>
     <use style="fill:#007c85;stroke:#007c85;" x="659.53786" xlink:href="#me50f79efd5" y="163.683717"/>
     <use style="fill:#007c85;stroke:#007c85;" x="669.518199" xlink:href="#me50f79efd5" y="159.422508"/>
     <use style="fill:#007c85;stroke:#007c85;" x="677.737301" xlink:href="#me50f79efd5" y="95.504381"/>
     <use style="fill:#007c85;stroke:#007c85;" x="685.369325" xlink:href="#me50f79efd5" y="155.1613"/>
     <use style="fill:#007c85;stroke:#007c85;" x="696.523821" xlink:href="#me50f79efd5" y="204.165197"/>
     <use style="fill:#007c85;stroke:#007c85;" x="704.742923" xlink:href="#me50f79efd5" y="167.944925"/>
     <use style="fill:#007c85;stroke:#007c85;" x="714.723262" xlink:href="#me50f79efd5" y="144.508279"/>
     <use style="fill:#007c85;stroke:#007c85;" x="723.235904" xlink:href="#me50f79efd5" y="155.1613"/>
     <use style="fill:#007c85;stroke:#007c85;" x="730.867927" xlink:href="#me50f79efd5" y="202.034593"/>
     <use style="fill:#007c85;stroke:#007c85;" x="739.674108" xlink:href="#me50f79efd5" y="225.47124"/>
     <use style="fill:#007c85;stroke:#007c85;" x="749.947986" xlink:href="#me50f79efd5" y="202.034593"/>
     <use style="fill:#007c85;stroke:#007c85;" x="757.58001" xlink:href="#me50f79efd5" y="189.250968"/>
     <use style="fill:#007c85;stroke:#007c85;" x="766.97327" xlink:href="#me50f79efd5" y="159.422508"/>
     <use style="fill:#007c85;stroke:#007c85;" x="778.127766" xlink:href="#me50f79efd5" y="193.512176"/>
     <use style="fill:#007c85;stroke:#007c85;" x="785.46625" xlink:href="#me50f79efd5" y="176.467342"/>
     <use style="fill:#007c85;stroke:#007c85;" x="795.446589" xlink:href="#me50f79efd5" y="155.1613"/>
     <use style="fill:#007c85;stroke:#007c85;" x="802.785073" xlink:href="#me50f79efd5" y="144.508279"/>
     <use style="fill:#007c85;stroke:#007c85;" x="811.591255" xlink:href="#me50f79efd5" y="161.553112"/>
     <use style="fill:#007c85;stroke:#007c85;" x="821.865133" xlink:href="#me50f79efd5" y="144.508279"/>
     <use style="fill:#007c85;stroke:#007c85;" x="830.084235" xlink:href="#me50f79efd5" y="165.814321"/>
     <use style="fill:#007c85;stroke:#007c85;" x="838.303337" xlink:href="#me50f79efd5" y="118.941028"/>
     <use style="fill:#007c85;stroke:#007c85;" x="846.52244" xlink:href="#me50f79efd5" y="233.993657"/>
     <use style="fill:#007c85;stroke:#007c85;" x="855.328621" xlink:href="#me50f79efd5" y="263.822116"/>
     <use style="fill:#007c85;stroke:#007c85;" x="864.428342" xlink:href="#me50f79efd5" y="238.254865"/>
    </g>
   </g>
   <g id="PathCollection_3">
    <defs>
     <path d="M 0 1.5 
C 0.397805 1.5 0.77937 1.341951 1.06066 1.06066 
C 1.341951 0.77937 1.5 0.397805 1.5 0 
C 1.5 -0.397805 1.341951 -0.77937 1.06066 -1.06066 
C 0.77937 -1.341951 0.397805 -1.5 0 -1.5 
C -0.397805 -1.5 -0.77937 -1.341951 -1.06066 -1.06066 
C -1.341951 -0.77937 -1.5 -0.397805 -1.5 0 
C -1.5 0.397805 -1.341951 0.77937 -1.06066 1.06066 
C -0.77937 1.341951 -0.397805 1.5 0 1.5 
z
" id="m0b037a833f" style="stroke:#ffda00;"/>
    </defs>
    <g clip-path="url(#pf433914e6d)">
     <use style="fill:#ffda00;stroke:#ffda00;" x="88.897321" xlink:href="#m0b037a833f" y="86.981964"/>
     <use style="fill:#ffda00;stroke:#ffda00;" x="104.748447" xlink:href="#m0b037a833f" y="82.720755"/>
     <use style="fill:#ffda00;stroke:#ffda00;" x="117.0771" xlink:href="#m0b037a833f" y="48.631087"/>
     <use style="fill:#ffda00;stroke:#ffda00;" x="133.808845" xlink:href="#m0b037a833f" y="206.295802"/>
     <use style="fill:#ffda00;stroke:#ffda00;" x="142.321486" xlink:href="#m0b037a833f" y="101.896194"/>
     <use style="fill:#ffda00;stroke:#ffda00;" x="157.585534" xlink:href="#m0b037a833f" y="86.981964"/>
     <use style="fill:#ffda00;stroke:#ffda00;" x="164.630479" xlink:href="#m0b037a833f" y="146.638883"/>
     <use style="fill:#ffda00;stroke:#ffda00;" x="181.949302" xlink:href="#m0b037a833f" y="67.806526"/>
     <use style="fill:#ffda00;stroke:#ffda00;" x="187.52655" xlink:href="#m0b037a833f" y="74.198338"/>
     <use style="fill:#ffda00;stroke:#ffda00;" x="203.084136" xlink:href="#m0b037a833f" y="89.112568"/>
     <use style="fill:#ffda00;stroke:#ffda00;" x="219.815881" xlink:href="#m0b037a833f" y="65.675921"/>
     <use style="fill:#ffda00;stroke:#ffda00;" x="233.318692" xlink:href="#m0b037a833f" y="95.504381"/>
     <use style="fill:#ffda00;stroke:#ffda00;" x="250.343975" xlink:href="#m0b037a833f" y="101.896194"/>
     <use style="fill:#ffda00;stroke:#ffda00;" x="257.095381" xlink:href="#m0b037a833f" y="76.328943"/>
     <use style="fill:#ffda00;stroke:#ffda00;" x="267.075719" xlink:href="#m0b037a833f" y="78.459547"/>
     <use style="fill:#ffda00;stroke:#ffda00;" x="289.384712" xlink:href="#m0b037a833f" y="67.806526"/>
     <use style="fill:#ffda00;stroke:#ffda00;" x="302.300444" xlink:href="#m0b037a833f" y="40.10867"/>
     <use style="fill:#ffda00;stroke:#ffda00;" x="316.390334" xlink:href="#m0b037a833f" y="153.030695"/>
     <use style="fill:#ffda00;stroke:#ffda00;" x="328.425448" xlink:href="#m0b037a833f" y="146.638883"/>
     <use style="fill:#ffda00;stroke:#ffda00;" x="345.744271" xlink:href="#m0b037a833f" y="214.818219"/>
     <use style="fill:#ffda00;stroke:#ffda00;" x="359.540622" xlink:href="#m0b037a833f" y="191.381572"/>
     <use style="fill:#ffda00;stroke:#ffda00;" x="374.21759" xlink:href="#m0b037a833f" y="251.038491"/>
     <use style="fill:#ffda00;stroke:#ffda00;" x="381.556075" xlink:href="#m0b037a833f" y="236.124261"/>
     <use style="fill:#ffda00;stroke:#ffda00;" x="394.765346" xlink:href="#m0b037a833f" y="248.907887"/>
     <use style="fill:#ffda00;stroke:#ffda00;" x="405.039224" xlink:href="#m0b037a833f" y="351.17689"/>
     <use style="fill:#ffda00;stroke:#ffda00;" x="412.671248" xlink:href="#m0b037a833f" y="135.985862"/>
     <use style="fill:#ffda00;stroke:#ffda00;" x="418.835575" xlink:href="#m0b037a833f" y="191.381572"/>
     <use style="fill:#ffda00;stroke:#ffda00;" x="435.27378" xlink:href="#m0b037a833f" y="223.340636"/>
     <use style="fill:#ffda00;stroke:#ffda00;" x="439.97041" xlink:href="#m0b037a833f" y="265.952721"/>
     <use style="fill:#ffda00;stroke:#ffda00;" x="452.592603" xlink:href="#m0b037a833f" y="278.736346"/>
     <use style="fill:#ffda00;stroke:#ffda00;" x="456.115075" xlink:href="#m0b037a833f" y="242.516074"/>
     <use style="fill:#ffda00;stroke:#ffda00;" x="464.627717" xlink:href="#m0b037a833f" y="263.822116"/>
     <use style="fill:#ffda00;stroke:#ffda00;" x="474.608055" xlink:href="#m0b037a833f" y="227.601844"/>
     <use style="fill:#ffda00;stroke:#ffda00;" x="479.011146" xlink:href="#m0b037a833f" y="197.773385"/>
     <use style="fill:#ffda00;stroke:#ffda00;" x="488.697945" xlink:href="#m0b037a833f" y="263.822116"/>
     <use style="fill:#ffda00;stroke:#ffda00;" x="499.852441" xlink:href="#m0b037a833f" y="233.993657"/>
     <use style="fill:#ffda00;stroke:#ffda00;" x="501.613678" xlink:href="#m0b037a833f" y="268.083325"/>
     <use style="fill:#ffda00;stroke:#ffda00;" x="508.071544" xlink:href="#m0b037a833f" y="308.564805"/>
    </g>
   </g>
   <g id="PathCollection_4">
    <g clip-path="url(#pf433914e6d)">
     <use style="fill:#ffda00;stroke:#ffda00;" x="528.032221" xlink:href="#m0b037a833f" y="240.38547"/>
     <use style="fill:#ffda00;stroke:#ffda00;" x="536.838402" xlink:href="#m0b037a833f" y="138.116466"/>
     <use style="fill:#ffda00;stroke:#ffda00;" x="546.818741" xlink:href="#m0b037a833f" y="167.944925"/>
     <use style="fill:#ffda00;stroke:#ffda00;" x="567.366497" xlink:href="#m0b037a833f" y="114.679819"/>
     <use style="fill:#ffda00;stroke:#ffda00;" x="579.98869" xlink:href="#m0b037a833f" y="163.683717"/>
     <use style="fill:#ffda00;stroke:#ffda00;" x="592.023804" xlink:href="#m0b037a833f" y="116.810423"/>
     <use style="fill:#ffda00;stroke:#ffda00;" x="597.894592" xlink:href="#m0b037a833f" y="146.638883"/>
     <use style="fill:#ffda00;stroke:#ffda00;" x="608.16847" xlink:href="#m0b037a833f" y="133.855257"/>
     <use style="fill:#ffda00;stroke:#ffda00;" x="618.735887" xlink:href="#m0b037a833f" y="191.381572"/>
     <use style="fill:#ffda00;stroke:#ffda00;" x="631.064541" xlink:href="#m0b037a833f" y="165.814321"/>
     <use style="fill:#ffda00;stroke:#ffda00;" x="643.393194" xlink:href="#m0b037a833f" y="89.112568"/>
     <use style="fill:#ffda00;stroke:#ffda00;" x="649.557521" xlink:href="#m0b037a833f" y="127.463445"/>
     <use style="fill:#ffda00;stroke:#ffda00;" x="676.269604" xlink:href="#m0b037a833f" y="63.545317"/>
     <use style="fill:#ffda00;stroke:#ffda00;" x="690.653033" xlink:href="#m0b037a833f" y="129.594049"/>
     <use style="fill:#ffda00;stroke:#ffda00;" x="698.578596" xlink:href="#m0b037a833f" y="110.418611"/>
     <use style="fill:#ffda00;stroke:#ffda00;" x="717.365116" xlink:href="#m0b037a833f" y="174.336738"/>
     <use style="fill:#ffda00;stroke:#ffda00;" x="727.345455" xlink:href="#m0b037a833f" y="144.508279"/>
     <use style="fill:#ffda00;stroke:#ffda00;" x="737.912872" xlink:href="#m0b037a833f" y="197.773385"/>
     <use style="fill:#ffda00;stroke:#ffda00;" x="754.351077" xlink:href="#m0b037a833f" y="167.944925"/>
     <use style="fill:#ffda00;stroke:#ffda00;" x="761.983101" xlink:href="#m0b037a833f" y="180.728551"/>
     <use style="fill:#ffda00;stroke:#ffda00;" x="789.282262" xlink:href="#m0b037a833f" y="184.989759"/>
     <use style="fill:#ffda00;stroke:#ffda00;" x="801.610916" xlink:href="#m0b037a833f" y="189.250968"/>
     <use style="fill:#ffda00;stroke:#ffda00;" x="809.830018" xlink:href="#m0b037a833f" y="118.941028"/>
     <use style="fill:#ffda00;stroke:#ffda00;" x="814.233109" xlink:href="#m0b037a833f" y="268.083325"/>
     <use style="fill:#ffda00;stroke:#ffda00;" x="828.322999" xlink:href="#m0b037a833f" y="227.601844"/>
     <use style="fill:#ffda00;stroke:#ffda00;" x="840.651652" xlink:href="#m0b037a833f" y="125.33284"/>
     <use style="fill:#ffda00;stroke:#ffda00;" x="850.92553" xlink:href="#m0b037a833f" y="150.900091"/>
     <use style="fill:#ffda00;stroke:#ffda00;" x="861.199408" xlink:href="#m0b037a833f" y="163.683717"/>
     <use style="fill:#ffda00;stroke:#ffda00;" x="869.418511" xlink:href="#m0b037a833f" y="129.594049"/>
    </g>
   </g>
   <g id="matplotlib.axis_1">
    <g id="xtick_1">
     <g id="line2d_1">
      <defs>
       <path d="M 0 0 
L 0 3.5 
" id="md6a963e879" style="stroke:#000000;stroke-width:0.8;"/>
      </defs>
      <g>
       <use style="stroke:#000000;stroke-width:0.8;" x="67.762486" xlink:href="#md6a963e879" y="413.710125"/>
      </g>
     </g>
     <g id="text_1">
      <!-- 2016 -->
      <g transform="translate(55.037486 428.308562)scale(0.1 -0.1)">
       <defs>
        <path d="M 19.1875 8.296875 
L 53.609375 8.296875 
L 53.609375 0 
L 7.328125 0 
L 7.328125 8.296875 
Q 12.9375 14.109375 22.625 23.890625 
Q 32.328125 33.6875 34.8125 36.53125 
Q 39.546875 41.84375 41.421875 45.53125 
Q 43.3125 49.21875 43.3125 52.78125 
Q 43.3125 58.59375 39.234375 62.25 
Q 35.15625 65.921875 28.609375 65.921875 
Q 23.96875 65.921875 18.8125 64.3125 
Q 13.671875 62.703125 7.8125 59.421875 
L 7.8125 69.390625 
Q 13.765625 71.78125 18.9375 73 
Q 24.125 74.21875 28.421875 74.21875 
Q 39.75 74.21875 46.484375 68.546875 
Q 53.21875 62.890625 53.21875 53.421875 
Q 53.21875 48.921875 51.53125 44.890625 
Q 49.859375 40.875 45.40625 35.40625 
Q 44.1875 33.984375 37.640625 27.21875 
Q 31.109375 20.453125 19.1875 8.296875 
z
" id="DejaVuSans-50"/>
        <path d="M 31.78125 66.40625 
Q 24.171875 66.40625 20.328125 58.90625 
Q 16.5 51.421875 16.5 36.375 
Q 16.5 21.390625 20.328125 13.890625 
Q 24.171875 6.390625 31.78125 6.390625 
Q 39.453125 6.390625 43.28125 13.890625 
Q 47.125 21.390625 47.125 36.375 
Q 47.125 51.421875 43.28125 58.90625 
Q 39.453125 66.40625 31.78125 66.40625 
z
M 31.78125 74.21875 
Q 44.046875 74.21875 50.515625 64.515625 
Q 56.984375 54.828125 56.984375 36.375 
Q 56.984375 17.96875 50.515625 8.265625 
Q 44.046875 -1.421875 31.78125 -1.421875 
Q 19.53125 -1.421875 13.0625 8.265625 
Q 6.59375 17.96875 6.59375 36.375 
Q 6.59375 54.828125 13.0625 64.515625 
Q 19.53125 74.21875 31.78125 74.21875 
z
" id="DejaVuSans-48"/>
        <path d="M 12.40625 8.296875 
L 28.515625 8.296875 
L 28.515625 63.921875 
L 10.984375 60.40625 
L 10.984375 69.390625 
L 28.421875 72.90625 
L 38.28125 72.90625 
L 38.28125 8.296875 
L 54.390625 8.296875 
L 54.390625 0 
L 12.40625 0 
z
" id="DejaVuSans-49"/>
        <path d="M 33.015625 40.375 
Q 26.375 40.375 22.484375 35.828125 
Q 18.609375 31.296875 18.609375 23.390625 
Q 18.609375 15.53125 22.484375 10.953125 
Q 26.375 6.390625 33.015625 6.390625 
Q 39.65625 6.390625 43.53125 10.953125 
Q 47.40625 15.53125 47.40625 23.390625 
Q 47.40625 31.296875 43.53125 35.828125 
Q 39.65625 40.375 33.015625 40.375 
z
M 52.59375 71.296875 
L 52.59375 62.3125 
Q 48.875 64.0625 45.09375 64.984375 
Q 41.3125 65.921875 37.59375 65.921875 
Q 27.828125 65.921875 22.671875 59.328125 
Q 17.53125 52.734375 16.796875 39.40625 
Q 19.671875 43.65625 24.015625 45.921875 
Q 28.375 48.1875 33.59375 48.1875 
Q 44.578125 48.1875 50.953125 41.515625 
Q 57.328125 34.859375 57.328125 23.390625 
Q 57.328125 12.15625 50.6875 5.359375 
Q 44.046875 -1.421875 33.015625 -1.421875 
Q 20.359375 -1.421875 13.671875 8.265625 
Q 6.984375 17.96875 6.984375 36.375 
Q 6.984375 53.65625 15.1875 63.9375 
Q 23.390625 74.21875 37.203125 74.21875 
Q 40.921875 74.21875 44.703125 73.484375 
Q 48.484375 72.75 52.59375 71.296875 
z
" id="DejaVuSans-54"/>
       </defs>
       <use xlink:href="#DejaVuSans-50"/>
       <use x="63.623047" xlink:href="#DejaVuSans-48"/>
       <use x="127.246094" xlink:href="#DejaVuSans-49"/>
       <use x="190.869141" xlink:href="#DejaVuSans-54"/>
      </g>
     </g>
    </g>
    <g id="xtick_2">
     <g id="line2d_2">
      <g>
       <use style="stroke:#000000;stroke-width:0.8;" x="175.197896" xlink:href="#md6a963e879" y="413.710125"/>
      </g>
     </g>
     <g id="text_2">
      <!-- 2017 -->
      <g transform="translate(162.472896 428.308562)scale(0.1 -0.1)">
       <defs>
        <path d="M 8.203125 72.90625 
L 55.078125 72.90625 
L 55.078125 68.703125 
L 28.609375 0 
L 18.3125 0 
L 43.21875 64.59375 
L 8.203125 64.59375 
z
" id="DejaVuSans-55"/>
       </defs>
       <use xlink:href="#DejaVuSans-50"/>
       <use x="63.623047" xlink:href="#DejaVuSans-48"/>
       <use x="127.246094" xlink:href="#DejaVuSans-49"/>
       <use x="190.869141" xlink:href="#DejaVuSans-55"/>
      </g>
     </g>
    </g>
    <g id="xtick_3">
     <g id="line2d_3">
      <g>
       <use style="stroke:#000000;stroke-width:0.8;" x="282.339767" xlink:href="#md6a963e879" y="413.710125"/>
      </g>
     </g>
     <g id="text_3">
      <!-- 2018 -->
      <g transform="translate(269.614767 428.308562)scale(0.1 -0.1)">
       <defs>
        <path d="M 31.78125 34.625 
Q 24.75 34.625 20.71875 30.859375 
Q 16.703125 27.09375 16.703125 20.515625 
Q 16.703125 13.921875 20.71875 10.15625 
Q 24.75 6.390625 31.78125 6.390625 
Q 38.8125 6.390625 42.859375 10.171875 
Q 46.921875 13.96875 46.921875 20.515625 
Q 46.921875 27.09375 42.890625 30.859375 
Q 38.875 34.625 31.78125 34.625 
z
M 21.921875 38.8125 
Q 15.578125 40.375 12.03125 44.71875 
Q 8.5 49.078125 8.5 55.328125 
Q 8.5 64.0625 14.71875 69.140625 
Q 20.953125 74.21875 31.78125 74.21875 
Q 42.671875 74.21875 48.875 69.140625 
Q 55.078125 64.0625 55.078125 55.328125 
Q 55.078125 49.078125 51.53125 44.71875 
Q 48 40.375 41.703125 38.8125 
Q 48.828125 37.15625 52.796875 32.3125 
Q 56.78125 27.484375 56.78125 20.515625 
Q 56.78125 9.90625 50.3125 4.234375 
Q 43.84375 -1.421875 31.78125 -1.421875 
Q 19.734375 -1.421875 13.25 4.234375 
Q 6.78125 9.90625 6.78125 20.515625 
Q 6.78125 27.484375 10.78125 32.3125 
Q 14.796875 37.15625 21.921875 38.8125 
z
M 18.3125 54.390625 
Q 18.3125 48.734375 21.84375 45.5625 
Q 25.390625 42.390625 31.78125 42.390625 
Q 38.140625 42.390625 41.71875 45.5625 
Q 45.3125 48.734375 45.3125 54.390625 
Q 45.3125 60.0625 41.71875 63.234375 
Q 38.140625 66.40625 31.78125 66.40625 
Q 25.390625 66.40625 21.84375 63.234375 
Q 18.3125 60.0625 18.3125 54.390625 
z
" id="DejaVuSans-56"/>
       </defs>
       <use xlink:href="#DejaVuSans-50"/>
       <use x="63.623047" xlink:href="#DejaVuSans-48"/>
       <use x="127.246094" xlink:href="#DejaVuSans-49"/>
       <use x="190.869141" xlink:href="#DejaVuSans-56"/>
      </g>
     </g>
    </g>
    <g id="xtick_4">
     <g id="line2d_4">
      <g>
       <use style="stroke:#000000;stroke-width:0.8;" x="389.481638" xlink:href="#md6a963e879" y="413.710125"/>
      </g>
     </g>
     <g id="text_4">
      <!-- 2019 -->
      <g transform="translate(376.756638 428.308562)scale(0.1 -0.1)">
       <defs>
        <path d="M 10.984375 1.515625 
L 10.984375 10.5 
Q 14.703125 8.734375 18.5 7.8125 
Q 22.3125 6.890625 25.984375 6.890625 
Q 35.75 6.890625 40.890625 13.453125 
Q 46.046875 20.015625 46.78125 33.40625 
Q 43.953125 29.203125 39.59375 26.953125 
Q 35.25 24.703125 29.984375 24.703125 
Q 19.046875 24.703125 12.671875 31.3125 
Q 6.296875 37.9375 6.296875 49.421875 
Q 6.296875 60.640625 12.9375 67.421875 
Q 19.578125 74.21875 30.609375 74.21875 
Q 43.265625 74.21875 49.921875 64.515625 
Q 56.59375 54.828125 56.59375 36.375 
Q 56.59375 19.140625 48.40625 8.859375 
Q 40.234375 -1.421875 26.421875 -1.421875 
Q 22.703125 -1.421875 18.890625 -0.6875 
Q 15.09375 0.046875 10.984375 1.515625 
z
M 30.609375 32.421875 
Q 37.25 32.421875 41.125 36.953125 
Q 45.015625 41.5 45.015625 49.421875 
Q 45.015625 57.28125 41.125 61.84375 
Q 37.25 66.40625 30.609375 66.40625 
Q 23.96875 66.40625 20.09375 61.84375 
Q 16.21875 57.28125 16.21875 49.421875 
Q 16.21875 41.5 20.09375 36.953125 
Q 23.96875 32.421875 30.609375 32.421875 
z
" id="DejaVuSans-57"/>
       </defs>
       <use xlink:href="#DejaVuSans-50"/>
       <use x="63.623047" xlink:href="#DejaVuSans-48"/>
       <use x="127.246094" xlink:href="#DejaVuSans-49"/>
       <use x="190.869141" xlink:href="#DejaVuSans-57"/>
      </g>
     </g>
    </g>
    <g id="xtick_5">
     <g id="line2d_5">
      <g>
       <use style="stroke:#000000;stroke-width:0.8;" x="496.623508" xlink:href="#md6a963e879" y="413.710125"/>
      </g>
     </g>
     <g id="text_5">
      <!-- 2020 -->
      <g transform="translate(483.898508 428.308562)scale(0.1 -0.1)">
       <use xlink:href="#DejaVuSans-50"/>
       <use x="63.623047" xlink:href="#DejaVuSans-48"/>
       <use x="127.246094" xlink:href="#DejaVuSans-50"/>
       <use x="190.869141" xlink:href="#DejaVuSans-48"/>
      </g>
     </g>
    </g>
    <g id="xtick_6">
     <g id="line2d_6">
      <g>
       <use style="stroke:#000000;stroke-width:0.8;" x="604.058919" xlink:href="#md6a963e879" y="413.710125"/>
      </g>
     </g>
     <g id="text_6">
      <!-- 2021 -->
      <g transform="translate(591.333919 428.308562)scale(0.1 -0.1)">
       <use xlink:href="#DejaVuSans-50"/>
       <use x="63.623047" xlink:href="#DejaVuSans-48"/>
       <use x="127.246094" xlink:href="#DejaVuSans-50"/>
       <use x="190.869141" xlink:href="#DejaVuSans-49"/>
      </g>
     </g>
    </g>
    <g id="xtick_7">
     <g id="line2d_7">
      <g>
       <use style="stroke:#000000;stroke-width:0.8;" x="711.200789" xlink:href="#md6a963e879" y="413.710125"/>
      </g>
     </g>
     <g id="text_7">
      <!-- 2022 -->
      <g transform="translate(698.475789 428.308562)scale(0.1 -0.1)">
       <use xlink:href="#DejaVuSans-50"/>
       <use x="63.623047" xlink:href="#DejaVuSans-48"/>
       <use x="127.246094" xlink:href="#DejaVuSans-50"/>
       <use x="190.869141" xlink:href="#DejaVuSans-50"/>
      </g>
     </g>
    </g>
    <g id="xtick_8">
     <g id="line2d_8">
      <g>
       <use style="stroke:#000000;stroke-width:0.8;" x="818.34266" xlink:href="#md6a963e879" y="413.710125"/>
      </g>
     </g>
     <g id="text_8">
      <!-- 2023 -->
      <g transform="translate(805.61766 428.308562)scale(0.1 -0.1)">
       <defs>
        <path d="M 40.578125 39.3125 
Q 47.65625 37.796875 51.625 33 
Q 55.609375 28.21875 55.609375 21.1875 
Q 55.609375 10.40625 48.1875 4.484375 
Q 40.765625 -1.421875 27.09375 -1.421875 
Q 22.515625 -1.421875 17.65625 -0.515625 
Q 12.796875 0.390625 7.625 2.203125 
L 7.625 11.71875 
Q 11.71875 9.328125 16.59375 8.109375 
Q 21.484375 6.890625 26.8125 6.890625 
Q 36.078125 6.890625 40.9375 10.546875 
Q 45.796875 14.203125 45.796875 21.1875 
Q 45.796875 27.640625 41.28125 31.265625 
Q 36.765625 34.90625 28.71875 34.90625 
L 20.21875 34.90625 
L 20.21875 43.015625 
L 29.109375 43.015625 
Q 36.375 43.015625 40.234375 45.921875 
Q 44.09375 48.828125 44.09375 54.296875 
Q 44.09375 59.90625 40.109375 62.90625 
Q 36.140625 65.921875 28.71875 65.921875 
Q 24.65625 65.921875 20.015625 65.03125 
Q 15.375 64.15625 9.8125 62.3125 
L 9.8125 71.09375 
Q 15.4375 72.65625 20.34375 73.4375 
Q 25.25 74.21875 29.59375 74.21875 
Q 40.828125 74.21875 47.359375 69.109375 
Q 53.90625 64.015625 53.90625 55.328125 
Q 53.90625 49.265625 50.4375 45.09375 
Q 46.96875 40.921875 40.578125 39.3125 
z
" id="DejaVuSans-51"/>
       </defs>
       <use xlink:href="#DejaVuSans-50"/>
       <use x="63.623047" xlink:href="#DejaVuSans-48"/>
       <use x="127.246094" xlink:href="#DejaVuSans-50"/>
       <use x="190.869141" xlink:href="#DejaVuSans-51"/>
      </g>
     </g>
    </g>
    <g id="xtick_9">
     <g id="line2d_9">
      <g>
       <use style="stroke:#000000;stroke-width:0.8;" x="925.484531" xlink:href="#md6a963e879" y="413.710125"/>
      </g>
     </g>
     <g id="text_9">
      <!-- 2024 -->
      <g transform="translate(912.759531 428.308562)scale(0.1 -0.1)">
       <defs>
        <path d="M 37.796875 64.3125 
L 12.890625 25.390625 
L 37.796875 25.390625 
z
M 35.203125 72.90625 
L 47.609375 72.90625 
L 47.609375 25.390625 
L 58.015625 25.390625 
L 58.015625 17.1875 
L 47.609375 17.1875 
L 47.609375 0 
L 37.796875 0 
L 37.796875 17.1875 
L 4.890625 17.1875 
L 4.890625 26.703125 
z
" id="DejaVuSans-52"/>
       </defs>
       <use xlink:href="#DejaVuSans-50"/>
       <use x="63.623047" xlink:href="#DejaVuSans-48"/>
       <use x="127.246094" xlink:href="#DejaVuSans-50"/>
       <use x="190.869141" xlink:href="#DejaVuSans-52"/>
      </g>
     </g>
    </g>
   </g>
   <g id="matplotlib.axis_2">
    <g id="ytick_1">
     <g id="line2d_10">
      <path clip-path="url(#pf433914e6d)" d="M 45.967188 398.050184 
L 938.767187 398.050184 
" style="fill:none;stroke:#b0b0b0;stroke-linecap:square;stroke-opacity:0.3;stroke-width:0.8;"/>
     </g>
     <g id="line2d_11">
      <defs>
       <path d="M 0 0 
L -3.5 0 
" id="mc31a327788" style="stroke:#000000;stroke-width:0.8;"/>
      </defs>
      <g>
       <use style="stroke:#000000;stroke-width:0.8;" x="45.967188" xlink:href="#mc31a327788" y="398.050184"/>
      </g>
     </g>
     <g id="text_10">
      <!-- 5.0% -->
      <g transform="translate(13.5625 401.849403)scale(0.1 -0.1)">
       <defs>
        <path d="M 10.796875 72.90625 
L 49.515625 72.90625 
L 49.515625 64.59375 
L 19.828125 64.59375 
L 19.828125 46.734375 
Q 21.96875 47.46875 24.109375 47.828125 
Q 26.265625 48.1875 28.421875 48.1875 
Q 40.625 48.1875 47.75 41.5 
Q 54.890625 34.8125 54.890625 23.390625 
Q 54.890625 11.625 47.5625 5.09375 
Q 40.234375 -1.421875 26.90625 -1.421875 
Q 22.3125 -1.421875 17.546875 -0.640625 
Q 12.796875 0.140625 7.71875 1.703125 
L 7.71875 11.625 
Q 12.109375 9.234375 16.796875 8.0625 
Q 21.484375 6.890625 26.703125 6.890625 
Q 35.15625 6.890625 40.078125 11.328125 
Q 45.015625 15.765625 45.015625 23.390625 
Q 45.015625 31 40.078125 35.4375 
Q 35.15625 39.890625 26.703125 39.890625 
Q 22.75 39.890625 18.8125 39.015625 
Q 14.890625 38.140625 10.796875 36.28125 
z
" id="DejaVuSans-53"/>
        <path d="M 10.6875 12.40625 
L 21 12.40625 
L 21 0 
L 10.6875 0 
z
" id="DejaVuSans-46"/>
        <path d="M 72.703125 32.078125 
Q 68.453125 32.078125 66.03125 28.46875 
Q 63.625 24.859375 63.625 18.40625 
Q 63.625 12.0625 66.03125 8.421875 
Q 68.453125 4.78125 72.703125 4.78125 
Q 76.859375 4.78125 79.265625 8.421875 
Q 81.6875 12.0625 81.6875 18.40625 
Q 81.6875 24.8125 79.265625 28.4375 
Q 76.859375 32.078125 72.703125 32.078125 
z
M 72.703125 38.28125 
Q 80.421875 38.28125 84.953125 32.90625 
Q 89.5 27.546875 89.5 18.40625 
Q 89.5 9.28125 84.9375 3.921875 
Q 80.375 -1.421875 72.703125 -1.421875 
Q 64.890625 -1.421875 60.34375 3.921875 
Q 55.8125 9.28125 55.8125 18.40625 
Q 55.8125 27.59375 60.375 32.9375 
Q 64.9375 38.28125 72.703125 38.28125 
z
M 22.3125 68.015625 
Q 18.109375 68.015625 15.6875 64.375 
Q 13.28125 60.75 13.28125 54.390625 
Q 13.28125 47.953125 15.671875 44.328125 
Q 18.0625 40.71875 22.3125 40.71875 
Q 26.5625 40.71875 28.96875 44.328125 
Q 31.390625 47.953125 31.390625 54.390625 
Q 31.390625 60.6875 28.953125 64.34375 
Q 26.515625 68.015625 22.3125 68.015625 
z
M 66.40625 74.21875 
L 74.21875 74.21875 
L 28.609375 -1.421875 
L 20.796875 -1.421875 
z
M 22.3125 74.21875 
Q 30.03125 74.21875 34.609375 68.875 
Q 39.203125 63.53125 39.203125 54.390625 
Q 39.203125 45.171875 34.640625 39.84375 
Q 30.078125 34.515625 22.3125 34.515625 
Q 14.546875 34.515625 10.03125 39.859375 
Q 5.515625 45.21875 5.515625 54.390625 
Q 5.515625 63.484375 10.046875 68.84375 
Q 14.59375 74.21875 22.3125 74.21875 
z
" id="DejaVuSans-37"/>
       </defs>
       <use xlink:href="#DejaVuSans-53"/>
       <use x="63.623047" xlink:href="#DejaVuSans-46"/>
       <use x="95.410156" xlink:href="#DejaVuSans-48"/>
       <use x="159.033203" xlink:href="#DejaVuSans-37"/>
      </g>
     </g>
    </g>
    <g id="ytick_2">
     <g id="line2d_12">
      <path clip-path="url(#pf433914e6d)" d="M 45.967188 344.785078 
L 938.767187 344.785078 
" style="fill:none;stroke:#b0b0b0;stroke-linecap:square;stroke-opacity:0.3;stroke-width:0.8;"/>
     </g>
     <g id="line2d_13">
      <g>
       <use style="stroke:#000000;stroke-width:0.8;" x="45.967188" xlink:href="#mc31a327788" y="344.785078"/>
      </g>
     </g>
     <g id="text_11">
      <!-- 7.5% -->
      <g transform="translate(13.5625 348.584296)scale(0.1 -0.1)">
       <use xlink:href="#DejaVuSans-55"/>
       <use x="63.623047" xlink:href="#DejaVuSans-46"/>
       <use x="95.410156" xlink:href="#DejaVuSans-53"/>
       <use x="159.033203" xlink:href="#DejaVuSans-37"/>
      </g>
     </g>
    </g>
    <g id="ytick_3">
     <g id="line2d_14">
      <path clip-path="url(#pf433914e6d)" d="M 45.967188 291.519971 
L 938.767187 291.519971 
" style="fill:none;stroke:#b0b0b0;stroke-linecap:square;stroke-opacity:0.3;stroke-width:0.8;"/>
     </g>
     <g id="line2d_15">
      <g>
       <use style="stroke:#000000;stroke-width:0.8;" x="45.967188" xlink:href="#mc31a327788" y="291.519971"/>
      </g>
     </g>
     <g id="text_12">
      <!-- 10.0% -->
      <g transform="translate(7.2 295.31919)scale(0.1 -0.1)">
       <use xlink:href="#DejaVuSans-49"/>
       <use x="63.623047" xlink:href="#DejaVuSans-48"/>
       <use x="127.246094" xlink:href="#DejaVuSans-46"/>
       <use x="159.033203" xlink:href="#DejaVuSans-48"/>
       <use x="222.65625" xlink:href="#DejaVuSans-37"/>
      </g>
     </g>
    </g>
    <g id="ytick_4">
     <g id="line2d_16">
      <path clip-path="url(#pf433914e6d)" d="M 45.967188 238.254865 
L 938.767187 238.254865 
" style="fill:none;stroke:#b0b0b0;stroke-linecap:square;stroke-opacity:0.3;stroke-width:0.8;"/>
     </g>
     <g id="line2d_17">
      <g>
       <use style="stroke:#000000;stroke-width:0.8;" x="45.967188" xlink:href="#mc31a327788" y="238.254865"/>
      </g>
     </g>
     <g id="text_13">
      <!-- 12.5% -->
      <g transform="translate(7.2 242.054084)scale(0.1 -0.1)">
       <use xlink:href="#DejaVuSans-49"/>
       <use x="63.623047" xlink:href="#DejaVuSans-50"/>
       <use x="127.246094" xlink:href="#DejaVuSans-46"/>
       <use x="159.033203" xlink:href="#DejaVuSans-53"/>
       <use x="222.65625" xlink:href="#DejaVuSans-37"/>
      </g>
     </g>
    </g>
    <g id="ytick_5">
     <g id="line2d_18">
      <path clip-path="url(#pf433914e6d)" d="M 45.967188 184.989759 
L 938.767187 184.989759 
" style="fill:none;stroke:#b0b0b0;stroke-linecap:square;stroke-opacity:0.3;stroke-width:0.8;"/>
     </g>
     <g id="line2d_19">
      <g>
       <use style="stroke:#000000;stroke-width:0.8;" x="45.967188" xlink:href="#mc31a327788" y="184.989759"/>
      </g>
     </g>
     <g id="text_14">
      <!-- 15.0% -->
      <g transform="translate(7.2 188.788978)scale(0.1 -0.1)">
       <use xlink:href="#DejaVuSans-49"/>
       <use x="63.623047" xlink:href="#DejaVuSans-53"/>
       <use x="127.246094" xlink:href="#DejaVuSans-46"/>
       <use x="159.033203" xlink:href="#DejaVuSans-48"/>
       <use x="222.65625" xlink:href="#DejaVuSans-37"/>
      </g>
     </g>
    </g>
    <g id="ytick_6">
     <g id="line2d_20">
      <path clip-path="url(#pf433914e6d)" d="M 45.967188 131.724653 
L 938.767187 131.724653 
" style="fill:none;stroke:#b0b0b0;stroke-linecap:square;stroke-opacity:0.3;stroke-width:0.8;"/>
     </g>
     <g id="line2d_21">
      <g>
       <use style="stroke:#000000;stroke-width:0.8;" x="45.967188" xlink:href="#mc31a327788" y="131.724653"/>
      </g>
     </g>
     <g id="text_15">
      <!-- 17.5% -->
      <g transform="translate(7.2 135.523872)scale(0.1 -0.1)">
       <use xlink:href="#DejaVuSans-49"/>
       <use x="63.623047" xlink:href="#DejaVuSans-55"/>
       <use x="127.246094" xlink:href="#DejaVuSans-46"/>
       <use x="159.033203" xlink:href="#DejaVuSans-53"/>
       <use x="222.65625" xlink:href="#DejaVuSans-37"/>
      </g>
     </g>
    </g>
    <g id="ytick_7">
     <g id="line2d_22">
      <path clip-path="url(#pf433914e6d)" d="M 45.967188 78.459547 
L 938.767187 78.459547 
" style="fill:none;stroke:#b0b0b0;stroke-linecap:square;stroke-opacity:0.3;stroke-width:0.8;"/>
     </g>
     <g id="line2d_23">
      <g>
       <use style="stroke:#000000;stroke-width:0.8;" x="45.967188" xlink:href="#mc31a327788" y="78.459547"/>
      </g>
     </g>
     <g id="text_16">
      <!-- 20.0% -->
      <g transform="translate(7.2 82.258766)scale(0.1 -0.1)">
       <use xlink:href="#DejaVuSans-50"/>
       <use x="63.623047" xlink:href="#DejaVuSans-48"/>
       <use x="127.246094" xlink:href="#DejaVuSans-46"/>
       <use x="159.033203" xlink:href="#DejaVuSans-48"/>
       <use x="222.65625" xlink:href="#DejaVuSans-37"/>
      </g>
     </g>
    </g>
    <g id="ytick_8">
     <g id="line2d_24">
      <path clip-path="url(#pf433914e6d)" d="M 45.967188 25.194441 
L 938.767187 25.194441 
" style="fill:none;stroke:#b0b0b0;stroke-linecap:square;stroke-opacity:0.3;stroke-width:0.8;"/>
     </g>
     <g id="line2d_25">
      <g>
       <use style="stroke:#000000;stroke-width:0.8;" x="45.967188" xlink:href="#mc31a327788" y="25.194441"/>
      </g>
     </g>
     <g id="text_17">
      <!-- 22.5% -->
      <g transform="translate(7.2 28.993659)scale(0.1 -0.1)">
       <use xlink:href="#DejaVuSans-50"/>
       <use x="63.623047" xlink:href="#DejaVuSans-50"/>
       <use x="127.246094" xlink:href="#DejaVuSans-46"/>
       <use x="159.033203" xlink:href="#DejaVuSans-53"/>
       <use x="222.65625" xlink:href="#DejaVuSans-37"/>
      </g>
     </g>
    </g>
   </g>
   <g id="line2d_26">
    <path clip-path="url(#pf433914e6d)" d="M 86.549006 413.710125 
L 86.549006 22.318125 
" style="fill:none;stroke:#000000;stroke-linecap:square;"/>
   </g>
   <g id="line2d_27">
    <path clip-path="url(#pf433914e6d)" d="M 513.942331 413.710125 
L 513.942331 22.318125 
" style="fill:none;stroke:#000000;stroke-linecap:square;"/>
   </g>
   <g id="line2d_28">
    <path clip-path="url(#pf433914e6d)" d="M 898.185369 413.710125 
L 898.185369 22.318125 
" style="fill:none;stroke:#000000;stroke-linecap:square;"/>
   </g>
   <g id="line2d_29">
    <path clip-path="url(#pf433914e6d)" d="M 95.648726 287.749922 
L 95.942266 287.490515 
L 96.235805 288.233778 
L 102.106592 283.17744 
L 107.97738 278.411356 
L 113.848167 273.927552 
L 119.718955 269.717354 
L 125.589742 265.772506 
L 131.46053 262.085315 
L 137.331317 258.648912 
L 143.495644 255.304024 
L 149.659971 252.223112 
L 155.530758 249.530608 
L 161.401546 247.071909 
L 167.272333 244.847218 
L 173.14312 242.858334 
L 179.013908 241.107711 
L 184.591156 239.669022 
L 190.168404 238.454329 
L 195.745652 237.470331 
L 201.029361 236.758223 
L 208.074306 236.068403 
L 213.358014 235.787648 
L 218.348184 235.736683 
L 220.990038 235.796259 
L 221.283577 236.154634 
L 226.273747 236.557103 
L 231.263916 237.184517 
L 236.254085 238.038431 
L 236.841164 238.153453 
L 237.134704 238.733539 
L 242.711952 239.986404 
L 243.005491 240.407515 
L 250.931054 242.393622 
L 251.224593 240.910552 
L 251.811672 241.083974 
L 252.105212 242.426222 
L 263.846786 245.705434 
L 264.140326 245.54355 
L 277.936676 249.551554 
L 289.97179 252.827556 
L 292.907184 253.689163 
L 299.071511 255.707754 
L 307.877692 258.844529 
L 313.74848 261.03032 
L 314.335558 261.407648 
L 325.490055 265.867376 
L 335.470393 270.089844 
L 344.863653 274.297734 
L 354.256913 278.75197 
L 363.356633 283.31419 
L 372.456354 288.126252 
L 381.556075 293.193274 
L 390.655795 298.518429 
L 399.755516 304.104641 
L 408.855236 309.953555 
L 417.954957 316.065059 
L 427.348217 322.64702 
L 436.741477 329.502228 
L 446.428276 336.853236 
L 456.115075 344.485459 
L 466.095414 352.63803 
L 476.075752 361.078883 
L 484.881934 368.763935 
L 484.881934 368.763935 
" style="fill:none;stroke:#007c85;stroke-linecap:square;stroke-width:2;"/>
   </g>
   <g id="line2d_30">
    <path clip-path="url(#pf433914e6d)" d="M 527.445142 293.121985 
L 532.141772 275.835412 
L 536.838402 259.385682 
L 541.535032 243.767998 
L 545.938123 229.877686 
L 550.341213 216.710133 
L 554.744304 204.261091 
L 558.853855 193.286811 
L 562.963406 182.932425 
L 567.072958 173.195367 
L 570.88897 164.704365 
L 574.704981 156.741505 
L 578.520993 149.304908 
L 582.043466 142.905943 
L 585.565938 136.952677 
L 589.088411 131.444095 
L 590.849647 128.85632 
L 591.143186 125.554219 
L 594.372119 120.879543 
L 597.601052 116.581232 
L 600.829985 112.661721 
L 603.765379 109.430089 
L 606.700773 106.517759 
L 607.581391 105.707037 
L 607.87493 104.636671 
L 610.810324 102.104228 
L 613.452178 100.108472 
L 615.213415 98.932027 
L 615.506954 104.386328 
L 618.148808 103.110998 
L 620.497123 102.224193 
L 622.845438 101.585023 
L 624.900214 101.244035 
L 626.95499 101.123985 
L 627.248529 96.322508 
L 627.835608 96.397528 
L 628.129147 101.161548 
L 630.183923 101.422231 
L 632.238698 101.925916 
L 634.880553 102.836247 
L 635.174092 100.912981 
L 640.75134 103.146442 
L 642.512576 104.139815 
L 643.980273 105.178367 
L 644.273813 104.177879 
L 645.154431 105.052213 
L 645.44797 106.499422 
L 646.622127 107.884689 
L 647.209206 108.752819 
L 647.502746 110.305655 
L 648.089824 111.09082 
L 648.676903 112.870074 
L 648.970442 114.952318 
L 649.263982 113.411563 
L 649.851061 114.776595 
L 650.1446 114.683709 
L 651.318757 116.919559 
L 652.492915 118.502218 
L 654.547691 120.983646 
L 657.189545 123.945027 
L 658.657242 125.921491 
L 661.886175 130.201665 
L 667.169884 136.173379 
L 668.050502 137.243479 
L 668.344041 138.021797 
L 670.985895 141.386462 
L 671.279435 141.193583 
L 671.866513 142.182591 
L 677.737301 149.680711 
L 679.498537 151.760232 
L 681.846852 154.436073 
L 682.140392 154.358392 
L 686.837021 159.557959 
L 690.359494 163.146167 
L 693.881966 166.415361 
L 697.110899 169.13178 
L 700.046293 171.332647 
L 702.688148 173.273456 
L 706.21062 175.947265 
L 708.558935 177.096057 
L 710.613711 177.833152 
L 712.668486 178.324471 
L 713.549104 178.488388 
L 716.778037 180.722223 
L 718.832813 181.903567 
L 722.061746 182.609948 
L 723.235904 183.020949 
L 725.584219 184.156127 
L 727.345455 184.82359 
L 729.69377 185.598586 
L 731.748545 186.506553 
L 732.629163 186.850227 
L 734.683939 187.292114 
L 736.738715 187.663771 
L 740.848266 189.396956 
L 743.196581 189.167392 
L 745.251356 188.954543 
L 747.599671 189.435141 
L 748.773829 189.531942 
L 753.470459 188.282537 
L 755.818774 188.141478 
L 757.58001 187.857241 
L 762.570179 186.085412 
L 765.799113 185.122564 
L 768.734506 184.058279 
L 773.724676 181.862334 
L 774.018215 181.400136 
L 777.540687 179.315638 
L 777.834227 179.133038 
L 778.127766 179.836022 
L 779.595463 179.090443 
L 779.889002 178.719129 
L 781.943778 177.318249 
L 783.705014 175.917815 
L 784.292093 175.320203 
L 784.585632 176.181156 
L 784.879172 170.742885 
L 786.053329 169.520901 
L 786.346869 174.727125 
L 786.933947 174.123918 
L 787.227487 174.700777 
L 787.521026 168.31021 
L 788.401644 167.747434 
L 788.695184 173.348803 
L 788.988723 168.264085 
L 790.16288 167.329182 
L 791.337038 166.697111 
L 792.511195 166.286633 
L 796.914286 166.110177 
L 799.262601 166.341482 
L 799.84968 166.428633 
L 800.143219 166.15443 
L 801.904455 166.454427 
L 802.197995 166.882798 
L 805.133388 167.670773 
L 808.068782 168.689826 
L 810.710636 169.79676 
L 811.004176 167.877162 
L 813.93957 168.74076 
L 814.233109 163.703511 
L 815.700806 164.452631 
L 817.462042 165.593332 
L 819.516818 167.184666 
L 819.810357 167.430547 
L 820.103896 168.935032 
L 820.984514 169.59532 
L 821.278054 174.693483 
L 823.919908 176.643614 
L 824.213448 172.421619 
L 826.561763 174.891466 
L 829.203617 178.03441 
L 831.845471 181.522714 
L 833.900247 184.466539 
L 834.193786 185.611122 
L 836.835641 189.502626 
L 839.771034 194.256084 
L 842.706428 199.455473 
L 845.935361 205.669784 
L 849.164294 212.387481 
L 852.393227 219.601999 
L 855.9157 228.036796 
L 859.438172 237.055882 
L 862.960645 246.662049 
L 864.428342 250.838381 
L 864.428342 250.838381 
" style="fill:none;stroke:#007c85;stroke-linecap:square;stroke-width:2;"/>
   </g>
   <g id="line2d_31">
    <path clip-path="url(#pf433914e6d)" d="M 88.897321 78.037023 
L 97.997041 79.814402 
L 106.803222 81.302966 
L 115.315864 82.51481 
L 123.828506 83.49632 
L 132.341148 84.249157 
L 140.85379 84.782164 
L 149.659971 85.11628 
L 156.117837 85.227907 
L 156.411376 86.076401 
L 165.217557 86.202524 
L 173.730199 86.106604 
L 181.949302 85.79137 
L 182.242841 85.77576 
L 182.53638 83.74241 
L 195.745652 82.98734 
L 207.487227 82.098692 
L 208.074306 82.046863 
L 208.367845 82.453028 
L 215.119251 81.57862 
L 217.174026 81.258716 
L 217.467566 81.574492 
L 220.990038 80.806417 
L 221.283577 80.464473 
L 223.631892 79.795802 
L 225.099589 79.223027 
L 225.393129 79.476018 
L 226.567286 78.950254 
L 226.860826 77.732413 
L 227.154365 78.935141 
L 227.741444 78.636792 
L 228.034983 78.675944 
L 228.328522 78.517767 
L 228.622062 78.166671 
L 228.915601 78.007177 
L 229.20914 77.17074 
L 230.089759 76.742831 
L 230.383298 76.065631 
L 231.557455 75.629662 
L 231.850995 76.346557 
L 232.144534 76.456268 
L 232.438074 75.801832 
L 232.731613 75.712143 
L 233.025152 75.217235 
L 233.318692 75.553048 
L 235.373467 75.173582 
L 235.667007 74.769388 
L 237.721782 74.461379 
L 239.776558 74.350096 
L 242.124873 74.459982 
L 245.353806 74.931567 
L 246.234424 75.099895 
L 246.527963 75.737082 
L 250.637515 76.780686 
L 250.931054 76.866429 
L 251.224593 76.76349 
L 253.866448 77.683493 
L 260.911393 80.496853 
L 261.498471 80.9722 
L 268.836956 84.901692 
L 269.424034 85.197534 
L 269.717574 85.175187 
L 271.185271 85.925929 
L 271.47881 85.599871 
L 273.533586 86.743128 
L 277.349597 89.506637 
L 280.578531 91.529867 
L 284.394542 94.942815 
L 286.449318 96.917355 
L 286.742857 97.75737 
L 289.091172 99.826669 
L 296.723196 105.776827 
L 298.777972 108.128903 
L 302.593983 111.355632 
L 303.768141 112.9283 
L 304.06168 112.793732 
L 304.35522 113.148404 
L 304.648759 114.101969 
L 306.997074 117.25381 
L 307.290613 116.496188 
L 308.171232 118.285335 
L 308.464771 118.670543 
L 308.75831 119.604705 
L 311.693704 122.639493 
L 314.042019 125.347435 
L 316.390334 128.39078 
L 317.564491 130.130494 
L 320.206346 134.632505 
L 320.499885 133.681465 
L 321.967582 136.075652 
L 325.490055 143.327858 
L 326.664212 145.967022 
L 328.425448 149.457478 
L 328.718988 147.976219 
L 331.067303 152.713477 
L 332.828539 156.967848 
L 333.122078 155.882765 
L 334.002696 157.931613 
L 334.296236 165.412637 
L 334.589775 158.492357 
L 334.883314 159.368348 
L 335.176854 167.01386 
L 335.470393 168.921344 
L 335.763933 172.509718 
L 336.93809 175.332022 
L 337.818708 177.155744 
L 338.112248 178.259744 
L 339.286405 180.584654 
L 339.873484 181.399201 
L 341.928259 184.68411 
L 342.221799 184.62302 
L 342.515338 185.08189 
L 342.808877 186.154551 
L 343.102417 185.988413 
L 348.679665 194.315536 
L 349.853822 195.96196 
L 352.789216 200.806847 
L 353.376295 202.189057 
L 353.963374 203.340387 
L 354.256913 203.488036 
L 354.843992 204.623718 
L 355.137531 205.778815 
L 355.43107 206.399225 
L 355.72461 207.51027 
L 356.018149 208.097707 
L 356.311689 207.417999 
L 361.008319 212.54736 
L 362.182476 214.627229 
L 362.476015 216.013189 
L 363.943712 218.194394 
L 364.237252 217.966136 
L 366.585567 221.322671 
L 368.933882 224.280508 
L 370.108039 225.510996 
L 370.988657 226.341966 
L 371.282197 226.876633 
L 380.381917 235.795167 
L 382.143153 237.199751 
L 382.436693 237.268666 
L 387.426862 240.755835 
L 388.894559 241.495136 
L 390.655795 242.195386 
L 390.949334 241.841573 
L 391.829953 242.108511 
L 392.123492 242.840276 
L 392.417031 242.266619 
L 395.939504 243.047269 
L 398.581358 243.671457 
L 398.874898 244.290154 
L 399.168437 243.863346 
L 400.929673 244.358082 
L 402.984449 244.702672 
L 405.919842 244.934889 
L 411.79063 245.28324 
L 412.084169 245.843019 
L 418.542035 246.275557 
L 418.835575 245.648919 
L 435.860858 246.416427 
L 443.492882 247.040936 
L 446.134736 247.310826 
L 446.428276 247.770388 
L 454.060299 248.595531 
L 464.921256 250.046255 
L 472.846819 251.603952 
L 480.772382 253.385656 
L 482.533619 253.812893 
L 482.827158 253.688588 
L 490.165642 255.482123 
L 490.459182 255.891109 
L 497.504127 257.975968 
L 503.961993 260.110617 
L 508.071544 261.595123 
L 508.071544 261.595123 
" style="fill:none;stroke:#ffda00;stroke-linecap:square;stroke-width:2;"/>
   </g>
   <g id="line2d_32">
    <path clip-path="url(#pf433914e6d)" d="M 528.032221 147.476728 
L 529.793457 147.457274 
L 530.086997 147.106837 
L 535.077166 147.056601 
L 535.370706 152.421719 
L 545.644584 150.451956 
L 552.395989 149.021138 
L 552.689528 152.788317 
L 587.620714 139.760364 
L 596.426895 136.775799 
L 604.058919 134.423358 
L 611.397403 132.395524 
L 621.084202 129.9809 
L 629.009765 127.941256 
L 633.412856 126.580607 
L 636.641789 125.361705 
L 637.815946 124.848033 
L 638.403025 124.41769 
L 638.696564 124.430653 
L 641.044879 123.147263 
L 643.099655 121.766964 
L 647.796285 118.345017 
L 648.383364 118.037118 
L 648.676903 118.552931 
L 650.438139 117.876964 
L 651.612297 117.57199 
L 651.905836 116.57537 
L 652.199376 117.458078 
L 654.254151 117.22889 
L 656.602466 117.215159 
L 658.950781 117.237317 
L 661.886175 116.192672 
L 663.060332 115.84269 
L 665.408647 116.410471 
L 665.702187 116.12715 
L 668.63758 117.138666 
L 669.224659 117.37077 
L 671.866513 117.136172 
L 674.508368 117.129709 
L 677.443762 118.708898 
L 678.03084 119.156166 
L 678.32438 119.336227 
L 678.617919 119.354381 
L 678.911458 119.534288 
L 683.314549 119.876465 
L 688.598258 120.496268 
L 691.240112 122.480796 
L 694.175506 123.166554 
L 696.230281 123.865932 
L 697.110899 124.255251 
L 699.165675 126.994689 
L 701.807529 130.520727 
L 703.568766 132.437248 
L 704.742923 133.449341 
L 706.504159 134.967063 
L 708.265396 136.826567 
L 711.494329 140.483161 
L 715.310341 144.010151 
L 715.60388 144.943085 
L 715.897419 145.20402 
L 716.190959 145.650702 
L 716.484498 145.590067 
L 716.778037 146.221797 
L 717.071577 146.399868 
L 717.658656 147.206551 
L 717.952195 147.31529 
L 718.539274 148.087105 
L 718.832813 148.769347 
L 719.419892 149.454152 
L 722.648825 152.082684 
L 724.410061 153.423385 
L 724.7036 153.525593 
L 727.345455 156.419327 
L 728.519612 157.647041 
L 728.813152 157.707739 
L 729.987309 158.797842 
L 733.509782 161.497306 
L 734.977478 162.791656 
L 736.445175 164.400057 
L 736.738715 165.239619 
L 738.499951 167.644602 
L 738.79349 170.940729 
L 739.380569 172.703456 
L 739.674108 170.625955 
L 739.967648 172.744692 
L 740.261187 173.012131 
L 740.554727 169.409249 
L 743.78366 172.062643 
L 744.077199 175.7949 
L 744.370738 173.804628 
L 744.957817 174.687065 
L 745.544896 178.04749 
L 745.838435 179.12048 
L 746.131975 179.355848 
L 746.425514 179.894941 
L 747.306132 180.354652 
L 747.599671 179.16001 
L 749.067368 180.166022 
L 749.360908 180.821354 
L 750.241526 181.20718 
L 750.535065 181.215429 
L 750.828605 180.822468 
L 760.221864 181.497802 
L 766.97327 182.532218 
L 767.266809 182.866764 
L 772.256979 183.515135 
L 776.660069 183.866802 
L 780.769621 183.984204 
L 784.879172 183.887422 
L 788.988723 183.57098 
L 793.098274 183.031931 
L 797.207825 182.268718 
L 801.317377 181.280699 
L 805.426928 180.067776 
L 809.536479 178.629789 
L 813.64603 176.967452 
L 818.049121 174.940913 
L 822.452211 172.664396 
L 826.855302 170.141533 
L 831.551932 167.182534 
L 836.248562 163.948971 
L 840.945192 160.44236 
L 845.641822 156.665263 
L 850.631991 152.360839 
L 855.62216 147.762021 
L 860.905869 142.578157 
L 866.189578 137.076745 
L 869.418511 133.56006 
L 869.418511 133.56006 
" style="fill:none;stroke:#ffda00;stroke-linecap:square;stroke-width:2;"/>
   </g>
   <g id="patch_3">
    <path d="M 45.967188 413.710125 
L 45.967188 22.318125 
" style="fill:none;stroke:#000000;stroke-linecap:square;stroke-linejoin:miter;stroke-width:0.8;"/>
   </g>
   <g id="patch_4">
    <path d="M 938.767187 413.710125 
L 938.767187 22.318125 
" style="fill:none;stroke:#000000;stroke-linecap:square;stroke-linejoin:miter;stroke-width:0.8;"/>
   </g>
   <g id="patch_5">
    <path d="M 45.967188 413.710125 
L 938.767187 413.710125 
" style="fill:none;stroke:#000000;stroke-linecap:square;stroke-linejoin:miter;stroke-width:0.8;"/>
   </g>
   <g id="patch_6">
    <path d="M 45.967188 22.318125 
L 938.767187 22.318125 
" style="fill:none;stroke:#000000;stroke-linecap:square;stroke-linejoin:miter;stroke-width:0.8;"/>
   </g>
   <g id="text_18">
    <!-- Wont Participate -->
    <g transform="translate(443.048125 16.318125)scale(0.12 -0.12)">
     <defs>
      <path d="M 3.328125 72.90625 
L 13.28125 72.90625 
L 28.609375 11.28125 
L 43.890625 72.90625 
L 54.984375 72.90625 
L 70.3125 11.28125 
L 85.59375 72.90625 
L 95.609375 72.90625 
L 77.296875 0 
L 64.890625 0 
L 49.515625 63.28125 
L 33.984375 0 
L 21.578125 0 
z
" id="DejaVuSans-87"/>
      <path d="M 30.609375 48.390625 
Q 23.390625 48.390625 19.1875 42.75 
Q 14.984375 37.109375 14.984375 27.296875 
Q 14.984375 17.484375 19.15625 11.84375 
Q 23.34375 6.203125 30.609375 6.203125 
Q 37.796875 6.203125 41.984375 11.859375 
Q 46.1875 17.53125 46.1875 27.296875 
Q 46.1875 37.015625 41.984375 42.703125 
Q 37.796875 48.390625 30.609375 48.390625 
z
M 30.609375 56 
Q 42.328125 56 49.015625 48.375 
Q 55.71875 40.765625 55.71875 27.296875 
Q 55.71875 13.875 49.015625 6.21875 
Q 42.328125 -1.421875 30.609375 -1.421875 
Q 18.84375 -1.421875 12.171875 6.21875 
Q 5.515625 13.875 5.515625 27.296875 
Q 5.515625 40.765625 12.171875 48.375 
Q 18.84375 56 30.609375 56 
z
" id="DejaVuSans-111"/>
      <path d="M 54.890625 33.015625 
L 54.890625 0 
L 45.90625 0 
L 45.90625 32.71875 
Q 45.90625 40.484375 42.875 44.328125 
Q 39.84375 48.1875 33.796875 48.1875 
Q 26.515625 48.1875 22.3125 43.546875 
Q 18.109375 38.921875 18.109375 30.90625 
L 18.109375 0 
L 9.078125 0 
L 9.078125 54.6875 
L 18.109375 54.6875 
L 18.109375 46.1875 
Q 21.34375 51.125 25.703125 53.5625 
Q 30.078125 56 35.796875 56 
Q 45.21875 56 50.046875 50.171875 
Q 54.890625 44.34375 54.890625 33.015625 
z
" id="DejaVuSans-110"/>
      <path d="M 18.3125 70.21875 
L 18.3125 54.6875 
L 36.8125 54.6875 
L 36.8125 47.703125 
L 18.3125 47.703125 
L 18.3125 18.015625 
Q 18.3125 11.328125 20.140625 9.421875 
Q 21.96875 7.515625 27.59375 7.515625 
L 36.8125 7.515625 
L 36.8125 0 
L 27.59375 0 
Q 17.1875 0 13.234375 3.875 
Q 9.28125 7.765625 9.28125 18.015625 
L 9.28125 47.703125 
L 2.6875 47.703125 
L 2.6875 54.6875 
L 9.28125 54.6875 
L 9.28125 70.21875 
z
" id="DejaVuSans-116"/>
      <path id="DejaVuSans-32"/>
      <path d="M 19.671875 64.796875 
L 19.671875 37.40625 
L 32.078125 37.40625 
Q 38.96875 37.40625 42.71875 40.96875 
Q 46.484375 44.53125 46.484375 51.125 
Q 46.484375 57.671875 42.71875 61.234375 
Q 38.96875 64.796875 32.078125 64.796875 
z
M 9.8125 72.90625 
L 32.078125 72.90625 
Q 44.34375 72.90625 50.609375 67.359375 
Q 56.890625 61.8125 56.890625 51.125 
Q 56.890625 40.328125 50.609375 34.8125 
Q 44.34375 29.296875 32.078125 29.296875 
L 19.671875 29.296875 
L 19.671875 0 
L 9.8125 0 
z
" id="DejaVuSans-80"/>
      <path d="M 34.28125 27.484375 
Q 23.390625 27.484375 19.1875 25 
Q 14.984375 22.515625 14.984375 16.5 
Q 14.984375 11.71875 18.140625 8.90625 
Q 21.296875 6.109375 26.703125 6.109375 
Q 34.1875 6.109375 38.703125 11.40625 
Q 43.21875 16.703125 43.21875 25.484375 
L 43.21875 27.484375 
z
M 52.203125 31.203125 
L 52.203125 0 
L 43.21875 0 
L 43.21875 8.296875 
Q 40.140625 3.328125 35.546875 0.953125 
Q 30.953125 -1.421875 24.3125 -1.421875 
Q 15.921875 -1.421875 10.953125 3.296875 
Q 6 8.015625 6 15.921875 
Q 6 25.140625 12.171875 29.828125 
Q 18.359375 34.515625 30.609375 34.515625 
L 43.21875 34.515625 
L 43.21875 35.40625 
Q 43.21875 41.609375 39.140625 45 
Q 35.0625 48.390625 27.6875 48.390625 
Q 23 48.390625 18.546875 47.265625 
Q 14.109375 46.140625 10.015625 43.890625 
L 10.015625 52.203125 
Q 14.9375 54.109375 19.578125 55.046875 
Q 24.21875 56 28.609375 56 
Q 40.484375 56 46.34375 49.84375 
Q 52.203125 43.703125 52.203125 31.203125 
z
" id="DejaVuSans-97"/>
      <path d="M 41.109375 46.296875 
Q 39.59375 47.171875 37.8125 47.578125 
Q 36.03125 48 33.890625 48 
Q 26.265625 48 22.1875 43.046875 
Q 18.109375 38.09375 18.109375 28.8125 
L 18.109375 0 
L 9.078125 0 
L 9.078125 54.6875 
L 18.109375 54.6875 
L 18.109375 46.1875 
Q 20.953125 51.171875 25.484375 53.578125 
Q 30.03125 56 36.53125 56 
Q 37.453125 56 38.578125 55.875 
Q 39.703125 55.765625 41.0625 55.515625 
z
" id="DejaVuSans-114"/>
      <path d="M 9.421875 54.6875 
L 18.40625 54.6875 
L 18.40625 0 
L 9.421875 0 
z
M 9.421875 75.984375 
L 18.40625 75.984375 
L 18.40625 64.59375 
L 9.421875 64.59375 
z
" id="DejaVuSans-105"/>
      <path d="M 48.78125 52.59375 
L 48.78125 44.1875 
Q 44.96875 46.296875 41.140625 47.34375 
Q 37.3125 48.390625 33.40625 48.390625 
Q 24.65625 48.390625 19.8125 42.84375 
Q 14.984375 37.3125 14.984375 27.296875 
Q 14.984375 17.28125 19.8125 11.734375 
Q 24.65625 6.203125 33.40625 6.203125 
Q 37.3125 6.203125 41.140625 7.25 
Q 44.96875 8.296875 48.78125 10.40625 
L 48.78125 2.09375 
Q 45.015625 0.34375 40.984375 -0.53125 
Q 36.96875 -1.421875 32.421875 -1.421875 
Q 20.0625 -1.421875 12.78125 6.34375 
Q 5.515625 14.109375 5.515625 27.296875 
Q 5.515625 40.671875 12.859375 48.328125 
Q 20.21875 56 33.015625 56 
Q 37.15625 56 41.109375 55.140625 
Q 45.0625 54.296875 48.78125 52.59375 
z
" id="DejaVuSans-99"/>
      <path d="M 18.109375 8.203125 
L 18.109375 -20.796875 
L 9.078125 -20.796875 
L 9.078125 54.6875 
L 18.109375 54.6875 
L 18.109375 46.390625 
Q 20.953125 51.265625 25.265625 53.625 
Q 29.59375 56 35.59375 56 
Q 45.5625 56 51.78125 48.09375 
Q 58.015625 40.1875 58.015625 27.296875 
Q 58.015625 14.40625 51.78125 6.484375 
Q 45.5625 -1.421875 35.59375 -1.421875 
Q 29.59375 -1.421875 25.265625 0.953125 
Q 20.953125 3.328125 18.109375 8.203125 
z
M 48.6875 27.296875 
Q 48.6875 37.203125 44.609375 42.84375 
Q 40.53125 48.484375 33.40625 48.484375 
Q 26.265625 48.484375 22.1875 42.84375 
Q 18.109375 37.203125 18.109375 27.296875 
Q 18.109375 17.390625 22.1875 11.75 
Q 26.265625 6.109375 33.40625 6.109375 
Q 40.53125 6.109375 44.609375 11.75 
Q 48.6875 17.390625 48.6875 27.296875 
z
" id="DejaVuSans-112"/>
      <path d="M 56.203125 29.59375 
L 56.203125 25.203125 
L 14.890625 25.203125 
Q 15.484375 15.921875 20.484375 11.0625 
Q 25.484375 6.203125 34.421875 6.203125 
Q 39.59375 6.203125 44.453125 7.46875 
Q 49.3125 8.734375 54.109375 11.28125 
L 54.109375 2.78125 
Q 49.265625 0.734375 44.1875 -0.34375 
Q 39.109375 -1.421875 33.890625 -1.421875 
Q 20.796875 -1.421875 13.15625 6.1875 
Q 5.515625 13.8125 5.515625 26.8125 
Q 5.515625 40.234375 12.765625 48.109375 
Q 20.015625 56 32.328125 56 
Q 43.359375 56 49.78125 48.890625 
Q 56.203125 41.796875 56.203125 29.59375 
z
M 47.21875 32.234375 
Q 47.125 39.59375 43.09375 43.984375 
Q 39.0625 48.390625 32.421875 48.390625 
Q 24.90625 48.390625 20.390625 44.140625 
Q 15.875 39.890625 15.1875 32.171875 
z
" id="DejaVuSans-101"/>
     </defs>
     <use xlink:href="#DejaVuSans-87"/>
     <use x="93.001953" xlink:href="#DejaVuSans-111"/>
     <use x="154.183594" xlink:href="#DejaVuSans-110"/>
     <use x="217.5625" xlink:href="#DejaVuSans-116"/>
     <use x="256.771484" xlink:href="#DejaVuSans-32"/>
     <use x="288.558594" xlink:href="#DejaVuSans-80"/>
     <use x="344.361328" xlink:href="#DejaVuSans-97"/>
     <use x="405.640625" xlink:href="#DejaVuSans-114"/>
     <use x="446.753906" xlink:href="#DejaVuSans-116"/>
     <use x="485.962891" xlink:href="#DejaVuSans-105"/>
     <use x="513.746094" xlink:href="#DejaVuSans-99"/>
     <use x="568.726562" xlink:href="#DejaVuSans-105"/>
     <use x="596.509766" xlink:href="#DejaVuSans-112"/>
     <use x="659.986328" xlink:href="#DejaVuSans-97"/>
     <use x="721.265625" xlink:href="#DejaVuSans-116"/>
     <use x="760.474609" xlink:href="#DejaVuSans-101"/>
    </g>
   </g>
  </g>
  <g id="legend_1">
   <g id="line2d_33">
    <path d="M 412.470313 451.8495 
L 432.470313 451.8495 
" style="fill:none;stroke:#007c85;stroke-linecap:square;stroke-width:2;"/>
   </g>
   <g id="line2d_34"/>
   <g id="text_19">
    <!-- AKO -->
    <g transform="translate(440.470313 455.3495)scale(0.1 -0.1)">
     <defs>
      <path d="M 34.1875 63.1875 
L 20.796875 26.90625 
L 47.609375 26.90625 
z
M 28.609375 72.90625 
L 39.796875 72.90625 
L 67.578125 0 
L 57.328125 0 
L 50.6875 18.703125 
L 17.828125 18.703125 
L 11.1875 0 
L 0.78125 0 
z
" id="DejaVuSans-65"/>
      <path d="M 9.8125 72.90625 
L 19.671875 72.90625 
L 19.671875 42.09375 
L 52.390625 72.90625 
L 65.09375 72.90625 
L 28.90625 38.921875 
L 67.671875 0 
L 54.6875 0 
L 19.671875 35.109375 
L 19.671875 0 
L 9.8125 0 
z
" id="DejaVuSans-75"/>
      <path d="M 39.40625 66.21875 
Q 28.65625 66.21875 22.328125 58.203125 
Q 16.015625 50.203125 16.015625 36.375 
Q 16.015625 22.609375 22.328125 14.59375 
Q 28.65625 6.59375 39.40625 6.59375 
Q 50.140625 6.59375 56.421875 14.59375 
Q 62.703125 22.609375 62.703125 36.375 
Q 62.703125 50.203125 56.421875 58.203125 
Q 50.140625 66.21875 39.40625 66.21875 
z
M 39.40625 74.21875 
Q 54.734375 74.21875 63.90625 63.9375 
Q 73.09375 53.65625 73.09375 36.375 
Q 73.09375 19.140625 63.90625 8.859375 
Q 54.734375 -1.421875 39.40625 -1.421875 
Q 24.03125 -1.421875 14.8125 8.828125 
Q 5.609375 19.09375 5.609375 36.375 
Q 5.609375 53.65625 14.8125 63.9375 
Q 24.03125 74.21875 39.40625 74.21875 
z
" id="DejaVuSans-79"/>
     </defs>
     <use xlink:href="#DejaVuSans-65"/>
     <use x="68.408203" xlink:href="#DejaVuSans-75"/>
     <use x="128.484375" xlink:href="#DejaVuSans-79"/>
    </g>
   </g>
   <g id="line2d_35">
    <path d="M 481.190625 451.8495 
L 501.190625 451.8495 
" style="fill:none;stroke:#ffda00;stroke-linecap:square;stroke-width:2;"/>
   </g>
   <g id="line2d_36"/>
   <g id="text_20">
    <!-- FOCUS -->
    <g transform="translate(509.190625 455.3495)scale(0.1 -0.1)">
     <defs>
      <path d="M 9.8125 72.90625 
L 51.703125 72.90625 
L 51.703125 64.59375 
L 19.671875 64.59375 
L 19.671875 43.109375 
L 48.578125 43.109375 
L 48.578125 34.8125 
L 19.671875 34.8125 
L 19.671875 0 
L 9.8125 0 
z
" id="DejaVuSans-70"/>
      <path d="M 64.40625 67.28125 
L 64.40625 56.890625 
Q 59.421875 61.53125 53.78125 63.8125 
Q 48.140625 66.109375 41.796875 66.109375 
Q 29.296875 66.109375 22.65625 58.46875 
Q 16.015625 50.828125 16.015625 36.375 
Q 16.015625 21.96875 22.65625 14.328125 
Q 29.296875 6.6875 41.796875 6.6875 
Q 48.140625 6.6875 53.78125 8.984375 
Q 59.421875 11.28125 64.40625 15.921875 
L 64.40625 5.609375 
Q 59.234375 2.09375 53.4375 0.328125 
Q 47.65625 -1.421875 41.21875 -1.421875 
Q 24.65625 -1.421875 15.125 8.703125 
Q 5.609375 18.84375 5.609375 36.375 
Q 5.609375 53.953125 15.125 64.078125 
Q 24.65625 74.21875 41.21875 74.21875 
Q 47.75 74.21875 53.53125 72.484375 
Q 59.328125 70.75 64.40625 67.28125 
z
" id="DejaVuSans-67"/>
      <path d="M 8.6875 72.90625 
L 18.609375 72.90625 
L 18.609375 28.609375 
Q 18.609375 16.890625 22.84375 11.734375 
Q 27.09375 6.59375 36.625 6.59375 
Q 46.09375 6.59375 50.34375 11.734375 
Q 54.59375 16.890625 54.59375 28.609375 
L 54.59375 72.90625 
L 64.5 72.90625 
L 64.5 27.390625 
Q 64.5 13.140625 57.4375 5.859375 
Q 50.390625 -1.421875 36.625 -1.421875 
Q 22.796875 -1.421875 15.734375 5.859375 
Q 8.6875 13.140625 8.6875 27.390625 
z
" id="DejaVuSans-85"/>
      <path d="M 53.515625 70.515625 
L 53.515625 60.890625 
Q 47.90625 63.578125 42.921875 64.890625 
Q 37.9375 66.21875 33.296875 66.21875 
Q 25.25 66.21875 20.875 63.09375 
Q 16.5 59.96875 16.5 54.203125 
Q 16.5 49.359375 19.40625 46.890625 
Q 22.3125 44.4375 30.421875 42.921875 
L 36.375 41.703125 
Q 47.40625 39.59375 52.65625 34.296875 
Q 57.90625 29 57.90625 20.125 
Q 57.90625 9.515625 50.796875 4.046875 
Q 43.703125 -1.421875 29.984375 -1.421875 
Q 24.8125 -1.421875 18.96875 -0.25 
Q 13.140625 0.921875 6.890625 3.21875 
L 6.890625 13.375 
Q 12.890625 10.015625 18.65625 8.296875 
Q 24.421875 6.59375 29.984375 6.59375 
Q 38.421875 6.59375 43.015625 9.90625 
Q 47.609375 13.234375 47.609375 19.390625 
Q 47.609375 24.75 44.3125 27.78125 
Q 41.015625 30.8125 33.5 32.328125 
L 27.484375 33.5 
Q 16.453125 35.6875 11.515625 40.375 
Q 6.59375 45.0625 6.59375 53.421875 
Q 6.59375 63.09375 13.40625 68.65625 
Q 20.21875 74.21875 32.171875 74.21875 
Q 37.3125 74.21875 42.625 73.28125 
Q 47.953125 72.359375 53.515625 70.515625 
z
" id="DejaVuSans-83"/>
     </defs>
     <use xlink:href="#DejaVuSans-70"/>
     <use x="57.519531" xlink:href="#DejaVuSans-79"/>
     <use x="136.230469" xlink:href="#DejaVuSans-67"/>
     <use x="206.054688" xlink:href="#DejaVuSans-85"/>
     <use x="279.248047" xlink:href="#DejaVuSans-83"/>
    </g>
   </g>
  </g>
 </g>
 <defs>
  <clipPath id="pf433914e6d">
   <rect height="391.392" width="892.8" x="45.967188" y="22.318125"/>
  </clipPath>
 </defs>
</svg>
