<?xml version="1.0" encoding="utf-8" standalone="no"?>
<!DOCTYPE svg PUBLIC "-//W3C//DTD SVG 1.1//EN"
  "http://www.w3.org/Graphics/SVG/1.1/DTD/svg11.dtd">
<svg xmlns:xlink="http://www.w3.org/1999/xlink" width="945.967187pt" height="468.629188pt" viewBox="0 0 945.967187 468.629188" xmlns="http://www.w3.org/2000/svg" version="1.1">
 <metadata>
  <rdf:RDF xmlns:dc="http://purl.org/dc/elements/1.1/" xmlns:cc="http://creativecommons.org/ns#" xmlns:rdf="http://www.w3.org/1999/02/22-rdf-syntax-ns#">
   <cc:Work>
    <dc:type rdf:resource="http://purl.org/dc/dcmitype/StillImage"/>
    <dc:date>2023-08-23T10:34:39.357364</dc:date>
    <dc:format>image/svg+xml</dc:format>
    <dc:creator>
     <cc:Agent>
      <dc:title>Matplotlib v3.7.1, https://matplotlib.org/</dc:title>
     </cc:Agent>
    </dc:creator>
   </cc:Work>
  </rdf:RDF>
 </metadata>
 <defs>
  <style type="text/css">*{stroke-linejoin: round; stroke-linecap: butt}</style>
 </defs>
 <g id="figure_1">
  <g id="patch_1">
   <path d="M 0 468.629188 
L 945.967187 468.629188 
L 945.967187 0 
L 0 0 
z
" style="fill: #ffffff"/>
  </g>
  <g id="axes_1">
   <g id="patch_2">
    <path d="M 45.967188 421.486125 
L 938.767187 421.486125 
L 938.767187 22.318125 
L 45.967188 22.318125 
z
" style="fill: #ffffff"/>
   </g>
   <g id="PathCollection_1">
    <defs>
     <path id="m2ed194f10a" d="M 0 3 
C 0.795609 3 1.55874 2.683901 2.12132 2.12132 
C 2.683901 1.55874 3 0.795609 3 0 
C 3 -0.795609 2.683901 -1.55874 2.12132 -2.12132 
C 1.55874 -2.683901 0.795609 -3 0 -3 
C -0.795609 -3 -1.55874 -2.683901 -2.12132 -2.12132 
C -2.683901 -1.55874 -3 -0.795609 -3 0 
C -3 0.795609 -2.683901 1.55874 -2.12132 2.12132 
C -1.55874 2.683901 -0.795609 3 0 3 
z
" style="stroke: #000000"/>
    </defs>
    <g clip-path="url(#p548233ad27)">
     <use xlink:href="#m2ed194f10a" x="86.549006" y="374.369097" style="stroke: #000000"/>
    </g>
   </g>
   <g id="PathCollection_2">
    <g clip-path="url(#p548233ad27)">
     <use xlink:href="#m2ed194f10a" x="513.942331" y="288.597461" style="stroke: #000000"/>
    </g>
   </g>
   <g id="PathCollection_3"/>
   <g id="PathCollection_4">
    <defs>
     <path id="md761873fd2" d="M 0 1.5 
C 0.397805 1.5 0.77937 1.341951 1.06066 1.06066 
C 1.341951 0.77937 1.5 0.397805 1.5 0 
C 1.5 -0.397805 1.341951 -0.77937 1.06066 -1.06066 
C 0.77937 -1.341951 0.397805 -1.5 0 -1.5 
C -0.397805 -1.5 -0.77937 -1.341951 -1.06066 -1.06066 
C -1.341951 -0.77937 -1.5 -0.397805 -1.5 0 
C -1.5 0.397805 -1.341951 0.77937 -1.06066 1.06066 
C -0.77937 1.341951 -0.397805 1.5 0 1.5 
z
" style="stroke: #007c85"/>
    </defs>
    <g clip-path="url(#p548233ad27)">
     <use xlink:href="#md761873fd2" x="95.648726" y="74.885524" style="fill: #007c85; stroke: #007c85"/>
     <use xlink:href="#md761873fd2" x="105.041986" y="126.520623" style="fill: #007c85; stroke: #007c85"/>
     <use xlink:href="#md761873fd2" x="128.231597" y="123.652006" style="fill: #007c85; stroke: #007c85"/>
     <use xlink:href="#md761873fd2" x="143.789183" y="334.495327" style="fill: #007c85; stroke: #007c85"/>
     <use xlink:href="#md761873fd2" x="153.475983" y="261.345603" style="fill: #007c85; stroke: #007c85"/>
     <use xlink:href="#md761873fd2" x="158.759691" y="284.294536" style="fill: #007c85; stroke: #007c85"/>
     <use xlink:href="#md761873fd2" x="167.272333" y="168.115564" style="fill: #007c85; stroke: #007c85"/>
     <use xlink:href="#md761873fd2" x="176.665593" y="261.345603" style="fill: #007c85; stroke: #007c85"/>
     <use xlink:href="#md761873fd2" x="187.52655" y="238.39667" style="fill: #007c85; stroke: #007c85"/>
     <use xlink:href="#md761873fd2" x="196.332731" y="193.933113" style="fill: #007c85; stroke: #007c85"/>
     <use xlink:href="#md761873fd2" x="208.661384" y="221.184971" style="fill: #007c85; stroke: #007c85"/>
     <use xlink:href="#md761873fd2" x="223.925432" y="272.82007" style="fill: #007c85; stroke: #007c85"/>
     <use xlink:href="#md761873fd2" x="232.731613" y="215.447738" style="fill: #007c85; stroke: #007c85"/>
     <use xlink:href="#md761873fd2" x="243.59257" y="272.82007" style="fill: #007c85; stroke: #007c85"/>
     <use xlink:href="#md761873fd2" x="251.811672" y="312.980702" style="fill: #007c85; stroke: #007c85"/>
     <use xlink:href="#md761873fd2" x="268.836956" y="162.378331" style="fill: #007c85; stroke: #007c85"/>
     <use xlink:href="#md761873fd2" x="297.897354" y="186.761572" style="fill: #007c85; stroke: #007c85"/>
     <use xlink:href="#md761873fd2" x="309.932468" y="231.225129" style="fill: #007c85; stroke: #007c85"/>
     <use xlink:href="#md761873fd2" x="314.922637" y="261.345603" style="fill: #007c85; stroke: #007c85"/>
     <use xlink:href="#md761873fd2" x="322.554661" y="158.075406" style="fill: #007c85; stroke: #007c85"/>
     <use xlink:href="#md761873fd2" x="331.947921" y="202.538963" style="fill: #007c85; stroke: #007c85"/>
     <use xlink:href="#md761873fd2" x="348.973204" y="228.356512" style="fill: #007c85; stroke: #007c85"/>
     <use xlink:href="#md761873fd2" x="353.963374" y="172.418489" style="fill: #007c85; stroke: #007c85"/>
     <use xlink:href="#md761873fd2" x="363.650173" y="231.225129" style="fill: #007c85; stroke: #007c85"/>
     <use xlink:href="#md761873fd2" x="375.391748" y="169.549872" style="fill: #007c85; stroke: #007c85"/>
     <use xlink:href="#md761873fd2" x="379.20776" y="232.659437" style="fill: #007c85; stroke: #007c85"/>
     <use xlink:href="#md761873fd2" x="401.223212" y="176.721414" style="fill: #007c85; stroke: #007c85"/>
     <use xlink:href="#md761873fd2" x="415.900181" y="117.914773" style="fill: #007c85; stroke: #007c85"/>
     <use xlink:href="#md761873fd2" x="424.999902" y="53.3709" style="fill: #007c85; stroke: #007c85"/>
     <use xlink:href="#md761873fd2" x="427.054677" y="188.19588" style="fill: #007c85; stroke: #007c85"/>
     <use xlink:href="#md761873fd2" x="471.672662" y="264.21422" style="fill: #007c85; stroke: #007c85"/>
     <use xlink:href="#md761873fd2" x="484.881934" y="206.841888" style="fill: #007c85; stroke: #007c85"/>
    </g>
   </g>
   <g id="PathCollection_5">
    <g clip-path="url(#p548233ad27)">
     <use xlink:href="#md761873fd2" x="527.445142" y="82.057066" style="fill: #007c85; stroke: #007c85"/>
     <use xlink:href="#md761873fd2" x="553.276607" y="295.769002" style="fill: #007c85; stroke: #007c85"/>
     <use xlink:href="#md761873fd2" x="599.949367" y="321.586552" style="fill: #007c85; stroke: #007c85"/>
     <use xlink:href="#md761873fd2" x="615.506954" y="358.878568" style="fill: #007c85; stroke: #007c85"/>
     <use xlink:href="#md761873fd2" x="624.019596" y="357.444259" style="fill: #007c85; stroke: #007c85"/>
     <use xlink:href="#md761873fd2" x="634.293474" y="403.342125" style="fill: #007c85; stroke: #007c85"/>
     <use xlink:href="#md761873fd2" x="643.393194" y="337.363943" style="fill: #007c85; stroke: #007c85"/>
     <use xlink:href="#md761873fd2" x="650.731679" y="312.980702" style="fill: #007c85; stroke: #007c85"/>
     <use xlink:href="#md761873fd2" x="659.53786" y="254.174062" style="fill: #007c85; stroke: #007c85"/>
     <use xlink:href="#md761873fd2" x="669.518199" y="278.557303" style="fill: #007c85; stroke: #007c85"/>
     <use xlink:href="#md761873fd2" x="677.737301" y="323.02086" style="fill: #007c85; stroke: #007c85"/>
     <use xlink:href="#md761873fd2" x="685.369325" y="285.728844" style="fill: #007c85; stroke: #007c85"/>
     <use xlink:href="#md761873fd2" x="696.523821" y="239.830979" style="fill: #007c85; stroke: #007c85"/>
     <use xlink:href="#md761873fd2" x="704.742923" y="259.911295" style="fill: #007c85; stroke: #007c85"/>
     <use xlink:href="#md761873fd2" x="714.723262" y="305.809161" style="fill: #007c85; stroke: #007c85"/>
     <use xlink:href="#md761873fd2" x="723.235904" y="312.980702" style="fill: #007c85; stroke: #007c85"/>
     <use xlink:href="#md761873fd2" x="730.867927" y="282.860228" style="fill: #007c85; stroke: #007c85"/>
     <use xlink:href="#md761873fd2" x="739.674108" y="281.425919" style="fill: #007c85; stroke: #007c85"/>
     <use xlink:href="#md761873fd2" x="749.947986" y="238.39667" style="fill: #007c85; stroke: #007c85"/>
     <use xlink:href="#md761873fd2" x="757.58001" y="272.82007" style="fill: #007c85; stroke: #007c85"/>
     <use xlink:href="#md761873fd2" x="766.97327" y="298.637619" style="fill: #007c85; stroke: #007c85"/>
     <use xlink:href="#md761873fd2" x="778.127766" y="364.615801" style="fill: #007c85; stroke: #007c85"/>
     <use xlink:href="#md761873fd2" x="785.46625" y="370.353034" style="fill: #007c85; stroke: #007c85"/>
     <use xlink:href="#md761873fd2" x="795.446589" y="360.312876" style="fill: #007c85; stroke: #007c85"/>
     <use xlink:href="#md761873fd2" x="802.785073" y="274.254378" style="fill: #007c85; stroke: #007c85"/>
     <use xlink:href="#md761873fd2" x="811.591255" y="321.586552" style="fill: #007c85; stroke: #007c85"/>
     <use xlink:href="#md761873fd2" x="821.865133" y="268.517145" style="fill: #007c85; stroke: #007c85"/>
     <use xlink:href="#md761873fd2" x="830.084235" y="343.101176" style="fill: #007c85; stroke: #007c85"/>
     <use xlink:href="#md761873fd2" x="838.303337" y="264.21422" style="fill: #007c85; stroke: #007c85"/>
     <use xlink:href="#md761873fd2" x="846.52244" y="297.203311" style="fill: #007c85; stroke: #007c85"/>
     <use xlink:href="#md761873fd2" x="855.328621" y="229.790821" style="fill: #007c85; stroke: #007c85"/>
     <use xlink:href="#md761873fd2" x="864.428342" y="347.404101" style="fill: #007c85; stroke: #007c85"/>
     <use xlink:href="#md761873fd2" x="874.995759" y="331.62671" style="fill: #007c85; stroke: #007c85"/>
     <use xlink:href="#md761873fd2" x="878.811771" y="272.82007" style="fill: #007c85; stroke: #007c85"/>
     <use xlink:href="#md761873fd2" x="883.214861" y="143.732323" style="fill: #007c85; stroke: #007c85"/>
    </g>
   </g>
   <g id="PathCollection_6">
    <defs>
     <path id="mab6a222cb7" d="M 0 1.5 
C 0.397805 1.5 0.77937 1.341951 1.06066 1.06066 
C 1.341951 0.77937 1.5 0.397805 1.5 0 
C 1.5 -0.397805 1.341951 -0.77937 1.06066 -1.06066 
C 0.77937 -1.341951 0.397805 -1.5 0 -1.5 
C -0.397805 -1.5 -0.77937 -1.341951 -1.06066 -1.06066 
C -1.341951 -0.77937 -1.5 -0.397805 -1.5 0 
C -1.5 0.397805 -1.341951 0.77937 -1.06066 1.06066 
C -0.77937 1.341951 -0.397805 1.5 0 1.5 
z
" style="stroke: #ffda00"/>
    </defs>
    <g clip-path="url(#p548233ad27)">
     <use xlink:href="#mab6a222cb7" x="88.897321" y="150.903864" style="fill: #ffda00; stroke: #ffda00"/>
     <use xlink:href="#mab6a222cb7" x="104.748447" y="242.699595" style="fill: #ffda00; stroke: #ffda00"/>
     <use xlink:href="#mab6a222cb7" x="117.0771" y="232.659437" style="fill: #ffda00; stroke: #ffda00"/>
     <use xlink:href="#mab6a222cb7" x="133.808845" y="132.257856" style="fill: #ffda00; stroke: #ffda00"/>
     <use xlink:href="#mab6a222cb7" x="142.321486" y="205.40758" style="fill: #ffda00; stroke: #ffda00"/>
     <use xlink:href="#mab6a222cb7" x="157.585534" y="211.144813" style="fill: #ffda00; stroke: #ffda00"/>
     <use xlink:href="#mab6a222cb7" x="164.630479" y="188.19588" style="fill: #ffda00; stroke: #ffda00"/>
     <use xlink:href="#mab6a222cb7" x="181.949302" y="242.699595" style="fill: #ffda00; stroke: #ffda00"/>
     <use xlink:href="#mab6a222cb7" x="187.52655" y="254.174062" style="fill: #ffda00; stroke: #ffda00"/>
     <use xlink:href="#mab6a222cb7" x="203.084136" y="234.093746" style="fill: #ffda00; stroke: #ffda00"/>
     <use xlink:href="#mab6a222cb7" x="219.815881" y="235.528054" style="fill: #ffda00; stroke: #ffda00"/>
     <use xlink:href="#mab6a222cb7" x="233.318692" y="277.122995" style="fill: #ffda00; stroke: #ffda00"/>
     <use xlink:href="#mab6a222cb7" x="250.343975" y="247.00252" style="fill: #ffda00; stroke: #ffda00"/>
     <use xlink:href="#mab6a222cb7" x="257.095381" y="259.911295" style="fill: #ffda00; stroke: #ffda00"/>
     <use xlink:href="#mab6a222cb7" x="267.075719" y="255.60837" style="fill: #ffda00; stroke: #ffda00"/>
     <use xlink:href="#mab6a222cb7" x="289.384712" y="259.911295" style="fill: #ffda00; stroke: #ffda00"/>
     <use xlink:href="#mab6a222cb7" x="302.300444" y="318.717935" style="fill: #ffda00; stroke: #ffda00"/>
     <use xlink:href="#mab6a222cb7" x="316.390334" y="206.841888" style="fill: #ffda00; stroke: #ffda00"/>
     <use xlink:href="#mab6a222cb7" x="328.425448" y="245.568212" style="fill: #ffda00; stroke: #ffda00"/>
     <use xlink:href="#mab6a222cb7" x="345.744271" y="249.871137" style="fill: #ffda00; stroke: #ffda00"/>
     <use xlink:href="#mab6a222cb7" x="359.540622" y="198.236038" style="fill: #ffda00; stroke: #ffda00"/>
     <use xlink:href="#mab6a222cb7" x="374.21759" y="150.903864" style="fill: #ffda00; stroke: #ffda00"/>
     <use xlink:href="#mab6a222cb7" x="381.556075" y="139.429398" style="fill: #ffda00; stroke: #ffda00"/>
     <use xlink:href="#mab6a222cb7" x="394.765346" y="182.458647" style="fill: #ffda00; stroke: #ffda00"/>
     <use xlink:href="#mab6a222cb7" x="405.039224" y="106.440307" style="fill: #ffda00; stroke: #ffda00"/>
     <use xlink:href="#mab6a222cb7" x="412.671248" y="258.476987" style="fill: #ffda00; stroke: #ffda00"/>
     <use xlink:href="#mab6a222cb7" x="418.835575" y="218.316354" style="fill: #ffda00; stroke: #ffda00"/>
     <use xlink:href="#mab6a222cb7" x="435.27378" y="136.560781" style="fill: #ffda00; stroke: #ffda00"/>
     <use xlink:href="#mab6a222cb7" x="439.97041" y="152.338172" style="fill: #ffda00; stroke: #ffda00"/>
     <use xlink:href="#mab6a222cb7" x="452.592603" y="130.823548" style="fill: #ffda00; stroke: #ffda00"/>
     <use xlink:href="#mab6a222cb7" x="456.115075" y="172.418489" style="fill: #ffda00; stroke: #ffda00"/>
     <use xlink:href="#mab6a222cb7" x="464.627717" y="158.075406" style="fill: #ffda00; stroke: #ffda00"/>
     <use xlink:href="#mab6a222cb7" x="474.608055" y="176.721414" style="fill: #ffda00; stroke: #ffda00"/>
     <use xlink:href="#mab6a222cb7" x="479.011146" y="155.206789" style="fill: #ffda00; stroke: #ffda00"/>
     <use xlink:href="#mab6a222cb7" x="488.697945" y="127.954931" style="fill: #ffda00; stroke: #ffda00"/>
     <use xlink:href="#mab6a222cb7" x="499.852441" y="116.480465" style="fill: #ffda00; stroke: #ffda00"/>
     <use xlink:href="#mab6a222cb7" x="501.613678" y="129.38924" style="fill: #ffda00; stroke: #ffda00"/>
     <use xlink:href="#mab6a222cb7" x="508.071544" y="40.462125" style="fill: #ffda00; stroke: #ffda00"/>
    </g>
   </g>
   <g id="PathCollection_7">
    <g clip-path="url(#p548233ad27)">
     <use xlink:href="#mab6a222cb7" x="528.032221" y="199.670346" style="fill: #ffda00; stroke: #ffda00"/>
     <use xlink:href="#mab6a222cb7" x="536.838402" y="183.892955" style="fill: #ffda00; stroke: #ffda00"/>
     <use xlink:href="#mab6a222cb7" x="546.818741" y="268.517145" style="fill: #ffda00; stroke: #ffda00"/>
     <use xlink:href="#mab6a222cb7" x="567.366497" y="249.871137" style="fill: #ffda00; stroke: #ffda00"/>
     <use xlink:href="#mab6a222cb7" x="579.98869" y="216.882046" style="fill: #ffda00; stroke: #ffda00"/>
     <use xlink:href="#mab6a222cb7" x="592.023804" y="231.225129" style="fill: #ffda00; stroke: #ffda00"/>
     <use xlink:href="#mab6a222cb7" x="597.894592" y="262.779912" style="fill: #ffda00; stroke: #ffda00"/>
     <use xlink:href="#mab6a222cb7" x="608.16847" y="252.739753" style="fill: #ffda00; stroke: #ffda00"/>
     <use xlink:href="#mab6a222cb7" x="618.735887" y="211.144813" style="fill: #ffda00; stroke: #ffda00"/>
     <use xlink:href="#mab6a222cb7" x="631.064541" y="219.750663" style="fill: #ffda00; stroke: #ffda00"/>
     <use xlink:href="#mab6a222cb7" x="643.393194" y="323.02086" style="fill: #ffda00; stroke: #ffda00"/>
     <use xlink:href="#mab6a222cb7" x="649.557521" y="261.345603" style="fill: #ffda00; stroke: #ffda00"/>
     <use xlink:href="#mab6a222cb7" x="676.269604" y="335.929635" style="fill: #ffda00; stroke: #ffda00"/>
     <use xlink:href="#mab6a222cb7" x="690.653033" y="272.82007" style="fill: #ffda00; stroke: #ffda00"/>
     <use xlink:href="#mab6a222cb7" x="698.578596" y="274.254378" style="fill: #ffda00; stroke: #ffda00"/>
     <use xlink:href="#mab6a222cb7" x="717.365116" y="254.174062" style="fill: #ffda00; stroke: #ffda00"/>
     <use xlink:href="#mab6a222cb7" x="727.345455" y="297.203311" style="fill: #ffda00; stroke: #ffda00"/>
     <use xlink:href="#mab6a222cb7" x="737.912872" y="241.265287" style="fill: #ffda00; stroke: #ffda00"/>
     <use xlink:href="#mab6a222cb7" x="754.351077" y="282.860228" style="fill: #ffda00; stroke: #ffda00"/>
     <use xlink:href="#mab6a222cb7" x="761.983101" y="222.619279" style="fill: #ffda00; stroke: #ffda00"/>
     <use xlink:href="#mab6a222cb7" x="789.282262" y="307.243469" style="fill: #ffda00; stroke: #ffda00"/>
     <use xlink:href="#mab6a222cb7" x="801.610916" y="196.80173" style="fill: #ffda00; stroke: #ffda00"/>
     <use xlink:href="#mab6a222cb7" x="809.830018" y="278.557303" style="fill: #ffda00; stroke: #ffda00"/>
     <use xlink:href="#mab6a222cb7" x="814.233109" y="216.882046" style="fill: #ffda00; stroke: #ffda00"/>
     <use xlink:href="#mab6a222cb7" x="828.322999" y="258.476987" style="fill: #ffda00; stroke: #ffda00"/>
     <use xlink:href="#mab6a222cb7" x="840.651652" y="275.688686" style="fill: #ffda00; stroke: #ffda00"/>
     <use xlink:href="#mab6a222cb7" x="850.92553" y="255.60837" style="fill: #ffda00; stroke: #ffda00"/>
     <use xlink:href="#mab6a222cb7" x="861.199408" y="224.053587" style="fill: #ffda00; stroke: #ffda00"/>
     <use xlink:href="#mab6a222cb7" x="869.418511" y="201.104655" style="fill: #ffda00; stroke: #ffda00"/>
     <use xlink:href="#mab6a222cb7" x="877.931153" y="214.013429" style="fill: #ffda00; stroke: #ffda00"/>
     <use xlink:href="#mab6a222cb7" x="883.80194" y="291.466078" style="fill: #ffda00; stroke: #ffda00"/>
    </g>
   </g>
   <g id="matplotlib.axis_1">
    <g id="xtick_1">
     <g id="line2d_1">
      <defs>
       <path id="m703a2f9e22" d="M 0 0 
L 0 3.5 
" style="stroke: #000000; stroke-width: 0.8"/>
      </defs>
      <g>
       <use xlink:href="#m703a2f9e22" x="67.762486" y="421.486125" style="stroke: #000000; stroke-width: 0.8"/>
      </g>
     </g>
     <g id="text_1">
      <!-- 2016 -->
      <g transform="translate(55.037486 436.084563) scale(0.1 -0.1)">
       <defs>
        <path id="DejaVuSans-32" d="M 1228 531 
L 3431 531 
L 3431 0 
L 469 0 
L 469 531 
Q 828 903 1448 1529 
Q 2069 2156 2228 2338 
Q 2531 2678 2651 2914 
Q 2772 3150 2772 3378 
Q 2772 3750 2511 3984 
Q 2250 4219 1831 4219 
Q 1534 4219 1204 4116 
Q 875 4013 500 3803 
L 500 4441 
Q 881 4594 1212 4672 
Q 1544 4750 1819 4750 
Q 2544 4750 2975 4387 
Q 3406 4025 3406 3419 
Q 3406 3131 3298 2873 
Q 3191 2616 2906 2266 
Q 2828 2175 2409 1742 
Q 1991 1309 1228 531 
z
" transform="scale(0.015625)"/>
        <path id="DejaVuSans-30" d="M 2034 4250 
Q 1547 4250 1301 3770 
Q 1056 3291 1056 2328 
Q 1056 1369 1301 889 
Q 1547 409 2034 409 
Q 2525 409 2770 889 
Q 3016 1369 3016 2328 
Q 3016 3291 2770 3770 
Q 2525 4250 2034 4250 
z
M 2034 4750 
Q 2819 4750 3233 4129 
Q 3647 3509 3647 2328 
Q 3647 1150 3233 529 
Q 2819 -91 2034 -91 
Q 1250 -91 836 529 
Q 422 1150 422 2328 
Q 422 3509 836 4129 
Q 1250 4750 2034 4750 
z
" transform="scale(0.015625)"/>
        <path id="DejaVuSans-31" d="M 794 531 
L 1825 531 
L 1825 4091 
L 703 3866 
L 703 4441 
L 1819 4666 
L 2450 4666 
L 2450 531 
L 3481 531 
L 3481 0 
L 794 0 
L 794 531 
z
" transform="scale(0.015625)"/>
        <path id="DejaVuSans-36" d="M 2113 2584 
Q 1688 2584 1439 2293 
Q 1191 2003 1191 1497 
Q 1191 994 1439 701 
Q 1688 409 2113 409 
Q 2538 409 2786 701 
Q 3034 994 3034 1497 
Q 3034 2003 2786 2293 
Q 2538 2584 2113 2584 
z
M 3366 4563 
L 3366 3988 
Q 3128 4100 2886 4159 
Q 2644 4219 2406 4219 
Q 1781 4219 1451 3797 
Q 1122 3375 1075 2522 
Q 1259 2794 1537 2939 
Q 1816 3084 2150 3084 
Q 2853 3084 3261 2657 
Q 3669 2231 3669 1497 
Q 3669 778 3244 343 
Q 2819 -91 2113 -91 
Q 1303 -91 875 529 
Q 447 1150 447 2328 
Q 447 3434 972 4092 
Q 1497 4750 2381 4750 
Q 2619 4750 2861 4703 
Q 3103 4656 3366 4563 
z
" transform="scale(0.015625)"/>
       </defs>
       <use xlink:href="#DejaVuSans-32"/>
       <use xlink:href="#DejaVuSans-30" x="63.623047"/>
       <use xlink:href="#DejaVuSans-31" x="127.246094"/>
       <use xlink:href="#DejaVuSans-36" x="190.869141"/>
      </g>
     </g>
    </g>
    <g id="xtick_2">
     <g id="line2d_2">
      <g>
       <use xlink:href="#m703a2f9e22" x="175.197896" y="421.486125" style="stroke: #000000; stroke-width: 0.8"/>
      </g>
     </g>
     <g id="text_2">
      <!-- 2017 -->
      <g transform="translate(162.472896 436.084563) scale(0.1 -0.1)">
       <defs>
        <path id="DejaVuSans-37" d="M 525 4666 
L 3525 4666 
L 3525 4397 
L 1831 0 
L 1172 0 
L 2766 4134 
L 525 4134 
L 525 4666 
z
" transform="scale(0.015625)"/>
       </defs>
       <use xlink:href="#DejaVuSans-32"/>
       <use xlink:href="#DejaVuSans-30" x="63.623047"/>
       <use xlink:href="#DejaVuSans-31" x="127.246094"/>
       <use xlink:href="#DejaVuSans-37" x="190.869141"/>
      </g>
     </g>
    </g>
    <g id="xtick_3">
     <g id="line2d_3">
      <g>
       <use xlink:href="#m703a2f9e22" x="282.339767" y="421.486125" style="stroke: #000000; stroke-width: 0.8"/>
      </g>
     </g>
     <g id="text_3">
      <!-- 2018 -->
      <g transform="translate(269.614767 436.084563) scale(0.1 -0.1)">
       <defs>
        <path id="DejaVuSans-38" d="M 2034 2216 
Q 1584 2216 1326 1975 
Q 1069 1734 1069 1313 
Q 1069 891 1326 650 
Q 1584 409 2034 409 
Q 2484 409 2743 651 
Q 3003 894 3003 1313 
Q 3003 1734 2745 1975 
Q 2488 2216 2034 2216 
z
M 1403 2484 
Q 997 2584 770 2862 
Q 544 3141 544 3541 
Q 544 4100 942 4425 
Q 1341 4750 2034 4750 
Q 2731 4750 3128 4425 
Q 3525 4100 3525 3541 
Q 3525 3141 3298 2862 
Q 3072 2584 2669 2484 
Q 3125 2378 3379 2068 
Q 3634 1759 3634 1313 
Q 3634 634 3220 271 
Q 2806 -91 2034 -91 
Q 1263 -91 848 271 
Q 434 634 434 1313 
Q 434 1759 690 2068 
Q 947 2378 1403 2484 
z
M 1172 3481 
Q 1172 3119 1398 2916 
Q 1625 2713 2034 2713 
Q 2441 2713 2670 2916 
Q 2900 3119 2900 3481 
Q 2900 3844 2670 4047 
Q 2441 4250 2034 4250 
Q 1625 4250 1398 4047 
Q 1172 3844 1172 3481 
z
" transform="scale(0.015625)"/>
       </defs>
       <use xlink:href="#DejaVuSans-32"/>
       <use xlink:href="#DejaVuSans-30" x="63.623047"/>
       <use xlink:href="#DejaVuSans-31" x="127.246094"/>
       <use xlink:href="#DejaVuSans-38" x="190.869141"/>
      </g>
     </g>
    </g>
    <g id="xtick_4">
     <g id="line2d_4">
      <g>
       <use xlink:href="#m703a2f9e22" x="389.481638" y="421.486125" style="stroke: #000000; stroke-width: 0.8"/>
      </g>
     </g>
     <g id="text_4">
      <!-- 2019 -->
      <g transform="translate(376.756638 436.084563) scale(0.1 -0.1)">
       <defs>
        <path id="DejaVuSans-39" d="M 703 97 
L 703 672 
Q 941 559 1184 500 
Q 1428 441 1663 441 
Q 2288 441 2617 861 
Q 2947 1281 2994 2138 
Q 2813 1869 2534 1725 
Q 2256 1581 1919 1581 
Q 1219 1581 811 2004 
Q 403 2428 403 3163 
Q 403 3881 828 4315 
Q 1253 4750 1959 4750 
Q 2769 4750 3195 4129 
Q 3622 3509 3622 2328 
Q 3622 1225 3098 567 
Q 2575 -91 1691 -91 
Q 1453 -91 1209 -44 
Q 966 3 703 97 
z
M 1959 2075 
Q 2384 2075 2632 2365 
Q 2881 2656 2881 3163 
Q 2881 3666 2632 3958 
Q 2384 4250 1959 4250 
Q 1534 4250 1286 3958 
Q 1038 3666 1038 3163 
Q 1038 2656 1286 2365 
Q 1534 2075 1959 2075 
z
" transform="scale(0.015625)"/>
       </defs>
       <use xlink:href="#DejaVuSans-32"/>
       <use xlink:href="#DejaVuSans-30" x="63.623047"/>
       <use xlink:href="#DejaVuSans-31" x="127.246094"/>
       <use xlink:href="#DejaVuSans-39" x="190.869141"/>
      </g>
     </g>
    </g>
    <g id="xtick_5">
     <g id="line2d_5">
      <g>
       <use xlink:href="#m703a2f9e22" x="496.623508" y="421.486125" style="stroke: #000000; stroke-width: 0.8"/>
      </g>
     </g>
     <g id="text_5">
      <!-- 2020 -->
      <g transform="translate(483.898508 436.084563) scale(0.1 -0.1)">
       <use xlink:href="#DejaVuSans-32"/>
       <use xlink:href="#DejaVuSans-30" x="63.623047"/>
       <use xlink:href="#DejaVuSans-32" x="127.246094"/>
       <use xlink:href="#DejaVuSans-30" x="190.869141"/>
      </g>
     </g>
    </g>
    <g id="xtick_6">
     <g id="line2d_6">
      <g>
       <use xlink:href="#m703a2f9e22" x="604.058919" y="421.486125" style="stroke: #000000; stroke-width: 0.8"/>
      </g>
     </g>
     <g id="text_6">
      <!-- 2021 -->
      <g transform="translate(591.333919 436.084563) scale(0.1 -0.1)">
       <use xlink:href="#DejaVuSans-32"/>
       <use xlink:href="#DejaVuSans-30" x="63.623047"/>
       <use xlink:href="#DejaVuSans-32" x="127.246094"/>
       <use xlink:href="#DejaVuSans-31" x="190.869141"/>
      </g>
     </g>
    </g>
    <g id="xtick_7">
     <g id="line2d_7">
      <g>
       <use xlink:href="#m703a2f9e22" x="711.200789" y="421.486125" style="stroke: #000000; stroke-width: 0.8"/>
      </g>
     </g>
     <g id="text_7">
      <!-- 2022 -->
      <g transform="translate(698.475789 436.084563) scale(0.1 -0.1)">
       <use xlink:href="#DejaVuSans-32"/>
       <use xlink:href="#DejaVuSans-30" x="63.623047"/>
       <use xlink:href="#DejaVuSans-32" x="127.246094"/>
       <use xlink:href="#DejaVuSans-32" x="190.869141"/>
      </g>
     </g>
    </g>
    <g id="xtick_8">
     <g id="line2d_8">
      <g>
       <use xlink:href="#m703a2f9e22" x="818.34266" y="421.486125" style="stroke: #000000; stroke-width: 0.8"/>
      </g>
     </g>
     <g id="text_8">
      <!-- 2023 -->
      <g transform="translate(805.61766 436.084563) scale(0.1 -0.1)">
       <defs>
        <path id="DejaVuSans-33" d="M 2597 2516 
Q 3050 2419 3304 2112 
Q 3559 1806 3559 1356 
Q 3559 666 3084 287 
Q 2609 -91 1734 -91 
Q 1441 -91 1130 -33 
Q 819 25 488 141 
L 488 750 
Q 750 597 1062 519 
Q 1375 441 1716 441 
Q 2309 441 2620 675 
Q 2931 909 2931 1356 
Q 2931 1769 2642 2001 
Q 2353 2234 1838 2234 
L 1294 2234 
L 1294 2753 
L 1863 2753 
Q 2328 2753 2575 2939 
Q 2822 3125 2822 3475 
Q 2822 3834 2567 4026 
Q 2313 4219 1838 4219 
Q 1578 4219 1281 4162 
Q 984 4106 628 3988 
L 628 4550 
Q 988 4650 1302 4700 
Q 1616 4750 1894 4750 
Q 2613 4750 3031 4423 
Q 3450 4097 3450 3541 
Q 3450 3153 3228 2886 
Q 3006 2619 2597 2516 
z
" transform="scale(0.015625)"/>
       </defs>
       <use xlink:href="#DejaVuSans-32"/>
       <use xlink:href="#DejaVuSans-30" x="63.623047"/>
       <use xlink:href="#DejaVuSans-32" x="127.246094"/>
       <use xlink:href="#DejaVuSans-33" x="190.869141"/>
      </g>
     </g>
    </g>
    <g id="xtick_9">
     <g id="line2d_9">
      <g>
       <use xlink:href="#m703a2f9e22" x="925.484531" y="421.486125" style="stroke: #000000; stroke-width: 0.8"/>
      </g>
     </g>
     <g id="text_9">
      <!-- 2024 -->
      <g transform="translate(912.759531 436.084563) scale(0.1 -0.1)">
       <defs>
        <path id="DejaVuSans-34" d="M 2419 4116 
L 825 1625 
L 2419 1625 
L 2419 4116 
z
M 2253 4666 
L 3047 4666 
L 3047 1625 
L 3713 1625 
L 3713 1100 
L 3047 1100 
L 3047 0 
L 2419 0 
L 2419 1100 
L 313 1100 
L 313 1709 
L 2253 4666 
z
" transform="scale(0.015625)"/>
       </defs>
       <use xlink:href="#DejaVuSans-32"/>
       <use xlink:href="#DejaVuSans-30" x="63.623047"/>
       <use xlink:href="#DejaVuSans-32" x="127.246094"/>
       <use xlink:href="#DejaVuSans-34" x="190.869141"/>
      </g>
     </g>
    </g>
   </g>
   <g id="matplotlib.axis_2">
    <g id="ytick_1">
     <g id="line2d_10">
      <path d="M 45.967188 371.787342 
L 938.767187 371.787342 
" clip-path="url(#p548233ad27)" style="fill: none; stroke: #b0b0b0; stroke-opacity: 0.3; stroke-width: 0.8; stroke-linecap: square"/>
     </g>
     <g id="line2d_11">
      <defs>
       <path id="me3897909e5" d="M 0 0 
L -3.5 0 
" style="stroke: #000000; stroke-width: 0.8"/>
      </defs>
      <g>
       <use xlink:href="#me3897909e5" x="45.967188" y="371.787342" style="stroke: #000000; stroke-width: 0.8"/>
      </g>
     </g>
     <g id="text_10">
      <!-- 60.0% -->
      <g transform="translate(7.2 375.586561) scale(0.1 -0.1)">
       <defs>
        <path id="DejaVuSans-2e" d="M 684 794 
L 1344 794 
L 1344 0 
L 684 0 
L 684 794 
z
" transform="scale(0.015625)"/>
        <path id="DejaVuSans-25" d="M 4653 2053 
Q 4381 2053 4226 1822 
Q 4072 1591 4072 1178 
Q 4072 772 4226 539 
Q 4381 306 4653 306 
Q 4919 306 5073 539 
Q 5228 772 5228 1178 
Q 5228 1588 5073 1820 
Q 4919 2053 4653 2053 
z
M 4653 2450 
Q 5147 2450 5437 2106 
Q 5728 1763 5728 1178 
Q 5728 594 5436 251 
Q 5144 -91 4653 -91 
Q 4153 -91 3862 251 
Q 3572 594 3572 1178 
Q 3572 1766 3864 2108 
Q 4156 2450 4653 2450 
z
M 1428 4353 
Q 1159 4353 1004 4120 
Q 850 3888 850 3481 
Q 850 3069 1003 2837 
Q 1156 2606 1428 2606 
Q 1700 2606 1854 2837 
Q 2009 3069 2009 3481 
Q 2009 3884 1853 4118 
Q 1697 4353 1428 4353 
z
M 4250 4750 
L 4750 4750 
L 1831 -91 
L 1331 -91 
L 4250 4750 
z
M 1428 4750 
Q 1922 4750 2215 4408 
Q 2509 4066 2509 3481 
Q 2509 2891 2217 2550 
Q 1925 2209 1428 2209 
Q 931 2209 642 2551 
Q 353 2894 353 3481 
Q 353 4063 643 4406 
Q 934 4750 1428 4750 
z
" transform="scale(0.015625)"/>
       </defs>
       <use xlink:href="#DejaVuSans-36"/>
       <use xlink:href="#DejaVuSans-30" x="63.623047"/>
       <use xlink:href="#DejaVuSans-2e" x="127.246094"/>
       <use xlink:href="#DejaVuSans-30" x="159.033203"/>
       <use xlink:href="#DejaVuSans-25" x="222.65625"/>
      </g>
     </g>
    </g>
    <g id="ytick_2">
     <g id="line2d_12">
      <path d="M 45.967188 300.071927 
L 938.767187 300.071927 
" clip-path="url(#p548233ad27)" style="fill: none; stroke: #b0b0b0; stroke-opacity: 0.3; stroke-width: 0.8; stroke-linecap: square"/>
     </g>
     <g id="line2d_13">
      <g>
       <use xlink:href="#me3897909e5" x="45.967188" y="300.071927" style="stroke: #000000; stroke-width: 0.8"/>
      </g>
     </g>
     <g id="text_11">
      <!-- 65.0% -->
      <g transform="translate(7.2 303.871146) scale(0.1 -0.1)">
       <defs>
        <path id="DejaVuSans-35" d="M 691 4666 
L 3169 4666 
L 3169 4134 
L 1269 4134 
L 1269 2991 
Q 1406 3038 1543 3061 
Q 1681 3084 1819 3084 
Q 2600 3084 3056 2656 
Q 3513 2228 3513 1497 
Q 3513 744 3044 326 
Q 2575 -91 1722 -91 
Q 1428 -91 1123 -41 
Q 819 9 494 109 
L 494 744 
Q 775 591 1075 516 
Q 1375 441 1709 441 
Q 2250 441 2565 725 
Q 2881 1009 2881 1497 
Q 2881 1984 2565 2268 
Q 2250 2553 1709 2553 
Q 1456 2553 1204 2497 
Q 953 2441 691 2322 
L 691 4666 
z
" transform="scale(0.015625)"/>
       </defs>
       <use xlink:href="#DejaVuSans-36"/>
       <use xlink:href="#DejaVuSans-35" x="63.623047"/>
       <use xlink:href="#DejaVuSans-2e" x="127.246094"/>
       <use xlink:href="#DejaVuSans-30" x="159.033203"/>
       <use xlink:href="#DejaVuSans-25" x="222.65625"/>
      </g>
     </g>
    </g>
    <g id="ytick_3">
     <g id="line2d_14">
      <path d="M 45.967188 228.356512 
L 938.767187 228.356512 
" clip-path="url(#p548233ad27)" style="fill: none; stroke: #b0b0b0; stroke-opacity: 0.3; stroke-width: 0.8; stroke-linecap: square"/>
     </g>
     <g id="line2d_15">
      <g>
       <use xlink:href="#me3897909e5" x="45.967188" y="228.356512" style="stroke: #000000; stroke-width: 0.8"/>
      </g>
     </g>
     <g id="text_12">
      <!-- 70.0% -->
      <g transform="translate(7.2 232.155731) scale(0.1 -0.1)">
       <use xlink:href="#DejaVuSans-37"/>
       <use xlink:href="#DejaVuSans-30" x="63.623047"/>
       <use xlink:href="#DejaVuSans-2e" x="127.246094"/>
       <use xlink:href="#DejaVuSans-30" x="159.033203"/>
       <use xlink:href="#DejaVuSans-25" x="222.65625"/>
      </g>
     </g>
    </g>
    <g id="ytick_4">
     <g id="line2d_16">
      <path d="M 45.967188 156.641097 
L 938.767187 156.641097 
" clip-path="url(#p548233ad27)" style="fill: none; stroke: #b0b0b0; stroke-opacity: 0.3; stroke-width: 0.8; stroke-linecap: square"/>
     </g>
     <g id="line2d_17">
      <g>
       <use xlink:href="#me3897909e5" x="45.967188" y="156.641097" style="stroke: #000000; stroke-width: 0.8"/>
      </g>
     </g>
     <g id="text_13">
      <!-- 75.0% -->
      <g transform="translate(7.2 160.440316) scale(0.1 -0.1)">
       <use xlink:href="#DejaVuSans-37"/>
       <use xlink:href="#DejaVuSans-35" x="63.623047"/>
       <use xlink:href="#DejaVuSans-2e" x="127.246094"/>
       <use xlink:href="#DejaVuSans-30" x="159.033203"/>
       <use xlink:href="#DejaVuSans-25" x="222.65625"/>
      </g>
     </g>
    </g>
    <g id="ytick_5">
     <g id="line2d_18">
      <path d="M 45.967188 84.925682 
L 938.767187 84.925682 
" clip-path="url(#p548233ad27)" style="fill: none; stroke: #b0b0b0; stroke-opacity: 0.3; stroke-width: 0.8; stroke-linecap: square"/>
     </g>
     <g id="line2d_19">
      <g>
       <use xlink:href="#me3897909e5" x="45.967188" y="84.925682" style="stroke: #000000; stroke-width: 0.8"/>
      </g>
     </g>
     <g id="text_14">
      <!-- 80.0% -->
      <g transform="translate(7.2 88.724901) scale(0.1 -0.1)">
       <use xlink:href="#DejaVuSans-38"/>
       <use xlink:href="#DejaVuSans-30" x="63.623047"/>
       <use xlink:href="#DejaVuSans-2e" x="127.246094"/>
       <use xlink:href="#DejaVuSans-30" x="159.033203"/>
       <use xlink:href="#DejaVuSans-25" x="222.65625"/>
      </g>
     </g>
    </g>
   </g>
   <g id="line2d_20">
    <path d="M 86.549006 421.486125 
L 86.549006 22.318125 
" clip-path="url(#p548233ad27)" style="fill: none; stroke: #000000; stroke-linecap: square"/>
   </g>
   <g id="line2d_21">
    <path d="M 513.942331 421.486125 
L 513.942331 22.318125 
" clip-path="url(#p548233ad27)" style="fill: none; stroke: #000000; stroke-linecap: square"/>
   </g>
   <g id="line2d_22">
    <path d="M 898.185369 421.486125 
L 898.185369 22.318125 
" clip-path="url(#p548233ad27)" style="fill: none; stroke: #000000; stroke-linecap: square"/>
   </g>
   <g id="line2d_23">
    <path d="M 95.648726 86.747895 
L 101.813053 99.486046 
L 107.97738 111.700167 
L 113.848167 122.848454 
L 119.718955 133.52705 
L 125.589742 143.738904 
L 130.873451 152.533218 
L 131.16699 149.427215 
L 137.037778 158.814189 
L 142.615026 167.321337 
L 148.192274 175.431915 
L 151.127668 179.542443 
L 151.421207 176.436106 
L 156.998455 183.880237 
L 162.575703 190.949926 
L 167.859412 197.302859 
L 168.152951 201.256643 
L 173.43666 207.264946 
L 178.720368 212.932306 
L 184.004077 218.262167 
L 188.994247 222.988482 
L 193.984416 227.41837 
L 194.277955 227.66976 
L 194.571495 226.263195 
L 199.561664 230.398249 
L 204.551833 234.247591 
L 209.542003 237.81722 
L 214.532172 241.120634 
L 218.641723 243.660695 
L 218.935262 245.248125 
L 221.283577 246.582894 
L 221.577117 243.42161 
L 227.741444 246.798466 
L 230.089759 248.04707 
L 230.383298 250.263764 
L 232.731613 251.531834 
L 233.025152 248.851633 
L 235.373467 250.139963 
L 235.667007 252.254949 
L 238.015322 252.351241 
L 239.483019 252.216665 
L 239.776558 253.546587 
L 240.657176 253.289192 
L 241.537794 252.723164 
L 242.124873 252.137746 
L 242.418412 243.414101 
L 243.005491 241.389298 
L 243.29903 250.419766 
L 243.59257 249.871897 
L 243.886109 242.00884 
L 244.766727 240.279426 
L 245.060267 249.110442 
L 246.821503 247.147017 
L 247.115042 239.780517 
L 248.582739 238.131597 
L 248.876278 235.587366 
L 249.169818 239.930935 
L 250.931054 238.612202 
L 255.627684 235.178198 
L 255.921223 232.890799 
L 257.975999 231.818859 
L 258.563078 231.554178 
L 258.856617 235.4981 
L 267.075719 231.26345 
L 270.304653 229.878773 
L 271.47881 229.437795 
L 271.772349 232.554663 
L 277.936676 229.850082 
L 281.752688 228.413587 
L 284.981621 227.438156 
L 287.917015 226.780601 
L 292.320105 225.864109 
L 294.66842 225.041153 
L 296.429657 224.285286 
L 296.723196 223.656109 
L 299.36505 222.425753 
L 302.300444 220.833288 
L 302.593983 220.394735 
L 306.409995 217.995558 
L 309.05185 216.258718 
L 309.345389 216.388569 
L 310.226007 215.817356 
L 310.519547 216.176503 
L 316.977413 212.179229 
L 317.270952 211.746017 
L 320.793425 209.786726 
L 322.554661 208.898214 
L 322.8482 208.287125 
L 323.14174 208.613571 
L 326.664212 207.044499 
L 332.24146 204.881332 
L 336.93809 203.377631 
L 341.928259 202.023638 
L 347.211968 200.823169 
L 348.679665 200.526516 
L 348.973204 200.992276 
L 355.137531 200.055749 
L 358.953543 199.582579 
L 359.247082 198.777444 
L 366.292027 197.925555 
L 373.924051 197.235597 
L 381.849614 196.746177 
L 386.839783 196.548495 
L 387.133323 198.717743 
L 395.939504 198.877996 
L 402.103831 199.121443 
L 402.39737 196.432833 
L 411.203551 196.682243 
L 420.009732 197.151803 
L 428.815913 197.841622 
L 437.622095 198.756579 
L 446.134736 199.863379 
L 454.647378 201.198271 
L 462.866481 202.713259 
L 470.792044 204.393941 
L 478.717607 206.29941 
L 484.881934 207.941049 
L 484.881934 207.941049 
" clip-path="url(#p548233ad27)" style="fill: none; stroke: #007c85; stroke-width: 2; stroke-linecap: square"/>
   </g>
   <g id="line2d_24">
    <path d="M 527.445142 285.257919 
L 532.141772 290.175649 
L 536.838402 294.758768 
L 541.241493 298.753784 
L 545.057505 301.98215 
L 545.351044 301.815827 
L 549.754135 305.272172 
L 554.157225 308.442619 
L 558.560316 311.330416 
L 562.963406 313.940554 
L 567.366497 316.278413 
L 571.769588 318.349652 
L 576.172678 320.160563 
L 583.511163 322.835969 
L 587.914253 323.957431 
L 592.317344 324.84202 
L 596.720434 325.497443 
L 601.123525 325.931711 
L 605.526615 326.153146 
L 610.223245 326.164387 
L 614.919875 325.953389 
L 619.029427 325.565585 
L 624.019596 324.936564 
L 629.009765 324.072625 
L 633.412856 323.106581 
L 634.880553 322.707917 
L 639.577183 321.363654 
L 643.980273 319.868698 
L 644.860891 319.539593 
L 645.44797 319.167389 
L 647.502746 318.343713 
L 647.796285 318.396261 
L 651.025218 316.894022 
L 651.612297 316.504224 
L 654.84123 314.808299 
L 657.189545 313.319327 
L 658.950781 311.915366 
L 660.124939 310.714496 
L 660.712017 309.985347 
L 661.005557 308.396328 
L 661.299096 307.758008 
L 661.592635 305.618361 
L 662.179714 305.005424 
L 662.473254 307.066635 
L 662.766793 306.509079 
L 663.060332 304.523804 
L 663.353872 304.208891 
L 663.647411 304.418939 
L 665.115108 302.8385 
L 665.995726 301.862824 
L 666.289265 302.016229 
L 668.93112 299.092186 
L 669.224659 298.754796 
L 669.518199 297.544395 
L 669.811738 297.605197 
L 670.105277 297.255158 
L 670.398817 297.403293 
L 674.508368 292.860324 
L 675.388986 291.961019 
L 675.682525 290.105886 
L 677.737301 288.01083 
L 678.911458 286.948172 
L 679.204998 285.870201 
L 679.498537 285.585071 
L 679.792077 286.981052 
L 681.259773 285.511587 
L 681.553313 284.336498 
L 682.140392 283.805733 
L 682.433931 285.482916 
L 684.488706 283.595772 
L 684.782246 282.319275 
L 685.662864 281.631185 
L 685.956403 280.565833 
L 688.891797 278.91753 
L 693.001348 276.91423 
L 695.349663 275.935455 
L 699.165675 274.665556 
L 702.394608 273.825255 
L 705.036463 273.299086 
L 705.330002 274.342801 
L 705.917081 274.219248 
L 706.21062 273.542998 
L 709.439553 273.120697 
L 712.374947 272.957476 
L 715.016801 273.018379 
L 717.365116 273.276011 
L 719.126352 273.621938 
L 719.419892 273.75471 
L 719.713431 273.350351 
L 720.887589 273.742847 
L 721.181128 274.177843 
L 722.061746 274.729804 
L 722.648825 276.860014 
L 723.529443 277.502719 
L 725.877758 278.706292 
L 728.813152 280.513771 
L 731.748545 282.539344 
L 733.509782 283.725851 
L 737.325793 285.935424 
L 737.619333 286.304175 
L 740.261187 287.943565 
L 740.554727 287.989591 
L 740.848266 287.717882 
L 742.609502 288.08011 
L 744.077199 288.144233 
L 744.664278 288.636343 
L 744.957817 288.815484 
L 745.251356 290.327586 
L 747.893211 292.142206 
L 748.18675 291.3637 
L 749.654447 292.216342 
L 749.947986 291.131893 
L 750.241526 292.429626 
L 753.17692 293.401264 
L 753.470459 289.739948 
L 753.763998 293.567379 
L 754.938156 293.996598 
L 755.818774 294.605684 
L 756.112313 293.361101 
L 757.58001 294.413308 
L 757.873549 296.166831 
L 758.167089 293.611903 
L 759.341246 294.473168 
L 759.634786 297.478846 
L 761.102483 297.933303 
L 762.27664 299.238515 
L 762.570179 301.620227 
L 764.331416 303.823475 
L 764.918494 304.488473 
L 766.092652 304.957434 
L 766.386191 303.406384 
L 766.97327 303.568603 
L 767.266809 304.066132 
L 767.560349 306.052343 
L 769.028046 308.088231 
L 769.321585 307.590971 
L 770.495742 309.407338 
L 770.789282 310.317183 
L 771.376361 310.982243 
L 772.844057 311.121319 
L 774.898833 311.059395 
L 775.192372 311.038739 
L 775.485912 310.383449 
L 780.476081 309.453789 
L 780.769621 309.41827 
L 781.06316 307.972775 
L 783.411475 307.569311 
L 786.053329 307.373968 
L 788.988723 307.385026 
L 790.749959 307.470223 
L 791.043499 304.036292 
L 794.565971 304.53937 
L 799.55614 305.503663 
L 812.178333 308.029428 
L 817.755581 308.882978 
L 822.745751 309.425011 
L 827.73592 309.735475 
L 828.910078 309.775073 
L 829.203617 309.439289 
L 833.900247 309.15483 
L 838.596877 308.656845 
L 843.587046 307.895989 
L 848.577215 306.911451 
L 853.860924 305.646361 
L 859.731712 304.001744 
L 866.189578 301.949457 
L 873.234523 299.475014 
L 880.866546 296.55757 
L 883.214861 295.611975 
L 883.214861 295.611975 
" clip-path="url(#p548233ad27)" style="fill: none; stroke: #007c85; stroke-width: 2; stroke-linecap: square"/>
   </g>
   <g id="line2d_25">
    <path d="M 88.897321 176.220335 
L 99.758277 184.141697 
L 111.793392 192.636811 
L 116.490022 195.875193 
L 116.783561 196.379437 
L 124.415585 201.587962 
L 124.709124 202.075514 
L 134.395923 208.499072 
L 143.202104 214.070901 
L 151.127668 218.827804 
L 158.759691 223.14817 
L 165.804636 226.887812 
L 166.978794 227.486786 
L 167.272333 227.490797 
L 174.317278 230.934207 
L 181.362223 234.130336 
L 182.53638 234.63946 
L 182.82992 234.128388 
L 185.765313 235.405016 
L 186.058853 236.127746 
L 193.397337 239.050815 
L 201.909979 242.19109 
L 216.586947 247.535081 
L 221.577117 249.707019 
L 223.925432 250.890594 
L 224.512511 251.320255 
L 224.80605 251.350614 
L 230.089759 254.017711 
L 232.731613 255.12964 
L 235.373467 255.99564 
L 239.483019 257.014426 
L 240.950715 257.406721 
L 241.537794 257.685732 
L 243.005491 258.003271 
L 246.234424 258.49846 
L 249.756897 258.825632 
L 250.050436 258.540614 
L 250.343975 258.593373 
L 250.637515 258.995726 
L 251.518133 259.166175 
L 251.811672 258.943735 
L 252.105212 258.996404 
L 252.398751 258.928858 
L 252.69229 258.979447 
L 252.98583 259.444831 
L 255.334145 259.782682 
L 260.030775 259.704131 
L 261.792011 259.731567 
L 265.020944 259.914671 
L 279.697912 258.622415 
L 283.220385 258.111831 
L 286.155779 257.424972 
L 290.852409 256.208495 
L 294.96196 255.583854 
L 296.723196 255.272087 
L 299.071511 254.128439 
L 302.300444 253.634664 
L 306.997074 250.399339 
L 309.05185 249.0044 
L 311.693704 248.093921 
L 313.74848 247.175673 
L 315.803255 246.024551 
L 317.270952 245.06395 
L 317.564491 244.725948 
L 317.858031 245.483782 
L 318.738649 244.599313 
L 319.032188 243.715999 
L 321.674043 241.666347 
L 322.261121 240.919256 
L 322.8482 240.046297 
L 323.14174 237.839159 
L 323.435279 240.882761 
L 323.728818 239.717657 
L 324.902976 237.582934 
L 325.196515 234.836254 
L 325.490055 234.047631 
L 325.783594 232.328666 
L 326.370673 231.494494 
L 331.947921 225.727676 
L 334.002696 223.650867 
L 335.176854 222.157472 
L 335.470393 221.829151 
L 335.763933 220.899553 
L 337.231629 219.415265 
L 337.525169 219.153959 
L 337.818708 218.360273 
L 338.405787 217.877008 
L 338.992866 218.571932 
L 339.286405 216.697746 
L 339.579944 216.862194 
L 342.515338 214.182811 
L 342.808877 214.488371 
L 345.744271 211.803534 
L 346.037811 212.270886 
L 346.33135 211.252016 
L 348.092586 209.718367 
L 349.266744 208.803067 
L 349.560283 209.221638 
L 351.908598 206.809807 
L 352.202137 205.767821 
L 354.843992 202.65755 
L 356.018149 201.145998 
L 356.311689 200.137088 
L 357.485846 199.108902 
L 357.779385 199.496574 
L 360.714779 196.644709 
L 361.301858 195.901198 
L 361.595397 196.248382 
L 363.356633 193.409462 
L 363.650173 192.901266 
L 363.943712 191.348688 
L 364.237252 190.772186 
L 364.530791 191.325748 
L 365.411409 189.698205 
L 365.704948 186.576631 
L 365.998488 188.598155 
L 368.346803 184.450138 
L 369.8145 182.237823 
L 370.401578 181.571821 
L 370.695118 183.945885 
L 374.21759 180.513161 
L 375.391748 179.318438 
L 378.327141 175.500412 
L 379.20776 174.696735 
L 379.501299 170.503499 
L 379.794838 170.063096 
L 380.088378 160.840896 
L 382.143153 157.889132 
L 382.436693 159.056632 
L 384.491468 156.20236 
L 385.665626 155.230997 
L 385.959165 167.362868 
L 388.013941 166.002757 
L 392.123492 161.598329 
L 394.471807 159.372033 
L 395.645964 158.376759 
L 395.939504 144.083928 
L 398.581358 141.339664 
L 399.168437 141.106917 
L 400.342594 141.005378 
L 401.223212 141.088719 
L 402.103831 141.37585 
L 402.39737 139.383177 
L 402.984449 139.517455 
L 403.277988 151.756518 
L 403.571527 139.749195 
L 404.452146 140.366987 
L 404.745685 143.995346 
L 405.039224 144.474579 
L 405.332764 139.079617 
L 405.626303 139.343316 
L 405.919842 150.309263 
L 406.213382 142.943582 
L 406.800461 144.203927 
L 407.094 139.238675 
L 407.387539 142.343276 
L 407.681079 143.082729 
L 407.974618 153.387514 
L 409.148776 154.8336 
L 409.442315 158.192185 
L 410.910012 159.125873 
L 412.377709 159.819256 
L 414.138945 160.393717 
L 415.900181 160.745385 
L 417.954957 160.939065 
L 418.248496 160.951051 
L 418.542035 162.962224 
L 421.477429 162.656829 
L 424.999902 162.071057 
L 426.761138 161.712022 
L 427.054677 159.182797 
L 429.402992 158.789292 
L 429.696532 159.625864 
L 434.393162 158.503462 
L 440.263949 156.863144 
L 447.895973 154.479907 
L 454.647378 152.201721 
L 454.940918 151.55252 
L 456.995693 150.854197 
L 457.289233 150.458075 
L 457.582772 150.652581 
L 466.095414 147.614996 
L 466.388953 147.887691 
L 473.433898 145.030767 
L 474.020977 144.780968 
L 474.314516 144.420905 
L 474.901595 144.179653 
L 475.195134 144.601065 
L 481.065922 141.703389 
L 486.34963 138.859819 
L 491.3398 135.936686 
L 496.329969 132.753387 
L 501.026599 129.494836 
L 505.723229 125.959726 
L 508.071544 124.082408 
L 508.071544 124.082408 
" clip-path="url(#p548233ad27)" style="fill: none; stroke: #ffda00; stroke-width: 2; stroke-linecap: square"/>
   </g>
   <g id="line2d_26">
    <path d="M 528.032221 200.537792 
L 537.131942 207.124628 
L 537.425481 207.332428 
L 537.71902 207.318901 
L 546.818741 213.446916 
L 555.918462 219.312474 
L 559.440934 221.513512 
L 559.734473 221.415304 
L 568.834194 226.8133 
L 577.933914 231.95178 
L 586.446556 236.510229 
L 594.665659 240.668334 
L 602.591222 244.436832 
L 610.223245 247.824083 
L 617.56173 250.834486 
L 624.313135 253.368213 
L 631.064541 255.661642 
L 637.815946 257.712892 
L 645.154431 259.702202 
L 647.796285 260.374336 
L 648.089824 261.41438 
L 654.254151 263.028312 
L 654.547691 261.348143 
L 658.070163 262.263957 
L 658.363702 263.117014 
L 658.950781 263.290511 
L 659.24432 264.443708 
L 663.060332 265.724457 
L 666.289265 267.046285 
L 669.224659 268.491557 
L 672.747132 270.466394 
L 673.040671 270.116607 
L 673.62775 270.497865 
L 673.921289 270.461255 
L 674.214828 270.872323 
L 674.801907 271.237155 
L 675.095447 271.775162 
L 675.388986 271.589933 
L 677.150222 272.560675 
L 677.443762 273.601162 
L 678.32438 273.871446 
L 678.617919 273.833682 
L 678.911458 273.02132 
L 680.966234 272.851362 
L 681.553313 272.607634 
L 684.195167 272.049294 
L 684.782246 272.13683 
L 687.130561 272.787908 
L 687.4241 272.711344 
L 688.598258 273.001092 
L 689.478876 272.876741 
L 690.359494 272.538434 
L 693.881966 271.367024 
L 697.991518 271.872273 
L 698.872136 271.954848 
L 700.046293 271.595471 
L 700.339833 270.946232 
L 700.633372 270.845716 
L 700.926911 271.34739 
L 702.101069 271.044171 
L 702.394608 269.926592 
L 702.688148 270.905334 
L 702.981687 270.168727 
L 703.275226 270.102156 
L 703.568766 269.64489 
L 704.155844 269.586573 
L 709.733092 270.231537 
L 710.026632 270.551851 
L 714.429722 270.836224 
L 715.016801 270.805532 
L 715.310341 271.144746 
L 717.658656 271.031796 
L 722.942364 270.956425 
L 726.758376 270.164029 
L 728.813152 269.952845 
L 729.106691 270.294501 
L 729.40023 269.726208 
L 730.867927 268.838957 
L 732.042085 267.875716 
L 732.629163 267.238931 
L 732.922703 265.663929 
L 733.216242 265.65456 
L 734.09686 264.862179 
L 734.3904 264.878698 
L 734.683939 264.660147 
L 734.977478 265.468216 
L 737.619333 265.101403 
L 737.912872 263.718171 
L 738.206412 264.023378 
L 738.499951 263.820258 
L 738.79349 263.398652 
L 740.261187 262.624337 
L 740.554727 262.836511 
L 741.141805 262.643432 
L 741.435345 262.611971 
L 741.728884 262.223051 
L 742.022423 262.18636 
L 742.315963 262.309593 
L 744.957817 262.154774 
L 747.306132 262.16515 
L 747.599671 261.983101 
L 749.360908 262.073073 
L 749.654447 262.264506 
L 750.241526 262.297338 
L 750.535065 262.024404 
L 750.828605 262.178634 
L 752.296301 262.303031 
L 752.589841 262.447821 
L 757.58001 262.690337 
L 760.808943 262.653429 
L 761.102483 262.267398 
L 766.386191 261.65207 
L 772.256979 260.74078 
L 779.301924 259.425831 
L 779.595463 260.694852 
L 786.933947 259.361528 
L 795.446589 257.582402 
L 804.54631 255.457091 
L 814.233109 252.968262 
L 818.049121 251.925979 
L 818.34266 258.602811 
L 822.452211 256.912219 
L 822.745751 251.967509 
L 829.790696 249.546519 
L 836.542101 247.000591 
L 842.999967 244.335847 
L 844.174125 243.825207 
L 844.467664 244.32229 
L 849.457834 241.168777 
L 854.154464 237.944545 
L 858.851093 234.457542 
L 863.547723 230.693912 
L 868.244353 226.640998 
L 872.940983 222.287895 
L 877.637613 217.627168 
L 882.334243 212.654777 
L 883.80194 211.036875 
L 883.80194 211.036875 
" clip-path="url(#p548233ad27)" style="fill: none; stroke: #ffda00; stroke-width: 2; stroke-linecap: square"/>
   </g>
   <g id="patch_3">
    <path d="M 45.967188 421.486125 
L 45.967188 22.318125 
" style="fill: none; stroke: #000000; stroke-width: 0.8; stroke-linejoin: miter; stroke-linecap: square"/>
   </g>
   <g id="patch_4">
    <path d="M 938.767187 421.486125 
L 938.767187 22.318125 
" style="fill: none; stroke: #000000; stroke-width: 0.8; stroke-linejoin: miter; stroke-linecap: square"/>
   </g>
   <g id="patch_5">
    <path d="M 45.967188 421.486125 
L 938.767187 421.486125 
" style="fill: none; stroke: #000000; stroke-width: 0.8; stroke-linejoin: miter; stroke-linecap: square"/>
   </g>
   <g id="patch_6">
    <path d="M 45.967188 22.318125 
L 938.767187 22.318125 
" style="fill: none; stroke: #000000; stroke-width: 0.8; stroke-linejoin: miter; stroke-linecap: square"/>
   </g>
   <g id="text_15">
    <!-- Participation Rate -->
    <g transform="translate(439.250313 16.318125) scale(0.12 -0.12)">
     <defs>
      <path id="DejaVuSans-50" d="M 1259 4147 
L 1259 2394 
L 2053 2394 
Q 2494 2394 2734 2622 
Q 2975 2850 2975 3272 
Q 2975 3691 2734 3919 
Q 2494 4147 2053 4147 
L 1259 4147 
z
M 628 4666 
L 2053 4666 
Q 2838 4666 3239 4311 
Q 3641 3956 3641 3272 
Q 3641 2581 3239 2228 
Q 2838 1875 2053 1875 
L 1259 1875 
L 1259 0 
L 628 0 
L 628 4666 
z
" transform="scale(0.015625)"/>
      <path id="DejaVuSans-61" d="M 2194 1759 
Q 1497 1759 1228 1600 
Q 959 1441 959 1056 
Q 959 750 1161 570 
Q 1363 391 1709 391 
Q 2188 391 2477 730 
Q 2766 1069 2766 1631 
L 2766 1759 
L 2194 1759 
z
M 3341 1997 
L 3341 0 
L 2766 0 
L 2766 531 
Q 2569 213 2275 61 
Q 1981 -91 1556 -91 
Q 1019 -91 701 211 
Q 384 513 384 1019 
Q 384 1609 779 1909 
Q 1175 2209 1959 2209 
L 2766 2209 
L 2766 2266 
Q 2766 2663 2505 2880 
Q 2244 3097 1772 3097 
Q 1472 3097 1187 3025 
Q 903 2953 641 2809 
L 641 3341 
Q 956 3463 1253 3523 
Q 1550 3584 1831 3584 
Q 2591 3584 2966 3190 
Q 3341 2797 3341 1997 
z
" transform="scale(0.015625)"/>
      <path id="DejaVuSans-72" d="M 2631 2963 
Q 2534 3019 2420 3045 
Q 2306 3072 2169 3072 
Q 1681 3072 1420 2755 
Q 1159 2438 1159 1844 
L 1159 0 
L 581 0 
L 581 3500 
L 1159 3500 
L 1159 2956 
Q 1341 3275 1631 3429 
Q 1922 3584 2338 3584 
Q 2397 3584 2469 3576 
Q 2541 3569 2628 3553 
L 2631 2963 
z
" transform="scale(0.015625)"/>
      <path id="DejaVuSans-74" d="M 1172 4494 
L 1172 3500 
L 2356 3500 
L 2356 3053 
L 1172 3053 
L 1172 1153 
Q 1172 725 1289 603 
Q 1406 481 1766 481 
L 2356 481 
L 2356 0 
L 1766 0 
Q 1100 0 847 248 
Q 594 497 594 1153 
L 594 3053 
L 172 3053 
L 172 3500 
L 594 3500 
L 594 4494 
L 1172 4494 
z
" transform="scale(0.015625)"/>
      <path id="DejaVuSans-69" d="M 603 3500 
L 1178 3500 
L 1178 0 
L 603 0 
L 603 3500 
z
M 603 4863 
L 1178 4863 
L 1178 4134 
L 603 4134 
L 603 4863 
z
" transform="scale(0.015625)"/>
      <path id="DejaVuSans-63" d="M 3122 3366 
L 3122 2828 
Q 2878 2963 2633 3030 
Q 2388 3097 2138 3097 
Q 1578 3097 1268 2742 
Q 959 2388 959 1747 
Q 959 1106 1268 751 
Q 1578 397 2138 397 
Q 2388 397 2633 464 
Q 2878 531 3122 666 
L 3122 134 
Q 2881 22 2623 -34 
Q 2366 -91 2075 -91 
Q 1284 -91 818 406 
Q 353 903 353 1747 
Q 353 2603 823 3093 
Q 1294 3584 2113 3584 
Q 2378 3584 2631 3529 
Q 2884 3475 3122 3366 
z
" transform="scale(0.015625)"/>
      <path id="DejaVuSans-70" d="M 1159 525 
L 1159 -1331 
L 581 -1331 
L 581 3500 
L 1159 3500 
L 1159 2969 
Q 1341 3281 1617 3432 
Q 1894 3584 2278 3584 
Q 2916 3584 3314 3078 
Q 3713 2572 3713 1747 
Q 3713 922 3314 415 
Q 2916 -91 2278 -91 
Q 1894 -91 1617 61 
Q 1341 213 1159 525 
z
M 3116 1747 
Q 3116 2381 2855 2742 
Q 2594 3103 2138 3103 
Q 1681 3103 1420 2742 
Q 1159 2381 1159 1747 
Q 1159 1113 1420 752 
Q 1681 391 2138 391 
Q 2594 391 2855 752 
Q 3116 1113 3116 1747 
z
" transform="scale(0.015625)"/>
      <path id="DejaVuSans-6f" d="M 1959 3097 
Q 1497 3097 1228 2736 
Q 959 2375 959 1747 
Q 959 1119 1226 758 
Q 1494 397 1959 397 
Q 2419 397 2687 759 
Q 2956 1122 2956 1747 
Q 2956 2369 2687 2733 
Q 2419 3097 1959 3097 
z
M 1959 3584 
Q 2709 3584 3137 3096 
Q 3566 2609 3566 1747 
Q 3566 888 3137 398 
Q 2709 -91 1959 -91 
Q 1206 -91 779 398 
Q 353 888 353 1747 
Q 353 2609 779 3096 
Q 1206 3584 1959 3584 
z
" transform="scale(0.015625)"/>
      <path id="DejaVuSans-6e" d="M 3513 2113 
L 3513 0 
L 2938 0 
L 2938 2094 
Q 2938 2591 2744 2837 
Q 2550 3084 2163 3084 
Q 1697 3084 1428 2787 
Q 1159 2491 1159 1978 
L 1159 0 
L 581 0 
L 581 3500 
L 1159 3500 
L 1159 2956 
Q 1366 3272 1645 3428 
Q 1925 3584 2291 3584 
Q 2894 3584 3203 3211 
Q 3513 2838 3513 2113 
z
" transform="scale(0.015625)"/>
      <path id="DejaVuSans-20" transform="scale(0.015625)"/>
      <path id="DejaVuSans-52" d="M 2841 2188 
Q 3044 2119 3236 1894 
Q 3428 1669 3622 1275 
L 4263 0 
L 3584 0 
L 2988 1197 
Q 2756 1666 2539 1819 
Q 2322 1972 1947 1972 
L 1259 1972 
L 1259 0 
L 628 0 
L 628 4666 
L 2053 4666 
Q 2853 4666 3247 4331 
Q 3641 3997 3641 3322 
Q 3641 2881 3436 2590 
Q 3231 2300 2841 2188 
z
M 1259 4147 
L 1259 2491 
L 2053 2491 
Q 2509 2491 2742 2702 
Q 2975 2913 2975 3322 
Q 2975 3731 2742 3939 
Q 2509 4147 2053 4147 
L 1259 4147 
z
" transform="scale(0.015625)"/>
      <path id="DejaVuSans-65" d="M 3597 1894 
L 3597 1613 
L 953 1613 
Q 991 1019 1311 708 
Q 1631 397 2203 397 
Q 2534 397 2845 478 
Q 3156 559 3463 722 
L 3463 178 
Q 3153 47 2828 -22 
Q 2503 -91 2169 -91 
Q 1331 -91 842 396 
Q 353 884 353 1716 
Q 353 2575 817 3079 
Q 1281 3584 2069 3584 
Q 2775 3584 3186 3129 
Q 3597 2675 3597 1894 
z
M 3022 2063 
Q 3016 2534 2758 2815 
Q 2500 3097 2075 3097 
Q 1594 3097 1305 2825 
Q 1016 2553 972 2059 
L 3022 2063 
z
" transform="scale(0.015625)"/>
     </defs>
     <use xlink:href="#DejaVuSans-50"/>
     <use xlink:href="#DejaVuSans-61" x="55.802734"/>
     <use xlink:href="#DejaVuSans-72" x="117.082031"/>
     <use xlink:href="#DejaVuSans-74" x="158.195312"/>
     <use xlink:href="#DejaVuSans-69" x="197.404297"/>
     <use xlink:href="#DejaVuSans-63" x="225.1875"/>
     <use xlink:href="#DejaVuSans-69" x="280.167969"/>
     <use xlink:href="#DejaVuSans-70" x="307.951172"/>
     <use xlink:href="#DejaVuSans-61" x="371.427734"/>
     <use xlink:href="#DejaVuSans-74" x="432.707031"/>
     <use xlink:href="#DejaVuSans-69" x="471.916016"/>
     <use xlink:href="#DejaVuSans-6f" x="499.699219"/>
     <use xlink:href="#DejaVuSans-6e" x="560.880859"/>
     <use xlink:href="#DejaVuSans-20" x="624.259766"/>
     <use xlink:href="#DejaVuSans-52" x="656.046875"/>
     <use xlink:href="#DejaVuSans-61" x="723.279297"/>
     <use xlink:href="#DejaVuSans-74" x="784.558594"/>
     <use xlink:href="#DejaVuSans-65" x="823.767578"/>
    </g>
   </g>
  </g>
  <g id="legend_1">
   <g id="line2d_27">
    <path d="M 412.470313 451.8495 
L 422.470313 451.8495 
L 432.470313 451.8495 
" style="fill: none; stroke: #007c85; stroke-width: 2; stroke-linecap: square"/>
   </g>
   <g id="text_16">
    <!-- AKO -->
    <g transform="translate(440.470313 455.3495) scale(0.1 -0.1)">
     <defs>
      <path id="DejaVuSans-41" d="M 2188 4044 
L 1331 1722 
L 3047 1722 
L 2188 4044 
z
M 1831 4666 
L 2547 4666 
L 4325 0 
L 3669 0 
L 3244 1197 
L 1141 1197 
L 716 0 
L 50 0 
L 1831 4666 
z
" transform="scale(0.015625)"/>
      <path id="DejaVuSans-4b" d="M 628 4666 
L 1259 4666 
L 1259 2694 
L 3353 4666 
L 4166 4666 
L 1850 2491 
L 4331 0 
L 3500 0 
L 1259 2247 
L 1259 0 
L 628 0 
L 628 4666 
z
" transform="scale(0.015625)"/>
      <path id="DejaVuSans-4f" d="M 2522 4238 
Q 1834 4238 1429 3725 
Q 1025 3213 1025 2328 
Q 1025 1447 1429 934 
Q 1834 422 2522 422 
Q 3209 422 3611 934 
Q 4013 1447 4013 2328 
Q 4013 3213 3611 3725 
Q 3209 4238 2522 4238 
z
M 2522 4750 
Q 3503 4750 4090 4092 
Q 4678 3434 4678 2328 
Q 4678 1225 4090 567 
Q 3503 -91 2522 -91 
Q 1538 -91 948 565 
Q 359 1222 359 2328 
Q 359 3434 948 4092 
Q 1538 4750 2522 4750 
z
" transform="scale(0.015625)"/>
     </defs>
     <use xlink:href="#DejaVuSans-41"/>
     <use xlink:href="#DejaVuSans-4b" x="68.408203"/>
     <use xlink:href="#DejaVuSans-4f" x="128.484375"/>
    </g>
   </g>
   <g id="line2d_28">
    <path d="M 481.190625 451.8495 
L 491.190625 451.8495 
L 501.190625 451.8495 
" style="fill: none; stroke: #ffda00; stroke-width: 2; stroke-linecap: square"/>
   </g>
   <g id="text_17">
    <!-- FOCUS -->
    <g transform="translate(509.190625 455.3495) scale(0.1 -0.1)">
     <defs>
      <path id="DejaVuSans-46" d="M 628 4666 
L 3309 4666 
L 3309 4134 
L 1259 4134 
L 1259 2759 
L 3109 2759 
L 3109 2228 
L 1259 2228 
L 1259 0 
L 628 0 
L 628 4666 
z
" transform="scale(0.015625)"/>
      <path id="DejaVuSans-43" d="M 4122 4306 
L 4122 3641 
Q 3803 3938 3442 4084 
Q 3081 4231 2675 4231 
Q 1875 4231 1450 3742 
Q 1025 3253 1025 2328 
Q 1025 1406 1450 917 
Q 1875 428 2675 428 
Q 3081 428 3442 575 
Q 3803 722 4122 1019 
L 4122 359 
Q 3791 134 3420 21 
Q 3050 -91 2638 -91 
Q 1578 -91 968 557 
Q 359 1206 359 2328 
Q 359 3453 968 4101 
Q 1578 4750 2638 4750 
Q 3056 4750 3426 4639 
Q 3797 4528 4122 4306 
z
" transform="scale(0.015625)"/>
      <path id="DejaVuSans-55" d="M 556 4666 
L 1191 4666 
L 1191 1831 
Q 1191 1081 1462 751 
Q 1734 422 2344 422 
Q 2950 422 3222 751 
Q 3494 1081 3494 1831 
L 3494 4666 
L 4128 4666 
L 4128 1753 
Q 4128 841 3676 375 
Q 3225 -91 2344 -91 
Q 1459 -91 1007 375 
Q 556 841 556 1753 
L 556 4666 
z
" transform="scale(0.015625)"/>
      <path id="DejaVuSans-53" d="M 3425 4513 
L 3425 3897 
Q 3066 4069 2747 4153 
Q 2428 4238 2131 4238 
Q 1616 4238 1336 4038 
Q 1056 3838 1056 3469 
Q 1056 3159 1242 3001 
Q 1428 2844 1947 2747 
L 2328 2669 
Q 3034 2534 3370 2195 
Q 3706 1856 3706 1288 
Q 3706 609 3251 259 
Q 2797 -91 1919 -91 
Q 1588 -91 1214 -16 
Q 841 59 441 206 
L 441 856 
Q 825 641 1194 531 
Q 1563 422 1919 422 
Q 2459 422 2753 634 
Q 3047 847 3047 1241 
Q 3047 1584 2836 1778 
Q 2625 1972 2144 2069 
L 1759 2144 
Q 1053 2284 737 2584 
Q 422 2884 422 3419 
Q 422 4038 858 4394 
Q 1294 4750 2059 4750 
Q 2388 4750 2728 4690 
Q 3069 4631 3425 4513 
z
" transform="scale(0.015625)"/>
     </defs>
     <use xlink:href="#DejaVuSans-46"/>
     <use xlink:href="#DejaVuSans-4f" x="57.519531"/>
     <use xlink:href="#DejaVuSans-43" x="136.230469"/>
     <use xlink:href="#DejaVuSans-55" x="206.054688"/>
     <use xlink:href="#DejaVuSans-53" x="279.248047"/>
    </g>
   </g>
  </g>
 </g>
 <defs>
  <clipPath id="p548233ad27">
   <rect x="45.967188" y="22.318125" width="892.8" height="399.168"/>
  </clipPath>
 </defs>
</svg>
