<?xml version="1.0" encoding="utf-8" standalone="no"?>
<!DOCTYPE svg PUBLIC "-//W3C//DTD SVG 1.1//EN"
  "http://www.w3.org/Graphics/SVG/1.1/DTD/svg11.dtd">
<!-- Created with matplotlib (https://matplotlib.org/) -->
<svg height="468.629188pt" version="1.1" viewBox="0 0 945.967187 468.629188" width="945.967187pt" xmlns="http://www.w3.org/2000/svg" xmlns:xlink="http://www.w3.org/1999/xlink">
 <metadata>
  <rdf:RDF xmlns:cc="http://creativecommons.org/ns#" xmlns:dc="http://purl.org/dc/elements/1.1/" xmlns:rdf="http://www.w3.org/1999/02/22-rdf-syntax-ns#">
   <cc:Work>
    <dc:type rdf:resource="http://purl.org/dc/dcmitype/StillImage"/>
    <dc:date>2023-07-29T19:51:22.137976</dc:date>
    <dc:format>image/svg+xml</dc:format>
    <dc:creator>
     <cc:Agent>
      <dc:title>Matplotlib v3.3.0, https://matplotlib.org/</dc:title>
     </cc:Agent>
    </dc:creator>
   </cc:Work>
  </rdf:RDF>
 </metadata>
 <defs>
  <style type="text/css">*{stroke-linecap:butt;stroke-linejoin:round;}</style>
 </defs>
 <g id="figure_1">
  <g id="patch_1">
   <path d="M 0 468.629188 
L 945.967187 468.629188 
L 945.967187 0 
L 0 0 
z
" style="fill:none;"/>
  </g>
  <g id="axes_1">
   <g id="patch_2">
    <path d="M 45.967188 413.710125 
L 938.767187 413.710125 
L 938.767187 22.318125 
L 45.967188 22.318125 
z
" style="fill:#ffffff;"/>
   </g>
   <g id="PathCollection_1">
    <defs>
     <path d="M 0 3 
C 0.795609 3 1.55874 2.683901 2.12132 2.12132 
C 2.683901 1.55874 3 0.795609 3 0 
C 3 -0.795609 2.683901 -1.55874 2.12132 -2.12132 
C 1.55874 -2.683901 0.795609 -3 0 -3 
C -0.795609 -3 -1.55874 -2.683901 -2.12132 -2.12132 
C -2.683901 -1.55874 -3 -0.795609 -3 0 
C -3 0.795609 -2.683901 1.55874 -2.12132 2.12132 
C -1.55874 2.683901 -0.795609 3 0 3 
z
" id="mc7f46eeae6" style="stroke:#000000;"/>
    </defs>
    <g clip-path="url(#pab2d705027)">
     <use style="stroke:#000000;" x="86.549006" xlink:href="#mc7f46eeae6" y="367.510962"/>
    </g>
   </g>
   <g id="PathCollection_2">
    <g clip-path="url(#pab2d705027)">
     <use style="stroke:#000000;" x="513.942331" xlink:href="#mc7f46eeae6" y="283.410201"/>
    </g>
   </g>
   <g id="PathCollection_3"/>
   <g id="PathCollection_4">
    <defs>
     <path d="M 0 1.5 
C 0.397805 1.5 0.77937 1.341951 1.06066 1.06066 
C 1.341951 0.77937 1.5 0.397805 1.5 0 
C 1.5 -0.397805 1.341951 -0.77937 1.06066 -1.06066 
C 0.77937 -1.341951 0.397805 -1.5 0 -1.5 
C -0.397805 -1.5 -0.77937 -1.341951 -1.06066 -1.06066 
C -1.341951 -0.77937 -1.5 -0.397805 -1.5 0 
C -1.5 0.397805 -1.341951 0.77937 -1.06066 1.06066 
C -0.77937 1.341951 -0.397805 1.5 0 1.5 
z
" id="m73075010fd" style="stroke:#007c85;"/>
    </defs>
    <g clip-path="url(#pab2d705027)">
     <use style="fill:#007c85;stroke:#007c85;" x="95.648726" xlink:href="#m73075010fd" y="73.861484"/>
     <use style="fill:#007c85;stroke:#007c85;" x="105.041986" xlink:href="#m73075010fd" y="124.490704"/>
     <use style="fill:#007c85;stroke:#007c85;" x="128.231597" xlink:href="#m73075010fd" y="121.67797"/>
     <use style="fill:#007c85;stroke:#007c85;" x="143.789183" xlink:href="#m73075010fd" y="328.413953"/>
     <use style="fill:#007c85;stroke:#007c85;" x="153.475983" xlink:href="#m73075010fd" y="256.689224"/>
     <use style="fill:#007c85;stroke:#007c85;" x="158.759691" xlink:href="#m73075010fd" y="279.191099"/>
     <use style="fill:#007c85;stroke:#007c85;" x="167.272333" xlink:href="#m73075010fd" y="165.275354"/>
     <use style="fill:#007c85;stroke:#007c85;" x="176.665593" xlink:href="#m73075010fd" y="256.689224"/>
     <use style="fill:#007c85;stroke:#007c85;" x="187.52655" xlink:href="#m73075010fd" y="234.187348"/>
     <use style="fill:#007c85;stroke:#007c85;" x="196.332731" xlink:href="#m73075010fd" y="190.589964"/>
     <use style="fill:#007c85;stroke:#007c85;" x="208.661384" xlink:href="#m73075010fd" y="217.310941"/>
     <use style="fill:#007c85;stroke:#007c85;" x="223.925432" xlink:href="#m73075010fd" y="267.940162"/>
     <use style="fill:#007c85;stroke:#007c85;" x="232.731613" xlink:href="#m73075010fd" y="211.685472"/>
     <use style="fill:#007c85;stroke:#007c85;" x="243.59257" xlink:href="#m73075010fd" y="267.940162"/>
     <use style="fill:#007c85;stroke:#007c85;" x="251.811672" xlink:href="#m73075010fd" y="307.318444"/>
     <use style="fill:#007c85;stroke:#007c85;" x="268.836956" xlink:href="#m73075010fd" y="159.649885"/>
     <use style="fill:#007c85;stroke:#007c85;" x="297.897354" xlink:href="#m73075010fd" y="183.558128"/>
     <use style="fill:#007c85;stroke:#007c85;" x="309.932468" xlink:href="#m73075010fd" y="227.155512"/>
     <use style="fill:#007c85;stroke:#007c85;" x="314.922637" xlink:href="#m73075010fd" y="256.689224"/>
     <use style="fill:#007c85;stroke:#007c85;" x="322.554661" xlink:href="#m73075010fd" y="155.430783"/>
     <use style="fill:#007c85;stroke:#007c85;" x="331.947921" xlink:href="#m73075010fd" y="199.028167"/>
     <use style="fill:#007c85;stroke:#007c85;" x="348.973204" xlink:href="#m73075010fd" y="224.342778"/>
     <use style="fill:#007c85;stroke:#007c85;" x="353.963374" xlink:href="#m73075010fd" y="169.494456"/>
     <use style="fill:#007c85;stroke:#007c85;" x="363.650173" xlink:href="#m73075010fd" y="227.155512"/>
     <use style="fill:#007c85;stroke:#007c85;" x="375.391748" xlink:href="#m73075010fd" y="166.681721"/>
     <use style="fill:#007c85;stroke:#007c85;" x="379.20776" xlink:href="#m73075010fd" y="228.561879"/>
     <use style="fill:#007c85;stroke:#007c85;" x="401.223212" xlink:href="#m73075010fd" y="173.713557"/>
     <use style="fill:#007c85;stroke:#007c85;" x="415.900181" xlink:href="#m73075010fd" y="116.052501"/>
     <use style="fill:#007c85;stroke:#007c85;" x="424.999902" xlink:href="#m73075010fd" y="52.765976"/>
     <use style="fill:#007c85;stroke:#007c85;" x="427.054677" xlink:href="#m73075010fd" y="184.964495"/>
     <use style="fill:#007c85;stroke:#007c85;" x="471.672662" xlink:href="#m73075010fd" y="259.501958"/>
     <use style="fill:#007c85;stroke:#007c85;" x="484.881934" xlink:href="#m73075010fd" y="203.247269"/>
    </g>
   </g>
   <g id="PathCollection_5">
    <g clip-path="url(#pab2d705027)">
     <use style="fill:#007c85;stroke:#007c85;" x="527.445142" xlink:href="#m73075010fd" y="80.89332"/>
     <use style="fill:#007c85;stroke:#007c85;" x="553.276607" xlink:href="#m73075010fd" y="290.442037"/>
     <use style="fill:#007c85;stroke:#007c85;" x="599.949367" xlink:href="#m73075010fd" y="315.756647"/>
     <use style="fill:#007c85;stroke:#007c85;" x="615.506954" xlink:href="#m73075010fd" y="352.322195"/>
     <use style="fill:#007c85;stroke:#007c85;" x="624.019596" xlink:href="#m73075010fd" y="350.915828"/>
     <use style="fill:#007c85;stroke:#007c85;" x="634.293474" xlink:href="#m73075010fd" y="395.91958"/>
     <use style="fill:#007c85;stroke:#007c85;" x="643.393194" xlink:href="#m73075010fd" y="331.226687"/>
     <use style="fill:#007c85;stroke:#007c85;" x="650.731679" xlink:href="#m73075010fd" y="307.318444"/>
     <use style="fill:#007c85;stroke:#007c85;" x="659.53786" xlink:href="#m73075010fd" y="249.657388"/>
     <use style="fill:#007c85;stroke:#007c85;" x="669.518199" xlink:href="#m73075010fd" y="273.565631"/>
     <use style="fill:#007c85;stroke:#007c85;" x="677.737301" xlink:href="#m73075010fd" y="317.163015"/>
     <use style="fill:#007c85;stroke:#007c85;" x="685.369325" xlink:href="#m73075010fd" y="280.597467"/>
     <use style="fill:#007c85;stroke:#007c85;" x="696.523821" xlink:href="#m73075010fd" y="235.593715"/>
     <use style="fill:#007c85;stroke:#007c85;" x="704.742923" xlink:href="#m73075010fd" y="255.282857"/>
     <use style="fill:#007c85;stroke:#007c85;" x="714.723262" xlink:href="#m73075010fd" y="300.286608"/>
     <use style="fill:#007c85;stroke:#007c85;" x="723.235904" xlink:href="#m73075010fd" y="307.318444"/>
     <use style="fill:#007c85;stroke:#007c85;" x="730.867927" xlink:href="#m73075010fd" y="277.784732"/>
     <use style="fill:#007c85;stroke:#007c85;" x="739.674108" xlink:href="#m73075010fd" y="276.378365"/>
     <use style="fill:#007c85;stroke:#007c85;" x="749.947986" xlink:href="#m73075010fd" y="234.187348"/>
     <use style="fill:#007c85;stroke:#007c85;" x="757.58001" xlink:href="#m73075010fd" y="267.940162"/>
     <use style="fill:#007c85;stroke:#007c85;" x="766.97327" xlink:href="#m73075010fd" y="293.254772"/>
     <use style="fill:#007c85;stroke:#007c85;" x="778.127766" xlink:href="#m73075010fd" y="357.947664"/>
     <use style="fill:#007c85;stroke:#007c85;" x="785.46625" xlink:href="#m73075010fd" y="363.573133"/>
     <use style="fill:#007c85;stroke:#007c85;" x="795.446589" xlink:href="#m73075010fd" y="353.728563"/>
     <use style="fill:#007c85;stroke:#007c85;" x="802.785073" xlink:href="#m73075010fd" y="269.346529"/>
     <use style="fill:#007c85;stroke:#007c85;" x="811.591255" xlink:href="#m73075010fd" y="315.756647"/>
     <use style="fill:#007c85;stroke:#007c85;" x="821.865133" xlink:href="#m73075010fd" y="263.72106"/>
     <use style="fill:#007c85;stroke:#007c85;" x="830.084235" xlink:href="#m73075010fd" y="336.852156"/>
     <use style="fill:#007c85;stroke:#007c85;" x="838.303337" xlink:href="#m73075010fd" y="259.501958"/>
     <use style="fill:#007c85;stroke:#007c85;" x="846.52244" xlink:href="#m73075010fd" y="291.848405"/>
     <use style="fill:#007c85;stroke:#007c85;" x="855.328621" xlink:href="#m73075010fd" y="225.749145"/>
     <use style="fill:#007c85;stroke:#007c85;" x="864.428342" xlink:href="#m73075010fd" y="341.071258"/>
     <use style="fill:#007c85;stroke:#007c85;" x="874.995759" xlink:href="#m73075010fd" y="325.601218"/>
    </g>
   </g>
   <g id="PathCollection_6">
    <defs>
     <path d="M 0 1.5 
C 0.397805 1.5 0.77937 1.341951 1.06066 1.06066 
C 1.341951 0.77937 1.5 0.397805 1.5 0 
C 1.5 -0.397805 1.341951 -0.77937 1.06066 -1.06066 
C 0.77937 -1.341951 0.397805 -1.5 0 -1.5 
C -0.397805 -1.5 -0.77937 -1.341951 -1.06066 -1.06066 
C -1.341951 -0.77937 -1.5 -0.397805 -1.5 0 
C -1.5 0.397805 -1.341951 0.77937 -1.06066 1.06066 
C -0.77937 1.341951 -0.397805 1.5 0 1.5 
z
" id="mb48659fead" style="stroke:#ffda00;"/>
    </defs>
    <g clip-path="url(#pab2d705027)">
     <use style="fill:#ffda00;stroke:#ffda00;" x="88.897321" xlink:href="#mb48659fead" y="148.398947"/>
     <use style="fill:#ffda00;stroke:#ffda00;" x="104.748447" xlink:href="#mb48659fead" y="238.40645"/>
     <use style="fill:#ffda00;stroke:#ffda00;" x="117.0771" xlink:href="#mb48659fead" y="228.561879"/>
     <use style="fill:#ffda00;stroke:#ffda00;" x="133.808845" xlink:href="#mb48659fead" y="130.116173"/>
     <use style="fill:#ffda00;stroke:#ffda00;" x="142.321486" xlink:href="#mb48659fead" y="201.840902"/>
     <use style="fill:#ffda00;stroke:#ffda00;" x="157.585534" xlink:href="#mb48659fead" y="207.466371"/>
     <use style="fill:#ffda00;stroke:#ffda00;" x="164.630479" xlink:href="#mb48659fead" y="184.964495"/>
     <use style="fill:#ffda00;stroke:#ffda00;" x="181.949302" xlink:href="#mb48659fead" y="238.40645"/>
     <use style="fill:#ffda00;stroke:#ffda00;" x="187.52655" xlink:href="#mb48659fead" y="249.657388"/>
     <use style="fill:#ffda00;stroke:#ffda00;" x="203.084136" xlink:href="#mb48659fead" y="229.968246"/>
     <use style="fill:#ffda00;stroke:#ffda00;" x="219.815881" xlink:href="#mb48659fead" y="231.374614"/>
     <use style="fill:#ffda00;stroke:#ffda00;" x="233.318692" xlink:href="#mb48659fead" y="272.159263"/>
     <use style="fill:#ffda00;stroke:#ffda00;" x="250.343975" xlink:href="#mb48659fead" y="242.625552"/>
     <use style="fill:#ffda00;stroke:#ffda00;" x="257.095381" xlink:href="#mb48659fead" y="255.282857"/>
     <use style="fill:#ffda00;stroke:#ffda00;" x="267.075719" xlink:href="#mb48659fead" y="251.063755"/>
     <use style="fill:#ffda00;stroke:#ffda00;" x="289.384712" xlink:href="#mb48659fead" y="255.282857"/>
     <use style="fill:#ffda00;stroke:#ffda00;" x="302.300444" xlink:href="#mb48659fead" y="312.943913"/>
     <use style="fill:#ffda00;stroke:#ffda00;" x="316.390334" xlink:href="#mb48659fead" y="203.247269"/>
     <use style="fill:#ffda00;stroke:#ffda00;" x="328.425448" xlink:href="#mb48659fead" y="241.219184"/>
     <use style="fill:#ffda00;stroke:#ffda00;" x="345.744271" xlink:href="#mb48659fead" y="245.438286"/>
     <use style="fill:#ffda00;stroke:#ffda00;" x="359.540622" xlink:href="#mb48659fead" y="194.809066"/>
     <use style="fill:#ffda00;stroke:#ffda00;" x="374.21759" xlink:href="#mb48659fead" y="148.398947"/>
     <use style="fill:#ffda00;stroke:#ffda00;" x="381.556075" xlink:href="#mb48659fead" y="137.148009"/>
     <use style="fill:#ffda00;stroke:#ffda00;" x="394.765346" xlink:href="#mb48659fead" y="179.339026"/>
     <use style="fill:#ffda00;stroke:#ffda00;" x="405.039224" xlink:href="#mb48659fead" y="104.801563"/>
     <use style="fill:#ffda00;stroke:#ffda00;" x="412.671248" xlink:href="#mb48659fead" y="253.876489"/>
     <use style="fill:#ffda00;stroke:#ffda00;" x="418.835575" xlink:href="#mb48659fead" y="214.498207"/>
     <use style="fill:#ffda00;stroke:#ffda00;" x="435.27378" xlink:href="#mb48659fead" y="134.335275"/>
     <use style="fill:#ffda00;stroke:#ffda00;" x="439.97041" xlink:href="#mb48659fead" y="149.805314"/>
     <use style="fill:#ffda00;stroke:#ffda00;" x="452.592603" xlink:href="#mb48659fead" y="128.709806"/>
     <use style="fill:#ffda00;stroke:#ffda00;" x="456.115075" xlink:href="#mb48659fead" y="169.494456"/>
     <use style="fill:#ffda00;stroke:#ffda00;" x="464.627717" xlink:href="#mb48659fead" y="155.430783"/>
     <use style="fill:#ffda00;stroke:#ffda00;" x="474.608055" xlink:href="#mb48659fead" y="173.713557"/>
     <use style="fill:#ffda00;stroke:#ffda00;" x="479.011146" xlink:href="#mb48659fead" y="152.618049"/>
     <use style="fill:#ffda00;stroke:#ffda00;" x="488.697945" xlink:href="#mb48659fead" y="125.897071"/>
     <use style="fill:#ffda00;stroke:#ffda00;" x="499.852441" xlink:href="#mb48659fead" y="114.646134"/>
     <use style="fill:#ffda00;stroke:#ffda00;" x="501.613678" xlink:href="#mb48659fead" y="127.303439"/>
     <use style="fill:#ffda00;stroke:#ffda00;" x="508.071544" xlink:href="#mb48659fead" y="40.10867"/>
    </g>
   </g>
   <g id="PathCollection_7">
    <g clip-path="url(#pab2d705027)">
     <use style="fill:#ffda00;stroke:#ffda00;" x="528.032221" xlink:href="#mb48659fead" y="196.215433"/>
     <use style="fill:#ffda00;stroke:#ffda00;" x="536.838402" xlink:href="#mb48659fead" y="180.745393"/>
     <use style="fill:#ffda00;stroke:#ffda00;" x="546.818741" xlink:href="#mb48659fead" y="263.72106"/>
     <use style="fill:#ffda00;stroke:#ffda00;" x="567.366497" xlink:href="#mb48659fead" y="245.438286"/>
     <use style="fill:#ffda00;stroke:#ffda00;" x="579.98869" xlink:href="#mb48659fead" y="213.09184"/>
     <use style="fill:#ffda00;stroke:#ffda00;" x="592.023804" xlink:href="#mb48659fead" y="227.155512"/>
     <use style="fill:#ffda00;stroke:#ffda00;" x="597.894592" xlink:href="#mb48659fead" y="258.095591"/>
     <use style="fill:#ffda00;stroke:#ffda00;" x="608.16847" xlink:href="#mb48659fead" y="248.25102"/>
     <use style="fill:#ffda00;stroke:#ffda00;" x="618.735887" xlink:href="#mb48659fead" y="207.466371"/>
     <use style="fill:#ffda00;stroke:#ffda00;" x="631.064541" xlink:href="#mb48659fead" y="215.904574"/>
     <use style="fill:#ffda00;stroke:#ffda00;" x="643.393194" xlink:href="#mb48659fead" y="317.163015"/>
     <use style="fill:#ffda00;stroke:#ffda00;" x="649.557521" xlink:href="#mb48659fead" y="256.689224"/>
     <use style="fill:#ffda00;stroke:#ffda00;" x="676.269604" xlink:href="#mb48659fead" y="329.82032"/>
     <use style="fill:#ffda00;stroke:#ffda00;" x="690.653033" xlink:href="#mb48659fead" y="267.940162"/>
     <use style="fill:#ffda00;stroke:#ffda00;" x="698.578596" xlink:href="#mb48659fead" y="269.346529"/>
     <use style="fill:#ffda00;stroke:#ffda00;" x="717.365116" xlink:href="#mb48659fead" y="249.657388"/>
     <use style="fill:#ffda00;stroke:#ffda00;" x="727.345455" xlink:href="#mb48659fead" y="291.848405"/>
     <use style="fill:#ffda00;stroke:#ffda00;" x="737.912872" xlink:href="#mb48659fead" y="237.000083"/>
     <use style="fill:#ffda00;stroke:#ffda00;" x="754.351077" xlink:href="#mb48659fead" y="277.784732"/>
     <use style="fill:#ffda00;stroke:#ffda00;" x="761.983101" xlink:href="#mb48659fead" y="218.717309"/>
     <use style="fill:#ffda00;stroke:#ffda00;" x="789.282262" xlink:href="#mb48659fead" y="301.692975"/>
     <use style="fill:#ffda00;stroke:#ffda00;" x="801.610916" xlink:href="#mb48659fead" y="193.402698"/>
     <use style="fill:#ffda00;stroke:#ffda00;" x="809.830018" xlink:href="#mb48659fead" y="273.565631"/>
     <use style="fill:#ffda00;stroke:#ffda00;" x="814.233109" xlink:href="#mb48659fead" y="213.09184"/>
     <use style="fill:#ffda00;stroke:#ffda00;" x="828.322999" xlink:href="#mb48659fead" y="253.876489"/>
     <use style="fill:#ffda00;stroke:#ffda00;" x="840.651652" xlink:href="#mb48659fead" y="270.752896"/>
     <use style="fill:#ffda00;stroke:#ffda00;" x="850.92553" xlink:href="#mb48659fead" y="251.063755"/>
     <use style="fill:#ffda00;stroke:#ffda00;" x="861.199408" xlink:href="#mb48659fead" y="220.123676"/>
     <use style="fill:#ffda00;stroke:#ffda00;" x="869.418511" xlink:href="#mb48659fead" y="197.6218"/>
     <use style="fill:#ffda00;stroke:#ffda00;" x="877.931153" xlink:href="#mb48659fead" y="210.279105"/>
    </g>
   </g>
   <g id="matplotlib.axis_1">
    <g id="xtick_1">
     <g id="line2d_1">
      <defs>
       <path d="M 0 0 
L 0 3.5 
" id="ma2a50a0c7e" style="stroke:#000000;stroke-width:0.8;"/>
      </defs>
      <g>
       <use style="stroke:#000000;stroke-width:0.8;" x="67.762486" xlink:href="#ma2a50a0c7e" y="413.710125"/>
      </g>
     </g>
     <g id="text_1">
      <!-- 2016 -->
      <g transform="translate(55.037486 428.308562)scale(0.1 -0.1)">
       <defs>
        <path d="M 19.1875 8.296875 
L 53.609375 8.296875 
L 53.609375 0 
L 7.328125 0 
L 7.328125 8.296875 
Q 12.9375 14.109375 22.625 23.890625 
Q 32.328125 33.6875 34.8125 36.53125 
Q 39.546875 41.84375 41.421875 45.53125 
Q 43.3125 49.21875 43.3125 52.78125 
Q 43.3125 58.59375 39.234375 62.25 
Q 35.15625 65.921875 28.609375 65.921875 
Q 23.96875 65.921875 18.8125 64.3125 
Q 13.671875 62.703125 7.8125 59.421875 
L 7.8125 69.390625 
Q 13.765625 71.78125 18.9375 73 
Q 24.125 74.21875 28.421875 74.21875 
Q 39.75 74.21875 46.484375 68.546875 
Q 53.21875 62.890625 53.21875 53.421875 
Q 53.21875 48.921875 51.53125 44.890625 
Q 49.859375 40.875 45.40625 35.40625 
Q 44.1875 33.984375 37.640625 27.21875 
Q 31.109375 20.453125 19.1875 8.296875 
z
" id="DejaVuSans-50"/>
        <path d="M 31.78125 66.40625 
Q 24.171875 66.40625 20.328125 58.90625 
Q 16.5 51.421875 16.5 36.375 
Q 16.5 21.390625 20.328125 13.890625 
Q 24.171875 6.390625 31.78125 6.390625 
Q 39.453125 6.390625 43.28125 13.890625 
Q 47.125 21.390625 47.125 36.375 
Q 47.125 51.421875 43.28125 58.90625 
Q 39.453125 66.40625 31.78125 66.40625 
z
M 31.78125 74.21875 
Q 44.046875 74.21875 50.515625 64.515625 
Q 56.984375 54.828125 56.984375 36.375 
Q 56.984375 17.96875 50.515625 8.265625 
Q 44.046875 -1.421875 31.78125 -1.421875 
Q 19.53125 -1.421875 13.0625 8.265625 
Q 6.59375 17.96875 6.59375 36.375 
Q 6.59375 54.828125 13.0625 64.515625 
Q 19.53125 74.21875 31.78125 74.21875 
z
" id="DejaVuSans-48"/>
        <path d="M 12.40625 8.296875 
L 28.515625 8.296875 
L 28.515625 63.921875 
L 10.984375 60.40625 
L 10.984375 69.390625 
L 28.421875 72.90625 
L 38.28125 72.90625 
L 38.28125 8.296875 
L 54.390625 8.296875 
L 54.390625 0 
L 12.40625 0 
z
" id="DejaVuSans-49"/>
        <path d="M 33.015625 40.375 
Q 26.375 40.375 22.484375 35.828125 
Q 18.609375 31.296875 18.609375 23.390625 
Q 18.609375 15.53125 22.484375 10.953125 
Q 26.375 6.390625 33.015625 6.390625 
Q 39.65625 6.390625 43.53125 10.953125 
Q 47.40625 15.53125 47.40625 23.390625 
Q 47.40625 31.296875 43.53125 35.828125 
Q 39.65625 40.375 33.015625 40.375 
z
M 52.59375 71.296875 
L 52.59375 62.3125 
Q 48.875 64.0625 45.09375 64.984375 
Q 41.3125 65.921875 37.59375 65.921875 
Q 27.828125 65.921875 22.671875 59.328125 
Q 17.53125 52.734375 16.796875 39.40625 
Q 19.671875 43.65625 24.015625 45.921875 
Q 28.375 48.1875 33.59375 48.1875 
Q 44.578125 48.1875 50.953125 41.515625 
Q 57.328125 34.859375 57.328125 23.390625 
Q 57.328125 12.15625 50.6875 5.359375 
Q 44.046875 -1.421875 33.015625 -1.421875 
Q 20.359375 -1.421875 13.671875 8.265625 
Q 6.984375 17.96875 6.984375 36.375 
Q 6.984375 53.65625 15.1875 63.9375 
Q 23.390625 74.21875 37.203125 74.21875 
Q 40.921875 74.21875 44.703125 73.484375 
Q 48.484375 72.75 52.59375 71.296875 
z
" id="DejaVuSans-54"/>
       </defs>
       <use xlink:href="#DejaVuSans-50"/>
       <use x="63.623047" xlink:href="#DejaVuSans-48"/>
       <use x="127.246094" xlink:href="#DejaVuSans-49"/>
       <use x="190.869141" xlink:href="#DejaVuSans-54"/>
      </g>
     </g>
    </g>
    <g id="xtick_2">
     <g id="line2d_2">
      <g>
       <use style="stroke:#000000;stroke-width:0.8;" x="175.197896" xlink:href="#ma2a50a0c7e" y="413.710125"/>
      </g>
     </g>
     <g id="text_2">
      <!-- 2017 -->
      <g transform="translate(162.472896 428.308562)scale(0.1 -0.1)">
       <defs>
        <path d="M 8.203125 72.90625 
L 55.078125 72.90625 
L 55.078125 68.703125 
L 28.609375 0 
L 18.3125 0 
L 43.21875 64.59375 
L 8.203125 64.59375 
z
" id="DejaVuSans-55"/>
       </defs>
       <use xlink:href="#DejaVuSans-50"/>
       <use x="63.623047" xlink:href="#DejaVuSans-48"/>
       <use x="127.246094" xlink:href="#DejaVuSans-49"/>
       <use x="190.869141" xlink:href="#DejaVuSans-55"/>
      </g>
     </g>
    </g>
    <g id="xtick_3">
     <g id="line2d_3">
      <g>
       <use style="stroke:#000000;stroke-width:0.8;" x="282.339767" xlink:href="#ma2a50a0c7e" y="413.710125"/>
      </g>
     </g>
     <g id="text_3">
      <!-- 2018 -->
      <g transform="translate(269.614767 428.308562)scale(0.1 -0.1)">
       <defs>
        <path d="M 31.78125 34.625 
Q 24.75 34.625 20.71875 30.859375 
Q 16.703125 27.09375 16.703125 20.515625 
Q 16.703125 13.921875 20.71875 10.15625 
Q 24.75 6.390625 31.78125 6.390625 
Q 38.8125 6.390625 42.859375 10.171875 
Q 46.921875 13.96875 46.921875 20.515625 
Q 46.921875 27.09375 42.890625 30.859375 
Q 38.875 34.625 31.78125 34.625 
z
M 21.921875 38.8125 
Q 15.578125 40.375 12.03125 44.71875 
Q 8.5 49.078125 8.5 55.328125 
Q 8.5 64.0625 14.71875 69.140625 
Q 20.953125 74.21875 31.78125 74.21875 
Q 42.671875 74.21875 48.875 69.140625 
Q 55.078125 64.0625 55.078125 55.328125 
Q 55.078125 49.078125 51.53125 44.71875 
Q 48 40.375 41.703125 38.8125 
Q 48.828125 37.15625 52.796875 32.3125 
Q 56.78125 27.484375 56.78125 20.515625 
Q 56.78125 9.90625 50.3125 4.234375 
Q 43.84375 -1.421875 31.78125 -1.421875 
Q 19.734375 -1.421875 13.25 4.234375 
Q 6.78125 9.90625 6.78125 20.515625 
Q 6.78125 27.484375 10.78125 32.3125 
Q 14.796875 37.15625 21.921875 38.8125 
z
M 18.3125 54.390625 
Q 18.3125 48.734375 21.84375 45.5625 
Q 25.390625 42.390625 31.78125 42.390625 
Q 38.140625 42.390625 41.71875 45.5625 
Q 45.3125 48.734375 45.3125 54.390625 
Q 45.3125 60.0625 41.71875 63.234375 
Q 38.140625 66.40625 31.78125 66.40625 
Q 25.390625 66.40625 21.84375 63.234375 
Q 18.3125 60.0625 18.3125 54.390625 
z
" id="DejaVuSans-56"/>
       </defs>
       <use xlink:href="#DejaVuSans-50"/>
       <use x="63.623047" xlink:href="#DejaVuSans-48"/>
       <use x="127.246094" xlink:href="#DejaVuSans-49"/>
       <use x="190.869141" xlink:href="#DejaVuSans-56"/>
      </g>
     </g>
    </g>
    <g id="xtick_4">
     <g id="line2d_4">
      <g>
       <use style="stroke:#000000;stroke-width:0.8;" x="389.481638" xlink:href="#ma2a50a0c7e" y="413.710125"/>
      </g>
     </g>
     <g id="text_4">
      <!-- 2019 -->
      <g transform="translate(376.756638 428.308562)scale(0.1 -0.1)">
       <defs>
        <path d="M 10.984375 1.515625 
L 10.984375 10.5 
Q 14.703125 8.734375 18.5 7.8125 
Q 22.3125 6.890625 25.984375 6.890625 
Q 35.75 6.890625 40.890625 13.453125 
Q 46.046875 20.015625 46.78125 33.40625 
Q 43.953125 29.203125 39.59375 26.953125 
Q 35.25 24.703125 29.984375 24.703125 
Q 19.046875 24.703125 12.671875 31.3125 
Q 6.296875 37.9375 6.296875 49.421875 
Q 6.296875 60.640625 12.9375 67.421875 
Q 19.578125 74.21875 30.609375 74.21875 
Q 43.265625 74.21875 49.921875 64.515625 
Q 56.59375 54.828125 56.59375 36.375 
Q 56.59375 19.140625 48.40625 8.859375 
Q 40.234375 -1.421875 26.421875 -1.421875 
Q 22.703125 -1.421875 18.890625 -0.6875 
Q 15.09375 0.046875 10.984375 1.515625 
z
M 30.609375 32.421875 
Q 37.25 32.421875 41.125 36.953125 
Q 45.015625 41.5 45.015625 49.421875 
Q 45.015625 57.28125 41.125 61.84375 
Q 37.25 66.40625 30.609375 66.40625 
Q 23.96875 66.40625 20.09375 61.84375 
Q 16.21875 57.28125 16.21875 49.421875 
Q 16.21875 41.5 20.09375 36.953125 
Q 23.96875 32.421875 30.609375 32.421875 
z
" id="DejaVuSans-57"/>
       </defs>
       <use xlink:href="#DejaVuSans-50"/>
       <use x="63.623047" xlink:href="#DejaVuSans-48"/>
       <use x="127.246094" xlink:href="#DejaVuSans-49"/>
       <use x="190.869141" xlink:href="#DejaVuSans-57"/>
      </g>
     </g>
    </g>
    <g id="xtick_5">
     <g id="line2d_5">
      <g>
       <use style="stroke:#000000;stroke-width:0.8;" x="496.623508" xlink:href="#ma2a50a0c7e" y="413.710125"/>
      </g>
     </g>
     <g id="text_5">
      <!-- 2020 -->
      <g transform="translate(483.898508 428.308562)scale(0.1 -0.1)">
       <use xlink:href="#DejaVuSans-50"/>
       <use x="63.623047" xlink:href="#DejaVuSans-48"/>
       <use x="127.246094" xlink:href="#DejaVuSans-50"/>
       <use x="190.869141" xlink:href="#DejaVuSans-48"/>
      </g>
     </g>
    </g>
    <g id="xtick_6">
     <g id="line2d_6">
      <g>
       <use style="stroke:#000000;stroke-width:0.8;" x="604.058919" xlink:href="#ma2a50a0c7e" y="413.710125"/>
      </g>
     </g>
     <g id="text_6">
      <!-- 2021 -->
      <g transform="translate(591.333919 428.308562)scale(0.1 -0.1)">
       <use xlink:href="#DejaVuSans-50"/>
       <use x="63.623047" xlink:href="#DejaVuSans-48"/>
       <use x="127.246094" xlink:href="#DejaVuSans-50"/>
       <use x="190.869141" xlink:href="#DejaVuSans-49"/>
      </g>
     </g>
    </g>
    <g id="xtick_7">
     <g id="line2d_7">
      <g>
       <use style="stroke:#000000;stroke-width:0.8;" x="711.200789" xlink:href="#ma2a50a0c7e" y="413.710125"/>
      </g>
     </g>
     <g id="text_7">
      <!-- 2022 -->
      <g transform="translate(698.475789 428.308562)scale(0.1 -0.1)">
       <use xlink:href="#DejaVuSans-50"/>
       <use x="63.623047" xlink:href="#DejaVuSans-48"/>
       <use x="127.246094" xlink:href="#DejaVuSans-50"/>
       <use x="190.869141" xlink:href="#DejaVuSans-50"/>
      </g>
     </g>
    </g>
    <g id="xtick_8">
     <g id="line2d_8">
      <g>
       <use style="stroke:#000000;stroke-width:0.8;" x="818.34266" xlink:href="#ma2a50a0c7e" y="413.710125"/>
      </g>
     </g>
     <g id="text_8">
      <!-- 2023 -->
      <g transform="translate(805.61766 428.308562)scale(0.1 -0.1)">
       <defs>
        <path d="M 40.578125 39.3125 
Q 47.65625 37.796875 51.625 33 
Q 55.609375 28.21875 55.609375 21.1875 
Q 55.609375 10.40625 48.1875 4.484375 
Q 40.765625 -1.421875 27.09375 -1.421875 
Q 22.515625 -1.421875 17.65625 -0.515625 
Q 12.796875 0.390625 7.625 2.203125 
L 7.625 11.71875 
Q 11.71875 9.328125 16.59375 8.109375 
Q 21.484375 6.890625 26.8125 6.890625 
Q 36.078125 6.890625 40.9375 10.546875 
Q 45.796875 14.203125 45.796875 21.1875 
Q 45.796875 27.640625 41.28125 31.265625 
Q 36.765625 34.90625 28.71875 34.90625 
L 20.21875 34.90625 
L 20.21875 43.015625 
L 29.109375 43.015625 
Q 36.375 43.015625 40.234375 45.921875 
Q 44.09375 48.828125 44.09375 54.296875 
Q 44.09375 59.90625 40.109375 62.90625 
Q 36.140625 65.921875 28.71875 65.921875 
Q 24.65625 65.921875 20.015625 65.03125 
Q 15.375 64.15625 9.8125 62.3125 
L 9.8125 71.09375 
Q 15.4375 72.65625 20.34375 73.4375 
Q 25.25 74.21875 29.59375 74.21875 
Q 40.828125 74.21875 47.359375 69.109375 
Q 53.90625 64.015625 53.90625 55.328125 
Q 53.90625 49.265625 50.4375 45.09375 
Q 46.96875 40.921875 40.578125 39.3125 
z
" id="DejaVuSans-51"/>
       </defs>
       <use xlink:href="#DejaVuSans-50"/>
       <use x="63.623047" xlink:href="#DejaVuSans-48"/>
       <use x="127.246094" xlink:href="#DejaVuSans-50"/>
       <use x="190.869141" xlink:href="#DejaVuSans-51"/>
      </g>
     </g>
    </g>
    <g id="xtick_9">
     <g id="line2d_9">
      <g>
       <use style="stroke:#000000;stroke-width:0.8;" x="925.484531" xlink:href="#ma2a50a0c7e" y="413.710125"/>
      </g>
     </g>
     <g id="text_9">
      <!-- 2024 -->
      <g transform="translate(912.759531 428.308562)scale(0.1 -0.1)">
       <defs>
        <path d="M 37.796875 64.3125 
L 12.890625 25.390625 
L 37.796875 25.390625 
z
M 35.203125 72.90625 
L 47.609375 72.90625 
L 47.609375 25.390625 
L 58.015625 25.390625 
L 58.015625 17.1875 
L 47.609375 17.1875 
L 47.609375 0 
L 37.796875 0 
L 37.796875 17.1875 
L 4.890625 17.1875 
L 4.890625 26.703125 
z
" id="DejaVuSans-52"/>
       </defs>
       <use xlink:href="#DejaVuSans-50"/>
       <use x="63.623047" xlink:href="#DejaVuSans-48"/>
       <use x="127.246094" xlink:href="#DejaVuSans-50"/>
       <use x="190.869141" xlink:href="#DejaVuSans-52"/>
      </g>
     </g>
    </g>
   </g>
   <g id="matplotlib.axis_2">
    <g id="ytick_1">
     <g id="line2d_10">
      <path clip-path="url(#pab2d705027)" d="M 45.967188 364.9795 
L 938.767187 364.9795 
" style="fill:none;stroke:#b0b0b0;stroke-linecap:square;stroke-opacity:0.3;stroke-width:0.8;"/>
     </g>
     <g id="line2d_11">
      <defs>
       <path d="M 0 0 
L -3.5 0 
" id="m29b13caa41" style="stroke:#000000;stroke-width:0.8;"/>
      </defs>
      <g>
       <use style="stroke:#000000;stroke-width:0.8;" x="45.967188" xlink:href="#m29b13caa41" y="364.9795"/>
      </g>
     </g>
     <g id="text_10">
      <!-- 60.0% -->
      <g transform="translate(7.2 368.778719)scale(0.1 -0.1)">
       <defs>
        <path d="M 10.6875 12.40625 
L 21 12.40625 
L 21 0 
L 10.6875 0 
z
" id="DejaVuSans-46"/>
        <path d="M 72.703125 32.078125 
Q 68.453125 32.078125 66.03125 28.46875 
Q 63.625 24.859375 63.625 18.40625 
Q 63.625 12.0625 66.03125 8.421875 
Q 68.453125 4.78125 72.703125 4.78125 
Q 76.859375 4.78125 79.265625 8.421875 
Q 81.6875 12.0625 81.6875 18.40625 
Q 81.6875 24.8125 79.265625 28.4375 
Q 76.859375 32.078125 72.703125 32.078125 
z
M 72.703125 38.28125 
Q 80.421875 38.28125 84.953125 32.90625 
Q 89.5 27.546875 89.5 18.40625 
Q 89.5 9.28125 84.9375 3.921875 
Q 80.375 -1.421875 72.703125 -1.421875 
Q 64.890625 -1.421875 60.34375 3.921875 
Q 55.8125 9.28125 55.8125 18.40625 
Q 55.8125 27.59375 60.375 32.9375 
Q 64.9375 38.28125 72.703125 38.28125 
z
M 22.3125 68.015625 
Q 18.109375 68.015625 15.6875 64.375 
Q 13.28125 60.75 13.28125 54.390625 
Q 13.28125 47.953125 15.671875 44.328125 
Q 18.0625 40.71875 22.3125 40.71875 
Q 26.5625 40.71875 28.96875 44.328125 
Q 31.390625 47.953125 31.390625 54.390625 
Q 31.390625 60.6875 28.953125 64.34375 
Q 26.515625 68.015625 22.3125 68.015625 
z
M 66.40625 74.21875 
L 74.21875 74.21875 
L 28.609375 -1.421875 
L 20.796875 -1.421875 
z
M 22.3125 74.21875 
Q 30.03125 74.21875 34.609375 68.875 
Q 39.203125 63.53125 39.203125 54.390625 
Q 39.203125 45.171875 34.640625 39.84375 
Q 30.078125 34.515625 22.3125 34.515625 
Q 14.546875 34.515625 10.03125 39.859375 
Q 5.515625 45.21875 5.515625 54.390625 
Q 5.515625 63.484375 10.046875 68.84375 
Q 14.59375 74.21875 22.3125 74.21875 
z
" id="DejaVuSans-37"/>
       </defs>
       <use xlink:href="#DejaVuSans-54"/>
       <use x="63.623047" xlink:href="#DejaVuSans-48"/>
       <use x="127.246094" xlink:href="#DejaVuSans-46"/>
       <use x="159.033203" xlink:href="#DejaVuSans-48"/>
       <use x="222.65625" xlink:href="#DejaVuSans-37"/>
      </g>
     </g>
    </g>
    <g id="ytick_2">
     <g id="line2d_12">
      <path clip-path="url(#pab2d705027)" d="M 45.967188 294.661139 
L 938.767187 294.661139 
" style="fill:none;stroke:#b0b0b0;stroke-linecap:square;stroke-opacity:0.3;stroke-width:0.8;"/>
     </g>
     <g id="line2d_13">
      <g>
       <use style="stroke:#000000;stroke-width:0.8;" x="45.967188" xlink:href="#m29b13caa41" y="294.661139"/>
      </g>
     </g>
     <g id="text_11">
      <!-- 65.0% -->
      <g transform="translate(7.2 298.460358)scale(0.1 -0.1)">
       <defs>
        <path d="M 10.796875 72.90625 
L 49.515625 72.90625 
L 49.515625 64.59375 
L 19.828125 64.59375 
L 19.828125 46.734375 
Q 21.96875 47.46875 24.109375 47.828125 
Q 26.265625 48.1875 28.421875 48.1875 
Q 40.625 48.1875 47.75 41.5 
Q 54.890625 34.8125 54.890625 23.390625 
Q 54.890625 11.625 47.5625 5.09375 
Q 40.234375 -1.421875 26.90625 -1.421875 
Q 22.3125 -1.421875 17.546875 -0.640625 
Q 12.796875 0.140625 7.71875 1.703125 
L 7.71875 11.625 
Q 12.109375 9.234375 16.796875 8.0625 
Q 21.484375 6.890625 26.703125 6.890625 
Q 35.15625 6.890625 40.078125 11.328125 
Q 45.015625 15.765625 45.015625 23.390625 
Q 45.015625 31 40.078125 35.4375 
Q 35.15625 39.890625 26.703125 39.890625 
Q 22.75 39.890625 18.8125 39.015625 
Q 14.890625 38.140625 10.796875 36.28125 
z
" id="DejaVuSans-53"/>
       </defs>
       <use xlink:href="#DejaVuSans-54"/>
       <use x="63.623047" xlink:href="#DejaVuSans-53"/>
       <use x="127.246094" xlink:href="#DejaVuSans-46"/>
       <use x="159.033203" xlink:href="#DejaVuSans-48"/>
       <use x="222.65625" xlink:href="#DejaVuSans-37"/>
      </g>
     </g>
    </g>
    <g id="ytick_3">
     <g id="line2d_14">
      <path clip-path="url(#pab2d705027)" d="M 45.967188 224.342778 
L 938.767187 224.342778 
" style="fill:none;stroke:#b0b0b0;stroke-linecap:square;stroke-opacity:0.3;stroke-width:0.8;"/>
     </g>
     <g id="line2d_15">
      <g>
       <use style="stroke:#000000;stroke-width:0.8;" x="45.967188" xlink:href="#m29b13caa41" y="224.342778"/>
      </g>
     </g>
     <g id="text_12">
      <!-- 70.0% -->
      <g transform="translate(7.2 228.141996)scale(0.1 -0.1)">
       <use xlink:href="#DejaVuSans-55"/>
       <use x="63.623047" xlink:href="#DejaVuSans-48"/>
       <use x="127.246094" xlink:href="#DejaVuSans-46"/>
       <use x="159.033203" xlink:href="#DejaVuSans-48"/>
       <use x="222.65625" xlink:href="#DejaVuSans-37"/>
      </g>
     </g>
    </g>
    <g id="ytick_4">
     <g id="line2d_16">
      <path clip-path="url(#pab2d705027)" d="M 45.967188 154.024416 
L 938.767187 154.024416 
" style="fill:none;stroke:#b0b0b0;stroke-linecap:square;stroke-opacity:0.3;stroke-width:0.8;"/>
     </g>
     <g id="line2d_17">
      <g>
       <use style="stroke:#000000;stroke-width:0.8;" x="45.967188" xlink:href="#m29b13caa41" y="154.024416"/>
      </g>
     </g>
     <g id="text_13">
      <!-- 75.0% -->
      <g transform="translate(7.2 157.823635)scale(0.1 -0.1)">
       <use xlink:href="#DejaVuSans-55"/>
       <use x="63.623047" xlink:href="#DejaVuSans-53"/>
       <use x="127.246094" xlink:href="#DejaVuSans-46"/>
       <use x="159.033203" xlink:href="#DejaVuSans-48"/>
       <use x="222.65625" xlink:href="#DejaVuSans-37"/>
      </g>
     </g>
    </g>
    <g id="ytick_5">
     <g id="line2d_18">
      <path clip-path="url(#pab2d705027)" d="M 45.967188 83.706055 
L 938.767187 83.706055 
" style="fill:none;stroke:#b0b0b0;stroke-linecap:square;stroke-opacity:0.3;stroke-width:0.8;"/>
     </g>
     <g id="line2d_19">
      <g>
       <use style="stroke:#000000;stroke-width:0.8;" x="45.967188" xlink:href="#m29b13caa41" y="83.706055"/>
      </g>
     </g>
     <g id="text_14">
      <!-- 80.0% -->
      <g transform="translate(7.2 87.505273)scale(0.1 -0.1)">
       <use xlink:href="#DejaVuSans-56"/>
       <use x="63.623047" xlink:href="#DejaVuSans-48"/>
       <use x="127.246094" xlink:href="#DejaVuSans-46"/>
       <use x="159.033203" xlink:href="#DejaVuSans-48"/>
       <use x="222.65625" xlink:href="#DejaVuSans-37"/>
      </g>
     </g>
    </g>
   </g>
   <g id="line2d_20">
    <path clip-path="url(#pab2d705027)" d="M 86.549006 413.710125 
L 86.549006 22.318125 
" style="fill:none;stroke:#000000;stroke-linecap:square;"/>
   </g>
   <g id="line2d_21">
    <path clip-path="url(#pab2d705027)" d="M 513.942331 413.710125 
L 513.942331 22.318125 
" style="fill:none;stroke:#000000;stroke-linecap:square;"/>
   </g>
   <g id="line2d_22">
    <path clip-path="url(#pab2d705027)" d="M 898.185369 413.710125 
L 898.185369 22.318125 
" style="fill:none;stroke:#000000;stroke-linecap:square;"/>
   </g>
   <g id="line2d_23">
    <path clip-path="url(#pab2d705027)" d="M 95.648726 85.492769 
L 101.813053 97.982775 
L 107.97738 109.958958 
L 113.848167 120.890071 
L 119.718955 131.360642 
L 125.589742 141.373564 
L 130.873451 149.99656 
L 131.16699 146.951064 
L 137.037778 156.155175 
L 142.615026 164.4966 
L 148.192274 172.449179 
L 151.127668 176.479631 
L 151.421207 173.433808 
L 156.998455 180.732923 
L 162.575703 187.664891 
L 167.859412 193.894065 
L 168.152951 197.770828 
L 173.43666 203.662086 
L 178.720368 209.219043 
L 184.004077 214.445075 
L 188.994247 219.07932 
L 193.984416 223.422911 
L 194.277955 223.669403 
L 194.571495 222.290239 
L 199.561664 226.34474 
L 204.551833 230.119095 
L 209.542003 233.619185 
L 214.825711 237.041221 
L 218.641723 239.348827 
L 218.935262 240.905333 
L 221.283577 242.2141 
L 221.577117 239.114399 
L 227.741444 242.425472 
L 230.089759 243.649753 
L 230.383298 245.823265 
L 232.731613 247.066632 
L 233.025152 244.438643 
L 235.373467 245.701876 
L 235.667007 247.77566 
L 238.015322 247.870076 
L 239.483019 247.738122 
L 239.776558 249.042137 
L 240.657176 248.789756 
L 241.537794 248.234754 
L 242.124873 247.660741 
L 242.418412 239.107037 
L 243.005491 237.121678 
L 243.29903 245.976227 
L 243.59257 245.439031 
L 243.886109 237.729151 
L 244.766727 236.033427 
L 245.060267 244.69241 
L 246.821503 242.767234 
L 247.115042 235.544236 
L 248.582739 233.927438 
L 248.876278 231.43277 
L 249.169818 235.691725 
L 250.931054 234.398681 
L 255.627684 231.031573 
L 255.921223 228.788734 
L 257.975999 227.737676 
L 258.563078 227.478151 
L 258.856617 231.345243 
L 267.075719 227.193086 
L 270.304653 225.835384 
L 271.47881 225.402996 
L 271.772349 228.459146 
L 277.936676 225.807251 
L 281.752688 224.39874 
L 284.981621 223.442311 
L 287.917015 222.797565 
L 292.320105 221.898928 
L 294.66842 221.092003 
L 296.429657 220.350861 
L 296.723196 219.733941 
L 299.36505 218.527553 
L 302.300444 216.966109 
L 302.593983 216.5361 
L 306.409995 214.18366 
L 309.05185 212.480655 
L 309.345389 212.607976 
L 310.226007 212.04789 
L 310.519547 212.400041 
L 316.977413 208.480636 
L 317.270952 208.055863 
L 320.793425 206.13474 
L 322.554661 205.263537 
L 322.8482 204.664353 
L 323.14174 204.984439 
L 326.664212 203.445933 
L 332.24146 201.324906 
L 336.93809 199.850498 
L 341.928259 198.522881 
L 347.211968 197.345798 
L 348.679665 197.054924 
L 348.973204 197.51161 
L 355.137531 196.593328 
L 358.953543 196.129375 
L 359.247082 195.339925 
L 366.292027 194.504631 
L 373.924051 193.828113 
L 381.849614 193.348228 
L 386.839783 193.154397 
L 387.133323 195.281387 
L 395.939504 195.438518 
L 402.103831 195.677223 
L 402.39737 193.040988 
L 411.203551 193.285539 
L 420.303272 193.765006 
L 429.109453 194.448639 
L 437.915634 195.353268 
L 446.428276 196.44606 
L 454.940918 197.762837 
L 463.16002 199.256273 
L 471.379122 200.97775 
L 479.304685 202.86271 
L 484.881934 204.325018 
L 484.881934 204.325018 
" style="fill:none;stroke:#007c85;stroke-linecap:square;stroke-width:2;"/>
   </g>
   <g id="line2d_24">
    <path clip-path="url(#pab2d705027)" d="M 527.445142 309.065807 
L 532.435312 310.846872 
L 537.425481 312.385982 
L 542.41565 313.687313 
L 547.40582 314.756344 
L 548.286438 314.921366 
L 548.579977 313.564917 
L 553.570147 314.540892 
L 558.560316 315.287077 
L 563.550485 315.816491 
L 568.834194 316.156504 
L 574.411442 316.287713 
L 580.282229 316.194511 
L 586.446556 315.865517 
L 591.143186 315.471417 
L 591.436726 315.313505 
L 598.188131 314.595356 
L 605.526615 313.583095 
L 613.452178 312.262607 
L 619.322966 311.095957 
L 624.606675 310.082312 
L 624.900214 309.733432 
L 634.587013 307.404899 
L 643.980273 304.920635 
L 653.079994 302.28872 
L 658.070163 300.733271 
L 658.363702 300.983337 
L 661.886175 299.760315 
L 662.179714 299.902092 
L 663.94095 299.255983 
L 664.23449 298.883086 
L 668.050502 297.302394 
L 668.344041 296.623574 
L 670.105277 295.655037 
L 670.398817 296.564042 
L 670.692356 295.298016 
L 671.279435 294.940502 
L 671.572974 294.893778 
L 672.453592 294.342651 
L 672.747132 294.38355 
L 673.62775 293.835153 
L 673.921289 295.236821 
L 676.563143 294.071699 
L 676.856683 291.780264 
L 677.737301 291.244998 
L 678.03084 291.337784 
L 684.782246 286.976576 
L 685.075785 287.142317 
L 689.478876 284.431606 
L 689.772415 283.976893 
L 691.533651 283.040635 
L 691.827191 283.908375 
L 692.41427 283.597555 
L 692.707809 282.731045 
L 693.588427 282.28739 
L 693.881966 281.843258 
L 694.175506 282.687893 
L 695.349663 282.106148 
L 695.643203 280.999758 
L 696.230281 280.731257 
L 696.523821 280.894638 
L 699.752754 279.547382 
L 700.046293 280.046139 
L 701.220451 279.596239 
L 701.51399 279.602688 
L 701.807529 279.001169 
L 702.688148 279.025164 
L 702.981687 278.66171 
L 703.275226 279.046503 
L 703.568766 279.677122 
L 704.449384 279.712576 
L 704.742923 279.095049 
L 707.384778 279.06628 
L 707.678317 279.757072 
L 709.146014 279.706938 
L 709.439553 278.899683 
L 712.081407 278.535484 
L 712.374947 278.020702 
L 714.723262 277.53123 
L 715.016801 278.016835 
L 719.713431 277.113004 
L 720.006971 276.397349 
L 726.758376 275.1066 
L 732.629163 274.22055 
L 738.206412 273.607573 
L 743.78366 273.225416 
L 749.360908 273.076383 
L 754.938156 273.16091 
L 755.231695 274.090078 
L 760.808943 274.434532 
L 766.386191 275.010903 
L 771.963439 275.819915 
L 777.540687 276.860512 
L 783.117935 278.130922 
L 788.695184 279.628672 
L 794.272432 281.350752 
L 800.143219 283.402198 
L 806.014007 285.694214 
L 811.884794 288.222982 
L 818.049121 291.129242 
L 824.213448 294.288078 
L 830.377774 297.69574 
L 836.542101 301.349372 
L 842.999967 305.437082 
L 849.457834 309.788413 
L 855.9157 314.40234 
L 862.667105 319.506774 
L 869.418511 324.898651 
L 874.995759 329.56924 
L 874.995759 329.56924 
" style="fill:none;stroke:#007c85;stroke-linecap:square;stroke-width:2;"/>
   </g>
   <g id="line2d_25">
    <path clip-path="url(#pab2d705027)" d="M 88.897321 173.22224 
L 99.758277 180.98929 
L 111.793392 189.318914 
L 116.490022 192.494211 
L 116.783561 192.988632 
L 124.415585 198.095693 
L 124.709124 198.573747 
L 134.395923 204.87217 
L 143.202104 210.335458 
L 151.127668 214.999694 
L 158.759691 219.235897 
L 166.098175 223.050162 
L 166.978794 223.489994 
L 167.272333 223.493927 
L 174.317278 226.870257 
L 181.362223 230.004124 
L 182.53638 230.50333 
L 182.82992 230.002214 
L 185.765313 231.253973 
L 186.058853 231.962624 
L 193.690876 234.938866 
L 202.203518 238.010623 
L 202.790597 238.126742 
L 216.586947 243.147737 
L 221.577117 245.277366 
L 223.925432 246.437884 
L 224.512511 246.859175 
L 224.80605 246.888942 
L 230.089759 249.504083 
L 232.731613 250.594351 
L 235.373467 251.44348 
L 239.776558 252.518863 
L 240.950715 252.827073 
L 241.537794 253.100648 
L 243.005491 253.412002 
L 246.234424 253.897544 
L 249.756897 254.218343 
L 250.050436 253.938877 
L 250.343975 253.990608 
L 250.637515 254.385123 
L 251.518133 254.552252 
L 251.811672 254.334146 
L 252.105212 254.385788 
L 252.398751 254.319558 
L 252.69229 254.369161 
L 252.98583 254.82548 
L 255.334145 255.156749 
L 260.030775 255.079728 
L 261.792011 255.10663 
L 265.020944 255.286167 
L 279.697912 254.019085 
L 283.220385 253.518447 
L 286.155779 252.844968 
L 290.852409 251.652189 
L 294.96196 251.039716 
L 296.723196 250.734023 
L 299.071511 249.612654 
L 302.300444 249.128498 
L 306.997074 245.956199 
L 309.05185 244.588434 
L 311.693704 243.695691 
L 313.74848 242.795331 
L 315.803255 241.666634 
L 317.270952 240.724745 
L 317.564491 240.393328 
L 317.858031 241.136399 
L 318.738649 240.26916 
L 319.032188 239.403053 
L 321.674043 237.393329 
L 322.261121 236.660792 
L 322.8482 235.804839 
L 323.14174 233.640697 
L 323.435279 236.625008 
L 323.728818 235.482601 
L 324.902976 233.389464 
L 325.196515 230.696291 
L 325.490055 229.92303 
L 325.783594 228.237552 
L 326.370673 227.419629 
L 331.947921 221.765152 
L 334.002696 219.7288 
L 335.176854 218.264497 
L 335.470393 217.942573 
L 335.763933 217.031083 
L 337.231629 215.57571 
L 337.525169 215.319494 
L 337.818708 214.54127 
L 338.405787 214.06742 
L 338.992866 214.748806 
L 339.286405 212.91113 
L 339.579944 213.072375 
L 342.515338 210.445187 
L 342.808877 210.744795 
L 345.744271 208.11226 
L 346.037811 208.570507 
L 346.33135 207.571485 
L 348.092586 206.067713 
L 349.266744 205.170243 
L 349.560283 205.580661 
L 351.908598 203.215813 
L 352.202137 202.194125 
L 354.843992 199.144444 
L 356.018149 197.662339 
L 356.311689 196.673083 
L 357.485846 195.664926 
L 357.779385 196.045045 
L 360.714779 193.248736 
L 361.301858 192.51971 
L 361.595397 192.86013 
L 363.356633 190.076514 
L 363.650173 189.578218 
L 363.943712 188.055885 
L 364.237252 187.490614 
L 364.530791 188.033392 
L 365.411409 186.437554 
L 365.704948 183.376789 
L 365.998488 185.358934 
L 368.346803 181.291722 
L 369.8145 179.122505 
L 370.401578 178.469476 
L 370.695118 180.797292 
L 374.21759 177.431439 
L 375.391748 176.259991 
L 378.327141 172.516342 
L 379.20776 171.72832 
L 379.501299 167.616771 
L 379.794838 167.184947 
L 380.088378 158.142401 
L 382.143153 155.248138 
L 382.436693 156.392895 
L 384.491468 153.594225 
L 385.665626 152.641785 
L 385.959165 164.537321 
L 388.013941 163.203706 
L 392.123492 158.885078 
L 394.471807 156.702151 
L 395.645964 155.726266 
L 395.939504 141.711867 
L 398.581358 139.021062 
L 399.168437 138.79285 
L 400.342594 138.693289 
L 401.223212 138.775006 
L 402.103831 139.056544 
L 402.39737 137.102689 
L 402.984449 137.234351 
L 403.277988 149.234991 
L 403.571527 137.461577 
L 404.452146 138.067334 
L 404.745685 141.625011 
L 405.039224 142.094908 
L 405.332764 136.805043 
L 405.626303 137.063605 
L 405.919842 147.81593 
L 406.213382 140.593735 
L 406.800461 141.829528 
L 407.094 136.961002 
L 407.387539 140.005124 
L 407.681079 140.730172 
L 407.974618 150.834214 
L 409.148776 152.252129 
L 409.442315 155.545288 
L 410.910012 156.460787 
L 412.377709 157.140663 
L 414.138945 157.703933 
L 416.19372 158.088546 
L 418.248496 158.250409 
L 418.542035 160.222404 
L 421.477429 159.922958 
L 425.293441 159.292569 
L 426.761138 158.996557 
L 427.054677 156.516602 
L 429.402992 156.130763 
L 429.696532 156.951038 
L 434.686701 155.775473 
L 440.557488 154.156609 
L 448.189512 151.811224 
L 454.647378 149.671521 
L 454.940918 149.034966 
L 456.995693 148.350248 
L 457.289233 147.961842 
L 457.582772 148.152559 
L 466.095414 145.174148 
L 466.388953 145.441531 
L 473.433898 142.640261 
L 474.020977 142.395328 
L 474.314516 142.04228 
L 474.901595 141.805727 
L 475.195134 142.21893 
L 481.065922 139.377702 
L 486.64317 136.427487 
L 491.926878 133.369902 
L 496.917048 130.216797 
L 501.613678 126.988929 
L 506.310308 123.487433 
L 508.071544 122.099987 
L 508.071544 122.099987 
" style="fill:none;stroke:#ffda00;stroke-linecap:square;stroke-width:2;"/>
   </g>
   <g id="line2d_26">
    <path clip-path="url(#pab2d705027)" d="M 528.032221 197.297063 
L 537.131942 203.665644 
L 546.525202 209.9614 
L 555.918462 215.990062 
L 557.092619 216.725141 
L 557.386158 216.355256 
L 566.779418 221.936057 
L 574.117903 226.113334 
L 574.411442 225.865911 
L 583.511163 230.72063 
L 592.023804 235.015557 
L 598.77521 238.240377 
L 599.068749 238.992546 
L 606.994312 242.601431 
L 614.332797 245.702672 
L 621.377742 248.438139 
L 628.129147 250.820108 
L 634.880553 252.966986 
L 635.174092 253.055323 
L 635.467631 251.451047 
L 636.05471 251.611374 
L 636.348249 252.010637 
L 639.870722 252.953874 
L 640.164261 253.591757 
L 648.970442 255.90074 
L 649.263982 257.036597 
L 650.1446 257.292236 
L 650.438139 255.087519 
L 650.731679 255.157012 
L 651.025218 255.728634 
L 654.84123 256.807269 
L 655.134769 258.896017 
L 658.070163 260.06009 
L 660.712017 261.337608 
L 663.353872 262.87619 
L 664.528029 263.633884 
L 664.821569 262.723256 
L 665.115108 265.523793 
L 668.63758 267.644312 
L 668.93112 265.622895 
L 670.692356 266.710908 
L 670.985895 267.694893 
L 671.866513 267.946353 
L 672.747132 268.130524 
L 673.040671 267.562416 
L 675.095447 268.010135 
L 676.269604 268.145459 
L 676.563143 269.154601 
L 678.32438 269.044109 
L 679.498537 269.467045 
L 679.792077 268.871133 
L 682.433931 269.784807 
L 683.02101 269.779512 
L 685.075785 269.401899 
L 687.130561 268.778501 
L 688.891797 268.183498 
L 692.12073 268.787758 
L 693.881966 268.948137 
L 695.056124 268.381553 
L 695.349663 268.413508 
L 696.230281 268.013062 
L 698.872136 267.091795 
L 703.862305 267.411787 
L 708.558935 267.492527 
L 709.439553 267.404267 
L 710.026632 267.244209 
L 710.320171 266.725656 
L 710.613711 267.095619 
L 711.787868 266.830236 
L 712.081407 266.302863 
L 712.374947 266.713137 
L 712.668486 266.658578 
L 712.962026 266.152173 
L 713.255565 265.870569 
L 713.549104 265.845398 
L 713.842644 266.468298 
L 714.136183 266.016944 
L 716.190959 266.099441 
L 719.419892 266.124018 
L 721.474667 266.123109 
L 722.061746 266.158518 
L 722.355285 265.856013 
L 722.648825 265.828127 
L 722.942364 265.920098 
L 725.290679 265.389295 
L 726.758376 264.647843 
L 728.226073 263.64384 
L 728.519612 263.41566 
L 728.813152 262.785773 
L 729.40023 262.210714 
L 729.69377 261.130714 
L 729.987309 261.078738 
L 730.867927 260.542646 
L 733.803321 259.96585 
L 734.09686 260.883689 
L 734.977478 260.731526 
L 736.151636 259.849206 
L 736.445175 258.90274 
L 737.325793 258.473763 
L 737.619333 258.578672 
L 737.912872 258.290516 
L 738.206412 258.236145 
L 738.499951 258.328982 
L 741.435345 257.931047 
L 741.728884 257.549986 
L 742.022423 257.514588 
L 742.315963 257.63643 
L 744.664278 257.527259 
L 748.48029 257.649455 
L 748.773829 258.315517 
L 761.983101 259.158256 
L 766.97327 259.151758 
L 771.963439 258.927842 
L 774.018215 258.774794 
L 774.311754 260.566459 
L 779.008384 260.36626 
L 779.301924 260.346476 
L 779.595463 266.028363 
L 781.650239 266.036896 
L 781.943778 264.285881 
L 786.053329 264.059646 
L 790.45642 263.580484 
L 794.85951 262.873647 
L 799.262601 261.948184 
L 799.84968 261.80862 
L 800.143219 259.555103 
L 805.133388 258.227071 
L 810.123558 256.661577 
L 815.113727 254.861783 
L 820.103896 252.82712 
L 825.094066 250.557759 
L 830.084235 248.051929 
L 835.074404 245.305364 
L 840.064574 242.311773 
L 845.054743 239.063613 
L 850.044912 235.551641 
L 850.338452 235.336635 
L 850.631991 237.128816 
L 855.328621 232.974143 
L 858.264015 230.233881 
L 858.557554 228.353286 
L 863.841263 224.227175 
L 868.831432 220.054479 
L 873.821601 215.604706 
L 877.931153 211.726827 
L 877.931153 211.726827 
" style="fill:none;stroke:#ffda00;stroke-linecap:square;stroke-width:2;"/>
   </g>
   <g id="patch_3">
    <path d="M 45.967188 413.710125 
L 45.967188 22.318125 
" style="fill:none;stroke:#000000;stroke-linecap:square;stroke-linejoin:miter;stroke-width:0.8;"/>
   </g>
   <g id="patch_4">
    <path d="M 938.767187 413.710125 
L 938.767187 22.318125 
" style="fill:none;stroke:#000000;stroke-linecap:square;stroke-linejoin:miter;stroke-width:0.8;"/>
   </g>
   <g id="patch_5">
    <path d="M 45.967188 413.710125 
L 938.767187 413.710125 
" style="fill:none;stroke:#000000;stroke-linecap:square;stroke-linejoin:miter;stroke-width:0.8;"/>
   </g>
   <g id="patch_6">
    <path d="M 45.967188 22.318125 
L 938.767187 22.318125 
" style="fill:none;stroke:#000000;stroke-linecap:square;stroke-linejoin:miter;stroke-width:0.8;"/>
   </g>
   <g id="text_15">
    <!-- Participation Rate -->
    <g transform="translate(439.250313 16.318125)scale(0.12 -0.12)">
     <defs>
      <path d="M 19.671875 64.796875 
L 19.671875 37.40625 
L 32.078125 37.40625 
Q 38.96875 37.40625 42.71875 40.96875 
Q 46.484375 44.53125 46.484375 51.125 
Q 46.484375 57.671875 42.71875 61.234375 
Q 38.96875 64.796875 32.078125 64.796875 
z
M 9.8125 72.90625 
L 32.078125 72.90625 
Q 44.34375 72.90625 50.609375 67.359375 
Q 56.890625 61.8125 56.890625 51.125 
Q 56.890625 40.328125 50.609375 34.8125 
Q 44.34375 29.296875 32.078125 29.296875 
L 19.671875 29.296875 
L 19.671875 0 
L 9.8125 0 
z
" id="DejaVuSans-80"/>
      <path d="M 34.28125 27.484375 
Q 23.390625 27.484375 19.1875 25 
Q 14.984375 22.515625 14.984375 16.5 
Q 14.984375 11.71875 18.140625 8.90625 
Q 21.296875 6.109375 26.703125 6.109375 
Q 34.1875 6.109375 38.703125 11.40625 
Q 43.21875 16.703125 43.21875 25.484375 
L 43.21875 27.484375 
z
M 52.203125 31.203125 
L 52.203125 0 
L 43.21875 0 
L 43.21875 8.296875 
Q 40.140625 3.328125 35.546875 0.953125 
Q 30.953125 -1.421875 24.3125 -1.421875 
Q 15.921875 -1.421875 10.953125 3.296875 
Q 6 8.015625 6 15.921875 
Q 6 25.140625 12.171875 29.828125 
Q 18.359375 34.515625 30.609375 34.515625 
L 43.21875 34.515625 
L 43.21875 35.40625 
Q 43.21875 41.609375 39.140625 45 
Q 35.0625 48.390625 27.6875 48.390625 
Q 23 48.390625 18.546875 47.265625 
Q 14.109375 46.140625 10.015625 43.890625 
L 10.015625 52.203125 
Q 14.9375 54.109375 19.578125 55.046875 
Q 24.21875 56 28.609375 56 
Q 40.484375 56 46.34375 49.84375 
Q 52.203125 43.703125 52.203125 31.203125 
z
" id="DejaVuSans-97"/>
      <path d="M 41.109375 46.296875 
Q 39.59375 47.171875 37.8125 47.578125 
Q 36.03125 48 33.890625 48 
Q 26.265625 48 22.1875 43.046875 
Q 18.109375 38.09375 18.109375 28.8125 
L 18.109375 0 
L 9.078125 0 
L 9.078125 54.6875 
L 18.109375 54.6875 
L 18.109375 46.1875 
Q 20.953125 51.171875 25.484375 53.578125 
Q 30.03125 56 36.53125 56 
Q 37.453125 56 38.578125 55.875 
Q 39.703125 55.765625 41.0625 55.515625 
z
" id="DejaVuSans-114"/>
      <path d="M 18.3125 70.21875 
L 18.3125 54.6875 
L 36.8125 54.6875 
L 36.8125 47.703125 
L 18.3125 47.703125 
L 18.3125 18.015625 
Q 18.3125 11.328125 20.140625 9.421875 
Q 21.96875 7.515625 27.59375 7.515625 
L 36.8125 7.515625 
L 36.8125 0 
L 27.59375 0 
Q 17.1875 0 13.234375 3.875 
Q 9.28125 7.765625 9.28125 18.015625 
L 9.28125 47.703125 
L 2.6875 47.703125 
L 2.6875 54.6875 
L 9.28125 54.6875 
L 9.28125 70.21875 
z
" id="DejaVuSans-116"/>
      <path d="M 9.421875 54.6875 
L 18.40625 54.6875 
L 18.40625 0 
L 9.421875 0 
z
M 9.421875 75.984375 
L 18.40625 75.984375 
L 18.40625 64.59375 
L 9.421875 64.59375 
z
" id="DejaVuSans-105"/>
      <path d="M 48.78125 52.59375 
L 48.78125 44.1875 
Q 44.96875 46.296875 41.140625 47.34375 
Q 37.3125 48.390625 33.40625 48.390625 
Q 24.65625 48.390625 19.8125 42.84375 
Q 14.984375 37.3125 14.984375 27.296875 
Q 14.984375 17.28125 19.8125 11.734375 
Q 24.65625 6.203125 33.40625 6.203125 
Q 37.3125 6.203125 41.140625 7.25 
Q 44.96875 8.296875 48.78125 10.40625 
L 48.78125 2.09375 
Q 45.015625 0.34375 40.984375 -0.53125 
Q 36.96875 -1.421875 32.421875 -1.421875 
Q 20.0625 -1.421875 12.78125 6.34375 
Q 5.515625 14.109375 5.515625 27.296875 
Q 5.515625 40.671875 12.859375 48.328125 
Q 20.21875 56 33.015625 56 
Q 37.15625 56 41.109375 55.140625 
Q 45.0625 54.296875 48.78125 52.59375 
z
" id="DejaVuSans-99"/>
      <path d="M 18.109375 8.203125 
L 18.109375 -20.796875 
L 9.078125 -20.796875 
L 9.078125 54.6875 
L 18.109375 54.6875 
L 18.109375 46.390625 
Q 20.953125 51.265625 25.265625 53.625 
Q 29.59375 56 35.59375 56 
Q 45.5625 56 51.78125 48.09375 
Q 58.015625 40.1875 58.015625 27.296875 
Q 58.015625 14.40625 51.78125 6.484375 
Q 45.5625 -1.421875 35.59375 -1.421875 
Q 29.59375 -1.421875 25.265625 0.953125 
Q 20.953125 3.328125 18.109375 8.203125 
z
M 48.6875 27.296875 
Q 48.6875 37.203125 44.609375 42.84375 
Q 40.53125 48.484375 33.40625 48.484375 
Q 26.265625 48.484375 22.1875 42.84375 
Q 18.109375 37.203125 18.109375 27.296875 
Q 18.109375 17.390625 22.1875 11.75 
Q 26.265625 6.109375 33.40625 6.109375 
Q 40.53125 6.109375 44.609375 11.75 
Q 48.6875 17.390625 48.6875 27.296875 
z
" id="DejaVuSans-112"/>
      <path d="M 30.609375 48.390625 
Q 23.390625 48.390625 19.1875 42.75 
Q 14.984375 37.109375 14.984375 27.296875 
Q 14.984375 17.484375 19.15625 11.84375 
Q 23.34375 6.203125 30.609375 6.203125 
Q 37.796875 6.203125 41.984375 11.859375 
Q 46.1875 17.53125 46.1875 27.296875 
Q 46.1875 37.015625 41.984375 42.703125 
Q 37.796875 48.390625 30.609375 48.390625 
z
M 30.609375 56 
Q 42.328125 56 49.015625 48.375 
Q 55.71875 40.765625 55.71875 27.296875 
Q 55.71875 13.875 49.015625 6.21875 
Q 42.328125 -1.421875 30.609375 -1.421875 
Q 18.84375 -1.421875 12.171875 6.21875 
Q 5.515625 13.875 5.515625 27.296875 
Q 5.515625 40.765625 12.171875 48.375 
Q 18.84375 56 30.609375 56 
z
" id="DejaVuSans-111"/>
      <path d="M 54.890625 33.015625 
L 54.890625 0 
L 45.90625 0 
L 45.90625 32.71875 
Q 45.90625 40.484375 42.875 44.328125 
Q 39.84375 48.1875 33.796875 48.1875 
Q 26.515625 48.1875 22.3125 43.546875 
Q 18.109375 38.921875 18.109375 30.90625 
L 18.109375 0 
L 9.078125 0 
L 9.078125 54.6875 
L 18.109375 54.6875 
L 18.109375 46.1875 
Q 21.34375 51.125 25.703125 53.5625 
Q 30.078125 56 35.796875 56 
Q 45.21875 56 50.046875 50.171875 
Q 54.890625 44.34375 54.890625 33.015625 
z
" id="DejaVuSans-110"/>
      <path id="DejaVuSans-32"/>
      <path d="M 44.390625 34.1875 
Q 47.5625 33.109375 50.5625 29.59375 
Q 53.5625 26.078125 56.59375 19.921875 
L 66.609375 0 
L 56 0 
L 46.6875 18.703125 
Q 43.0625 26.03125 39.671875 28.421875 
Q 36.28125 30.8125 30.421875 30.8125 
L 19.671875 30.8125 
L 19.671875 0 
L 9.8125 0 
L 9.8125 72.90625 
L 32.078125 72.90625 
Q 44.578125 72.90625 50.734375 67.671875 
Q 56.890625 62.453125 56.890625 51.90625 
Q 56.890625 45.015625 53.6875 40.46875 
Q 50.484375 35.9375 44.390625 34.1875 
z
M 19.671875 64.796875 
L 19.671875 38.921875 
L 32.078125 38.921875 
Q 39.203125 38.921875 42.84375 42.21875 
Q 46.484375 45.515625 46.484375 51.90625 
Q 46.484375 58.296875 42.84375 61.546875 
Q 39.203125 64.796875 32.078125 64.796875 
z
" id="DejaVuSans-82"/>
      <path d="M 56.203125 29.59375 
L 56.203125 25.203125 
L 14.890625 25.203125 
Q 15.484375 15.921875 20.484375 11.0625 
Q 25.484375 6.203125 34.421875 6.203125 
Q 39.59375 6.203125 44.453125 7.46875 
Q 49.3125 8.734375 54.109375 11.28125 
L 54.109375 2.78125 
Q 49.265625 0.734375 44.1875 -0.34375 
Q 39.109375 -1.421875 33.890625 -1.421875 
Q 20.796875 -1.421875 13.15625 6.1875 
Q 5.515625 13.8125 5.515625 26.8125 
Q 5.515625 40.234375 12.765625 48.109375 
Q 20.015625 56 32.328125 56 
Q 43.359375 56 49.78125 48.890625 
Q 56.203125 41.796875 56.203125 29.59375 
z
M 47.21875 32.234375 
Q 47.125 39.59375 43.09375 43.984375 
Q 39.0625 48.390625 32.421875 48.390625 
Q 24.90625 48.390625 20.390625 44.140625 
Q 15.875 39.890625 15.1875 32.171875 
z
" id="DejaVuSans-101"/>
     </defs>
     <use xlink:href="#DejaVuSans-80"/>
     <use x="55.802734" xlink:href="#DejaVuSans-97"/>
     <use x="117.082031" xlink:href="#DejaVuSans-114"/>
     <use x="158.195312" xlink:href="#DejaVuSans-116"/>
     <use x="197.404297" xlink:href="#DejaVuSans-105"/>
     <use x="225.1875" xlink:href="#DejaVuSans-99"/>
     <use x="280.167969" xlink:href="#DejaVuSans-105"/>
     <use x="307.951172" xlink:href="#DejaVuSans-112"/>
     <use x="371.427734" xlink:href="#DejaVuSans-97"/>
     <use x="432.707031" xlink:href="#DejaVuSans-116"/>
     <use x="471.916016" xlink:href="#DejaVuSans-105"/>
     <use x="499.699219" xlink:href="#DejaVuSans-111"/>
     <use x="560.880859" xlink:href="#DejaVuSans-110"/>
     <use x="624.259766" xlink:href="#DejaVuSans-32"/>
     <use x="656.046875" xlink:href="#DejaVuSans-82"/>
     <use x="723.279297" xlink:href="#DejaVuSans-97"/>
     <use x="784.558594" xlink:href="#DejaVuSans-116"/>
     <use x="823.767578" xlink:href="#DejaVuSans-101"/>
    </g>
   </g>
  </g>
  <g id="legend_1">
   <g id="line2d_27">
    <path d="M 412.470313 451.8495 
L 432.470313 451.8495 
" style="fill:none;stroke:#007c85;stroke-linecap:square;stroke-width:2;"/>
   </g>
   <g id="line2d_28"/>
   <g id="text_16">
    <!-- AKO -->
    <g transform="translate(440.470313 455.3495)scale(0.1 -0.1)">
     <defs>
      <path d="M 34.1875 63.1875 
L 20.796875 26.90625 
L 47.609375 26.90625 
z
M 28.609375 72.90625 
L 39.796875 72.90625 
L 67.578125 0 
L 57.328125 0 
L 50.6875 18.703125 
L 17.828125 18.703125 
L 11.1875 0 
L 0.78125 0 
z
" id="DejaVuSans-65"/>
      <path d="M 9.8125 72.90625 
L 19.671875 72.90625 
L 19.671875 42.09375 
L 52.390625 72.90625 
L 65.09375 72.90625 
L 28.90625 38.921875 
L 67.671875 0 
L 54.6875 0 
L 19.671875 35.109375 
L 19.671875 0 
L 9.8125 0 
z
" id="DejaVuSans-75"/>
      <path d="M 39.40625 66.21875 
Q 28.65625 66.21875 22.328125 58.203125 
Q 16.015625 50.203125 16.015625 36.375 
Q 16.015625 22.609375 22.328125 14.59375 
Q 28.65625 6.59375 39.40625 6.59375 
Q 50.140625 6.59375 56.421875 14.59375 
Q 62.703125 22.609375 62.703125 36.375 
Q 62.703125 50.203125 56.421875 58.203125 
Q 50.140625 66.21875 39.40625 66.21875 
z
M 39.40625 74.21875 
Q 54.734375 74.21875 63.90625 63.9375 
Q 73.09375 53.65625 73.09375 36.375 
Q 73.09375 19.140625 63.90625 8.859375 
Q 54.734375 -1.421875 39.40625 -1.421875 
Q 24.03125 -1.421875 14.8125 8.828125 
Q 5.609375 19.09375 5.609375 36.375 
Q 5.609375 53.65625 14.8125 63.9375 
Q 24.03125 74.21875 39.40625 74.21875 
z
" id="DejaVuSans-79"/>
     </defs>
     <use xlink:href="#DejaVuSans-65"/>
     <use x="68.408203" xlink:href="#DejaVuSans-75"/>
     <use x="128.484375" xlink:href="#DejaVuSans-79"/>
    </g>
   </g>
   <g id="line2d_29">
    <path d="M 481.190625 451.8495 
L 501.190625 451.8495 
" style="fill:none;stroke:#ffda00;stroke-linecap:square;stroke-width:2;"/>
   </g>
   <g id="line2d_30"/>
   <g id="text_17">
    <!-- FOCUS -->
    <g transform="translate(509.190625 455.3495)scale(0.1 -0.1)">
     <defs>
      <path d="M 9.8125 72.90625 
L 51.703125 72.90625 
L 51.703125 64.59375 
L 19.671875 64.59375 
L 19.671875 43.109375 
L 48.578125 43.109375 
L 48.578125 34.8125 
L 19.671875 34.8125 
L 19.671875 0 
L 9.8125 0 
z
" id="DejaVuSans-70"/>
      <path d="M 64.40625 67.28125 
L 64.40625 56.890625 
Q 59.421875 61.53125 53.78125 63.8125 
Q 48.140625 66.109375 41.796875 66.109375 
Q 29.296875 66.109375 22.65625 58.46875 
Q 16.015625 50.828125 16.015625 36.375 
Q 16.015625 21.96875 22.65625 14.328125 
Q 29.296875 6.6875 41.796875 6.6875 
Q 48.140625 6.6875 53.78125 8.984375 
Q 59.421875 11.28125 64.40625 15.921875 
L 64.40625 5.609375 
Q 59.234375 2.09375 53.4375 0.328125 
Q 47.65625 -1.421875 41.21875 -1.421875 
Q 24.65625 -1.421875 15.125 8.703125 
Q 5.609375 18.84375 5.609375 36.375 
Q 5.609375 53.953125 15.125 64.078125 
Q 24.65625 74.21875 41.21875 74.21875 
Q 47.75 74.21875 53.53125 72.484375 
Q 59.328125 70.75 64.40625 67.28125 
z
" id="DejaVuSans-67"/>
      <path d="M 8.6875 72.90625 
L 18.609375 72.90625 
L 18.609375 28.609375 
Q 18.609375 16.890625 22.84375 11.734375 
Q 27.09375 6.59375 36.625 6.59375 
Q 46.09375 6.59375 50.34375 11.734375 
Q 54.59375 16.890625 54.59375 28.609375 
L 54.59375 72.90625 
L 64.5 72.90625 
L 64.5 27.390625 
Q 64.5 13.140625 57.4375 5.859375 
Q 50.390625 -1.421875 36.625 -1.421875 
Q 22.796875 -1.421875 15.734375 5.859375 
Q 8.6875 13.140625 8.6875 27.390625 
z
" id="DejaVuSans-85"/>
      <path d="M 53.515625 70.515625 
L 53.515625 60.890625 
Q 47.90625 63.578125 42.921875 64.890625 
Q 37.9375 66.21875 33.296875 66.21875 
Q 25.25 66.21875 20.875 63.09375 
Q 16.5 59.96875 16.5 54.203125 
Q 16.5 49.359375 19.40625 46.890625 
Q 22.3125 44.4375 30.421875 42.921875 
L 36.375 41.703125 
Q 47.40625 39.59375 52.65625 34.296875 
Q 57.90625 29 57.90625 20.125 
Q 57.90625 9.515625 50.796875 4.046875 
Q 43.703125 -1.421875 29.984375 -1.421875 
Q 24.8125 -1.421875 18.96875 -0.25 
Q 13.140625 0.921875 6.890625 3.21875 
L 6.890625 13.375 
Q 12.890625 10.015625 18.65625 8.296875 
Q 24.421875 6.59375 29.984375 6.59375 
Q 38.421875 6.59375 43.015625 9.90625 
Q 47.609375 13.234375 47.609375 19.390625 
Q 47.609375 24.75 44.3125 27.78125 
Q 41.015625 30.8125 33.5 32.328125 
L 27.484375 33.5 
Q 16.453125 35.6875 11.515625 40.375 
Q 6.59375 45.0625 6.59375 53.421875 
Q 6.59375 63.09375 13.40625 68.65625 
Q 20.21875 74.21875 32.171875 74.21875 
Q 37.3125 74.21875 42.625 73.28125 
Q 47.953125 72.359375 53.515625 70.515625 
z
" id="DejaVuSans-83"/>
     </defs>
     <use xlink:href="#DejaVuSans-70"/>
     <use x="57.519531" xlink:href="#DejaVuSans-79"/>
     <use x="136.230469" xlink:href="#DejaVuSans-67"/>
     <use x="206.054688" xlink:href="#DejaVuSans-85"/>
     <use x="279.248047" xlink:href="#DejaVuSans-83"/>
    </g>
   </g>
  </g>
 </g>
 <defs>
  <clipPath id="pab2d705027">
   <rect height="391.392" width="892.8" x="45.967188" y="22.318125"/>
  </clipPath>
 </defs>
</svg>
