<?xml version="1.0" encoding="utf-8" standalone="no"?>
<!DOCTYPE svg PUBLIC "-//W3C//DTD SVG 1.1//EN"
  "http://www.w3.org/Graphics/SVG/1.1/DTD/svg11.dtd">
<svg xmlns:xlink="http://www.w3.org/1999/xlink" width="945.967187pt" height="468.629188pt" viewBox="0 0 945.967187 468.629188" xmlns="http://www.w3.org/2000/svg" version="1.1">
 <metadata>
  <rdf:RDF xmlns:dc="http://purl.org/dc/elements/1.1/" xmlns:cc="http://creativecommons.org/ns#" xmlns:rdf="http://www.w3.org/1999/02/22-rdf-syntax-ns#">
   <cc:Work>
    <dc:type rdf:resource="http://purl.org/dc/dcmitype/StillImage"/>
    <dc:date>2023-10-01T11:20:58.599822</dc:date>
    <dc:format>image/svg+xml</dc:format>
    <dc:creator>
     <cc:Agent>
      <dc:title>Matplotlib v3.7.1, https://matplotlib.org/</dc:title>
     </cc:Agent>
    </dc:creator>
   </cc:Work>
  </rdf:RDF>
 </metadata>
 <defs>
  <style type="text/css">*{stroke-linejoin: round; stroke-linecap: butt}</style>
 </defs>
 <g id="figure_1">
  <g id="patch_1">
   <path d="M 0 468.629188 
L 945.967187 468.629188 
L 945.967187 0 
L 0 0 
z
" style="fill: #ffffff"/>
  </g>
  <g id="axes_1">
   <g id="patch_2">
    <path d="M 45.967188 421.486125 
L 938.767187 421.486125 
L 938.767187 22.318125 
L 45.967188 22.318125 
z
" style="fill: #ffffff"/>
   </g>
   <g id="PathCollection_1">
    <defs>
     <path id="mca78255c12" d="M 0 1.5 
C 0.397805 1.5 0.77937 1.341951 1.06066 1.06066 
C 1.341951 0.77937 1.5 0.397805 1.5 0 
C 1.5 -0.397805 1.341951 -0.77937 1.06066 -1.06066 
C 0.77937 -1.341951 0.397805 -1.5 0 -1.5 
C -0.397805 -1.5 -0.77937 -1.341951 -1.06066 -1.06066 
C -1.341951 -0.77937 -1.5 -0.397805 -1.5 0 
C -1.5 0.397805 -1.341951 0.77937 -1.06066 1.06066 
C -0.77937 1.341951 -0.397805 1.5 0 1.5 
z
" style="stroke: #007c85"/>
    </defs>
    <g clip-path="url(#peb710bb478)">
     <use xlink:href="#mca78255c12" x="95.648726" y="290.945665" style="fill: #007c85; stroke: #007c85"/>
     <use xlink:href="#mca78255c12" x="105.041986" y="217.085134" style="fill: #007c85; stroke: #007c85"/>
     <use xlink:href="#mca78255c12" x="128.231597" y="274.889028" style="fill: #007c85; stroke: #007c85"/>
     <use xlink:href="#mca78255c12" x="143.789183" y="59.73009" style="fill: #007c85; stroke: #007c85"/>
     <use xlink:href="#mca78255c12" x="153.475983" y="151.252921" style="fill: #007c85; stroke: #007c85"/>
     <use xlink:href="#mca78255c12" x="158.759691" y="136.801948" style="fill: #007c85; stroke: #007c85"/>
     <use xlink:href="#mca78255c12" x="167.272333" y="218.690798" style="fill: #007c85; stroke: #007c85"/>
     <use xlink:href="#mca78255c12" x="176.665593" y="160.886904" style="fill: #007c85; stroke: #007c85"/>
     <use xlink:href="#mca78255c12" x="187.52655" y="162.492567" style="fill: #007c85; stroke: #007c85"/>
     <use xlink:href="#mca78255c12" x="196.332731" y="181.760532" style="fill: #007c85; stroke: #007c85"/>
     <use xlink:href="#mca78255c12" x="208.661384" y="170.520886" style="fill: #007c85; stroke: #007c85"/>
     <use xlink:href="#mca78255c12" x="223.925432" y="140.013275" style="fill: #007c85; stroke: #007c85"/>
     <use xlink:href="#mca78255c12" x="232.731613" y="172.12655" style="fill: #007c85; stroke: #007c85"/>
     <use xlink:href="#mca78255c12" x="243.59257" y="151.252921" style="fill: #007c85; stroke: #007c85"/>
     <use xlink:href="#mca78255c12" x="251.811672" y="48.490444" style="fill: #007c85; stroke: #007c85"/>
     <use xlink:href="#mca78255c12" x="268.836956" y="234.747435" style="fill: #007c85; stroke: #007c85"/>
     <use xlink:href="#mca78255c12" x="297.897354" y="197.817169" style="fill: #007c85; stroke: #007c85"/>
     <use xlink:href="#mca78255c12" x="309.932468" y="173.732213" style="fill: #007c85; stroke: #007c85"/>
     <use xlink:href="#mca78255c12" x="314.922637" y="144.830267" style="fill: #007c85; stroke: #007c85"/>
     <use xlink:href="#mca78255c12" x="322.554661" y="223.507789" style="fill: #007c85; stroke: #007c85"/>
     <use xlink:href="#mca78255c12" x="331.947921" y="178.549205" style="fill: #007c85; stroke: #007c85"/>
     <use xlink:href="#mca78255c12" x="348.973204" y="152.858585" style="fill: #007c85; stroke: #007c85"/>
     <use xlink:href="#mca78255c12" x="353.963374" y="184.97186" style="fill: #007c85; stroke: #007c85"/>
     <use xlink:href="#mca78255c12" x="363.650173" y="146.43593" style="fill: #007c85; stroke: #007c85"/>
     <use xlink:href="#mca78255c12" x="375.391748" y="165.703895" style="fill: #007c85; stroke: #007c85"/>
     <use xlink:href="#mca78255c12" x="379.20776" y="156.069913" style="fill: #007c85; stroke: #007c85"/>
     <use xlink:href="#mca78255c12" x="401.223212" y="175.337877" style="fill: #007c85; stroke: #007c85"/>
     <use xlink:href="#mca78255c12" x="415.900181" y="220.296461" style="fill: #007c85; stroke: #007c85"/>
     <use xlink:href="#mca78255c12" x="424.999902" y="250.804072" style="fill: #007c85; stroke: #007c85"/>
     <use xlink:href="#mca78255c12" x="427.054677" y="160.886904" style="fill: #007c85; stroke: #007c85"/>
     <use xlink:href="#mca78255c12" x="471.672662" y="54.913098" style="fill: #007c85; stroke: #007c85"/>
     <use xlink:href="#mca78255c12" x="484.881934" y="91.843364" style="fill: #007c85; stroke: #007c85"/>
    </g>
   </g>
   <g id="PathCollection_2">
    <g clip-path="url(#peb710bb478)">
     <use xlink:href="#mca78255c12" x="527.445142" y="287.734337" style="fill: #007c85; stroke: #007c85"/>
     <use xlink:href="#mca78255c12" x="553.276607" y="130.379293" style="fill: #007c85; stroke: #007c85"/>
     <use xlink:href="#mca78255c12" x="599.949367" y="151.252921" style="fill: #007c85; stroke: #007c85"/>
     <use xlink:href="#mca78255c12" x="615.506954" y="140.013275" style="fill: #007c85; stroke: #007c85"/>
     <use xlink:href="#mca78255c12" x="624.019596" y="164.098231" style="fill: #007c85; stroke: #007c85"/>
     <use xlink:href="#mca78255c12" x="634.293474" y="104.688674" style="fill: #007c85; stroke: #007c85"/>
     <use xlink:href="#mca78255c12" x="643.393194" y="172.12655" style="fill: #007c85; stroke: #007c85"/>
     <use xlink:href="#mca78255c12" x="650.731679" y="125.562302" style="fill: #007c85; stroke: #007c85"/>
     <use xlink:href="#mca78255c12" x="659.53786" y="201.028497" style="fill: #007c85; stroke: #007c85"/>
     <use xlink:href="#mca78255c12" x="669.518199" y="176.943541" style="fill: #007c85; stroke: #007c85"/>
     <use xlink:href="#mca78255c12" x="677.737301" y="175.337877" style="fill: #007c85; stroke: #007c85"/>
     <use xlink:href="#mca78255c12" x="685.369325" y="172.12655" style="fill: #007c85; stroke: #007c85"/>
     <use xlink:href="#mca78255c12" x="696.523821" y="186.577523" style="fill: #007c85; stroke: #007c85"/>
     <use xlink:href="#mca78255c12" x="704.742923" y="191.394514" style="fill: #007c85; stroke: #007c85"/>
     <use xlink:href="#mca78255c12" x="714.723262" y="157.675576" style="fill: #007c85; stroke: #007c85"/>
     <use xlink:href="#mca78255c12" x="723.235904" y="141.618939" style="fill: #007c85; stroke: #007c85"/>
     <use xlink:href="#mca78255c12" x="730.867927" y="140.013275" style="fill: #007c85; stroke: #007c85"/>
     <use xlink:href="#mca78255c12" x="739.674108" y="123.956638" style="fill: #007c85; stroke: #007c85"/>
     <use xlink:href="#mca78255c12" x="749.947986" y="189.788851" style="fill: #007c85; stroke: #007c85"/>
     <use xlink:href="#mca78255c12" x="757.58001" y="160.886904" style="fill: #007c85; stroke: #007c85"/>
     <use xlink:href="#mca78255c12" x="766.97327" y="154.464249" style="fill: #007c85; stroke: #007c85"/>
     <use xlink:href="#mca78255c12" x="778.127766" y="54.913098" style="fill: #007c85; stroke: #007c85"/>
     <use xlink:href="#mca78255c12" x="785.46625" y="61.335753" style="fill: #007c85; stroke: #007c85"/>
     <use xlink:href="#mca78255c12" x="795.446589" y="88.632037" style="fill: #007c85; stroke: #007c85"/>
     <use xlink:href="#mca78255c12" x="802.785073" y="193.000178" style="fill: #007c85; stroke: #007c85"/>
     <use xlink:href="#mca78255c12" x="811.591255" y="127.167966" style="fill: #007c85; stroke: #007c85"/>
     <use xlink:href="#mca78255c12" x="821.865133" y="199.422833" style="fill: #007c85; stroke: #007c85"/>
     <use xlink:href="#mca78255c12" x="830.084235" y="99.871683" style="fill: #007c85; stroke: #007c85"/>
     <use xlink:href="#mca78255c12" x="838.303337" y="223.507789" style="fill: #007c85; stroke: #007c85"/>
     <use xlink:href="#mca78255c12" x="846.52244" y="99.871683" style="fill: #007c85; stroke: #007c85"/>
     <use xlink:href="#mca78255c12" x="855.328621" y="152.858585" style="fill: #007c85; stroke: #007c85"/>
     <use xlink:href="#mca78255c12" x="864.428342" y="40.462125" style="fill: #007c85; stroke: #007c85"/>
     <use xlink:href="#mca78255c12" x="874.995759" y="78.998054" style="fill: #007c85; stroke: #007c85"/>
     <use xlink:href="#mca78255c12" x="878.811771" y="130.379293" style="fill: #007c85; stroke: #007c85"/>
     <use xlink:href="#mca78255c12" x="883.214861" y="228.32478" style="fill: #007c85; stroke: #007c85"/>
     <use xlink:href="#mca78255c12" x="891.727503" y="149.647258" style="fill: #007c85; stroke: #007c85"/>
     <use xlink:href="#mca78255c12" x="896.130594" y="62.941417" style="fill: #007c85; stroke: #007c85"/>
    </g>
   </g>
   <g id="PathCollection_3">
    <defs>
     <path id="m89889e88be" d="M 0 1.5 
C 0.397805 1.5 0.77937 1.341951 1.06066 1.06066 
C 1.341951 0.77937 1.5 0.397805 1.5 0 
C 1.5 -0.397805 1.341951 -0.77937 1.06066 -1.06066 
C 0.77937 -1.341951 0.397805 -1.5 0 -1.5 
C -0.397805 -1.5 -0.77937 -1.341951 -1.06066 -1.06066 
C -1.341951 -0.77937 -1.5 -0.397805 -1.5 0 
C -1.5 0.397805 -1.341951 0.77937 -1.06066 1.06066 
C -0.77937 1.341951 -0.397805 1.5 0 1.5 
z
" style="stroke: #ffda00"/>
    </defs>
    <g clip-path="url(#peb710bb478)">
     <use xlink:href="#m89889e88be" x="88.897321" y="374.440178" style="fill: #ffda00; stroke: #ffda00"/>
     <use xlink:href="#m89889e88be" x="104.748447" y="274.889028" style="fill: #ffda00; stroke: #ffda00"/>
     <use xlink:href="#m89889e88be" x="117.0771" y="311.819293" style="fill: #ffda00; stroke: #ffda00"/>
     <use xlink:href="#m89889e88be" x="133.808845" y="305.396638" style="fill: #ffda00; stroke: #ffda00"/>
     <use xlink:href="#m89889e88be" x="142.321486" y="302.185311" style="fill: #ffda00; stroke: #ffda00"/>
     <use xlink:href="#m89889e88be" x="157.585534" y="307.002302" style="fill: #ffda00; stroke: #ffda00"/>
     <use xlink:href="#m89889e88be" x="164.630479" y="287.734337" style="fill: #ffda00; stroke: #ffda00"/>
     <use xlink:href="#m89889e88be" x="181.949302" y="286.128674" style="fill: #ffda00; stroke: #ffda00"/>
     <use xlink:href="#m89889e88be" x="187.52655" y="268.466373" style="fill: #ffda00; stroke: #ffda00"/>
     <use xlink:href="#m89889e88be" x="203.084136" y="279.706019" style="fill: #ffda00; stroke: #ffda00"/>
     <use xlink:href="#m89889e88be" x="219.815881" y="295.762656" style="fill: #ffda00; stroke: #ffda00"/>
     <use xlink:href="#m89889e88be" x="233.318692" y="226.719116" style="fill: #ffda00; stroke: #ffda00"/>
     <use xlink:href="#m89889e88be" x="250.343975" y="255.621063" style="fill: #ffda00; stroke: #ffda00"/>
     <use xlink:href="#m89889e88be" x="257.095381" y="260.438054" style="fill: #ffda00; stroke: #ffda00"/>
     <use xlink:href="#m89889e88be" x="267.075719" y="263.649382" style="fill: #ffda00; stroke: #ffda00"/>
     <use xlink:href="#m89889e88be" x="289.384712" y="266.860709" style="fill: #ffda00; stroke: #ffda00"/>
     <use xlink:href="#m89889e88be" x="302.300444" y="221.902125" style="fill: #ffda00; stroke: #ffda00"/>
     <use xlink:href="#m89889e88be" x="316.390334" y="262.043718" style="fill: #ffda00; stroke: #ffda00"/>
     <use xlink:href="#m89889e88be" x="328.425448" y="223.507789" style="fill: #ffda00; stroke: #ffda00"/>
     <use xlink:href="#m89889e88be" x="345.744271" y="167.309559" style="fill: #ffda00; stroke: #ffda00"/>
     <use xlink:href="#m89889e88be" x="359.540622" y="242.775753" style="fill: #ffda00; stroke: #ffda00"/>
     <use xlink:href="#m89889e88be" x="374.21759" y="250.804072" style="fill: #ffda00; stroke: #ffda00"/>
     <use xlink:href="#m89889e88be" x="381.556075" y="274.889028" style="fill: #ffda00; stroke: #ffda00"/>
     <use xlink:href="#m89889e88be" x="394.765346" y="217.085134" style="fill: #ffda00; stroke: #ffda00"/>
     <use xlink:href="#m89889e88be" x="405.039224" y="225.113452" style="fill: #ffda00; stroke: #ffda00"/>
     <use xlink:href="#m89889e88be" x="412.671248" y="217.085134" style="fill: #ffda00; stroke: #ffda00"/>
     <use xlink:href="#m89889e88be" x="418.835575" y="220.296461" style="fill: #ffda00; stroke: #ffda00"/>
     <use xlink:href="#m89889e88be" x="435.27378" y="287.734337" style="fill: #ffda00; stroke: #ffda00"/>
     <use xlink:href="#m89889e88be" x="439.97041" y="237.958762" style="fill: #ffda00; stroke: #ffda00"/>
     <use xlink:href="#m89889e88be" x="452.592603" y="252.409736" style="fill: #ffda00; stroke: #ffda00"/>
     <use xlink:href="#m89889e88be" x="456.115075" y="233.141771" style="fill: #ffda00; stroke: #ffda00"/>
     <use xlink:href="#m89889e88be" x="464.627717" y="233.141771" style="fill: #ffda00; stroke: #ffda00"/>
     <use xlink:href="#m89889e88be" x="474.608055" y="239.564426" style="fill: #ffda00; stroke: #ffda00"/>
     <use xlink:href="#m89889e88be" x="479.011146" y="286.128674" style="fill: #ffda00; stroke: #ffda00"/>
     <use xlink:href="#m89889e88be" x="488.697945" y="266.860709" style="fill: #ffda00; stroke: #ffda00"/>
     <use xlink:href="#m89889e88be" x="499.852441" y="302.185311" style="fill: #ffda00; stroke: #ffda00"/>
     <use xlink:href="#m89889e88be" x="501.613678" y="262.043718" style="fill: #ffda00; stroke: #ffda00"/>
     <use xlink:href="#m89889e88be" x="508.071544" y="331.087258" style="fill: #ffda00; stroke: #ffda00"/>
    </g>
   </g>
   <g id="PathCollection_4">
    <g clip-path="url(#peb710bb478)">
     <use xlink:href="#m89889e88be" x="528.032221" y="204.239824" style="fill: #ffda00; stroke: #ffda00"/>
     <use xlink:href="#m89889e88be" x="536.838402" y="298.973983" style="fill: #ffda00; stroke: #ffda00"/>
     <use xlink:href="#m89889e88be" x="546.818741" y="180.154868" style="fill: #ffda00; stroke: #ffda00"/>
     <use xlink:href="#m89889e88be" x="567.366497" y="242.775753" style="fill: #ffda00; stroke: #ffda00"/>
     <use xlink:href="#m89889e88be" x="579.98869" y="242.775753" style="fill: #ffda00; stroke: #ffda00"/>
     <use xlink:href="#m89889e88be" x="592.023804" y="262.043718" style="fill: #ffda00; stroke: #ffda00"/>
     <use xlink:href="#m89889e88be" x="597.894592" y="204.239824" style="fill: #ffda00; stroke: #ffda00"/>
     <use xlink:href="#m89889e88be" x="608.16847" y="225.113452" style="fill: #ffda00; stroke: #ffda00"/>
     <use xlink:href="#m89889e88be" x="618.735887" y="228.32478" style="fill: #ffda00; stroke: #ffda00"/>
     <use xlink:href="#m89889e88be" x="631.064541" y="237.958762" style="fill: #ffda00; stroke: #ffda00"/>
     <use xlink:href="#m89889e88be" x="643.393194" y="180.154868" style="fill: #ffda00; stroke: #ffda00"/>
     <use xlink:href="#m89889e88be" x="649.557521" y="220.296461" style="fill: #ffda00; stroke: #ffda00"/>
     <use xlink:href="#m89889e88be" x="676.269604" y="184.97186" style="fill: #ffda00; stroke: #ffda00"/>
     <use xlink:href="#m89889e88be" x="690.653033" y="205.845488" style="fill: #ffda00; stroke: #ffda00"/>
     <use xlink:href="#m89889e88be" x="698.578596" y="218.690798" style="fill: #ffda00; stroke: #ffda00"/>
     <use xlink:href="#m89889e88be" x="717.365116" y="193.000178" style="fill: #ffda00; stroke: #ffda00"/>
     <use xlink:href="#m89889e88be" x="727.345455" y="167.309559" style="fill: #ffda00; stroke: #ffda00"/>
     <use xlink:href="#m89889e88be" x="737.912872" y="189.788851" style="fill: #ffda00; stroke: #ffda00"/>
     <use xlink:href="#m89889e88be" x="754.351077" y="165.703895" style="fill: #ffda00; stroke: #ffda00"/>
     <use xlink:href="#m89889e88be" x="761.983101" y="223.507789" style="fill: #ffda00; stroke: #ffda00"/>
     <use xlink:href="#m89889e88be" x="789.282262" y="125.562302" style="fill: #ffda00; stroke: #ffda00"/>
     <use xlink:href="#m89889e88be" x="801.610916" y="245.987081" style="fill: #ffda00; stroke: #ffda00"/>
     <use xlink:href="#m89889e88be" x="809.830018" y="207.451152" style="fill: #ffda00; stroke: #ffda00"/>
     <use xlink:href="#m89889e88be" x="814.233109" y="164.098231" style="fill: #ffda00; stroke: #ffda00"/>
     <use xlink:href="#m89889e88be" x="828.322999" y="148.041594" style="fill: #ffda00; stroke: #ffda00"/>
     <use xlink:href="#m89889e88be" x="840.651652" y="205.845488" style="fill: #ffda00; stroke: #ffda00"/>
     <use xlink:href="#m89889e88be" x="850.92553" y="209.056815" style="fill: #ffda00; stroke: #ffda00"/>
     <use xlink:href="#m89889e88be" x="861.199408" y="234.747435" style="fill: #ffda00; stroke: #ffda00"/>
     <use xlink:href="#m89889e88be" x="869.418511" y="286.128674" style="fill: #ffda00; stroke: #ffda00"/>
     <use xlink:href="#m89889e88be" x="877.931153" y="202.63416" style="fill: #ffda00; stroke: #ffda00"/>
     <use xlink:href="#m89889e88be" x="883.80194" y="290.945665" style="fill: #ffda00; stroke: #ffda00"/>
     <use xlink:href="#m89889e88be" x="892.021043" y="326.270267" style="fill: #ffda00; stroke: #ffda00"/>
     <use xlink:href="#m89889e88be" x="896.424133" y="403.342125" style="fill: #ffda00; stroke: #ffda00"/>
    </g>
   </g>
   <g id="matplotlib.axis_1">
    <g id="xtick_1">
     <g id="line2d_1">
      <defs>
       <path id="m9aba2bdfc3" d="M 0 0 
L 0 3.5 
" style="stroke: #000000; stroke-width: 0.8"/>
      </defs>
      <g>
       <use xlink:href="#m9aba2bdfc3" x="67.762486" y="421.486125" style="stroke: #000000; stroke-width: 0.8"/>
      </g>
     </g>
     <g id="text_1">
      <!-- 2016 -->
      <g transform="translate(55.037486 436.084563) scale(0.1 -0.1)">
       <defs>
        <path id="DejaVuSans-32" d="M 1228 531 
L 3431 531 
L 3431 0 
L 469 0 
L 469 531 
Q 828 903 1448 1529 
Q 2069 2156 2228 2338 
Q 2531 2678 2651 2914 
Q 2772 3150 2772 3378 
Q 2772 3750 2511 3984 
Q 2250 4219 1831 4219 
Q 1534 4219 1204 4116 
Q 875 4013 500 3803 
L 500 4441 
Q 881 4594 1212 4672 
Q 1544 4750 1819 4750 
Q 2544 4750 2975 4387 
Q 3406 4025 3406 3419 
Q 3406 3131 3298 2873 
Q 3191 2616 2906 2266 
Q 2828 2175 2409 1742 
Q 1991 1309 1228 531 
z
" transform="scale(0.015625)"/>
        <path id="DejaVuSans-30" d="M 2034 4250 
Q 1547 4250 1301 3770 
Q 1056 3291 1056 2328 
Q 1056 1369 1301 889 
Q 1547 409 2034 409 
Q 2525 409 2770 889 
Q 3016 1369 3016 2328 
Q 3016 3291 2770 3770 
Q 2525 4250 2034 4250 
z
M 2034 4750 
Q 2819 4750 3233 4129 
Q 3647 3509 3647 2328 
Q 3647 1150 3233 529 
Q 2819 -91 2034 -91 
Q 1250 -91 836 529 
Q 422 1150 422 2328 
Q 422 3509 836 4129 
Q 1250 4750 2034 4750 
z
" transform="scale(0.015625)"/>
        <path id="DejaVuSans-31" d="M 794 531 
L 1825 531 
L 1825 4091 
L 703 3866 
L 703 4441 
L 1819 4666 
L 2450 4666 
L 2450 531 
L 3481 531 
L 3481 0 
L 794 0 
L 794 531 
z
" transform="scale(0.015625)"/>
        <path id="DejaVuSans-36" d="M 2113 2584 
Q 1688 2584 1439 2293 
Q 1191 2003 1191 1497 
Q 1191 994 1439 701 
Q 1688 409 2113 409 
Q 2538 409 2786 701 
Q 3034 994 3034 1497 
Q 3034 2003 2786 2293 
Q 2538 2584 2113 2584 
z
M 3366 4563 
L 3366 3988 
Q 3128 4100 2886 4159 
Q 2644 4219 2406 4219 
Q 1781 4219 1451 3797 
Q 1122 3375 1075 2522 
Q 1259 2794 1537 2939 
Q 1816 3084 2150 3084 
Q 2853 3084 3261 2657 
Q 3669 2231 3669 1497 
Q 3669 778 3244 343 
Q 2819 -91 2113 -91 
Q 1303 -91 875 529 
Q 447 1150 447 2328 
Q 447 3434 972 4092 
Q 1497 4750 2381 4750 
Q 2619 4750 2861 4703 
Q 3103 4656 3366 4563 
z
" transform="scale(0.015625)"/>
       </defs>
       <use xlink:href="#DejaVuSans-32"/>
       <use xlink:href="#DejaVuSans-30" x="63.623047"/>
       <use xlink:href="#DejaVuSans-31" x="127.246094"/>
       <use xlink:href="#DejaVuSans-36" x="190.869141"/>
      </g>
     </g>
    </g>
    <g id="xtick_2">
     <g id="line2d_2">
      <g>
       <use xlink:href="#m9aba2bdfc3" x="175.197896" y="421.486125" style="stroke: #000000; stroke-width: 0.8"/>
      </g>
     </g>
     <g id="text_2">
      <!-- 2017 -->
      <g transform="translate(162.472896 436.084563) scale(0.1 -0.1)">
       <defs>
        <path id="DejaVuSans-37" d="M 525 4666 
L 3525 4666 
L 3525 4397 
L 1831 0 
L 1172 0 
L 2766 4134 
L 525 4134 
L 525 4666 
z
" transform="scale(0.015625)"/>
       </defs>
       <use xlink:href="#DejaVuSans-32"/>
       <use xlink:href="#DejaVuSans-30" x="63.623047"/>
       <use xlink:href="#DejaVuSans-31" x="127.246094"/>
       <use xlink:href="#DejaVuSans-37" x="190.869141"/>
      </g>
     </g>
    </g>
    <g id="xtick_3">
     <g id="line2d_3">
      <g>
       <use xlink:href="#m9aba2bdfc3" x="282.339767" y="421.486125" style="stroke: #000000; stroke-width: 0.8"/>
      </g>
     </g>
     <g id="text_3">
      <!-- 2018 -->
      <g transform="translate(269.614767 436.084563) scale(0.1 -0.1)">
       <defs>
        <path id="DejaVuSans-38" d="M 2034 2216 
Q 1584 2216 1326 1975 
Q 1069 1734 1069 1313 
Q 1069 891 1326 650 
Q 1584 409 2034 409 
Q 2484 409 2743 651 
Q 3003 894 3003 1313 
Q 3003 1734 2745 1975 
Q 2488 2216 2034 2216 
z
M 1403 2484 
Q 997 2584 770 2862 
Q 544 3141 544 3541 
Q 544 4100 942 4425 
Q 1341 4750 2034 4750 
Q 2731 4750 3128 4425 
Q 3525 4100 3525 3541 
Q 3525 3141 3298 2862 
Q 3072 2584 2669 2484 
Q 3125 2378 3379 2068 
Q 3634 1759 3634 1313 
Q 3634 634 3220 271 
Q 2806 -91 2034 -91 
Q 1263 -91 848 271 
Q 434 634 434 1313 
Q 434 1759 690 2068 
Q 947 2378 1403 2484 
z
M 1172 3481 
Q 1172 3119 1398 2916 
Q 1625 2713 2034 2713 
Q 2441 2713 2670 2916 
Q 2900 3119 2900 3481 
Q 2900 3844 2670 4047 
Q 2441 4250 2034 4250 
Q 1625 4250 1398 4047 
Q 1172 3844 1172 3481 
z
" transform="scale(0.015625)"/>
       </defs>
       <use xlink:href="#DejaVuSans-32"/>
       <use xlink:href="#DejaVuSans-30" x="63.623047"/>
       <use xlink:href="#DejaVuSans-31" x="127.246094"/>
       <use xlink:href="#DejaVuSans-38" x="190.869141"/>
      </g>
     </g>
    </g>
    <g id="xtick_4">
     <g id="line2d_4">
      <g>
       <use xlink:href="#m9aba2bdfc3" x="389.481638" y="421.486125" style="stroke: #000000; stroke-width: 0.8"/>
      </g>
     </g>
     <g id="text_4">
      <!-- 2019 -->
      <g transform="translate(376.756638 436.084563) scale(0.1 -0.1)">
       <defs>
        <path id="DejaVuSans-39" d="M 703 97 
L 703 672 
Q 941 559 1184 500 
Q 1428 441 1663 441 
Q 2288 441 2617 861 
Q 2947 1281 2994 2138 
Q 2813 1869 2534 1725 
Q 2256 1581 1919 1581 
Q 1219 1581 811 2004 
Q 403 2428 403 3163 
Q 403 3881 828 4315 
Q 1253 4750 1959 4750 
Q 2769 4750 3195 4129 
Q 3622 3509 3622 2328 
Q 3622 1225 3098 567 
Q 2575 -91 1691 -91 
Q 1453 -91 1209 -44 
Q 966 3 703 97 
z
M 1959 2075 
Q 2384 2075 2632 2365 
Q 2881 2656 2881 3163 
Q 2881 3666 2632 3958 
Q 2384 4250 1959 4250 
Q 1534 4250 1286 3958 
Q 1038 3666 1038 3163 
Q 1038 2656 1286 2365 
Q 1534 2075 1959 2075 
z
" transform="scale(0.015625)"/>
       </defs>
       <use xlink:href="#DejaVuSans-32"/>
       <use xlink:href="#DejaVuSans-30" x="63.623047"/>
       <use xlink:href="#DejaVuSans-31" x="127.246094"/>
       <use xlink:href="#DejaVuSans-39" x="190.869141"/>
      </g>
     </g>
    </g>
    <g id="xtick_5">
     <g id="line2d_5">
      <g>
       <use xlink:href="#m9aba2bdfc3" x="496.623508" y="421.486125" style="stroke: #000000; stroke-width: 0.8"/>
      </g>
     </g>
     <g id="text_5">
      <!-- 2020 -->
      <g transform="translate(483.898508 436.084563) scale(0.1 -0.1)">
       <use xlink:href="#DejaVuSans-32"/>
       <use xlink:href="#DejaVuSans-30" x="63.623047"/>
       <use xlink:href="#DejaVuSans-32" x="127.246094"/>
       <use xlink:href="#DejaVuSans-30" x="190.869141"/>
      </g>
     </g>
    </g>
    <g id="xtick_6">
     <g id="line2d_6">
      <g>
       <use xlink:href="#m9aba2bdfc3" x="604.058919" y="421.486125" style="stroke: #000000; stroke-width: 0.8"/>
      </g>
     </g>
     <g id="text_6">
      <!-- 2021 -->
      <g transform="translate(591.333919 436.084563) scale(0.1 -0.1)">
       <use xlink:href="#DejaVuSans-32"/>
       <use xlink:href="#DejaVuSans-30" x="63.623047"/>
       <use xlink:href="#DejaVuSans-32" x="127.246094"/>
       <use xlink:href="#DejaVuSans-31" x="190.869141"/>
      </g>
     </g>
    </g>
    <g id="xtick_7">
     <g id="line2d_7">
      <g>
       <use xlink:href="#m9aba2bdfc3" x="711.200789" y="421.486125" style="stroke: #000000; stroke-width: 0.8"/>
      </g>
     </g>
     <g id="text_7">
      <!-- 2022 -->
      <g transform="translate(698.475789 436.084563) scale(0.1 -0.1)">
       <use xlink:href="#DejaVuSans-32"/>
       <use xlink:href="#DejaVuSans-30" x="63.623047"/>
       <use xlink:href="#DejaVuSans-32" x="127.246094"/>
       <use xlink:href="#DejaVuSans-32" x="190.869141"/>
      </g>
     </g>
    </g>
    <g id="xtick_8">
     <g id="line2d_8">
      <g>
       <use xlink:href="#m9aba2bdfc3" x="818.34266" y="421.486125" style="stroke: #000000; stroke-width: 0.8"/>
      </g>
     </g>
     <g id="text_8">
      <!-- 2023 -->
      <g transform="translate(805.61766 436.084563) scale(0.1 -0.1)">
       <defs>
        <path id="DejaVuSans-33" d="M 2597 2516 
Q 3050 2419 3304 2112 
Q 3559 1806 3559 1356 
Q 3559 666 3084 287 
Q 2609 -91 1734 -91 
Q 1441 -91 1130 -33 
Q 819 25 488 141 
L 488 750 
Q 750 597 1062 519 
Q 1375 441 1716 441 
Q 2309 441 2620 675 
Q 2931 909 2931 1356 
Q 2931 1769 2642 2001 
Q 2353 2234 1838 2234 
L 1294 2234 
L 1294 2753 
L 1863 2753 
Q 2328 2753 2575 2939 
Q 2822 3125 2822 3475 
Q 2822 3834 2567 4026 
Q 2313 4219 1838 4219 
Q 1578 4219 1281 4162 
Q 984 4106 628 3988 
L 628 4550 
Q 988 4650 1302 4700 
Q 1616 4750 1894 4750 
Q 2613 4750 3031 4423 
Q 3450 4097 3450 3541 
Q 3450 3153 3228 2886 
Q 3006 2619 2597 2516 
z
" transform="scale(0.015625)"/>
       </defs>
       <use xlink:href="#DejaVuSans-32"/>
       <use xlink:href="#DejaVuSans-30" x="63.623047"/>
       <use xlink:href="#DejaVuSans-32" x="127.246094"/>
       <use xlink:href="#DejaVuSans-33" x="190.869141"/>
      </g>
     </g>
    </g>
    <g id="xtick_9">
     <g id="line2d_9">
      <g>
       <use xlink:href="#m9aba2bdfc3" x="925.484531" y="421.486125" style="stroke: #000000; stroke-width: 0.8"/>
      </g>
     </g>
     <g id="text_9">
      <!-- 2024 -->
      <g transform="translate(912.759531 436.084563) scale(0.1 -0.1)">
       <defs>
        <path id="DejaVuSans-34" d="M 2419 4116 
L 825 1625 
L 2419 1625 
L 2419 4116 
z
M 2253 4666 
L 3047 4666 
L 3047 1625 
L 3713 1625 
L 3713 1100 
L 3047 1100 
L 3047 0 
L 2419 0 
L 2419 1100 
L 313 1100 
L 313 1709 
L 2253 4666 
z
" transform="scale(0.015625)"/>
       </defs>
       <use xlink:href="#DejaVuSans-32"/>
       <use xlink:href="#DejaVuSans-30" x="63.623047"/>
       <use xlink:href="#DejaVuSans-32" x="127.246094"/>
       <use xlink:href="#DejaVuSans-34" x="190.869141"/>
      </g>
     </g>
    </g>
   </g>
   <g id="matplotlib.axis_2">
    <g id="ytick_1">
     <g id="line2d_10">
      <path d="M 45.967188 374.440178 
L 938.767187 374.440178 
" clip-path="url(#peb710bb478)" style="fill: none; stroke: #b0b0b0; stroke-opacity: 0.3; stroke-width: 0.8; stroke-linecap: square"/>
     </g>
     <g id="line2d_11">
      <defs>
       <path id="m096b451a99" d="M 0 0 
L -3.5 0 
" style="stroke: #000000; stroke-width: 0.8"/>
      </defs>
      <g>
       <use xlink:href="#m096b451a99" x="45.967188" y="374.440178" style="stroke: #000000; stroke-width: 0.8"/>
      </g>
     </g>
     <g id="text_10">
      <!-- 5.0% -->
      <g transform="translate(13.5625 378.239397) scale(0.1 -0.1)">
       <defs>
        <path id="DejaVuSans-35" d="M 691 4666 
L 3169 4666 
L 3169 4134 
L 1269 4134 
L 1269 2991 
Q 1406 3038 1543 3061 
Q 1681 3084 1819 3084 
Q 2600 3084 3056 2656 
Q 3513 2228 3513 1497 
Q 3513 744 3044 326 
Q 2575 -91 1722 -91 
Q 1428 -91 1123 -41 
Q 819 9 494 109 
L 494 744 
Q 775 591 1075 516 
Q 1375 441 1709 441 
Q 2250 441 2565 725 
Q 2881 1009 2881 1497 
Q 2881 1984 2565 2268 
Q 2250 2553 1709 2553 
Q 1456 2553 1204 2497 
Q 953 2441 691 2322 
L 691 4666 
z
" transform="scale(0.015625)"/>
        <path id="DejaVuSans-2e" d="M 684 794 
L 1344 794 
L 1344 0 
L 684 0 
L 684 794 
z
" transform="scale(0.015625)"/>
        <path id="DejaVuSans-25" d="M 4653 2053 
Q 4381 2053 4226 1822 
Q 4072 1591 4072 1178 
Q 4072 772 4226 539 
Q 4381 306 4653 306 
Q 4919 306 5073 539 
Q 5228 772 5228 1178 
Q 5228 1588 5073 1820 
Q 4919 2053 4653 2053 
z
M 4653 2450 
Q 5147 2450 5437 2106 
Q 5728 1763 5728 1178 
Q 5728 594 5436 251 
Q 5144 -91 4653 -91 
Q 4153 -91 3862 251 
Q 3572 594 3572 1178 
Q 3572 1766 3864 2108 
Q 4156 2450 4653 2450 
z
M 1428 4353 
Q 1159 4353 1004 4120 
Q 850 3888 850 3481 
Q 850 3069 1003 2837 
Q 1156 2606 1428 2606 
Q 1700 2606 1854 2837 
Q 2009 3069 2009 3481 
Q 2009 3884 1853 4118 
Q 1697 4353 1428 4353 
z
M 4250 4750 
L 4750 4750 
L 1831 -91 
L 1331 -91 
L 4250 4750 
z
M 1428 4750 
Q 1922 4750 2215 4408 
Q 2509 4066 2509 3481 
Q 2509 2891 2217 2550 
Q 1925 2209 1428 2209 
Q 931 2209 642 2551 
Q 353 2894 353 3481 
Q 353 4063 643 4406 
Q 934 4750 1428 4750 
z
" transform="scale(0.015625)"/>
       </defs>
       <use xlink:href="#DejaVuSans-35"/>
       <use xlink:href="#DejaVuSans-2e" x="63.623047"/>
       <use xlink:href="#DejaVuSans-30" x="95.410156"/>
       <use xlink:href="#DejaVuSans-25" x="159.033203"/>
      </g>
     </g>
    </g>
    <g id="ytick_2">
     <g id="line2d_12">
      <path d="M 45.967188 294.156992 
L 938.767187 294.156992 
" clip-path="url(#peb710bb478)" style="fill: none; stroke: #b0b0b0; stroke-opacity: 0.3; stroke-width: 0.8; stroke-linecap: square"/>
     </g>
     <g id="line2d_13">
      <g>
       <use xlink:href="#m096b451a99" x="45.967188" y="294.156992" style="stroke: #000000; stroke-width: 0.8"/>
      </g>
     </g>
     <g id="text_11">
      <!-- 10.0% -->
      <g transform="translate(7.2 297.956211) scale(0.1 -0.1)">
       <use xlink:href="#DejaVuSans-31"/>
       <use xlink:href="#DejaVuSans-30" x="63.623047"/>
       <use xlink:href="#DejaVuSans-2e" x="127.246094"/>
       <use xlink:href="#DejaVuSans-30" x="159.033203"/>
       <use xlink:href="#DejaVuSans-25" x="222.65625"/>
      </g>
     </g>
    </g>
    <g id="ytick_3">
     <g id="line2d_14">
      <path d="M 45.967188 213.873806 
L 938.767187 213.873806 
" clip-path="url(#peb710bb478)" style="fill: none; stroke: #b0b0b0; stroke-opacity: 0.3; stroke-width: 0.8; stroke-linecap: square"/>
     </g>
     <g id="line2d_15">
      <g>
       <use xlink:href="#m096b451a99" x="45.967188" y="213.873806" style="stroke: #000000; stroke-width: 0.8"/>
      </g>
     </g>
     <g id="text_12">
      <!-- 15.0% -->
      <g transform="translate(7.2 217.673025) scale(0.1 -0.1)">
       <use xlink:href="#DejaVuSans-31"/>
       <use xlink:href="#DejaVuSans-35" x="63.623047"/>
       <use xlink:href="#DejaVuSans-2e" x="127.246094"/>
       <use xlink:href="#DejaVuSans-30" x="159.033203"/>
       <use xlink:href="#DejaVuSans-25" x="222.65625"/>
      </g>
     </g>
    </g>
    <g id="ytick_4">
     <g id="line2d_16">
      <path d="M 45.967188 133.590621 
L 938.767187 133.590621 
" clip-path="url(#peb710bb478)" style="fill: none; stroke: #b0b0b0; stroke-opacity: 0.3; stroke-width: 0.8; stroke-linecap: square"/>
     </g>
     <g id="line2d_17">
      <g>
       <use xlink:href="#m096b451a99" x="45.967188" y="133.590621" style="stroke: #000000; stroke-width: 0.8"/>
      </g>
     </g>
     <g id="text_13">
      <!-- 20.0% -->
      <g transform="translate(7.2 137.389839) scale(0.1 -0.1)">
       <use xlink:href="#DejaVuSans-32"/>
       <use xlink:href="#DejaVuSans-30" x="63.623047"/>
       <use xlink:href="#DejaVuSans-2e" x="127.246094"/>
       <use xlink:href="#DejaVuSans-30" x="159.033203"/>
       <use xlink:href="#DejaVuSans-25" x="222.65625"/>
      </g>
     </g>
    </g>
    <g id="ytick_5">
     <g id="line2d_18">
      <path d="M 45.967188 53.307435 
L 938.767187 53.307435 
" clip-path="url(#peb710bb478)" style="fill: none; stroke: #b0b0b0; stroke-opacity: 0.3; stroke-width: 0.8; stroke-linecap: square"/>
     </g>
     <g id="line2d_19">
      <g>
       <use xlink:href="#m096b451a99" x="45.967188" y="53.307435" style="stroke: #000000; stroke-width: 0.8"/>
      </g>
     </g>
     <g id="text_14">
      <!-- 25.0% -->
      <g transform="translate(7.2 57.106653) scale(0.1 -0.1)">
       <use xlink:href="#DejaVuSans-32"/>
       <use xlink:href="#DejaVuSans-35" x="63.623047"/>
       <use xlink:href="#DejaVuSans-2e" x="127.246094"/>
       <use xlink:href="#DejaVuSans-30" x="159.033203"/>
       <use xlink:href="#DejaVuSans-25" x="222.65625"/>
      </g>
     </g>
    </g>
   </g>
   <g id="line2d_20">
    <path d="M 86.549006 421.486125 
L 86.549006 22.318125 
" clip-path="url(#peb710bb478)" style="fill: none; stroke: #000000; stroke-linecap: square"/>
   </g>
   <g id="line2d_21">
    <path d="M 513.942331 421.486125 
L 513.942331 22.318125 
" clip-path="url(#peb710bb478)" style="fill: none; stroke: #000000; stroke-linecap: square"/>
   </g>
   <g id="line2d_22">
    <path d="M 898.185369 421.486125 
L 898.185369 22.318125 
" clip-path="url(#peb710bb478)" style="fill: none; stroke: #000000; stroke-linecap: square"/>
   </g>
   <g id="line2d_23">
    <path d="M 95.648726 201.340722 
L 103.28075 197.252309 
L 110.912774 193.416521 
L 118.544797 189.824541 
L 126.47036 186.341322 
L 134.395923 183.09883 
L 134.983002 182.867936 
L 135.276541 183.371763 
L 143.495644 180.186945 
L 151.714746 177.243732 
L 159.933849 174.53538 
L 168.152951 172.060204 
L 176.372054 169.821074 
L 184.297617 167.888635 
L 192.22318 166.182085 
L 199.855203 164.761199 
L 207.193688 163.612847 
L 210.129081 163.307114 
L 216.880487 162.614183 
L 223.338353 162.168077 
L 229.50268 161.96821 
L 234.786389 162.006667 
L 236.547625 162.070103 
L 236.841164 161.59106 
L 242.124873 161.81263 
L 247.115042 162.251371 
L 251.518133 162.86274 
L 254.453526 163.40468 
L 254.747066 162.022246 
L 259.150156 162.85336 
L 263.846786 163.974991 
L 270.011113 165.638568 
L 270.304653 168.601655 
L 274.120664 168.952222 
L 278.817294 169.139101 
L 279.991452 169.155615 
L 280.284991 168.687302 
L 284.981621 168.777457 
L 290.558869 168.65094 
L 295.842578 168.518849 
L 301.419826 168.619927 
L 306.997074 168.919792 
L 311.400165 169.347605 
L 315.216176 169.954466 
L 326.077133 172.006501 
L 330.186684 172.424811 
L 334.296236 172.62361 
L 337.818708 172.513094 
L 341.63472 172.18013 
L 345.744271 171.605802 
L 350.440901 170.715256 
L 355.43107 169.533551 
L 357.485846 168.985098 
L 358.072925 168.698286 
L 363.650173 166.952076 
L 363.943712 166.854259 
L 364.237252 167.620825 
L 370.108039 165.730237 
L 376.272366 163.504299 
L 382.730232 160.92542 
L 389.188098 158.106981 
L 393.00411 156.332921 
L 393.297649 154.463355 
L 400.049055 150.939399 
L 401.810291 149.980651 
L 402.103831 150.366045 
L 409.148776 146.415494 
L 416.19372 142.206592 
L 423.238665 137.739729 
L 430.28361 133.014182 
L 437.328555 128.027404 
L 444.3735 122.775173 
L 451.418445 117.252719 
L 458.46339 111.454882 
L 465.508335 105.376201 
L 472.55328 99.010995 
L 479.598225 92.354407 
L 484.881934 87.169452 
L 484.881934 87.169452 
" clip-path="url(#peb710bb478)" style="fill: none; stroke: #007c85; stroke-width: 2; stroke-linecap: square"/>
   </g>
   <g id="line2d_24">
    <path d="M 527.445142 285.012392 
L 531.848233 272.062782 
L 536.251324 259.822528 
L 539.186717 252.040767 
L 539.480257 254.100793 
L 543.883347 242.980261 
L 548.286438 232.458606 
L 552.689528 222.533156 
L 556.79908 213.805189 
L 560.908631 205.592899 
L 565.018182 197.894833 
L 568.834194 191.205813 
L 572.063127 185.890351 
L 572.650206 185.011626 
L 572.943745 184.237711 
L 576.759757 178.454811 
L 580.282229 173.507075 
L 582.924084 169.866524 
L 583.804702 168.228752 
L 584.098241 168.808482 
L 585.859477 166.657454 
L 586.153017 139.416146 
L 586.446556 138.644475 
L 586.740096 138.782168 
L 587.033635 138.660542 
L 589.088411 139.302432 
L 589.38195 139.104901 
L 594.665659 140.482284 
L 601.710604 142.45038 
L 602.004143 142.012929 
L 607.581391 143.727344 
L 619.322966 147.690043 
L 620.790663 148.279998 
L 621.084202 148.818689 
L 624.313135 149.673331 
L 626.074371 149.976851 
L 626.367911 149.559499 
L 628.129147 149.593749 
L 631.35808 149.462952 
L 632.532238 149.688732 
L 633.999934 150.196977 
L 637.815946 152.986557 
L 638.109486 153.692997 
L 638.990104 154.14737 
L 643.099655 156.176441 
L 645.741509 157.622573 
L 646.035049 157.243509 
L 649.557521 159.364453 
L 652.786454 161.544477 
L 656.015387 163.981124 
L 659.24432 166.50025 
L 659.831399 167.631469 
L 660.124939 167.1463 
L 661.886175 168.479672 
L 663.647411 170.280238 
L 663.94095 170.906662 
L 665.408647 172.565616 
L 665.702187 172.507076 
L 667.463423 174.016534 
L 668.93112 175.588468 
L 671.572974 178.622653 
L 676.563143 182.293282 
L 677.737301 182.881306 
L 679.498537 183.323087 
L 681.259773 183.521434 
L 682.433931 183.664403 
L 683.901628 183.836563 
L 685.662864 183.78145 
L 687.4241 183.47493 
L 692.41427 182.024719 
L 694.762585 180.836149 
L 700.339833 177.563667 
L 701.807529 176.432111 
L 705.036463 173.696881 
L 705.330002 173.673373 
L 707.091238 172.511966 
L 709.146014 171.215621 
L 709.439553 170.876161 
L 709.733092 167.076796 
L 710.026632 170.098041 
L 710.320171 169.974222 
L 710.613711 169.558957 
L 710.90725 165.118143 
L 712.081407 161.239885 
L 712.962026 159.945614 
L 714.136183 158.664231 
L 716.190959 156.952101 
L 718.245734 155.007393 
L 719.126352 154.197487 
L 720.887589 153.139546 
L 722.648825 152.184266 
L 724.410061 150.252658 
L 724.99714 149.536889 
L 725.584219 148.593863 
L 726.758376 146.890326 
L 727.051915 146.779642 
L 727.638994 146.087199 
L 727.932534 145.989693 
L 728.226073 145.220287 
L 731.161467 144.324605 
L 732.335624 144.080867 
L 732.629163 143.849956 
L 734.09686 142.012827 
L 735.564557 140.62794 
L 736.151636 140.386436 
L 736.738715 140.170593 
L 739.674108 140.368244 
L 740.261187 140.449813 
L 740.554727 142.745246 
L 740.848266 146.287019 
L 741.435345 146.940005 
L 742.022423 147.86702 
L 742.315963 149.522517 
L 742.903042 150.682267 
L 743.49012 152.189625 
L 743.78366 157.714007 
L 744.077199 158.49045 
L 744.370738 156.374135 
L 744.957817 156.926596 
L 745.251356 156.995509 
L 745.838435 156.784811 
L 746.425514 156.199197 
L 747.306132 154.85083 
L 747.599671 157.342481 
L 748.48029 155.637542 
L 748.773829 153.798084 
L 749.360908 155.56908 
L 749.947986 156.718767 
L 750.828605 157.542753 
L 751.122144 155.384119 
L 751.709223 155.810727 
L 752.88338 156.179458 
L 754.057538 156.293917 
L 755.231695 153.661895 
L 755.818774 152.535198 
L 756.112313 153.805446 
L 756.405853 154.260891 
L 756.699392 153.737744 
L 756.992931 152.351033 
L 759.047707 149.233188 
L 759.341246 148.977498 
L 761.102483 148.382728 
L 762.570179 147.677502 
L 763.157258 147.322602 
L 763.744337 146.533616 
L 764.918494 144.535401 
L 766.092652 142.076089 
L 766.386191 143.041722 
L 766.679731 142.500147 
L 766.97327 133.760827 
L 767.560349 131.917636 
L 768.440967 130.246521 
L 769.321585 128.098502 
L 769.615124 127.251633 
L 769.908664 137.013105 
L 770.789282 134.699729 
L 771.376361 132.706621 
L 771.6699 133.670104 
L 771.963439 132.507657 
L 772.550518 99.569013 
L 772.844057 95.353558 
L 773.137597 87.854084 
L 773.431136 87.770236 
L 774.018215 85.664201 
L 774.311754 90.377523 
L 774.605294 83.949877 
L 774.898833 87.539971 
L 775.485912 85.035553 
L 775.779451 81.613384 
L 777.247148 77.96462 
L 777.834227 76.751806 
L 778.127766 79.23229 
L 778.421306 76.26915 
L 779.595463 74.18951 
L 781.06316 72.124931 
L 782.237317 70.870687 
L 783.411475 69.954719 
L 784.585632 69.362171 
L 785.46625 68.975782 
L 786.640408 68.573548 
L 787.814565 68.397878 
L 788.695184 68.421045 
L 789.575802 68.889251 
L 790.45642 69.737819 
L 791.337038 70.890418 
L 791.630577 76.275594 
L 792.804735 79.29023 
L 793.098274 72.371493 
L 794.565971 74.055528 
L 796.033668 76.114507 
L 797.501365 78.568002 
L 797.794904 79.398199 
L 798.088443 84.018265 
L 798.675522 85.665865 
L 798.969062 86.321386 
L 799.262601 86.45016 
L 799.84968 88.051613 
L 800.730298 89.796469 
L 801.023837 89.466291 
L 801.317377 89.602274 
L 801.610916 89.59459 
L 801.904455 89.369236 
L 802.197995 89.348863 
L 802.491534 90.009262 
L 802.785073 93.754116 
L 803.372152 107.283367 
L 803.665692 107.821038 
L 803.959231 109.341169 
L 804.25277 106.53378 
L 804.54631 110.788861 
L 804.839849 107.244401 
L 806.307546 108.926003 
L 806.601085 110.85981 
L 806.894625 111.294832 
L 807.188164 109.866284 
L 808.655861 110.818356 
L 810.123558 111.415924 
L 811.591255 112.073252 
L 811.884794 111.083339 
L 812.471873 111.498952 
L 812.765412 112.900357 
L 813.352491 113.415707 
L 813.64603 115.676567 
L 814.526648 118.315539 
L 814.820188 114.687174 
L 815.700806 115.358117 
L 815.994345 137.140822 
L 816.287885 138.212584 
L 817.755581 140.51255 
L 818.049121 140.8888 
L 818.34266 141.552745 
L 819.223278 144.434876 
L 819.516818 119.314849 
L 820.984514 121.938228 
L 821.278054 150.172593 
L 822.158672 151.949227 
L 822.745751 152.941435 
L 823.03929 153.245956 
L 823.626369 153.389093 
L 824.213448 153.25752 
L 824.506987 118.060697 
L 825.387605 117.756949 
L 827.148841 117.903167 
L 828.029459 117.951464 
L 828.616538 117.836965 
L 829.203617 117.497953 
L 829.790696 116.862929 
L 830.671314 115.378149 
L 830.964853 114.427865 
L 831.258392 150.157132 
L 832.43255 142.763247 
L 832.726089 110.630833 
L 833.019629 113.197037 
L 834.193786 111.776122 
L 834.487326 117.613458 
L 834.780865 108.321615 
L 835.074404 108.116216 
L 835.367944 108.907403 
L 835.661483 105.797904 
L 835.955022 110.75481 
L 836.542101 108.304013 
L 837.12918 106.96054 
L 837.422719 96.084535 
L 838.303337 95.338332 
L 838.890416 94.983243 
L 839.183956 92.233635 
L 840.064574 91.312605 
L 840.358113 103.935236 
L 840.651652 103.651061 
L 840.945192 90.466397 
L 841.82581 90.506723 
L 842.706428 90.80946 
L 843.293507 91.158657 
L 843.587046 88.810408 
L 844.761204 89.655238 
L 845.054743 113.179138 
L 845.348282 113.057662 
L 845.641822 92.537269 
L 845.935361 92.326107 
L 846.2289 91.911645 
L 846.52244 88.817889 
L 846.815979 90.923018 
L 847.109519 90.36216 
L 847.403058 110.17338 
L 849.457834 106.892742 
L 850.631991 105.476774 
L 851.512609 104.708459 
L 852.393227 104.177556 
L 853.273845 103.860709 
L 854.154464 103.73467 
L 855.328621 103.828118 
L 856.502778 104.179634 
L 857.970475 104.908164 
L 859.731712 106.079232 
L 860.025251 84.518864 
L 860.61233 85.174139 
L 860.905869 90.411084 
L 863.254184 93.529171 
L 864.428342 95.198585 
L 864.721881 100.621552 
L 872.647444 111.699331 
L 872.940983 104.480875 
L 873.234523 105.037733 
L 873.528062 96.946309 
L 873.821601 97.567058 
L 874.115141 115.015022 
L 877.050535 117.243178 
L 881.747164 120.450502 
L 887.030873 124.122509 
L 892.608121 128.30972 
L 896.130594 130.878903 
L 896.130594 130.878903 
" clip-path="url(#peb710bb478)" style="fill: none; stroke: #007c85; stroke-width: 2; stroke-linecap: square"/>
   </g>
   <g id="line2d_25">
    <path d="M 88.897321 308.318349 
L 97.997041 306.892765 
L 107.390301 305.192644 
L 117.37064 303.154083 
L 128.525136 300.643385 
L 140.85379 297.63413 
L 154.063061 294.176306 
L 166.978794 290.56738 
L 178.426829 287.145702 
L 188.994247 283.754724 
L 198.681046 280.41569 
L 208.074306 276.945651 
L 212.183857 275.355356 
L 212.477396 275.03447 
L 223.044814 271.007875 
L 236.254085 265.946756 
L 239.483019 264.764261 
L 244.766727 262.754443 
L 251.518133 260.393349 
L 255.334145 258.742771 
L 262.37909 256.503469 
L 265.314483 255.454964 
L 277.056058 252.293105 
L 281.752688 251.174549 
L 282.046227 251.515668 
L 285.862239 251.047158 
L 287.329936 250.899424 
L 287.623476 250.354454 
L 289.678251 250.02713 
L 297.603814 248.427599 
L 299.36505 248.196204 
L 302.887523 247.537592 
L 307.290613 247.083995 
L 311.106625 246.47891 
L 315.803255 245.834356 
L 322.554661 245.004815 
L 325.196515 244.305073 
L 326.664212 243.944013 
L 330.773763 243.305417 
L 334.002696 242.579373 
L 336.351011 241.530143 
L 336.644551 243.046745 
L 339.286405 241.765523 
L 343.395956 240.512248 
L 346.33135 239.507245 
L 346.624889 237.881643 
L 348.092586 237.284086 
L 349.266744 236.776935 
L 349.560283 238.652767 
L 353.963374 237.314373 
L 354.256913 236.592042 
L 356.605228 235.88566 
L 359.540622 234.620867 
L 361.595397 233.931982 
L 366.292027 232.963901 
L 370.695118 232.129156 
L 373.043433 231.443665 
L 373.336972 230.84701 
L 374.804669 230.497999 
L 375.098208 231.136251 
L 385.665626 229.927097 
L 387.133323 229.565845 
L 387.426862 229.361275 
L 388.601019 229.284966 
L 394.765346 228.918403 
L 399.168437 228.429667 
L 403.865067 227.616311 
L 404.158606 227.575977 
L 404.452146 227.853696 
L 407.974618 227.537387 
L 412.084169 227.413169 
L 416.48726 227.494886 
L 420.596811 227.780175 
L 421.477429 227.870361 
L 421.770969 227.381464 
L 425.58698 227.846919 
L 429.402992 228.535193 
L 433.219004 229.463898 
L 434.393162 229.799929 
L 434.686701 229.551294 
L 438.209173 230.669468 
L 440.263949 231.425065 
L 440.557488 230.859841 
L 440.851028 230.963699 
L 441.144567 231.42141 
L 444.66704 232.896848 
L 448.189512 234.618163 
L 451.711984 236.598632 
L 455.234457 238.851244 
L 457.289233 240.295551 
L 457.582772 241.039647 
L 461.105244 243.749011 
L 464.627717 246.725826 
L 468.150189 249.975405 
L 471.966201 253.809742 
L 475.782213 257.976523 
L 479.598225 262.48165 
L 483.414237 267.330532 
L 485.175473 269.685484 
L 485.469012 270.500313 
L 489.578563 276.544152 
L 491.3398 279.25878 
L 491.633339 280.312705 
L 496.03643 287.568954 
L 500.43952 295.275199 
L 504.842611 303.432725 
L 508.071544 309.703592 
L 508.071544 309.703592 
" clip-path="url(#peb710bb478)" style="fill: none; stroke: #ffda00; stroke-width: 2; stroke-linecap: square"/>
   </g>
   <g id="line2d_26">
    <path d="M 528.032221 203.141934 
L 533.022391 206.579143 
L 538.01256 209.7332 
L 542.70919 212.446837 
L 547.40582 214.917233 
L 552.10245 217.1495 
L 557.092619 219.269032 
L 562.082788 221.138574 
L 567.072958 222.768529 
L 572.063127 224.169131 
L 577.053296 225.348701 
L 582.337005 226.364777 
L 587.620714 227.14721 
L 592.904422 227.697966 
L 597.894592 228.002295 
L 602.884761 228.085749 
L 607.581391 227.945884 
L 611.984482 227.595735 
L 615.800493 227.083578 
L 618.148808 226.645979 
L 618.442348 226.394508 
L 621.377742 225.551564 
L 624.019596 224.587026 
L 626.66145 223.379532 
L 629.009765 222.069145 
L 631.35808 220.482966 
L 633.999934 218.49271 
L 634.293474 216.308448 
L 636.05471 215.701769 
L 636.348249 215.797182 
L 638.696564 215.075079 
L 654.547691 210.631998 
L 660.712017 208.631505 
L 665.115108 207.084739 
L 665.702187 206.796464 
L 670.398817 205.202547 
L 675.682525 203.51539 
L 682.72747 201.556892 
L 683.02101 201.472049 
L 683.314549 201.655963 
L 684.195167 201.414461 
L 684.488706 201.524206 
L 689.185336 200.384677 
L 691.240112 200.091812 
L 691.533651 199.734746 
L 696.81736 198.18106 
L 697.697978 197.992017 
L 699.459214 197.576524 
L 701.220451 196.943743 
L 702.101069 196.544419 
L 702.394608 196.770623 
L 705.623541 195.361185 
L 710.026632 193.947577 
L 710.320171 193.120485 
L 711.200789 192.672454 
L 711.494329 192.315717 
L 714.136183 191.415575 
L 717.365116 190.575331 
L 722.355285 189.401657 
L 725.877758 188.58202 
L 730.574388 187.601537 
L 740.261187 184.887525 
L 740.554727 182.920279 
L 744.370738 181.468435 
L 746.425514 180.311735 
L 747.599671 179.537308 
L 747.893211 178.60739 
L 748.48029 178.147312 
L 748.773829 177.362729 
L 749.360908 176.848438 
L 749.654447 177.173941 
L 749.947986 180.662065 
L 750.828605 180.23186 
L 754.644616 178.480188 
L 754.938156 174.784414 
L 759.634786 170.278363 
L 761.102483 168.991703 
L 763.157258 167.621137 
L 763.450798 169.99558 
L 764.918494 168.894866 
L 766.97327 167.444601 
L 769.028046 166.523793 
L 771.376361 165.511995 
L 775.192372 162.995599 
L 775.485912 156.208386 
L 777.247148 154.935407 
L 777.540687 152.845811 
L 780.476081 151.029301 
L 780.769621 155.835017 
L 781.650239 155.42748 
L 781.943778 152.120036 
L 784.292093 150.917803 
L 784.585632 148.743227 
L 785.172711 148.587322 
L 785.46625 146.807564 
L 786.640408 146.409524 
L 787.521026 145.967426 
L 787.814565 146.377629 
L 788.108105 146.235412 
L 788.401644 145.559246 
L 789.575802 145.076119 
L 789.869341 145.474752 
L 791.924117 144.792667 
L 793.098274 144.488011 
L 793.391814 145.419708 
L 794.272432 145.378469 
L 796.327207 145.484136 
L 796.620747 155.777128 
L 797.207825 155.291486 
L 797.501365 145.664784 
L 798.675522 145.961287 
L 798.969062 160.973486 
L 800.143219 159.991047 
L 800.436758 147.431445 
L 801.904455 148.036054 
L 803.078613 148.64848 
L 803.372152 158.572517 
L 803.665692 158.546912 
L 803.959231 153.009809 
L 805.133388 153.439697 
L 805.426928 158.683801 
L 806.894625 159.106006 
L 808.655861 159.879967 
L 810.710636 161.059678 
L 813.058951 162.702988 
L 815.700806 164.863339 
L 818.34266 167.30775 
L 820.984514 170.010611 
L 821.278054 165.907003 
L 824.800526 170.298527 
L 828.322999 175.064136 
L 831.845471 180.202466 
L 835.367944 185.716023 
L 839.183956 192.115821 
L 842.999967 198.962284 
L 846.815979 206.256802 
L 850.92553 214.614103 
L 855.035082 223.492241 
L 859.144633 232.892027 
L 863.547723 243.542636 
L 867.950814 254.792813 
L 872.353905 266.642202 
L 877.050535 279.939739 
L 881.747164 293.9131 
L 886.150255 307.700325 
L 891.140424 324.000513 
L 896.130594 341.052832 
L 896.424133 342.079277 
L 896.424133 342.079277 
" clip-path="url(#peb710bb478)" style="fill: none; stroke: #ffda00; stroke-width: 2; stroke-linecap: square"/>
   </g>
   <g id="patch_3">
    <path d="M 45.967188 421.486125 
L 45.967188 22.318125 
" style="fill: none; stroke: #000000; stroke-width: 0.8; stroke-linejoin: miter; stroke-linecap: square"/>
   </g>
   <g id="patch_4">
    <path d="M 938.767187 421.486125 
L 938.767187 22.318125 
" style="fill: none; stroke: #000000; stroke-width: 0.8; stroke-linejoin: miter; stroke-linecap: square"/>
   </g>
   <g id="patch_5">
    <path d="M 45.967188 421.486125 
L 938.767187 421.486125 
" style="fill: none; stroke: #000000; stroke-width: 0.8; stroke-linejoin: miter; stroke-linecap: square"/>
   </g>
   <g id="patch_6">
    <path d="M 45.967188 22.318125 
L 938.767187 22.318125 
" style="fill: none; stroke: #000000; stroke-width: 0.8; stroke-linejoin: miter; stroke-linecap: square"/>
   </g>
   <g id="text_15">
    <!-- Dont Know + Wont Say -->
    <g transform="translate(422.5075 16.318125) scale(0.12 -0.12)">
     <defs>
      <path id="DejaVuSans-44" d="M 1259 4147 
L 1259 519 
L 2022 519 
Q 2988 519 3436 956 
Q 3884 1394 3884 2338 
Q 3884 3275 3436 3711 
Q 2988 4147 2022 4147 
L 1259 4147 
z
M 628 4666 
L 1925 4666 
Q 3281 4666 3915 4102 
Q 4550 3538 4550 2338 
Q 4550 1131 3912 565 
Q 3275 0 1925 0 
L 628 0 
L 628 4666 
z
" transform="scale(0.015625)"/>
      <path id="DejaVuSans-6f" d="M 1959 3097 
Q 1497 3097 1228 2736 
Q 959 2375 959 1747 
Q 959 1119 1226 758 
Q 1494 397 1959 397 
Q 2419 397 2687 759 
Q 2956 1122 2956 1747 
Q 2956 2369 2687 2733 
Q 2419 3097 1959 3097 
z
M 1959 3584 
Q 2709 3584 3137 3096 
Q 3566 2609 3566 1747 
Q 3566 888 3137 398 
Q 2709 -91 1959 -91 
Q 1206 -91 779 398 
Q 353 888 353 1747 
Q 353 2609 779 3096 
Q 1206 3584 1959 3584 
z
" transform="scale(0.015625)"/>
      <path id="DejaVuSans-6e" d="M 3513 2113 
L 3513 0 
L 2938 0 
L 2938 2094 
Q 2938 2591 2744 2837 
Q 2550 3084 2163 3084 
Q 1697 3084 1428 2787 
Q 1159 2491 1159 1978 
L 1159 0 
L 581 0 
L 581 3500 
L 1159 3500 
L 1159 2956 
Q 1366 3272 1645 3428 
Q 1925 3584 2291 3584 
Q 2894 3584 3203 3211 
Q 3513 2838 3513 2113 
z
" transform="scale(0.015625)"/>
      <path id="DejaVuSans-74" d="M 1172 4494 
L 1172 3500 
L 2356 3500 
L 2356 3053 
L 1172 3053 
L 1172 1153 
Q 1172 725 1289 603 
Q 1406 481 1766 481 
L 2356 481 
L 2356 0 
L 1766 0 
Q 1100 0 847 248 
Q 594 497 594 1153 
L 594 3053 
L 172 3053 
L 172 3500 
L 594 3500 
L 594 4494 
L 1172 4494 
z
" transform="scale(0.015625)"/>
      <path id="DejaVuSans-20" transform="scale(0.015625)"/>
      <path id="DejaVuSans-4b" d="M 628 4666 
L 1259 4666 
L 1259 2694 
L 3353 4666 
L 4166 4666 
L 1850 2491 
L 4331 0 
L 3500 0 
L 1259 2247 
L 1259 0 
L 628 0 
L 628 4666 
z
" transform="scale(0.015625)"/>
      <path id="DejaVuSans-77" d="M 269 3500 
L 844 3500 
L 1563 769 
L 2278 3500 
L 2956 3500 
L 3675 769 
L 4391 3500 
L 4966 3500 
L 4050 0 
L 3372 0 
L 2619 2869 
L 1863 0 
L 1184 0 
L 269 3500 
z
" transform="scale(0.015625)"/>
      <path id="DejaVuSans-2b" d="M 2944 4013 
L 2944 2272 
L 4684 2272 
L 4684 1741 
L 2944 1741 
L 2944 0 
L 2419 0 
L 2419 1741 
L 678 1741 
L 678 2272 
L 2419 2272 
L 2419 4013 
L 2944 4013 
z
" transform="scale(0.015625)"/>
      <path id="DejaVuSans-57" d="M 213 4666 
L 850 4666 
L 1831 722 
L 2809 4666 
L 3519 4666 
L 4500 722 
L 5478 4666 
L 6119 4666 
L 4947 0 
L 4153 0 
L 3169 4050 
L 2175 0 
L 1381 0 
L 213 4666 
z
" transform="scale(0.015625)"/>
      <path id="DejaVuSans-53" d="M 3425 4513 
L 3425 3897 
Q 3066 4069 2747 4153 
Q 2428 4238 2131 4238 
Q 1616 4238 1336 4038 
Q 1056 3838 1056 3469 
Q 1056 3159 1242 3001 
Q 1428 2844 1947 2747 
L 2328 2669 
Q 3034 2534 3370 2195 
Q 3706 1856 3706 1288 
Q 3706 609 3251 259 
Q 2797 -91 1919 -91 
Q 1588 -91 1214 -16 
Q 841 59 441 206 
L 441 856 
Q 825 641 1194 531 
Q 1563 422 1919 422 
Q 2459 422 2753 634 
Q 3047 847 3047 1241 
Q 3047 1584 2836 1778 
Q 2625 1972 2144 2069 
L 1759 2144 
Q 1053 2284 737 2584 
Q 422 2884 422 3419 
Q 422 4038 858 4394 
Q 1294 4750 2059 4750 
Q 2388 4750 2728 4690 
Q 3069 4631 3425 4513 
z
" transform="scale(0.015625)"/>
      <path id="DejaVuSans-61" d="M 2194 1759 
Q 1497 1759 1228 1600 
Q 959 1441 959 1056 
Q 959 750 1161 570 
Q 1363 391 1709 391 
Q 2188 391 2477 730 
Q 2766 1069 2766 1631 
L 2766 1759 
L 2194 1759 
z
M 3341 1997 
L 3341 0 
L 2766 0 
L 2766 531 
Q 2569 213 2275 61 
Q 1981 -91 1556 -91 
Q 1019 -91 701 211 
Q 384 513 384 1019 
Q 384 1609 779 1909 
Q 1175 2209 1959 2209 
L 2766 2209 
L 2766 2266 
Q 2766 2663 2505 2880 
Q 2244 3097 1772 3097 
Q 1472 3097 1187 3025 
Q 903 2953 641 2809 
L 641 3341 
Q 956 3463 1253 3523 
Q 1550 3584 1831 3584 
Q 2591 3584 2966 3190 
Q 3341 2797 3341 1997 
z
" transform="scale(0.015625)"/>
      <path id="DejaVuSans-79" d="M 2059 -325 
Q 1816 -950 1584 -1140 
Q 1353 -1331 966 -1331 
L 506 -1331 
L 506 -850 
L 844 -850 
Q 1081 -850 1212 -737 
Q 1344 -625 1503 -206 
L 1606 56 
L 191 3500 
L 800 3500 
L 1894 763 
L 2988 3500 
L 3597 3500 
L 2059 -325 
z
" transform="scale(0.015625)"/>
     </defs>
     <use xlink:href="#DejaVuSans-44"/>
     <use xlink:href="#DejaVuSans-6f" x="77.001953"/>
     <use xlink:href="#DejaVuSans-6e" x="138.183594"/>
     <use xlink:href="#DejaVuSans-74" x="201.5625"/>
     <use xlink:href="#DejaVuSans-20" x="240.771484"/>
     <use xlink:href="#DejaVuSans-4b" x="272.558594"/>
     <use xlink:href="#DejaVuSans-6e" x="338.134766"/>
     <use xlink:href="#DejaVuSans-6f" x="401.513672"/>
     <use xlink:href="#DejaVuSans-77" x="462.695312"/>
     <use xlink:href="#DejaVuSans-20" x="544.482422"/>
     <use xlink:href="#DejaVuSans-2b" x="576.269531"/>
     <use xlink:href="#DejaVuSans-20" x="660.058594"/>
     <use xlink:href="#DejaVuSans-57" x="691.845703"/>
     <use xlink:href="#DejaVuSans-6f" x="784.847656"/>
     <use xlink:href="#DejaVuSans-6e" x="846.029297"/>
     <use xlink:href="#DejaVuSans-74" x="909.408203"/>
     <use xlink:href="#DejaVuSans-20" x="948.617188"/>
     <use xlink:href="#DejaVuSans-53" x="980.404297"/>
     <use xlink:href="#DejaVuSans-61" x="1043.880859"/>
     <use xlink:href="#DejaVuSans-79" x="1105.160156"/>
    </g>
   </g>
  </g>
  <g id="legend_1">
   <g id="line2d_27">
    <path d="M 412.470313 451.8495 
L 422.470313 451.8495 
L 432.470313 451.8495 
" style="fill: none; stroke: #007c85; stroke-width: 2; stroke-linecap: square"/>
   </g>
   <g id="text_16">
    <!-- AKO -->
    <g transform="translate(440.470313 455.3495) scale(0.1 -0.1)">
     <defs>
      <path id="DejaVuSans-41" d="M 2188 4044 
L 1331 1722 
L 3047 1722 
L 2188 4044 
z
M 1831 4666 
L 2547 4666 
L 4325 0 
L 3669 0 
L 3244 1197 
L 1141 1197 
L 716 0 
L 50 0 
L 1831 4666 
z
" transform="scale(0.015625)"/>
      <path id="DejaVuSans-4f" d="M 2522 4238 
Q 1834 4238 1429 3725 
Q 1025 3213 1025 2328 
Q 1025 1447 1429 934 
Q 1834 422 2522 422 
Q 3209 422 3611 934 
Q 4013 1447 4013 2328 
Q 4013 3213 3611 3725 
Q 3209 4238 2522 4238 
z
M 2522 4750 
Q 3503 4750 4090 4092 
Q 4678 3434 4678 2328 
Q 4678 1225 4090 567 
Q 3503 -91 2522 -91 
Q 1538 -91 948 565 
Q 359 1222 359 2328 
Q 359 3434 948 4092 
Q 1538 4750 2522 4750 
z
" transform="scale(0.015625)"/>
     </defs>
     <use xlink:href="#DejaVuSans-41"/>
     <use xlink:href="#DejaVuSans-4b" x="68.408203"/>
     <use xlink:href="#DejaVuSans-4f" x="128.484375"/>
    </g>
   </g>
   <g id="line2d_28">
    <path d="M 481.190625 451.8495 
L 491.190625 451.8495 
L 501.190625 451.8495 
" style="fill: none; stroke: #ffda00; stroke-width: 2; stroke-linecap: square"/>
   </g>
   <g id="text_17">
    <!-- FOCUS -->
    <g transform="translate(509.190625 455.3495) scale(0.1 -0.1)">
     <defs>
      <path id="DejaVuSans-46" d="M 628 4666 
L 3309 4666 
L 3309 4134 
L 1259 4134 
L 1259 2759 
L 3109 2759 
L 3109 2228 
L 1259 2228 
L 1259 0 
L 628 0 
L 628 4666 
z
" transform="scale(0.015625)"/>
      <path id="DejaVuSans-43" d="M 4122 4306 
L 4122 3641 
Q 3803 3938 3442 4084 
Q 3081 4231 2675 4231 
Q 1875 4231 1450 3742 
Q 1025 3253 1025 2328 
Q 1025 1406 1450 917 
Q 1875 428 2675 428 
Q 3081 428 3442 575 
Q 3803 722 4122 1019 
L 4122 359 
Q 3791 134 3420 21 
Q 3050 -91 2638 -91 
Q 1578 -91 968 557 
Q 359 1206 359 2328 
Q 359 3453 968 4101 
Q 1578 4750 2638 4750 
Q 3056 4750 3426 4639 
Q 3797 4528 4122 4306 
z
" transform="scale(0.015625)"/>
      <path id="DejaVuSans-55" d="M 556 4666 
L 1191 4666 
L 1191 1831 
Q 1191 1081 1462 751 
Q 1734 422 2344 422 
Q 2950 422 3222 751 
Q 3494 1081 3494 1831 
L 3494 4666 
L 4128 4666 
L 4128 1753 
Q 4128 841 3676 375 
Q 3225 -91 2344 -91 
Q 1459 -91 1007 375 
Q 556 841 556 1753 
L 556 4666 
z
" transform="scale(0.015625)"/>
     </defs>
     <use xlink:href="#DejaVuSans-46"/>
     <use xlink:href="#DejaVuSans-4f" x="57.519531"/>
     <use xlink:href="#DejaVuSans-43" x="136.230469"/>
     <use xlink:href="#DejaVuSans-55" x="206.054688"/>
     <use xlink:href="#DejaVuSans-53" x="279.248047"/>
    </g>
   </g>
  </g>
 </g>
 <defs>
  <clipPath id="peb710bb478">
   <rect x="45.967188" y="22.318125" width="892.8" height="399.168"/>
  </clipPath>
 </defs>
</svg>
