<?xml version="1.0" encoding="utf-8" standalone="no"?>
<!DOCTYPE svg PUBLIC "-//W3C//DTD SVG 1.1//EN"
  "http://www.w3.org/Graphics/SVG/1.1/DTD/svg11.dtd">
<svg xmlns:xlink="http://www.w3.org/1999/xlink" width="945.967187pt" height="468.629188pt" viewBox="0 0 945.967187 468.629188" xmlns="http://www.w3.org/2000/svg" version="1.1">
 <metadata>
  <rdf:RDF xmlns:dc="http://purl.org/dc/elements/1.1/" xmlns:cc="http://creativecommons.org/ns#" xmlns:rdf="http://www.w3.org/1999/02/22-rdf-syntax-ns#">
   <cc:Work>
    <dc:type rdf:resource="http://purl.org/dc/dcmitype/StillImage"/>
    <dc:date>2023-09-27T16:31:20.684886</dc:date>
    <dc:format>image/svg+xml</dc:format>
    <dc:creator>
     <cc:Agent>
      <dc:title>Matplotlib v3.7.1, https://matplotlib.org/</dc:title>
     </cc:Agent>
    </dc:creator>
   </cc:Work>
  </rdf:RDF>
 </metadata>
 <defs>
  <style type="text/css">*{stroke-linejoin: round; stroke-linecap: butt}</style>
 </defs>
 <g id="figure_1">
  <g id="patch_1">
   <path d="M 0 468.629188 
L 945.967187 468.629188 
L 945.967187 0 
L 0 0 
z
" style="fill: #ffffff"/>
  </g>
  <g id="axes_1">
   <g id="patch_2">
    <path d="M 45.967188 421.486125 
L 938.767187 421.486125 
L 938.767187 22.318125 
L 45.967188 22.318125 
z
" style="fill: #ffffff"/>
   </g>
   <g id="PathCollection_1">
    <defs>
     <path id="m49b5249ef7" d="M 0 3 
C 0.795609 3 1.55874 2.683901 2.12132 2.12132 
C 2.683901 1.55874 3 0.795609 3 0 
C 3 -0.795609 2.683901 -1.55874 2.12132 -2.12132 
C 1.55874 -2.683901 0.795609 -3 0 -3 
C -0.795609 -3 -1.55874 -2.683901 -2.12132 -2.12132 
C -2.683901 -1.55874 -3 -0.795609 -3 0 
C -3 0.795609 -2.683901 1.55874 -2.12132 2.12132 
C -1.55874 2.683901 -0.795609 3 0 3 
z
" style="stroke: #000000"/>
    </defs>
    <g clip-path="url(#pe5261fae37)">
     <use xlink:href="#m49b5249ef7" x="86.549006" y="374.369097" style="stroke: #000000"/>
    </g>
   </g>
   <g id="PathCollection_2">
    <g clip-path="url(#pe5261fae37)">
     <use xlink:href="#m49b5249ef7" x="513.942331" y="288.597461" style="stroke: #000000"/>
    </g>
   </g>
   <g id="PathCollection_3"/>
   <g id="PathCollection_4">
    <defs>
     <path id="m6bc3355afd" d="M 0 1.5 
C 0.397805 1.5 0.77937 1.341951 1.06066 1.06066 
C 1.341951 0.77937 1.5 0.397805 1.5 0 
C 1.5 -0.397805 1.341951 -0.77937 1.06066 -1.06066 
C 0.77937 -1.341951 0.397805 -1.5 0 -1.5 
C -0.397805 -1.5 -0.77937 -1.341951 -1.06066 -1.06066 
C -1.341951 -0.77937 -1.5 -0.397805 -1.5 0 
C -1.5 0.397805 -1.341951 0.77937 -1.06066 1.06066 
C -0.77937 1.341951 -0.397805 1.5 0 1.5 
z
" style="stroke: #007c85"/>
    </defs>
    <g clip-path="url(#pe5261fae37)">
     <use xlink:href="#m6bc3355afd" x="95.648726" y="74.885524" style="fill: #007c85; stroke: #007c85"/>
     <use xlink:href="#m6bc3355afd" x="105.041986" y="126.520623" style="fill: #007c85; stroke: #007c85"/>
     <use xlink:href="#m6bc3355afd" x="128.231597" y="123.652006" style="fill: #007c85; stroke: #007c85"/>
     <use xlink:href="#m6bc3355afd" x="143.789183" y="334.495327" style="fill: #007c85; stroke: #007c85"/>
     <use xlink:href="#m6bc3355afd" x="153.475983" y="261.345603" style="fill: #007c85; stroke: #007c85"/>
     <use xlink:href="#m6bc3355afd" x="158.759691" y="284.294536" style="fill: #007c85; stroke: #007c85"/>
     <use xlink:href="#m6bc3355afd" x="167.272333" y="168.115564" style="fill: #007c85; stroke: #007c85"/>
     <use xlink:href="#m6bc3355afd" x="176.665593" y="261.345603" style="fill: #007c85; stroke: #007c85"/>
     <use xlink:href="#m6bc3355afd" x="187.52655" y="238.39667" style="fill: #007c85; stroke: #007c85"/>
     <use xlink:href="#m6bc3355afd" x="196.332731" y="193.933113" style="fill: #007c85; stroke: #007c85"/>
     <use xlink:href="#m6bc3355afd" x="208.661384" y="221.184971" style="fill: #007c85; stroke: #007c85"/>
     <use xlink:href="#m6bc3355afd" x="223.925432" y="272.82007" style="fill: #007c85; stroke: #007c85"/>
     <use xlink:href="#m6bc3355afd" x="232.731613" y="215.447738" style="fill: #007c85; stroke: #007c85"/>
     <use xlink:href="#m6bc3355afd" x="243.59257" y="272.82007" style="fill: #007c85; stroke: #007c85"/>
     <use xlink:href="#m6bc3355afd" x="251.811672" y="312.980702" style="fill: #007c85; stroke: #007c85"/>
     <use xlink:href="#m6bc3355afd" x="268.836956" y="162.378331" style="fill: #007c85; stroke: #007c85"/>
     <use xlink:href="#m6bc3355afd" x="297.897354" y="186.761572" style="fill: #007c85; stroke: #007c85"/>
     <use xlink:href="#m6bc3355afd" x="309.932468" y="231.225129" style="fill: #007c85; stroke: #007c85"/>
     <use xlink:href="#m6bc3355afd" x="314.922637" y="261.345603" style="fill: #007c85; stroke: #007c85"/>
     <use xlink:href="#m6bc3355afd" x="322.554661" y="158.075406" style="fill: #007c85; stroke: #007c85"/>
     <use xlink:href="#m6bc3355afd" x="331.947921" y="202.538963" style="fill: #007c85; stroke: #007c85"/>
     <use xlink:href="#m6bc3355afd" x="348.973204" y="228.356512" style="fill: #007c85; stroke: #007c85"/>
     <use xlink:href="#m6bc3355afd" x="353.963374" y="172.418489" style="fill: #007c85; stroke: #007c85"/>
     <use xlink:href="#m6bc3355afd" x="363.650173" y="231.225129" style="fill: #007c85; stroke: #007c85"/>
     <use xlink:href="#m6bc3355afd" x="375.391748" y="169.549872" style="fill: #007c85; stroke: #007c85"/>
     <use xlink:href="#m6bc3355afd" x="379.20776" y="232.659437" style="fill: #007c85; stroke: #007c85"/>
     <use xlink:href="#m6bc3355afd" x="401.223212" y="176.721414" style="fill: #007c85; stroke: #007c85"/>
     <use xlink:href="#m6bc3355afd" x="415.900181" y="117.914773" style="fill: #007c85; stroke: #007c85"/>
     <use xlink:href="#m6bc3355afd" x="424.999902" y="53.3709" style="fill: #007c85; stroke: #007c85"/>
     <use xlink:href="#m6bc3355afd" x="427.054677" y="188.19588" style="fill: #007c85; stroke: #007c85"/>
     <use xlink:href="#m6bc3355afd" x="471.672662" y="264.21422" style="fill: #007c85; stroke: #007c85"/>
     <use xlink:href="#m6bc3355afd" x="484.881934" y="206.841888" style="fill: #007c85; stroke: #007c85"/>
    </g>
   </g>
   <g id="PathCollection_5">
    <g clip-path="url(#pe5261fae37)">
     <use xlink:href="#m6bc3355afd" x="527.445142" y="82.057066" style="fill: #007c85; stroke: #007c85"/>
     <use xlink:href="#m6bc3355afd" x="553.276607" y="295.769002" style="fill: #007c85; stroke: #007c85"/>
     <use xlink:href="#m6bc3355afd" x="599.949367" y="321.586552" style="fill: #007c85; stroke: #007c85"/>
     <use xlink:href="#m6bc3355afd" x="615.506954" y="358.878568" style="fill: #007c85; stroke: #007c85"/>
     <use xlink:href="#m6bc3355afd" x="624.019596" y="357.444259" style="fill: #007c85; stroke: #007c85"/>
     <use xlink:href="#m6bc3355afd" x="634.293474" y="403.342125" style="fill: #007c85; stroke: #007c85"/>
     <use xlink:href="#m6bc3355afd" x="643.393194" y="337.363943" style="fill: #007c85; stroke: #007c85"/>
     <use xlink:href="#m6bc3355afd" x="650.731679" y="312.980702" style="fill: #007c85; stroke: #007c85"/>
     <use xlink:href="#m6bc3355afd" x="659.53786" y="254.174062" style="fill: #007c85; stroke: #007c85"/>
     <use xlink:href="#m6bc3355afd" x="669.518199" y="278.557303" style="fill: #007c85; stroke: #007c85"/>
     <use xlink:href="#m6bc3355afd" x="677.737301" y="323.02086" style="fill: #007c85; stroke: #007c85"/>
     <use xlink:href="#m6bc3355afd" x="685.369325" y="285.728844" style="fill: #007c85; stroke: #007c85"/>
     <use xlink:href="#m6bc3355afd" x="696.523821" y="239.830979" style="fill: #007c85; stroke: #007c85"/>
     <use xlink:href="#m6bc3355afd" x="704.742923" y="259.911295" style="fill: #007c85; stroke: #007c85"/>
     <use xlink:href="#m6bc3355afd" x="714.723262" y="305.809161" style="fill: #007c85; stroke: #007c85"/>
     <use xlink:href="#m6bc3355afd" x="723.235904" y="312.980702" style="fill: #007c85; stroke: #007c85"/>
     <use xlink:href="#m6bc3355afd" x="730.867927" y="282.860228" style="fill: #007c85; stroke: #007c85"/>
     <use xlink:href="#m6bc3355afd" x="739.674108" y="281.425919" style="fill: #007c85; stroke: #007c85"/>
     <use xlink:href="#m6bc3355afd" x="749.947986" y="238.39667" style="fill: #007c85; stroke: #007c85"/>
     <use xlink:href="#m6bc3355afd" x="757.58001" y="272.82007" style="fill: #007c85; stroke: #007c85"/>
     <use xlink:href="#m6bc3355afd" x="766.97327" y="298.637619" style="fill: #007c85; stroke: #007c85"/>
     <use xlink:href="#m6bc3355afd" x="778.127766" y="364.615801" style="fill: #007c85; stroke: #007c85"/>
     <use xlink:href="#m6bc3355afd" x="785.46625" y="370.353034" style="fill: #007c85; stroke: #007c85"/>
     <use xlink:href="#m6bc3355afd" x="795.446589" y="360.312876" style="fill: #007c85; stroke: #007c85"/>
     <use xlink:href="#m6bc3355afd" x="802.785073" y="274.254378" style="fill: #007c85; stroke: #007c85"/>
     <use xlink:href="#m6bc3355afd" x="811.591255" y="321.586552" style="fill: #007c85; stroke: #007c85"/>
     <use xlink:href="#m6bc3355afd" x="821.865133" y="268.517145" style="fill: #007c85; stroke: #007c85"/>
     <use xlink:href="#m6bc3355afd" x="830.084235" y="343.101176" style="fill: #007c85; stroke: #007c85"/>
     <use xlink:href="#m6bc3355afd" x="838.303337" y="264.21422" style="fill: #007c85; stroke: #007c85"/>
     <use xlink:href="#m6bc3355afd" x="846.52244" y="297.203311" style="fill: #007c85; stroke: #007c85"/>
     <use xlink:href="#m6bc3355afd" x="855.328621" y="229.790821" style="fill: #007c85; stroke: #007c85"/>
     <use xlink:href="#m6bc3355afd" x="864.428342" y="347.404101" style="fill: #007c85; stroke: #007c85"/>
     <use xlink:href="#m6bc3355afd" x="874.995759" y="331.62671" style="fill: #007c85; stroke: #007c85"/>
     <use xlink:href="#m6bc3355afd" x="878.811771" y="272.82007" style="fill: #007c85; stroke: #007c85"/>
     <use xlink:href="#m6bc3355afd" x="883.214861" y="143.732323" style="fill: #007c85; stroke: #007c85"/>
     <use xlink:href="#m6bc3355afd" x="891.727503" y="193.933113" style="fill: #007c85; stroke: #007c85"/>
     <use xlink:href="#m6bc3355afd" x="896.130594" y="275.688686" style="fill: #007c85; stroke: #007c85"/>
    </g>
   </g>
   <g id="PathCollection_6">
    <defs>
     <path id="m8a778913b5" d="M 0 1.5 
C 0.397805 1.5 0.77937 1.341951 1.06066 1.06066 
C 1.341951 0.77937 1.5 0.397805 1.5 0 
C 1.5 -0.397805 1.341951 -0.77937 1.06066 -1.06066 
C 0.77937 -1.341951 0.397805 -1.5 0 -1.5 
C -0.397805 -1.5 -0.77937 -1.341951 -1.06066 -1.06066 
C -1.341951 -0.77937 -1.5 -0.397805 -1.5 0 
C -1.5 0.397805 -1.341951 0.77937 -1.06066 1.06066 
C -0.77937 1.341951 -0.397805 1.5 0 1.5 
z
" style="stroke: #ffda00"/>
    </defs>
    <g clip-path="url(#pe5261fae37)">
     <use xlink:href="#m8a778913b5" x="88.897321" y="150.903864" style="fill: #ffda00; stroke: #ffda00"/>
     <use xlink:href="#m8a778913b5" x="104.748447" y="242.699595" style="fill: #ffda00; stroke: #ffda00"/>
     <use xlink:href="#m8a778913b5" x="117.0771" y="232.659437" style="fill: #ffda00; stroke: #ffda00"/>
     <use xlink:href="#m8a778913b5" x="133.808845" y="132.257856" style="fill: #ffda00; stroke: #ffda00"/>
     <use xlink:href="#m8a778913b5" x="142.321486" y="205.40758" style="fill: #ffda00; stroke: #ffda00"/>
     <use xlink:href="#m8a778913b5" x="157.585534" y="211.144813" style="fill: #ffda00; stroke: #ffda00"/>
     <use xlink:href="#m8a778913b5" x="164.630479" y="188.19588" style="fill: #ffda00; stroke: #ffda00"/>
     <use xlink:href="#m8a778913b5" x="181.949302" y="242.699595" style="fill: #ffda00; stroke: #ffda00"/>
     <use xlink:href="#m8a778913b5" x="187.52655" y="254.174062" style="fill: #ffda00; stroke: #ffda00"/>
     <use xlink:href="#m8a778913b5" x="203.084136" y="234.093746" style="fill: #ffda00; stroke: #ffda00"/>
     <use xlink:href="#m8a778913b5" x="219.815881" y="235.528054" style="fill: #ffda00; stroke: #ffda00"/>
     <use xlink:href="#m8a778913b5" x="233.318692" y="277.122995" style="fill: #ffda00; stroke: #ffda00"/>
     <use xlink:href="#m8a778913b5" x="250.343975" y="247.00252" style="fill: #ffda00; stroke: #ffda00"/>
     <use xlink:href="#m8a778913b5" x="257.095381" y="259.911295" style="fill: #ffda00; stroke: #ffda00"/>
     <use xlink:href="#m8a778913b5" x="267.075719" y="255.60837" style="fill: #ffda00; stroke: #ffda00"/>
     <use xlink:href="#m8a778913b5" x="289.384712" y="259.911295" style="fill: #ffda00; stroke: #ffda00"/>
     <use xlink:href="#m8a778913b5" x="302.300444" y="318.717935" style="fill: #ffda00; stroke: #ffda00"/>
     <use xlink:href="#m8a778913b5" x="316.390334" y="206.841888" style="fill: #ffda00; stroke: #ffda00"/>
     <use xlink:href="#m8a778913b5" x="328.425448" y="245.568212" style="fill: #ffda00; stroke: #ffda00"/>
     <use xlink:href="#m8a778913b5" x="345.744271" y="249.871137" style="fill: #ffda00; stroke: #ffda00"/>
     <use xlink:href="#m8a778913b5" x="359.540622" y="198.236038" style="fill: #ffda00; stroke: #ffda00"/>
     <use xlink:href="#m8a778913b5" x="374.21759" y="150.903864" style="fill: #ffda00; stroke: #ffda00"/>
     <use xlink:href="#m8a778913b5" x="381.556075" y="139.429398" style="fill: #ffda00; stroke: #ffda00"/>
     <use xlink:href="#m8a778913b5" x="394.765346" y="182.458647" style="fill: #ffda00; stroke: #ffda00"/>
     <use xlink:href="#m8a778913b5" x="405.039224" y="106.440307" style="fill: #ffda00; stroke: #ffda00"/>
     <use xlink:href="#m8a778913b5" x="412.671248" y="258.476987" style="fill: #ffda00; stroke: #ffda00"/>
     <use xlink:href="#m8a778913b5" x="418.835575" y="218.316354" style="fill: #ffda00; stroke: #ffda00"/>
     <use xlink:href="#m8a778913b5" x="435.27378" y="136.560781" style="fill: #ffda00; stroke: #ffda00"/>
     <use xlink:href="#m8a778913b5" x="439.97041" y="152.338172" style="fill: #ffda00; stroke: #ffda00"/>
     <use xlink:href="#m8a778913b5" x="452.592603" y="130.823548" style="fill: #ffda00; stroke: #ffda00"/>
     <use xlink:href="#m8a778913b5" x="456.115075" y="172.418489" style="fill: #ffda00; stroke: #ffda00"/>
     <use xlink:href="#m8a778913b5" x="464.627717" y="158.075406" style="fill: #ffda00; stroke: #ffda00"/>
     <use xlink:href="#m8a778913b5" x="474.608055" y="176.721414" style="fill: #ffda00; stroke: #ffda00"/>
     <use xlink:href="#m8a778913b5" x="479.011146" y="155.206789" style="fill: #ffda00; stroke: #ffda00"/>
     <use xlink:href="#m8a778913b5" x="488.697945" y="127.954931" style="fill: #ffda00; stroke: #ffda00"/>
     <use xlink:href="#m8a778913b5" x="499.852441" y="116.480465" style="fill: #ffda00; stroke: #ffda00"/>
     <use xlink:href="#m8a778913b5" x="501.613678" y="129.38924" style="fill: #ffda00; stroke: #ffda00"/>
     <use xlink:href="#m8a778913b5" x="508.071544" y="40.462125" style="fill: #ffda00; stroke: #ffda00"/>
    </g>
   </g>
   <g id="PathCollection_7">
    <g clip-path="url(#pe5261fae37)">
     <use xlink:href="#m8a778913b5" x="528.032221" y="199.670346" style="fill: #ffda00; stroke: #ffda00"/>
     <use xlink:href="#m8a778913b5" x="536.838402" y="183.892955" style="fill: #ffda00; stroke: #ffda00"/>
     <use xlink:href="#m8a778913b5" x="546.818741" y="268.517145" style="fill: #ffda00; stroke: #ffda00"/>
     <use xlink:href="#m8a778913b5" x="567.366497" y="249.871137" style="fill: #ffda00; stroke: #ffda00"/>
     <use xlink:href="#m8a778913b5" x="579.98869" y="216.882046" style="fill: #ffda00; stroke: #ffda00"/>
     <use xlink:href="#m8a778913b5" x="592.023804" y="231.225129" style="fill: #ffda00; stroke: #ffda00"/>
     <use xlink:href="#m8a778913b5" x="597.894592" y="262.779912" style="fill: #ffda00; stroke: #ffda00"/>
     <use xlink:href="#m8a778913b5" x="608.16847" y="252.739753" style="fill: #ffda00; stroke: #ffda00"/>
     <use xlink:href="#m8a778913b5" x="618.735887" y="211.144813" style="fill: #ffda00; stroke: #ffda00"/>
     <use xlink:href="#m8a778913b5" x="631.064541" y="219.750663" style="fill: #ffda00; stroke: #ffda00"/>
     <use xlink:href="#m8a778913b5" x="643.393194" y="323.02086" style="fill: #ffda00; stroke: #ffda00"/>
     <use xlink:href="#m8a778913b5" x="649.557521" y="261.345603" style="fill: #ffda00; stroke: #ffda00"/>
     <use xlink:href="#m8a778913b5" x="676.269604" y="335.929635" style="fill: #ffda00; stroke: #ffda00"/>
     <use xlink:href="#m8a778913b5" x="690.653033" y="272.82007" style="fill: #ffda00; stroke: #ffda00"/>
     <use xlink:href="#m8a778913b5" x="698.578596" y="274.254378" style="fill: #ffda00; stroke: #ffda00"/>
     <use xlink:href="#m8a778913b5" x="717.365116" y="254.174062" style="fill: #ffda00; stroke: #ffda00"/>
     <use xlink:href="#m8a778913b5" x="727.345455" y="297.203311" style="fill: #ffda00; stroke: #ffda00"/>
     <use xlink:href="#m8a778913b5" x="737.912872" y="241.265287" style="fill: #ffda00; stroke: #ffda00"/>
     <use xlink:href="#m8a778913b5" x="754.351077" y="282.860228" style="fill: #ffda00; stroke: #ffda00"/>
     <use xlink:href="#m8a778913b5" x="761.983101" y="222.619279" style="fill: #ffda00; stroke: #ffda00"/>
     <use xlink:href="#m8a778913b5" x="789.282262" y="307.243469" style="fill: #ffda00; stroke: #ffda00"/>
     <use xlink:href="#m8a778913b5" x="801.610916" y="196.80173" style="fill: #ffda00; stroke: #ffda00"/>
     <use xlink:href="#m8a778913b5" x="809.830018" y="278.557303" style="fill: #ffda00; stroke: #ffda00"/>
     <use xlink:href="#m8a778913b5" x="814.233109" y="216.882046" style="fill: #ffda00; stroke: #ffda00"/>
     <use xlink:href="#m8a778913b5" x="828.322999" y="258.476987" style="fill: #ffda00; stroke: #ffda00"/>
     <use xlink:href="#m8a778913b5" x="840.651652" y="275.688686" style="fill: #ffda00; stroke: #ffda00"/>
     <use xlink:href="#m8a778913b5" x="850.92553" y="255.60837" style="fill: #ffda00; stroke: #ffda00"/>
     <use xlink:href="#m8a778913b5" x="861.199408" y="224.053587" style="fill: #ffda00; stroke: #ffda00"/>
     <use xlink:href="#m8a778913b5" x="869.418511" y="201.104655" style="fill: #ffda00; stroke: #ffda00"/>
     <use xlink:href="#m8a778913b5" x="877.931153" y="214.013429" style="fill: #ffda00; stroke: #ffda00"/>
     <use xlink:href="#m8a778913b5" x="883.80194" y="291.466078" style="fill: #ffda00; stroke: #ffda00"/>
     <use xlink:href="#m8a778913b5" x="892.021043" y="304.374852" style="fill: #ffda00; stroke: #ffda00"/>
     <use xlink:href="#m8a778913b5" x="896.424133" y="165.246947" style="fill: #ffda00; stroke: #ffda00"/>
    </g>
   </g>
   <g id="matplotlib.axis_1">
    <g id="xtick_1">
     <g id="line2d_1">
      <defs>
       <path id="m37053def31" d="M 0 0 
L 0 3.5 
" style="stroke: #000000; stroke-width: 0.8"/>
      </defs>
      <g>
       <use xlink:href="#m37053def31" x="67.762486" y="421.486125" style="stroke: #000000; stroke-width: 0.8"/>
      </g>
     </g>
     <g id="text_1">
      <!-- 2016 -->
      <g transform="translate(55.037486 436.084563) scale(0.1 -0.1)">
       <defs>
        <path id="DejaVuSans-32" d="M 1228 531 
L 3431 531 
L 3431 0 
L 469 0 
L 469 531 
Q 828 903 1448 1529 
Q 2069 2156 2228 2338 
Q 2531 2678 2651 2914 
Q 2772 3150 2772 3378 
Q 2772 3750 2511 3984 
Q 2250 4219 1831 4219 
Q 1534 4219 1204 4116 
Q 875 4013 500 3803 
L 500 4441 
Q 881 4594 1212 4672 
Q 1544 4750 1819 4750 
Q 2544 4750 2975 4387 
Q 3406 4025 3406 3419 
Q 3406 3131 3298 2873 
Q 3191 2616 2906 2266 
Q 2828 2175 2409 1742 
Q 1991 1309 1228 531 
z
" transform="scale(0.015625)"/>
        <path id="DejaVuSans-30" d="M 2034 4250 
Q 1547 4250 1301 3770 
Q 1056 3291 1056 2328 
Q 1056 1369 1301 889 
Q 1547 409 2034 409 
Q 2525 409 2770 889 
Q 3016 1369 3016 2328 
Q 3016 3291 2770 3770 
Q 2525 4250 2034 4250 
z
M 2034 4750 
Q 2819 4750 3233 4129 
Q 3647 3509 3647 2328 
Q 3647 1150 3233 529 
Q 2819 -91 2034 -91 
Q 1250 -91 836 529 
Q 422 1150 422 2328 
Q 422 3509 836 4129 
Q 1250 4750 2034 4750 
z
" transform="scale(0.015625)"/>
        <path id="DejaVuSans-31" d="M 794 531 
L 1825 531 
L 1825 4091 
L 703 3866 
L 703 4441 
L 1819 4666 
L 2450 4666 
L 2450 531 
L 3481 531 
L 3481 0 
L 794 0 
L 794 531 
z
" transform="scale(0.015625)"/>
        <path id="DejaVuSans-36" d="M 2113 2584 
Q 1688 2584 1439 2293 
Q 1191 2003 1191 1497 
Q 1191 994 1439 701 
Q 1688 409 2113 409 
Q 2538 409 2786 701 
Q 3034 994 3034 1497 
Q 3034 2003 2786 2293 
Q 2538 2584 2113 2584 
z
M 3366 4563 
L 3366 3988 
Q 3128 4100 2886 4159 
Q 2644 4219 2406 4219 
Q 1781 4219 1451 3797 
Q 1122 3375 1075 2522 
Q 1259 2794 1537 2939 
Q 1816 3084 2150 3084 
Q 2853 3084 3261 2657 
Q 3669 2231 3669 1497 
Q 3669 778 3244 343 
Q 2819 -91 2113 -91 
Q 1303 -91 875 529 
Q 447 1150 447 2328 
Q 447 3434 972 4092 
Q 1497 4750 2381 4750 
Q 2619 4750 2861 4703 
Q 3103 4656 3366 4563 
z
" transform="scale(0.015625)"/>
       </defs>
       <use xlink:href="#DejaVuSans-32"/>
       <use xlink:href="#DejaVuSans-30" x="63.623047"/>
       <use xlink:href="#DejaVuSans-31" x="127.246094"/>
       <use xlink:href="#DejaVuSans-36" x="190.869141"/>
      </g>
     </g>
    </g>
    <g id="xtick_2">
     <g id="line2d_2">
      <g>
       <use xlink:href="#m37053def31" x="175.197896" y="421.486125" style="stroke: #000000; stroke-width: 0.8"/>
      </g>
     </g>
     <g id="text_2">
      <!-- 2017 -->
      <g transform="translate(162.472896 436.084563) scale(0.1 -0.1)">
       <defs>
        <path id="DejaVuSans-37" d="M 525 4666 
L 3525 4666 
L 3525 4397 
L 1831 0 
L 1172 0 
L 2766 4134 
L 525 4134 
L 525 4666 
z
" transform="scale(0.015625)"/>
       </defs>
       <use xlink:href="#DejaVuSans-32"/>
       <use xlink:href="#DejaVuSans-30" x="63.623047"/>
       <use xlink:href="#DejaVuSans-31" x="127.246094"/>
       <use xlink:href="#DejaVuSans-37" x="190.869141"/>
      </g>
     </g>
    </g>
    <g id="xtick_3">
     <g id="line2d_3">
      <g>
       <use xlink:href="#m37053def31" x="282.339767" y="421.486125" style="stroke: #000000; stroke-width: 0.8"/>
      </g>
     </g>
     <g id="text_3">
      <!-- 2018 -->
      <g transform="translate(269.614767 436.084563) scale(0.1 -0.1)">
       <defs>
        <path id="DejaVuSans-38" d="M 2034 2216 
Q 1584 2216 1326 1975 
Q 1069 1734 1069 1313 
Q 1069 891 1326 650 
Q 1584 409 2034 409 
Q 2484 409 2743 651 
Q 3003 894 3003 1313 
Q 3003 1734 2745 1975 
Q 2488 2216 2034 2216 
z
M 1403 2484 
Q 997 2584 770 2862 
Q 544 3141 544 3541 
Q 544 4100 942 4425 
Q 1341 4750 2034 4750 
Q 2731 4750 3128 4425 
Q 3525 4100 3525 3541 
Q 3525 3141 3298 2862 
Q 3072 2584 2669 2484 
Q 3125 2378 3379 2068 
Q 3634 1759 3634 1313 
Q 3634 634 3220 271 
Q 2806 -91 2034 -91 
Q 1263 -91 848 271 
Q 434 634 434 1313 
Q 434 1759 690 2068 
Q 947 2378 1403 2484 
z
M 1172 3481 
Q 1172 3119 1398 2916 
Q 1625 2713 2034 2713 
Q 2441 2713 2670 2916 
Q 2900 3119 2900 3481 
Q 2900 3844 2670 4047 
Q 2441 4250 2034 4250 
Q 1625 4250 1398 4047 
Q 1172 3844 1172 3481 
z
" transform="scale(0.015625)"/>
       </defs>
       <use xlink:href="#DejaVuSans-32"/>
       <use xlink:href="#DejaVuSans-30" x="63.623047"/>
       <use xlink:href="#DejaVuSans-31" x="127.246094"/>
       <use xlink:href="#DejaVuSans-38" x="190.869141"/>
      </g>
     </g>
    </g>
    <g id="xtick_4">
     <g id="line2d_4">
      <g>
       <use xlink:href="#m37053def31" x="389.481638" y="421.486125" style="stroke: #000000; stroke-width: 0.8"/>
      </g>
     </g>
     <g id="text_4">
      <!-- 2019 -->
      <g transform="translate(376.756638 436.084563) scale(0.1 -0.1)">
       <defs>
        <path id="DejaVuSans-39" d="M 703 97 
L 703 672 
Q 941 559 1184 500 
Q 1428 441 1663 441 
Q 2288 441 2617 861 
Q 2947 1281 2994 2138 
Q 2813 1869 2534 1725 
Q 2256 1581 1919 1581 
Q 1219 1581 811 2004 
Q 403 2428 403 3163 
Q 403 3881 828 4315 
Q 1253 4750 1959 4750 
Q 2769 4750 3195 4129 
Q 3622 3509 3622 2328 
Q 3622 1225 3098 567 
Q 2575 -91 1691 -91 
Q 1453 -91 1209 -44 
Q 966 3 703 97 
z
M 1959 2075 
Q 2384 2075 2632 2365 
Q 2881 2656 2881 3163 
Q 2881 3666 2632 3958 
Q 2384 4250 1959 4250 
Q 1534 4250 1286 3958 
Q 1038 3666 1038 3163 
Q 1038 2656 1286 2365 
Q 1534 2075 1959 2075 
z
" transform="scale(0.015625)"/>
       </defs>
       <use xlink:href="#DejaVuSans-32"/>
       <use xlink:href="#DejaVuSans-30" x="63.623047"/>
       <use xlink:href="#DejaVuSans-31" x="127.246094"/>
       <use xlink:href="#DejaVuSans-39" x="190.869141"/>
      </g>
     </g>
    </g>
    <g id="xtick_5">
     <g id="line2d_5">
      <g>
       <use xlink:href="#m37053def31" x="496.623508" y="421.486125" style="stroke: #000000; stroke-width: 0.8"/>
      </g>
     </g>
     <g id="text_5">
      <!-- 2020 -->
      <g transform="translate(483.898508 436.084563) scale(0.1 -0.1)">
       <use xlink:href="#DejaVuSans-32"/>
       <use xlink:href="#DejaVuSans-30" x="63.623047"/>
       <use xlink:href="#DejaVuSans-32" x="127.246094"/>
       <use xlink:href="#DejaVuSans-30" x="190.869141"/>
      </g>
     </g>
    </g>
    <g id="xtick_6">
     <g id="line2d_6">
      <g>
       <use xlink:href="#m37053def31" x="604.058919" y="421.486125" style="stroke: #000000; stroke-width: 0.8"/>
      </g>
     </g>
     <g id="text_6">
      <!-- 2021 -->
      <g transform="translate(591.333919 436.084563) scale(0.1 -0.1)">
       <use xlink:href="#DejaVuSans-32"/>
       <use xlink:href="#DejaVuSans-30" x="63.623047"/>
       <use xlink:href="#DejaVuSans-32" x="127.246094"/>
       <use xlink:href="#DejaVuSans-31" x="190.869141"/>
      </g>
     </g>
    </g>
    <g id="xtick_7">
     <g id="line2d_7">
      <g>
       <use xlink:href="#m37053def31" x="711.200789" y="421.486125" style="stroke: #000000; stroke-width: 0.8"/>
      </g>
     </g>
     <g id="text_7">
      <!-- 2022 -->
      <g transform="translate(698.475789 436.084563) scale(0.1 -0.1)">
       <use xlink:href="#DejaVuSans-32"/>
       <use xlink:href="#DejaVuSans-30" x="63.623047"/>
       <use xlink:href="#DejaVuSans-32" x="127.246094"/>
       <use xlink:href="#DejaVuSans-32" x="190.869141"/>
      </g>
     </g>
    </g>
    <g id="xtick_8">
     <g id="line2d_8">
      <g>
       <use xlink:href="#m37053def31" x="818.34266" y="421.486125" style="stroke: #000000; stroke-width: 0.8"/>
      </g>
     </g>
     <g id="text_8">
      <!-- 2023 -->
      <g transform="translate(805.61766 436.084563) scale(0.1 -0.1)">
       <defs>
        <path id="DejaVuSans-33" d="M 2597 2516 
Q 3050 2419 3304 2112 
Q 3559 1806 3559 1356 
Q 3559 666 3084 287 
Q 2609 -91 1734 -91 
Q 1441 -91 1130 -33 
Q 819 25 488 141 
L 488 750 
Q 750 597 1062 519 
Q 1375 441 1716 441 
Q 2309 441 2620 675 
Q 2931 909 2931 1356 
Q 2931 1769 2642 2001 
Q 2353 2234 1838 2234 
L 1294 2234 
L 1294 2753 
L 1863 2753 
Q 2328 2753 2575 2939 
Q 2822 3125 2822 3475 
Q 2822 3834 2567 4026 
Q 2313 4219 1838 4219 
Q 1578 4219 1281 4162 
Q 984 4106 628 3988 
L 628 4550 
Q 988 4650 1302 4700 
Q 1616 4750 1894 4750 
Q 2613 4750 3031 4423 
Q 3450 4097 3450 3541 
Q 3450 3153 3228 2886 
Q 3006 2619 2597 2516 
z
" transform="scale(0.015625)"/>
       </defs>
       <use xlink:href="#DejaVuSans-32"/>
       <use xlink:href="#DejaVuSans-30" x="63.623047"/>
       <use xlink:href="#DejaVuSans-32" x="127.246094"/>
       <use xlink:href="#DejaVuSans-33" x="190.869141"/>
      </g>
     </g>
    </g>
    <g id="xtick_9">
     <g id="line2d_9">
      <g>
       <use xlink:href="#m37053def31" x="925.484531" y="421.486125" style="stroke: #000000; stroke-width: 0.8"/>
      </g>
     </g>
     <g id="text_9">
      <!-- 2024 -->
      <g transform="translate(912.759531 436.084563) scale(0.1 -0.1)">
       <defs>
        <path id="DejaVuSans-34" d="M 2419 4116 
L 825 1625 
L 2419 1625 
L 2419 4116 
z
M 2253 4666 
L 3047 4666 
L 3047 1625 
L 3713 1625 
L 3713 1100 
L 3047 1100 
L 3047 0 
L 2419 0 
L 2419 1100 
L 313 1100 
L 313 1709 
L 2253 4666 
z
" transform="scale(0.015625)"/>
       </defs>
       <use xlink:href="#DejaVuSans-32"/>
       <use xlink:href="#DejaVuSans-30" x="63.623047"/>
       <use xlink:href="#DejaVuSans-32" x="127.246094"/>
       <use xlink:href="#DejaVuSans-34" x="190.869141"/>
      </g>
     </g>
    </g>
   </g>
   <g id="matplotlib.axis_2">
    <g id="ytick_1">
     <g id="line2d_10">
      <path d="M 45.967188 371.787342 
L 938.767187 371.787342 
" clip-path="url(#pe5261fae37)" style="fill: none; stroke: #b0b0b0; stroke-opacity: 0.3; stroke-width: 0.8; stroke-linecap: square"/>
     </g>
     <g id="line2d_11">
      <defs>
       <path id="ma79fbc2661" d="M 0 0 
L -3.5 0 
" style="stroke: #000000; stroke-width: 0.8"/>
      </defs>
      <g>
       <use xlink:href="#ma79fbc2661" x="45.967188" y="371.787342" style="stroke: #000000; stroke-width: 0.8"/>
      </g>
     </g>
     <g id="text_10">
      <!-- 60.0% -->
      <g transform="translate(7.2 375.586561) scale(0.1 -0.1)">
       <defs>
        <path id="DejaVuSans-2e" d="M 684 794 
L 1344 794 
L 1344 0 
L 684 0 
L 684 794 
z
" transform="scale(0.015625)"/>
        <path id="DejaVuSans-25" d="M 4653 2053 
Q 4381 2053 4226 1822 
Q 4072 1591 4072 1178 
Q 4072 772 4226 539 
Q 4381 306 4653 306 
Q 4919 306 5073 539 
Q 5228 772 5228 1178 
Q 5228 1588 5073 1820 
Q 4919 2053 4653 2053 
z
M 4653 2450 
Q 5147 2450 5437 2106 
Q 5728 1763 5728 1178 
Q 5728 594 5436 251 
Q 5144 -91 4653 -91 
Q 4153 -91 3862 251 
Q 3572 594 3572 1178 
Q 3572 1766 3864 2108 
Q 4156 2450 4653 2450 
z
M 1428 4353 
Q 1159 4353 1004 4120 
Q 850 3888 850 3481 
Q 850 3069 1003 2837 
Q 1156 2606 1428 2606 
Q 1700 2606 1854 2837 
Q 2009 3069 2009 3481 
Q 2009 3884 1853 4118 
Q 1697 4353 1428 4353 
z
M 4250 4750 
L 4750 4750 
L 1831 -91 
L 1331 -91 
L 4250 4750 
z
M 1428 4750 
Q 1922 4750 2215 4408 
Q 2509 4066 2509 3481 
Q 2509 2891 2217 2550 
Q 1925 2209 1428 2209 
Q 931 2209 642 2551 
Q 353 2894 353 3481 
Q 353 4063 643 4406 
Q 934 4750 1428 4750 
z
" transform="scale(0.015625)"/>
       </defs>
       <use xlink:href="#DejaVuSans-36"/>
       <use xlink:href="#DejaVuSans-30" x="63.623047"/>
       <use xlink:href="#DejaVuSans-2e" x="127.246094"/>
       <use xlink:href="#DejaVuSans-30" x="159.033203"/>
       <use xlink:href="#DejaVuSans-25" x="222.65625"/>
      </g>
     </g>
    </g>
    <g id="ytick_2">
     <g id="line2d_12">
      <path d="M 45.967188 300.071927 
L 938.767187 300.071927 
" clip-path="url(#pe5261fae37)" style="fill: none; stroke: #b0b0b0; stroke-opacity: 0.3; stroke-width: 0.8; stroke-linecap: square"/>
     </g>
     <g id="line2d_13">
      <g>
       <use xlink:href="#ma79fbc2661" x="45.967188" y="300.071927" style="stroke: #000000; stroke-width: 0.8"/>
      </g>
     </g>
     <g id="text_11">
      <!-- 65.0% -->
      <g transform="translate(7.2 303.871146) scale(0.1 -0.1)">
       <defs>
        <path id="DejaVuSans-35" d="M 691 4666 
L 3169 4666 
L 3169 4134 
L 1269 4134 
L 1269 2991 
Q 1406 3038 1543 3061 
Q 1681 3084 1819 3084 
Q 2600 3084 3056 2656 
Q 3513 2228 3513 1497 
Q 3513 744 3044 326 
Q 2575 -91 1722 -91 
Q 1428 -91 1123 -41 
Q 819 9 494 109 
L 494 744 
Q 775 591 1075 516 
Q 1375 441 1709 441 
Q 2250 441 2565 725 
Q 2881 1009 2881 1497 
Q 2881 1984 2565 2268 
Q 2250 2553 1709 2553 
Q 1456 2553 1204 2497 
Q 953 2441 691 2322 
L 691 4666 
z
" transform="scale(0.015625)"/>
       </defs>
       <use xlink:href="#DejaVuSans-36"/>
       <use xlink:href="#DejaVuSans-35" x="63.623047"/>
       <use xlink:href="#DejaVuSans-2e" x="127.246094"/>
       <use xlink:href="#DejaVuSans-30" x="159.033203"/>
       <use xlink:href="#DejaVuSans-25" x="222.65625"/>
      </g>
     </g>
    </g>
    <g id="ytick_3">
     <g id="line2d_14">
      <path d="M 45.967188 228.356512 
L 938.767187 228.356512 
" clip-path="url(#pe5261fae37)" style="fill: none; stroke: #b0b0b0; stroke-opacity: 0.3; stroke-width: 0.8; stroke-linecap: square"/>
     </g>
     <g id="line2d_15">
      <g>
       <use xlink:href="#ma79fbc2661" x="45.967188" y="228.356512" style="stroke: #000000; stroke-width: 0.8"/>
      </g>
     </g>
     <g id="text_12">
      <!-- 70.0% -->
      <g transform="translate(7.2 232.155731) scale(0.1 -0.1)">
       <use xlink:href="#DejaVuSans-37"/>
       <use xlink:href="#DejaVuSans-30" x="63.623047"/>
       <use xlink:href="#DejaVuSans-2e" x="127.246094"/>
       <use xlink:href="#DejaVuSans-30" x="159.033203"/>
       <use xlink:href="#DejaVuSans-25" x="222.65625"/>
      </g>
     </g>
    </g>
    <g id="ytick_4">
     <g id="line2d_16">
      <path d="M 45.967188 156.641097 
L 938.767187 156.641097 
" clip-path="url(#pe5261fae37)" style="fill: none; stroke: #b0b0b0; stroke-opacity: 0.3; stroke-width: 0.8; stroke-linecap: square"/>
     </g>
     <g id="line2d_17">
      <g>
       <use xlink:href="#ma79fbc2661" x="45.967188" y="156.641097" style="stroke: #000000; stroke-width: 0.8"/>
      </g>
     </g>
     <g id="text_13">
      <!-- 75.0% -->
      <g transform="translate(7.2 160.440316) scale(0.1 -0.1)">
       <use xlink:href="#DejaVuSans-37"/>
       <use xlink:href="#DejaVuSans-35" x="63.623047"/>
       <use xlink:href="#DejaVuSans-2e" x="127.246094"/>
       <use xlink:href="#DejaVuSans-30" x="159.033203"/>
       <use xlink:href="#DejaVuSans-25" x="222.65625"/>
      </g>
     </g>
    </g>
    <g id="ytick_5">
     <g id="line2d_18">
      <path d="M 45.967188 84.925682 
L 938.767187 84.925682 
" clip-path="url(#pe5261fae37)" style="fill: none; stroke: #b0b0b0; stroke-opacity: 0.3; stroke-width: 0.8; stroke-linecap: square"/>
     </g>
     <g id="line2d_19">
      <g>
       <use xlink:href="#ma79fbc2661" x="45.967188" y="84.925682" style="stroke: #000000; stroke-width: 0.8"/>
      </g>
     </g>
     <g id="text_14">
      <!-- 80.0% -->
      <g transform="translate(7.2 88.724901) scale(0.1 -0.1)">
       <use xlink:href="#DejaVuSans-38"/>
       <use xlink:href="#DejaVuSans-30" x="63.623047"/>
       <use xlink:href="#DejaVuSans-2e" x="127.246094"/>
       <use xlink:href="#DejaVuSans-30" x="159.033203"/>
       <use xlink:href="#DejaVuSans-25" x="222.65625"/>
      </g>
     </g>
    </g>
   </g>
   <g id="line2d_20">
    <path d="M 86.549006 421.486125 
L 86.549006 22.318125 
" clip-path="url(#pe5261fae37)" style="fill: none; stroke: #000000; stroke-linecap: square"/>
   </g>
   <g id="line2d_21">
    <path d="M 513.942331 421.486125 
L 513.942331 22.318125 
" clip-path="url(#pe5261fae37)" style="fill: none; stroke: #000000; stroke-linecap: square"/>
   </g>
   <g id="line2d_22">
    <path d="M 898.185369 421.486125 
L 898.185369 22.318125 
" clip-path="url(#pe5261fae37)" style="fill: none; stroke: #000000; stroke-linecap: square"/>
   </g>
   <g id="line2d_23">
    <path d="M 95.648726 86.747895 
L 101.813053 99.486046 
L 107.97738 111.700167 
L 113.848167 122.848454 
L 119.718955 133.52705 
L 125.589742 143.738904 
L 130.873451 152.533218 
L 131.16699 149.427215 
L 137.037778 158.814189 
L 142.615026 167.321337 
L 148.192274 175.431915 
L 151.127668 179.542443 
L 151.421207 176.436106 
L 156.998455 183.880237 
L 162.575703 190.949926 
L 167.859412 197.302859 
L 168.152951 201.256643 
L 173.43666 207.264946 
L 178.720368 212.932306 
L 184.004077 218.262167 
L 188.994247 222.988482 
L 193.984416 227.41837 
L 194.277955 227.66976 
L 194.571495 226.263195 
L 199.561664 230.398249 
L 204.551833 234.247591 
L 209.542003 237.81722 
L 214.532172 241.120634 
L 218.641723 243.660695 
L 218.935262 245.248125 
L 221.283577 246.582894 
L 221.577117 243.42161 
L 227.741444 246.798466 
L 230.089759 248.04707 
L 230.383298 250.263764 
L 232.731613 251.531834 
L 233.025152 248.851633 
L 235.373467 250.139963 
L 235.667007 252.254949 
L 238.015322 252.351241 
L 239.483019 252.216665 
L 239.776558 253.546587 
L 240.657176 253.289192 
L 241.537794 252.723164 
L 242.124873 252.137746 
L 242.418412 243.414101 
L 243.005491 241.389298 
L 243.29903 250.419766 
L 243.59257 249.871897 
L 243.886109 242.00884 
L 244.766727 240.279426 
L 245.060267 249.110442 
L 246.821503 247.147017 
L 247.115042 239.780517 
L 248.582739 238.131597 
L 248.876278 235.587366 
L 249.169818 239.930935 
L 250.931054 238.612202 
L 255.627684 235.178198 
L 255.921223 232.890799 
L 257.975999 231.818859 
L 258.563078 231.554178 
L 258.856617 235.4981 
L 267.075719 231.26345 
L 270.304653 229.878773 
L 271.47881 229.437795 
L 271.772349 232.554663 
L 277.936676 229.850082 
L 281.752688 228.413587 
L 284.981621 227.438156 
L 287.917015 226.780601 
L 292.320105 225.864109 
L 294.66842 225.041153 
L 296.429657 224.285286 
L 296.723196 223.656109 
L 299.36505 222.425753 
L 302.300444 220.833288 
L 302.593983 220.394735 
L 306.409995 217.995558 
L 309.05185 216.258718 
L 309.345389 216.388569 
L 310.226007 215.817356 
L 310.519547 216.176503 
L 316.977413 212.179229 
L 317.270952 211.746017 
L 320.793425 209.786726 
L 322.554661 208.898214 
L 322.8482 208.287125 
L 323.14174 208.613571 
L 326.664212 207.044499 
L 332.24146 204.881332 
L 336.93809 203.377631 
L 341.928259 202.023638 
L 347.211968 200.823169 
L 348.679665 200.526516 
L 348.973204 200.992276 
L 355.137531 200.055749 
L 358.953543 199.582579 
L 359.247082 198.777444 
L 366.292027 197.925555 
L 373.924051 197.235597 
L 381.849614 196.746177 
L 386.839783 196.548495 
L 387.133323 198.717743 
L 395.939504 198.877996 
L 402.103831 199.121443 
L 402.39737 196.432833 
L 411.203551 196.682243 
L 420.009732 197.151803 
L 428.815913 197.841622 
L 437.622095 198.756579 
L 446.134736 199.863379 
L 454.647378 201.198271 
L 462.866481 202.713259 
L 470.792044 204.393941 
L 478.717607 206.29941 
L 484.881934 207.941049 
L 484.881934 207.941049 
" clip-path="url(#pe5261fae37)" style="fill: none; stroke: #007c85; stroke-width: 2; stroke-linecap: square"/>
   </g>
   <g id="line2d_24">
    <path d="M 527.445142 84.351182 
L 531.848233 109.705806 
L 536.251324 133.765781 
L 538.599639 146.078069 
L 538.893178 153.263674 
L 543.002729 174.001327 
L 547.11228 193.591662 
L 551.221832 212.070662 
L 555.331383 229.47541 
L 559.147395 244.698069 
L 562.963406 259.022809 
L 566.779418 272.455414 
L 570.301891 284.066778 
L 573.824363 294.926112 
L 577.346836 305.048197 
L 577.640375 305.859204 
L 577.933914 301.796537 
L 581.749926 312.122908 
L 590.262568 334.599784 
L 590.556107 335.521509 
L 590.849647 333.495004 
L 591.436726 336.162159 
L 591.730265 337.800544 
L 592.023804 340.755642 
L 593.197962 346.084435 
L 593.785041 348.306874 
L 594.07858 348.545358 
L 594.372119 348.599071 
L 594.665659 345.582988 
L 594.959198 347.078188 
L 595.252737 345.795909 
L 595.546277 345.905042 
L 595.839816 346.345538 
L 597.013974 346.800986 
L 597.894592 347.184206 
L 598.188131 347.708317 
L 599.068749 348.001418 
L 599.362289 350.205106 
L 600.536446 350.29655 
L 600.829985 348.532351 
L 601.123525 348.615713 
L 601.417064 349.198943 
L 607.87493 350.338206 
L 610.810324 350.486591 
L 614.039257 350.403559 
L 616.094033 350.240962 
L 617.855269 349.356051 
L 620.497123 348.292229 
L 620.790663 348.321352 
L 621.377742 348.139031 
L 631.945159 345.918375 
L 633.119316 345.297183 
L 633.999934 344.709829 
L 637.815946 340.714595 
L 638.990104 339.582882 
L 641.044879 337.591253 
L 643.099655 335.29934 
L 645.154431 332.647082 
L 646.915667 330.021529 
L 648.676903 326.984019 
L 650.438139 323.447166 
L 652.786454 318.105229 
L 654.84123 313.645469 
L 656.896006 309.81734 
L 661.005557 302.884871 
L 665.995726 292.289238 
L 667.756962 288.086908 
L 670.692356 280.792959 
L 671.866513 278.462831 
L 673.040671 276.646293 
L 675.388986 273.09358 
L 676.563143 271.924324 
L 678.03084 270.87143 
L 678.911458 270.377099 
L 679.792077 270.121936 
L 680.085616 269.498004 
L 680.966234 269.587955 
L 682.140392 269.80001 
L 682.433931 269.776877 
L 682.72747 270.268506 
L 683.608088 270.374524 
L 684.488706 270.674273 
L 685.662864 271.31369 
L 686.543482 271.903441 
L 686.837021 271.852168 
L 687.130561 272.054597 
L 687.4241 272.461369 
L 692.12073 275.170013 
L 695.349663 277.759083 
L 697.991518 279.758002 
L 699.165675 280.371724 
L 700.046293 280.602349 
L 700.339833 280.633217 
L 700.633372 280.789173 
L 701.807529 282.158131 
L 702.394608 282.976048 
L 702.688148 283.563459 
L 702.981687 283.83531 
L 703.275226 284.261256 
L 703.862305 285.388932 
L 704.449384 286.180872 
L 704.742923 286.115567 
L 705.330002 286.569933 
L 706.504159 286.628507 
L 707.678317 286.489769 
L 708.852474 286.229379 
L 709.733092 286.876035 
L 710.613711 287.209496 
L 711.494329 287.276198 
L 712.668486 287.064055 
L 714.136183 286.51171 
L 714.723262 286.31196 
L 716.190959 286.082108 
L 717.365116 286.094592 
L 718.539274 286.354583 
L 718.832813 286.466873 
L 722.355285 284.730534 
L 722.648825 284.721547 
L 723.822982 285.325014 
L 724.116522 285.526647 
L 724.410061 286.059824 
L 725.584219 287.274371 
L 725.877758 287.078149 
L 727.345455 288.312689 
L 727.638994 288.310204 
L 728.813152 287.573607 
L 729.106691 287.920163 
L 731.161467 286.944525 
L 731.455006 286.073489 
L 732.042085 285.444766 
L 732.335624 284.958062 
L 732.629163 286.741312 
L 733.803321 287.177656 
L 734.977478 287.34198 
L 736.151636 287.253989 
L 736.445175 287.123739 
L 736.738715 286.588572 
L 737.032254 286.600339 
L 737.325793 281.200847 
L 737.619333 280.440862 
L 737.912872 280.008766 
L 738.79349 277.682887 
L 739.08703 277.100443 
L 739.380569 277.508414 
L 740.261187 276.838888 
L 740.848266 275.370485 
L 741.141805 272.063431 
L 741.435345 267.464497 
L 741.728884 265.66629 
L 742.315963 265.236244 
L 742.609502 267.202452 
L 742.903042 266.521411 
L 743.196581 265.045451 
L 744.077199 264.62839 
L 744.957817 264.728878 
L 745.838435 265.042827 
L 746.719053 265.632058 
L 747.306132 266.200907 
L 747.599671 268.063886 
L 748.48029 269.342875 
L 749.654447 269.154068 
L 749.947986 267.812943 
L 750.535065 267.952508 
L 750.828605 271.117467 
L 752.002762 271.43741 
L 753.17692 272.0451 
L 754.057538 272.698162 
L 755.818774 276.78238 
L 756.405853 278.012166 
L 756.699392 277.586157 
L 759.047707 282.447265 
L 760.221864 284.303291 
L 761.983101 287.339468 
L 763.450798 290.336222 
L 764.624955 292.876892 
L 766.092652 296.425806 
L 766.679731 298.924199 
L 766.97327 298.403894 
L 767.266809 299.112747 
L 767.853888 301.232214 
L 768.147428 311.019779 
L 769.615124 317.59355 
L 771.082821 322.833207 
L 771.376361 323.45912 
L 771.6699 324.367231 
L 772.550518 331.339861 
L 772.844057 340.159514 
L 773.137597 334.290156 
L 773.724676 336.705458 
L 774.018215 343.489281 
L 774.311754 344.283499 
L 774.605294 344.69146 
L 777.247148 351.161767 
L 778.127766 353.097649 
L 778.421306 353.212464 
L 779.595463 355.643708 
L 780.476081 357.217848 
L 780.769621 356.638796 
L 781.06316 358.158362 
L 782.530857 360.141848 
L 783.998554 361.767592 
L 786.053329 363.627007 
L 787.521026 364.641087 
L 788.695184 365.204961 
L 789.869341 365.265268 
L 790.45642 365.185106 
L 790.749959 361.673805 
L 791.924117 358.880136 
L 792.217656 364.839148 
L 792.511195 361.207734 
L 793.098274 359.706907 
L 794.272432 359.089179 
L 795.446589 358.191768 
L 796.620747 356.984484 
L 798.088443 355.109613 
L 798.381983 355.457528 
L 798.969062 355.188711 
L 799.84968 355.242129 
L 800.143219 355.437023 
L 800.436758 352.179993 
L 800.730298 355.696727 
L 801.023837 354.877198 
L 801.317377 354.502593 
L 801.610916 349.826071 
L 802.197995 348.462427 
L 802.491534 343.599319 
L 803.372152 340.218713 
L 803.665692 341.96089 
L 804.25277 336.502022 
L 804.54631 333.876278 
L 804.839849 327.853795 
L 805.133388 325.30213 
L 805.426928 326.513662 
L 806.014007 322.888844 
L 807.188164 318.272236 
L 809.536479 315.31986 
L 809.830018 316.44799 
L 812.178333 312.806359 
L 812.471873 312.330237 
L 815.113727 304.753862 
L 819.516818 294.709324 
L 819.810357 292.311051 
L 820.103896 292.392415 
L 821.571593 289.214818 
L 821.865133 288.635125 
L 822.158672 286.874722 
L 823.626369 284.091367 
L 823.919908 284.736613 
L 824.506987 284.100226 
L 825.387605 283.322969 
L 827.148841 281.30556 
L 828.322999 280.245986 
L 829.203617 279.673917 
L 830.084235 279.326368 
L 830.671314 279.21544 
L 833.019629 280.46348 
L 833.900247 280.819164 
L 835.074404 281.32679 
L 835.955022 281.952547 
L 837.12918 283.121098 
L 839.183956 285.252015 
L 840.358113 286.063415 
L 841.532271 286.831038 
L 841.82581 287.866299 
L 842.999967 288.836486 
L 843.880585 289.330314 
L 844.761204 289.616854 
L 845.935361 289.917061 
L 846.2289 290.106014 
L 846.52244 291.90145 
L 847.403058 292.594903 
L 847.696597 291.056854 
L 848.577215 291.884585 
L 848.870755 292.201464 
L 849.164294 290.645289 
L 850.338452 291.48277 
L 850.631991 296.591019 
L 851.806149 297.746557 
L 852.980306 298.521289 
L 854.154464 298.990453 
L 854.741542 299.137297 
L 855.035082 295.357138 
L 856.502778 295.187679 
L 858.557554 294.691143 
L 861.492948 293.761897 
L 861.786487 303.450833 
L 865.896038 303.255817 
L 867.950814 303.257123 
L 868.244353 280.960714 
L 878.811771 272.759577 
L 881.160086 270.516529 
L 883.214861 268.272737 
L 885.269637 265.71309 
L 887.324413 262.803301 
L 889.379188 259.517132 
L 891.433964 255.834042 
L 893.782279 251.124653 
L 896.130594 245.902402 
L 896.130594 245.902402 
" clip-path="url(#pe5261fae37)" style="fill: none; stroke: #007c85; stroke-width: 2; stroke-linecap: square"/>
   </g>
   <g id="line2d_25">
    <path d="M 88.897321 176.220335 
L 99.758277 184.141697 
L 111.793392 192.636811 
L 116.490022 195.875193 
L 116.783561 196.379437 
L 124.415585 201.587962 
L 124.709124 202.075514 
L 134.395923 208.499072 
L 143.202104 214.070901 
L 151.127668 218.827804 
L 158.759691 223.14817 
L 165.804636 226.887812 
L 166.978794 227.486786 
L 167.272333 227.490797 
L 174.317278 230.934207 
L 181.362223 234.130336 
L 182.53638 234.63946 
L 182.82992 234.128388 
L 185.765313 235.405016 
L 186.058853 236.127746 
L 193.397337 239.050815 
L 201.909979 242.19109 
L 216.586947 247.535081 
L 221.577117 249.707019 
L 223.925432 250.890594 
L 224.512511 251.320255 
L 224.80605 251.350614 
L 230.089759 254.017711 
L 232.731613 255.12964 
L 235.373467 255.99564 
L 239.483019 257.014426 
L 240.950715 257.406721 
L 241.537794 257.685732 
L 243.005491 258.003271 
L 246.234424 258.49846 
L 249.756897 258.825632 
L 250.050436 258.540614 
L 250.343975 258.593373 
L 250.637515 258.995726 
L 251.518133 259.166175 
L 251.811672 258.943735 
L 252.105212 258.996404 
L 252.398751 258.928858 
L 252.69229 258.979447 
L 252.98583 259.444831 
L 255.334145 259.782682 
L 260.030775 259.704131 
L 261.792011 259.731567 
L 265.020944 259.914671 
L 279.697912 258.622415 
L 283.220385 258.111831 
L 286.155779 257.424972 
L 290.852409 256.208495 
L 294.96196 255.583854 
L 296.723196 255.272087 
L 299.071511 254.128439 
L 302.300444 253.634664 
L 306.997074 250.399339 
L 309.05185 249.0044 
L 311.693704 248.093921 
L 313.74848 247.175673 
L 315.803255 246.024551 
L 317.270952 245.06395 
L 317.564491 244.725948 
L 317.858031 245.483782 
L 318.738649 244.599313 
L 319.032188 243.715999 
L 321.674043 241.666347 
L 322.261121 240.919256 
L 322.8482 240.046297 
L 323.14174 237.839159 
L 323.435279 240.882761 
L 323.728818 239.717657 
L 324.902976 237.582934 
L 325.196515 234.836254 
L 325.490055 234.047631 
L 325.783594 232.328666 
L 326.370673 231.494494 
L 331.947921 225.727676 
L 334.002696 223.650867 
L 335.176854 222.157472 
L 335.470393 221.829151 
L 335.763933 220.899553 
L 337.231629 219.415265 
L 337.525169 219.153959 
L 337.818708 218.360273 
L 338.405787 217.877008 
L 338.992866 218.571932 
L 339.286405 216.697746 
L 339.579944 216.862194 
L 342.515338 214.182811 
L 342.808877 214.488371 
L 345.744271 211.803534 
L 346.037811 212.270886 
L 346.33135 211.252016 
L 348.092586 209.718367 
L 349.266744 208.803067 
L 349.560283 209.221638 
L 351.908598 206.809807 
L 352.202137 205.767821 
L 354.843992 202.65755 
L 356.018149 201.145998 
L 356.311689 200.137088 
L 357.485846 199.108902 
L 357.779385 199.496574 
L 360.714779 196.644709 
L 361.301858 195.901198 
L 361.595397 196.248382 
L 363.356633 193.409462 
L 363.650173 192.901266 
L 363.943712 191.348688 
L 364.237252 190.772186 
L 364.530791 191.325748 
L 365.411409 189.698205 
L 365.704948 186.576631 
L 365.998488 188.598155 
L 368.346803 184.450138 
L 369.8145 182.237823 
L 370.401578 181.571821 
L 370.695118 183.945885 
L 374.21759 180.513161 
L 375.391748 179.318438 
L 378.327141 175.500412 
L 379.20776 174.696735 
L 379.501299 170.503499 
L 379.794838 170.063096 
L 380.088378 160.840896 
L 382.143153 157.889132 
L 382.436693 159.056632 
L 384.491468 156.20236 
L 385.665626 155.230997 
L 385.959165 167.362868 
L 388.013941 166.002757 
L 392.123492 161.598329 
L 394.471807 159.372033 
L 395.645964 158.376759 
L 395.939504 144.083928 
L 398.581358 141.339664 
L 399.168437 141.106917 
L 400.342594 141.005378 
L 401.223212 141.088719 
L 402.103831 141.37585 
L 402.39737 139.383177 
L 402.984449 139.517455 
L 403.277988 151.756518 
L 403.571527 139.749195 
L 404.452146 140.366987 
L 404.745685 143.995346 
L 405.039224 144.474579 
L 405.332764 139.079617 
L 405.626303 139.343316 
L 405.919842 150.309263 
L 406.213382 142.943582 
L 406.800461 144.203927 
L 407.094 139.238675 
L 407.387539 142.343276 
L 407.681079 143.082729 
L 407.974618 153.387514 
L 409.148776 154.8336 
L 409.442315 158.192185 
L 410.910012 159.125873 
L 412.377709 159.819256 
L 414.138945 160.393717 
L 415.900181 160.745385 
L 417.954957 160.939065 
L 418.248496 160.951051 
L 418.542035 162.962224 
L 421.477429 162.656829 
L 424.999902 162.071057 
L 426.761138 161.712022 
L 427.054677 159.182797 
L 429.402992 158.789292 
L 429.696532 159.625864 
L 434.393162 158.503462 
L 440.263949 156.863144 
L 447.895973 154.479907 
L 454.647378 152.201721 
L 454.940918 151.55252 
L 456.995693 150.854197 
L 457.289233 150.458075 
L 457.582772 150.652581 
L 466.095414 147.614996 
L 466.388953 147.887691 
L 473.433898 145.030767 
L 474.020977 144.780968 
L 474.314516 144.420905 
L 474.901595 144.179653 
L 475.195134 144.601065 
L 481.065922 141.703389 
L 486.34963 138.859819 
L 491.3398 135.936686 
L 496.329969 132.753387 
L 501.026599 129.494836 
L 505.723229 125.959726 
L 508.071544 124.082408 
L 508.071544 124.082408 
" clip-path="url(#pe5261fae37)" style="fill: none; stroke: #ffda00; stroke-width: 2; stroke-linecap: square"/>
   </g>
   <g id="line2d_26">
    <path d="M 528.032221 202.001641 
L 536.251324 207.349766 
L 544.763965 212.626282 
L 554.157225 218.184693 
L 564.137564 223.825641 
L 574.411442 229.370794 
L 584.098241 234.345286 
L 592.904422 238.618341 
L 600.829985 242.21933 
L 607.581391 245.054469 
L 613.452178 247.284695 
L 614.626336 247.697552 
L 614.919875 249.083065 
L 620.203584 250.911607 
L 625.193753 252.404348 
L 631.35808 253.98795 
L 635.174092 255.040787 
L 635.761171 255.23597 
L 636.05471 252.521472 
L 637.815946 252.997495 
L 639.283643 253.586475 
L 639.870722 253.886666 
L 640.164261 251.400125 
L 641.338419 252.065839 
L 642.512576 252.946251 
L 643.099655 253.465583 
L 643.393194 251.48284 
L 644.860891 252.986218 
L 645.154431 258.474263 
L 647.796285 260.645232 
L 651.025218 263.10289 
L 651.318757 260.995759 
L 655.134769 264.009542 
L 658.363702 266.263726 
L 659.53786 267.137549 
L 661.592635 268.662138 
L 661.886175 270.434878 
L 663.353872 271.318095 
L 665.995726 272.379943 
L 668.63758 273.196485 
L 669.518199 273.488173 
L 672.453592 274.788754 
L 672.747132 276.450791 
L 673.040671 273.982866 
L 674.508368 274.532071 
L 677.443762 275.123377 
L 677.737301 275.96252 
L 678.617919 276.128114 
L 678.911458 275.4865 
L 682.433931 276.491837 
L 683.608088 276.777193 
L 683.901628 278.592481 
L 688.598258 279.526243 
L 691.240112 279.380039 
L 697.110899 280.334055 
L 699.752754 279.563683 
L 702.394608 278.537409 
L 702.688148 277.657026 
L 704.449384 277.119066 
L 707.678317 277.021006 
L 708.558935 276.821379 
L 708.852474 276.611262 
L 709.146014 276.626405 
L 710.320171 276.188779 
L 710.90725 275.839028 
L 711.200789 275.392069 
L 711.787868 274.927373 
L 712.081407 275.230767 
L 712.374947 275.051635 
L 712.668486 274.067264 
L 712.962026 273.882851 
L 713.255565 274.598815 
L 713.549104 274.412325 
L 713.842644 274.042048 
L 714.136183 274.11365 
L 714.429722 273.788443 
L 714.723262 273.252611 
L 715.016801 272.478551 
L 716.484498 271.465258 
L 716.778037 271.665126 
L 718.539274 270.184824 
L 718.832813 269.13533 
L 719.419892 268.702693 
L 720.594049 268.125258 
L 720.887589 267.404709 
L 721.181128 268.724346 
L 724.99714 266.970221 
L 725.584219 266.598016 
L 725.877758 265.467523 
L 727.932534 264.500677 
L 728.226073 264.663648 
L 729.69377 264.009306 
L 729.987309 263.72424 
L 730.280849 263.631713 
L 730.574388 263.710577 
L 732.922703 262.974814 
L 733.216242 263.266093 
L 735.271018 262.499585 
L 738.499951 260.747834 
L 739.674108 260.056381 
L 739.967648 259.611603 
L 740.261187 259.780278 
L 744.664278 258.267699 
L 744.957817 258.084302 
L 745.251356 257.66511 
L 745.838435 257.26915 
L 746.131975 257.346762 
L 746.425514 256.872817 
L 747.012593 256.567114 
L 748.18675 255.843006 
L 748.48029 255.941085 
L 750.241526 255.047549 
L 752.88338 254.615348 
L 754.351077 254.497337 
L 754.644616 254.204977 
L 756.405853 253.678712 
L 757.873549 253.455824 
L 759.341246 253.44428 
L 761.396022 253.695271 
L 761.689561 253.936979 
L 761.983101 253.795625 
L 763.450798 254.185676 
L 763.744337 254.558212 
L 765.212034 255.172376 
L 765.505573 254.850931 
L 765.799113 254.968792 
L 766.092652 255.628604 
L 767.266809 256.287641 
L 767.560349 255.78676 
L 769.321585 256.910058 
L 771.082821 258.149216 
L 771.376361 257.071858 
L 774.018215 258.086084 
L 774.311754 261.604953 
L 774.898833 262.002844 
L 775.192372 260.38794 
L 776.953609 261.268399 
L 777.247148 263.506598 
L 777.540687 261.544151 
L 779.889002 262.550094 
L 780.182542 260.056846 
L 783.411475 260.70427 
L 784.292093 260.958425 
L 785.75979 261.99289 
L 786.640408 262.404398 
L 789.282262 263.231407 
L 789.575802 263.334789 
L 789.869341 268.200745 
L 793.391814 270.306174 
L 793.685353 275.730403 
L 793.978892 275.971089 
L 794.272432 280.238636 
L 795.15305 280.707703 
L 795.446589 284.35199 
L 797.207825 284.563711 
L 797.501365 284.580503 
L 797.794904 285.13921 
L 798.088443 285.13466 
L 798.381983 283.5817 
L 798.969062 283.606405 
L 799.262601 284.583202 
L 801.317377 284.394242 
L 802.491534 284.202518 
L 802.785073 283.326782 
L 805.133388 282.83144 
L 807.775243 282.03361 
L 810.710636 280.891296 
L 813.64603 279.512498 
L 816.874963 277.748295 
L 820.397436 275.549709 
L 823.919908 273.080065 
L 827.442381 270.34811 
L 831.258392 267.098271 
L 835.074404 263.551026 
L 838.890416 259.709102 
L 842.999967 255.243108 
L 847.109519 250.434657 
L 851.21907 245.280649 
L 855.328621 239.778092 
L 859.731712 233.492147 
L 864.134802 226.799462 
L 868.537893 219.698337 
L 872.940983 212.188126 
L 877.637613 203.727239 
L 882.334243 194.803491 
L 887.030873 185.417868 
L 893.782279 171.344129 
L 896.424133 165.515169 
L 896.424133 165.515169 
" clip-path="url(#pe5261fae37)" style="fill: none; stroke: #ffda00; stroke-width: 2; stroke-linecap: square"/>
   </g>
   <g id="patch_3">
    <path d="M 45.967188 421.486125 
L 45.967188 22.318125 
" style="fill: none; stroke: #000000; stroke-width: 0.8; stroke-linejoin: miter; stroke-linecap: square"/>
   </g>
   <g id="patch_4">
    <path d="M 938.767187 421.486125 
L 938.767187 22.318125 
" style="fill: none; stroke: #000000; stroke-width: 0.8; stroke-linejoin: miter; stroke-linecap: square"/>
   </g>
   <g id="patch_5">
    <path d="M 45.967188 421.486125 
L 938.767187 421.486125 
" style="fill: none; stroke: #000000; stroke-width: 0.8; stroke-linejoin: miter; stroke-linecap: square"/>
   </g>
   <g id="patch_6">
    <path d="M 45.967188 22.318125 
L 938.767187 22.318125 
" style="fill: none; stroke: #000000; stroke-width: 0.8; stroke-linejoin: miter; stroke-linecap: square"/>
   </g>
   <g id="text_15">
    <!-- Participation Rate -->
    <g transform="translate(439.250313 16.318125) scale(0.12 -0.12)">
     <defs>
      <path id="DejaVuSans-50" d="M 1259 4147 
L 1259 2394 
L 2053 2394 
Q 2494 2394 2734 2622 
Q 2975 2850 2975 3272 
Q 2975 3691 2734 3919 
Q 2494 4147 2053 4147 
L 1259 4147 
z
M 628 4666 
L 2053 4666 
Q 2838 4666 3239 4311 
Q 3641 3956 3641 3272 
Q 3641 2581 3239 2228 
Q 2838 1875 2053 1875 
L 1259 1875 
L 1259 0 
L 628 0 
L 628 4666 
z
" transform="scale(0.015625)"/>
      <path id="DejaVuSans-61" d="M 2194 1759 
Q 1497 1759 1228 1600 
Q 959 1441 959 1056 
Q 959 750 1161 570 
Q 1363 391 1709 391 
Q 2188 391 2477 730 
Q 2766 1069 2766 1631 
L 2766 1759 
L 2194 1759 
z
M 3341 1997 
L 3341 0 
L 2766 0 
L 2766 531 
Q 2569 213 2275 61 
Q 1981 -91 1556 -91 
Q 1019 -91 701 211 
Q 384 513 384 1019 
Q 384 1609 779 1909 
Q 1175 2209 1959 2209 
L 2766 2209 
L 2766 2266 
Q 2766 2663 2505 2880 
Q 2244 3097 1772 3097 
Q 1472 3097 1187 3025 
Q 903 2953 641 2809 
L 641 3341 
Q 956 3463 1253 3523 
Q 1550 3584 1831 3584 
Q 2591 3584 2966 3190 
Q 3341 2797 3341 1997 
z
" transform="scale(0.015625)"/>
      <path id="DejaVuSans-72" d="M 2631 2963 
Q 2534 3019 2420 3045 
Q 2306 3072 2169 3072 
Q 1681 3072 1420 2755 
Q 1159 2438 1159 1844 
L 1159 0 
L 581 0 
L 581 3500 
L 1159 3500 
L 1159 2956 
Q 1341 3275 1631 3429 
Q 1922 3584 2338 3584 
Q 2397 3584 2469 3576 
Q 2541 3569 2628 3553 
L 2631 2963 
z
" transform="scale(0.015625)"/>
      <path id="DejaVuSans-74" d="M 1172 4494 
L 1172 3500 
L 2356 3500 
L 2356 3053 
L 1172 3053 
L 1172 1153 
Q 1172 725 1289 603 
Q 1406 481 1766 481 
L 2356 481 
L 2356 0 
L 1766 0 
Q 1100 0 847 248 
Q 594 497 594 1153 
L 594 3053 
L 172 3053 
L 172 3500 
L 594 3500 
L 594 4494 
L 1172 4494 
z
" transform="scale(0.015625)"/>
      <path id="DejaVuSans-69" d="M 603 3500 
L 1178 3500 
L 1178 0 
L 603 0 
L 603 3500 
z
M 603 4863 
L 1178 4863 
L 1178 4134 
L 603 4134 
L 603 4863 
z
" transform="scale(0.015625)"/>
      <path id="DejaVuSans-63" d="M 3122 3366 
L 3122 2828 
Q 2878 2963 2633 3030 
Q 2388 3097 2138 3097 
Q 1578 3097 1268 2742 
Q 959 2388 959 1747 
Q 959 1106 1268 751 
Q 1578 397 2138 397 
Q 2388 397 2633 464 
Q 2878 531 3122 666 
L 3122 134 
Q 2881 22 2623 -34 
Q 2366 -91 2075 -91 
Q 1284 -91 818 406 
Q 353 903 353 1747 
Q 353 2603 823 3093 
Q 1294 3584 2113 3584 
Q 2378 3584 2631 3529 
Q 2884 3475 3122 3366 
z
" transform="scale(0.015625)"/>
      <path id="DejaVuSans-70" d="M 1159 525 
L 1159 -1331 
L 581 -1331 
L 581 3500 
L 1159 3500 
L 1159 2969 
Q 1341 3281 1617 3432 
Q 1894 3584 2278 3584 
Q 2916 3584 3314 3078 
Q 3713 2572 3713 1747 
Q 3713 922 3314 415 
Q 2916 -91 2278 -91 
Q 1894 -91 1617 61 
Q 1341 213 1159 525 
z
M 3116 1747 
Q 3116 2381 2855 2742 
Q 2594 3103 2138 3103 
Q 1681 3103 1420 2742 
Q 1159 2381 1159 1747 
Q 1159 1113 1420 752 
Q 1681 391 2138 391 
Q 2594 391 2855 752 
Q 3116 1113 3116 1747 
z
" transform="scale(0.015625)"/>
      <path id="DejaVuSans-6f" d="M 1959 3097 
Q 1497 3097 1228 2736 
Q 959 2375 959 1747 
Q 959 1119 1226 758 
Q 1494 397 1959 397 
Q 2419 397 2687 759 
Q 2956 1122 2956 1747 
Q 2956 2369 2687 2733 
Q 2419 3097 1959 3097 
z
M 1959 3584 
Q 2709 3584 3137 3096 
Q 3566 2609 3566 1747 
Q 3566 888 3137 398 
Q 2709 -91 1959 -91 
Q 1206 -91 779 398 
Q 353 888 353 1747 
Q 353 2609 779 3096 
Q 1206 3584 1959 3584 
z
" transform="scale(0.015625)"/>
      <path id="DejaVuSans-6e" d="M 3513 2113 
L 3513 0 
L 2938 0 
L 2938 2094 
Q 2938 2591 2744 2837 
Q 2550 3084 2163 3084 
Q 1697 3084 1428 2787 
Q 1159 2491 1159 1978 
L 1159 0 
L 581 0 
L 581 3500 
L 1159 3500 
L 1159 2956 
Q 1366 3272 1645 3428 
Q 1925 3584 2291 3584 
Q 2894 3584 3203 3211 
Q 3513 2838 3513 2113 
z
" transform="scale(0.015625)"/>
      <path id="DejaVuSans-20" transform="scale(0.015625)"/>
      <path id="DejaVuSans-52" d="M 2841 2188 
Q 3044 2119 3236 1894 
Q 3428 1669 3622 1275 
L 4263 0 
L 3584 0 
L 2988 1197 
Q 2756 1666 2539 1819 
Q 2322 1972 1947 1972 
L 1259 1972 
L 1259 0 
L 628 0 
L 628 4666 
L 2053 4666 
Q 2853 4666 3247 4331 
Q 3641 3997 3641 3322 
Q 3641 2881 3436 2590 
Q 3231 2300 2841 2188 
z
M 1259 4147 
L 1259 2491 
L 2053 2491 
Q 2509 2491 2742 2702 
Q 2975 2913 2975 3322 
Q 2975 3731 2742 3939 
Q 2509 4147 2053 4147 
L 1259 4147 
z
" transform="scale(0.015625)"/>
      <path id="DejaVuSans-65" d="M 3597 1894 
L 3597 1613 
L 953 1613 
Q 991 1019 1311 708 
Q 1631 397 2203 397 
Q 2534 397 2845 478 
Q 3156 559 3463 722 
L 3463 178 
Q 3153 47 2828 -22 
Q 2503 -91 2169 -91 
Q 1331 -91 842 396 
Q 353 884 353 1716 
Q 353 2575 817 3079 
Q 1281 3584 2069 3584 
Q 2775 3584 3186 3129 
Q 3597 2675 3597 1894 
z
M 3022 2063 
Q 3016 2534 2758 2815 
Q 2500 3097 2075 3097 
Q 1594 3097 1305 2825 
Q 1016 2553 972 2059 
L 3022 2063 
z
" transform="scale(0.015625)"/>
     </defs>
     <use xlink:href="#DejaVuSans-50"/>
     <use xlink:href="#DejaVuSans-61" x="55.802734"/>
     <use xlink:href="#DejaVuSans-72" x="117.082031"/>
     <use xlink:href="#DejaVuSans-74" x="158.195312"/>
     <use xlink:href="#DejaVuSans-69" x="197.404297"/>
     <use xlink:href="#DejaVuSans-63" x="225.1875"/>
     <use xlink:href="#DejaVuSans-69" x="280.167969"/>
     <use xlink:href="#DejaVuSans-70" x="307.951172"/>
     <use xlink:href="#DejaVuSans-61" x="371.427734"/>
     <use xlink:href="#DejaVuSans-74" x="432.707031"/>
     <use xlink:href="#DejaVuSans-69" x="471.916016"/>
     <use xlink:href="#DejaVuSans-6f" x="499.699219"/>
     <use xlink:href="#DejaVuSans-6e" x="560.880859"/>
     <use xlink:href="#DejaVuSans-20" x="624.259766"/>
     <use xlink:href="#DejaVuSans-52" x="656.046875"/>
     <use xlink:href="#DejaVuSans-61" x="723.279297"/>
     <use xlink:href="#DejaVuSans-74" x="784.558594"/>
     <use xlink:href="#DejaVuSans-65" x="823.767578"/>
    </g>
   </g>
  </g>
  <g id="legend_1">
   <g id="line2d_27">
    <path d="M 412.470313 451.8495 
L 422.470313 451.8495 
L 432.470313 451.8495 
" style="fill: none; stroke: #007c85; stroke-width: 2; stroke-linecap: square"/>
   </g>
   <g id="text_16">
    <!-- AKO -->
    <g transform="translate(440.470313 455.3495) scale(0.1 -0.1)">
     <defs>
      <path id="DejaVuSans-41" d="M 2188 4044 
L 1331 1722 
L 3047 1722 
L 2188 4044 
z
M 1831 4666 
L 2547 4666 
L 4325 0 
L 3669 0 
L 3244 1197 
L 1141 1197 
L 716 0 
L 50 0 
L 1831 4666 
z
" transform="scale(0.015625)"/>
      <path id="DejaVuSans-4b" d="M 628 4666 
L 1259 4666 
L 1259 2694 
L 3353 4666 
L 4166 4666 
L 1850 2491 
L 4331 0 
L 3500 0 
L 1259 2247 
L 1259 0 
L 628 0 
L 628 4666 
z
" transform="scale(0.015625)"/>
      <path id="DejaVuSans-4f" d="M 2522 4238 
Q 1834 4238 1429 3725 
Q 1025 3213 1025 2328 
Q 1025 1447 1429 934 
Q 1834 422 2522 422 
Q 3209 422 3611 934 
Q 4013 1447 4013 2328 
Q 4013 3213 3611 3725 
Q 3209 4238 2522 4238 
z
M 2522 4750 
Q 3503 4750 4090 4092 
Q 4678 3434 4678 2328 
Q 4678 1225 4090 567 
Q 3503 -91 2522 -91 
Q 1538 -91 948 565 
Q 359 1222 359 2328 
Q 359 3434 948 4092 
Q 1538 4750 2522 4750 
z
" transform="scale(0.015625)"/>
     </defs>
     <use xlink:href="#DejaVuSans-41"/>
     <use xlink:href="#DejaVuSans-4b" x="68.408203"/>
     <use xlink:href="#DejaVuSans-4f" x="128.484375"/>
    </g>
   </g>
   <g id="line2d_28">
    <path d="M 481.190625 451.8495 
L 491.190625 451.8495 
L 501.190625 451.8495 
" style="fill: none; stroke: #ffda00; stroke-width: 2; stroke-linecap: square"/>
   </g>
   <g id="text_17">
    <!-- FOCUS -->
    <g transform="translate(509.190625 455.3495) scale(0.1 -0.1)">
     <defs>
      <path id="DejaVuSans-46" d="M 628 4666 
L 3309 4666 
L 3309 4134 
L 1259 4134 
L 1259 2759 
L 3109 2759 
L 3109 2228 
L 1259 2228 
L 1259 0 
L 628 0 
L 628 4666 
z
" transform="scale(0.015625)"/>
      <path id="DejaVuSans-43" d="M 4122 4306 
L 4122 3641 
Q 3803 3938 3442 4084 
Q 3081 4231 2675 4231 
Q 1875 4231 1450 3742 
Q 1025 3253 1025 2328 
Q 1025 1406 1450 917 
Q 1875 428 2675 428 
Q 3081 428 3442 575 
Q 3803 722 4122 1019 
L 4122 359 
Q 3791 134 3420 21 
Q 3050 -91 2638 -91 
Q 1578 -91 968 557 
Q 359 1206 359 2328 
Q 359 3453 968 4101 
Q 1578 4750 2638 4750 
Q 3056 4750 3426 4639 
Q 3797 4528 4122 4306 
z
" transform="scale(0.015625)"/>
      <path id="DejaVuSans-55" d="M 556 4666 
L 1191 4666 
L 1191 1831 
Q 1191 1081 1462 751 
Q 1734 422 2344 422 
Q 2950 422 3222 751 
Q 3494 1081 3494 1831 
L 3494 4666 
L 4128 4666 
L 4128 1753 
Q 4128 841 3676 375 
Q 3225 -91 2344 -91 
Q 1459 -91 1007 375 
Q 556 841 556 1753 
L 556 4666 
z
" transform="scale(0.015625)"/>
      <path id="DejaVuSans-53" d="M 3425 4513 
L 3425 3897 
Q 3066 4069 2747 4153 
Q 2428 4238 2131 4238 
Q 1616 4238 1336 4038 
Q 1056 3838 1056 3469 
Q 1056 3159 1242 3001 
Q 1428 2844 1947 2747 
L 2328 2669 
Q 3034 2534 3370 2195 
Q 3706 1856 3706 1288 
Q 3706 609 3251 259 
Q 2797 -91 1919 -91 
Q 1588 -91 1214 -16 
Q 841 59 441 206 
L 441 856 
Q 825 641 1194 531 
Q 1563 422 1919 422 
Q 2459 422 2753 634 
Q 3047 847 3047 1241 
Q 3047 1584 2836 1778 
Q 2625 1972 2144 2069 
L 1759 2144 
Q 1053 2284 737 2584 
Q 422 2884 422 3419 
Q 422 4038 858 4394 
Q 1294 4750 2059 4750 
Q 2388 4750 2728 4690 
Q 3069 4631 3425 4513 
z
" transform="scale(0.015625)"/>
     </defs>
     <use xlink:href="#DejaVuSans-46"/>
     <use xlink:href="#DejaVuSans-4f" x="57.519531"/>
     <use xlink:href="#DejaVuSans-43" x="136.230469"/>
     <use xlink:href="#DejaVuSans-55" x="206.054688"/>
     <use xlink:href="#DejaVuSans-53" x="279.248047"/>
    </g>
   </g>
  </g>
 </g>
 <defs>
  <clipPath id="pe5261fae37">
   <rect x="45.967188" y="22.318125" width="892.8" height="399.168"/>
  </clipPath>
 </defs>
</svg>
