<?xml version="1.0" encoding="utf-8" standalone="no"?>
<!DOCTYPE svg PUBLIC "-//W3C//DTD SVG 1.1//EN"
  "http://www.w3.org/Graphics/SVG/1.1/DTD/svg11.dtd">
<svg xmlns:xlink="http://www.w3.org/1999/xlink" width="936.426562pt" height="510.720781pt" viewBox="0 0 936.426562 510.720781" xmlns="http://www.w3.org/2000/svg" version="1.1">
 <metadata>
  <rdf:RDF xmlns:dc="http://purl.org/dc/elements/1.1/" xmlns:cc="http://creativecommons.org/ns#" xmlns:rdf="http://www.w3.org/1999/02/22-rdf-syntax-ns#">
   <cc:Work>
    <dc:type rdf:resource="http://purl.org/dc/dcmitype/StillImage"/>
    <dc:date>2024-04-07T11:13:23.869782</dc:date>
    <dc:format>image/svg+xml</dc:format>
    <dc:creator>
     <cc:Agent>
      <dc:title>Matplotlib v3.7.1, https://matplotlib.org/</dc:title>
     </cc:Agent>
    </dc:creator>
   </cc:Work>
  </rdf:RDF>
 </metadata>
 <defs>
  <style type="text/css">*{stroke-linejoin: round; stroke-linecap: butt}</style>
 </defs>
 <g id="figure_1">
  <g id="patch_1">
   <path d="M 0 510.720781 
L 936.426562 510.720781 
L 936.426562 0 
L 0 0 
z
" style="fill: #ffffff"/>
  </g>
  <g id="axes_1">
   <g id="patch_2">
    <path d="M 36.426563 442.656 
L 461.56942 442.656 
L 461.56942 43.488 
L 36.426563 43.488 
z
" style="fill: #ffffff"/>
   </g>
   <g id="matplotlib.axis_1">
    <g id="xtick_1">
     <g id="line2d_1">
      <defs>
       <path id="m32cc954b03" d="M 0 0 
L 0 3.5 
" style="stroke: #000000; stroke-width: 0.8"/>
      </defs>
      <g>
       <use xlink:href="#m32cc954b03" x="36.426562" y="442.656" style="stroke: #000000; stroke-width: 0.8"/>
      </g>
     </g>
     <g id="text_1">
      <!-- 10 -->
      <g transform="translate(30.064062 457.254437) scale(0.1 -0.1)">
       <defs>
        <path id="DejaVuSans-31" d="M 794 531 
L 1825 531 
L 1825 4091 
L 703 3866 
L 703 4441 
L 1819 4666 
L 2450 4666 
L 2450 531 
L 3481 531 
L 3481 0 
L 794 0 
L 794 531 
z
" transform="scale(0.015625)"/>
        <path id="DejaVuSans-30" d="M 2034 4250 
Q 1547 4250 1301 3770 
Q 1056 3291 1056 2328 
Q 1056 1369 1301 889 
Q 1547 409 2034 409 
Q 2525 409 2770 889 
Q 3016 1369 3016 2328 
Q 3016 3291 2770 3770 
Q 2525 4250 2034 4250 
z
M 2034 4750 
Q 2819 4750 3233 4129 
Q 3647 3509 3647 2328 
Q 3647 1150 3233 529 
Q 2819 -91 2034 -91 
Q 1250 -91 836 529 
Q 422 1150 422 2328 
Q 422 3509 836 4129 
Q 1250 4750 2034 4750 
z
" transform="scale(0.015625)"/>
       </defs>
       <use xlink:href="#DejaVuSans-31"/>
       <use xlink:href="#DejaVuSans-30" x="63.623047"/>
      </g>
     </g>
    </g>
    <g id="xtick_2">
     <g id="line2d_2">
      <g>
       <use xlink:href="#m32cc954b03" x="108.445298" y="442.656" style="stroke: #000000; stroke-width: 0.8"/>
      </g>
     </g>
     <g id="text_2">
      <!-- 11 -->
      <g transform="translate(102.082798 457.254437) scale(0.1 -0.1)">
       <use xlink:href="#DejaVuSans-31"/>
       <use xlink:href="#DejaVuSans-31" x="63.623047"/>
      </g>
     </g>
    </g>
    <g id="xtick_3">
     <g id="line2d_3">
      <g>
       <use xlink:href="#m32cc954b03" x="178.140848" y="442.656" style="stroke: #000000; stroke-width: 0.8"/>
      </g>
     </g>
     <g id="text_3">
      <!-- 12 -->
      <g transform="translate(171.778348 457.254437) scale(0.1 -0.1)">
       <defs>
        <path id="DejaVuSans-32" d="M 1228 531 
L 3431 531 
L 3431 0 
L 469 0 
L 469 531 
Q 828 903 1448 1529 
Q 2069 2156 2228 2338 
Q 2531 2678 2651 2914 
Q 2772 3150 2772 3378 
Q 2772 3750 2511 3984 
Q 2250 4219 1831 4219 
Q 1534 4219 1204 4116 
Q 875 4013 500 3803 
L 500 4441 
Q 881 4594 1212 4672 
Q 1544 4750 1819 4750 
Q 2544 4750 2975 4387 
Q 3406 4025 3406 3419 
Q 3406 3131 3298 2873 
Q 3191 2616 2906 2266 
Q 2828 2175 2409 1742 
Q 1991 1309 1228 531 
z
" transform="scale(0.015625)"/>
       </defs>
       <use xlink:href="#DejaVuSans-31"/>
       <use xlink:href="#DejaVuSans-32" x="63.623047"/>
      </g>
     </g>
    </g>
    <g id="xtick_4">
     <g id="line2d_4">
      <g>
       <use xlink:href="#m32cc954b03" x="250.159584" y="442.656" style="stroke: #000000; stroke-width: 0.8"/>
      </g>
     </g>
     <g id="text_4">
      <!-- 2024-1 -->
      <g transform="translate(232.449427 457.254437) scale(0.1 -0.1)">
       <defs>
        <path id="DejaVuSans-34" d="M 2419 4116 
L 825 1625 
L 2419 1625 
L 2419 4116 
z
M 2253 4666 
L 3047 4666 
L 3047 1625 
L 3713 1625 
L 3713 1100 
L 3047 1100 
L 3047 0 
L 2419 0 
L 2419 1100 
L 313 1100 
L 313 1709 
L 2253 4666 
z
" transform="scale(0.015625)"/>
        <path id="DejaVuSans-2d" d="M 313 2009 
L 1997 2009 
L 1997 1497 
L 313 1497 
L 313 2009 
z
" transform="scale(0.015625)"/>
       </defs>
       <use xlink:href="#DejaVuSans-32"/>
       <use xlink:href="#DejaVuSans-30" x="63.623047"/>
       <use xlink:href="#DejaVuSans-32" x="127.246094"/>
       <use xlink:href="#DejaVuSans-34" x="190.869141"/>
       <use xlink:href="#DejaVuSans-2d" x="254.492188"/>
       <use xlink:href="#DejaVuSans-31" x="290.576172"/>
      </g>
     </g>
    </g>
    <g id="xtick_5">
     <g id="line2d_5">
      <g>
       <use xlink:href="#m32cc954b03" x="322.178319" y="442.656" style="stroke: #000000; stroke-width: 0.8"/>
      </g>
     </g>
     <g id="text_5">
      <!-- 2 -->
      <g transform="translate(318.997069 457.254437) scale(0.1 -0.1)">
       <use xlink:href="#DejaVuSans-32"/>
      </g>
     </g>
    </g>
    <g id="xtick_6">
     <g id="line2d_6">
      <g>
       <use xlink:href="#m32cc954b03" x="389.550684" y="442.656" style="stroke: #000000; stroke-width: 0.8"/>
      </g>
     </g>
     <g id="text_6">
      <!-- 3 -->
      <g transform="translate(386.369434 457.254437) scale(0.1 -0.1)">
       <defs>
        <path id="DejaVuSans-33" d="M 2597 2516 
Q 3050 2419 3304 2112 
Q 3559 1806 3559 1356 
Q 3559 666 3084 287 
Q 2609 -91 1734 -91 
Q 1441 -91 1130 -33 
Q 819 25 488 141 
L 488 750 
Q 750 597 1062 519 
Q 1375 441 1716 441 
Q 2309 441 2620 675 
Q 2931 909 2931 1356 
Q 2931 1769 2642 2001 
Q 2353 2234 1838 2234 
L 1294 2234 
L 1294 2753 
L 1863 2753 
Q 2328 2753 2575 2939 
Q 2822 3125 2822 3475 
Q 2822 3834 2567 4026 
Q 2313 4219 1838 4219 
Q 1578 4219 1281 4162 
Q 984 4106 628 3988 
L 628 4550 
Q 988 4650 1302 4700 
Q 1616 4750 1894 4750 
Q 2613 4750 3031 4423 
Q 3450 4097 3450 3541 
Q 3450 3153 3228 2886 
Q 3006 2619 2597 2516 
z
" transform="scale(0.015625)"/>
       </defs>
       <use xlink:href="#DejaVuSans-33"/>
      </g>
     </g>
    </g>
    <g id="xtick_7">
     <g id="line2d_7">
      <g>
       <use xlink:href="#m32cc954b03" x="461.56942" y="442.656" style="stroke: #000000; stroke-width: 0.8"/>
      </g>
     </g>
     <g id="text_7">
      <!-- 4 -->
      <g transform="translate(458.38817 457.254437) scale(0.1 -0.1)">
       <use xlink:href="#DejaVuSans-34"/>
      </g>
     </g>
    </g>
   </g>
   <g id="matplotlib.axis_2">
    <g id="ytick_1">
     <g id="line2d_8">
      <path d="M 36.426563 425.332967 
L 461.56942 425.332967 
" clip-path="url(#p1cb66a3b4c)" style="fill: none; stroke: #b0b0b0; stroke-opacity: 0.2; stroke-width: 0.8; stroke-linecap: square"/>
     </g>
     <g id="line2d_9">
      <defs>
       <path id="mcd33d0db29" d="M 0 0 
L -3.5 0 
" style="stroke: #000000; stroke-width: 0.8"/>
      </defs>
      <g>
       <use xlink:href="#mcd33d0db29" x="36.426563" y="425.332967" style="stroke: #000000; stroke-width: 0.8"/>
      </g>
     </g>
     <g id="text_8">
      <!-- 0% -->
      <g transform="translate(13.5625 429.132185) scale(0.1 -0.1)">
       <defs>
        <path id="DejaVuSans-25" d="M 4653 2053 
Q 4381 2053 4226 1822 
Q 4072 1591 4072 1178 
Q 4072 772 4226 539 
Q 4381 306 4653 306 
Q 4919 306 5073 539 
Q 5228 772 5228 1178 
Q 5228 1588 5073 1820 
Q 4919 2053 4653 2053 
z
M 4653 2450 
Q 5147 2450 5437 2106 
Q 5728 1763 5728 1178 
Q 5728 594 5436 251 
Q 5144 -91 4653 -91 
Q 4153 -91 3862 251 
Q 3572 594 3572 1178 
Q 3572 1766 3864 2108 
Q 4156 2450 4653 2450 
z
M 1428 4353 
Q 1159 4353 1004 4120 
Q 850 3888 850 3481 
Q 850 3069 1003 2837 
Q 1156 2606 1428 2606 
Q 1700 2606 1854 2837 
Q 2009 3069 2009 3481 
Q 2009 3884 1853 4118 
Q 1697 4353 1428 4353 
z
M 4250 4750 
L 4750 4750 
L 1831 -91 
L 1331 -91 
L 4250 4750 
z
M 1428 4750 
Q 1922 4750 2215 4408 
Q 2509 4066 2509 3481 
Q 2509 2891 2217 2550 
Q 1925 2209 1428 2209 
Q 931 2209 642 2551 
Q 353 2894 353 3481 
Q 353 4063 643 4406 
Q 934 4750 1428 4750 
z
" transform="scale(0.015625)"/>
       </defs>
       <use xlink:href="#DejaVuSans-30"/>
       <use xlink:href="#DejaVuSans-25" x="63.623047"/>
      </g>
     </g>
    </g>
    <g id="ytick_2">
     <g id="line2d_10">
      <path d="M 36.426563 382.905748 
L 461.56942 382.905748 
" clip-path="url(#p1cb66a3b4c)" style="fill: none; stroke: #b0b0b0; stroke-opacity: 0.2; stroke-width: 0.8; stroke-linecap: square"/>
     </g>
     <g id="line2d_11">
      <g>
       <use xlink:href="#mcd33d0db29" x="36.426563" y="382.905748" style="stroke: #000000; stroke-width: 0.8"/>
      </g>
     </g>
     <g id="text_9">
      <!-- 5% -->
      <g transform="translate(13.5625 386.704967) scale(0.1 -0.1)">
       <defs>
        <path id="DejaVuSans-35" d="M 691 4666 
L 3169 4666 
L 3169 4134 
L 1269 4134 
L 1269 2991 
Q 1406 3038 1543 3061 
Q 1681 3084 1819 3084 
Q 2600 3084 3056 2656 
Q 3513 2228 3513 1497 
Q 3513 744 3044 326 
Q 2575 -91 1722 -91 
Q 1428 -91 1123 -41 
Q 819 9 494 109 
L 494 744 
Q 775 591 1075 516 
Q 1375 441 1709 441 
Q 2250 441 2565 725 
Q 2881 1009 2881 1497 
Q 2881 1984 2565 2268 
Q 2250 2553 1709 2553 
Q 1456 2553 1204 2497 
Q 953 2441 691 2322 
L 691 4666 
z
" transform="scale(0.015625)"/>
       </defs>
       <use xlink:href="#DejaVuSans-35"/>
       <use xlink:href="#DejaVuSans-25" x="63.623047"/>
      </g>
     </g>
    </g>
    <g id="ytick_3">
     <g id="line2d_12">
      <path d="M 36.426563 340.47853 
L 461.56942 340.47853 
" clip-path="url(#p1cb66a3b4c)" style="fill: none; stroke: #b0b0b0; stroke-opacity: 0.2; stroke-width: 0.8; stroke-linecap: square"/>
     </g>
     <g id="line2d_13">
      <g>
       <use xlink:href="#mcd33d0db29" x="36.426563" y="340.47853" style="stroke: #000000; stroke-width: 0.8"/>
      </g>
     </g>
     <g id="text_10">
      <!-- 10% -->
      <g transform="translate(7.2 344.277748) scale(0.1 -0.1)">
       <use xlink:href="#DejaVuSans-31"/>
       <use xlink:href="#DejaVuSans-30" x="63.623047"/>
       <use xlink:href="#DejaVuSans-25" x="127.246094"/>
      </g>
     </g>
    </g>
    <g id="ytick_4">
     <g id="line2d_14">
      <path d="M 36.426563 298.051311 
L 461.56942 298.051311 
" clip-path="url(#p1cb66a3b4c)" style="fill: none; stroke: #b0b0b0; stroke-opacity: 0.2; stroke-width: 0.8; stroke-linecap: square"/>
     </g>
     <g id="line2d_15">
      <g>
       <use xlink:href="#mcd33d0db29" x="36.426563" y="298.051311" style="stroke: #000000; stroke-width: 0.8"/>
      </g>
     </g>
     <g id="text_11">
      <!-- 15% -->
      <g transform="translate(7.2 301.85053) scale(0.1 -0.1)">
       <use xlink:href="#DejaVuSans-31"/>
       <use xlink:href="#DejaVuSans-35" x="63.623047"/>
       <use xlink:href="#DejaVuSans-25" x="127.246094"/>
      </g>
     </g>
    </g>
    <g id="ytick_5">
     <g id="line2d_16">
      <path d="M 36.426563 255.624093 
L 461.56942 255.624093 
" clip-path="url(#p1cb66a3b4c)" style="fill: none; stroke: #b0b0b0; stroke-opacity: 0.2; stroke-width: 0.8; stroke-linecap: square"/>
     </g>
     <g id="line2d_17">
      <g>
       <use xlink:href="#mcd33d0db29" x="36.426563" y="255.624093" style="stroke: #000000; stroke-width: 0.8"/>
      </g>
     </g>
     <g id="text_12">
      <!-- 20% -->
      <g transform="translate(7.2 259.423311) scale(0.1 -0.1)">
       <use xlink:href="#DejaVuSans-32"/>
       <use xlink:href="#DejaVuSans-30" x="63.623047"/>
       <use xlink:href="#DejaVuSans-25" x="127.246094"/>
      </g>
     </g>
    </g>
    <g id="ytick_6">
     <g id="line2d_18">
      <path d="M 36.426563 213.196874 
L 461.56942 213.196874 
" clip-path="url(#p1cb66a3b4c)" style="fill: none; stroke: #b0b0b0; stroke-opacity: 0.2; stroke-width: 0.8; stroke-linecap: square"/>
     </g>
     <g id="line2d_19">
      <g>
       <use xlink:href="#mcd33d0db29" x="36.426563" y="213.196874" style="stroke: #000000; stroke-width: 0.8"/>
      </g>
     </g>
     <g id="text_13">
      <!-- 25% -->
      <g transform="translate(7.2 216.996093) scale(0.1 -0.1)">
       <use xlink:href="#DejaVuSans-32"/>
       <use xlink:href="#DejaVuSans-35" x="63.623047"/>
       <use xlink:href="#DejaVuSans-25" x="127.246094"/>
      </g>
     </g>
    </g>
    <g id="ytick_7">
     <g id="line2d_20">
      <path d="M 36.426563 170.769656 
L 461.56942 170.769656 
" clip-path="url(#p1cb66a3b4c)" style="fill: none; stroke: #b0b0b0; stroke-opacity: 0.2; stroke-width: 0.8; stroke-linecap: square"/>
     </g>
     <g id="line2d_21">
      <g>
       <use xlink:href="#mcd33d0db29" x="36.426563" y="170.769656" style="stroke: #000000; stroke-width: 0.8"/>
      </g>
     </g>
     <g id="text_14">
      <!-- 30% -->
      <g transform="translate(7.2 174.568874) scale(0.1 -0.1)">
       <use xlink:href="#DejaVuSans-33"/>
       <use xlink:href="#DejaVuSans-30" x="63.623047"/>
       <use xlink:href="#DejaVuSans-25" x="127.246094"/>
      </g>
     </g>
    </g>
    <g id="ytick_8">
     <g id="line2d_22">
      <path d="M 36.426563 128.342437 
L 461.56942 128.342437 
" clip-path="url(#p1cb66a3b4c)" style="fill: none; stroke: #b0b0b0; stroke-opacity: 0.2; stroke-width: 0.8; stroke-linecap: square"/>
     </g>
     <g id="line2d_23">
      <g>
       <use xlink:href="#mcd33d0db29" x="36.426563" y="128.342437" style="stroke: #000000; stroke-width: 0.8"/>
      </g>
     </g>
     <g id="text_15">
      <!-- 35% -->
      <g transform="translate(7.2 132.141656) scale(0.1 -0.1)">
       <use xlink:href="#DejaVuSans-33"/>
       <use xlink:href="#DejaVuSans-35" x="63.623047"/>
       <use xlink:href="#DejaVuSans-25" x="127.246094"/>
      </g>
     </g>
    </g>
    <g id="ytick_9">
     <g id="line2d_24">
      <path d="M 36.426563 85.915219 
L 461.56942 85.915219 
" clip-path="url(#p1cb66a3b4c)" style="fill: none; stroke: #b0b0b0; stroke-opacity: 0.2; stroke-width: 0.8; stroke-linecap: square"/>
     </g>
     <g id="line2d_25">
      <g>
       <use xlink:href="#mcd33d0db29" x="36.426563" y="85.915219" style="stroke: #000000; stroke-width: 0.8"/>
      </g>
     </g>
     <g id="text_16">
      <!-- 40% -->
      <g transform="translate(7.2 89.714437) scale(0.1 -0.1)">
       <use xlink:href="#DejaVuSans-34"/>
       <use xlink:href="#DejaVuSans-30" x="63.623047"/>
       <use xlink:href="#DejaVuSans-25" x="127.246094"/>
      </g>
     </g>
    </g>
    <g id="ytick_10">
     <g id="line2d_26">
      <path d="M 36.426563 43.488 
L 461.56942 43.488 
" clip-path="url(#p1cb66a3b4c)" style="fill: none; stroke: #b0b0b0; stroke-opacity: 0.2; stroke-width: 0.8; stroke-linecap: square"/>
     </g>
     <g id="line2d_27">
      <g>
       <use xlink:href="#mcd33d0db29" x="36.426563" y="43.488" style="stroke: #000000; stroke-width: 0.8"/>
      </g>
     </g>
     <g id="text_17">
      <!-- 45% -->
      <g transform="translate(7.2 47.287219) scale(0.1 -0.1)">
       <use xlink:href="#DejaVuSans-34"/>
       <use xlink:href="#DejaVuSans-35" x="63.623047"/>
       <use xlink:href="#DejaVuSans-25" x="127.246094"/>
      </g>
     </g>
    </g>
   </g>
   <g id="line2d_28">
    <path d="M 440.660755 442.656 
L 440.660755 43.488 
" clip-path="url(#p1cb66a3b4c)" style="fill: none; stroke-dasharray: 1.5,4.5; stroke-dashoffset: 0; stroke: #000000; stroke-width: 1.5"/>
   </g>
   <g id="line2d_29">
    <path d="M 377.934759 408.362079 
L 410.459349 410.059168 
L 438.33757 421.090245 
" clip-path="url(#p1cb66a3b4c)" style="fill: none; stroke: #fcbd00; stroke-opacity: 0.65; stroke-width: 2; stroke-linecap: square"/>
    <defs>
     <path id="m03b62e989c" d="M 0 4.242641 
L 2.545584 0 
L 0 -4.242641 
L -2.545584 0 
z
" style="stroke: #fcbd00; stroke-opacity: 0.65; stroke-linejoin: miter"/>
    </defs>
    <g clip-path="url(#p1cb66a3b4c)">
     <use xlink:href="#m03b62e989c" x="377.934759" y="408.362079" style="fill: #fcbd00; fill-opacity: 0.65; stroke: #fcbd00; stroke-opacity: 0.65; stroke-linejoin: miter"/>
     <use xlink:href="#m03b62e989c" x="410.459349" y="410.059168" style="fill: #fcbd00; fill-opacity: 0.65; stroke: #fcbd00; stroke-opacity: 0.65; stroke-linejoin: miter"/>
     <use xlink:href="#m03b62e989c" x="438.33757" y="421.090245" style="fill: #fcbd00; fill-opacity: 0.65; stroke: #fcbd00; stroke-opacity: 0.65; stroke-linejoin: miter"/>
    </g>
   </g>
   <g id="line2d_30">
    <path d="M 377.934759 407.513535 
L 410.459349 405.816446 
L 438.33757 401.573724 
" clip-path="url(#p1cb66a3b4c)" style="fill: none; stroke: #387722; stroke-opacity: 0.65; stroke-width: 2; stroke-linecap: square"/>
    <defs>
     <path id="mc3a81fe96e" d="M 0 4.242641 
L 2.545584 0 
L 0 -4.242641 
L -2.545584 0 
z
" style="stroke: #387722; stroke-opacity: 0.65; stroke-linejoin: miter"/>
    </defs>
    <g clip-path="url(#p1cb66a3b4c)">
     <use xlink:href="#mc3a81fe96e" x="377.934759" y="407.513535" style="fill: #387722; fill-opacity: 0.65; stroke: #387722; stroke-opacity: 0.65; stroke-linejoin: miter"/>
     <use xlink:href="#mc3a81fe96e" x="410.459349" y="405.816446" style="fill: #387722; fill-opacity: 0.65; stroke: #387722; stroke-opacity: 0.65; stroke-linejoin: miter"/>
     <use xlink:href="#mc3a81fe96e" x="438.33757" y="401.573724" style="fill: #387722; fill-opacity: 0.65; stroke: #387722; stroke-opacity: 0.65; stroke-linejoin: miter"/>
    </g>
   </g>
   <g id="line2d_31">
    <path d="M 377.934759 406.664991 
L 410.459349 405.816446 
L 438.33757 423.635878 
" clip-path="url(#p1cb66a3b4c)" style="fill: none; stroke: #2175d9; stroke-opacity: 0.65; stroke-width: 2; stroke-linecap: square"/>
    <defs>
     <path id="m801d0ed7f3" d="M 0 4.242641 
L 2.545584 0 
L 0 -4.242641 
L -2.545584 0 
z
" style="stroke: #2175d9; stroke-opacity: 0.65; stroke-linejoin: miter"/>
    </defs>
    <g clip-path="url(#p1cb66a3b4c)">
     <use xlink:href="#m801d0ed7f3" x="377.934759" y="406.664991" style="fill: #2175d9; fill-opacity: 0.65; stroke: #2175d9; stroke-opacity: 0.65; stroke-linejoin: miter"/>
     <use xlink:href="#m801d0ed7f3" x="410.459349" y="405.816446" style="fill: #2175d9; fill-opacity: 0.65; stroke: #2175d9; stroke-opacity: 0.65; stroke-linejoin: miter"/>
     <use xlink:href="#m801d0ed7f3" x="438.33757" y="423.635878" style="fill: #2175d9; fill-opacity: 0.65; stroke: #2175d9; stroke-opacity: 0.65; stroke-linejoin: miter"/>
    </g>
   </g>
   <g id="line2d_32">
    <path d="M 377.934759 402.422269 
L 410.459349 402.422269 
L 438.33757 399.876636 
" clip-path="url(#p1cb66a3b4c)" style="fill: none; stroke: #00a650; stroke-opacity: 0.65; stroke-width: 2; stroke-linecap: square"/>
    <defs>
     <path id="m15f391a02b" d="M 0 4.242641 
L 2.545584 0 
L 0 -4.242641 
L -2.545584 0 
z
" style="stroke: #00a650; stroke-opacity: 0.65; stroke-linejoin: miter"/>
    </defs>
    <g clip-path="url(#p1cb66a3b4c)">
     <use xlink:href="#m15f391a02b" x="377.934759" y="402.422269" style="fill: #00a650; fill-opacity: 0.65; stroke: #00a650; stroke-opacity: 0.65; stroke-linejoin: miter"/>
     <use xlink:href="#m15f391a02b" x="410.459349" y="402.422269" style="fill: #00a650; fill-opacity: 0.65; stroke: #00a650; stroke-opacity: 0.65; stroke-linejoin: miter"/>
     <use xlink:href="#m15f391a02b" x="438.33757" y="399.876636" style="fill: #00a650; fill-opacity: 0.65; stroke: #00a650; stroke-opacity: 0.65; stroke-linejoin: miter"/>
    </g>
   </g>
   <g id="line2d_33">
    <path d="M 377.934759 330.295997 
L 410.459349 328.598908 
L 438.33757 298.051311 
" clip-path="url(#p1cb66a3b4c)" style="fill: none; stroke: #752427; stroke-opacity: 0.65; stroke-width: 2; stroke-linecap: square"/>
    <defs>
     <path id="maddc1c27eb" d="M 0 4.242641 
L 2.545584 0 
L 0 -4.242641 
L -2.545584 0 
z
" style="stroke: #752427; stroke-opacity: 0.65; stroke-linejoin: miter"/>
    </defs>
    <g clip-path="url(#p1cb66a3b4c)">
     <use xlink:href="#maddc1c27eb" x="377.934759" y="330.295997" style="fill: #752427; fill-opacity: 0.65; stroke: #752427; stroke-opacity: 0.65; stroke-linejoin: miter"/>
     <use xlink:href="#maddc1c27eb" x="410.459349" y="328.598908" style="fill: #752427; fill-opacity: 0.65; stroke: #752427; stroke-opacity: 0.65; stroke-linejoin: miter"/>
     <use xlink:href="#maddc1c27eb" x="438.33757" y="298.051311" style="fill: #752427; fill-opacity: 0.65; stroke: #752427; stroke-opacity: 0.65; stroke-linejoin: miter"/>
    </g>
   </g>
   <g id="line2d_34">
    <path d="M 377.934759 398.179547 
L 410.459349 398.179547 
L 438.33757 388.845559 
" clip-path="url(#p1cb66a3b4c)" style="fill: none; stroke: #d82626; stroke-opacity: 0.65; stroke-width: 2; stroke-linecap: square"/>
    <defs>
     <path id="m3e07c274e9" d="M 0 4.242641 
L 2.545584 0 
L 0 -4.242641 
L -2.545584 0 
z
" style="stroke: #d82626; stroke-opacity: 0.65; stroke-linejoin: miter"/>
    </defs>
    <g clip-path="url(#p1cb66a3b4c)">
     <use xlink:href="#m3e07c274e9" x="377.934759" y="398.179547" style="fill: #d82626; fill-opacity: 0.65; stroke: #d82626; stroke-opacity: 0.65; stroke-linejoin: miter"/>
     <use xlink:href="#m3e07c274e9" x="410.459349" y="398.179547" style="fill: #d82626; fill-opacity: 0.65; stroke: #d82626; stroke-opacity: 0.65; stroke-linejoin: miter"/>
     <use xlink:href="#m3e07c274e9" x="438.33757" y="388.845559" style="fill: #d82626; fill-opacity: 0.65; stroke: #d82626; stroke-opacity: 0.65; stroke-linejoin: miter"/>
    </g>
   </g>
   <g id="line2d_35">
    <path d="M 377.934759 383.754293 
L 410.459349 398.179547 
L 438.33757 387.14847 
" clip-path="url(#p1cb66a3b4c)" style="fill: none; stroke: #889c4b; stroke-opacity: 0.65; stroke-width: 2; stroke-linecap: square"/>
    <defs>
     <path id="mfdc2f2202d" d="M 0 4.242641 
L 2.545584 0 
L 0 -4.242641 
L -2.545584 0 
z
" style="stroke: #889c4b; stroke-opacity: 0.65; stroke-linejoin: miter"/>
    </defs>
    <g clip-path="url(#p1cb66a3b4c)">
     <use xlink:href="#mfdc2f2202d" x="377.934759" y="383.754293" style="fill: #889c4b; fill-opacity: 0.65; stroke: #889c4b; stroke-opacity: 0.65; stroke-linejoin: miter"/>
     <use xlink:href="#mfdc2f2202d" x="410.459349" y="398.179547" style="fill: #889c4b; fill-opacity: 0.65; stroke: #889c4b; stroke-opacity: 0.65; stroke-linejoin: miter"/>
     <use xlink:href="#mfdc2f2202d" x="438.33757" y="387.14847" style="fill: #889c4b; fill-opacity: 0.65; stroke: #889c4b; stroke-opacity: 0.65; stroke-linejoin: miter"/>
    </g>
   </g>
   <g id="line2d_36">
    <path d="M 377.934759 119.856993 
L 410.459349 122.402626 
L 438.33757 129.190981 
" clip-path="url(#p1cb66a3b4c)" style="fill: none; stroke: #9aff01; stroke-opacity: 0.65; stroke-width: 2; stroke-linecap: square"/>
    <defs>
     <path id="m1479772be5" d="M 0 4.242641 
L 2.545584 0 
L 0 -4.242641 
L -2.545584 0 
z
" style="stroke: #9aff01; stroke-opacity: 0.65; stroke-linejoin: miter"/>
    </defs>
    <g clip-path="url(#p1cb66a3b4c)">
     <use xlink:href="#m1479772be5" x="377.934759" y="119.856993" style="fill: #9aff01; fill-opacity: 0.65; stroke: #9aff01; stroke-opacity: 0.65; stroke-linejoin: miter"/>
     <use xlink:href="#m1479772be5" x="410.459349" y="122.402626" style="fill: #9aff01; fill-opacity: 0.65; stroke: #9aff01; stroke-opacity: 0.65; stroke-linejoin: miter"/>
     <use xlink:href="#m1479772be5" x="438.33757" y="129.190981" style="fill: #9aff01; fill-opacity: 0.65; stroke: #9aff01; stroke-opacity: 0.65; stroke-linejoin: miter"/>
    </g>
   </g>
   <g id="line2d_37">
    <path d="M 377.934759 147.858958 
L 410.459349 135.130792 
L 438.33757 134.282248 
" clip-path="url(#p1cb66a3b4c)" style="fill: none; stroke: #ac2c5a; stroke-opacity: 0.65; stroke-width: 2; stroke-linecap: square"/>
    <defs>
     <path id="m65558f3a79" d="M 0 4.242641 
L 2.545584 0 
L 0 -4.242641 
L -2.545584 0 
z
" style="stroke: #ac2c5a; stroke-opacity: 0.65; stroke-linejoin: miter"/>
    </defs>
    <g clip-path="url(#p1cb66a3b4c)">
     <use xlink:href="#m65558f3a79" x="377.934759" y="147.858958" style="fill: #ac2c5a; fill-opacity: 0.65; stroke: #ac2c5a; stroke-opacity: 0.65; stroke-linejoin: miter"/>
     <use xlink:href="#m65558f3a79" x="410.459349" y="135.130792" style="fill: #ac2c5a; fill-opacity: 0.65; stroke: #ac2c5a; stroke-opacity: 0.65; stroke-linejoin: miter"/>
     <use xlink:href="#m65558f3a79" x="438.33757" y="134.282248" style="fill: #ac2c5a; fill-opacity: 0.65; stroke: #ac2c5a; stroke-opacity: 0.65; stroke-linejoin: miter"/>
    </g>
   </g>
   <g id="patch_3">
    <path d="M 36.426563 442.656 
L 36.426563 43.488 
" style="fill: none; stroke: #000000; stroke-width: 0.8; stroke-linejoin: miter; stroke-linecap: square"/>
   </g>
   <g id="patch_4">
    <path d="M 461.56942 442.656 
L 461.56942 43.488 
" style="fill: none; stroke: #000000; stroke-width: 0.8; stroke-linejoin: miter; stroke-linecap: square"/>
   </g>
   <g id="patch_5">
    <path d="M 36.426562 442.656 
L 461.56942 442.656 
" style="fill: none; stroke: #000000; stroke-width: 0.8; stroke-linejoin: miter; stroke-linecap: square"/>
   </g>
   <g id="patch_6">
    <path d="M 36.426562 43.488 
L 461.56942 43.488 
" style="fill: none; stroke: #000000; stroke-width: 0.8; stroke-linejoin: miter; stroke-linecap: square"/>
   </g>
   <g id="PathCollection_1">
    <defs>
     <path id="mbebbb3605c" d="M 0 3 
C 0.795609 3 1.55874 2.683901 2.12132 2.12132 
C 2.683901 1.55874 3 0.795609 3 0 
C 3 -0.795609 2.683901 -1.55874 2.12132 -2.12132 
C 1.55874 -2.683901 0.795609 -3 0 -3 
C -0.795609 -3 -1.55874 -2.683901 -2.12132 -2.12132 
C -2.683901 -1.55874 -3 -0.795609 -3 0 
C -3 0.795609 -2.683901 1.55874 -2.12132 2.12132 
C -1.55874 2.683901 -0.795609 3 0 3 
z
" style="stroke: #fcbd00"/>
    </defs>
    <g clip-path="url(#p1cb66a3b4c)">
     <use xlink:href="#mbebbb3605c" x="440.660755" y="419.308302" style="fill: #fcbd00; stroke: #fcbd00"/>
    </g>
   </g>
   <g id="PathCollection_2">
    <defs>
     <path id="me3aa4cec25" d="M 0 3 
C 0.795609 3 1.55874 2.683901 2.12132 2.12132 
C 2.683901 1.55874 3 0.795609 3 0 
C 3 -0.795609 2.683901 -1.55874 2.12132 -2.12132 
C 1.55874 -2.683901 0.795609 -3 0 -3 
C -0.795609 -3 -1.55874 -2.683901 -2.12132 -2.12132 
C -2.683901 -1.55874 -3 -0.795609 -3 0 
C -3 0.795609 -2.683901 1.55874 -2.12132 2.12132 
C -1.55874 2.683901 -0.795609 3 0 3 
z
" style="stroke: #387722"/>
    </defs>
    <g clip-path="url(#p1cb66a3b4c)">
     <use xlink:href="#me3aa4cec25" x="440.660755" y="420.581118" style="fill: #387722; stroke: #387722"/>
    </g>
   </g>
   <g id="PathCollection_3">
    <defs>
     <path id="m1670c2ae6f" d="M 0 3 
C 0.795609 3 1.55874 2.683901 2.12132 2.12132 
C 2.683901 1.55874 3 0.795609 3 0 
C 3 -0.795609 2.683901 -1.55874 2.12132 -2.12132 
C 1.55874 -2.683901 0.795609 -3 0 -3 
C -0.795609 -3 -1.55874 -2.683901 -2.12132 -2.12132 
C -2.683901 -1.55874 -3 -0.795609 -3 0 
C -3 0.795609 -2.683901 1.55874 -2.12132 2.12132 
C -1.55874 2.683901 -0.795609 3 0 3 
z
" style="stroke: #2175d9"/>
    </defs>
    <g clip-path="url(#p1cb66a3b4c)">
     <use xlink:href="#m1670c2ae6f" x="440.660755" y="424.654131" style="fill: #2175d9; stroke: #2175d9"/>
    </g>
   </g>
   <g id="PathCollection_4">
    <defs>
     <path id="mde00064109" d="M 0 3 
C 0.795609 3 1.55874 2.683901 2.12132 2.12132 
C 2.683901 1.55874 3 0.795609 3 0 
C 3 -0.795609 2.683901 -1.55874 2.12132 -2.12132 
C 1.55874 -2.683901 0.795609 -3 0 -3 
C -0.795609 -3 -1.55874 -2.683901 -2.12132 -2.12132 
C -2.683901 -1.55874 -3 -0.795609 -3 0 
C -3 0.795609 -2.683901 1.55874 -2.12132 2.12132 
C -1.55874 2.683901 -0.795609 3 0 3 
z
" style="stroke: #00a650"/>
    </defs>
    <g clip-path="url(#p1cb66a3b4c)">
     <use xlink:href="#mde00064109" x="440.660755" y="400.72518" style="fill: #00a650; stroke: #00a650"/>
    </g>
   </g>
   <g id="PathCollection_5">
    <defs>
     <path id="mf1e1886235" d="M 0 3 
C 0.795609 3 1.55874 2.683901 2.12132 2.12132 
C 2.683901 1.55874 3 0.795609 3 0 
C 3 -0.795609 2.683901 -1.55874 2.12132 -2.12132 
C 1.55874 -2.683901 0.795609 -3 0 -3 
C -0.795609 -3 -1.55874 -2.683901 -2.12132 -2.12132 
C -2.683901 -1.55874 -3 -0.795609 -3 0 
C -3 0.795609 -2.683901 1.55874 -2.12132 2.12132 
C -1.55874 2.683901 -0.795609 3 0 3 
z
" style="stroke: #752427"/>
    </defs>
    <g clip-path="url(#p1cb66a3b4c)">
     <use xlink:href="#mf1e1886235" x="440.660755" y="325.798712" style="fill: #752427; stroke: #752427"/>
    </g>
   </g>
   <g id="PathCollection_6">
    <defs>
     <path id="m397d8838bc" d="M 0 3 
C 0.795609 3 1.55874 2.683901 2.12132 2.12132 
C 2.683901 1.55874 3 0.795609 3 0 
C 3 -0.795609 2.683901 -1.55874 2.12132 -2.12132 
C 1.55874 -2.683901 0.795609 -3 0 -3 
C -0.795609 -3 -1.55874 -2.683901 -2.12132 -2.12132 
C -2.683901 -1.55874 -3 -0.795609 -3 0 
C -3 0.795609 -2.683901 1.55874 -2.12132 2.12132 
C -1.55874 2.683901 -0.795609 3 0 3 
z
" style="stroke: #d82626"/>
    </defs>
    <g clip-path="url(#p1cb66a3b4c)">
     <use xlink:href="#m397d8838bc" x="440.660755" y="408.107516" style="fill: #d82626; stroke: #d82626"/>
    </g>
   </g>
   <g id="PathCollection_7">
    <defs>
     <path id="m0af11d555c" d="M 0 3 
C 0.795609 3 1.55874 2.683901 2.12132 2.12132 
C 2.683901 1.55874 3 0.795609 3 0 
C 3 -0.795609 2.683901 -1.55874 2.12132 -2.12132 
C 1.55874 -2.683901 0.795609 -3 0 -3 
C -0.795609 -3 -1.55874 -2.683901 -2.12132 -2.12132 
C -2.683901 -1.55874 -3 -0.795609 -3 0 
C -3 0.795609 -2.683901 1.55874 -2.12132 2.12132 
C -1.55874 2.683901 -0.795609 3 0 3 
z
" style="stroke: #889c4b"/>
    </defs>
    <g clip-path="url(#p1cb66a3b4c)">
     <use xlink:href="#m0af11d555c" x="440.660755" y="406.834699" style="fill: #889c4b; stroke: #889c4b"/>
    </g>
   </g>
   <g id="PathCollection_8">
    <defs>
     <path id="m5552f20d4c" d="M 0 3 
C 0.795609 3 1.55874 2.683901 2.12132 2.12132 
C 2.683901 1.55874 3 0.795609 3 0 
C 3 -0.795609 2.683901 -1.55874 2.12132 -2.12132 
C 1.55874 -2.683901 0.795609 -3 0 -3 
C -0.795609 -3 -1.55874 -2.683901 -2.12132 -2.12132 
C -2.683901 -1.55874 -3 -0.795609 -3 0 
C -3 0.795609 -2.683901 1.55874 -2.12132 2.12132 
C -1.55874 2.683901 -0.795609 3 0 3 
z
" style="stroke: #9aff01"/>
    </defs>
    <g clip-path="url(#p1cb66a3b4c)">
     <use xlink:href="#m5552f20d4c" x="440.660755" y="64.616755" style="fill: #9aff01; stroke: #9aff01"/>
    </g>
   </g>
   <g id="PathCollection_9">
    <defs>
     <path id="m8e728eb3be" d="M 0 3 
C 0.795609 3 1.55874 2.683901 2.12132 2.12132 
C 2.683901 1.55874 3 0.795609 3 0 
C 3 -0.795609 2.683901 -1.55874 2.12132 -2.12132 
C 1.55874 -2.683901 0.795609 -3 0 -3 
C -0.795609 -3 -1.55874 -2.683901 -2.12132 -2.12132 
C -2.683901 -1.55874 -3 -0.795609 -3 0 
C -3 0.795609 -2.683901 1.55874 -2.12132 2.12132 
C -1.55874 2.683901 -0.795609 3 0 3 
z
" style="stroke: #ac2c5a"/>
    </defs>
    <g clip-path="url(#p1cb66a3b4c)">
     <use xlink:href="#m8e728eb3be" x="440.660755" y="111.201841" style="fill: #ac2c5a; stroke: #ac2c5a"/>
    </g>
   </g>
   <g id="text_18">
    <!-- 1st round -->
    <g transform="translate(220.378929 37.488) scale(0.12 -0.12)">
     <defs>
      <path id="DejaVuSans-73" d="M 2834 3397 
L 2834 2853 
Q 2591 2978 2328 3040 
Q 2066 3103 1784 3103 
Q 1356 3103 1142 2972 
Q 928 2841 928 2578 
Q 928 2378 1081 2264 
Q 1234 2150 1697 2047 
L 1894 2003 
Q 2506 1872 2764 1633 
Q 3022 1394 3022 966 
Q 3022 478 2636 193 
Q 2250 -91 1575 -91 
Q 1294 -91 989 -36 
Q 684 19 347 128 
L 347 722 
Q 666 556 975 473 
Q 1284 391 1588 391 
Q 1994 391 2212 530 
Q 2431 669 2431 922 
Q 2431 1156 2273 1281 
Q 2116 1406 1581 1522 
L 1381 1569 
Q 847 1681 609 1914 
Q 372 2147 372 2553 
Q 372 3047 722 3315 
Q 1072 3584 1716 3584 
Q 2034 3584 2315 3537 
Q 2597 3491 2834 3397 
z
" transform="scale(0.015625)"/>
      <path id="DejaVuSans-74" d="M 1172 4494 
L 1172 3500 
L 2356 3500 
L 2356 3053 
L 1172 3053 
L 1172 1153 
Q 1172 725 1289 603 
Q 1406 481 1766 481 
L 2356 481 
L 2356 0 
L 1766 0 
Q 1100 0 847 248 
Q 594 497 594 1153 
L 594 3053 
L 172 3053 
L 172 3500 
L 594 3500 
L 594 4494 
L 1172 4494 
z
" transform="scale(0.015625)"/>
      <path id="DejaVuSans-20" transform="scale(0.015625)"/>
      <path id="DejaVuSans-72" d="M 2631 2963 
Q 2534 3019 2420 3045 
Q 2306 3072 2169 3072 
Q 1681 3072 1420 2755 
Q 1159 2438 1159 1844 
L 1159 0 
L 581 0 
L 581 3500 
L 1159 3500 
L 1159 2956 
Q 1341 3275 1631 3429 
Q 1922 3584 2338 3584 
Q 2397 3584 2469 3576 
Q 2541 3569 2628 3553 
L 2631 2963 
z
" transform="scale(0.015625)"/>
      <path id="DejaVuSans-6f" d="M 1959 3097 
Q 1497 3097 1228 2736 
Q 959 2375 959 1747 
Q 959 1119 1226 758 
Q 1494 397 1959 397 
Q 2419 397 2687 759 
Q 2956 1122 2956 1747 
Q 2956 2369 2687 2733 
Q 2419 3097 1959 3097 
z
M 1959 3584 
Q 2709 3584 3137 3096 
Q 3566 2609 3566 1747 
Q 3566 888 3137 398 
Q 2709 -91 1959 -91 
Q 1206 -91 779 398 
Q 353 888 353 1747 
Q 353 2609 779 3096 
Q 1206 3584 1959 3584 
z
" transform="scale(0.015625)"/>
      <path id="DejaVuSans-75" d="M 544 1381 
L 544 3500 
L 1119 3500 
L 1119 1403 
Q 1119 906 1312 657 
Q 1506 409 1894 409 
Q 2359 409 2629 706 
Q 2900 1003 2900 1516 
L 2900 3500 
L 3475 3500 
L 3475 0 
L 2900 0 
L 2900 538 
Q 2691 219 2414 64 
Q 2138 -91 1772 -91 
Q 1169 -91 856 284 
Q 544 659 544 1381 
z
M 1991 3584 
L 1991 3584 
z
" transform="scale(0.015625)"/>
      <path id="DejaVuSans-6e" d="M 3513 2113 
L 3513 0 
L 2938 0 
L 2938 2094 
Q 2938 2591 2744 2837 
Q 2550 3084 2163 3084 
Q 1697 3084 1428 2787 
Q 1159 2491 1159 1978 
L 1159 0 
L 581 0 
L 581 3500 
L 1159 3500 
L 1159 2956 
Q 1366 3272 1645 3428 
Q 1925 3584 2291 3584 
Q 2894 3584 3203 3211 
Q 3513 2838 3513 2113 
z
" transform="scale(0.015625)"/>
      <path id="DejaVuSans-64" d="M 2906 2969 
L 2906 4863 
L 3481 4863 
L 3481 0 
L 2906 0 
L 2906 525 
Q 2725 213 2448 61 
Q 2172 -91 1784 -91 
Q 1150 -91 751 415 
Q 353 922 353 1747 
Q 353 2572 751 3078 
Q 1150 3584 1784 3584 
Q 2172 3584 2448 3432 
Q 2725 3281 2906 2969 
z
M 947 1747 
Q 947 1113 1208 752 
Q 1469 391 1925 391 
Q 2381 391 2643 752 
Q 2906 1113 2906 1747 
Q 2906 2381 2643 2742 
Q 2381 3103 1925 3103 
Q 1469 3103 1208 2742 
Q 947 2381 947 1747 
z
" transform="scale(0.015625)"/>
     </defs>
     <use xlink:href="#DejaVuSans-31"/>
     <use xlink:href="#DejaVuSans-73" x="63.623047"/>
     <use xlink:href="#DejaVuSans-74" x="115.722656"/>
     <use xlink:href="#DejaVuSans-20" x="154.931641"/>
     <use xlink:href="#DejaVuSans-72" x="186.71875"/>
     <use xlink:href="#DejaVuSans-6f" x="225.582031"/>
     <use xlink:href="#DejaVuSans-75" x="286.763672"/>
     <use xlink:href="#DejaVuSans-6e" x="350.142578"/>
     <use xlink:href="#DejaVuSans-64" x="413.521484"/>
    </g>
   </g>
  </g>
  <g id="axes_2">
   <g id="patch_7">
    <path d="M 504.083705 442.656 
L 929.226562 442.656 
L 929.226562 43.488 
L 504.083705 43.488 
z
" style="fill: #ffffff"/>
   </g>
   <g id="matplotlib.axis_3">
    <g id="xtick_8">
     <g id="line2d_38">
      <g>
       <use xlink:href="#m32cc954b03" x="504.083705" y="442.656" style="stroke: #000000; stroke-width: 0.8"/>
      </g>
     </g>
     <g id="text_19">
      <!-- 2024-1 -->
      <g transform="translate(486.373549 457.254437) scale(0.1 -0.1)">
       <use xlink:href="#DejaVuSans-32"/>
       <use xlink:href="#DejaVuSans-30" x="63.623047"/>
       <use xlink:href="#DejaVuSans-32" x="127.246094"/>
       <use xlink:href="#DejaVuSans-34" x="190.869141"/>
       <use xlink:href="#DejaVuSans-2d" x="254.492188"/>
       <use xlink:href="#DejaVuSans-31" x="290.576172"/>
      </g>
     </g>
    </g>
    <g id="xtick_9">
     <g id="line2d_39">
      <g>
       <use xlink:href="#m32cc954b03" x="638.499091" y="442.656" style="stroke: #000000; stroke-width: 0.8"/>
      </g>
     </g>
     <g id="text_20">
      <!-- 2 -->
      <g transform="translate(635.317841 457.254437) scale(0.1 -0.1)">
       <use xlink:href="#DejaVuSans-32"/>
      </g>
     </g>
    </g>
    <g id="xtick_10">
     <g id="line2d_40">
      <g>
       <use xlink:href="#m32cc954b03" x="764.242516" y="442.656" style="stroke: #000000; stroke-width: 0.8"/>
      </g>
     </g>
     <g id="text_21">
      <!-- 3 -->
      <g transform="translate(761.061266 457.254437) scale(0.1 -0.1)">
       <use xlink:href="#DejaVuSans-33"/>
      </g>
     </g>
    </g>
    <g id="xtick_11">
     <g id="line2d_41">
      <g>
       <use xlink:href="#m32cc954b03" x="898.657902" y="442.656" style="stroke: #000000; stroke-width: 0.8"/>
      </g>
     </g>
     <g id="text_22">
      <!-- 4 -->
      <g transform="translate(895.476652 457.254437) scale(0.1 -0.1)">
       <use xlink:href="#DejaVuSans-34"/>
      </g>
     </g>
    </g>
   </g>
   <g id="matplotlib.axis_4">
    <g id="ytick_11">
     <g id="line2d_42">
      <path d="M 504.083705 442.656 
L 929.226562 442.656 
" clip-path="url(#p6ec5f1e6a0)" style="fill: none; stroke: #b0b0b0; stroke-opacity: 0.2; stroke-width: 0.8; stroke-linecap: square"/>
     </g>
     <g id="line2d_43">
      <g>
       <use xlink:href="#mcd33d0db29" x="504.083705" y="442.656" style="stroke: #000000; stroke-width: 0.8"/>
      </g>
     </g>
     <g id="text_23">
      <!-- 40% -->
      <g transform="translate(474.857143 446.455219) scale(0.1 -0.1)">
       <use xlink:href="#DejaVuSans-34"/>
       <use xlink:href="#DejaVuSans-30" x="63.623047"/>
       <use xlink:href="#DejaVuSans-25" x="127.246094"/>
      </g>
     </g>
    </g>
    <g id="ytick_12">
     <g id="line2d_44">
      <path d="M 504.083705 342.864 
L 929.226562 342.864 
" clip-path="url(#p6ec5f1e6a0)" style="fill: none; stroke: #b0b0b0; stroke-opacity: 0.2; stroke-width: 0.8; stroke-linecap: square"/>
     </g>
     <g id="line2d_45">
      <g>
       <use xlink:href="#mcd33d0db29" x="504.083705" y="342.864" style="stroke: #000000; stroke-width: 0.8"/>
      </g>
     </g>
     <g id="text_24">
      <!-- 45% -->
      <g transform="translate(474.857143 346.663219) scale(0.1 -0.1)">
       <use xlink:href="#DejaVuSans-34"/>
       <use xlink:href="#DejaVuSans-35" x="63.623047"/>
       <use xlink:href="#DejaVuSans-25" x="127.246094"/>
      </g>
     </g>
    </g>
    <g id="ytick_13">
     <g id="line2d_46">
      <path d="M 504.083705 243.072 
L 929.226562 243.072 
" clip-path="url(#p6ec5f1e6a0)" style="fill: none; stroke: #b0b0b0; stroke-opacity: 0.2; stroke-width: 0.8; stroke-linecap: square"/>
     </g>
     <g id="line2d_47">
      <g>
       <use xlink:href="#mcd33d0db29" x="504.083705" y="243.072" style="stroke: #000000; stroke-width: 0.8"/>
      </g>
     </g>
     <g id="text_25">
      <!-- 50% -->
      <g transform="translate(474.857143 246.871219) scale(0.1 -0.1)">
       <use xlink:href="#DejaVuSans-35"/>
       <use xlink:href="#DejaVuSans-30" x="63.623047"/>
       <use xlink:href="#DejaVuSans-25" x="127.246094"/>
      </g>
     </g>
    </g>
    <g id="ytick_14">
     <g id="line2d_48">
      <path d="M 504.083705 143.28 
L 929.226562 143.28 
" clip-path="url(#p6ec5f1e6a0)" style="fill: none; stroke: #b0b0b0; stroke-opacity: 0.2; stroke-width: 0.8; stroke-linecap: square"/>
     </g>
     <g id="line2d_49">
      <g>
       <use xlink:href="#mcd33d0db29" x="504.083705" y="143.28" style="stroke: #000000; stroke-width: 0.8"/>
      </g>
     </g>
     <g id="text_26">
      <!-- 55% -->
      <g transform="translate(474.857143 147.079219) scale(0.1 -0.1)">
       <use xlink:href="#DejaVuSans-35"/>
       <use xlink:href="#DejaVuSans-35" x="63.623047"/>
       <use xlink:href="#DejaVuSans-25" x="127.246094"/>
      </g>
     </g>
    </g>
    <g id="ytick_15">
     <g id="line2d_50">
      <path d="M 504.083705 43.488 
L 929.226562 43.488 
" clip-path="url(#p6ec5f1e6a0)" style="fill: none; stroke: #b0b0b0; stroke-opacity: 0.2; stroke-width: 0.8; stroke-linecap: square"/>
     </g>
     <g id="line2d_51">
      <g>
       <use xlink:href="#mcd33d0db29" x="504.083705" y="43.488" style="stroke: #000000; stroke-width: 0.8"/>
      </g>
     </g>
     <g id="text_27">
      <!-- 60% -->
      <g transform="translate(474.857143 47.287219) scale(0.1 -0.1)">
       <defs>
        <path id="DejaVuSans-36" d="M 2113 2584 
Q 1688 2584 1439 2293 
Q 1191 2003 1191 1497 
Q 1191 994 1439 701 
Q 1688 409 2113 409 
Q 2538 409 2786 701 
Q 3034 994 3034 1497 
Q 3034 2003 2786 2293 
Q 2538 2584 2113 2584 
z
M 3366 4563 
L 3366 3988 
Q 3128 4100 2886 4159 
Q 2644 4219 2406 4219 
Q 1781 4219 1451 3797 
Q 1122 3375 1075 2522 
Q 1259 2794 1537 2939 
Q 1816 3084 2150 3084 
Q 2853 3084 3261 2657 
Q 3669 2231 3669 1497 
Q 3669 778 3244 343 
Q 2819 -91 2113 -91 
Q 1303 -91 875 529 
Q 447 1150 447 2328 
Q 447 3434 972 4092 
Q 1497 4750 2381 4750 
Q 2619 4750 2861 4703 
Q 3103 4656 3366 4563 
z
" transform="scale(0.015625)"/>
       </defs>
       <use xlink:href="#DejaVuSans-36"/>
       <use xlink:href="#DejaVuSans-30" x="63.623047"/>
       <use xlink:href="#DejaVuSans-25" x="127.246094"/>
      </g>
     </g>
    </g>
   </g>
   <g id="line2d_52">
    <path d="M 920.337803 442.656 
L 920.337803 43.488 
" clip-path="url(#p6ec5f1e6a0)" style="fill: none; stroke-dasharray: 1.5,4.5; stroke-dashoffset: 0; stroke: #000000; stroke-width: 1.5"/>
   </g>
   <g id="line2d_53">
    <path d="M 504.083705 243.072 
L 929.226562 243.072 
" clip-path="url(#p6ec5f1e6a0)" style="fill: none; stroke: #1f77b4; stroke-width: 1.5; stroke-linecap: square"/>
   </g>
   <g id="line2d_54">
    <path d="M 742.562616 277.00128 
L 803.266338 300.95136 
L 885.649962 265.02624 
L 916.001823 221.11776 
" clip-path="url(#p6ec5f1e6a0)" style="fill: none; stroke: #9aff01; stroke-opacity: 0.65; stroke-width: 2; stroke-linecap: square"/>
    <g clip-path="url(#p6ec5f1e6a0)">
     <use xlink:href="#m1479772be5" x="742.562616" y="277.00128" style="fill: #9aff01; fill-opacity: 0.65; stroke: #9aff01; stroke-opacity: 0.65; stroke-linejoin: miter"/>
     <use xlink:href="#m1479772be5" x="803.266338" y="300.95136" style="fill: #9aff01; fill-opacity: 0.65; stroke: #9aff01; stroke-opacity: 0.65; stroke-linejoin: miter"/>
     <use xlink:href="#m1479772be5" x="885.649962" y="265.02624" style="fill: #9aff01; fill-opacity: 0.65; stroke: #9aff01; stroke-opacity: 0.65; stroke-linejoin: miter"/>
     <use xlink:href="#m1479772be5" x="916.001823" y="221.11776" style="fill: #9aff01; fill-opacity: 0.65; stroke: #9aff01; stroke-opacity: 0.65; stroke-linejoin: miter"/>
    </g>
   </g>
   <g id="line2d_55">
    <path d="M 742.562616 209.14272 
L 803.266338 185.19264 
L 885.649962 221.11776 
L 916.001823 265.02624 
" clip-path="url(#p6ec5f1e6a0)" style="fill: none; stroke: #ac2c5a; stroke-opacity: 0.65; stroke-width: 2; stroke-linecap: square"/>
    <g clip-path="url(#p6ec5f1e6a0)">
     <use xlink:href="#m65558f3a79" x="742.562616" y="209.14272" style="fill: #ac2c5a; fill-opacity: 0.65; stroke: #ac2c5a; stroke-opacity: 0.65; stroke-linejoin: miter"/>
     <use xlink:href="#m65558f3a79" x="803.266338" y="185.19264" style="fill: #ac2c5a; fill-opacity: 0.65; stroke: #ac2c5a; stroke-opacity: 0.65; stroke-linejoin: miter"/>
     <use xlink:href="#m65558f3a79" x="885.649962" y="221.11776" style="fill: #ac2c5a; fill-opacity: 0.65; stroke: #ac2c5a; stroke-opacity: 0.65; stroke-linejoin: miter"/>
     <use xlink:href="#m65558f3a79" x="916.001823" y="265.02624" style="fill: #ac2c5a; fill-opacity: 0.65; stroke: #ac2c5a; stroke-opacity: 0.65; stroke-linejoin: miter"/>
    </g>
   </g>
   <g id="patch_8">
    <path d="M 504.083705 442.656 
L 504.083705 43.488 
" style="fill: none; stroke: #000000; stroke-width: 0.8; stroke-linejoin: miter; stroke-linecap: square"/>
   </g>
   <g id="patch_9">
    <path d="M 929.226562 442.656 
L 929.226562 43.488 
" style="fill: none; stroke: #000000; stroke-width: 0.8; stroke-linejoin: miter; stroke-linecap: square"/>
   </g>
   <g id="patch_10">
    <path d="M 504.083705 442.656 
L 929.226562 442.656 
" style="fill: none; stroke: #000000; stroke-width: 0.8; stroke-linejoin: miter; stroke-linecap: square"/>
   </g>
   <g id="patch_11">
    <path d="M 504.083705 43.488 
L 929.226562 43.488 
" style="fill: none; stroke: #000000; stroke-width: 0.8; stroke-linejoin: miter; stroke-linecap: square"/>
   </g>
   <g id="PathCollection_10">
    <g clip-path="url(#p6ec5f1e6a0)">
     <use xlink:href="#m5552f20d4c" x="920.337803" y="305.541792" style="fill: #9aff01; stroke: #9aff01"/>
    </g>
   </g>
   <g id="PathCollection_11">
    <g clip-path="url(#p6ec5f1e6a0)">
     <use xlink:href="#m8e728eb3be" x="920.337803" y="180.801792" style="fill: #ac2c5a; stroke: #ac2c5a"/>
    </g>
   </g>
   <g id="text_28">
    <!-- 2nd round -->
    <g transform="translate(685.902321 37.488) scale(0.12 -0.12)">
     <use xlink:href="#DejaVuSans-32"/>
     <use xlink:href="#DejaVuSans-6e" x="63.623047"/>
     <use xlink:href="#DejaVuSans-64" x="127.001953"/>
     <use xlink:href="#DejaVuSans-20" x="190.478516"/>
     <use xlink:href="#DejaVuSans-72" x="222.265625"/>
     <use xlink:href="#DejaVuSans-6f" x="261.128906"/>
     <use xlink:href="#DejaVuSans-75" x="322.310547"/>
     <use xlink:href="#DejaVuSans-6e" x="385.689453"/>
     <use xlink:href="#DejaVuSans-64" x="449.068359"/>
    </g>
   </g>
  </g>
  <g id="text_29">
   <!-- MEDIAN SK -->
   <g transform="translate(434.824688 16.318125) scale(0.12 -0.12)">
    <defs>
     <path id="DejaVuSans-4d" d="M 628 4666 
L 1569 4666 
L 2759 1491 
L 3956 4666 
L 4897 4666 
L 4897 0 
L 4281 0 
L 4281 4097 
L 3078 897 
L 2444 897 
L 1241 4097 
L 1241 0 
L 628 0 
L 628 4666 
z
" transform="scale(0.015625)"/>
     <path id="DejaVuSans-45" d="M 628 4666 
L 3578 4666 
L 3578 4134 
L 1259 4134 
L 1259 2753 
L 3481 2753 
L 3481 2222 
L 1259 2222 
L 1259 531 
L 3634 531 
L 3634 0 
L 628 0 
L 628 4666 
z
" transform="scale(0.015625)"/>
     <path id="DejaVuSans-44" d="M 1259 4147 
L 1259 519 
L 2022 519 
Q 2988 519 3436 956 
Q 3884 1394 3884 2338 
Q 3884 3275 3436 3711 
Q 2988 4147 2022 4147 
L 1259 4147 
z
M 628 4666 
L 1925 4666 
Q 3281 4666 3915 4102 
Q 4550 3538 4550 2338 
Q 4550 1131 3912 565 
Q 3275 0 1925 0 
L 628 0 
L 628 4666 
z
" transform="scale(0.015625)"/>
     <path id="DejaVuSans-49" d="M 628 4666 
L 1259 4666 
L 1259 0 
L 628 0 
L 628 4666 
z
" transform="scale(0.015625)"/>
     <path id="DejaVuSans-41" d="M 2188 4044 
L 1331 1722 
L 3047 1722 
L 2188 4044 
z
M 1831 4666 
L 2547 4666 
L 4325 0 
L 3669 0 
L 3244 1197 
L 1141 1197 
L 716 0 
L 50 0 
L 1831 4666 
z
" transform="scale(0.015625)"/>
     <path id="DejaVuSans-4e" d="M 628 4666 
L 1478 4666 
L 3547 763 
L 3547 4666 
L 4159 4666 
L 4159 0 
L 3309 0 
L 1241 3903 
L 1241 0 
L 628 0 
L 628 4666 
z
" transform="scale(0.015625)"/>
     <path id="DejaVuSans-53" d="M 3425 4513 
L 3425 3897 
Q 3066 4069 2747 4153 
Q 2428 4238 2131 4238 
Q 1616 4238 1336 4038 
Q 1056 3838 1056 3469 
Q 1056 3159 1242 3001 
Q 1428 2844 1947 2747 
L 2328 2669 
Q 3034 2534 3370 2195 
Q 3706 1856 3706 1288 
Q 3706 609 3251 259 
Q 2797 -91 1919 -91 
Q 1588 -91 1214 -16 
Q 841 59 441 206 
L 441 856 
Q 825 641 1194 531 
Q 1563 422 1919 422 
Q 2459 422 2753 634 
Q 3047 847 3047 1241 
Q 3047 1584 2836 1778 
Q 2625 1972 2144 2069 
L 1759 2144 
Q 1053 2284 737 2584 
Q 422 2884 422 3419 
Q 422 4038 858 4394 
Q 1294 4750 2059 4750 
Q 2388 4750 2728 4690 
Q 3069 4631 3425 4513 
z
" transform="scale(0.015625)"/>
     <path id="DejaVuSans-4b" d="M 628 4666 
L 1259 4666 
L 1259 2694 
L 3353 4666 
L 4166 4666 
L 1850 2491 
L 4331 0 
L 3500 0 
L 1259 2247 
L 1259 0 
L 628 0 
L 628 4666 
z
" transform="scale(0.015625)"/>
    </defs>
    <use xlink:href="#DejaVuSans-4d"/>
    <use xlink:href="#DejaVuSans-45" x="86.279297"/>
    <use xlink:href="#DejaVuSans-44" x="149.462891"/>
    <use xlink:href="#DejaVuSans-49" x="226.464844"/>
    <use xlink:href="#DejaVuSans-41" x="255.957031"/>
    <use xlink:href="#DejaVuSans-4e" x="324.365234"/>
    <use xlink:href="#DejaVuSans-20" x="399.169922"/>
    <use xlink:href="#DejaVuSans-53" x="430.957031"/>
    <use xlink:href="#DejaVuSans-4b" x="494.433594"/>
   </g>
  </g>
  <g id="legend_1">
   <g id="line2d_56">
    <path d="M 26.310156 478.941094 
L 36.310156 478.941094 
L 46.310156 478.941094 
" style="fill: none; stroke: #ac2c5a; stroke-opacity: 0.65; stroke-width: 2; stroke-linecap: square"/>
   </g>
   <g id="text_30">
    <!-- P. Pellegrini (Hlas-*) -->
    <g transform="translate(54.310156 482.441094) scale(0.1 -0.1)">
     <defs>
      <path id="DejaVuSans-50" d="M 1259 4147 
L 1259 2394 
L 2053 2394 
Q 2494 2394 2734 2622 
Q 2975 2850 2975 3272 
Q 2975 3691 2734 3919 
Q 2494 4147 2053 4147 
L 1259 4147 
z
M 628 4666 
L 2053 4666 
Q 2838 4666 3239 4311 
Q 3641 3956 3641 3272 
Q 3641 2581 3239 2228 
Q 2838 1875 2053 1875 
L 1259 1875 
L 1259 0 
L 628 0 
L 628 4666 
z
" transform="scale(0.015625)"/>
      <path id="DejaVuSans-2e" d="M 684 794 
L 1344 794 
L 1344 0 
L 684 0 
L 684 794 
z
" transform="scale(0.015625)"/>
      <path id="DejaVuSans-65" d="M 3597 1894 
L 3597 1613 
L 953 1613 
Q 991 1019 1311 708 
Q 1631 397 2203 397 
Q 2534 397 2845 478 
Q 3156 559 3463 722 
L 3463 178 
Q 3153 47 2828 -22 
Q 2503 -91 2169 -91 
Q 1331 -91 842 396 
Q 353 884 353 1716 
Q 353 2575 817 3079 
Q 1281 3584 2069 3584 
Q 2775 3584 3186 3129 
Q 3597 2675 3597 1894 
z
M 3022 2063 
Q 3016 2534 2758 2815 
Q 2500 3097 2075 3097 
Q 1594 3097 1305 2825 
Q 1016 2553 972 2059 
L 3022 2063 
z
" transform="scale(0.015625)"/>
      <path id="DejaVuSans-6c" d="M 603 4863 
L 1178 4863 
L 1178 0 
L 603 0 
L 603 4863 
z
" transform="scale(0.015625)"/>
      <path id="DejaVuSans-67" d="M 2906 1791 
Q 2906 2416 2648 2759 
Q 2391 3103 1925 3103 
Q 1463 3103 1205 2759 
Q 947 2416 947 1791 
Q 947 1169 1205 825 
Q 1463 481 1925 481 
Q 2391 481 2648 825 
Q 2906 1169 2906 1791 
z
M 3481 434 
Q 3481 -459 3084 -895 
Q 2688 -1331 1869 -1331 
Q 1566 -1331 1297 -1286 
Q 1028 -1241 775 -1147 
L 775 -588 
Q 1028 -725 1275 -790 
Q 1522 -856 1778 -856 
Q 2344 -856 2625 -561 
Q 2906 -266 2906 331 
L 2906 616 
Q 2728 306 2450 153 
Q 2172 0 1784 0 
Q 1141 0 747 490 
Q 353 981 353 1791 
Q 353 2603 747 3093 
Q 1141 3584 1784 3584 
Q 2172 3584 2450 3431 
Q 2728 3278 2906 2969 
L 2906 3500 
L 3481 3500 
L 3481 434 
z
" transform="scale(0.015625)"/>
      <path id="DejaVuSans-69" d="M 603 3500 
L 1178 3500 
L 1178 0 
L 603 0 
L 603 3500 
z
M 603 4863 
L 1178 4863 
L 1178 4134 
L 603 4134 
L 603 4863 
z
" transform="scale(0.015625)"/>
      <path id="DejaVuSans-28" d="M 1984 4856 
Q 1566 4138 1362 3434 
Q 1159 2731 1159 2009 
Q 1159 1288 1364 580 
Q 1569 -128 1984 -844 
L 1484 -844 
Q 1016 -109 783 600 
Q 550 1309 550 2009 
Q 550 2706 781 3412 
Q 1013 4119 1484 4856 
L 1984 4856 
z
" transform="scale(0.015625)"/>
      <path id="DejaVuSans-48" d="M 628 4666 
L 1259 4666 
L 1259 2753 
L 3553 2753 
L 3553 4666 
L 4184 4666 
L 4184 0 
L 3553 0 
L 3553 2222 
L 1259 2222 
L 1259 0 
L 628 0 
L 628 4666 
z
" transform="scale(0.015625)"/>
      <path id="DejaVuSans-61" d="M 2194 1759 
Q 1497 1759 1228 1600 
Q 959 1441 959 1056 
Q 959 750 1161 570 
Q 1363 391 1709 391 
Q 2188 391 2477 730 
Q 2766 1069 2766 1631 
L 2766 1759 
L 2194 1759 
z
M 3341 1997 
L 3341 0 
L 2766 0 
L 2766 531 
Q 2569 213 2275 61 
Q 1981 -91 1556 -91 
Q 1019 -91 701 211 
Q 384 513 384 1019 
Q 384 1609 779 1909 
Q 1175 2209 1959 2209 
L 2766 2209 
L 2766 2266 
Q 2766 2663 2505 2880 
Q 2244 3097 1772 3097 
Q 1472 3097 1187 3025 
Q 903 2953 641 2809 
L 641 3341 
Q 956 3463 1253 3523 
Q 1550 3584 1831 3584 
Q 2591 3584 2966 3190 
Q 3341 2797 3341 1997 
z
" transform="scale(0.015625)"/>
      <path id="DejaVuSans-2a" d="M 3009 3897 
L 1888 3291 
L 3009 2681 
L 2828 2375 
L 1778 3009 
L 1778 1831 
L 1422 1831 
L 1422 3009 
L 372 2375 
L 191 2681 
L 1313 3291 
L 191 3897 
L 372 4206 
L 1422 3572 
L 1422 4750 
L 1778 4750 
L 1778 3572 
L 2828 4206 
L 3009 3897 
z
" transform="scale(0.015625)"/>
      <path id="DejaVuSans-29" d="M 513 4856 
L 1013 4856 
Q 1481 4119 1714 3412 
Q 1947 2706 1947 2009 
Q 1947 1309 1714 600 
Q 1481 -109 1013 -844 
L 513 -844 
Q 928 -128 1133 580 
Q 1338 1288 1338 2009 
Q 1338 2731 1133 3434 
Q 928 4138 513 4856 
z
" transform="scale(0.015625)"/>
     </defs>
     <use xlink:href="#DejaVuSans-50"/>
     <use xlink:href="#DejaVuSans-2e" x="44.677734"/>
     <use xlink:href="#DejaVuSans-20" x="76.464844"/>
     <use xlink:href="#DejaVuSans-50" x="108.251953"/>
     <use xlink:href="#DejaVuSans-65" x="164.929688"/>
     <use xlink:href="#DejaVuSans-6c" x="226.453125"/>
     <use xlink:href="#DejaVuSans-6c" x="254.236328"/>
     <use xlink:href="#DejaVuSans-65" x="282.019531"/>
     <use xlink:href="#DejaVuSans-67" x="343.542969"/>
     <use xlink:href="#DejaVuSans-72" x="407.019531"/>
     <use xlink:href="#DejaVuSans-69" x="448.132812"/>
     <use xlink:href="#DejaVuSans-6e" x="475.916016"/>
     <use xlink:href="#DejaVuSans-69" x="539.294922"/>
     <use xlink:href="#DejaVuSans-20" x="567.078125"/>
     <use xlink:href="#DejaVuSans-28" x="598.865234"/>
     <use xlink:href="#DejaVuSans-48" x="637.878906"/>
     <use xlink:href="#DejaVuSans-6c" x="713.074219"/>
     <use xlink:href="#DejaVuSans-61" x="740.857422"/>
     <use xlink:href="#DejaVuSans-73" x="802.136719"/>
     <use xlink:href="#DejaVuSans-2d" x="854.236328"/>
     <use xlink:href="#DejaVuSans-2a" x="890.320312"/>
     <use xlink:href="#DejaVuSans-29" x="940.320312"/>
    </g>
   </g>
   <g id="line2d_57">
    <path d="M 26.310156 493.619219 
L 36.310156 493.619219 
L 46.310156 493.619219 
" style="fill: none; stroke: #9aff01; stroke-opacity: 0.65; stroke-width: 2; stroke-linecap: square"/>
   </g>
   <g id="text_31">
    <!-- I. Korok (*~SaS-ECR) -->
    <g transform="translate(54.310156 497.119219) scale(0.1 -0.1)">
     <defs>
      <path id="DejaVuSans-10d" d="M 3122 3366 
L 3122 2828 
Q 2878 2963 2633 3030 
Q 2388 3097 2138 3097 
Q 1578 3097 1268 2742 
Q 959 2388 959 1747 
Q 959 1106 1268 751 
Q 1578 397 2138 397 
Q 2388 397 2633 464 
Q 2878 531 3122 666 
L 3122 134 
Q 2881 22 2623 -34 
Q 2366 -91 2075 -91 
Q 1284 -91 818 406 
Q 353 903 353 1747 
Q 353 2603 823 3093 
Q 1294 3584 2113 3584 
Q 2378 3584 2631 3529 
Q 2884 3475 3122 3366 
z
M 1797 3944 
L 1031 5119 
L 1466 5119 
L 2028 4353 
L 2591 5119 
L 3025 5119 
L 2259 3944 
L 1797 3944 
z
" transform="scale(0.015625)"/>
      <path id="DejaVuSans-6b" d="M 581 4863 
L 1159 4863 
L 1159 1991 
L 2875 3500 
L 3609 3500 
L 1753 1863 
L 3688 0 
L 2938 0 
L 1159 1709 
L 1159 0 
L 581 0 
L 581 4863 
z
" transform="scale(0.015625)"/>
      <path id="DejaVuSans-7e" d="M 4684 2553 
L 4684 1997 
Q 4356 1750 4076 1644 
Q 3797 1538 3494 1538 
Q 3150 1538 2694 1722 
Q 2659 1734 2644 1741 
Q 2622 1750 2575 1766 
Q 2091 1959 1797 1959 
Q 1522 1959 1253 1839 
Q 984 1719 678 1459 
L 678 2016 
Q 1006 2263 1286 2370 
Q 1566 2478 1869 2478 
Q 2213 2478 2672 2291 
Q 2703 2278 2719 2272 
Q 2744 2263 2788 2247 
Q 3272 2053 3566 2053 
Q 3834 2053 4098 2172 
Q 4363 2291 4684 2553 
z
" transform="scale(0.015625)"/>
      <path id="DejaVuSans-43" d="M 4122 4306 
L 4122 3641 
Q 3803 3938 3442 4084 
Q 3081 4231 2675 4231 
Q 1875 4231 1450 3742 
Q 1025 3253 1025 2328 
Q 1025 1406 1450 917 
Q 1875 428 2675 428 
Q 3081 428 3442 575 
Q 3803 722 4122 1019 
L 4122 359 
Q 3791 134 3420 21 
Q 3050 -91 2638 -91 
Q 1578 -91 968 557 
Q 359 1206 359 2328 
Q 359 3453 968 4101 
Q 1578 4750 2638 4750 
Q 3056 4750 3426 4639 
Q 3797 4528 4122 4306 
z
" transform="scale(0.015625)"/>
      <path id="DejaVuSans-52" d="M 2841 2188 
Q 3044 2119 3236 1894 
Q 3428 1669 3622 1275 
L 4263 0 
L 3584 0 
L 2988 1197 
Q 2756 1666 2539 1819 
Q 2322 1972 1947 1972 
L 1259 1972 
L 1259 0 
L 628 0 
L 628 4666 
L 2053 4666 
Q 2853 4666 3247 4331 
Q 3641 3997 3641 3322 
Q 3641 2881 3436 2590 
Q 3231 2300 2841 2188 
z
M 1259 4147 
L 1259 2491 
L 2053 2491 
Q 2509 2491 2742 2702 
Q 2975 2913 2975 3322 
Q 2975 3731 2742 3939 
Q 2509 4147 2053 4147 
L 1259 4147 
z
" transform="scale(0.015625)"/>
     </defs>
     <use xlink:href="#DejaVuSans-49"/>
     <use xlink:href="#DejaVuSans-2e" x="29.492188"/>
     <use xlink:href="#DejaVuSans-20" x="61.279297"/>
     <use xlink:href="#DejaVuSans-4b" x="93.066406"/>
     <use xlink:href="#DejaVuSans-6f" x="153.642578"/>
     <use xlink:href="#DejaVuSans-72" x="214.824219"/>
     <use xlink:href="#DejaVuSans-10d" x="253.6875"/>
     <use xlink:href="#DejaVuSans-6f" x="308.667969"/>
     <use xlink:href="#DejaVuSans-6b" x="369.849609"/>
     <use xlink:href="#DejaVuSans-20" x="427.759766"/>
     <use xlink:href="#DejaVuSans-28" x="459.546875"/>
     <use xlink:href="#DejaVuSans-2a" x="498.560547"/>
     <use xlink:href="#DejaVuSans-7e" x="548.560547"/>
     <use xlink:href="#DejaVuSans-53" x="632.349609"/>
     <use xlink:href="#DejaVuSans-61" x="695.826172"/>
     <use xlink:href="#DejaVuSans-53" x="757.105469"/>
     <use xlink:href="#DejaVuSans-2d" x="820.582031"/>
     <use xlink:href="#DejaVuSans-45" x="856.666016"/>
     <use xlink:href="#DejaVuSans-43" x="919.849609"/>
     <use xlink:href="#DejaVuSans-52" x="989.673828"/>
     <use xlink:href="#DejaVuSans-29" x="1059.15625"/>
    </g>
   </g>
   <g id="line2d_58">
    <path d="M 184.130469 478.941094 
L 194.130469 478.941094 
L 204.130469 478.941094 
" style="fill: none; stroke: #889c4b; stroke-opacity: 0.65; stroke-width: 2; stroke-linecap: square"/>
   </g>
   <g id="text_32">
    <!-- I. Matovi (OaNO-EPP) -->
    <g transform="translate(212.130469 482.441094) scale(0.1 -0.1)">
     <defs>
      <path id="DejaVuSans-76" d="M 191 3500 
L 800 3500 
L 1894 563 
L 2988 3500 
L 3597 3500 
L 2284 0 
L 1503 0 
L 191 3500 
z
" transform="scale(0.015625)"/>
      <path id="DejaVuSans-4f" d="M 2522 4238 
Q 1834 4238 1429 3725 
Q 1025 3213 1025 2328 
Q 1025 1447 1429 934 
Q 1834 422 2522 422 
Q 3209 422 3611 934 
Q 4013 1447 4013 2328 
Q 4013 3213 3611 3725 
Q 3209 4238 2522 4238 
z
M 2522 4750 
Q 3503 4750 4090 4092 
Q 4678 3434 4678 2328 
Q 4678 1225 4090 567 
Q 3503 -91 2522 -91 
Q 1538 -91 948 565 
Q 359 1222 359 2328 
Q 359 3434 948 4092 
Q 1538 4750 2522 4750 
z
" transform="scale(0.015625)"/>
      <path id="DejaVuSans-13d" d="M 2097 4665 
L 2719 4665 
L 2353 3490 
L 1875 3490 
L 2097 4665 
z
M 628 4666 
L 1259 4666 
L 1259 531 
L 3531 531 
L 3531 0 
L 628 0 
L 628 4666 
z
" transform="scale(0.015625)"/>
     </defs>
     <use xlink:href="#DejaVuSans-49"/>
     <use xlink:href="#DejaVuSans-2e" x="29.492188"/>
     <use xlink:href="#DejaVuSans-20" x="61.279297"/>
     <use xlink:href="#DejaVuSans-4d" x="93.066406"/>
     <use xlink:href="#DejaVuSans-61" x="179.345703"/>
     <use xlink:href="#DejaVuSans-74" x="240.625"/>
     <use xlink:href="#DejaVuSans-6f" x="279.833984"/>
     <use xlink:href="#DejaVuSans-76" x="341.015625"/>
     <use xlink:href="#DejaVuSans-69" x="400.195312"/>
     <use xlink:href="#DejaVuSans-10d" x="427.978516"/>
     <use xlink:href="#DejaVuSans-20" x="482.958984"/>
     <use xlink:href="#DejaVuSans-28" x="514.746094"/>
     <use xlink:href="#DejaVuSans-4f" x="553.759766"/>
     <use xlink:href="#DejaVuSans-13d" x="632.470703"/>
     <use xlink:href="#DejaVuSans-61" x="688.183594"/>
     <use xlink:href="#DejaVuSans-4e" x="749.462891"/>
     <use xlink:href="#DejaVuSans-4f" x="824.267578"/>
     <use xlink:href="#DejaVuSans-2d" x="905.728516"/>
     <use xlink:href="#DejaVuSans-45" x="941.8125"/>
     <use xlink:href="#DejaVuSans-50" x="1004.996094"/>
     <use xlink:href="#DejaVuSans-50" x="1065.298828"/>
     <use xlink:href="#DejaVuSans-29" x="1125.601562"/>
    </g>
   </g>
   <g id="line2d_59">
    <path d="M 184.130469 493.941094 
L 194.130469 493.941094 
L 204.130469 493.941094 
" style="fill: none; stroke: #d82626; stroke-opacity: 0.65; stroke-width: 2; stroke-linecap: square"/>
   </g>
   <g id="text_33">
    <!-- J. Kubi (*) -->
    <g transform="translate(212.130469 497.441094) scale(0.1 -0.1)">
     <defs>
      <path id="DejaVuSans-4a" d="M 628 4666 
L 1259 4666 
L 1259 325 
Q 1259 -519 939 -900 
Q 619 -1281 -91 -1281 
L -331 -1281 
L -331 -750 
L -134 -750 
Q 284 -750 456 -515 
Q 628 -281 628 325 
L 628 4666 
z
" transform="scale(0.015625)"/>
      <path id="DejaVuSans-62" d="M 3116 1747 
Q 3116 2381 2855 2742 
Q 2594 3103 2138 3103 
Q 1681 3103 1420 2742 
Q 1159 2381 1159 1747 
Q 1159 1113 1420 752 
Q 1681 391 2138 391 
Q 2594 391 2855 752 
Q 3116 1113 3116 1747 
z
M 1159 2969 
Q 1341 3281 1617 3432 
Q 1894 3584 2278 3584 
Q 2916 3584 3314 3078 
Q 3713 2572 3713 1747 
Q 3713 922 3314 415 
Q 2916 -91 2278 -91 
Q 1894 -91 1617 61 
Q 1341 213 1159 525 
L 1159 0 
L 581 0 
L 581 4863 
L 1159 4863 
L 1159 2969 
z
" transform="scale(0.015625)"/>
      <path id="DejaVuSans-161" d="M 2834 3397 
L 2834 2853 
Q 2591 2978 2328 3040 
Q 2066 3103 1784 3103 
Q 1356 3103 1142 2972 
Q 928 2841 928 2578 
Q 928 2378 1081 2264 
Q 1234 2150 1697 2047 
L 1894 2003 
Q 2506 1872 2764 1633 
Q 3022 1394 3022 966 
Q 3022 478 2636 193 
Q 2250 -91 1575 -91 
Q 1294 -91 989 -36 
Q 684 19 347 128 
L 347 722 
Q 666 556 975 473 
Q 1284 391 1588 391 
Q 1994 391 2212 530 
Q 2431 669 2431 922 
Q 2431 1156 2273 1281 
Q 2116 1406 1581 1522 
L 1381 1569 
Q 847 1681 609 1914 
Q 372 2147 372 2553 
Q 372 3047 722 3315 
Q 1072 3584 1716 3584 
Q 2034 3584 2315 3537 
Q 2597 3491 2834 3397 
z
M 1503 3944 
L 738 5119 
L 1172 5119 
L 1734 4353 
L 2297 5119 
L 2731 5119 
L 1966 3944 
L 1503 3944 
z
M 1722 3584 
L 1722 3584 
z
" transform="scale(0.015625)"/>
     </defs>
     <use xlink:href="#DejaVuSans-4a"/>
     <use xlink:href="#DejaVuSans-2e" x="29.492188"/>
     <use xlink:href="#DejaVuSans-20" x="61.279297"/>
     <use xlink:href="#DejaVuSans-4b" x="93.066406"/>
     <use xlink:href="#DejaVuSans-75" x="153.642578"/>
     <use xlink:href="#DejaVuSans-62" x="217.021484"/>
     <use xlink:href="#DejaVuSans-69" x="280.498047"/>
     <use xlink:href="#DejaVuSans-161" x="308.28125"/>
     <use xlink:href="#DejaVuSans-20" x="360.380859"/>
     <use xlink:href="#DejaVuSans-28" x="392.167969"/>
     <use xlink:href="#DejaVuSans-2a" x="431.181641"/>
     <use xlink:href="#DejaVuSans-29" x="481.181641"/>
    </g>
   </g>
   <g id="line2d_60">
    <path d="M 348.594531 478.941094 
L 358.594531 478.941094 
L 368.594531 478.941094 
" style="fill: none; stroke: #752427; stroke-opacity: 0.65; stroke-width: 2; stroke-linecap: square"/>
   </g>
   <g id="text_34">
    <!-- . Harabin (*) -->
    <g transform="translate(376.594531 482.441094) scale(0.1 -0.1)">
     <defs>
      <path id="DejaVuSans-160" d="M 3425 4513 
L 3425 3897 
Q 3066 4069 2747 4153 
Q 2428 4238 2131 4238 
Q 1616 4238 1336 4038 
Q 1056 3838 1056 3469 
Q 1056 3159 1242 3001 
Q 1428 2844 1947 2747 
L 2328 2669 
Q 3034 2534 3370 2195 
Q 3706 1856 3706 1288 
Q 3706 609 3251 259 
Q 2797 -91 1919 -91 
Q 1588 -91 1214 -16 
Q 841 59 441 206 
L 441 856 
Q 825 641 1194 531 
Q 1563 422 1919 422 
Q 2459 422 2753 634 
Q 3047 847 3047 1241 
Q 3047 1584 2836 1778 
Q 2625 1972 2144 2069 
L 1759 2144 
Q 1053 2284 737 2584 
Q 422 2884 422 3419 
Q 422 4038 858 4394 
Q 1294 4750 2059 4750 
Q 2388 4750 2728 4690 
Q 3069 4631 3425 4513 
z
M 1741 5110 
L 1081 5941 
L 1516 5941 
L 2034 5385 
L 2553 5941 
L 2988 5941 
L 2328 5110 
L 1741 5110 
z
" transform="scale(0.015625)"/>
     </defs>
     <use xlink:href="#DejaVuSans-160"/>
     <use xlink:href="#DejaVuSans-2e" x="63.476562"/>
     <use xlink:href="#DejaVuSans-20" x="95.263672"/>
     <use xlink:href="#DejaVuSans-48" x="127.050781"/>
     <use xlink:href="#DejaVuSans-61" x="202.246094"/>
     <use xlink:href="#DejaVuSans-72" x="263.525391"/>
     <use xlink:href="#DejaVuSans-61" x="304.638672"/>
     <use xlink:href="#DejaVuSans-62" x="365.917969"/>
     <use xlink:href="#DejaVuSans-69" x="429.394531"/>
     <use xlink:href="#DejaVuSans-6e" x="457.177734"/>
     <use xlink:href="#DejaVuSans-20" x="520.556641"/>
     <use xlink:href="#DejaVuSans-28" x="552.34375"/>
     <use xlink:href="#DejaVuSans-2a" x="591.357422"/>
     <use xlink:href="#DejaVuSans-29" x="641.357422"/>
    </g>
   </g>
   <g id="line2d_61">
    <path d="M 348.594531 493.619219 
L 358.594531 493.619219 
L 368.594531 493.619219 
" style="fill: none; stroke: #00a650; stroke-opacity: 0.65; stroke-width: 2; stroke-linecap: square"/>
   </g>
   <g id="text_35">
    <!-- K. Forr (MA-EPP) -->
    <g transform="translate(376.594531 497.119219) scale(0.1 -0.1)">
     <defs>
      <path id="DejaVuSans-46" d="M 628 4666 
L 3309 4666 
L 3309 4134 
L 1259 4134 
L 1259 2759 
L 3109 2759 
L 3109 2228 
L 1259 2228 
L 1259 0 
L 628 0 
L 628 4666 
z
" transform="scale(0.015625)"/>
      <path id="DejaVuSans-f3" d="M 1959 3097 
Q 1497 3097 1228 2736 
Q 959 2375 959 1747 
Q 959 1119 1226 758 
Q 1494 397 1959 397 
Q 2419 397 2687 759 
Q 2956 1122 2956 1747 
Q 2956 2369 2687 2733 
Q 2419 3097 1959 3097 
z
M 1959 3584 
Q 2709 3584 3137 3096 
Q 3566 2609 3566 1747 
Q 3566 888 3137 398 
Q 2709 -91 1959 -91 
Q 1206 -91 779 398 
Q 353 888 353 1747 
Q 353 2609 779 3096 
Q 1206 3584 1959 3584 
z
M 2394 5119 
L 3016 5119 
L 1997 3944 
L 1519 3944 
L 2394 5119 
z
" transform="scale(0.015625)"/>
     </defs>
     <use xlink:href="#DejaVuSans-4b"/>
     <use xlink:href="#DejaVuSans-2e" x="65.576172"/>
     <use xlink:href="#DejaVuSans-20" x="97.363281"/>
     <use xlink:href="#DejaVuSans-46" x="129.150391"/>
     <use xlink:href="#DejaVuSans-6f" x="183.044922"/>
     <use xlink:href="#DejaVuSans-72" x="244.226562"/>
     <use xlink:href="#DejaVuSans-72" x="283.589844"/>
     <use xlink:href="#DejaVuSans-f3" x="322.453125"/>
     <use xlink:href="#DejaVuSans-20" x="383.634766"/>
     <use xlink:href="#DejaVuSans-28" x="415.421875"/>
     <use xlink:href="#DejaVuSans-4d" x="454.435547"/>
     <use xlink:href="#DejaVuSans-41" x="540.714844"/>
     <use xlink:href="#DejaVuSans-2d" x="606.873047"/>
     <use xlink:href="#DejaVuSans-45" x="642.957031"/>
     <use xlink:href="#DejaVuSans-50" x="706.140625"/>
     <use xlink:href="#DejaVuSans-50" x="766.443359"/>
     <use xlink:href="#DejaVuSans-29" x="826.746094"/>
    </g>
   </g>
   <g id="line2d_62">
    <path d="M 483.167969 478.941094 
L 493.167969 478.941094 
L 503.167969 478.941094 
" style="fill: none; stroke: #2175d9; stroke-opacity: 0.65; stroke-width: 2; stroke-linecap: square"/>
   </g>
   <g id="text_36">
    <!-- A. Danko (SNS-ID) -->
    <g transform="translate(511.167969 482.441094) scale(0.1 -0.1)">
     <use xlink:href="#DejaVuSans-41"/>
     <use xlink:href="#DejaVuSans-2e" x="66.658203"/>
     <use xlink:href="#DejaVuSans-20" x="98.445312"/>
     <use xlink:href="#DejaVuSans-44" x="130.232422"/>
     <use xlink:href="#DejaVuSans-61" x="207.234375"/>
     <use xlink:href="#DejaVuSans-6e" x="268.513672"/>
     <use xlink:href="#DejaVuSans-6b" x="331.892578"/>
     <use xlink:href="#DejaVuSans-6f" x="386.177734"/>
     <use xlink:href="#DejaVuSans-20" x="447.359375"/>
     <use xlink:href="#DejaVuSans-28" x="479.146484"/>
     <use xlink:href="#DejaVuSans-53" x="518.160156"/>
     <use xlink:href="#DejaVuSans-4e" x="581.636719"/>
     <use xlink:href="#DejaVuSans-53" x="656.441406"/>
     <use xlink:href="#DejaVuSans-2d" x="719.917969"/>
     <use xlink:href="#DejaVuSans-49" x="756.001953"/>
     <use xlink:href="#DejaVuSans-44" x="785.494141"/>
     <use xlink:href="#DejaVuSans-29" x="862.496094"/>
    </g>
   </g>
   <g id="line2d_63">
    <path d="M 621.319531 478.941094 
L 631.319531 478.941094 
L 641.319531 478.941094 
" style="fill: none; stroke: #387722; stroke-opacity: 0.65; stroke-width: 2; stroke-linecap: square"/>
   </g>
   <g id="text_37">
    <!-- M. Kotleba (SNS-NI) -->
    <g transform="translate(649.319531 482.441094) scale(0.1 -0.1)">
     <use xlink:href="#DejaVuSans-4d"/>
     <use xlink:href="#DejaVuSans-2e" x="86.279297"/>
     <use xlink:href="#DejaVuSans-20" x="118.066406"/>
     <use xlink:href="#DejaVuSans-4b" x="149.853516"/>
     <use xlink:href="#DejaVuSans-6f" x="210.429688"/>
     <use xlink:href="#DejaVuSans-74" x="271.611328"/>
     <use xlink:href="#DejaVuSans-6c" x="310.820312"/>
     <use xlink:href="#DejaVuSans-65" x="338.603516"/>
     <use xlink:href="#DejaVuSans-62" x="400.126953"/>
     <use xlink:href="#DejaVuSans-61" x="463.603516"/>
     <use xlink:href="#DejaVuSans-20" x="524.882812"/>
     <use xlink:href="#DejaVuSans-28" x="556.669922"/>
     <use xlink:href="#DejaVuSans-13d" x="595.683594"/>
     <use xlink:href="#DejaVuSans-53" x="651.396484"/>
     <use xlink:href="#DejaVuSans-4e" x="714.873047"/>
     <use xlink:href="#DejaVuSans-53" x="789.677734"/>
     <use xlink:href="#DejaVuSans-2d" x="853.154297"/>
     <use xlink:href="#DejaVuSans-4e" x="889.238281"/>
     <use xlink:href="#DejaVuSans-49" x="964.042969"/>
     <use xlink:href="#DejaVuSans-29" x="993.535156"/>
    </g>
   </g>
   <g id="line2d_64">
    <path d="M 772.578906 478.941094 
L 782.578906 478.941094 
L 792.578906 478.941094 
" style="fill: none; stroke: #fcbd00; stroke-opacity: 0.65; stroke-width: 2; stroke-linecap: square"/>
   </g>
   <g id="text_38">
    <!-- P. Dubovsk (Z~EPP) -->
    <g transform="translate(800.578906 482.441094) scale(0.1 -0.1)">
     <defs>
      <path id="DejaVuSans-fd" d="M 2059 -325 
Q 1816 -950 1584 -1140 
Q 1353 -1331 966 -1331 
L 506 -1331 
L 506 -850 
L 844 -850 
Q 1081 -850 1212 -737 
Q 1344 -625 1503 -206 
L 1606 56 
L 191 3500 
L 800 3500 
L 1894 763 
L 2988 3500 
L 3597 3500 
L 2059 -325 
z
M 2328 5119 
L 2950 5119 
L 1931 3944 
L 1453 3944 
L 2328 5119 
z
" transform="scale(0.015625)"/>
      <path id="DejaVuSans-5a" d="M 359 4666 
L 4025 4666 
L 4025 4184 
L 1075 531 
L 4097 531 
L 4097 0 
L 288 0 
L 288 481 
L 3238 4134 
L 359 4134 
L 359 4666 
z
" transform="scale(0.015625)"/>
     </defs>
     <use xlink:href="#DejaVuSans-50"/>
     <use xlink:href="#DejaVuSans-2e" x="44.677734"/>
     <use xlink:href="#DejaVuSans-20" x="76.464844"/>
     <use xlink:href="#DejaVuSans-44" x="108.251953"/>
     <use xlink:href="#DejaVuSans-75" x="185.253906"/>
     <use xlink:href="#DejaVuSans-62" x="248.632812"/>
     <use xlink:href="#DejaVuSans-6f" x="312.109375"/>
     <use xlink:href="#DejaVuSans-76" x="373.291016"/>
     <use xlink:href="#DejaVuSans-73" x="432.470703"/>
     <use xlink:href="#DejaVuSans-6b" x="484.570312"/>
     <use xlink:href="#DejaVuSans-fd" x="538.855469"/>
     <use xlink:href="#DejaVuSans-20" x="598.035156"/>
     <use xlink:href="#DejaVuSans-28" x="629.822266"/>
     <use xlink:href="#DejaVuSans-5a" x="668.835938"/>
     <use xlink:href="#DejaVuSans-13d" x="737.341797"/>
     <use xlink:href="#DejaVuSans-7e" x="793.054688"/>
     <use xlink:href="#DejaVuSans-45" x="876.84375"/>
     <use xlink:href="#DejaVuSans-50" x="940.027344"/>
     <use xlink:href="#DejaVuSans-50" x="1000.330078"/>
     <use xlink:href="#DejaVuSans-29" x="1060.632812"/>
    </g>
   </g>
  </g>
 </g>
 <defs>
  <clipPath id="p1cb66a3b4c">
   <rect x="36.426563" y="43.488" width="425.142857" height="399.168"/>
  </clipPath>
  <clipPath id="p6ec5f1e6a0">
   <rect x="504.083705" y="43.488" width="425.142857" height="399.168"/>
  </clipPath>
 </defs>
</svg>
