<?xml version="1.0" encoding="utf-8" standalone="no"?>
<!DOCTYPE svg PUBLIC "-//W3C//DTD SVG 1.1//EN"
  "http://www.w3.org/Graphics/SVG/1.1/DTD/svg11.dtd">
<svg xmlns:xlink="http://www.w3.org/1999/xlink" width="936.426562pt" height="504.957375pt" viewBox="0 0 936.426562 504.957375" xmlns="http://www.w3.org/2000/svg" version="1.1">
 <metadata>
  <rdf:RDF xmlns:dc="http://purl.org/dc/elements/1.1/" xmlns:cc="http://creativecommons.org/ns#" xmlns:rdf="http://www.w3.org/1999/02/22-rdf-syntax-ns#">
   <cc:Work>
    <dc:type rdf:resource="http://purl.org/dc/dcmitype/StillImage"/>
    <dc:date>2023-07-19T15:47:33.650150</dc:date>
    <dc:format>image/svg+xml</dc:format>
    <dc:creator>
     <cc:Agent>
      <dc:title>Matplotlib v3.7.1, https://matplotlib.org/</dc:title>
     </cc:Agent>
    </dc:creator>
   </cc:Work>
  </rdf:RDF>
 </metadata>
 <defs>
  <style type="text/css">*{stroke-linejoin: round; stroke-linecap: butt}</style>
 </defs>
 <g id="figure_1">
  <g id="patch_1">
   <path d="M 0 504.957375 
L 936.426562 504.957375 
L 936.426562 0 
L 0 0 
z
" style="fill: #ffffff"/>
  </g>
  <g id="axes_1">
   <g id="patch_2">
    <path d="M 36.426563 421.486125 
L 929.226562 421.486125 
L 929.226562 22.318125 
L 36.426563 22.318125 
z
" style="fill: #ffffff"/>
   </g>
   <g id="matplotlib.axis_1">
    <g id="xtick_1">
     <g id="line2d_1">
      <defs>
       <path id="m5583045fd3" d="M 0 0 
L 0 3.5 
" style="stroke: #000000; stroke-width: 0.8"/>
      </defs>
      <g>
       <use xlink:href="#m5583045fd3" x="84.593767" y="421.486125" style="stroke: #000000; stroke-width: 0.8"/>
      </g>
     </g>
     <g id="text_1">
      <!-- 2006 -->
      <g transform="translate(71.868767 436.084563) scale(0.1 -0.1)">
       <defs>
        <path id="DejaVuSans-32" d="M 1228 531 
L 3431 531 
L 3431 0 
L 469 0 
L 469 531 
Q 828 903 1448 1529 
Q 2069 2156 2228 2338 
Q 2531 2678 2651 2914 
Q 2772 3150 2772 3378 
Q 2772 3750 2511 3984 
Q 2250 4219 1831 4219 
Q 1534 4219 1204 4116 
Q 875 4013 500 3803 
L 500 4441 
Q 881 4594 1212 4672 
Q 1544 4750 1819 4750 
Q 2544 4750 2975 4387 
Q 3406 4025 3406 3419 
Q 3406 3131 3298 2873 
Q 3191 2616 2906 2266 
Q 2828 2175 2409 1742 
Q 1991 1309 1228 531 
z
" transform="scale(0.015625)"/>
        <path id="DejaVuSans-30" d="M 2034 4250 
Q 1547 4250 1301 3770 
Q 1056 3291 1056 2328 
Q 1056 1369 1301 889 
Q 1547 409 2034 409 
Q 2525 409 2770 889 
Q 3016 1369 3016 2328 
Q 3016 3291 2770 3770 
Q 2525 4250 2034 4250 
z
M 2034 4750 
Q 2819 4750 3233 4129 
Q 3647 3509 3647 2328 
Q 3647 1150 3233 529 
Q 2819 -91 2034 -91 
Q 1250 -91 836 529 
Q 422 1150 422 2328 
Q 422 3509 836 4129 
Q 1250 4750 2034 4750 
z
" transform="scale(0.015625)"/>
        <path id="DejaVuSans-36" d="M 2113 2584 
Q 1688 2584 1439 2293 
Q 1191 2003 1191 1497 
Q 1191 994 1439 701 
Q 1688 409 2113 409 
Q 2538 409 2786 701 
Q 3034 994 3034 1497 
Q 3034 2003 2786 2293 
Q 2538 2584 2113 2584 
z
M 3366 4563 
L 3366 3988 
Q 3128 4100 2886 4159 
Q 2644 4219 2406 4219 
Q 1781 4219 1451 3797 
Q 1122 3375 1075 2522 
Q 1259 2794 1537 2939 
Q 1816 3084 2150 3084 
Q 2853 3084 3261 2657 
Q 3669 2231 3669 1497 
Q 3669 778 3244 343 
Q 2819 -91 2113 -91 
Q 1303 -91 875 529 
Q 447 1150 447 2328 
Q 447 3434 972 4092 
Q 1497 4750 2381 4750 
Q 2619 4750 2861 4703 
Q 3103 4656 3366 4563 
z
" transform="scale(0.015625)"/>
       </defs>
       <use xlink:href="#DejaVuSans-32"/>
       <use xlink:href="#DejaVuSans-30" x="63.623047"/>
       <use xlink:href="#DejaVuSans-30" x="127.246094"/>
       <use xlink:href="#DejaVuSans-36" x="190.869141"/>
      </g>
     </g>
    </g>
    <g id="xtick_2">
     <g id="line2d_2">
      <g>
       <use xlink:href="#m5583045fd3" x="175.618406" y="421.486125" style="stroke: #000000; stroke-width: 0.8"/>
      </g>
     </g>
     <g id="text_2">
      <!-- 2007 -->
      <g transform="translate(162.893406 436.084563) scale(0.1 -0.1)">
       <defs>
        <path id="DejaVuSans-37" d="M 525 4666 
L 3525 4666 
L 3525 4397 
L 1831 0 
L 1172 0 
L 2766 4134 
L 525 4134 
L 525 4666 
z
" transform="scale(0.015625)"/>
       </defs>
       <use xlink:href="#DejaVuSans-32"/>
       <use xlink:href="#DejaVuSans-30" x="63.623047"/>
       <use xlink:href="#DejaVuSans-30" x="127.246094"/>
       <use xlink:href="#DejaVuSans-37" x="190.869141"/>
      </g>
     </g>
    </g>
    <g id="xtick_3">
     <g id="line2d_3">
      <g>
       <use xlink:href="#m5583045fd3" x="266.643045" y="421.486125" style="stroke: #000000; stroke-width: 0.8"/>
      </g>
     </g>
     <g id="text_3">
      <!-- 2008 -->
      <g transform="translate(253.918045 436.084563) scale(0.1 -0.1)">
       <defs>
        <path id="DejaVuSans-38" d="M 2034 2216 
Q 1584 2216 1326 1975 
Q 1069 1734 1069 1313 
Q 1069 891 1326 650 
Q 1584 409 2034 409 
Q 2484 409 2743 651 
Q 3003 894 3003 1313 
Q 3003 1734 2745 1975 
Q 2488 2216 2034 2216 
z
M 1403 2484 
Q 997 2584 770 2862 
Q 544 3141 544 3541 
Q 544 4100 942 4425 
Q 1341 4750 2034 4750 
Q 2731 4750 3128 4425 
Q 3525 4100 3525 3541 
Q 3525 3141 3298 2862 
Q 3072 2584 2669 2484 
Q 3125 2378 3379 2068 
Q 3634 1759 3634 1313 
Q 3634 634 3220 271 
Q 2806 -91 2034 -91 
Q 1263 -91 848 271 
Q 434 634 434 1313 
Q 434 1759 690 2068 
Q 947 2378 1403 2484 
z
M 1172 3481 
Q 1172 3119 1398 2916 
Q 1625 2713 2034 2713 
Q 2441 2713 2670 2916 
Q 2900 3119 2900 3481 
Q 2900 3844 2670 4047 
Q 2441 4250 2034 4250 
Q 1625 4250 1398 4047 
Q 1172 3844 1172 3481 
z
" transform="scale(0.015625)"/>
       </defs>
       <use xlink:href="#DejaVuSans-32"/>
       <use xlink:href="#DejaVuSans-30" x="63.623047"/>
       <use xlink:href="#DejaVuSans-30" x="127.246094"/>
       <use xlink:href="#DejaVuSans-38" x="190.869141"/>
      </g>
     </g>
    </g>
    <g id="xtick_4">
     <g id="line2d_4">
      <g>
       <use xlink:href="#m5583045fd3" x="357.667684" y="421.486125" style="stroke: #000000; stroke-width: 0.8"/>
      </g>
     </g>
     <g id="text_4">
      <!-- 2009 -->
      <g transform="translate(344.942684 436.084563) scale(0.1 -0.1)">
       <defs>
        <path id="DejaVuSans-39" d="M 703 97 
L 703 672 
Q 941 559 1184 500 
Q 1428 441 1663 441 
Q 2288 441 2617 861 
Q 2947 1281 2994 2138 
Q 2813 1869 2534 1725 
Q 2256 1581 1919 1581 
Q 1219 1581 811 2004 
Q 403 2428 403 3163 
Q 403 3881 828 4315 
Q 1253 4750 1959 4750 
Q 2769 4750 3195 4129 
Q 3622 3509 3622 2328 
Q 3622 1225 3098 567 
Q 2575 -91 1691 -91 
Q 1453 -91 1209 -44 
Q 966 3 703 97 
z
M 1959 2075 
Q 2384 2075 2632 2365 
Q 2881 2656 2881 3163 
Q 2881 3666 2632 3958 
Q 2384 4250 1959 4250 
Q 1534 4250 1286 3958 
Q 1038 3666 1038 3163 
Q 1038 2656 1286 2365 
Q 1534 2075 1959 2075 
z
" transform="scale(0.015625)"/>
       </defs>
       <use xlink:href="#DejaVuSans-32"/>
       <use xlink:href="#DejaVuSans-30" x="63.623047"/>
       <use xlink:href="#DejaVuSans-30" x="127.246094"/>
       <use xlink:href="#DejaVuSans-39" x="190.869141"/>
      </g>
     </g>
    </g>
    <g id="xtick_5">
     <g id="line2d_5">
      <g>
       <use xlink:href="#m5583045fd3" x="448.692323" y="421.486125" style="stroke: #000000; stroke-width: 0.8"/>
      </g>
     </g>
     <g id="text_5">
      <!-- 2010 -->
      <g transform="translate(435.967323 436.084563) scale(0.1 -0.1)">
       <defs>
        <path id="DejaVuSans-31" d="M 794 531 
L 1825 531 
L 1825 4091 
L 703 3866 
L 703 4441 
L 1819 4666 
L 2450 4666 
L 2450 531 
L 3481 531 
L 3481 0 
L 794 0 
L 794 531 
z
" transform="scale(0.015625)"/>
       </defs>
       <use xlink:href="#DejaVuSans-32"/>
       <use xlink:href="#DejaVuSans-30" x="63.623047"/>
       <use xlink:href="#DejaVuSans-31" x="127.246094"/>
       <use xlink:href="#DejaVuSans-30" x="190.869141"/>
      </g>
     </g>
    </g>
    <g id="xtick_6">
     <g id="line2d_6">
      <g>
       <use xlink:href="#m5583045fd3" x="539.716962" y="421.486125" style="stroke: #000000; stroke-width: 0.8"/>
      </g>
     </g>
     <g id="text_6">
      <!-- 2011 -->
      <g transform="translate(526.991962 436.084563) scale(0.1 -0.1)">
       <use xlink:href="#DejaVuSans-32"/>
       <use xlink:href="#DejaVuSans-30" x="63.623047"/>
       <use xlink:href="#DejaVuSans-31" x="127.246094"/>
       <use xlink:href="#DejaVuSans-31" x="190.869141"/>
      </g>
     </g>
    </g>
    <g id="xtick_7">
     <g id="line2d_7">
      <g>
       <use xlink:href="#m5583045fd3" x="630.741601" y="421.486125" style="stroke: #000000; stroke-width: 0.8"/>
      </g>
     </g>
     <g id="text_7">
      <!-- 2012 -->
      <g transform="translate(618.016601 436.084563) scale(0.1 -0.1)">
       <use xlink:href="#DejaVuSans-32"/>
       <use xlink:href="#DejaVuSans-30" x="63.623047"/>
       <use xlink:href="#DejaVuSans-31" x="127.246094"/>
       <use xlink:href="#DejaVuSans-32" x="190.869141"/>
      </g>
     </g>
    </g>
    <g id="xtick_8">
     <g id="line2d_8">
      <g>
       <use xlink:href="#m5583045fd3" x="721.76624" y="421.486125" style="stroke: #000000; stroke-width: 0.8"/>
      </g>
     </g>
     <g id="text_8">
      <!-- 2013 -->
      <g transform="translate(709.04124 436.084563) scale(0.1 -0.1)">
       <defs>
        <path id="DejaVuSans-33" d="M 2597 2516 
Q 3050 2419 3304 2112 
Q 3559 1806 3559 1356 
Q 3559 666 3084 287 
Q 2609 -91 1734 -91 
Q 1441 -91 1130 -33 
Q 819 25 488 141 
L 488 750 
Q 750 597 1062 519 
Q 1375 441 1716 441 
Q 2309 441 2620 675 
Q 2931 909 2931 1356 
Q 2931 1769 2642 2001 
Q 2353 2234 1838 2234 
L 1294 2234 
L 1294 2753 
L 1863 2753 
Q 2328 2753 2575 2939 
Q 2822 3125 2822 3475 
Q 2822 3834 2567 4026 
Q 2313 4219 1838 4219 
Q 1578 4219 1281 4162 
Q 984 4106 628 3988 
L 628 4550 
Q 988 4650 1302 4700 
Q 1616 4750 1894 4750 
Q 2613 4750 3031 4423 
Q 3450 4097 3450 3541 
Q 3450 3153 3228 2886 
Q 3006 2619 2597 2516 
z
" transform="scale(0.015625)"/>
       </defs>
       <use xlink:href="#DejaVuSans-32"/>
       <use xlink:href="#DejaVuSans-30" x="63.623047"/>
       <use xlink:href="#DejaVuSans-31" x="127.246094"/>
       <use xlink:href="#DejaVuSans-33" x="190.869141"/>
      </g>
     </g>
    </g>
    <g id="xtick_9">
     <g id="line2d_9">
      <g>
       <use xlink:href="#m5583045fd3" x="812.790879" y="421.486125" style="stroke: #000000; stroke-width: 0.8"/>
      </g>
     </g>
     <g id="text_9">
      <!-- 2014 -->
      <g transform="translate(800.065879 436.084563) scale(0.1 -0.1)">
       <defs>
        <path id="DejaVuSans-34" d="M 2419 4116 
L 825 1625 
L 2419 1625 
L 2419 4116 
z
M 2253 4666 
L 3047 4666 
L 3047 1625 
L 3713 1625 
L 3713 1100 
L 3047 1100 
L 3047 0 
L 2419 0 
L 2419 1100 
L 313 1100 
L 313 1709 
L 2253 4666 
z
" transform="scale(0.015625)"/>
       </defs>
       <use xlink:href="#DejaVuSans-32"/>
       <use xlink:href="#DejaVuSans-30" x="63.623047"/>
       <use xlink:href="#DejaVuSans-31" x="127.246094"/>
       <use xlink:href="#DejaVuSans-34" x="190.869141"/>
      </g>
     </g>
    </g>
    <g id="xtick_10">
     <g id="line2d_10">
      <g>
       <use xlink:href="#m5583045fd3" x="903.815517" y="421.486125" style="stroke: #000000; stroke-width: 0.8"/>
      </g>
     </g>
     <g id="text_10">
      <!-- 2015 -->
      <g transform="translate(891.090517 436.084563) scale(0.1 -0.1)">
       <defs>
        <path id="DejaVuSans-35" d="M 691 4666 
L 3169 4666 
L 3169 4134 
L 1269 4134 
L 1269 2991 
Q 1406 3038 1543 3061 
Q 1681 3084 1819 3084 
Q 2600 3084 3056 2656 
Q 3513 2228 3513 1497 
Q 3513 744 3044 326 
Q 2575 -91 1722 -91 
Q 1428 -91 1123 -41 
Q 819 9 494 109 
L 494 744 
Q 775 591 1075 516 
Q 1375 441 1709 441 
Q 2250 441 2565 725 
Q 2881 1009 2881 1497 
Q 2881 1984 2565 2268 
Q 2250 2553 1709 2553 
Q 1456 2553 1204 2497 
Q 953 2441 691 2322 
L 691 4666 
z
" transform="scale(0.015625)"/>
       </defs>
       <use xlink:href="#DejaVuSans-32"/>
       <use xlink:href="#DejaVuSans-30" x="63.623047"/>
       <use xlink:href="#DejaVuSans-31" x="127.246094"/>
       <use xlink:href="#DejaVuSans-35" x="190.869141"/>
      </g>
     </g>
    </g>
   </g>
   <g id="matplotlib.axis_2">
    <g id="ytick_1">
     <g id="line2d_11">
      <path d="M 36.426563 421.486125 
L 929.226562 421.486125 
" clip-path="url(#p15354aa06d)" style="fill: none; stroke: #b0b0b0; stroke-opacity: 0.3; stroke-width: 0.8; stroke-linecap: square"/>
     </g>
     <g id="line2d_12">
      <defs>
       <path id="mfb0c4bcba6" d="M 0 0 
L -3.5 0 
" style="stroke: #000000; stroke-width: 0.8"/>
      </defs>
      <g>
       <use xlink:href="#mfb0c4bcba6" x="36.426563" y="421.486125" style="stroke: #000000; stroke-width: 0.8"/>
      </g>
     </g>
     <g id="text_11">
      <!-- 0% -->
      <g transform="translate(13.5625 425.285344) scale(0.1 -0.1)">
       <defs>
        <path id="DejaVuSans-25" d="M 4653 2053 
Q 4381 2053 4226 1822 
Q 4072 1591 4072 1178 
Q 4072 772 4226 539 
Q 4381 306 4653 306 
Q 4919 306 5073 539 
Q 5228 772 5228 1178 
Q 5228 1588 5073 1820 
Q 4919 2053 4653 2053 
z
M 4653 2450 
Q 5147 2450 5437 2106 
Q 5728 1763 5728 1178 
Q 5728 594 5436 251 
Q 5144 -91 4653 -91 
Q 4153 -91 3862 251 
Q 3572 594 3572 1178 
Q 3572 1766 3864 2108 
Q 4156 2450 4653 2450 
z
M 1428 4353 
Q 1159 4353 1004 4120 
Q 850 3888 850 3481 
Q 850 3069 1003 2837 
Q 1156 2606 1428 2606 
Q 1700 2606 1854 2837 
Q 2009 3069 2009 3481 
Q 2009 3884 1853 4118 
Q 1697 4353 1428 4353 
z
M 4250 4750 
L 4750 4750 
L 1831 -91 
L 1331 -91 
L 4250 4750 
z
M 1428 4750 
Q 1922 4750 2215 4408 
Q 2509 4066 2509 3481 
Q 2509 2891 2217 2550 
Q 1925 2209 1428 2209 
Q 931 2209 642 2551 
Q 353 2894 353 3481 
Q 353 4063 643 4406 
Q 934 4750 1428 4750 
z
" transform="scale(0.015625)"/>
       </defs>
       <use xlink:href="#DejaVuSans-30"/>
       <use xlink:href="#DejaVuSans-25" x="63.623047"/>
      </g>
     </g>
    </g>
    <g id="ytick_2">
     <g id="line2d_13">
      <path d="M 36.426563 377.134125 
L 929.226562 377.134125 
" clip-path="url(#p15354aa06d)" style="fill: none; stroke: #b0b0b0; stroke-opacity: 0.3; stroke-width: 0.8; stroke-linecap: square"/>
     </g>
     <g id="line2d_14">
      <g>
       <use xlink:href="#mfb0c4bcba6" x="36.426563" y="377.134125" style="stroke: #000000; stroke-width: 0.8"/>
      </g>
     </g>
     <g id="text_12">
      <!-- 5% -->
      <g transform="translate(13.5625 380.933344) scale(0.1 -0.1)">
       <use xlink:href="#DejaVuSans-35"/>
       <use xlink:href="#DejaVuSans-25" x="63.623047"/>
      </g>
     </g>
    </g>
    <g id="ytick_3">
     <g id="line2d_15">
      <path d="M 36.426563 332.782125 
L 929.226562 332.782125 
" clip-path="url(#p15354aa06d)" style="fill: none; stroke: #b0b0b0; stroke-opacity: 0.3; stroke-width: 0.8; stroke-linecap: square"/>
     </g>
     <g id="line2d_16">
      <g>
       <use xlink:href="#mfb0c4bcba6" x="36.426563" y="332.782125" style="stroke: #000000; stroke-width: 0.8"/>
      </g>
     </g>
     <g id="text_13">
      <!-- 10% -->
      <g transform="translate(7.2 336.581344) scale(0.1 -0.1)">
       <use xlink:href="#DejaVuSans-31"/>
       <use xlink:href="#DejaVuSans-30" x="63.623047"/>
       <use xlink:href="#DejaVuSans-25" x="127.246094"/>
      </g>
     </g>
    </g>
    <g id="ytick_4">
     <g id="line2d_17">
      <path d="M 36.426563 288.430125 
L 929.226562 288.430125 
" clip-path="url(#p15354aa06d)" style="fill: none; stroke: #b0b0b0; stroke-opacity: 0.3; stroke-width: 0.8; stroke-linecap: square"/>
     </g>
     <g id="line2d_18">
      <g>
       <use xlink:href="#mfb0c4bcba6" x="36.426563" y="288.430125" style="stroke: #000000; stroke-width: 0.8"/>
      </g>
     </g>
     <g id="text_14">
      <!-- 15% -->
      <g transform="translate(7.2 292.229344) scale(0.1 -0.1)">
       <use xlink:href="#DejaVuSans-31"/>
       <use xlink:href="#DejaVuSans-35" x="63.623047"/>
       <use xlink:href="#DejaVuSans-25" x="127.246094"/>
      </g>
     </g>
    </g>
    <g id="ytick_5">
     <g id="line2d_19">
      <path d="M 36.426563 244.078125 
L 929.226562 244.078125 
" clip-path="url(#p15354aa06d)" style="fill: none; stroke: #b0b0b0; stroke-opacity: 0.3; stroke-width: 0.8; stroke-linecap: square"/>
     </g>
     <g id="line2d_20">
      <g>
       <use xlink:href="#mfb0c4bcba6" x="36.426563" y="244.078125" style="stroke: #000000; stroke-width: 0.8"/>
      </g>
     </g>
     <g id="text_15">
      <!-- 20% -->
      <g transform="translate(7.2 247.877344) scale(0.1 -0.1)">
       <use xlink:href="#DejaVuSans-32"/>
       <use xlink:href="#DejaVuSans-30" x="63.623047"/>
       <use xlink:href="#DejaVuSans-25" x="127.246094"/>
      </g>
     </g>
    </g>
    <g id="ytick_6">
     <g id="line2d_21">
      <path d="M 36.426563 199.726125 
L 929.226562 199.726125 
" clip-path="url(#p15354aa06d)" style="fill: none; stroke: #b0b0b0; stroke-opacity: 0.3; stroke-width: 0.8; stroke-linecap: square"/>
     </g>
     <g id="line2d_22">
      <g>
       <use xlink:href="#mfb0c4bcba6" x="36.426563" y="199.726125" style="stroke: #000000; stroke-width: 0.8"/>
      </g>
     </g>
     <g id="text_16">
      <!-- 25% -->
      <g transform="translate(7.2 203.525344) scale(0.1 -0.1)">
       <use xlink:href="#DejaVuSans-32"/>
       <use xlink:href="#DejaVuSans-35" x="63.623047"/>
       <use xlink:href="#DejaVuSans-25" x="127.246094"/>
      </g>
     </g>
    </g>
    <g id="ytick_7">
     <g id="line2d_23">
      <path d="M 36.426563 155.374125 
L 929.226562 155.374125 
" clip-path="url(#p15354aa06d)" style="fill: none; stroke: #b0b0b0; stroke-opacity: 0.3; stroke-width: 0.8; stroke-linecap: square"/>
     </g>
     <g id="line2d_24">
      <g>
       <use xlink:href="#mfb0c4bcba6" x="36.426563" y="155.374125" style="stroke: #000000; stroke-width: 0.8"/>
      </g>
     </g>
     <g id="text_17">
      <!-- 30% -->
      <g transform="translate(7.2 159.173344) scale(0.1 -0.1)">
       <use xlink:href="#DejaVuSans-33"/>
       <use xlink:href="#DejaVuSans-30" x="63.623047"/>
       <use xlink:href="#DejaVuSans-25" x="127.246094"/>
      </g>
     </g>
    </g>
    <g id="ytick_8">
     <g id="line2d_25">
      <path d="M 36.426563 111.022125 
L 929.226562 111.022125 
" clip-path="url(#p15354aa06d)" style="fill: none; stroke: #b0b0b0; stroke-opacity: 0.3; stroke-width: 0.8; stroke-linecap: square"/>
     </g>
     <g id="line2d_26">
      <g>
       <use xlink:href="#mfb0c4bcba6" x="36.426563" y="111.022125" style="stroke: #000000; stroke-width: 0.8"/>
      </g>
     </g>
     <g id="text_18">
      <!-- 35% -->
      <g transform="translate(7.2 114.821344) scale(0.1 -0.1)">
       <use xlink:href="#DejaVuSans-33"/>
       <use xlink:href="#DejaVuSans-35" x="63.623047"/>
       <use xlink:href="#DejaVuSans-25" x="127.246094"/>
      </g>
     </g>
    </g>
    <g id="ytick_9">
     <g id="line2d_27">
      <path d="M 36.426563 66.670125 
L 929.226562 66.670125 
" clip-path="url(#p15354aa06d)" style="fill: none; stroke: #b0b0b0; stroke-opacity: 0.3; stroke-width: 0.8; stroke-linecap: square"/>
     </g>
     <g id="line2d_28">
      <g>
       <use xlink:href="#mfb0c4bcba6" x="36.426563" y="66.670125" style="stroke: #000000; stroke-width: 0.8"/>
      </g>
     </g>
     <g id="text_19">
      <!-- 40% -->
      <g transform="translate(7.2 70.469344) scale(0.1 -0.1)">
       <use xlink:href="#DejaVuSans-34"/>
       <use xlink:href="#DejaVuSans-30" x="63.623047"/>
       <use xlink:href="#DejaVuSans-25" x="127.246094"/>
      </g>
     </g>
    </g>
    <g id="ytick_10">
     <g id="line2d_29">
      <path d="M 36.426563 22.318125 
L 929.226562 22.318125 
" clip-path="url(#p15354aa06d)" style="fill: none; stroke: #b0b0b0; stroke-opacity: 0.3; stroke-width: 0.8; stroke-linecap: square"/>
     </g>
     <g id="line2d_30">
      <g>
       <use xlink:href="#mfb0c4bcba6" x="36.426563" y="22.318125" style="stroke: #000000; stroke-width: 0.8"/>
      </g>
     </g>
     <g id="text_20">
      <!-- 45% -->
      <g transform="translate(7.2 26.117344) scale(0.1 -0.1)">
       <use xlink:href="#DejaVuSans-34"/>
       <use xlink:href="#DejaVuSans-35" x="63.623047"/>
       <use xlink:href="#DejaVuSans-25" x="127.246094"/>
      </g>
     </g>
    </g>
   </g>
   <g id="line2d_31">
    <path d="M 380.423844 421.486125 
L 380.423844 22.318125 
" clip-path="url(#p15354aa06d)" style="fill: none; stroke-dasharray: 1.5,4.5; stroke-dashoffset: 0; stroke: #000000; stroke-width: 1.5"/>
   </g>
   <g id="line2d_32">
    <path d="M 827.961652 421.486125 
L 827.961652 22.318125 
" clip-path="url(#p15354aa06d)" style="fill: none; stroke-dasharray: 1.5,4.5; stroke-dashoffset: 0; stroke: #000000; stroke-width: 1.5"/>
   </g>
   <g id="line2d_33">
    <path d="M 130.106087 421.486125 
L 130.106087 22.318125 
" clip-path="url(#p15354aa06d)" style="fill: none; stroke-dasharray: 6.4,1.6,1,1.6; stroke-dashoffset: 0; stroke: #000000"/>
   </g>
   <g id="line2d_34">
    <path d="M 494.204642 421.486125 
L 494.204642 22.318125 
" clip-path="url(#p15354aa06d)" style="fill: none; stroke-dasharray: 6.4,1.6,1,1.6; stroke-dashoffset: 0; stroke: #000000"/>
   </g>
   <g id="line2d_35">
    <path d="M 653.49776 421.486125 
L 653.49776 22.318125 
" clip-path="url(#p15354aa06d)" style="fill: none; stroke-dasharray: 6.4,1.6,1,1.6; stroke-dashoffset: 0; stroke: #000000"/>
   </g>
   <g id="line2d_36">
    <path d="M 77.008381 350.522925 
L 243.886885 376.247085 
L 304.569978 364.715565 
L 767.278559 340.765485 
L 782.449332 327.459885 
" clip-path="url(#p15354aa06d)" style="fill: none; stroke: #2f4069; stroke-opacity: 0.65; stroke-width: 2; stroke-linecap: square"/>
    <defs>
     <path id="mf0e8692519" d="M 0 4.242641 
L 2.545584 0 
L 0 -4.242641 
L -2.545584 0 
z
" style="stroke: #2f4069; stroke-opacity: 0.65; stroke-linejoin: miter"/>
    </defs>
    <g clip-path="url(#p15354aa06d)">
     <use xlink:href="#mf0e8692519" x="77.008381" y="350.522925" style="fill: #2f4069; fill-opacity: 0.65; stroke: #2f4069; stroke-opacity: 0.65; stroke-linejoin: miter"/>
     <use xlink:href="#mf0e8692519" x="243.886885" y="376.247085" style="fill: #2f4069; fill-opacity: 0.65; stroke: #2f4069; stroke-opacity: 0.65; stroke-linejoin: miter"/>
     <use xlink:href="#mf0e8692519" x="304.569978" y="364.715565" style="fill: #2f4069; fill-opacity: 0.65; stroke: #2f4069; stroke-opacity: 0.65; stroke-linejoin: miter"/>
     <use xlink:href="#mf0e8692519" x="767.278559" y="340.765485" style="fill: #2f4069; fill-opacity: 0.65; stroke: #2f4069; stroke-opacity: 0.65; stroke-linejoin: miter"/>
     <use xlink:href="#mf0e8692519" x="782.449332" y="327.459885" style="fill: #2f4069; fill-opacity: 0.65; stroke: #2f4069; stroke-opacity: 0.65; stroke-linejoin: miter"/>
    </g>
   </g>
   <g id="line2d_37">
    <path d="M 77.008381 350.522925 
L 243.886885 329.233965 
L 304.569978 354.958125 
L 524.546189 372.698925 
" clip-path="url(#p15354aa06d)" style="fill: none; stroke: #002e74; stroke-opacity: 0.65; stroke-width: 2; stroke-linecap: square"/>
    <defs>
     <path id="ma04060538b" d="M 0 4.242641 
L 2.545584 0 
L 0 -4.242641 
L -2.545584 0 
z
" style="stroke: #002e74; stroke-opacity: 0.65; stroke-linejoin: miter"/>
    </defs>
    <g clip-path="url(#p15354aa06d)">
     <use xlink:href="#ma04060538b" x="77.008381" y="350.522925" style="fill: #002e74; fill-opacity: 0.65; stroke: #002e74; stroke-opacity: 0.65; stroke-linejoin: miter"/>
     <use xlink:href="#ma04060538b" x="243.886885" y="329.233965" style="fill: #002e74; fill-opacity: 0.65; stroke: #002e74; stroke-opacity: 0.65; stroke-linejoin: miter"/>
     <use xlink:href="#ma04060538b" x="304.569978" y="354.958125" style="fill: #002e74; fill-opacity: 0.65; stroke: #002e74; stroke-opacity: 0.65; stroke-linejoin: miter"/>
     <use xlink:href="#ma04060538b" x="524.546189" y="372.698925" style="fill: #002e74; fill-opacity: 0.65; stroke: #002e74; stroke-opacity: 0.65; stroke-linejoin: miter"/>
    </g>
   </g>
   <g id="line2d_38">
    <path d="M 77.008381 344.313645 
L 243.886885 288.430125 
L 304.569978 316.815405 
" clip-path="url(#p15354aa06d)" style="fill: none; stroke: #ffd936; stroke-opacity: 0.65; stroke-width: 2; stroke-linecap: square"/>
    <defs>
     <path id="m4aee98d73a" d="M 0 4.242641 
L 2.545584 0 
L 0 -4.242641 
L -2.545584 0 
z
" style="stroke: #ffd936; stroke-opacity: 0.65; stroke-linejoin: miter"/>
    </defs>
    <g clip-path="url(#p15354aa06d)">
     <use xlink:href="#m4aee98d73a" x="77.008381" y="344.313645" style="fill: #ffd936; fill-opacity: 0.65; stroke: #ffd936; stroke-opacity: 0.65; stroke-linejoin: miter"/>
     <use xlink:href="#m4aee98d73a" x="243.886885" y="288.430125" style="fill: #ffd936; fill-opacity: 0.65; stroke: #ffd936; stroke-opacity: 0.65; stroke-linejoin: miter"/>
     <use xlink:href="#m4aee98d73a" x="304.569978" y="316.815405" style="fill: #ffd936; fill-opacity: 0.65; stroke: #ffd936; stroke-opacity: 0.65; stroke-linejoin: miter"/>
    </g>
   </g>
   <g id="line2d_39">
    <path d="M 77.008381 169.566765 
L 243.886885 169.566765 
L 304.569978 123.440685 
L 350.082297 158.035245 
L 524.546189 284.881965 
L 638.326987 294.639405 
L 752.107786 340.765485 
L 767.278559 337.217325 
L 782.449332 349.635885 
" clip-path="url(#p15354aa06d)" style="fill: none; stroke-dasharray: 7.4,3.2; stroke-dashoffset: 0; stroke: #ffd936; stroke-opacity: 0.65; stroke-width: 2"/>
    <g clip-path="url(#p15354aa06d)">
     <use xlink:href="#m4aee98d73a" x="77.008381" y="169.566765" style="fill: #ffd936; fill-opacity: 0.65; stroke: #ffd936; stroke-opacity: 0.65; stroke-linejoin: miter"/>
     <use xlink:href="#m4aee98d73a" x="243.886885" y="169.566765" style="fill: #ffd936; fill-opacity: 0.65; stroke: #ffd936; stroke-opacity: 0.65; stroke-linejoin: miter"/>
     <use xlink:href="#m4aee98d73a" x="304.569978" y="123.440685" style="fill: #ffd936; fill-opacity: 0.65; stroke: #ffd936; stroke-opacity: 0.65; stroke-linejoin: miter"/>
     <use xlink:href="#m4aee98d73a" x="350.082297" y="158.035245" style="fill: #ffd936; fill-opacity: 0.65; stroke: #ffd936; stroke-opacity: 0.65; stroke-linejoin: miter"/>
     <use xlink:href="#m4aee98d73a" x="524.546189" y="284.881965" style="fill: #ffd936; fill-opacity: 0.65; stroke: #ffd936; stroke-opacity: 0.65; stroke-linejoin: miter"/>
     <use xlink:href="#m4aee98d73a" x="638.326987" y="294.639405" style="fill: #ffd936; fill-opacity: 0.65; stroke: #ffd936; stroke-opacity: 0.65; stroke-linejoin: miter"/>
     <use xlink:href="#m4aee98d73a" x="752.107786" y="340.765485" style="fill: #ffd936; fill-opacity: 0.65; stroke: #ffd936; stroke-opacity: 0.65; stroke-linejoin: miter"/>
     <use xlink:href="#m4aee98d73a" x="767.278559" y="337.217325" style="fill: #ffd936; fill-opacity: 0.65; stroke: #ffd936; stroke-opacity: 0.65; stroke-linejoin: miter"/>
     <use xlink:href="#m4aee98d73a" x="782.449332" y="349.635885" style="fill: #ffd936; fill-opacity: 0.65; stroke: #ffd936; stroke-opacity: 0.65; stroke-linejoin: miter"/>
    </g>
   </g>
   <g id="line2d_40">
    <path d="M 243.886885 396.649005 
L 304.569978 385.117485 
L 524.546189 338.104365 
L 638.326987 318.589485 
L 752.107786 311.493165 
L 767.278559 355.845165 
L 782.449332 328.346925 
" clip-path="url(#p15354aa06d)" style="fill: none; stroke: #6f4d8b; stroke-opacity: 0.65; stroke-width: 2; stroke-linecap: square"/>
    <defs>
     <path id="m01370c7610" d="M 0 4.242641 
L 2.545584 0 
L 0 -4.242641 
L -2.545584 0 
z
" style="stroke: #6f4d8b; stroke-opacity: 0.65; stroke-linejoin: miter"/>
    </defs>
    <g clip-path="url(#p15354aa06d)">
     <use xlink:href="#m01370c7610" x="243.886885" y="396.649005" style="fill: #6f4d8b; fill-opacity: 0.65; stroke: #6f4d8b; stroke-opacity: 0.65; stroke-linejoin: miter"/>
     <use xlink:href="#m01370c7610" x="304.569978" y="385.117485" style="fill: #6f4d8b; fill-opacity: 0.65; stroke: #6f4d8b; stroke-opacity: 0.65; stroke-linejoin: miter"/>
     <use xlink:href="#m01370c7610" x="524.546189" y="338.104365" style="fill: #6f4d8b; fill-opacity: 0.65; stroke: #6f4d8b; stroke-opacity: 0.65; stroke-linejoin: miter"/>
     <use xlink:href="#m01370c7610" x="638.326987" y="318.589485" style="fill: #6f4d8b; fill-opacity: 0.65; stroke: #6f4d8b; stroke-opacity: 0.65; stroke-linejoin: miter"/>
     <use xlink:href="#m01370c7610" x="752.107786" y="311.493165" style="fill: #6f4d8b; fill-opacity: 0.65; stroke: #6f4d8b; stroke-opacity: 0.65; stroke-linejoin: miter"/>
     <use xlink:href="#m01370c7610" x="767.278559" y="355.845165" style="fill: #6f4d8b; fill-opacity: 0.65; stroke: #6f4d8b; stroke-opacity: 0.65; stroke-linejoin: miter"/>
     <use xlink:href="#m01370c7610" x="782.449332" y="328.346925" style="fill: #6f4d8b; fill-opacity: 0.65; stroke: #6f4d8b; stroke-opacity: 0.65; stroke-linejoin: miter"/>
    </g>
   </g>
   <g id="line2d_41">
    <path d="M 638.326987 327.459885 
L 767.278559 344.313645 
L 782.449332 330.121005 
L 888.644744 332.782125 
" clip-path="url(#p15354aa06d)" style="fill: none; stroke: #889c4b; stroke-opacity: 0.65; stroke-width: 2; stroke-linecap: square"/>
    <defs>
     <path id="m8e8720d88d" d="M 0 4.242641 
L 2.545584 0 
L 0 -4.242641 
L -2.545584 0 
z
" style="stroke: #889c4b; stroke-opacity: 0.65; stroke-linejoin: miter"/>
    </defs>
    <g clip-path="url(#p15354aa06d)">
     <use xlink:href="#m8e8720d88d" x="638.326987" y="327.459885" style="fill: #889c4b; fill-opacity: 0.65; stroke: #889c4b; stroke-opacity: 0.65; stroke-linejoin: miter"/>
     <use xlink:href="#m8e8720d88d" x="767.278559" y="344.313645" style="fill: #889c4b; fill-opacity: 0.65; stroke: #889c4b; stroke-opacity: 0.65; stroke-linejoin: miter"/>
     <use xlink:href="#m8e8720d88d" x="782.449332" y="330.121005" style="fill: #889c4b; fill-opacity: 0.65; stroke: #889c4b; stroke-opacity: 0.65; stroke-linejoin: miter"/>
     <use xlink:href="#m8e8720d88d" x="888.644744" y="332.782125" style="fill: #889c4b; fill-opacity: 0.65; stroke: #889c4b; stroke-opacity: 0.65; stroke-linejoin: miter"/>
    </g>
   </g>
   <g id="line2d_42">
    <path d="M 77.008381 329.233965 
L 243.886885 349.635885 
L 304.569978 343.426605 
L 524.546189 286.656045 
L 638.326987 307.057965 
L 752.107786 306.170925 
L 767.278559 281.333805 
L 782.449332 316.815405 
L 888.644744 332.782125 
" clip-path="url(#p15354aa06d)" style="fill: none; stroke: #ee7d14; stroke-opacity: 0.65; stroke-width: 2; stroke-linecap: square"/>
    <defs>
     <path id="md550aaf029" d="M 0 4.242641 
L 2.545584 0 
L 0 -4.242641 
L -2.545584 0 
z
" style="stroke: #ee7d14; stroke-opacity: 0.65; stroke-linejoin: miter"/>
    </defs>
    <g clip-path="url(#p15354aa06d)">
     <use xlink:href="#md550aaf029" x="77.008381" y="329.233965" style="fill: #ee7d14; fill-opacity: 0.65; stroke: #ee7d14; stroke-opacity: 0.65; stroke-linejoin: miter"/>
     <use xlink:href="#md550aaf029" x="243.886885" y="349.635885" style="fill: #ee7d14; fill-opacity: 0.65; stroke: #ee7d14; stroke-opacity: 0.65; stroke-linejoin: miter"/>
     <use xlink:href="#md550aaf029" x="304.569978" y="343.426605" style="fill: #ee7d14; fill-opacity: 0.65; stroke: #ee7d14; stroke-opacity: 0.65; stroke-linejoin: miter"/>
     <use xlink:href="#md550aaf029" x="524.546189" y="286.656045" style="fill: #ee7d14; fill-opacity: 0.65; stroke: #ee7d14; stroke-opacity: 0.65; stroke-linejoin: miter"/>
     <use xlink:href="#md550aaf029" x="638.326987" y="307.057965" style="fill: #ee7d14; fill-opacity: 0.65; stroke: #ee7d14; stroke-opacity: 0.65; stroke-linejoin: miter"/>
     <use xlink:href="#md550aaf029" x="752.107786" y="306.170925" style="fill: #ee7d14; fill-opacity: 0.65; stroke: #ee7d14; stroke-opacity: 0.65; stroke-linejoin: miter"/>
     <use xlink:href="#md550aaf029" x="767.278559" y="281.333805" style="fill: #ee7d14; fill-opacity: 0.65; stroke: #ee7d14; stroke-opacity: 0.65; stroke-linejoin: miter"/>
     <use xlink:href="#md550aaf029" x="782.449332" y="316.815405" style="fill: #ee7d14; fill-opacity: 0.65; stroke: #ee7d14; stroke-opacity: 0.65; stroke-linejoin: miter"/>
     <use xlink:href="#md550aaf029" x="888.644744" y="332.782125" style="fill: #ee7d14; fill-opacity: 0.65; stroke: #ee7d14; stroke-opacity: 0.65; stroke-linejoin: miter"/>
    </g>
   </g>
   <g id="line2d_43">
    <path d="M 524.546189 379.795245 
L 767.278559 379.795245 
" clip-path="url(#p15354aa06d)" style="fill: none; stroke: #9aff01; stroke-opacity: 0.65; stroke-width: 2; stroke-linecap: square"/>
    <defs>
     <path id="mf9612f7af9" d="M 0 4.242641 
L 2.545584 0 
L 0 -4.242641 
L -2.545584 0 
z
" style="stroke: #9aff01; stroke-opacity: 0.65; stroke-linejoin: miter"/>
    </defs>
    <g clip-path="url(#p15354aa06d)">
     <use xlink:href="#mf9612f7af9" x="524.546189" y="379.795245" style="fill: #9aff01; fill-opacity: 0.65; stroke: #9aff01; stroke-opacity: 0.65; stroke-linejoin: miter"/>
     <use xlink:href="#mf9612f7af9" x="767.278559" y="379.795245" style="fill: #9aff01; fill-opacity: 0.65; stroke: #9aff01; stroke-opacity: 0.65; stroke-linejoin: miter"/>
    </g>
   </g>
   <g id="line2d_44">
    <path d="M 77.008381 346.974765 
L 243.886885 265.367085 
L 304.569978 285.769005 
" clip-path="url(#p15354aa06d)" style="fill: none; stroke: #2175d9; stroke-opacity: 0.65; stroke-width: 2; stroke-linecap: square"/>
    <defs>
     <path id="mb663844c13" d="M 0 4.242641 
L 2.545584 0 
L 0 -4.242641 
L -2.545584 0 
z
" style="stroke: #2175d9; stroke-opacity: 0.65; stroke-linejoin: miter"/>
    </defs>
    <g clip-path="url(#p15354aa06d)">
     <use xlink:href="#mb663844c13" x="77.008381" y="346.974765" style="fill: #2175d9; fill-opacity: 0.65; stroke: #2175d9; stroke-opacity: 0.65; stroke-linejoin: miter"/>
     <use xlink:href="#mb663844c13" x="243.886885" y="265.367085" style="fill: #2175d9; fill-opacity: 0.65; stroke: #2175d9; stroke-opacity: 0.65; stroke-linejoin: miter"/>
     <use xlink:href="#mb663844c13" x="304.569978" y="285.769005" style="fill: #2175d9; fill-opacity: 0.65; stroke: #2175d9; stroke-opacity: 0.65; stroke-linejoin: miter"/>
    </g>
   </g>
   <g id="line2d_45">
    <path d="M 77.008381 362.941485 
L 243.886885 315.041325 
L 304.569978 296.413485 
L 524.546189 323.911725 
L 638.326987 331.895085 
L 752.107786 272.463405 
L 767.278559 245.852205 
L 782.449332 231.659565 
L 888.644744 261.818925 
" clip-path="url(#p15354aa06d)" style="fill: none; stroke-dasharray: 7.4,3.2; stroke-dashoffset: 0; stroke: #d82626; stroke-opacity: 0.65; stroke-width: 2"/>
    <defs>
     <path id="m79f60bbeb8" d="M 0 4.242641 
L 2.545584 0 
L 0 -4.242641 
L -2.545584 0 
z
" style="stroke: #d82626; stroke-opacity: 0.65; stroke-linejoin: miter"/>
    </defs>
    <g clip-path="url(#p15354aa06d)">
     <use xlink:href="#m79f60bbeb8" x="77.008381" y="362.941485" style="fill: #d82626; fill-opacity: 0.65; stroke: #d82626; stroke-opacity: 0.65; stroke-linejoin: miter"/>
     <use xlink:href="#m79f60bbeb8" x="243.886885" y="315.041325" style="fill: #d82626; fill-opacity: 0.65; stroke: #d82626; stroke-opacity: 0.65; stroke-linejoin: miter"/>
     <use xlink:href="#m79f60bbeb8" x="304.569978" y="296.413485" style="fill: #d82626; fill-opacity: 0.65; stroke: #d82626; stroke-opacity: 0.65; stroke-linejoin: miter"/>
     <use xlink:href="#m79f60bbeb8" x="524.546189" y="323.911725" style="fill: #d82626; fill-opacity: 0.65; stroke: #d82626; stroke-opacity: 0.65; stroke-linejoin: miter"/>
     <use xlink:href="#m79f60bbeb8" x="638.326987" y="331.895085" style="fill: #d82626; fill-opacity: 0.65; stroke: #d82626; stroke-opacity: 0.65; stroke-linejoin: miter"/>
     <use xlink:href="#m79f60bbeb8" x="752.107786" y="272.463405" style="fill: #d82626; fill-opacity: 0.65; stroke: #d82626; stroke-opacity: 0.65; stroke-linejoin: miter"/>
     <use xlink:href="#m79f60bbeb8" x="767.278559" y="245.852205" style="fill: #d82626; fill-opacity: 0.65; stroke: #d82626; stroke-opacity: 0.65; stroke-linejoin: miter"/>
     <use xlink:href="#m79f60bbeb8" x="782.449332" y="231.659565" style="fill: #d82626; fill-opacity: 0.65; stroke: #d82626; stroke-opacity: 0.65; stroke-linejoin: miter"/>
     <use xlink:href="#m79f60bbeb8" x="888.644744" y="261.818925" style="fill: #d82626; fill-opacity: 0.65; stroke: #d82626; stroke-opacity: 0.65; stroke-linejoin: miter"/>
    </g>
   </g>
   <g id="line2d_46">
    <path d="M 243.886885 244.965165 
L 304.569978 258.270765 
L 350.082297 285.769005 
L 524.546189 115.457325 
L 638.326987 260.044845 
" clip-path="url(#p15354aa06d)" style="fill: none; stroke-dasharray: 7.4,3.2; stroke-dashoffset: 0; stroke: #002e74; stroke-opacity: 0.65; stroke-width: 2"/>
    <g clip-path="url(#p15354aa06d)">
     <use xlink:href="#ma04060538b" x="243.886885" y="244.965165" style="fill: #002e74; fill-opacity: 0.65; stroke: #002e74; stroke-opacity: 0.65; stroke-linejoin: miter"/>
     <use xlink:href="#ma04060538b" x="304.569978" y="258.270765" style="fill: #002e74; fill-opacity: 0.65; stroke: #002e74; stroke-opacity: 0.65; stroke-linejoin: miter"/>
     <use xlink:href="#ma04060538b" x="350.082297" y="285.769005" style="fill: #002e74; fill-opacity: 0.65; stroke: #002e74; stroke-opacity: 0.65; stroke-linejoin: miter"/>
     <use xlink:href="#ma04060538b" x="524.546189" y="115.457325" style="fill: #002e74; fill-opacity: 0.65; stroke: #002e74; stroke-opacity: 0.65; stroke-linejoin: miter"/>
     <use xlink:href="#ma04060538b" x="638.326987" y="260.044845" style="fill: #002e74; fill-opacity: 0.65; stroke: #002e74; stroke-opacity: 0.65; stroke-linejoin: miter"/>
    </g>
   </g>
   <g id="line2d_47">
    <path d="M 77.008381 126.988845 
L 243.886885 60.460845 
L 304.569978 43.607085 
L 350.082297 70.218285 
L 524.546189 150.051885 
L 638.326987 92.394285 
L 752.107786 151.825965 
L 767.278559 87.959085 
L 782.449332 135.859245 
L 888.644744 135.859245 
" clip-path="url(#p15354aa06d)" style="fill: none; stroke: #d82626; stroke-opacity: 0.65; stroke-width: 2; stroke-linecap: square"/>
    <g clip-path="url(#p15354aa06d)">
     <use xlink:href="#m79f60bbeb8" x="77.008381" y="126.988845" style="fill: #d82626; fill-opacity: 0.65; stroke: #d82626; stroke-opacity: 0.65; stroke-linejoin: miter"/>
     <use xlink:href="#m79f60bbeb8" x="243.886885" y="60.460845" style="fill: #d82626; fill-opacity: 0.65; stroke: #d82626; stroke-opacity: 0.65; stroke-linejoin: miter"/>
     <use xlink:href="#m79f60bbeb8" x="304.569978" y="43.607085" style="fill: #d82626; fill-opacity: 0.65; stroke: #d82626; stroke-opacity: 0.65; stroke-linejoin: miter"/>
     <use xlink:href="#m79f60bbeb8" x="350.082297" y="70.218285" style="fill: #d82626; fill-opacity: 0.65; stroke: #d82626; stroke-opacity: 0.65; stroke-linejoin: miter"/>
     <use xlink:href="#m79f60bbeb8" x="524.546189" y="150.051885" style="fill: #d82626; fill-opacity: 0.65; stroke: #d82626; stroke-opacity: 0.65; stroke-linejoin: miter"/>
     <use xlink:href="#m79f60bbeb8" x="638.326987" y="92.394285" style="fill: #d82626; fill-opacity: 0.65; stroke: #d82626; stroke-opacity: 0.65; stroke-linejoin: miter"/>
     <use xlink:href="#m79f60bbeb8" x="752.107786" y="151.825965" style="fill: #d82626; fill-opacity: 0.65; stroke: #d82626; stroke-opacity: 0.65; stroke-linejoin: miter"/>
     <use xlink:href="#m79f60bbeb8" x="767.278559" y="87.959085" style="fill: #d82626; fill-opacity: 0.65; stroke: #d82626; stroke-opacity: 0.65; stroke-linejoin: miter"/>
     <use xlink:href="#m79f60bbeb8" x="782.449332" y="135.859245" style="fill: #d82626; fill-opacity: 0.65; stroke: #d82626; stroke-opacity: 0.65; stroke-linejoin: miter"/>
     <use xlink:href="#m79f60bbeb8" x="888.644744" y="135.859245" style="fill: #d82626; fill-opacity: 0.65; stroke: #d82626; stroke-opacity: 0.65; stroke-linejoin: miter"/>
    </g>
   </g>
   <g id="patch_3">
    <path d="M 36.426563 421.486125 
L 36.426563 22.318125 
" style="fill: none; stroke: #000000; stroke-width: 0.8; stroke-linejoin: miter; stroke-linecap: square"/>
   </g>
   <g id="patch_4">
    <path d="M 929.226562 421.486125 
L 929.226562 22.318125 
" style="fill: none; stroke: #000000; stroke-width: 0.8; stroke-linejoin: miter; stroke-linecap: square"/>
   </g>
   <g id="patch_5">
    <path d="M 36.426562 421.486125 
L 929.226562 421.486125 
" style="fill: none; stroke: #000000; stroke-width: 0.8; stroke-linejoin: miter; stroke-linecap: square"/>
   </g>
   <g id="patch_6">
    <path d="M 36.426562 22.318125 
L 929.226562 22.318125 
" style="fill: none; stroke: #000000; stroke-width: 0.8; stroke-linejoin: miter; stroke-linecap: square"/>
   </g>
   <g id="text_21">
    <!-- Fico I -->
    <g transform="translate(126.326444 419.130613) rotate(-90) scale(0.1 -0.1)">
     <defs>
      <path id="DejaVuSans-46" d="M 628 4666 
L 3309 4666 
L 3309 4134 
L 1259 4134 
L 1259 2759 
L 3109 2759 
L 3109 2228 
L 1259 2228 
L 1259 0 
L 628 0 
L 628 4666 
z
" transform="scale(0.015625)"/>
      <path id="DejaVuSans-69" d="M 603 3500 
L 1178 3500 
L 1178 0 
L 603 0 
L 603 3500 
z
M 603 4863 
L 1178 4863 
L 1178 4134 
L 603 4134 
L 603 4863 
z
" transform="scale(0.015625)"/>
      <path id="DejaVuSans-63" d="M 3122 3366 
L 3122 2828 
Q 2878 2963 2633 3030 
Q 2388 3097 2138 3097 
Q 1578 3097 1268 2742 
Q 959 2388 959 1747 
Q 959 1106 1268 751 
Q 1578 397 2138 397 
Q 2388 397 2633 464 
Q 2878 531 3122 666 
L 3122 134 
Q 2881 22 2623 -34 
Q 2366 -91 2075 -91 
Q 1284 -91 818 406 
Q 353 903 353 1747 
Q 353 2603 823 3093 
Q 1294 3584 2113 3584 
Q 2378 3584 2631 3529 
Q 2884 3475 3122 3366 
z
" transform="scale(0.015625)"/>
      <path id="DejaVuSans-6f" d="M 1959 3097 
Q 1497 3097 1228 2736 
Q 959 2375 959 1747 
Q 959 1119 1226 758 
Q 1494 397 1959 397 
Q 2419 397 2687 759 
Q 2956 1122 2956 1747 
Q 2956 2369 2687 2733 
Q 2419 3097 1959 3097 
z
M 1959 3584 
Q 2709 3584 3137 3096 
Q 3566 2609 3566 1747 
Q 3566 888 3137 398 
Q 2709 -91 1959 -91 
Q 1206 -91 779 398 
Q 353 888 353 1747 
Q 353 2609 779 3096 
Q 1206 3584 1959 3584 
z
" transform="scale(0.015625)"/>
      <path id="DejaVuSans-20" transform="scale(0.015625)"/>
      <path id="DejaVuSans-49" d="M 628 4666 
L 1259 4666 
L 1259 0 
L 628 0 
L 628 4666 
z
" transform="scale(0.015625)"/>
     </defs>
     <use xlink:href="#DejaVuSans-46"/>
     <use xlink:href="#DejaVuSans-69" x="50.269531"/>
     <use xlink:href="#DejaVuSans-63" x="78.052734"/>
     <use xlink:href="#DejaVuSans-6f" x="133.033203"/>
     <use xlink:href="#DejaVuSans-20" x="194.214844"/>
     <use xlink:href="#DejaVuSans-49" x="226.001953"/>
    </g>
   </g>
   <g id="text_22">
    <!-- Radičová -->
    <g transform="translate(490.425 419.130613) rotate(-90) scale(0.1 -0.1)">
     <defs>
      <path id="DejaVuSans-52" d="M 2841 2188 
Q 3044 2119 3236 1894 
Q 3428 1669 3622 1275 
L 4263 0 
L 3584 0 
L 2988 1197 
Q 2756 1666 2539 1819 
Q 2322 1972 1947 1972 
L 1259 1972 
L 1259 0 
L 628 0 
L 628 4666 
L 2053 4666 
Q 2853 4666 3247 4331 
Q 3641 3997 3641 3322 
Q 3641 2881 3436 2590 
Q 3231 2300 2841 2188 
z
M 1259 4147 
L 1259 2491 
L 2053 2491 
Q 2509 2491 2742 2702 
Q 2975 2913 2975 3322 
Q 2975 3731 2742 3939 
Q 2509 4147 2053 4147 
L 1259 4147 
z
" transform="scale(0.015625)"/>
      <path id="DejaVuSans-61" d="M 2194 1759 
Q 1497 1759 1228 1600 
Q 959 1441 959 1056 
Q 959 750 1161 570 
Q 1363 391 1709 391 
Q 2188 391 2477 730 
Q 2766 1069 2766 1631 
L 2766 1759 
L 2194 1759 
z
M 3341 1997 
L 3341 0 
L 2766 0 
L 2766 531 
Q 2569 213 2275 61 
Q 1981 -91 1556 -91 
Q 1019 -91 701 211 
Q 384 513 384 1019 
Q 384 1609 779 1909 
Q 1175 2209 1959 2209 
L 2766 2209 
L 2766 2266 
Q 2766 2663 2505 2880 
Q 2244 3097 1772 3097 
Q 1472 3097 1187 3025 
Q 903 2953 641 2809 
L 641 3341 
Q 956 3463 1253 3523 
Q 1550 3584 1831 3584 
Q 2591 3584 2966 3190 
Q 3341 2797 3341 1997 
z
" transform="scale(0.015625)"/>
      <path id="DejaVuSans-64" d="M 2906 2969 
L 2906 4863 
L 3481 4863 
L 3481 0 
L 2906 0 
L 2906 525 
Q 2725 213 2448 61 
Q 2172 -91 1784 -91 
Q 1150 -91 751 415 
Q 353 922 353 1747 
Q 353 2572 751 3078 
Q 1150 3584 1784 3584 
Q 2172 3584 2448 3432 
Q 2725 3281 2906 2969 
z
M 947 1747 
Q 947 1113 1208 752 
Q 1469 391 1925 391 
Q 2381 391 2643 752 
Q 2906 1113 2906 1747 
Q 2906 2381 2643 2742 
Q 2381 3103 1925 3103 
Q 1469 3103 1208 2742 
Q 947 2381 947 1747 
z
" transform="scale(0.015625)"/>
      <path id="DejaVuSans-10d" d="M 3122 3366 
L 3122 2828 
Q 2878 2963 2633 3030 
Q 2388 3097 2138 3097 
Q 1578 3097 1268 2742 
Q 959 2388 959 1747 
Q 959 1106 1268 751 
Q 1578 397 2138 397 
Q 2388 397 2633 464 
Q 2878 531 3122 666 
L 3122 134 
Q 2881 22 2623 -34 
Q 2366 -91 2075 -91 
Q 1284 -91 818 406 
Q 353 903 353 1747 
Q 353 2603 823 3093 
Q 1294 3584 2113 3584 
Q 2378 3584 2631 3529 
Q 2884 3475 3122 3366 
z
M 1797 3944 
L 1031 5119 
L 1466 5119 
L 2028 4353 
L 2591 5119 
L 3025 5119 
L 2259 3944 
L 1797 3944 
z
" transform="scale(0.015625)"/>
      <path id="DejaVuSans-76" d="M 191 3500 
L 800 3500 
L 1894 563 
L 2988 3500 
L 3597 3500 
L 2284 0 
L 1503 0 
L 191 3500 
z
" transform="scale(0.015625)"/>
      <path id="DejaVuSans-e1" d="M 2194 1759 
Q 1497 1759 1228 1600 
Q 959 1441 959 1056 
Q 959 750 1161 570 
Q 1363 391 1709 391 
Q 2188 391 2477 730 
Q 2766 1069 2766 1631 
L 2766 1759 
L 2194 1759 
z
M 3341 1997 
L 3341 0 
L 2766 0 
L 2766 531 
Q 2569 213 2275 61 
Q 1981 -91 1556 -91 
Q 1019 -91 701 211 
Q 384 513 384 1019 
Q 384 1609 779 1909 
Q 1175 2209 1959 2209 
L 2766 2209 
L 2766 2266 
Q 2766 2663 2505 2880 
Q 2244 3097 1772 3097 
Q 1472 3097 1187 3025 
Q 903 2953 641 2809 
L 641 3341 
Q 956 3463 1253 3523 
Q 1550 3584 1831 3584 
Q 2591 3584 2966 3190 
Q 3341 2797 3341 1997 
z
M 2291 5119 
L 2913 5119 
L 1894 3944 
L 1416 3944 
L 2291 5119 
z
" transform="scale(0.015625)"/>
     </defs>
     <use xlink:href="#DejaVuSans-52"/>
     <use xlink:href="#DejaVuSans-61" x="67.232422"/>
     <use xlink:href="#DejaVuSans-64" x="128.511719"/>
     <use xlink:href="#DejaVuSans-69" x="191.988281"/>
     <use xlink:href="#DejaVuSans-10d" x="219.771484"/>
     <use xlink:href="#DejaVuSans-6f" x="274.751953"/>
     <use xlink:href="#DejaVuSans-76" x="335.933594"/>
     <use xlink:href="#DejaVuSans-e1" x="395.113281"/>
    </g>
   </g>
   <g id="text_23">
    <!-- Fico II -->
    <g transform="translate(649.718118 419.130613) rotate(-90) scale(0.1 -0.1)">
     <use xlink:href="#DejaVuSans-46"/>
     <use xlink:href="#DejaVuSans-69" x="50.269531"/>
     <use xlink:href="#DejaVuSans-63" x="78.052734"/>
     <use xlink:href="#DejaVuSans-6f" x="133.033203"/>
     <use xlink:href="#DejaVuSans-20" x="194.214844"/>
     <use xlink:href="#DejaVuSans-49" x="226.001953"/>
     <use xlink:href="#DejaVuSans-49" x="255.494141"/>
    </g>
   </g>
   <g id="text_24">
    <!-- Trust (Spontaneous) -->
    <g transform="translate(422.496563 16.318125) scale(0.12 -0.12)">
     <defs>
      <path id="DejaVuSans-54" d="M -19 4666 
L 3928 4666 
L 3928 4134 
L 2272 4134 
L 2272 0 
L 1638 0 
L 1638 4134 
L -19 4134 
L -19 4666 
z
" transform="scale(0.015625)"/>
      <path id="DejaVuSans-72" d="M 2631 2963 
Q 2534 3019 2420 3045 
Q 2306 3072 2169 3072 
Q 1681 3072 1420 2755 
Q 1159 2438 1159 1844 
L 1159 0 
L 581 0 
L 581 3500 
L 1159 3500 
L 1159 2956 
Q 1341 3275 1631 3429 
Q 1922 3584 2338 3584 
Q 2397 3584 2469 3576 
Q 2541 3569 2628 3553 
L 2631 2963 
z
" transform="scale(0.015625)"/>
      <path id="DejaVuSans-75" d="M 544 1381 
L 544 3500 
L 1119 3500 
L 1119 1403 
Q 1119 906 1312 657 
Q 1506 409 1894 409 
Q 2359 409 2629 706 
Q 2900 1003 2900 1516 
L 2900 3500 
L 3475 3500 
L 3475 0 
L 2900 0 
L 2900 538 
Q 2691 219 2414 64 
Q 2138 -91 1772 -91 
Q 1169 -91 856 284 
Q 544 659 544 1381 
z
M 1991 3584 
L 1991 3584 
z
" transform="scale(0.015625)"/>
      <path id="DejaVuSans-73" d="M 2834 3397 
L 2834 2853 
Q 2591 2978 2328 3040 
Q 2066 3103 1784 3103 
Q 1356 3103 1142 2972 
Q 928 2841 928 2578 
Q 928 2378 1081 2264 
Q 1234 2150 1697 2047 
L 1894 2003 
Q 2506 1872 2764 1633 
Q 3022 1394 3022 966 
Q 3022 478 2636 193 
Q 2250 -91 1575 -91 
Q 1294 -91 989 -36 
Q 684 19 347 128 
L 347 722 
Q 666 556 975 473 
Q 1284 391 1588 391 
Q 1994 391 2212 530 
Q 2431 669 2431 922 
Q 2431 1156 2273 1281 
Q 2116 1406 1581 1522 
L 1381 1569 
Q 847 1681 609 1914 
Q 372 2147 372 2553 
Q 372 3047 722 3315 
Q 1072 3584 1716 3584 
Q 2034 3584 2315 3537 
Q 2597 3491 2834 3397 
z
" transform="scale(0.015625)"/>
      <path id="DejaVuSans-74" d="M 1172 4494 
L 1172 3500 
L 2356 3500 
L 2356 3053 
L 1172 3053 
L 1172 1153 
Q 1172 725 1289 603 
Q 1406 481 1766 481 
L 2356 481 
L 2356 0 
L 1766 0 
Q 1100 0 847 248 
Q 594 497 594 1153 
L 594 3053 
L 172 3053 
L 172 3500 
L 594 3500 
L 594 4494 
L 1172 4494 
z
" transform="scale(0.015625)"/>
      <path id="DejaVuSans-28" d="M 1984 4856 
Q 1566 4138 1362 3434 
Q 1159 2731 1159 2009 
Q 1159 1288 1364 580 
Q 1569 -128 1984 -844 
L 1484 -844 
Q 1016 -109 783 600 
Q 550 1309 550 2009 
Q 550 2706 781 3412 
Q 1013 4119 1484 4856 
L 1984 4856 
z
" transform="scale(0.015625)"/>
      <path id="DejaVuSans-53" d="M 3425 4513 
L 3425 3897 
Q 3066 4069 2747 4153 
Q 2428 4238 2131 4238 
Q 1616 4238 1336 4038 
Q 1056 3838 1056 3469 
Q 1056 3159 1242 3001 
Q 1428 2844 1947 2747 
L 2328 2669 
Q 3034 2534 3370 2195 
Q 3706 1856 3706 1288 
Q 3706 609 3251 259 
Q 2797 -91 1919 -91 
Q 1588 -91 1214 -16 
Q 841 59 441 206 
L 441 856 
Q 825 641 1194 531 
Q 1563 422 1919 422 
Q 2459 422 2753 634 
Q 3047 847 3047 1241 
Q 3047 1584 2836 1778 
Q 2625 1972 2144 2069 
L 1759 2144 
Q 1053 2284 737 2584 
Q 422 2884 422 3419 
Q 422 4038 858 4394 
Q 1294 4750 2059 4750 
Q 2388 4750 2728 4690 
Q 3069 4631 3425 4513 
z
" transform="scale(0.015625)"/>
      <path id="DejaVuSans-70" d="M 1159 525 
L 1159 -1331 
L 581 -1331 
L 581 3500 
L 1159 3500 
L 1159 2969 
Q 1341 3281 1617 3432 
Q 1894 3584 2278 3584 
Q 2916 3584 3314 3078 
Q 3713 2572 3713 1747 
Q 3713 922 3314 415 
Q 2916 -91 2278 -91 
Q 1894 -91 1617 61 
Q 1341 213 1159 525 
z
M 3116 1747 
Q 3116 2381 2855 2742 
Q 2594 3103 2138 3103 
Q 1681 3103 1420 2742 
Q 1159 2381 1159 1747 
Q 1159 1113 1420 752 
Q 1681 391 2138 391 
Q 2594 391 2855 752 
Q 3116 1113 3116 1747 
z
" transform="scale(0.015625)"/>
      <path id="DejaVuSans-6e" d="M 3513 2113 
L 3513 0 
L 2938 0 
L 2938 2094 
Q 2938 2591 2744 2837 
Q 2550 3084 2163 3084 
Q 1697 3084 1428 2787 
Q 1159 2491 1159 1978 
L 1159 0 
L 581 0 
L 581 3500 
L 1159 3500 
L 1159 2956 
Q 1366 3272 1645 3428 
Q 1925 3584 2291 3584 
Q 2894 3584 3203 3211 
Q 3513 2838 3513 2113 
z
" transform="scale(0.015625)"/>
      <path id="DejaVuSans-65" d="M 3597 1894 
L 3597 1613 
L 953 1613 
Q 991 1019 1311 708 
Q 1631 397 2203 397 
Q 2534 397 2845 478 
Q 3156 559 3463 722 
L 3463 178 
Q 3153 47 2828 -22 
Q 2503 -91 2169 -91 
Q 1331 -91 842 396 
Q 353 884 353 1716 
Q 353 2575 817 3079 
Q 1281 3584 2069 3584 
Q 2775 3584 3186 3129 
Q 3597 2675 3597 1894 
z
M 3022 2063 
Q 3016 2534 2758 2815 
Q 2500 3097 2075 3097 
Q 1594 3097 1305 2825 
Q 1016 2553 972 2059 
L 3022 2063 
z
" transform="scale(0.015625)"/>
      <path id="DejaVuSans-29" d="M 513 4856 
L 1013 4856 
Q 1481 4119 1714 3412 
Q 1947 2706 1947 2009 
Q 1947 1309 1714 600 
Q 1481 -109 1013 -844 
L 513 -844 
Q 928 -128 1133 580 
Q 1338 1288 1338 2009 
Q 1338 2731 1133 3434 
Q 928 4138 513 4856 
z
" transform="scale(0.015625)"/>
     </defs>
     <use xlink:href="#DejaVuSans-54"/>
     <use xlink:href="#DejaVuSans-72" x="46.333984"/>
     <use xlink:href="#DejaVuSans-75" x="87.447266"/>
     <use xlink:href="#DejaVuSans-73" x="150.826172"/>
     <use xlink:href="#DejaVuSans-74" x="202.925781"/>
     <use xlink:href="#DejaVuSans-20" x="242.134766"/>
     <use xlink:href="#DejaVuSans-28" x="273.921875"/>
     <use xlink:href="#DejaVuSans-53" x="312.935547"/>
     <use xlink:href="#DejaVuSans-70" x="376.412109"/>
     <use xlink:href="#DejaVuSans-6f" x="439.888672"/>
     <use xlink:href="#DejaVuSans-6e" x="501.070312"/>
     <use xlink:href="#DejaVuSans-74" x="564.449219"/>
     <use xlink:href="#DejaVuSans-61" x="603.658203"/>
     <use xlink:href="#DejaVuSans-6e" x="664.9375"/>
     <use xlink:href="#DejaVuSans-65" x="728.316406"/>
     <use xlink:href="#DejaVuSans-6f" x="789.839844"/>
     <use xlink:href="#DejaVuSans-75" x="851.021484"/>
     <use xlink:href="#DejaVuSans-73" x="914.400391"/>
     <use xlink:href="#DejaVuSans-29" x="966.5"/>
    </g>
   </g>
  </g>
  <g id="legend_1">
   <g id="line2d_48">
    <path d="M 70.042969 457.907375 
L 80.042969 457.907375 
L 90.042969 457.907375 
" style="fill: none; stroke: #d82626; stroke-opacity: 0.65; stroke-width: 2; stroke-linecap: square"/>
   </g>
   <g id="text_25">
    <!-- R. Fico (SMER-S&amp;D) -->
    <g transform="translate(98.042969 461.407375) scale(0.1 -0.1)">
     <defs>
      <path id="DejaVuSans-2e" d="M 684 794 
L 1344 794 
L 1344 0 
L 684 0 
L 684 794 
z
" transform="scale(0.015625)"/>
      <path id="DejaVuSans-4d" d="M 628 4666 
L 1569 4666 
L 2759 1491 
L 3956 4666 
L 4897 4666 
L 4897 0 
L 4281 0 
L 4281 4097 
L 3078 897 
L 2444 897 
L 1241 4097 
L 1241 0 
L 628 0 
L 628 4666 
z
" transform="scale(0.015625)"/>
      <path id="DejaVuSans-45" d="M 628 4666 
L 3578 4666 
L 3578 4134 
L 1259 4134 
L 1259 2753 
L 3481 2753 
L 3481 2222 
L 1259 2222 
L 1259 531 
L 3634 531 
L 3634 0 
L 628 0 
L 628 4666 
z
" transform="scale(0.015625)"/>
      <path id="DejaVuSans-2d" d="M 313 2009 
L 1997 2009 
L 1997 1497 
L 313 1497 
L 313 2009 
z
" transform="scale(0.015625)"/>
      <path id="DejaVuSans-26" d="M 1556 2509 
Q 1272 2256 1139 2004 
Q 1006 1753 1006 1478 
Q 1006 1022 1337 719 
Q 1669 416 2169 416 
Q 2466 416 2725 514 
Q 2984 613 3213 813 
L 1556 2509 
z
M 1997 2859 
L 3584 1234 
Q 3769 1513 3872 1830 
Q 3975 2147 3994 2503 
L 4575 2503 
Q 4538 2091 4375 1687 
Q 4213 1284 3922 891 
L 4794 0 
L 4006 0 
L 3559 459 
Q 3234 181 2878 45 
Q 2522 -91 2113 -91 
Q 1359 -91 881 339 
Q 403 769 403 1441 
Q 403 1841 612 2192 
Q 822 2544 1241 2853 
Q 1091 3050 1012 3245 
Q 934 3441 934 3628 
Q 934 4134 1281 4442 
Q 1628 4750 2203 4750 
Q 2463 4750 2720 4694 
Q 2978 4638 3244 4525 
L 3244 3956 
Q 2972 4103 2725 4179 
Q 2478 4256 2266 4256 
Q 1938 4256 1733 4082 
Q 1528 3909 1528 3634 
Q 1528 3475 1620 3314 
Q 1713 3153 1997 2859 
z
" transform="scale(0.015625)"/>
      <path id="DejaVuSans-44" d="M 1259 4147 
L 1259 519 
L 2022 519 
Q 2988 519 3436 956 
Q 3884 1394 3884 2338 
Q 3884 3275 3436 3711 
Q 2988 4147 2022 4147 
L 1259 4147 
z
M 628 4666 
L 1925 4666 
Q 3281 4666 3915 4102 
Q 4550 3538 4550 2338 
Q 4550 1131 3912 565 
Q 3275 0 1925 0 
L 628 0 
L 628 4666 
z
" transform="scale(0.015625)"/>
     </defs>
     <use xlink:href="#DejaVuSans-52"/>
     <use xlink:href="#DejaVuSans-2e" x="65.857422"/>
     <use xlink:href="#DejaVuSans-20" x="97.644531"/>
     <use xlink:href="#DejaVuSans-46" x="129.431641"/>
     <use xlink:href="#DejaVuSans-69" x="179.701172"/>
     <use xlink:href="#DejaVuSans-63" x="207.484375"/>
     <use xlink:href="#DejaVuSans-6f" x="262.464844"/>
     <use xlink:href="#DejaVuSans-20" x="323.646484"/>
     <use xlink:href="#DejaVuSans-28" x="355.433594"/>
     <use xlink:href="#DejaVuSans-53" x="394.447266"/>
     <use xlink:href="#DejaVuSans-4d" x="457.923828"/>
     <use xlink:href="#DejaVuSans-45" x="544.203125"/>
     <use xlink:href="#DejaVuSans-52" x="607.386719"/>
     <use xlink:href="#DejaVuSans-2d" x="672.869141"/>
     <use xlink:href="#DejaVuSans-53" x="708.953125"/>
     <use xlink:href="#DejaVuSans-26" x="772.429688"/>
     <use xlink:href="#DejaVuSans-44" x="850.408203"/>
     <use xlink:href="#DejaVuSans-29" x="927.410156"/>
    </g>
   </g>
   <g id="line2d_49">
    <path d="M 70.042969 473.499563 
L 80.042969 473.499563 
L 90.042969 473.499563 
" style="fill: none; stroke-dasharray: 7.4,3.2; stroke-dashoffset: 0; stroke: #002e74; stroke-opacity: 0.65; stroke-width: 2"/>
   </g>
   <g id="text_26">
    <!-- I. Radičová (SDKÚ-EPP) -->
    <g transform="translate(98.042969 476.999563) scale(0.1 -0.1)">
     <defs>
      <path id="DejaVuSans-4b" d="M 628 4666 
L 1259 4666 
L 1259 2694 
L 3353 4666 
L 4166 4666 
L 1850 2491 
L 4331 0 
L 3500 0 
L 1259 2247 
L 1259 0 
L 628 0 
L 628 4666 
z
" transform="scale(0.015625)"/>
      <path id="DejaVuSans-da" d="M 556 4666 
L 1191 4666 
L 1191 1831 
Q 1191 1081 1462 751 
Q 1734 422 2344 422 
Q 2950 422 3222 751 
Q 3494 1081 3494 1831 
L 3494 4666 
L 4128 4666 
L 4128 1753 
Q 4128 841 3676 375 
Q 3225 -91 2344 -91 
Q 1459 -91 1007 375 
Q 556 841 556 1753 
L 556 4666 
z
M 2516 5935 
L 3094 5935 
L 2381 5110 
L 1903 5110 
L 2516 5935 
z
" transform="scale(0.015625)"/>
      <path id="DejaVuSans-50" d="M 1259 4147 
L 1259 2394 
L 2053 2394 
Q 2494 2394 2734 2622 
Q 2975 2850 2975 3272 
Q 2975 3691 2734 3919 
Q 2494 4147 2053 4147 
L 1259 4147 
z
M 628 4666 
L 2053 4666 
Q 2838 4666 3239 4311 
Q 3641 3956 3641 3272 
Q 3641 2581 3239 2228 
Q 2838 1875 2053 1875 
L 1259 1875 
L 1259 0 
L 628 0 
L 628 4666 
z
" transform="scale(0.015625)"/>
     </defs>
     <use xlink:href="#DejaVuSans-49"/>
     <use xlink:href="#DejaVuSans-2e" x="29.492188"/>
     <use xlink:href="#DejaVuSans-20" x="61.279297"/>
     <use xlink:href="#DejaVuSans-52" x="93.066406"/>
     <use xlink:href="#DejaVuSans-61" x="160.298828"/>
     <use xlink:href="#DejaVuSans-64" x="221.578125"/>
     <use xlink:href="#DejaVuSans-69" x="285.054688"/>
     <use xlink:href="#DejaVuSans-10d" x="312.837891"/>
     <use xlink:href="#DejaVuSans-6f" x="367.818359"/>
     <use xlink:href="#DejaVuSans-76" x="429"/>
     <use xlink:href="#DejaVuSans-e1" x="488.179688"/>
     <use xlink:href="#DejaVuSans-20" x="549.458984"/>
     <use xlink:href="#DejaVuSans-28" x="581.246094"/>
     <use xlink:href="#DejaVuSans-53" x="620.259766"/>
     <use xlink:href="#DejaVuSans-44" x="683.736328"/>
     <use xlink:href="#DejaVuSans-4b" x="760.738281"/>
     <use xlink:href="#DejaVuSans-da" x="823.689453"/>
     <use xlink:href="#DejaVuSans-2d" x="896.882812"/>
     <use xlink:href="#DejaVuSans-45" x="932.966797"/>
     <use xlink:href="#DejaVuSans-50" x="996.150391"/>
     <use xlink:href="#DejaVuSans-50" x="1056.453125"/>
     <use xlink:href="#DejaVuSans-29" x="1116.755859"/>
    </g>
   </g>
   <g id="line2d_50">
    <path d="M 70.042969 488.177687 
L 80.042969 488.177687 
L 90.042969 488.177687 
" style="fill: none; stroke-dasharray: 7.4,3.2; stroke-dashoffset: 0; stroke: #d82626; stroke-opacity: 0.65; stroke-width: 2"/>
   </g>
   <g id="text_27">
    <!-- R. Kaliňák (SMER-S&amp;D) -->
    <g transform="translate(98.042969 491.677687) scale(0.1 -0.1)">
     <defs>
      <path id="DejaVuSans-6c" d="M 603 4863 
L 1178 4863 
L 1178 0 
L 603 0 
L 603 4863 
z
" transform="scale(0.015625)"/>
      <path id="DejaVuSans-148" d="M 3513 2113 
L 3513 0 
L 2938 0 
L 2938 2094 
Q 2938 2591 2744 2837 
Q 2550 3084 2163 3084 
Q 1697 3084 1428 2787 
Q 1159 2491 1159 1978 
L 1159 0 
L 581 0 
L 581 3500 
L 1159 3500 
L 1159 2956 
Q 1366 3272 1645 3428 
Q 1925 3584 2291 3584 
Q 2894 3584 3203 3211 
Q 3513 2838 3513 2113 
z
M 1809 3944 
L 1044 5119 
L 1478 5119 
L 2041 4353 
L 2603 5119 
L 3038 5119 
L 2272 3944 
L 1809 3944 
z
" transform="scale(0.015625)"/>
      <path id="DejaVuSans-6b" d="M 581 4863 
L 1159 4863 
L 1159 1991 
L 2875 3500 
L 3609 3500 
L 1753 1863 
L 3688 0 
L 2938 0 
L 1159 1709 
L 1159 0 
L 581 0 
L 581 4863 
z
" transform="scale(0.015625)"/>
     </defs>
     <use xlink:href="#DejaVuSans-52"/>
     <use xlink:href="#DejaVuSans-2e" x="65.857422"/>
     <use xlink:href="#DejaVuSans-20" x="97.644531"/>
     <use xlink:href="#DejaVuSans-4b" x="129.431641"/>
     <use xlink:href="#DejaVuSans-61" x="193.257812"/>
     <use xlink:href="#DejaVuSans-6c" x="254.537109"/>
     <use xlink:href="#DejaVuSans-69" x="282.320312"/>
     <use xlink:href="#DejaVuSans-148" x="310.103516"/>
     <use xlink:href="#DejaVuSans-e1" x="373.482422"/>
     <use xlink:href="#DejaVuSans-6b" x="434.761719"/>
     <use xlink:href="#DejaVuSans-20" x="492.671875"/>
     <use xlink:href="#DejaVuSans-28" x="524.458984"/>
     <use xlink:href="#DejaVuSans-53" x="563.472656"/>
     <use xlink:href="#DejaVuSans-4d" x="626.949219"/>
     <use xlink:href="#DejaVuSans-45" x="713.228516"/>
     <use xlink:href="#DejaVuSans-52" x="776.412109"/>
     <use xlink:href="#DejaVuSans-2d" x="841.894531"/>
     <use xlink:href="#DejaVuSans-53" x="877.978516"/>
     <use xlink:href="#DejaVuSans-26" x="941.455078"/>
     <use xlink:href="#DejaVuSans-44" x="1019.433594"/>
     <use xlink:href="#DejaVuSans-29" x="1096.435547"/>
    </g>
   </g>
   <g id="line2d_51">
    <path d="M 233.621094 457.907375 
L 243.621094 457.907375 
L 253.621094 457.907375 
" style="fill: none; stroke: #2175d9; stroke-opacity: 0.65; stroke-width: 2; stroke-linecap: square"/>
   </g>
   <g id="text_28">
    <!-- J. Slota (SNS-*) -->
    <g transform="translate(261.621094 461.407375) scale(0.1 -0.1)">
     <defs>
      <path id="DejaVuSans-4a" d="M 628 4666 
L 1259 4666 
L 1259 325 
Q 1259 -519 939 -900 
Q 619 -1281 -91 -1281 
L -331 -1281 
L -331 -750 
L -134 -750 
Q 284 -750 456 -515 
Q 628 -281 628 325 
L 628 4666 
z
" transform="scale(0.015625)"/>
      <path id="DejaVuSans-4e" d="M 628 4666 
L 1478 4666 
L 3547 763 
L 3547 4666 
L 4159 4666 
L 4159 0 
L 3309 0 
L 1241 3903 
L 1241 0 
L 628 0 
L 628 4666 
z
" transform="scale(0.015625)"/>
      <path id="DejaVuSans-2a" d="M 3009 3897 
L 1888 3291 
L 3009 2681 
L 2828 2375 
L 1778 3009 
L 1778 1831 
L 1422 1831 
L 1422 3009 
L 372 2375 
L 191 2681 
L 1313 3291 
L 191 3897 
L 372 4206 
L 1422 3572 
L 1422 4750 
L 1778 4750 
L 1778 3572 
L 2828 4206 
L 3009 3897 
z
" transform="scale(0.015625)"/>
     </defs>
     <use xlink:href="#DejaVuSans-4a"/>
     <use xlink:href="#DejaVuSans-2e" x="29.492188"/>
     <use xlink:href="#DejaVuSans-20" x="61.279297"/>
     <use xlink:href="#DejaVuSans-53" x="93.066406"/>
     <use xlink:href="#DejaVuSans-6c" x="156.542969"/>
     <use xlink:href="#DejaVuSans-6f" x="184.326172"/>
     <use xlink:href="#DejaVuSans-74" x="245.507812"/>
     <use xlink:href="#DejaVuSans-61" x="284.716797"/>
     <use xlink:href="#DejaVuSans-20" x="345.996094"/>
     <use xlink:href="#DejaVuSans-28" x="377.783203"/>
     <use xlink:href="#DejaVuSans-53" x="416.796875"/>
     <use xlink:href="#DejaVuSans-4e" x="480.273438"/>
     <use xlink:href="#DejaVuSans-53" x="555.078125"/>
     <use xlink:href="#DejaVuSans-2d" x="618.554688"/>
     <use xlink:href="#DejaVuSans-2a" x="654.638672"/>
     <use xlink:href="#DejaVuSans-29" x="704.638672"/>
    </g>
   </g>
   <g id="line2d_52">
    <path d="M 233.621094 472.5855 
L 243.621094 472.5855 
L 253.621094 472.5855 
" style="fill: none; stroke: #9aff01; stroke-opacity: 0.65; stroke-width: 2; stroke-linecap: square"/>
   </g>
   <g id="text_29">
    <!-- R. Sulík (SaS-ECR) -->
    <g transform="translate(261.621094 476.0855) scale(0.1 -0.1)">
     <defs>
      <path id="DejaVuSans-ed" d="M 1325 5119 
L 1947 5119 
L 928 3944 
L 450 3944 
L 1325 5119 
z
M 603 3500 
L 1178 3500 
L 1178 0 
L 603 0 
L 603 3500 
z
M 891 3584 
L 891 3584 
z
" transform="scale(0.015625)"/>
      <path id="DejaVuSans-43" d="M 4122 4306 
L 4122 3641 
Q 3803 3938 3442 4084 
Q 3081 4231 2675 4231 
Q 1875 4231 1450 3742 
Q 1025 3253 1025 2328 
Q 1025 1406 1450 917 
Q 1875 428 2675 428 
Q 3081 428 3442 575 
Q 3803 722 4122 1019 
L 4122 359 
Q 3791 134 3420 21 
Q 3050 -91 2638 -91 
Q 1578 -91 968 557 
Q 359 1206 359 2328 
Q 359 3453 968 4101 
Q 1578 4750 2638 4750 
Q 3056 4750 3426 4639 
Q 3797 4528 4122 4306 
z
" transform="scale(0.015625)"/>
     </defs>
     <use xlink:href="#DejaVuSans-52"/>
     <use xlink:href="#DejaVuSans-2e" x="65.857422"/>
     <use xlink:href="#DejaVuSans-20" x="97.644531"/>
     <use xlink:href="#DejaVuSans-53" x="129.431641"/>
     <use xlink:href="#DejaVuSans-75" x="192.908203"/>
     <use xlink:href="#DejaVuSans-6c" x="256.287109"/>
     <use xlink:href="#DejaVuSans-ed" x="284.070312"/>
     <use xlink:href="#DejaVuSans-6b" x="311.853516"/>
     <use xlink:href="#DejaVuSans-20" x="369.763672"/>
     <use xlink:href="#DejaVuSans-28" x="401.550781"/>
     <use xlink:href="#DejaVuSans-53" x="440.564453"/>
     <use xlink:href="#DejaVuSans-61" x="504.041016"/>
     <use xlink:href="#DejaVuSans-53" x="565.320312"/>
     <use xlink:href="#DejaVuSans-2d" x="628.796875"/>
     <use xlink:href="#DejaVuSans-45" x="664.880859"/>
     <use xlink:href="#DejaVuSans-43" x="728.064453"/>
     <use xlink:href="#DejaVuSans-52" x="797.888672"/>
     <use xlink:href="#DejaVuSans-29" x="867.371094"/>
    </g>
   </g>
   <g id="line2d_53">
    <path d="M 233.621094 487.663625 
L 243.621094 487.663625 
L 253.621094 487.663625 
" style="fill: none; stroke: #ee7d14; stroke-opacity: 0.65; stroke-width: 2; stroke-linecap: square"/>
   </g>
   <g id="text_30">
    <!-- B. Bugár (MOST-EPP) -->
    <g transform="translate(261.621094 491.163625) scale(0.1 -0.1)">
     <defs>
      <path id="DejaVuSans-42" d="M 1259 2228 
L 1259 519 
L 2272 519 
Q 2781 519 3026 730 
Q 3272 941 3272 1375 
Q 3272 1813 3026 2020 
Q 2781 2228 2272 2228 
L 1259 2228 
z
M 1259 4147 
L 1259 2741 
L 2194 2741 
Q 2656 2741 2882 2914 
Q 3109 3088 3109 3444 
Q 3109 3797 2882 3972 
Q 2656 4147 2194 4147 
L 1259 4147 
z
M 628 4666 
L 2241 4666 
Q 2963 4666 3353 4366 
Q 3744 4066 3744 3513 
Q 3744 3084 3544 2831 
Q 3344 2578 2956 2516 
Q 3422 2416 3680 2098 
Q 3938 1781 3938 1306 
Q 3938 681 3513 340 
Q 3088 0 2303 0 
L 628 0 
L 628 4666 
z
" transform="scale(0.015625)"/>
      <path id="DejaVuSans-67" d="M 2906 1791 
Q 2906 2416 2648 2759 
Q 2391 3103 1925 3103 
Q 1463 3103 1205 2759 
Q 947 2416 947 1791 
Q 947 1169 1205 825 
Q 1463 481 1925 481 
Q 2391 481 2648 825 
Q 2906 1169 2906 1791 
z
M 3481 434 
Q 3481 -459 3084 -895 
Q 2688 -1331 1869 -1331 
Q 1566 -1331 1297 -1286 
Q 1028 -1241 775 -1147 
L 775 -588 
Q 1028 -725 1275 -790 
Q 1522 -856 1778 -856 
Q 2344 -856 2625 -561 
Q 2906 -266 2906 331 
L 2906 616 
Q 2728 306 2450 153 
Q 2172 0 1784 0 
Q 1141 0 747 490 
Q 353 981 353 1791 
Q 353 2603 747 3093 
Q 1141 3584 1784 3584 
Q 2172 3584 2450 3431 
Q 2728 3278 2906 2969 
L 2906 3500 
L 3481 3500 
L 3481 434 
z
" transform="scale(0.015625)"/>
      <path id="DejaVuSans-4f" d="M 2522 4238 
Q 1834 4238 1429 3725 
Q 1025 3213 1025 2328 
Q 1025 1447 1429 934 
Q 1834 422 2522 422 
Q 3209 422 3611 934 
Q 4013 1447 4013 2328 
Q 4013 3213 3611 3725 
Q 3209 4238 2522 4238 
z
M 2522 4750 
Q 3503 4750 4090 4092 
Q 4678 3434 4678 2328 
Q 4678 1225 4090 567 
Q 3503 -91 2522 -91 
Q 1538 -91 948 565 
Q 359 1222 359 2328 
Q 359 3434 948 4092 
Q 1538 4750 2522 4750 
z
" transform="scale(0.015625)"/>
     </defs>
     <use xlink:href="#DejaVuSans-42"/>
     <use xlink:href="#DejaVuSans-2e" x="68.603516"/>
     <use xlink:href="#DejaVuSans-20" x="100.390625"/>
     <use xlink:href="#DejaVuSans-42" x="132.177734"/>
     <use xlink:href="#DejaVuSans-75" x="200.78125"/>
     <use xlink:href="#DejaVuSans-67" x="264.160156"/>
     <use xlink:href="#DejaVuSans-e1" x="327.636719"/>
     <use xlink:href="#DejaVuSans-72" x="388.916016"/>
     <use xlink:href="#DejaVuSans-20" x="430.029297"/>
     <use xlink:href="#DejaVuSans-28" x="461.816406"/>
     <use xlink:href="#DejaVuSans-4d" x="500.830078"/>
     <use xlink:href="#DejaVuSans-4f" x="587.109375"/>
     <use xlink:href="#DejaVuSans-53" x="665.820312"/>
     <use xlink:href="#DejaVuSans-54" x="729.296875"/>
     <use xlink:href="#DejaVuSans-2d" x="781.255859"/>
     <use xlink:href="#DejaVuSans-45" x="817.339844"/>
     <use xlink:href="#DejaVuSans-50" x="880.523438"/>
     <use xlink:href="#DejaVuSans-50" x="940.826172"/>
     <use xlink:href="#DejaVuSans-29" x="1001.128906"/>
    </g>
   </g>
   <g id="line2d_54">
    <path d="M 385.635156 457.907375 
L 395.635156 457.907375 
L 405.635156 457.907375 
" style="fill: none; stroke: #889c4b; stroke-opacity: 0.65; stroke-width: 2; stroke-linecap: square"/>
   </g>
   <g id="text_31">
    <!-- I. Matovič (OĽaNO-EPP) -->
    <g transform="translate(413.635156 461.407375) scale(0.1 -0.1)">
     <defs>
      <path id="DejaVuSans-13d" d="M 2097 4665 
L 2719 4665 
L 2353 3490 
L 1875 3490 
L 2097 4665 
z
M 628 4666 
L 1259 4666 
L 1259 531 
L 3531 531 
L 3531 0 
L 628 0 
L 628 4666 
z
" transform="scale(0.015625)"/>
     </defs>
     <use xlink:href="#DejaVuSans-49"/>
     <use xlink:href="#DejaVuSans-2e" x="29.492188"/>
     <use xlink:href="#DejaVuSans-20" x="61.279297"/>
     <use xlink:href="#DejaVuSans-4d" x="93.066406"/>
     <use xlink:href="#DejaVuSans-61" x="179.345703"/>
     <use xlink:href="#DejaVuSans-74" x="240.625"/>
     <use xlink:href="#DejaVuSans-6f" x="279.833984"/>
     <use xlink:href="#DejaVuSans-76" x="341.015625"/>
     <use xlink:href="#DejaVuSans-69" x="400.195312"/>
     <use xlink:href="#DejaVuSans-10d" x="427.978516"/>
     <use xlink:href="#DejaVuSans-20" x="482.958984"/>
     <use xlink:href="#DejaVuSans-28" x="514.746094"/>
     <use xlink:href="#DejaVuSans-4f" x="553.759766"/>
     <use xlink:href="#DejaVuSans-13d" x="632.470703"/>
     <use xlink:href="#DejaVuSans-61" x="688.183594"/>
     <use xlink:href="#DejaVuSans-4e" x="749.462891"/>
     <use xlink:href="#DejaVuSans-4f" x="824.267578"/>
     <use xlink:href="#DejaVuSans-2d" x="905.728516"/>
     <use xlink:href="#DejaVuSans-45" x="941.8125"/>
     <use xlink:href="#DejaVuSans-50" x="1004.996094"/>
     <use xlink:href="#DejaVuSans-50" x="1065.298828"/>
     <use xlink:href="#DejaVuSans-29" x="1125.601562"/>
    </g>
   </g>
   <g id="line2d_55">
    <path d="M 385.635156 472.9855 
L 395.635156 472.9855 
L 405.635156 472.9855 
" style="fill: none; stroke: #6f4d8b; stroke-opacity: 0.65; stroke-width: 2; stroke-linecap: square"/>
   </g>
   <g id="text_32">
    <!-- D. Lipšic (NOVA-ECR) -->
    <g transform="translate(413.635156 476.4855) scale(0.1 -0.1)">
     <defs>
      <path id="DejaVuSans-4c" d="M 628 4666 
L 1259 4666 
L 1259 531 
L 3531 531 
L 3531 0 
L 628 0 
L 628 4666 
z
" transform="scale(0.015625)"/>
      <path id="DejaVuSans-161" d="M 2834 3397 
L 2834 2853 
Q 2591 2978 2328 3040 
Q 2066 3103 1784 3103 
Q 1356 3103 1142 2972 
Q 928 2841 928 2578 
Q 928 2378 1081 2264 
Q 1234 2150 1697 2047 
L 1894 2003 
Q 2506 1872 2764 1633 
Q 3022 1394 3022 966 
Q 3022 478 2636 193 
Q 2250 -91 1575 -91 
Q 1294 -91 989 -36 
Q 684 19 347 128 
L 347 722 
Q 666 556 975 473 
Q 1284 391 1588 391 
Q 1994 391 2212 530 
Q 2431 669 2431 922 
Q 2431 1156 2273 1281 
Q 2116 1406 1581 1522 
L 1381 1569 
Q 847 1681 609 1914 
Q 372 2147 372 2553 
Q 372 3047 722 3315 
Q 1072 3584 1716 3584 
Q 2034 3584 2315 3537 
Q 2597 3491 2834 3397 
z
M 1503 3944 
L 738 5119 
L 1172 5119 
L 1734 4353 
L 2297 5119 
L 2731 5119 
L 1966 3944 
L 1503 3944 
z
M 1722 3584 
L 1722 3584 
z
" transform="scale(0.015625)"/>
      <path id="DejaVuSans-56" d="M 1831 0 
L 50 4666 
L 709 4666 
L 2188 738 
L 3669 4666 
L 4325 4666 
L 2547 0 
L 1831 0 
z
" transform="scale(0.015625)"/>
      <path id="DejaVuSans-41" d="M 2188 4044 
L 1331 1722 
L 3047 1722 
L 2188 4044 
z
M 1831 4666 
L 2547 4666 
L 4325 0 
L 3669 0 
L 3244 1197 
L 1141 1197 
L 716 0 
L 50 0 
L 1831 4666 
z
" transform="scale(0.015625)"/>
     </defs>
     <use xlink:href="#DejaVuSans-44"/>
     <use xlink:href="#DejaVuSans-2e" x="77.001953"/>
     <use xlink:href="#DejaVuSans-20" x="108.789062"/>
     <use xlink:href="#DejaVuSans-4c" x="140.576172"/>
     <use xlink:href="#DejaVuSans-69" x="196.289062"/>
     <use xlink:href="#DejaVuSans-70" x="224.072266"/>
     <use xlink:href="#DejaVuSans-161" x="287.548828"/>
     <use xlink:href="#DejaVuSans-69" x="339.648438"/>
     <use xlink:href="#DejaVuSans-63" x="367.431641"/>
     <use xlink:href="#DejaVuSans-20" x="422.412109"/>
     <use xlink:href="#DejaVuSans-28" x="454.199219"/>
     <use xlink:href="#DejaVuSans-4e" x="493.212891"/>
     <use xlink:href="#DejaVuSans-4f" x="568.017578"/>
     <use xlink:href="#DejaVuSans-56" x="644.978516"/>
     <use xlink:href="#DejaVuSans-41" x="707.011719"/>
     <use xlink:href="#DejaVuSans-2d" x="773.169922"/>
     <use xlink:href="#DejaVuSans-45" x="809.253906"/>
     <use xlink:href="#DejaVuSans-43" x="872.4375"/>
     <use xlink:href="#DejaVuSans-52" x="942.261719"/>
     <use xlink:href="#DejaVuSans-29" x="1011.744141"/>
    </g>
   </g>
   <g id="line2d_56">
    <path d="M 550.099219 457.907375 
L 560.099219 457.907375 
L 570.099219 457.907375 
" style="fill: none; stroke-dasharray: 7.4,3.2; stroke-dashoffset: 0; stroke: #ffd936; stroke-opacity: 0.65; stroke-width: 2"/>
   </g>
   <g id="text_33">
    <!-- I. Gašparovič (*~HZD-*) -->
    <g transform="translate(578.099219 461.407375) scale(0.1 -0.1)">
     <defs>
      <path id="DejaVuSans-47" d="M 3809 666 
L 3809 1919 
L 2778 1919 
L 2778 2438 
L 4434 2438 
L 4434 434 
Q 4069 175 3628 42 
Q 3188 -91 2688 -91 
Q 1594 -91 976 548 
Q 359 1188 359 2328 
Q 359 3472 976 4111 
Q 1594 4750 2688 4750 
Q 3144 4750 3555 4637 
Q 3966 4525 4313 4306 
L 4313 3634 
Q 3963 3931 3569 4081 
Q 3175 4231 2741 4231 
Q 1884 4231 1454 3753 
Q 1025 3275 1025 2328 
Q 1025 1384 1454 906 
Q 1884 428 2741 428 
Q 3075 428 3337 486 
Q 3600 544 3809 666 
z
" transform="scale(0.015625)"/>
      <path id="DejaVuSans-7e" d="M 4684 2553 
L 4684 1997 
Q 4356 1750 4076 1644 
Q 3797 1538 3494 1538 
Q 3150 1538 2694 1722 
Q 2659 1734 2644 1741 
Q 2622 1750 2575 1766 
Q 2091 1959 1797 1959 
Q 1522 1959 1253 1839 
Q 984 1719 678 1459 
L 678 2016 
Q 1006 2263 1286 2370 
Q 1566 2478 1869 2478 
Q 2213 2478 2672 2291 
Q 2703 2278 2719 2272 
Q 2744 2263 2788 2247 
Q 3272 2053 3566 2053 
Q 3834 2053 4098 2172 
Q 4363 2291 4684 2553 
z
" transform="scale(0.015625)"/>
      <path id="DejaVuSans-48" d="M 628 4666 
L 1259 4666 
L 1259 2753 
L 3553 2753 
L 3553 4666 
L 4184 4666 
L 4184 0 
L 3553 0 
L 3553 2222 
L 1259 2222 
L 1259 0 
L 628 0 
L 628 4666 
z
" transform="scale(0.015625)"/>
      <path id="DejaVuSans-5a" d="M 359 4666 
L 4025 4666 
L 4025 4184 
L 1075 531 
L 4097 531 
L 4097 0 
L 288 0 
L 288 481 
L 3238 4134 
L 359 4134 
L 359 4666 
z
" transform="scale(0.015625)"/>
     </defs>
     <use xlink:href="#DejaVuSans-49"/>
     <use xlink:href="#DejaVuSans-2e" x="29.492188"/>
     <use xlink:href="#DejaVuSans-20" x="61.279297"/>
     <use xlink:href="#DejaVuSans-47" x="93.066406"/>
     <use xlink:href="#DejaVuSans-61" x="170.556641"/>
     <use xlink:href="#DejaVuSans-161" x="231.835938"/>
     <use xlink:href="#DejaVuSans-70" x="283.935547"/>
     <use xlink:href="#DejaVuSans-61" x="347.412109"/>
     <use xlink:href="#DejaVuSans-72" x="408.691406"/>
     <use xlink:href="#DejaVuSans-6f" x="447.554688"/>
     <use xlink:href="#DejaVuSans-76" x="508.736328"/>
     <use xlink:href="#DejaVuSans-69" x="567.916016"/>
     <use xlink:href="#DejaVuSans-10d" x="595.699219"/>
     <use xlink:href="#DejaVuSans-20" x="650.679688"/>
     <use xlink:href="#DejaVuSans-28" x="682.466797"/>
     <use xlink:href="#DejaVuSans-2a" x="721.480469"/>
     <use xlink:href="#DejaVuSans-7e" x="771.480469"/>
     <use xlink:href="#DejaVuSans-48" x="855.269531"/>
     <use xlink:href="#DejaVuSans-5a" x="930.464844"/>
     <use xlink:href="#DejaVuSans-44" x="998.970703"/>
     <use xlink:href="#DejaVuSans-2d" x="1075.972656"/>
     <use xlink:href="#DejaVuSans-2a" x="1112.056641"/>
     <use xlink:href="#DejaVuSans-29" x="1162.056641"/>
    </g>
   </g>
   <g id="line2d_57">
    <path d="M 550.099219 472.5855 
L 560.099219 472.5855 
L 570.099219 472.5855 
" style="fill: none; stroke: #ffd936; stroke-opacity: 0.65; stroke-width: 2; stroke-linecap: square"/>
   </g>
   <g id="text_34">
    <!-- V. Mečiar (HZDS-RE) -->
    <g transform="translate(578.099219 476.0855) scale(0.1 -0.1)">
     <use xlink:href="#DejaVuSans-56"/>
     <use xlink:href="#DejaVuSans-2e" x="55.533203"/>
     <use xlink:href="#DejaVuSans-20" x="87.320312"/>
     <use xlink:href="#DejaVuSans-4d" x="119.107422"/>
     <use xlink:href="#DejaVuSans-65" x="205.386719"/>
     <use xlink:href="#DejaVuSans-10d" x="266.910156"/>
     <use xlink:href="#DejaVuSans-69" x="321.890625"/>
     <use xlink:href="#DejaVuSans-61" x="349.673828"/>
     <use xlink:href="#DejaVuSans-72" x="410.953125"/>
     <use xlink:href="#DejaVuSans-20" x="452.066406"/>
     <use xlink:href="#DejaVuSans-28" x="483.853516"/>
     <use xlink:href="#DejaVuSans-48" x="522.867188"/>
     <use xlink:href="#DejaVuSans-5a" x="598.0625"/>
     <use xlink:href="#DejaVuSans-44" x="666.568359"/>
     <use xlink:href="#DejaVuSans-53" x="743.570312"/>
     <use xlink:href="#DejaVuSans-2d" x="807.046875"/>
     <use xlink:href="#DejaVuSans-52" x="843.130859"/>
     <use xlink:href="#DejaVuSans-45" x="912.613281"/>
     <use xlink:href="#DejaVuSans-29" x="975.796875"/>
    </g>
   </g>
   <g id="line2d_58">
    <path d="M 718.207031 457.907375 
L 728.207031 457.907375 
L 738.207031 457.907375 
" style="fill: none; stroke: #002e74; stroke-opacity: 0.65; stroke-width: 2; stroke-linecap: square"/>
   </g>
   <g id="text_35">
    <!-- M. Dzurinda (SDKÚ-EPP) -->
    <g transform="translate(746.207031 461.407375) scale(0.1 -0.1)">
     <defs>
      <path id="DejaVuSans-7a" d="M 353 3500 
L 3084 3500 
L 3084 2975 
L 922 459 
L 3084 459 
L 3084 0 
L 275 0 
L 275 525 
L 2438 3041 
L 353 3041 
L 353 3500 
z
" transform="scale(0.015625)"/>
     </defs>
     <use xlink:href="#DejaVuSans-4d"/>
     <use xlink:href="#DejaVuSans-2e" x="86.279297"/>
     <use xlink:href="#DejaVuSans-20" x="118.066406"/>
     <use xlink:href="#DejaVuSans-44" x="149.853516"/>
     <use xlink:href="#DejaVuSans-7a" x="226.855469"/>
     <use xlink:href="#DejaVuSans-75" x="279.345703"/>
     <use xlink:href="#DejaVuSans-72" x="342.724609"/>
     <use xlink:href="#DejaVuSans-69" x="383.837891"/>
     <use xlink:href="#DejaVuSans-6e" x="411.621094"/>
     <use xlink:href="#DejaVuSans-64" x="475"/>
     <use xlink:href="#DejaVuSans-61" x="538.476562"/>
     <use xlink:href="#DejaVuSans-20" x="599.755859"/>
     <use xlink:href="#DejaVuSans-28" x="631.542969"/>
     <use xlink:href="#DejaVuSans-53" x="670.556641"/>
     <use xlink:href="#DejaVuSans-44" x="734.033203"/>
     <use xlink:href="#DejaVuSans-4b" x="811.035156"/>
     <use xlink:href="#DejaVuSans-da" x="873.986328"/>
     <use xlink:href="#DejaVuSans-2d" x="947.179688"/>
     <use xlink:href="#DejaVuSans-45" x="983.263672"/>
     <use xlink:href="#DejaVuSans-50" x="1046.447266"/>
     <use xlink:href="#DejaVuSans-50" x="1106.75"/>
     <use xlink:href="#DejaVuSans-29" x="1167.052734"/>
    </g>
   </g>
   <g id="line2d_59">
    <path d="M 718.207031 472.9855 
L 728.207031 472.9855 
L 738.207031 472.9855 
" style="fill: none; stroke: #2f4069; stroke-opacity: 0.65; stroke-width: 2; stroke-linecap: square"/>
   </g>
   <g id="text_36">
    <!-- P. Hrušovský (KDH-EPP) -->
    <g transform="translate(746.207031 476.4855) scale(0.1 -0.1)">
     <defs>
      <path id="DejaVuSans-fd" d="M 2059 -325 
Q 1816 -950 1584 -1140 
Q 1353 -1331 966 -1331 
L 506 -1331 
L 506 -850 
L 844 -850 
Q 1081 -850 1212 -737 
Q 1344 -625 1503 -206 
L 1606 56 
L 191 3500 
L 800 3500 
L 1894 763 
L 2988 3500 
L 3597 3500 
L 2059 -325 
z
M 2328 5119 
L 2950 5119 
L 1931 3944 
L 1453 3944 
L 2328 5119 
z
" transform="scale(0.015625)"/>
     </defs>
     <use xlink:href="#DejaVuSans-50"/>
     <use xlink:href="#DejaVuSans-2e" x="44.677734"/>
     <use xlink:href="#DejaVuSans-20" x="76.464844"/>
     <use xlink:href="#DejaVuSans-48" x="108.251953"/>
     <use xlink:href="#DejaVuSans-72" x="183.447266"/>
     <use xlink:href="#DejaVuSans-75" x="224.560547"/>
     <use xlink:href="#DejaVuSans-161" x="287.939453"/>
     <use xlink:href="#DejaVuSans-6f" x="340.039062"/>
     <use xlink:href="#DejaVuSans-76" x="401.220703"/>
     <use xlink:href="#DejaVuSans-73" x="460.400391"/>
     <use xlink:href="#DejaVuSans-6b" x="512.5"/>
     <use xlink:href="#DejaVuSans-fd" x="566.785156"/>
     <use xlink:href="#DejaVuSans-20" x="625.964844"/>
     <use xlink:href="#DejaVuSans-28" x="657.751953"/>
     <use xlink:href="#DejaVuSans-4b" x="696.765625"/>
     <use xlink:href="#DejaVuSans-44" x="762.341797"/>
     <use xlink:href="#DejaVuSans-48" x="839.34375"/>
     <use xlink:href="#DejaVuSans-2d" x="914.539062"/>
     <use xlink:href="#DejaVuSans-45" x="950.623047"/>
     <use xlink:href="#DejaVuSans-50" x="1013.806641"/>
     <use xlink:href="#DejaVuSans-50" x="1074.109375"/>
     <use xlink:href="#DejaVuSans-29" x="1134.412109"/>
    </g>
   </g>
  </g>
 </g>
 <defs>
  <clipPath id="p15354aa06d">
   <rect x="36.426563" y="22.318125" width="892.8" height="399.168"/>
  </clipPath>
 </defs>
</svg>
